<?xml version="1.0" encoding="UTF-8" standalone="no"?>
<!-- Created with Inkscape (http://www.inkscape.org/) -->

<svg
   xmlns:dc="http://purl.org/dc/elements/1.1/"
   xmlns:cc="http://creativecommons.org/ns#"
   xmlns:rdf="http://www.w3.org/1999/02/22-rdf-syntax-ns#"
   xmlns:svg="http://www.w3.org/2000/svg"
   xmlns="http://www.w3.org/2000/svg"
   xmlns:sodipodi="http://sodipodi.sourceforge.net/DTD/sodipodi-0.dtd"
   xmlns:inkscape="http://www.inkscape.org/namespaces/inkscape"
   width="21.506998mm"
   height="65.616669mm"
   viewBox="0 0 76.205901 232.5"
   id="svg10614"
   version="1.1"
   inkscape:version="0.92.1 r"
   sodipodi:docname="pedro.svg"
   inkscape:export-filename="/home/fundacion/Documentos/Megamente/img/quien-soy/ejercicio40/pedro.png"
   inkscape:export-xdpi="95.999992"
   inkscape:export-ydpi="95.999992">
  <defs
     id="defs10616">
    <linearGradient
       id="linearGradient49402"
       spreadMethod="pad"
       gradientTransform="matrix(-5.4460937,-3.9228086,3.9228086,-5.4460937,293.46827,496.00359)"
       gradientUnits="userSpaceOnUse"
       y2="0"
       x2="1"
       y1="0"
       x1="0">
      <stop
         id="stop49398"
         offset="0"
         style="stop-opacity:1;stop-color:#ffffff" />
      <stop
         id="stop49400"
         offset="1"
         style="stop-opacity:1;stop-color:#ffffff" />
    </linearGradient>
    <linearGradient
       id="linearGradient49356"
       spreadMethod="pad"
       gradientTransform="matrix(-4.199801,-3.0251067,3.0251067,-4.199801,303.95183,487.22399)"
       gradientUnits="userSpaceOnUse"
       y2="0"
       x2="1"
       y1="0"
       x1="0">
      <stop
         id="stop49352"
         offset="0"
         style="stop-opacity:1;stop-color:#ffffff" />
      <stop
         id="stop49354"
         offset="1"
         style="stop-opacity:1;stop-color:#ffffff" />
    </linearGradient>
    <linearGradient
       id="linearGradient49310"
       spreadMethod="pad"
       gradientTransform="matrix(-2.0661226,-1.4882232,1.4882232,-2.0661226,300.77997,495.82052)"
       gradientUnits="userSpaceOnUse"
       y2="0"
       x2="1"
       y1="0"
       x1="0">
      <stop
         id="stop49306"
         offset="0"
         style="stop-opacity:1;stop-color:#ffffff" />
      <stop
         id="stop49308"
         offset="1"
         style="stop-opacity:1;stop-color:#ffffff" />
    </linearGradient>
    <linearGradient
       id="linearGradient49264"
       spreadMethod="pad"
       gradientTransform="matrix(-13.640198,-9.8250031,9.8250031,-13.640198,309.13927,463.79412)"
       gradientUnits="userSpaceOnUse"
       y2="0"
       x2="1"
       y1="0"
       x1="0">
      <stop
         id="stop49260"
         offset="0"
         style="stop-opacity:1;stop-color:#ffffff" />
      <stop
         id="stop49262"
         offset="1"
         style="stop-opacity:1;stop-color:#ffffff" />
    </linearGradient>
    <linearGradient
       id="linearGradient49218"
       spreadMethod="pad"
       gradientTransform="matrix(4.0402787,-7.9929782,7.9929782,4.0402787,284.63158,485.62372)"
       gradientUnits="userSpaceOnUse"
       y2="0"
       x2="1"
       y1="0"
       x1="0">
      <stop
         id="stop49214"
         offset="0"
         style="stop-opacity:1;stop-color:#ffffff" />
      <stop
         id="stop49216"
         offset="1"
         style="stop-opacity:1;stop-color:#ffffff" />
    </linearGradient>
    <linearGradient
       id="linearGradient49156"
       spreadMethod="pad"
       gradientTransform="matrix(6.544895,-12.947919,12.947919,6.544895,292.19541,523.62105)"
       gradientUnits="userSpaceOnUse"
       y2="0"
       x2="1"
       y1="0"
       x1="0">
      <stop
         id="stop49152"
         offset="0"
         style="stop-opacity:1;stop-color:#ffffff" />
      <stop
         id="stop49154"
         offset="1"
         style="stop-opacity:1;stop-color:#ffffff" />
    </linearGradient>
    <linearGradient
       id="linearGradient49038"
       spreadMethod="pad"
       gradientTransform="matrix(0.69047265,57.274851,-57.274851,0.69047265,295.35623,449.52266)"
       gradientUnits="userSpaceOnUse"
       y2="0"
       x2="1"
       y1="0"
       x1="0">
      <stop
         id="stop49034"
         offset="0"
         style="stop-opacity:1;stop-color:#e6e7e8" />
      <stop
         id="stop49036"
         offset="1"
         style="stop-opacity:1;stop-color:#808184" />
    </linearGradient>
    <linearGradient
       id="linearGradient49018"
       spreadMethod="pad"
       gradientTransform="matrix(0.66663558,55.297571,-55.297571,0.66663558,295.45197,448.64652)"
       gradientUnits="userSpaceOnUse"
       y2="0"
       x2="1"
       y1="0"
       x1="0">
      <stop
         id="stop49014"
         offset="0"
         style="stop-opacity:1;stop-color:#e6e7e8" />
      <stop
         id="stop49016"
         offset="1"
         style="stop-opacity:1;stop-color:#808184" />
    </linearGradient>
    <linearGradient
       id="linearGradient48998"
       spreadMethod="pad"
       gradientTransform="matrix(0.69470225,57.625711,-57.625711,0.69470225,294.40495,449.22346)"
       gradientUnits="userSpaceOnUse"
       y2="0"
       x2="1"
       y1="0"
       x1="0">
      <stop
         id="stop48994"
         offset="0"
         style="stop-opacity:1;stop-color:#e6e7e8" />
      <stop
         id="stop48996"
         offset="1"
         style="stop-opacity:1;stop-color:#808184" />
    </linearGradient>
    <linearGradient
       id="linearGradient48962"
       spreadMethod="pad"
       gradientTransform="matrix(0.68164905,56.542941,-56.542941,0.68164905,296.88152,450.11959)"
       gradientUnits="userSpaceOnUse"
       y2="0"
       x2="1"
       y1="0"
       x1="0">
      <stop
         id="stop48958"
         offset="0"
         style="stop-opacity:1;stop-color:#e6e7e8" />
      <stop
         id="stop48960"
         offset="1"
         style="stop-opacity:1;stop-color:#808184" />
    </linearGradient>
    <linearGradient
       id="linearGradient48926"
       spreadMethod="pad"
       gradientTransform="matrix(21.561774,-42.656167,42.656167,21.561774,286.38615,501.30812)"
       gradientUnits="userSpaceOnUse"
       y2="0"
       x2="1"
       y1="0"
       x1="0">
      <stop
         id="stop48922"
         offset="0"
         style="stop-opacity:1;stop-color:#ffffff" />
      <stop
         id="stop48924"
         offset="1"
         style="stop-opacity:1;stop-color:#ffffff" />
    </linearGradient>
    <linearGradient
       id="linearGradient48876"
       spreadMethod="pad"
       gradientTransform="matrix(-33.615643,22.110783,-22.110783,-33.615643,315.62255,466.34426)"
       gradientUnits="userSpaceOnUse"
       y2="0"
       x2="1"
       y1="0"
       x1="0">
      <stop
         id="stop48872"
         offset="0"
         style="stop-opacity:1;stop-color:#e6e7e8" />
      <stop
         id="stop48874"
         offset="1"
         style="stop-opacity:1;stop-color:#808184" />
    </linearGradient>
  </defs>
  <sodipodi:namedview
     id="base"
     pagecolor="#ffffff"
     bordercolor="#666666"
     borderopacity="1.0"
     inkscape:pageopacity="0.0"
     inkscape:pageshadow="2"
     inkscape:zoom="1.8252194"
     inkscape:cx="-150.70722"
     inkscape:cy="82.645123"
     inkscape:document-units="px"
     inkscape:current-layer="layer1"
     showgrid="false"
     fit-margin-top="0"
     fit-margin-left="0"
     fit-margin-right="0"
     fit-margin-bottom="0"
     inkscape:window-width="1366"
     inkscape:window-height="699"
     inkscape:window-x="0"
     inkscape:window-y="32"
     inkscape:window-maximized="1" />
  <metadata
     id="metadata10619">
    <rdf:RDF>
      <cc:Work
         rdf:about="">
        <dc:format>image/svg+xml</dc:format>
        <dc:type
           rdf:resource="http://purl.org/dc/dcmitype/StillImage" />
        <dc:title></dc:title>
      </cc:Work>
    </rdf:RDF>
  </metadata>
  <g
     inkscape:label="Capa 1"
     inkscape:groupmode="layer"
     id="layer1"
     transform="translate(-538.6823,-347.17984)">
    <g
       id="g485"
       transform="matrix(1.6,0,0,1.6,-323.2094,-347.80793)"
       style="stroke-width:0.625">
      <g
         style="stroke-width:1.46386921"
         transform="matrix(0.42695071,0,0,0.42695071,308.69152,332.18513)"
         id="g4604">
        <g
           style="stroke-width:1.46386921"
           id="g324"
           transform="matrix(1.25,0,0,-1.25,594.26666,254.26708)">
          <path
             d="M 0,0 C -59.267,0 -44.986,-78.557 0,-78.557 44.987,-78.557 59.266,0 0,0"
             style="fill:#aa7764;fill-opacity:1;fill-rule:evenodd;stroke:none;stroke-width:1.46386921"
             id="path326"
             inkscape:connector-curvature="0" />
        </g>
        <g
           id="g328"
           transform="matrix(1.25,0,0,-1.25,570.62026,553.72883)"
           style="fill:#1a1a1a;stroke-width:1.46386921">
          <path
             d="m 0,0 c -4.135,-6.159 -9.645,-9.702 -11.021,-14.145 -2.222,-7.175 5.778,-7.182 10.484,-5.832 4.409,1.266 6.832,4.226 9.38,4.961 6.572,1.896 6.74,5.785 4.082,15.016 C 10.266,9.231 3.328,5.763 0,0"
             style="fill:#1a1a1a;fill-opacity:1;fill-rule:evenodd;stroke:none;stroke-width:1.46386921"
             id="path330"
             inkscape:connector-curvature="0" />
        </g>
        <g
           id="g332"
           transform="matrix(1.25,0,0,-1.25,617.54626,553.72883)"
           style="fill:#1a1a1a;stroke-width:1.46386921">
          <path
             d="m 0,0 c 4.135,-6.159 9.643,-9.702 11.019,-14.145 2.265,-7.311 -6.168,-7.089 -10.747,-5.735 -4.337,1.283 -6.588,4.135 -9.115,4.864 -6.572,1.896 -6.742,5.785 -4.083,15.016 2.659,9.231 9.598,5.763 12.926,0"
             style="fill:#1a1a1a;fill-opacity:1;fill-rule:evenodd;stroke:none;stroke-width:1.46386921"
             id="path334"
             inkscape:connector-curvature="0" />
        </g>
        <g
           id="g336"
           transform="matrix(1.25,0,0,-1.25,565.19616,454.29483)"
           style="fill:#1a1a1a;stroke-width:1.46386921">
          <path
             d="M 0,0 H 46.511 V -84.693 H 27.193 v 61.504 c 0,5.277 -7.873,5.31 -7.873,0 V -84.693 H 0 Z"
             style="fill:#1a1a1a;fill-opacity:1;fill-rule:evenodd;stroke:none;stroke-width:1.46386921"
             id="path338"
             inkscape:connector-curvature="0" />
        </g>
        <g
           id="g340"
           transform="matrix(1.25,0,0,-1.25,578.80446,384.03083)"
           style="fill:#869ab5;fill-opacity:1;stroke-width:1.46386921">
          <path
             d="m 0,0 -11.314,-35.615 c -1.441,-4.536 -6.333,-7.069 -10.869,-5.627 -4.538,1.44 -7.07,6.331 -5.629,10.868 L -16.498,5.24 C -13.211,15.587 3.117,9.812 0,0"
             style="fill:#869ab5;fill-opacity:1;fill-rule:evenodd;stroke:none;stroke-width:1.46386921"
             id="path342"
             inkscape:connector-curvature="0" />
        </g>
        <g
           style="stroke-width:1.46386921"
           id="g344"
           transform="matrix(1.25,0,0,-1.25,558.05896,462.60758)">
          <path
             d="M 0,0 V 0 C 1.149,-0.141 1.972,-1.197 1.831,-2.346 L 1.204,-7.413 C 1.063,-8.561 0.007,-9.385 -1.14,-9.243 h -0.002 c -1.147,0.142 -1.971,1.197 -1.828,2.346 l 0.624,5.067 C -2.204,-0.682 -1.149,0.142 0,0"
             style="fill:#fcdabe;fill-opacity:1;fill-rule:evenodd;stroke:none;stroke-width:1.46386921"
             id="path346"
             inkscape:connector-curvature="0" />
        </g>
        <g
           style="stroke-width:1.46386921"
           id="g348"
           transform="matrix(1.25,0,0,-1.25,560.34706,465.53983)">
          <path
             d="M 0,0 0.304,2.812 -16.53,4.785 -16.834,1.974 C -18.191,-10.448 -1.551,-14.37 0,0"
             style="fill:#fcdabe;fill-opacity:1;fill-rule:evenodd;stroke:none;stroke-width:1.46386921"
             id="path350"
             inkscape:connector-curvature="0" />
        </g>
        <g
           id="g352"
           transform="matrix(1.25,0,0,-1.25,560.72726,462.02495)"
           style="fill:#869ab5;fill-opacity:1;stroke-width:1.46386921">
          <path
             d="m 0,0 3.262,26.848 c 0.573,4.724 -2.943,9.023 -7.676,9.533 -4.733,0.511 -9.024,-2.944 -9.534,-7.675 L -16.834,1.973 Z"
             style="fill:#869ab5;fill-opacity:1;fill-rule:evenodd;stroke:none;stroke-width:1.46386921"
             id="path354"
             inkscape:connector-curvature="0" />
        </g>
        <g
           id="g356"
           transform="matrix(1.25,0,0,-1.25,609.95946,384.03083)"
           style="fill:#869ab5;fill-opacity:1;stroke-width:1.46386921">
          <path
             d="m 0,0 11.312,-35.615 c 1.443,-4.536 6.333,-7.069 10.871,-5.627 4.536,1.44 7.068,6.331 5.627,10.868 L 16.496,5.24 C 13.209,15.587 -3.117,9.812 0,0"
             style="fill:#869ab5;fill-opacity:1;fill-rule:evenodd;stroke:none;stroke-width:1.46386921"
             id="path358"
             inkscape:connector-curvature="0" />
        </g>
        <g
           style="stroke-width:1.46386921"
           id="g360"
           transform="matrix(1.25,0,0,-1.25,630.70266,462.60758)">
          <path
             d="m 0,0 v 0 c -1.149,-0.141 -1.972,-1.197 -1.83,-2.346 l 0.626,-5.067 c 0.141,-1.148 1.197,-1.972 2.346,-1.83 1.148,0.142 1.972,1.197 1.83,2.346 L 2.346,-1.83 C 2.205,-0.682 1.149,0.142 0,0"
             style="fill:#fcdabe;fill-opacity:1;fill-rule:evenodd;stroke:none;stroke-width:1.46386921"
             id="path362"
             inkscape:connector-curvature="0" />
        </g>
        <g
           style="stroke-width:1.46386921"
           id="g364"
           transform="matrix(1.25,0,0,-1.25,628.41456,465.53983)">
          <path
             d="M 0,0 -0.302,2.812 16.53,4.785 16.834,1.973 C 18.191,-10.448 1.553,-14.37 0,0"
             style="fill:#fcdabe;fill-opacity:1;fill-rule:evenodd;stroke:none;stroke-width:1.46386921"
             id="path366"
             inkscape:connector-curvature="0" />
        </g>
        <g
           id="g368"
           transform="matrix(1.25,0,0,-1.25,628.03666,462.02495)"
           style="fill:#869ab5;fill-opacity:1;stroke-width:1.46386921">
          <path
             d="m 0,0 -3.262,26.848 c -0.574,4.724 2.942,9.023 7.674,9.533 4.735,0.511 9.024,-2.944 9.536,-7.676 L 16.833,1.973 Z"
             style="fill:#869ab5;fill-opacity:1;fill-rule:evenodd;stroke:none;stroke-width:1.46386921"
             id="path370"
             inkscape:connector-curvature="0" />
        </g>
        <path
           d="m 565.19891,370.58433 h 58.13625 v 91.66375 h -58.13625 z"
           style="fill:#869ab5;fill-opacity:1;fill-rule:evenodd;stroke:none;stroke-width:1.46386921"
           id="path372"
           inkscape:connector-curvature="0" />
        <g
           style="stroke-width:1.46386921"
           id="g374"
           transform="matrix(1.25,0,0,-1.25,594.26666,327.37395)">
          <path
             d="m 0,0 v 0 c 5.776,0 10.502,-4.727 10.502,-10.504 v -24.064 c 0,-5.777 -4.726,-10.503 -10.502,-10.503 -5.778,0 -10.504,4.726 -10.504,10.503 v 24.064 C -10.504,-4.727 -5.778,0 0,0"
             style="fill:#fcdabe;fill-opacity:1;fill-rule:evenodd;stroke:none;stroke-width:1.46386921"
             id="path376"
             inkscape:connector-curvature="0" />
        </g>
        <g
           style="stroke-width:1.46386921"
           id="g378"
           transform="matrix(1.25,0,0,-1.25,607.39406,360.79483)">
          <path
             d="M 0,0 V 0 C 0,-9.021 -21.005,-9.021 -21.005,0 -21.005,9.021 0,9.021 0,0"
             style="fill:#e0ba9b;fill-opacity:1;fill-rule:evenodd;stroke:none;stroke-width:1.46386921"
             id="path380"
             inkscape:connector-curvature="0" />
        </g>
        <g
           style="stroke-width:1.46386921"
           id="g382"
           transform="matrix(1.25,0,0,-1.25,594.26666,257.3917)">
          <path
             d="M 0,0 C -59.183,0 -44.924,-85.899 0,-85.899 44.922,-85.899 59.182,0 0,0"
             style="fill:#fcdabe;fill-opacity:1;fill-rule:evenodd;stroke:none;stroke-width:1.46386921"
             id="path384"
             inkscape:connector-curvature="0" />
        </g>
        <g
           style="stroke-width:1.46386921"
           id="g386"
           transform="matrix(1.25,0,0,-1.25,542.86926,304.6702)">
          <path
             d="M 0,0 C 2.99,0.763 6.621,-3.349 8.111,-9.185 9.6,-15.02 8.387,-20.369 5.397,-21.132 c -2.988,-0.764 -6.621,3.348 -8.11,9.183 C -4.203,-6.113 -2.988,-0.763 0,0"
             style="fill:#fcdabe;fill-opacity:1;fill-rule:evenodd;stroke:none;stroke-width:1.46386921"
             id="path388"
             inkscape:connector-curvature="0" />
        </g>
        <g
           style="stroke-width:1.46386921"
           id="g390"
           transform="matrix(1.25,0,0,-1.25,645.70216,304.6702)">
          <path
             d="m 0,0 c -2.99,0.763 -6.621,-3.349 -8.111,-9.185 -1.489,-5.835 -0.276,-11.184 2.714,-11.947 2.988,-0.764 6.621,3.348 8.11,9.183 C 4.203,-6.113 2.988,-0.763 0,0"
             style="fill:#fcdabe;fill-opacity:1;fill-rule:evenodd;stroke:none;stroke-width:1.46386921"
             id="path392"
             inkscape:connector-curvature="0" />
        </g>
        <g
           style="stroke-width:1.46386921"
           id="g394"
           transform="matrix(1.25,0,0,-1.25,609.61276,321.43533)">
          <path
             d="M 0,0 C 1.571,0 2.85,2.347 2.85,5.223 2.85,8.1 1.571,10.447 0,10.447 -1.569,10.447 -2.85,8.1 -2.85,5.223 -2.85,2.347 -1.569,0 0,0"
             style="fill:#425156;fill-opacity:1;fill-rule:evenodd;stroke:none;stroke-width:1.46386921"
             id="path396"
             inkscape:connector-curvature="0" />
        </g>
        <g
           style="stroke-width:1.46386921"
           id="g398"
           transform="matrix(1.25,0,0,-1.25,578.91856,321.43533)">
          <path
             d="M 0,0 C 1.569,0 2.85,2.347 2.85,5.223 2.85,8.1 1.569,10.447 0,10.447 -1.569,10.447 -2.851,8.1 -2.851,5.223 -2.851,2.347 -1.569,0 0,0"
             style="fill:#425156;fill-opacity:1;fill-rule:evenodd;stroke:none;stroke-width:1.46386921"
             id="path400"
             inkscape:connector-curvature="0" />
        </g>
        <g
           style="stroke-width:1.46386921"
           id="g402"
           transform="matrix(1.25,0,0,-1.25,601.47346,328.81996)">
          <path
             d="M 0,0 C -2.213,-5.642 -9.319,-5.543 -11.531,0 -8.292,-3.082 -3.416,-3.225 0,0"
             style="fill:#e0ba9b;fill-opacity:1;fill-rule:evenodd;stroke:none;stroke-width:1.46386921"
             id="path404"
             inkscape:connector-curvature="0" />
        </g>
        <g
           style="stroke-width:1.46386921"
           id="g416"
           transform="matrix(1.25,0,0,-1.25,615.57816,337.13933)">
          <path
             d="M 0,0 C -6.197,-3.956 -20.866,-6.429 -29.263,-4.805 -19.289,-3.86 -9.471,-2.451 0,0"
             style="fill:#bf9470;fill-opacity:1;fill-rule:evenodd;stroke:none;stroke-width:1.46386921"
             id="path418"
             inkscape:connector-curvature="0" />
        </g>
        <g
           style="stroke-width:1.46386921"
           id="g420"
           transform="matrix(1.25,0,0,-1.25,604.84856,343.25458)">
          <path
             d="M 0,0 C -2.213,-3.72 -10.666,-4.495 -13.712,-1.345 -9.602,-2.566 -3.792,-2.003 0,0"
             style="fill:#e0ba9b;fill-opacity:1;fill-rule:evenodd;stroke:none;stroke-width:1.46386921"
             id="path422"
             inkscape:connector-curvature="0" />
        </g>
        <g
           style="stroke-width:1.46386921"
           id="g424"
           transform="matrix(1.25,0,0,-1.25,553.38176,318.7032)">
          <path
             d="m 0,0 c 0.65,-6.285 -0.879,-4.506 -3.135,0.422 -2.256,4.928 -3.903,9.845 -3.507,14.711 3.806,46.989 73.672,47.566 78.67,0 C 72.537,10.277 70.777,5.35 68.52,0.422 66.264,-4.506 64.736,-6.284 65.385,0 c 0.788,7.629 -0.388,18.609 -4.423,25.072 -7.143,11.436 -16.464,4.799 -29.1,4.799 -12.637,0 -18.56,5.157 -26.811,-5.398 C 0.05,18.075 -0.841,8.146 0,0"
             style="fill:#c47816;fill-opacity:1;fill-rule:evenodd;stroke:none;stroke-width:1.46386921"
             id="path426"
             inkscape:connector-curvature="0" />
        </g>
        <g
           style="stroke-width:1.46386921"
           id="g428"
           transform="matrix(1.25,0,0,-1.25,545.17096,298.75183)">
          <path
             d="m 0,0 c -2.301,28.115 12.08,44.451 13.891,35.766 1.812,-8.685 5.302,-2.793 7.075,3.186 1.772,5.978 3.248,7.901 6.215,1.213 2.966,-6.688 5.38,-3.804 8.216,2.576 2.842,6.395 4.916,6.395 7.759,0 2.834,-6.38 4.64,-9.72 7.607,-3.032 2.968,6.688 4.899,5.374 6.67,-0.605 1.774,-5.979 5.182,-12.49 6.995,-3.805 C 66.239,43.984 80.853,28.115 78.551,0 68.375,29.494 10.176,29.494 0,0"
             style="fill:#c47816;fill-opacity:1;fill-rule:evenodd;stroke:none;stroke-width:1.46386921"
             id="path430"
             inkscape:connector-curvature="0" />
        </g>
        <g
           style="stroke-width:1.46386921"
           id="g432"
           transform="matrix(1.25,0,0,-1.25,603.38796,303.48695)">
          <path
             d="M 0,0 C 2.042,2.667 6.814,2.735 9.772,0.973 11.253,0.09 10.332,-0.3 9.369,0.164 6.261,1.663 3.165,0.779 0.966,-1.228 -0.2,-2.293 -1.133,-1.482 0,0"
             style="fill:#c47816;fill-opacity:1;fill-rule:evenodd;stroke:none;stroke-width:1.46386921"
             id="path434"
             inkscape:connector-curvature="0" />
        </g>
        <g
           style="stroke-width:1.46386921"
           id="g436"
           transform="matrix(1.25,0,0,-1.25,583.70266,303.48695)">
          <path
             d="M 0,0 C -2.042,2.667 -6.814,2.735 -9.772,0.973 -11.253,0.09 -10.332,-0.3 -9.369,0.164 -6.261,1.663 -3.165,0.779 -0.966,-1.228 0.2,-2.293 1.133,-1.482 0,0"
             style="fill:#c47816;fill-opacity:1;fill-rule:evenodd;stroke:none;stroke-width:1.46386921"
             id="path438"
             inkscape:connector-curvature="0" />
        </g>
        <g
           id="g440"
           transform="matrix(1.25,0,0,-1.25,557.52426,569.62508)"
           style="fill:#869ab5;fill-opacity:1;stroke-width:1.46386921">
          <path
             d="m 0,0 c -0.242,-0.468 -0.442,-0.943 -0.592,-1.428 -2.23,-7.199 5.57,-7.191 10.23,-6.069 4.879,1.173 6.955,4.426 9.633,5.198 3.526,1.017 5.208,2.608 5.599,5.287 C 21.131,0.08 15.473,-2.305 9.473,-4.277 6.921,-1.451 3.232,-0.045 0,0"
             style="fill:#869ab5;fill-opacity:1;fill-rule:evenodd;stroke:none;stroke-width:1.46386921"
             id="path442"
             inkscape:connector-curvature="0" />
        </g>
        <g
           style="stroke-width:1.46386921"
           id="g444"
           transform="matrix(1.25,0,0,-1.25,560.75196,565.83171)">
          <path
             d="m 0,0 c -0.243,-0.179 -0.587,-0.126 -0.766,0.118 -0.179,0.244 -0.125,0.588 0.118,0.767 0.43,0.314 1.099,0.594 1.908,0.805 L 1.247,1.689 C 1.088,1.675 0.938,1.73 0.828,1.831 0.773,1.866 0.721,1.913 0.678,1.97 0.499,2.214 0.553,2.558 0.796,2.737 1.331,3.128 2.319,3.539 3.511,3.856 3.425,3.853 3.337,3.846 3.248,3.838 2.947,3.811 2.68,4.033 2.654,4.334 2.627,4.635 2.849,4.902 3.149,4.929 4.01,5.008 4.763,4.921 5.425,4.719 V 3.137 C 4.611,3.014 3.84,2.834 3.181,2.629 3.65,2.504 4.078,2.322 4.468,2.098 4.785,2.101 5.107,2.094 5.425,2.074 V -0.165 C 5.198,0.111 4.946,0.377 4.667,0.616 4.509,0.752 4.341,0.88 4.164,0.997 2.357,0.939 0.721,0.528 0,0 M 5.425,4.719 C 5.749,4.621 6.05,4.495 6.333,4.348 L 6.415,4.355 C 8.215,4.499 10.074,4.326 11.436,3.574 11.701,3.428 11.797,3.095 11.652,2.829 11.506,2.564 11.173,2.467 10.908,2.613 10.053,3.083 8.931,3.283 7.75,3.301 8.496,2.568 9.029,1.714 9.448,0.997 9.646,0.831 9.705,0.544 9.578,0.31 9.432,0.045 9.099,-0.053 8.832,0.093 7.998,0.554 6.977,0.818 5.919,0.933 6.624,0.184 7.132,-0.658 7.531,-1.344 7.684,-1.606 7.594,-1.941 7.331,-2.093 7.07,-2.246 6.733,-2.156 6.581,-1.894 6.277,-1.369 5.903,-0.743 5.425,-0.165 V 2.074 C 6.189,2.027 6.953,1.914 7.673,1.72 7.379,2.11 7.045,2.489 6.653,2.816 6.479,2.962 6.291,3.099 6.091,3.222 5.867,3.198 5.645,3.169 5.425,3.137 Z"
             style="fill:#ff94a8;fill-opacity:1;fill-rule:nonzero;stroke:none;stroke-width:1.46386921"
             id="path446"
             inkscape:connector-curvature="0" />
        </g>
        <g
           id="g448"
           transform="matrix(1.25,0,0,-1.25,630.60426,569.62508)"
           style="fill:#869ab5;fill-opacity:1;stroke-width:1.46386921">
          <path
             d="m 0,0 c 0.241,-0.468 0.442,-0.943 0.592,-1.428 2.23,-7.199 -5.397,-7.105 -10.058,-5.984 -4.879,1.174 -7.127,4.341 -9.804,5.113 -3.525,1.017 -5.209,2.608 -5.6,5.287 3.739,-2.908 9.397,-5.293 15.397,-7.265 C -6.921,-1.451 -3.232,-0.045 0,0"
             style="fill:#869ab5;fill-opacity:1;fill-rule:evenodd;stroke:none;stroke-width:1.46386921"
             id="path450"
             inkscape:connector-curvature="0" />
        </g>
        <g
           style="stroke-width:1.46386921"
           id="g452"
           transform="matrix(1.25,0,0,-1.25,620.59276,559.93233)">
          <path
             d="m 0,0 c -0.322,-0.098 -0.623,-0.225 -0.905,-0.371 l -0.083,0.007 c -1.8,0.143 -3.657,-0.03 -5.021,-0.781 -0.265,-0.146 -0.361,-0.48 -0.216,-0.745 0.147,-0.265 0.479,-0.363 0.746,-0.217 0.854,0.471 1.975,0.67 3.156,0.689 -0.746,-0.734 -1.279,-1.587 -1.698,-2.305 -0.198,-0.165 -0.257,-0.452 -0.129,-0.687 0.145,-0.265 0.48,-0.362 0.745,-0.216 0.834,0.46 1.855,0.724 2.913,0.84 -0.705,-0.749 -1.213,-1.592 -1.612,-2.277 -0.151,-0.262 -0.063,-0.598 0.2,-0.75 0.261,-0.152 0.598,-0.063 0.75,0.199 0.304,0.526 0.678,1.15 1.154,1.729 v 2.239 c -0.762,-0.046 -1.526,-0.16 -2.244,-0.353 0.292,0.389 0.628,0.769 1.018,1.096 0.176,0.146 0.362,0.283 0.562,0.405 C -0.44,-1.522 -0.218,-1.551 0,-1.583 Z m 5.427,-4.719 c 0.244,-0.179 0.587,-0.127 0.766,0.118 0.179,0.244 0.125,0.587 -0.118,0.766 -0.429,0.314 -1.099,0.594 -1.908,0.806 L 4.18,-3.03 c 0.159,-0.015 0.31,0.041 0.419,0.141 0.057,0.036 0.107,0.082 0.15,0.14 0.179,0.244 0.125,0.587 -0.118,0.766 -0.533,0.391 -1.523,0.803 -2.715,1.12 0.086,-0.004 0.174,-0.01 0.263,-0.018 0.301,-0.027 0.568,0.195 0.596,0.495 C 2.802,-0.084 2.58,0.182 2.278,0.209 1.417,0.289 0.664,0.201 0,0 V -1.583 C 0.816,-1.705 1.587,-1.885 2.247,-2.091 1.777,-2.215 1.349,-2.398 0.959,-2.621 0.642,-2.619 0.32,-2.626 0,-2.646 v -2.239 c 0.229,0.276 0.481,0.542 0.76,0.782 0.158,0.135 0.326,0.263 0.503,0.38 1.808,-0.057 3.443,-0.469 4.164,-0.996"
             style="fill:#ff94a8;fill-opacity:1;fill-rule:nonzero;stroke:none;stroke-width:1.46386921"
             id="path454"
             inkscape:connector-curvature="0" />
        </g>
      </g>
      <g
         inkscape:label="Capa 1"
         id="layer1-6"
         transform="matrix(0.50139222,0,0,0.50139222,406.26098,314.84855)"
         style="stroke-width:0.625">
        <g
           id="g4322"
           transform="matrix(2.089755,0,0,2.089755,-304.48031,-573.16647)"
           inkscape:export-xdpi="90"
           inkscape:export-ydpi="90"
           style="stroke-width:0.625">
          <path
             d="m 298.98877,524.56679 -0.936,-17.89334 c 0,0 0.0107,-0.456 -0.22933,-0.56533 -0.208,-0.0947 -1.432,-0.0187 -1.74267,0 -0.31066,-0.0147 -1.536,-0.064 -1.74266,0.0347 -0.236,0.11333 -0.212,0.56933 -0.212,0.56933 l -0.43867,17.908 c 0,0 -0.612,-0.0493 -0.29467,0.724 0.28667,0.70134 2.548,0.60534 2.964,0.58134 0.41734,0.0147 2.68,0.064 2.948,-0.644 0.29334,-0.78 -0.316,-0.71734 -0.316,-0.71734"
             style="fill:#231f20;fill-opacity:1;fill-rule:nonzero;stroke:none;stroke-width:0.625"
             id="path48706"
             inkscape:connector-curvature="0" />
          <path
             d="m 285.38184,483.75239 h -0.34 l -0.33466,-24.04933 h 0.34 z"
             style="fill:#ffffff;fill-opacity:1;fill-rule:nonzero;stroke:none;stroke-width:0.625"
             id="path48710"
             inkscape:connector-curvature="0" />
          <path
             d="m 286.82011,485.06772 h -0.34133 l -0.376,-27.00533 h 0.34133 z"
             style="fill:#ffffff;fill-opacity:1;fill-rule:nonzero;stroke:none;stroke-width:0.625"
             id="path48714"
             inkscape:connector-curvature="0" />
          <path
             d="m 288.25678,486.33452 h -0.34134 l -0.40533,-29.12533 h 0.34133 z"
             style="fill:#ffffff;fill-opacity:1;fill-rule:nonzero;stroke:none;stroke-width:0.625"
             id="path48718"
             inkscape:connector-curvature="0" />
          <path
             d="m 289.69931,487.99492 h -0.34133 l -0.44,-31.636 h 0.34133 z"
             style="fill:#ffffff;fill-opacity:1;fill-rule:nonzero;stroke:none;stroke-width:0.625"
             id="path48722"
             inkscape:connector-curvature="0" />
          <path
             d="m 291.12931,488.76812 h -0.34134 l -0.456,-32.77066 h 0.34134 z"
             style="fill:#ffffff;fill-opacity:1;fill-rule:nonzero;stroke:none;stroke-width:0.625"
             id="path48726"
             inkscape:connector-curvature="0" />
          <path
             d="m 292.55291,489.09852 h -0.34134 l -0.46933,-33.80533 h 0.34 z"
             style="fill:#ffffff;fill-opacity:1;fill-rule:nonzero;stroke:none;stroke-width:0.625"
             id="path48730"
             inkscape:connector-curvature="0" />
          <path
             d="m 293.97237,489.13319 h -0.34 l -0.47466,-34.10133 h 0.34 z"
             style="fill:#ffffff;fill-opacity:1;fill-rule:nonzero;stroke:none;stroke-width:0.625"
             id="path48734"
             inkscape:connector-curvature="0" />
          <path
             d="m 295.39891,489.61065 h -0.34134 l -0.48533,-34.89066 h 0.34133 z"
             style="fill:#ffffff;fill-opacity:1;fill-rule:nonzero;stroke:none;stroke-width:0.625"
             id="path48738"
             inkscape:connector-curvature="0" />
          <path
             d="m 283.72104,482.68532 h -0.34133 l -0.292,-21.04266 h 0.34 z"
             style="fill:#ffffff;fill-opacity:1;fill-rule:nonzero;stroke:none;stroke-width:0.625"
             id="path48742"
             inkscape:connector-curvature="0" />
          <path
             d="m 306.72771,483.52852 h -0.34 l -0.336,-24.04933 h 0.34133 z"
             style="fill:#ffffff;fill-opacity:1;fill-rule:nonzero;stroke:none;stroke-width:0.625"
             id="path48746"
             inkscape:connector-curvature="0" />
          <path
             d="m 305.32677,484.87372 h -0.34 l -0.376,-27.00533 h 0.34 z"
             style="fill:#ffffff;fill-opacity:1;fill-rule:nonzero;stroke:none;stroke-width:0.625"
             id="path48750"
             inkscape:connector-curvature="0" />
          <path
             d="m 303.92571,486.16959 h -0.34 l -0.40667,-29.124 h 0.34133 z"
             style="fill:#ffffff;fill-opacity:1;fill-rule:nonzero;stroke:none;stroke-width:0.625"
             id="path48754"
             inkscape:connector-curvature="0" />
          <path
             d="m 302.52971,487.86039 h -0.34 l -0.44134,-31.63733 h 0.34134 z"
             style="fill:#ffffff;fill-opacity:1;fill-rule:nonzero;stroke:none;stroke-width:0.625"
             id="path48758"
             inkscape:connector-curvature="0" />
          <path
             d="m 301.12197,488.66359 h -0.34133 l -0.456,-32.76933 h 0.34133 z"
             style="fill:#ffffff;fill-opacity:1;fill-rule:nonzero;stroke:none;stroke-width:0.625"
             id="path48762"
             inkscape:connector-curvature="0" />
          <path
             d="m 299.70757,489.02359 h -0.34 l -0.47066,-33.80667 h 0.34 z"
             style="fill:#ffffff;fill-opacity:1;fill-rule:nonzero;stroke:none;stroke-width:0.625"
             id="path48766"
             inkscape:connector-curvature="0" />
          <path
             d="m 298.28917,489.08785 h -0.34133 l -0.47467,-34.10266 h 0.34134 z"
             style="fill:#ffffff;fill-opacity:1;fill-rule:nonzero;stroke:none;stroke-width:0.625"
             id="path48770"
             inkscape:connector-curvature="0" />
          <path
             d="m 296.87704,489.59532 h -0.34 l -0.48667,-34.89066 h 0.34134 z"
             style="fill:#ffffff;fill-opacity:1;fill-rule:nonzero;stroke:none;stroke-width:0.625"
             id="path48774"
             inkscape:connector-curvature="0" />
          <path
             d="m 308.35891,482.42692 h -0.34134 l -0.29333,-21.04266 h 0.34133 z"
             style="fill:#ffffff;fill-opacity:1;fill-rule:nonzero;stroke:none;stroke-width:0.625"
             id="path48778"
             inkscape:connector-curvature="0" />
          <path
             d="m 304.92677,458.11559 -18.13866,0.19067 -0.004,-0.296 18.13866,-0.19067 z"
             style="fill:#ffffff;fill-opacity:1;fill-rule:nonzero;stroke:none;stroke-width:0.625"
             id="path48782"
             inkscape:connector-curvature="0" />
          <path
             d="m 305.88397,459.58386 -21.03333,0.22133 -0.004,-0.296 21.03333,-0.22133 z"
             style="fill:#ffffff;fill-opacity:1;fill-rule:nonzero;stroke:none;stroke-width:0.625"
             id="path48786"
             inkscape:connector-curvature="0" />
          <path
             d="m 307.73557,461.04306 -24.35466,0.256 -0.004,-0.296 24.35466,-0.256 z"
             style="fill:#ffffff;fill-opacity:1;fill-rule:nonzero;stroke:none;stroke-width:0.625"
             id="path48790"
             inkscape:connector-curvature="0" />
          <path
             d="m 307.75597,462.52159 -24.35466,0.256 -0.004,-0.296 24.35466,-0.256 z"
             style="fill:#ffffff;fill-opacity:1;fill-rule:nonzero;stroke:none;stroke-width:0.625"
             id="path48794"
             inkscape:connector-curvature="0" />
          <path
             d="m 309.47997,463.98199 -27.16533,0.28533 -0.004,-0.296 27.16533,-0.28533 z"
             style="fill:#ffffff;fill-opacity:1;fill-rule:nonzero;stroke:none;stroke-width:0.625"
             id="path48798"
             inkscape:connector-curvature="0" />
          <path
             d="m 309.84131,465.45666 -28.74133,0.30133 -0.004,-0.296 28.74133,-0.30133 z"
             style="fill:#ffffff;fill-opacity:1;fill-rule:nonzero;stroke:none;stroke-width:0.625"
             id="path48802"
             inkscape:connector-curvature="0" />
          <path
             d="m 309.86171,466.93532 -28.74,0.30133 -0.005,-0.296 28.74133,-0.30133 z"
             style="fill:#ffffff;fill-opacity:1;fill-rule:nonzero;stroke:none;stroke-width:0.625"
             id="path48806"
             inkscape:connector-curvature="0" />
          <path
             d="m 310.73371,468.40439 -29.592,0.31066 -0.004,-0.296 29.592,-0.31066 z"
             style="fill:#ffffff;fill-opacity:1;fill-rule:nonzero;stroke:none;stroke-width:0.625"
             id="path48810"
             inkscape:connector-curvature="0" />
          <path
             d="m 310.75437,469.88292 -29.84799,0.31333 -0.004,-0.296 29.84799,-0.31333 z"
             style="fill:#ffffff;fill-opacity:1;fill-rule:nonzero;stroke:none;stroke-width:0.625"
             id="path48814"
             inkscape:connector-curvature="0" />
          <path
             d="m 310.77517,471.36132 -29.84799,0.31333 -0.004,-0.296 29.84799,-0.31333 z"
             style="fill:#ffffff;fill-opacity:1;fill-rule:nonzero;stroke:none;stroke-width:0.625"
             id="path48818"
             inkscape:connector-curvature="0" />
          <path
             d="m 310.79544,472.83985 -30.23066,0.31734 -0.004,-0.296 30.23066,-0.31734 z"
             style="fill:#ffffff;fill-opacity:1;fill-rule:nonzero;stroke:none;stroke-width:0.625"
             id="path48822"
             inkscape:connector-curvature="0" />
          <path
             d="m 305.14344,485.91052 -18.13866,0.19067 -0.004,-0.296 18.13866,-0.19067 z"
             style="fill:#ffffff;fill-opacity:1;fill-rule:nonzero;stroke:none;stroke-width:0.625"
             id="path48826"
             inkscape:connector-curvature="0" />
          <path
             d="m 307.08144,484.41199 -21.03333,0.22 -0.005,-0.29467 21.03466,-0.22133 z"
             style="fill:#ffffff;fill-opacity:1;fill-rule:nonzero;stroke:none;stroke-width:0.625"
             id="path48830"
             inkscape:connector-curvature="0" />
          <path
             d="m 308.55117,482.91759 -24.35466,0.256 -0.004,-0.296 24.35466,-0.256 z"
             style="fill:#ffffff;fill-opacity:1;fill-rule:nonzero;stroke:none;stroke-width:0.625"
             id="path48834"
             inkscape:connector-curvature="0" />
          <path
             d="m 308.53077,481.43905 -24.35466,0.256 -0.004,-0.296 24.35466,-0.256 z"
             style="fill:#ffffff;fill-opacity:1;fill-rule:nonzero;stroke:none;stroke-width:0.625"
             id="path48838"
             inkscape:connector-curvature="0" />
          <path
             d="m 309.61704,479.94932 -27.16533,0.28533 -0.004,-0.296 27.16533,-0.28533 z"
             style="fill:#ffffff;fill-opacity:1;fill-rule:nonzero;stroke:none;stroke-width:0.625"
             id="path48842"
             inkscape:connector-curvature="0" />
          <path
             d="m 310.83104,478.45812 -28.74133,0.30133 -0.003,-0.296 28.74,-0.30133 z"
             style="fill:#ffffff;fill-opacity:1;fill-rule:nonzero;stroke:none;stroke-width:0.625"
             id="path48846"
             inkscape:connector-curvature="0" />
          <path
             d="m 310.81091,476.97959 -28.74133,0.30133 -0.004,-0.296 28.74133,-0.30133 z"
             style="fill:#ffffff;fill-opacity:1;fill-rule:nonzero;stroke:none;stroke-width:0.625"
             id="path48850"
             inkscape:connector-curvature="0" />
          <path
             d="m 310.79037,475.50119 -29.59333,0.31066 -0.003,-0.296 29.592,-0.31066 z"
             style="fill:#ffffff;fill-opacity:1;fill-rule:nonzero;stroke:none;stroke-width:0.625"
             id="path48854"
             inkscape:connector-curvature="0" />
          <path
             d="m 311.02504,474.02012 -29.848,0.31333 -0.004,-0.296 29.848,-0.31333 z"
             style="fill:#ffffff;fill-opacity:1;fill-rule:nonzero;stroke:none;stroke-width:0.625"
             id="path48858"
             inkscape:connector-curvature="0" />
          <path
             inkscape:connector-curvature="0"
             id="path48878"
             style="fill:url(#linearGradient48876);stroke:none;stroke-width:0.625"
             d="m 295.41917,454.18679 c -8.98399,0.0933 -16.15333,8.26133 -16.01466,18.24266 v 0 c 0.0787,5.66267 2.49333,10.68934 6.20667,13.964 v 0 c 2.368,2.67067 8.33199,10.32267 8.60133,19.888 v 0 l 1.76,-0.0173 v -0.0533 c 0.044,0.0133 0.088,0.0147 0.13466,0.0147 v 0 c 0.0267,-10e-4 0.052,0 0.0787,-0.0133 v 0 0.044 l 1.76,-0.0173 c 0.003,-9.104 5.204,-16.58133 7.68534,-19.63066 v 0 c 3.904,-3.33734 6.38533,-8.61333 6.304,-14.52533 v 0 c -0.13867,-9.92135 -7.44667,-17.90269 -16.35867,-17.90269 v 0 c -0.0533,0 -0.10534,0 -0.15734,10e-4 m -14.28933,17.82267 c -0.12666,-9.14 6.27734,-16.61866 14.304,-16.70266 v 0 c 8.02667,-0.084 14.63733,7.25733 14.764,16.39866 v 0 c 0.12667,9.14 -6.276,16.61867 -14.30267,16.704 v 0 c -0.0453,0 -0.092,0 -0.136,0 v 0 c -7.96666,0 -14.50133,-7.31067 -14.62933,-16.4 m 14.85333,19.11067 c 0.50267,0 0.97867,-0.0413 1.408,-0.0987 v 0 c 1.012,-0.104 2.15067,-0.35467 2.94667,-0.56267 v 0 c 1.04533,-0.27333 0.68667,0.42133 0.268,0.90133 v 0 c -0.42,0.48134 -2.428,5.048 -2.96933,6.98267 v 0 c -0.46534,1.66267 -1.25734,2.23733 -1.472,2.36533 v 0 c -0.0427,-0.0133 -0.088,-0.0147 -0.13334,-0.0147 v 0 c -0.0613,0.001 -0.12,0.0133 -0.17333,0.028 v 0 c -0.18667,-0.10266 -1.03067,-0.644 -1.556,-2.344 v 0 c -0.59467,-1.92266 -2.73067,-6.44666 -3.16267,-6.91733 v 0 c -0.43333,-0.472 -0.81066,-1.15867 0.24267,-0.908 v 0 c 0.94933,0.22533 2.37733,0.50133 3.50133,0.52933 v 0 c 0.30267,0.0253 0.62267,0.04 0.95334,0.04 v 0 c 0.0493,0 0.0973,-10e-4 0.14666,-10e-4" />
          <path
             inkscape:connector-curvature="0"
             id="path48930"
             style="fill:url(#linearGradient48926);stroke:none;stroke-width:0.625"
             d="m 296.14451,454.19879 c 8.41466,0.61467 15.14666,8.34 15.27866,17.85866 0.0827,5.91067 -2.4,11.18667 -6.30266,14.52534 -2.48134,3.04933 -7.684,10.52666 -7.68667,19.628 l -1.24933,0.0133 0.001,0.0373 1.76,-0.0187 c 0.003,-9.10134 5.20533,-16.58 7.68533,-19.62934 3.904,-3.33866 6.38533,-8.61333 6.304,-14.52533 -0.13597,-9.71065 -7.13863,-17.55732 -15.79063,-17.88932" />
          <path
             inkscape:connector-curvature="0"
             id="path48964"
             style="fill:url(#linearGradient48962);stroke:none;stroke-width:0.625"
             d="m 299.82584,490.42679 c -0.79467,0.20666 -1.93467,0.45866 -2.94533,0.56266 v 0 c -0.43067,0.0587 -0.90667,0.0947 -1.40934,0.1 v 0 c -0.38533,0 -0.75333,-0.0133 -1.09866,-0.0387 v 0 c -0.0253,-10e-4 -0.0547,0 -0.0813,0 v 0 c 0.204,0.0173 0.404,0.032 0.592,0.036 v 0 c 0.34667,0.0293 0.716,0.044 1.1,0.0387 v 0 c 0.50267,0 0.97867,-0.0413 1.408,-0.0987 v 0 c 1.012,-0.104 2.15067,-0.35466 2.94667,-0.56266 v 0 c 0.0413,-0.0133 0.076,-0.0173 0.112,-0.0253 v 0 c -0.0453,-0.0427 -0.12267,-0.0667 -0.23734,-0.0667 v 0 c -0.0987,0 -0.22533,0.0173 -0.38666,0.06" />
          <path
             d="m 281.13038,472.01025 c -0.12667,-9.14133 6.276,-16.61866 14.30266,-16.70266 0.20933,0 0.416,0 0.62267,0.0133 -0.37467,-0.0293 -0.752,-0.0467 -1.13334,-0.0427 -8.02666,0.084 -14.43066,7.56267 -14.30266,16.70267 0.124,8.904 6.39733,16.09733 14.14133,16.38667 -7.50533,-0.58 -13.50933,-7.64934 -13.63066,-16.35467"
             style="fill:#929497;fill-opacity:1;fill-rule:nonzero;stroke:none;stroke-width:0.625"
             id="path48976"
             inkscape:connector-curvature="0" />
          <path
             d="m 294.30157,498.37785 c -0.59466,-1.92266 -2.72933,-6.44666 -3.16266,-6.91866 -0.32934,-0.36 -0.62534,-0.84267 -0.28267,-0.94134 -1.03467,-0.24133 -0.65867,0.44 -0.228,0.91067 0.432,0.47067 2.568,4.99467 3.16133,6.91733 0.52667,1.70134 1.36934,2.24134 1.556,2.344 0.0547,-0.016 0.112,-0.0267 0.17334,-0.028 0.0467,0 0.0907,0 0.13466,0.0147 0.0173,-0.0133 0.04,-0.0267 0.0653,-0.0427 -0.31333,-0.22 -0.976,-0.82933 -1.41733,-2.256"
             style="fill:#e6e7e8;fill-opacity:1;fill-rule:nonzero;stroke:none;stroke-width:0.625"
             id="path48980"
             inkscape:connector-curvature="0" />
          <path
             inkscape:connector-curvature="0"
             id="path49000"
             style="fill:url(#linearGradient48998);stroke:none;stroke-width:0.625"
             d="m 295.46184,506.23212 -1.25067,0.0133 c 0,0.0133 0.001,0.0253 0.001,0.0373 v 0 l 1.76,-0.0173 v -0.0373 h -0.29866 l -0.001,-0.044 c -0.0253,0 -0.0493,0.0133 -0.0773,0.0133 v 0 c -0.0453,10e-4 -0.092,0 -0.13467,-0.0133 v 0 l 0.001,0.052 z" />
          <path
             inkscape:connector-curvature="0"
             id="path49020"
             style="fill:url(#linearGradient49018);stroke:none;stroke-width:0.625"
             d="m 296.10717,506.22545 0.0787,-0.001 v 0 c -0.0267,0 -0.052,0 -0.0787,0.0133" />
          <path
             inkscape:connector-curvature="0"
             id="path49040"
             style="fill:url(#linearGradient49038);stroke:none;stroke-width:0.625"
             d="m 295.97251,506.22679 h 0.13466 c -0.0467,0 -0.0907,0 -0.13466,-0.0147 v 0 0.016 z" />
          <path
             d="m 300.60597,491.35999 c 0.40267,-0.46134 0.74667,-1.11734 -0.156,-0.92667 0.17467,0.16 -0.076,0.57467 -0.356,0.896 -0.41866,0.48 -2.428,5.048 -2.96933,6.98267 -0.42667,1.524 -1.128,2.132 -1.40667,2.32133 0.06,0.0427 0.10934,0.072 0.13867,0.088 0.056,-0.016 0.112,-0.0267 0.17333,-0.028 0.0467,0 0.092,0 0.13467,0.0147 0.21467,-0.12933 1.008,-0.70267 1.472,-2.36533 0.54133,-1.93467 2.55067,-6.50267 2.96933,-6.98267"
             style="fill:#808184;fill-opacity:1;fill-rule:nonzero;stroke:none;stroke-width:0.625"
             id="path49052"
             inkscape:connector-curvature="0" />
          <path
             d="m 297.44531,503.42052 c -0.39867,-2.62 -1.252,-2.72267 -1.252,-2.72267 l -0.192,-0.0147 v -0.001 l -0.0107,0.001 -0.0107,-0.001 v 0 l -0.19067,0.0173 c 0,0 -0.85066,0.12 -1.176,2.748 -0.32533,2.628 -0.512,3 -0.512,3 l 1.96,-0.0213 h 0.02 l 1.95867,-0.02 c 0,0 -0.196,-0.368 -0.59467,-2.988"
             style="fill:#231f20;fill-opacity:1;fill-rule:nonzero;stroke:none;stroke-width:0.625"
             id="path49056"
             inkscape:connector-curvature="0" />
          <path
             d="m 299.00291,524.56625 -0.936,-17.89333 c 0,0 10e-4,-0.128 -0.032,-0.264 l 0.0187,-0.001 c 0,0 -0.196,-0.36667 -0.59467,-2.988 -0.39866,-2.62 -1.25066,-2.72133 -1.25066,-2.72133 l -0.19334,-0.0147 v 0 l -0.009,10e-4 -0.012,-10e-4 h 10e-4 l -0.192,0.0187 c 0,0 -0.0827,0.0133 -0.208,0.108 0.27867,0.20666 0.76667,0.81866 1.04134,2.61866 0.39866,2.62 0.59466,2.988 0.59466,2.988 h -0.0187 c 0.0333,0.136 0.0307,0.264 0.0307,0.264 l 0.936,17.89467 c 0,0 0.61067,-0.0627 0.316,0.71733 -0.17466,0.464 -1.21066,0.60267 -2.01866,0.63867 0.59866,0.0147 2.592,0.0133 2.84133,-0.648 0.29467,-0.77867 -0.31467,-0.71733 -0.31467,-0.71733"
             style="fill:#231f20;fill-opacity:1;fill-rule:nonzero;stroke:none;stroke-width:0.625"
             id="path49060"
             inkscape:connector-curvature="0" />
          <path
             d="m 295.44304,525.94225 c 0.18933,0 0.36667,0 0.516,0.001 -0.18533,0 -0.332,0 -0.412,0 -0.0267,10e-4 -0.0613,0 -0.104,0"
             style="fill:#231f20;fill-opacity:1;fill-rule:nonzero;stroke:none;stroke-width:0.625"
             id="path49064"
             inkscape:connector-curvature="0" />
          <path
             d="m 295.95944,525.94372 c 0.14933,0 0.328,0 0.516,-0.0133 -0.0413,-10e-4 -0.0773,0 -0.10533,0 -0.0787,0 -0.224,0.0133 -0.41067,0.0147"
             style="fill:#231f20;fill-opacity:1;fill-rule:nonzero;stroke:none;stroke-width:0.625"
             id="path49068"
             inkscape:connector-curvature="0" />
          <path
             d="m 294.08917,506.58825 c 0,0 0.15067,-0.40133 1.052,-0.41066 0.90134,-0.0133 1.08534,-0.0133 1.08534,-0.0133 l 0.0133,0.924 -1.08667,0.0133 c 0,0 -0.73733,0.001 -1.05333,0.28133 z"
             style="fill:#231f20;fill-opacity:1;fill-rule:nonzero;stroke:none;stroke-width:0.625"
             id="path49072"
             inkscape:connector-curvature="0" />
          <path
             d="m 298.08437,506.54652 c 0,0 -0.16133,-0.39867 -1.06266,-0.38933 -0.90134,0.0133 -1.08534,0.0133 -1.08534,0.0133 l 0.012,0.92533 1.08534,-0.0133 c 0,0 0.73866,-0.0147 1.06133,0.26 z"
             style="fill:#231f20;fill-opacity:1;fill-rule:nonzero;stroke:none;stroke-width:0.625"
             id="path49076"
             inkscape:connector-curvature="0" />
          <path
             d="m 294.08704,506.44972 c 0,0 0.15067,-0.40267 1.052,-0.41067 0.90133,-0.0133 1.08533,-0.0133 1.08533,-0.0133 l 0.0133,0.924 -1.08533,0.0133 c 0,0 -0.73867,0 -1.05467,0.28134 z"
             style="fill:#939598;fill-opacity:1;fill-rule:nonzero;stroke:none;stroke-width:0.625"
             id="path49080"
             inkscape:connector-curvature="0" />
          <path
             d="m 298.08237,506.40785 c 0,0 -0.16133,-0.39866 -1.06266,-0.38933 -0.90134,0.0133 -1.08534,0.0133 -1.08534,0.0133 l 0.012,0.92267 1.08534,-0.0133 c 0,0 0.73866,-0.0133 1.06133,0.26 z"
             style="fill:#939598;fill-opacity:1;fill-rule:nonzero;stroke:none;stroke-width:0.625"
             id="path49084"
             inkscape:connector-curvature="0" />
          <path
             d="m 298.09517,507.34132 c 0,0 -0.056,0.51467 -1.17333,0.81067 -1.11733,0.29466 -2.88133,1.00266 -2.87333,1.63066 0,0 0.25466,-0.612 1.568,-1.05733 1.31333,-0.44533 2.404,-0.70933 2.48266,-1.12933 0,0 0.003,-0.29467 0.004,-0.276"
             style="fill:#55585c;fill-opacity:1;fill-rule:nonzero;stroke:none;stroke-width:0.625"
             id="path49088"
             inkscape:connector-curvature="0" />
          <path
             d="m 298.20837,509.36105 c 0,0 -0.0587,0.51467 -1.22266,0.81067 -1.164,0.296 -3.00267,1.004 -2.99334,1.63333 0,0 0.264,-0.61333 1.63334,-1.05866 1.36933,-0.44534 2.504,-0.71067 2.58666,-1.13067 0,0 0.003,-0.29467 0.004,-0.276"
             style="fill:#55585c;fill-opacity:1;fill-rule:nonzero;stroke:none;stroke-width:0.625"
             id="path49092"
             inkscape:connector-curvature="0" />
          <path
             d="m 298.32331,511.47879 c 0,0 -0.0627,0.51466 -1.27734,0.812 -1.21466,0.296 -3.13333,1.00533 -3.124,1.63333 0,0 0.276,-0.612 1.70534,-1.05867 1.428,-0.44666 2.612,-0.71066 2.7,-1.13066 0,0 0.003,-0.296 0.003,-0.27734"
             style="fill:#55585c;fill-opacity:1;fill-rule:nonzero;stroke:none;stroke-width:0.625"
             id="path49096"
             inkscape:connector-curvature="0" />
          <path
             d="m 298.43157,514.21305 c 0,0 -0.064,0.516 -1.32533,0.812 -1.26133,0.296 -3.25467,1.008 -3.24533,1.636 0,0 0.28666,-0.61333 1.77066,-1.06 1.484,-0.44666 2.71334,-0.712 2.804,-1.132 0,0 0.004,-0.296 0.004,-0.27733"
             style="fill:#55585c;fill-opacity:1;fill-rule:nonzero;stroke:none;stroke-width:0.625"
             id="path49100"
             inkscape:connector-curvature="0" />
          <path
             d="m 298.57704,517.00239 c 0,0 -0.068,0.51466 -1.38533,0.812 -1.316,0.29733 -3.39734,1.00933 -3.388,1.63733 0,0 0.3,-0.61333 1.84933,-1.06 1.548,-0.448 2.832,-0.71333 2.928,-1.13333 0,0 0.004,-0.296 0.004,-0.27734"
             style="fill:#55585c;fill-opacity:1;fill-rule:nonzero;stroke:none;stroke-width:0.625"
             id="path49104"
             inkscape:connector-curvature="0" />
          <path
             d="m 298.73064,519.66239 c 0,0 -0.0707,0.51466 -1.44667,0.81333 -1.37466,0.29733 -3.548,1.01067 -3.53866,1.63867 0,0 0.312,-0.61334 1.93066,-1.06134 1.61734,-0.448 2.95867,-0.71466 3.05867,-1.13466 0,0 0.004,-0.296 0.004,-0.27734"
             style="fill:#55585c;fill-opacity:1;fill-rule:nonzero;stroke:none;stroke-width:0.625"
             id="path49108"
             inkscape:connector-curvature="0" />
          <path
             d="m 298.87544,521.95279 c 0,0 -0.0747,0.51466 -1.512,0.81333 -1.43733,0.29867 -3.708,1.01333 -3.7,1.64133 0,0 0.328,-0.61333 2.01867,-1.06266 1.692,-0.44934 3.09333,-0.716 3.19866,-1.13734 0,0 0.004,-0.29466 0.004,-0.276"
             style="fill:#55585c;fill-opacity:1;fill-rule:nonzero;stroke:none;stroke-width:0.625"
             id="path49112"
             inkscape:connector-curvature="0" />
          <path
             d="m 293.35464,525.19239 c 0,0 2.072,0.952 5.99067,-0.0387 0,0 0.10933,0.75066 -1.62267,0.76933 l -3.46267,0.036 c 0,0 -0.82533,-0.12667 -0.90533,-0.76667"
             style="fill:#231f20;fill-opacity:1;fill-rule:nonzero;stroke:none;stroke-width:0.625"
             id="path49116"
             inkscape:connector-curvature="0" />
          <path
             inkscape:connector-curvature="0"
             id="path49160"
             style="fill:url(#linearGradient49156);stroke:none;stroke-width:0.625"
             d="m 293.83517,524.44945 c 0,0 1.74934,0.39734 2.41867,-0.0173 0.668,-0.41466 -0.0133,-15.98666 -1.03867,-15.49333 -1.02533,0.49467 -1.168,10.27733 -1.38,15.51067" />
          <path
             d="m 293.51784,488.77479 c 0,0 -11.464,-1.65734 -13.19333,-15.36267 v 0 c 0,0 0.3,14.56 13.19333,15.36267"
             style="fill:url(#linearGradient49218);stroke:none;stroke-width:0.625"
             id="path49220"
             inkscape:connector-curvature="0" />
          <path
             d="m 297.38317,455.14146 c -0.30133,-0.056 -0.472,-0.076 -0.472,-0.076 v 0 c 0.16,0.024 0.316,0.0493 0.472,0.076 m 12.47867,11.79333 c 0,0 -0.152,-9.71733 -12.47867,-11.79333 v 0 c 2.064,0.38 10.296,2.468 12.47867,11.79333"
             style="fill:url(#linearGradient49264);stroke:none;stroke-width:0.625"
             id="path49266"
             inkscape:connector-curvature="0" />
          <path
             d="m 297.73651,500.67345 c 1.14533,-5.70133 4.65866,-10.73466 4.65866,-10.73466 v 0 c -4.30133,4.452 -4.65866,10.73466 -4.65866,10.73466"
             style="fill:url(#linearGradient49310);stroke:none;stroke-width:0.625"
             id="path49312"
             inkscape:connector-curvature="0" />
          <path
             d="m 296.40317,489.78945 c 8.83334,0.73867 11.57334,-7.668 11.57334,-7.668 v 0 c -4.13067,7.39334 -11.57334,7.668 -11.57334,7.668"
             style="fill:url(#linearGradient49356);stroke:none;stroke-width:0.625"
             id="path49358"
             inkscape:connector-curvature="0" />
          <path
             d="m 293.08317,498.19345 c -0.252,-2.504 -3.312,-7.32 -3.312,-7.32 v 0 z"
             style="fill:url(#linearGradient49402);stroke:none;stroke-width:0.625"
             id="path49404"
             inkscape:connector-curvature="0" />
          <path
             d="m 288.62416,469.94599 c -0.0732,0.32933 -0.11066,0.664 -0.11133,1.0012 0.12667,-0.31507 0.31901,-0.6224 0.55892,-0.9192 -0.0935,-0.35814 -0.13899,-0.7096 -0.12013,-1.04427 -0.14452,0.3112 -0.25423,0.63413 -0.32747,0.96227 z"
             style="fill:#d8ea20;fill-opacity:1;fill-rule:nonzero;stroke:none;stroke-width:0.625"
             id="path49420"
             inkscape:connector-curvature="0" />
          <path
             d="m 288.95163,468.98372 c -0.0189,0.33467 0.0267,0.68613 0.12013,1.04427 0.23959,-0.2956 0.52637,-0.582 0.8418,-0.85294 -0.17741,-0.37106 -0.32292,-0.7356 -0.42448,-1.08453 -0.21353,0.28253 -0.3929,0.582 -0.53744,0.8932 z"
             style="fill:#d8ea20;fill-opacity:1;fill-rule:nonzero;stroke:none;stroke-width:0.625"
             id="path49422"
             inkscape:connector-curvature="0" />
          <path
             d="m 288.51283,470.94719 c -3.2e-4,0.33733 0.0361,0.67586 0.1104,1.01173 0.24381,-0.28387 0.53451,-0.5664 0.85709,-0.84373 -0.17382,-0.3632 -0.3151,-0.72787 -0.40853,-1.0872 -0.23991,0.2968 -0.43229,0.60413 -0.55892,0.9192 z"
             style="fill:#a2b514;fill-opacity:1;fill-rule:nonzero;stroke:none;stroke-width:0.625"
             id="path49424"
             inkscape:connector-curvature="0" />
          <path
             d="m 289.07175,470.02799 c 0.0935,0.35933 0.23471,0.724 0.40853,1.0872 0.32227,-0.27734 0.67676,-0.54947 1.04817,-0.81374 -0.22818,-0.3776 -0.43749,-0.7552 -0.6149,-1.1264 -0.31543,0.27094 -0.60221,0.55734 -0.8418,0.85294 z"
             style="fill:#a8bb15;fill-opacity:1;fill-rule:nonzero;stroke:none;stroke-width:0.625"
             id="path49426"
             inkscape:connector-curvature="0" />
          <path
             d="m 289.48907,468.09052 c 0.1016,0.34893 0.24706,0.71347 0.42448,1.08453 0.31576,-0.2708 0.65982,-0.52853 1.014,-0.76946 -0.24252,-0.37374 -0.47591,-0.7448 -0.69759,-1.10814 -0.28028,0.2448 -0.52735,0.5104 -0.74089,0.79307 z"
             style="fill:#d8ea20;fill-opacity:1;fill-rule:nonzero;stroke:none;stroke-width:0.625"
             id="path49428"
             inkscape:connector-curvature="0" />
          <path
             d="m 290.22996,467.29745 c 0.22168,0.36334 0.45507,0.7344 0.69759,1.10814 0.35416,-0.2396 0.71842,-0.4636 1.07389,-0.66667 -0.27931,-0.3672 -0.55795,-0.73573 -0.83399,-1.10546 -0.3444,0.19653 -0.65754,0.41919 -0.93749,0.66399 z"
             style="fill:#d8ea20;fill-opacity:1;fill-rule:nonzero;stroke:none;stroke-width:0.625"
             id="path49430"
             inkscape:connector-curvature="0" />
          <path
             d="m 289.91355,469.17505 c 0.17741,0.3712 0.38672,0.7488 0.6149,1.1264 0.37143,-0.2644 0.75978,-0.52093 1.15039,-0.76573 -0.25748,-0.3776 -0.50879,-0.7552 -0.75129,-1.13013 -0.35418,0.24093 -0.69824,0.49866 -1.014,0.76946 z"
             style="fill:#b3c618;fill-opacity:1;fill-rule:nonzero;stroke:none;stroke-width:0.625"
             id="path49432"
             inkscape:connector-curvature="0" />
          <path
             d="m 290.92755,468.40559 c 0.2425,0.37493 0.49381,0.75253 0.75129,1.13013 0.39096,-0.24347 0.78385,-0.4752 1.16407,-0.69267 -0.28092,-0.36853 -0.56186,-0.7356 -0.84147,-1.10413 -0.35547,0.20307 -0.71973,0.42707 -1.07389,0.66667 z"
             style="fill:#bed11b;fill-opacity:1;fill-rule:nonzero;stroke:none;stroke-width:0.625"
             id="path49434"
             inkscape:connector-curvature="0" />
          <path
             d="m 288.62319,471.95892 c 0.0745,0.336 0.18717,0.66933 0.33853,0.99347 0.36102,-0.2512 0.73568,-0.50774 1.1198,-0.76427 -0.22201,-0.34893 -0.42773,-0.7096 -0.60124,-1.07293 -0.32258,0.27733 -0.61328,0.55986 -0.85709,0.84373 z"
             style="fill:#7b8f0b;fill-opacity:1;fill-rule:nonzero;stroke:none;stroke-width:0.625"
             id="path49436"
             inkscape:connector-curvature="0" />
          <path
             d="m 289.48028,471.11519 c 0.17351,0.36333 0.37923,0.724 0.60124,1.07293 0.38379,-0.25787 0.77733,-0.5156 1.17611,-0.76947 -0.25359,-0.366 -0.50099,-0.74093 -0.72918,-1.1172 -0.37141,0.26427 -0.7259,0.5364 -1.04817,0.81374 z"
             style="fill:#879b0e;fill-opacity:1;fill-rule:nonzero;stroke:none;stroke-width:0.625"
             id="path49438"
             inkscape:connector-curvature="0" />
          <path
             d="m 288.96172,472.95239 c 0.72233,-0.50387 1.49805,-1.02467 2.29591,-1.53374 0.2539,0.36454 0.51432,0.72 0.76854,1.05854 -0.8317,0.47266 -1.66242,0.94666 -2.49121,1.4232 -0.23078,-0.30467 -0.42154,-0.6224 -0.57324,-0.948 z"
             style="fill:#647806;fill-opacity:1;fill-rule:nonzero;stroke:none;stroke-width:0.625"
             id="path49440"
             inkscape:connector-curvature="0" />
          <path
             d="m 290.52845,470.30145 c 0.22819,0.37627 0.47559,0.7512 0.72918,1.1172 0.39908,-0.25533 0.80337,-0.50786 1.2093,-0.754 -0.2666,-0.3724 -0.53028,-0.75 -0.78809,-1.12893 -0.39061,0.2448 -0.77896,0.50133 -1.15039,0.76573 z"
             style="fill:#98ab12;fill-opacity:1;fill-rule:nonzero;stroke:none;stroke-width:0.625"
             id="path49442"
             inkscape:connector-curvature="0" />
          <path
             d="m 291.67884,469.53572 c 0.25781,0.37893 0.52149,0.75653 0.78809,1.12893 0.40592,-0.246 0.81348,-0.4856 1.2181,-0.71746 -0.28027,-0.3684 -0.5612,-0.73694 -0.84212,-1.10414 -0.38022,0.21747 -0.77311,0.4492 -1.16407,0.69267 z"
             style="fill:#a8bc17;fill-opacity:1;fill-rule:nonzero;stroke:none;stroke-width:0.625"
             id="path49444"
             inkscape:connector-curvature="0" />
          <path
             d="m 291.25763,471.41865 c 0.79785,-0.51053 1.61784,-1.0092 2.4274,-1.47146 0.28028,0.36853 0.55989,0.73826 0.83724,1.10813 -0.83203,0.4752 -1.66439,0.94787 -2.4961,1.42187 -0.25422,-0.33854 -0.51464,-0.694 -0.76854,-1.05854 z"
             style="fill:#85990e;fill-opacity:1;fill-rule:nonzero;stroke:none;stroke-width:0.625"
             id="path49446"
             inkscape:connector-curvature="0" />
          <path
             d="m 289.53496,473.90039 c 0.005,0.0133 0.012,0.016 0.0176,0.024 1.66243,-0.94934 3.32975,-1.88934 4.99219,-2.83854 -0.008,-0.0133 -0.0149,-0.02 -0.0225,-0.0293 -1.66405,0.9492 -3.33008,1.8932 -4.98731,2.84507 z"
             style="fill:#5c7004;fill-opacity:1;fill-rule:nonzero;stroke:none;stroke-width:0.625"
             id="path49448"
             inkscape:connector-curvature="0" />
          <path
             d="m 291.16745,466.63346 c 0.0169,-0.0133 0.0339,-0.02 0.0508,-0.028 0.55859,0.73693 1.12435,1.46999 1.6888,2.20439 -0.0192,0.0133 -0.0447,0.0227 -0.0641,0.0333 -0.56185,-0.7356 -1.12304,-1.47133 -1.67545,-2.2096 z"
             style="fill:#d8ea20;fill-opacity:1;fill-rule:nonzero;stroke:none;stroke-width:0.625"
             id="path49450"
             inkscape:connector-curvature="0" />
          <path
             d="m 292.84291,468.84305 c 0.0195,-0.0133 0.0449,-0.0227 0.0641,-0.0333 0.56445,0.7344 1.1276,1.4688 1.68131,2.2096 -0.0221,0.0133 -0.044,0.0253 -0.0661,0.036 -0.55502,-0.74093 -1.11751,-1.47653 -1.67936,-2.21226 z"
             style="fill:#b4c81a;fill-opacity:1;fill-rule:nonzero;stroke:none;stroke-width:0.625"
             id="path49452"
             inkscape:connector-curvature="0" />
          <path
             d="m 294.52227,471.05532 c 0.008,0.0133 0.0149,0.0213 0.0225,0.0293 0.0217,-0.0133 0.0436,-0.0253 0.0657,-0.0373 -0.008,-0.0133 -0.0149,-0.02 -0.0221,-0.0293 -0.0221,0.0133 -0.044,0.0253 -0.0661,0.036 z"
             style="fill:#9aad12;fill-opacity:1;fill-rule:nonzero;stroke:none;stroke-width:0.625"
             id="path49454"
             inkscape:connector-curvature="0" />
          <path
             d="m 289.55255,473.92385 c 0.84212,-0.48053 1.68554,-0.95973 2.52897,-1.4376 0.11133,0.14587 0.22623,0.29427 0.34407,0.44534 -0.86523,0.45053 -1.7321,0.89453 -2.57454,1.34893 -0.10413,-0.11467 -0.20378,-0.23307 -0.2985,-0.35667 z"
             style="fill:#5c7004;fill-opacity:1;fill-rule:nonzero;stroke:none;stroke-width:0.625"
             id="path49456"
             inkscape:connector-curvature="0" />
          <path
             d="m 289.85105,474.28052 c 0.84244,-0.4544 1.70931,-0.8984 2.57454,-1.34893 0.11813,0.15106 0.23926,0.30346 0.36264,0.4544 -0.88152,0.4284 -1.76922,0.83733 -2.61166,1.22533 -0.11266,-0.10533 -0.22136,-0.21613 -0.32552,-0.3308 z"
             style="fill:#5f7305;fill-opacity:1;fill-rule:nonzero;stroke:none;stroke-width:0.625"
             id="path49458"
             inkscape:connector-curvature="0" />
          <path
             d="m 290.17657,474.61132 c 0.22526,0.21093 0.46712,0.4036 0.72232,0.5768 0.42156,-0.092 0.86102,-0.22133 1.30698,-0.37493 -0.25782,-0.254 -0.50522,-0.52614 -0.73796,-0.7996 -0.4375,0.20453 -0.87012,0.40373 -1.29134,0.59773 z"
             style="fill:#677b07;fill-opacity:1;fill-rule:nonzero;stroke:none;stroke-width:0.625"
             id="path49460"
             inkscape:connector-curvature="0" />
          <path
             d="m 291.46791,474.01359 c 0.23274,0.27346 0.48014,0.5456 0.73796,0.7996 0.44564,-0.15374 0.89778,-0.33334 1.34472,-0.52867 -0.25976,-0.2904 -0.51563,-0.59373 -0.76236,-0.89853 -0.44076,0.21493 -0.88315,0.4232 -1.32032,0.6276 z"
             style="fill:#708308;fill-opacity:1;fill-rule:nonzero;stroke:none;stroke-width:0.625"
             id="path49462"
             inkscape:connector-curvature="0" />
          <path
             d="m 292.08152,472.48625 c 0.84341,-0.47906 1.68684,-0.95693 2.52896,-1.4388 0.25489,0.33734 0.50553,0.66934 0.75065,0.99614 -0.81705,0.46746 -1.69173,0.91533 -2.5729,1.3424 -0.24675,-0.30334 -0.48439,-0.608 -0.70671,-0.89974 z"
             style="fill:#7c8f0b;fill-opacity:1;fill-rule:nonzero;stroke:none;stroke-width:0.625"
             id="path49464"
             inkscape:connector-curvature="0" />
          <path
             d="m 292.78823,473.38599 c 0.88117,-0.42707 1.75585,-0.87494 2.5729,-1.3424 0.24479,0.32546 0.48471,0.64586 0.7181,0.9584 -0.76139,0.43746 -1.63476,0.89053 -2.52864,1.28253 -0.25976,-0.2904 -0.51563,-0.59373 -0.76236,-0.89853 z"
             style="fill:#7b8d09;fill-opacity:1;fill-rule:nonzero;stroke:none;stroke-width:0.625"
             id="path49466"
             inkscape:connector-curvature="0" />
          <path
             d="m 290.89889,475.18812 c 0.25522,0.1732 0.52344,0.3268 0.80242,0.46093 0.4222,0.0133 0.86133,-0.044 1.30436,-0.14186 -0.2741,-0.2032 -0.54232,-0.44014 -0.7998,-0.694 -0.44596,0.1536 -0.88542,0.28253 -1.30698,0.37493 z"
             style="fill:#82950d;fill-opacity:1;fill-rule:nonzero;stroke:none;stroke-width:0.625"
             id="path49468"
             inkscape:connector-curvature="0" />
          <path
             d="m 292.20587,474.81319 c 0.25748,0.25386 0.5257,0.4908 0.7998,0.694 0.44304,-0.096 0.89029,-0.2384 1.3291,-0.4076 -0.2614,-0.25 -0.52441,-0.526 -0.78418,-0.81507 -0.44694,0.19533 -0.89908,0.37493 -1.34472,0.52867 z"
             style="fill:#7f9009;fill-opacity:1;fill-rule:nonzero;stroke:none;stroke-width:0.625"
             id="path49470"
             inkscape:connector-curvature="0" />
          <path
             d="m 291.70131,475.64905 c 0.27864,0.13414 0.56802,0.24867 0.86458,0.34374 0.4222,0.0547 0.85059,0.0547 1.2767,0.0133 -0.28223,-0.12267 -0.56283,-0.29293 -0.83692,-0.49733 -0.44303,0.0973 -0.88216,0.15093 -1.30436,0.14186 z"
             style="fill:#a3b615;fill-opacity:1;fill-rule:nonzero;stroke:none;stroke-width:0.625"
             id="path49472"
             inkscape:connector-curvature="0" />
          <path
             d="m 293.00567,475.50719 c 0.27409,0.2044 0.55469,0.37493 0.83692,0.49733 0.42642,-0.0427 0.85025,-0.13067 1.26398,-0.24867 -0.25129,-0.1836 -0.51041,-0.40626 -0.7718,-0.65626 -0.43881,0.1692 -0.88606,0.3112 -1.3291,0.4076 z"
             style="fill:#93a30c;fill-opacity:1;fill-rule:nonzero;stroke:none;stroke-width:0.625"
             id="path49474"
             inkscape:connector-curvature="0" />
          <path
             d="m 293.55059,474.28452 c 0.51921,0.57933 1.05306,1.10413 1.55598,1.47133 0.41375,-0.11866 0.81739,-0.26826 1.2028,-0.43746 -0.44108,-0.4896 -0.93684,-1.05347 -1.44498,-1.6576 -0.42512,0.21613 -0.86686,0.4284 -1.3138,0.62373 z"
             style="fill:#819107;fill-opacity:1;fill-rule:nonzero;stroke:none;stroke-width:0.625"
             id="path49476"
             inkscape:connector-curvature="0" />
          <path
             d="m 294.86439,473.66079 c 0.50814,0.60413 1.0039,1.168 1.44498,1.6576 0.3851,-0.16934 0.75196,-0.35947 1.09246,-0.556 -0.41276,-0.54427 -0.85547,-1.1368 -1.3226,-1.7604 -0.38086,0.21866 -0.78939,0.44133 -1.21484,0.6588 z"
             style="fill:#869506;fill-opacity:1;fill-rule:nonzero;stroke:none;stroke-width:0.625"
             id="path49478"
             inkscape:connector-curvature="0" />
          <path
             d="m 292.56589,475.99279 c 0.0644,0.02 0.1292,0.0387 0.19466,0.0587 0.41113,0.0573 0.82682,0.0667 1.24089,0.036 -0.0553,-0.028 -0.11267,-0.056 -0.17416,-0.0827 -0.42123,0.0413 -0.84408,0.0413 -1.26139,-0.0133 z"
             style="fill:#c2d41c;fill-opacity:1;fill-rule:nonzero;stroke:none;stroke-width:0.625"
             id="path49480"
             inkscape:connector-curvature="0" />
          <path
             d="m 293.82728,476.00585 c 0.0615,0.0253 0.1188,0.0547 0.17416,0.0827 0.41373,-0.0307 0.82552,-0.1 1.22851,-0.20053 -0.0481,-0.0413 -0.0987,-0.0827 -0.15332,-0.12267 -0.40918,0.11467 -0.82846,0.1992 -1.24935,0.24094 z"
             style="fill:#aab910;fill-opacity:1;fill-rule:nonzero;stroke:none;stroke-width:0.625"
             id="path49482"
             inkscape:connector-curvature="0" />
          <path
             d="m 292.76055,476.05145 c 0.0651,0.0187 0.13053,0.0347 0.19629,0.052 0.39747,0.064 0.80208,0.0827 1.20637,0.0667 -0.0533,-0.0253 -0.1068,-0.0547 -0.16177,-0.0813 -0.41407,0.0293 -0.82976,0.0213 -1.24089,-0.036 z"
             style="fill:#c8da1d;fill-opacity:1;fill-rule:nonzero;stroke:none;stroke-width:0.625"
             id="path49484"
             inkscape:connector-curvature="0" />
          <path
             d="m 294.00144,476.08785 c 0.0551,0.0267 0.1084,0.056 0.16177,0.0813 0.40463,-0.0173 0.80892,-0.072 1.20671,-0.16013 -0.0459,-0.04 -0.0921,-0.0827 -0.13997,-0.12267 -0.40299,0.1 -0.81478,0.17054 -1.22851,0.20054 z"
             style="fill:#b2c112;fill-opacity:1;fill-rule:nonzero;stroke:none;stroke-width:0.625"
             id="path49486"
             inkscape:connector-curvature="0" />
          <path
             d="m 295.07663,475.76492 c 0.0547,0.0387 0.1052,0.0813 0.15332,0.12267 0.40266,-0.10134 0.79654,-0.2344 1.17481,-0.39067 -0.0443,-0.0533 -0.0895,-0.10667 -0.13771,-0.16013 -0.38182,0.16666 -0.78124,0.31253 -1.19042,0.4284 z"
             style="fill:#98a507;fill-opacity:1;fill-rule:nonzero;stroke:none;stroke-width:0.625"
             id="path49488"
             inkscape:connector-curvature="0" />
          <path
             d="m 296.26705,475.33652 c 0.0481,0.0533 0.0935,0.10667 0.13771,0.16013 0.37825,-0.15613 0.74056,-0.33453 1.0804,-0.52853 -0.0436,-0.0587 -0.0883,-0.11733 -0.1328,-0.1772 -0.33887,0.19413 -0.70312,0.38027 -1.08529,0.5456 z"
             style="fill:#8e9902;fill-opacity:1;fill-rule:nonzero;stroke:none;stroke-width:0.625"
             id="path49490"
             inkscape:connector-curvature="0" />
          <path
             d="m 295.22995,475.88732 c 0.0479,0.04 0.0941,0.0827 0.13997,0.12267 0.39747,-0.0867 0.78809,-0.20707 1.16472,-0.3528 -0.0427,-0.0533 -0.0856,-0.10667 -0.12987,-0.16027 -0.37826,0.15627 -0.77214,0.28907 -1.17481,0.39067 z"
             style="fill:#a0ad0a;fill-opacity:1;fill-rule:nonzero;stroke:none;stroke-width:0.625"
             id="path49492"
             inkscape:connector-curvature="0" />
          <path
             d="m 296.40476,475.49665 c 0.0443,0.0533 0.0872,0.10667 0.12987,0.16027 0.37662,-0.1472 0.73925,-0.3204 1.08105,-0.51573 -0.0429,-0.0573 -0.0865,-0.116 -0.13053,-0.17307 -0.33984,0.194 -0.70215,0.3724 -1.0804,0.52853 z"
             style="fill:#94a004;fill-opacity:1;fill-rule:nonzero;stroke:none;stroke-width:0.625"
             id="path49494"
             inkscape:connector-curvature="0" />
          <path
             d="m 292.95684,476.10345 c 0.79492,0.128 1.61784,0.0827 2.41308,-0.0933 0.0459,0.0413 0.0915,0.0813 0.13965,0.12 -0.78353,0.14574 -1.58658,0.16014 -2.35449,0.0213 -0.0664,-0.0147 -0.13253,-0.0307 -0.19824,-0.0467 z"
             style="fill:#cddf1e;fill-opacity:1;fill-rule:nonzero;stroke:none;stroke-width:0.625"
             id="path49496"
             inkscape:connector-curvature="0" />
          <path
             d="m 293.15508,476.15039 c 0.76791,0.13933 1.57096,0.12533 2.35449,-0.0213 0.0479,0.0373 0.0976,0.0747 0.15202,0.108 -0.76726,0.11733 -1.55111,0.0987 -2.30664,-0.0453 -0.0667,-0.0133 -0.13346,-0.0267 -0.19987,-0.0413 z"
             style="fill:#d3e51f;fill-opacity:1;fill-rule:nonzero;stroke:none;stroke-width:0.625"
             id="path49498"
             inkscape:connector-curvature="0" />
          <path
             d="m 295.36992,476.00972 c 0.0459,0.0413 0.0915,0.0813 0.13965,0.12 0.3916,-0.0733 0.77799,-0.17973 1.15267,-0.31653 -0.0429,-0.052 -0.0853,-0.104 -0.1276,-0.15614 -0.37663,0.14574 -0.76725,0.2656 -1.16472,0.3528 z"
             style="fill:#afbd10;fill-opacity:1;fill-rule:nonzero;stroke:none;stroke-width:0.625"
             id="path49500"
             inkscape:connector-curvature="0" />
          <path
             d="m 296.53464,475.65692 c 0.0423,0.052 0.0847,0.104 0.1276,0.15613 0.37468,-0.138 0.73763,-0.30586 1.08139,-0.50253 -0.0423,-0.056 -0.0849,-0.112 -0.128,-0.16933 -0.3418,0.19533 -0.70443,0.36853 -1.08106,0.51573 z"
             style="fill:#a3b00a;fill-opacity:1;fill-rule:nonzero;stroke:none;stroke-width:0.625"
             id="path49502"
             inkscape:connector-curvature="0" />
          <path
             d="m 295.50957,476.12959 c 0.0479,0.0373 0.0976,0.0747 0.15202,0.108 0.3838,-0.0573 0.76334,-0.14974 1.13314,-0.276 -0.0456,-0.048 -0.0892,-0.0973 -0.13253,-0.14854 -0.37468,0.1368 -0.76107,0.2436 -1.15267,0.31654 z"
             style="fill:#c2d318;fill-opacity:1;fill-rule:nonzero;stroke:none;stroke-width:0.625"
             id="path49504"
             inkscape:connector-curvature="0" />
          <path
             d="m 296.66224,475.81305 c 0.0433,0.0507 0.0869,0.1 0.13253,0.14854 0.36979,-0.12667 0.72982,-0.28774 1.07454,-0.4844 -0.0416,-0.0547 -0.0833,-0.11067 -0.1256,-0.16667 -0.34376,0.19667 -0.70671,0.36453 -1.08139,0.50253 z"
             style="fill:#bac914;fill-opacity:1;fill-rule:nonzero;stroke:none;stroke-width:0.625"
             id="path49506"
             inkscape:connector-curvature="0" />
          <path
             d="m 297.35235,474.79092 c 0.0167,-0.0133 0.0332,-0.0187 0.0495,-0.028 0.0449,0.06 0.0895,0.11867 0.13347,0.17707 -0.0167,0.0133 -0.0335,0.0187 -0.0501,0.028 -0.0436,-0.0587 -0.0883,-0.11734 -0.1328,-0.1772 z"
             style="fill:#8a9500;fill-opacity:1;fill-rule:nonzero;stroke:none;stroke-width:0.625"
             id="path49508"
             inkscape:connector-curvature="0" />
          <path
             d="m 297.48516,474.96812 c 0.0167,-0.0133 0.0335,-0.02 0.0501,-0.028 0.044,0.0573 0.0876,0.116 0.13054,0.1732 -0.0167,0.0133 -0.0335,0.0187 -0.0501,0.028 -0.0429,-0.0573 -0.0865,-0.116 -0.13054,-0.17307 z"
             style="fill:#8f9a02;fill-opacity:1;fill-rule:nonzero;stroke:none;stroke-width:0.625"
             id="path49510"
             inkscape:connector-curvature="0" />
          <path
             d="m 297.61569,475.14119 c 0.0167,-0.0133 0.0335,-0.02 0.0501,-0.028 0.0429,0.0573 0.086,0.11333 0.12827,0.1692 -0.0169,0.0133 -0.0339,0.02 -0.0504,0.0293 -0.0423,-0.056 -0.0849,-0.112 -0.128,-0.16933 z"
             style="fill:#9eaa08;fill-opacity:1;fill-rule:nonzero;stroke:none;stroke-width:0.625"
             id="path49512"
             inkscape:connector-curvature="0" />
          <path
             d="m 297.74363,475.31052 c 0.0167,-0.0133 0.0335,-0.0187 0.0504,-0.0293 0.0423,0.056 0.084,0.112 0.1256,0.16667 -0.0169,0.0133 -0.0339,0.02 -0.0505,0.0293 -0.0416,-0.0547 -0.0833,-0.11067 -0.1256,-0.16667 z"
             style="fill:#b6c512;fill-opacity:1;fill-rule:nonzero;stroke:none;stroke-width:0.625"
             id="path49514"
             inkscape:connector-curvature="0" />
          <path
             d="m 291.21824,466.60479 c 0.68359,-0.38147 1.42609,-0.62493 2.18424,-0.73693 0.3278,0.22133 0.66699,0.47386 1.00684,0.75253 -0.81609,0.28386 -1.62793,0.6836 -2.34832,1.08853 -0.28189,-0.3672 -0.56315,-0.7356 -0.84276,-1.10413 z"
             style="fill:#d8ea20;fill-opacity:1;fill-rule:nonzero;stroke:none;stroke-width:0.625"
             id="path49516"
             inkscape:connector-curvature="0" />
          <path
             d="m 292.061,467.70892 c 0.72039,-0.40493 1.53223,-0.80467 2.34832,-1.08853 0.33984,0.27733 0.68099,0.57813 1.01269,0.89453 -0.84604,0.38027 -1.71322,0.84253 -2.514,1.2956 -0.28254,-0.3672 -0.5651,-0.7344 -0.84701,-1.1016 z"
             style="fill:#c5d81d;fill-opacity:1;fill-rule:nonzero;stroke:none;stroke-width:0.625"
             id="path49518"
             inkscape:connector-curvature="0" />
          <path
             d="m 293.40248,465.86786 c 0.6556,0.44133 1.35612,1.01426 2.01953,1.64706 0.8457,-0.37893 1.67056,-0.67707 2.38704,-0.8008 -0.65169,-0.38413 -1.3763,-0.65226 -2.1289,-0.7968 -0.7461,-0.142 -1.51986,-0.16013 -2.27767,-0.0493 z"
             style="fill:#d8ea20;fill-opacity:1;fill-rule:nonzero;stroke:none;stroke-width:0.625"
             id="path49520"
             inkscape:connector-curvature="0" />
          <path
             d="m 292.90801,468.81052 c 0.56478,0.7344 1.12794,1.47 1.68164,2.2096 0.9183,-0.52467 1.80306,-1.03253 2.62988,-1.50653 -0.50781,-0.6744 -1.13444,-1.36587 -1.79752,-1.99867 -0.84604,0.38027 -1.71322,0.84253 -2.514,1.2956 z"
             style="fill:#b5c81a;fill-opacity:1;fill-rule:nonzero;stroke:none;stroke-width:0.625"
             id="path49522"
             inkscape:connector-curvature="0" />
          <path
             d="m 295.42201,467.51492 c 0.66308,0.6328 1.28971,1.32427 1.79752,1.99867 0.8265,-0.47387 1.59538,-0.914 2.2819,-1.30334 -0.46191,-0.60933 -1.04068,-1.11066 -1.69238,-1.49613 -0.71648,0.124 -1.54134,0.42187 -2.38704,0.8008 z"
             style="fill:#c7da1d;fill-opacity:1;fill-rule:nonzero;stroke:none;stroke-width:0.625"
             id="path49524"
             inkscape:connector-curvature="0" />
          <path
             d="m 294.58965,471.02012 c 0.007,0.0133 0.014,0.0187 0.0208,0.028 1.83692,-1.04813 3.53842,-2.0312 4.9082,-2.81373 -0.005,-0.0133 -0.012,-0.016 -0.0172,-0.024 -1.37272,0.77866 -3.07552,1.7604 -4.91177,2.80986 z"
             style="fill:#9bae12;fill-opacity:1;fill-rule:nonzero;stroke:none;stroke-width:0.625"
             id="path49526"
             inkscape:connector-curvature="0" />
          <path
             d="m 294.61048,471.04745 c 0.91829,-0.52333 1.80307,-1.03253 2.62924,-1.50653 0.22103,0.29307 0.43912,0.60427 0.64811,0.92453 -0.78679,0.526 -1.64226,1.0716 -2.5267,1.57814 -0.24512,-0.3268 -0.49576,-0.6588 -0.75065,-0.99614 z"
             style="fill:#9bae12;fill-opacity:1;fill-rule:nonzero;stroke:none;stroke-width:0.625"
             id="path49528"
             inkscape:connector-curvature="0" />
          <path
             d="m 295.36113,472.04359 c 0.24479,0.32546 0.48471,0.64586 0.7181,0.9584 0.40496,-0.2332 0.81772,-0.4844 1.22298,-0.7488 -0.20409,-0.3268 -0.41764,-0.6588 -0.64128,-0.9908 -0.42252,0.2656 -0.85774,0.52853 -1.2998,0.7812 z"
             style="fill:#93a40d;fill-opacity:1;fill-rule:nonzero;stroke:none;stroke-width:0.625"
             id="path49530"
             inkscape:connector-curvature="0" />
          <path
             d="m 296.66093,471.26239 c 0.22364,0.332 0.43719,0.664 0.64128,0.9908 0.40528,-0.26294 0.80307,-0.53774 1.17774,-0.81507 -0.18359,-0.32547 -0.38347,-0.6536 -0.59212,-0.97267 -0.39356,0.26307 -0.80404,0.5312 -1.2269,0.79694 z"
             style="fill:#a3b411;fill-opacity:1;fill-rule:nonzero;stroke:none;stroke-width:0.625"
             id="path49532"
             inkscape:connector-curvature="0" />
          <path
             d="m 297.23972,469.54092 c 0.82616,-0.4752 1.59407,-0.91667 2.27896,-1.3072 0.18685,0.24867 0.34668,0.50653 0.4808,0.76947 -0.60807,0.4284 -1.3252,0.93493 -2.11165,1.46226 -0.20899,-0.32026 -0.42708,-0.63146 -0.64811,-0.92453 z"
             style="fill:#bbce19;fill-opacity:1;fill-rule:nonzero;stroke:none;stroke-width:0.625"
             id="path49534"
             inkscape:connector-curvature="0" />
          <path
             d="m 297.88783,470.46545 c 0.78645,-0.52733 1.50358,-1.03386 2.11165,-1.46226 0.13379,0.26306 0.24153,0.53133 0.32356,0.80346 -0.43781,0.5104 -1.09407,1.0768 -1.84309,1.63147 -0.18359,-0.32547 -0.38347,-0.6536 -0.59212,-0.97267 z"
             style="fill:#b4c516;fill-opacity:1;fill-rule:nonzero;stroke:none;stroke-width:0.625"
             id="path49536"
             inkscape:connector-curvature="0" />
          <path
             d="m 296.07923,473.00199 c 0.23373,0.3124 0.46126,0.61586 0.68165,0.91013 0.36751,-0.21227 0.75097,-0.4492 1.12792,-0.70453 -0.18717,-0.3072 -0.38216,-0.6276 -0.58659,-0.9544 -0.40526,0.2644 -0.81802,0.5156 -1.22298,0.7488 z"
             style="fill:#8e9c07;fill-opacity:1;fill-rule:nonzero;stroke:none;stroke-width:0.625"
             id="path49538"
             inkscape:connector-curvature="0" />
          <path
             d="m 297.30221,472.25319 c 0.20443,0.3268 0.39942,0.6472 0.58659,0.9544 0.37696,-0.2552 0.7474,-0.52734 1.08855,-0.81107 -0.14551,-0.31 -0.31348,-0.63293 -0.4974,-0.9584 -0.37467,0.27733 -0.77246,0.55213 -1.17774,0.81507 z"
             style="fill:#99a80a;fill-opacity:1;fill-rule:nonzero;stroke:none;stroke-width:0.625"
             id="path49540"
             inkscape:connector-curvature="0" />
          <path
             d="m 296.76088,473.91212 c 0.22069,0.29427 0.43456,0.57813 0.64095,0.85027 0.35025,-0.20187 0.69629,-0.4324 1.02376,-0.6824 -0.17123,-0.27214 -0.34994,-0.56507 -0.53679,-0.8724 -0.37695,0.25533 -0.76041,0.49226 -1.12792,0.70453 z"
             style="fill:#8b9702;fill-opacity:1;fill-rule:nonzero;stroke:none;stroke-width:0.625"
             id="path49542"
             inkscape:connector-curvature="0" />
          <path
             d="m 297.8888,473.20759 c 0.18685,0.30733 0.36556,0.60026 0.53679,0.8724 0.3278,-0.25 0.63737,-0.51947 0.91504,-0.80467 -0.0944,-0.27213 -0.21778,-0.56893 -0.36328,-0.8788 -0.34115,0.28373 -0.71159,0.55587 -1.08855,0.81107 z"
             style="fill:#929e04;fill-opacity:1;fill-rule:nonzero;stroke:none;stroke-width:0.625"
             id="path49544"
             inkscape:connector-curvature="0" />
          <path
             d="m 298.47995,471.43812 c 0.18392,0.32547 0.35189,0.6484 0.4974,0.9584 0.34114,-0.28387 0.65332,-0.57693 0.91373,-0.87373 -0.0947,-0.3008 -0.22265,-0.60947 -0.37272,-0.91667 -0.31251,0.27467 -0.66373,0.55467 -1.03841,0.832 z"
             style="fill:#aaba10;fill-opacity:1;fill-rule:nonzero;stroke:none;stroke-width:0.625"
             id="path49546"
             inkscape:connector-curvature="0" />
          <path
             d="m 299.51836,470.60612 c 0.15007,0.3072 0.278,0.61587 0.37272,0.91667 0.26009,-0.29827 0.46843,-0.59774 0.60253,-0.8932 -0.0319,-0.27614 -0.0885,-0.5508 -0.17057,-0.82294 -0.21875,0.2552 -0.49251,0.52467 -0.80468,0.79947 z"
             style="fill:#bfd017;fill-opacity:1;fill-rule:nonzero;stroke:none;stroke-width:0.625"
             id="path49548"
             inkscape:connector-curvature="0" />
          <path
             d="m 298.97735,472.39652 c 0.1455,0.30987 0.26888,0.60667 0.36328,0.8788 0.27766,-0.28387 0.52344,-0.582 0.72362,-0.888 -0.0172,-0.27347 -0.0788,-0.56507 -0.17317,-0.86453 -0.26041,0.2968 -0.57259,0.58986 -0.91373,0.87373 z"
             style="fill:#a1af0a;fill-opacity:1;fill-rule:nonzero;stroke:none;stroke-width:0.625"
             id="path49550"
             inkscape:connector-curvature="0" />
          <path
             d="m 299.89108,471.52279 c 0.0944,0.29946 0.15592,0.59106 0.17317,0.86453 0.2002,-0.306 0.35483,-0.61853 0.4502,-0.9336 0.0176,-0.27347 0.0107,-0.54947 -0.0208,-0.82413 -0.1341,0.29546 -0.34244,0.59493 -0.60253,0.8932 z"
             style="fill:#b9c814;fill-opacity:1;fill-rule:nonzero;stroke:none;stroke-width:0.625"
             id="path49552"
             inkscape:connector-curvature="0" />
          <path
             d="m 297.40183,474.76239 c 0.0449,0.06 0.0895,0.11866 0.13346,0.17706 0.34831,-0.20186 0.68456,-0.43106 0.99902,-0.67973 -0.0352,-0.06 -0.0713,-0.12 -0.10867,-0.17973 -0.32747,0.25 -0.67351,0.48053 -1.02376,0.6824 z"
             style="fill:#8a9500;fill-opacity:1;fill-rule:nonzero;stroke:none;stroke-width:0.625"
             id="path49554"
             inkscape:connector-curvature="0" />
          <path
             d="m 298.42559,474.07999 c 0.0375,0.06 0.0736,0.12 0.10866,0.17973 0.31446,-0.24867 0.60711,-0.51827 0.86752,-0.80213 -0.0201,-0.0613 -0.0407,-0.12267 -0.0612,-0.18227 -0.27766,0.2852 -0.58724,0.55467 -0.91504,0.80467 z"
             style="fill:#8f9a02;fill-opacity:1;fill-rule:nonzero;stroke:none;stroke-width:0.625"
             id="path49556"
             inkscape:connector-curvature="0" />
          <path
             d="m 297.53529,474.93945 c 0.044,0.0573 0.0876,0.116 0.13054,0.1732 0.34374,-0.20053 0.67024,-0.4272 0.97232,-0.6732 -0.0341,-0.06 -0.0684,-0.12 -0.10387,-0.17973 -0.31445,0.24867 -0.65071,0.47787 -0.99901,0.67973 z"
             style="fill:#8f9a02;fill-opacity:1;fill-rule:nonzero;stroke:none;stroke-width:0.625"
             id="path49558"
             inkscape:connector-curvature="0" />
          <path
             d="m 298.53431,474.25972 c 0.0355,0.06 0.0696,0.12 0.10386,0.17973 0.30176,-0.24746 0.57846,-0.5156 0.82292,-0.79826 -0.0189,-0.0613 -0.0391,-0.12267 -0.0592,-0.1836 -0.26041,0.28386 -0.55306,0.55346 -0.86752,0.80213 z"
             style="fill:#94a004;fill-opacity:1;fill-rule:nonzero;stroke:none;stroke-width:0.625"
             id="path49560"
             inkscape:connector-curvature="0" />
          <path
             d="m 299.34063,473.27532 c 0.0205,0.06 0.0411,0.12133 0.0612,0.18227 0.26073,-0.28374 0.48893,-0.582 0.67512,-0.888 -0.004,-0.0613 -0.009,-0.12267 -0.0133,-0.18227 -0.20019,0.306 -0.44596,0.60413 -0.72363,0.888 z"
             style="fill:#9daa08;fill-opacity:1;fill-rule:nonzero;stroke:none;stroke-width:0.625"
             id="path49562"
             inkscape:connector-curvature="0" />
          <path
             d="m 300.06425,472.38732 c 0.004,0.06 0.008,0.12133 0.0133,0.18227 0.18654,-0.306 0.33042,-0.62107 0.4222,-0.93747 0.007,-0.0587 0.012,-0.11867 0.0153,-0.1784 -0.0953,0.31507 -0.25,0.6276 -0.4502,0.9336 z"
             style="fill:#b6c512;fill-opacity:1;fill-rule:nonzero;stroke:none;stroke-width:0.625"
             id="path49564"
             inkscape:connector-curvature="0" />
          <path
             d="m 299.40183,473.45759 c 0.0201,0.0613 0.0404,0.12266 0.0592,0.1836 0.24478,-0.28254 0.4567,-0.58067 0.62858,-0.888 -0.004,-0.0613 -0.008,-0.12267 -0.0133,-0.1836 -0.18618,0.306 -0.41438,0.60426 -0.67512,0.888 z"
             style="fill:#a3b00a;fill-opacity:1;fill-rule:nonzero;stroke:none;stroke-width:0.625"
             id="path49566"
             inkscape:connector-curvature="0" />
          <path
             d="m 300.07695,472.56959 c 0.004,0.0613 0.009,0.12266 0.0133,0.1836 0.17187,-0.3072 0.30371,-0.6236 0.38769,-0.94267 0.008,-0.06 0.0156,-0.11867 0.0217,-0.1784 -0.0917,0.3164 -0.23567,0.63147 -0.4222,0.93747 z"
             style="fill:#bac914;fill-opacity:1;fill-rule:nonzero;stroke:none;stroke-width:0.625"
             id="path49568"
             inkscape:connector-curvature="0" />
          <path
             d="m 297.66583,475.11265 c 0.0429,0.0573 0.086,0.11334 0.12826,0.1692 0.33919,-0.19786 0.6556,-0.42186 0.94434,-0.66666 -0.0332,-0.0573 -0.0664,-0.11734 -0.10027,-0.17574 -0.30208,0.246 -0.62857,0.47267 -0.97232,0.6732 z"
             style="fill:#9daa08;fill-opacity:1;fill-rule:nonzero;stroke:none;stroke-width:0.625"
             id="path49570"
             inkscape:connector-curvature="0" />
          <path
             d="m 298.63815,474.43945 c 0.0339,0.0587 0.0671,0.11867 0.10026,0.17574 0.28874,-0.2448 0.54948,-0.5104 0.77767,-0.7916 -0.0172,-0.06 -0.0359,-0.12134 -0.0551,-0.1824 -0.24446,0.28266 -0.52116,0.5508 -0.82292,0.79826 z"
             style="fill:#a3b00a;fill-opacity:1;fill-rule:nonzero;stroke:none;stroke-width:0.625"
             id="path49572"
             inkscape:connector-curvature="0" />
          <path
             d="m 297.79408,475.28185 c 0.0423,0.056 0.084,0.112 0.1256,0.16667 0.33724,-0.19653 0.64355,-0.4192 0.91796,-0.6628 -0.0332,-0.056 -0.0661,-0.112 -0.0993,-0.17053 -0.28873,0.2448 -0.60515,0.4688 -0.94433,0.66666 z"
             style="fill:#b6c512;fill-opacity:1;fill-rule:nonzero;stroke:none;stroke-width:0.625"
             id="path49574"
             inkscape:connector-curvature="0" />
          <path
             d="m 298.73841,474.61519 c 0.0332,0.0587 0.0661,0.11466 0.0993,0.17053 0.2741,-0.24347 0.5166,-0.50773 0.72591,-0.78773 -0.0147,-0.056 -0.0305,-0.11467 -0.0475,-0.1744 -0.22819,0.2812 -0.48893,0.5468 -0.77767,0.7916 z"
             style="fill:#bac914;fill-opacity:1;fill-rule:nonzero;stroke:none;stroke-width:0.625"
             id="path49576"
             inkscape:connector-curvature="0" />
          <path
             d="m 299.46107,473.64119 c 0.48925,-0.56507 0.8483,-1.19134 1.01628,-1.83067 -0.008,0.0587 -0.0179,0.11733 -0.0287,0.17573 -0.15233,0.64854 -0.47688,1.2748 -0.93261,1.83734 -0.0172,-0.06 -0.0359,-0.12134 -0.0551,-0.1824 z"
             style="fill:#b1bf10;fill-opacity:1;fill-rule:nonzero;stroke:none;stroke-width:0.625"
             id="path49578"
             inkscape:connector-curvature="0" />
          <path
             d="m 299.51608,473.82359 c 0.0169,0.06 0.0329,0.11866 0.0475,0.1744 0.20899,-0.27987 0.38543,-0.57547 0.52735,-0.88414 0.004,-0.0573 0.005,-0.11733 0.005,-0.17706 -0.15723,0.30733 -0.35222,0.60546 -0.58008,0.8868 z"
             style="fill:#c4d418;fill-opacity:1;fill-rule:nonzero;stroke:none;stroke-width:0.625"
             id="path49580"
             inkscape:connector-curvature="0" />
          <path
             d="m 300.09616,472.93679 c 6.5e-4,0.06 -9.7e-4,0.12 -0.005,0.17706 0.14193,-0.3072 0.25,-0.62626 0.3226,-0.95173 0.0133,-0.0587 0.0248,-0.11733 0.0352,-0.17587 -0.0761,0.32427 -0.19531,0.64334 -0.35253,0.95054 z"
             style="fill:#cfe01c;fill-opacity:1;fill-rule:nonzero;stroke:none;stroke-width:0.625"
             id="path49582"
             inkscape:connector-curvature="0" />
          <path
             d="m 299.99971,472.95412 c 0,0 -1.648,-4.31067 -5.10534,-4.504 0,0 -3.30266,-0.28 -4.72666,2.50267 0,0 -1.13467,2.48533 2.148,4.68133 0,0 -2.88667,-2.15867 -1.664,-4.236 0,0 1.69066,-3.98533 6.10933,-1.64933 0,0 1.36133,0.33866 3.03733,3.91066 0,0 0.47867,-0.33866 0.20134,-0.70533"
             style="fill:#e8dfac;fill-opacity:1;fill-rule:nonzero;stroke:none;stroke-width:0.625"
             id="path49594"
             inkscape:connector-curvature="0" />
        </g>
      </g>
      <g
         inkscape:label="Capa 1"
         id="layer1-5"
         transform="matrix(0.1828504,0,0,0.1828504,527.67036,402.88583)"
         style="stroke-width:0.625">
        <g
           id="g4135"
           transform="matrix(1.8773133,0,0,1.8773133,-184.85241,-532.40783)"
           inkscape:export-xdpi="90"
           inkscape:export-ydpi="90"
           style="stroke-width:0.625">
          <path
             d="m 239.43302,601.73644 c -0.712,-0.49867 -1.14,-0.748 -0.49866,-1.63867 0.64133,-0.89067 0.64133,-2.352 -0.748,-3.42133 -1.39067,-1.06934 -3.02934,-2.38667 -3.34934,-3.77734 -0.32133,-1.38933 -1.616,-1.67466 -2.19733,-2.42266 -0.58267,-0.748 -1.26,-1.74534 -1.58,-4.91734 -0.32133,-3.17066 -1.568,-11.75866 -1.35467,-15.35733 0.21467,-3.6 0.49867,-6.34266 0.49867,-6.34266 0,0 2.67333,-0.21467 3.84933,-0.464 1.176,-0.24934 1.03334,-2.38667 0.0347,-2.60134 -0.99733,-0.21333 -1.152,-0.392 -1.448,-1.068 -0.29733,-0.67733 -1.40266,-0.74933 -1.72266,-0.99866 -0.32134,-0.24934 -0.392,-0.748 0.0707,-0.89067 0.464,-0.14267 0.74933,-1.14 0.24933,-1.35333 -0.49866,-0.21467 -0.10666,-1.14134 0.28534,-2.17467 0,0 0.71333,-2.672 1.74666,-4.38267 1.03334,-1.71066 2.81467,-4.276 1.176,-5.13066 -1.64,-0.856 -6.52133,-1.96 -6.52133,-1.96 0,0 0.428,-0.24934 0.17867,-0.67734 -0.24934,-0.428 -0.28534,-0.64133 -0.28534,-0.64133 0,0 0.49867,0.036 0.85467,-0.356 0.35733,-0.392 -1.24667,-2.744 -1.24667,-2.744 0,0 1.78134,1.28267 2.13734,1.212 0.35733,-0.072 0.67733,-5.024 0.108,-5.06 -0.57067,-0.036 -2.49467,1.31867 -2.49467,1.31867 0,0 1.81733,-2.67334 1.568,-2.95867 -0.23334,-0.26667 -2.50934,-0.78 -3.17068,-0.78 -0.66,0 -2.936,0.51333 -3.16933,0.78 -0.24933,0.28533 1.568,2.95867 1.568,2.95867 0,0 -1.924,-1.35467 -2.49467,-1.31867 -0.56933,0.036 -0.24933,4.988 0.10667,5.06 0.35733,0.0707 2.13867,-1.212 2.13867,-1.212 0,0 -1.604,2.352 -1.248,2.744 0.35733,0.392 0.856,0.356 0.856,0.356 0,0 -0.036,0.21333 -0.28534,0.64133 -0.24933,0.428 0.17867,0.67734 0.17867,0.67734 0,0 -4.88267,1.104 -6.52133,1.96 -1.63867,0.85466 0.14266,3.42 1.176,5.13066 1.03333,1.71067 1.74666,4.38267 1.74666,4.38267 0.39067,1.03333 0.78267,1.96 0.284,2.17467 -0.49866,0.21333 -0.21333,1.21066 0.24934,1.35333 0.464,0.14267 0.392,0.64133 0.072,0.89067 -0.32134,0.24933 -1.42534,0.32133 -1.72267,0.99866 -0.29733,0.676 -0.45067,0.85467 -1.44933,1.068 -0.99734,0.21467 -1.14,2.352 0.036,2.60134 1.176,0.24933 3.848,0.464 3.848,0.464 0,0 0.28533,2.74266 0.5,6.34266 0.21333,3.59867 -1.03467,12.18667 -1.35467,15.35733 -0.32133,3.172 -0.99733,4.16934 -1.58,4.91734 -0.58133,0.748 -1.876,1.03333 -2.19733,2.42266 -0.32,1.39067 -1.96,2.708 -3.34934,3.77734 -1.38933,1.06933 -1.38933,2.53066 -0.748,3.42133 0.64134,0.89067 0.21334,1.14 -0.49866,1.63867 -0.71334,0.49866 -2.15734,2.79066 0.648,3.67333 2.38133,0.748 11.72133,1.19067 13.21066,1.19067 1.48934,0 10.83067,-0.44267 13.21067,-1.19067 2.80667,-0.88267 1.36267,-3.17467 0.64933,-3.67333"
             style="fill:#000000;fill-opacity:1;fill-rule:nonzero;stroke:none;stroke-width:0.625"
             id="path36524"
             inkscape:connector-curvature="0" />
          <path
             d="m 268.07616,603.1523 c -0.96534,-0.84 -0.42,-0.88133 0.0413,-1.55333 0.46266,-0.67067 0.63066,-1.76267 -0.46134,-2.476 -1.09066,-0.71333 -1.93066,-0.71333 -2.56,-1.76133 -0.62933,-1.04934 -0.62933,-1.93067 -1.00666,-2.224 -0.37734,-0.29467 -1.30134,-0.252 -1.30134,-0.252 0,0 -0.79733,-0.88134 -1.552,-4.11334 -0.756,-3.23066 -1.00666,-9.232 -1.00666,-9.232 0,0 2.89466,0.0427 4.06933,-0.54533 1.176,-0.588 0.62933,-1.00667 -0.58667,-2.01467 -0.66666,-0.55199 -1.636,-1.36799 -2.37733,-1.99333 1.156,-1.19333 1.868,-2.81866 1.868,-4.61066 0,-3.65867 -2.96533,-6.624 -6.62533,-6.624 -3.65867,0 -6.62534,2.96533 -6.62534,6.624 0,1.792 0.712,3.41733 1.868,4.61066 -0.74,0.62534 -1.70933,1.44134 -2.376,1.99333 -1.21733,1.008 -1.76266,1.42667 -0.588,2.01467 1.17467,0.588 4.07067,0.54533 4.07067,0.54533 0,0 -0.252,6.00134 -1.00667,9.232 -0.756,3.232 -1.55333,4.11334 -1.55333,4.11334 0,0 -0.92267,-0.0427 -1.3,0.252 -0.37867,0.29333 -0.37867,1.17466 -1.008,2.224 -0.62933,1.048 -1.468,1.048 -2.56,1.76133 -1.09067,0.71333 -0.92267,1.80533 -0.46133,2.476 0.46133,0.672 1.008,0.71333 0.0427,1.55333 -0.96534,0.83867 -1.93067,1.28 -0.48267,2.53867 1.448,1.25867 11.12533,1.16933 11.98,1.16933 0.856,0 10.53333,0.0893 11.98133,-1.16933 1.448,-1.25867 0.48267,-1.7 -0.48266,-2.53867"
             style="fill:#000000;fill-opacity:1;fill-rule:nonzero;stroke:none;stroke-width:0.625"
             id="path36552"
             inkscape:connector-curvature="0" />
        </g>
      </g>
    </g>
  </g>
</svg>
