<?xml version="1.0" encoding="UTF-8" standalone="no"?>
<!-- Created with Inkscape (http://www.inkscape.org/) -->

<svg
   xmlns:dc="http://purl.org/dc/elements/1.1/"
   xmlns:cc="http://creativecommons.org/ns#"
   xmlns:rdf="http://www.w3.org/1999/02/22-rdf-syntax-ns#"
   xmlns:svg="http://www.w3.org/2000/svg"
   xmlns="http://www.w3.org/2000/svg"
   xmlns:xlink="http://www.w3.org/1999/xlink"
   xmlns:sodipodi="http://sodipodi.sourceforge.net/DTD/sodipodi-0.dtd"
   xmlns:inkscape="http://www.inkscape.org/namespaces/inkscape"
   width="24.438568mm"
   height="69.991112mm"
   viewBox="0 0 86.593352 247.99999"
   id="svg2"
   version="1.1"
   inkscape:version="0.91 r13725"
   sodipodi:docname="alfredo.svg"
   inkscape:export-filename="/home/nestor/Documentos/Megamente/img/quien-soy/ejercicio23/alfredo.png"
   inkscape:export-xdpi="90"
   inkscape:export-ydpi="90">
  <defs
     id="defs4">
    <linearGradient
       id="linearGradient2218"
       spreadMethod="pad"
       gradientTransform="matrix(0,89.476593,89.476593,0,158.64258,1602.1499)"
       gradientUnits="userSpaceOnUse"
       y2="0"
       x2="1"
       y1="0"
       x1="0">
      <stop
         id="stop2210"
         offset="0"
         style="stop-opacity:1;stop-color:#ffffff" />
      <stop
         id="stop2212"
         offset="0.2609"
         style="stop-opacity:1;stop-color:#ffffff" />
      <stop
         id="stop2214"
         offset="0.69847176"
         style="stop-opacity:1;stop-color:#ffffff" />
      <stop
         id="stop2216"
         offset="1"
         style="stop-opacity:1;stop-color:#ffffff" />
    </linearGradient>
    <radialGradient
       id="radialGradient1416"
       spreadMethod="pad"
       gradientTransform="matrix(88.648651,0,0,-88.648651,332.29947,1673.294)"
       gradientUnits="userSpaceOnUse"
       r="1"
       cy="0"
       cx="0"
       fy="0"
       fx="0">
      <stop
         id="stop1412"
         offset="0"
         style="stop-opacity:1;stop-color:#ff151f" />
      <stop
         id="stop1414"
         offset="1"
         style="stop-opacity:1;stop-color:#c9191f" />
    </radialGradient>
    <linearGradient
       id="linearGradient1436"
       spreadMethod="pad"
       gradientTransform="matrix(8.7653627,8.7653627,8.7653627,-8.7653627,346.83835,1686.1775)"
       gradientUnits="userSpaceOnUse"
       y2="0"
       x2="1"
       y1="0"
       x1="0">
      <stop
         id="stop1432"
         offset="0"
         style="stop-opacity:1;stop-color:#ff151f" />
      <stop
         id="stop1434"
         offset="1"
         style="stop-opacity:1;stop-color:#c9191f" />
    </linearGradient>
    <linearGradient
       id="linearGradient1456"
       spreadMethod="pad"
       gradientTransform="matrix(6.4780192,-6.4780192,-6.4780192,-6.4780192,347.98221,1693.7993)"
       gradientUnits="userSpaceOnUse"
       y2="0"
       x2="1"
       y1="0"
       x1="0">
      <stop
         id="stop1452"
         offset="0"
         style="stop-opacity:1;stop-color:#ffd440" />
      <stop
         id="stop1454"
         offset="1"
         style="stop-opacity:1;stop-color:#ff9200" />
    </linearGradient>
    <linearGradient
       id="linearGradient1476"
       spreadMethod="pad"
       gradientTransform="matrix(8.7653627,8.7653627,8.7653627,-8.7653627,346.70344,1661.1291)"
       gradientUnits="userSpaceOnUse"
       y2="0"
       x2="1"
       y1="0"
       x1="0">
      <stop
         id="stop1472"
         offset="0"
         style="stop-opacity:1;stop-color:#ff151f" />
      <stop
         id="stop1474"
         offset="1"
         style="stop-opacity:1;stop-color:#c9191f" />
    </linearGradient>
    <linearGradient
       id="linearGradient1496"
       spreadMethod="pad"
       gradientTransform="matrix(6.4780078,-6.4780078,-6.4780078,-6.4780078,347.8473,1668.7509)"
       gradientUnits="userSpaceOnUse"
       y2="0"
       x2="1"
       y1="0"
       x1="0">
      <stop
         id="stop1492"
         offset="0"
         style="stop-opacity:1;stop-color:#ffd440" />
      <stop
         id="stop1494"
         offset="1"
         style="stop-opacity:1;stop-color:#ff9200" />
    </linearGradient>
    <linearGradient
       id="linearGradient1516"
       spreadMethod="pad"
       gradientTransform="matrix(8.7653332,8.7653332,8.7653332,-8.7653332,347.10746,1635.4074)"
       gradientUnits="userSpaceOnUse"
       y2="0"
       x2="1"
       y1="0"
       x1="0">
      <stop
         id="stop1512"
         offset="0"
         style="stop-opacity:1;stop-color:#ff151f" />
      <stop
         id="stop1514"
         offset="1"
         style="stop-opacity:1;stop-color:#c9191f" />
    </linearGradient>
    <linearGradient
       id="linearGradient1536"
       spreadMethod="pad"
       gradientTransform="matrix(6.4779353,-6.4779353,-6.4779353,-6.4779353,348.25135,1643.0294)"
       gradientUnits="userSpaceOnUse"
       y2="0"
       x2="1"
       y1="0"
       x1="0">
      <stop
         id="stop1532"
         offset="0"
         style="stop-opacity:1;stop-color:#ffd440" />
      <stop
         id="stop1534"
         offset="1"
         style="stop-opacity:1;stop-color:#ff9200" />
    </linearGradient>
    <linearGradient
       id="linearGradient1556"
       spreadMethod="pad"
       gradientTransform="matrix(8.7654619,8.7654619,8.7654619,-8.7654619,346.83817,1610.2234)"
       gradientUnits="userSpaceOnUse"
       y2="0"
       x2="1"
       y1="0"
       x1="0">
      <stop
         id="stop1552"
         offset="0"
         style="stop-opacity:1;stop-color:#ff151f" />
      <stop
         id="stop1554"
         offset="1"
         style="stop-opacity:1;stop-color:#c9191f" />
    </linearGradient>
    <linearGradient
       id="linearGradient1576"
       spreadMethod="pad"
       gradientTransform="matrix(6.4778938,-6.4778938,-6.4778938,-6.4778938,347.98212,1617.8454)"
       gradientUnits="userSpaceOnUse"
       y2="0"
       x2="1"
       y1="0"
       x1="0">
      <stop
         id="stop1572"
         offset="0"
         style="stop-opacity:1;stop-color:#ffd440" />
      <stop
         id="stop1574"
         offset="1"
         style="stop-opacity:1;stop-color:#ff9200" />
    </linearGradient>
    <linearGradient
       id="linearGradient1596"
       spreadMethod="pad"
       gradientTransform="matrix(6.8593855,10.325015,10.325015,-6.8593855,366.24106,1678.7987)"
       gradientUnits="userSpaceOnUse"
       y2="0"
       x2="1"
       y1="0"
       x1="0">
      <stop
         id="stop1592"
         offset="0"
         style="stop-opacity:1;stop-color:#ff151f" />
      <stop
         id="stop1594"
         offset="1"
         style="stop-opacity:1;stop-color:#c9191f" />
    </linearGradient>
    <linearGradient
       id="linearGradient1616"
       spreadMethod="pad"
       gradientTransform="matrix(7.6309819,-5.0696149,-5.0696149,-7.6309819,365.85547,1686.4961)"
       gradientUnits="userSpaceOnUse"
       y2="0"
       x2="1"
       y1="0"
       x1="0">
      <stop
         id="stop1612"
         offset="0"
         style="stop-opacity:1;stop-color:#ffd440" />
      <stop
         id="stop1614"
         offset="1"
         style="stop-opacity:1;stop-color:#ff9200" />
    </linearGradient>
    <linearGradient
       id="linearGradient1636"
       spreadMethod="pad"
       gradientTransform="matrix(9.7560396,7.6470518,7.6470518,-9.7560396,368.69752,1657.5807)"
       gradientUnits="userSpaceOnUse"
       y2="0"
       x2="1"
       y1="0"
       x1="0">
      <stop
         id="stop1632"
         offset="0"
         style="stop-opacity:1;stop-color:#ff151f" />
      <stop
         id="stop1634"
         offset="1"
         style="stop-opacity:1;stop-color:#c9191f" />
    </linearGradient>
    <linearGradient
       id="linearGradient1656"
       spreadMethod="pad"
       gradientTransform="matrix(5.6515303,-7.2101712,-7.2101712,-5.6515303,370.74994,1665.0094)"
       gradientUnits="userSpaceOnUse"
       y2="0"
       x2="1"
       y1="0"
       x1="0">
      <stop
         id="stop1652"
         offset="0"
         style="stop-opacity:1;stop-color:#ffd440" />
      <stop
         id="stop1654"
         offset="1"
         style="stop-opacity:1;stop-color:#ff9200" />
    </linearGradient>
    <linearGradient
       id="linearGradient1676"
       spreadMethod="pad"
       gradientTransform="matrix(10.185341,7.0663595,7.0663595,-10.185341,362.96164,1629.9275)"
       gradientUnits="userSpaceOnUse"
       y2="0"
       x2="1"
       y1="0"
       x1="0">
      <stop
         id="stop1672"
         offset="0"
         style="stop-opacity:1;stop-color:#ff151f" />
      <stop
         id="stop1674"
         offset="1"
         style="stop-opacity:1;stop-color:#c9191f" />
    </linearGradient>
    <linearGradient
       id="linearGradient1696"
       spreadMethod="pad"
       gradientTransform="matrix(5.2219481,-7.526835,-7.526835,-5.2219481,365.44358,1637.2244)"
       gradientUnits="userSpaceOnUse"
       y2="0"
       x2="1"
       y1="0"
       x1="0">
      <stop
         id="stop1692"
         offset="0"
         style="stop-opacity:1;stop-color:#ffd440" />
      <stop
         id="stop1694"
         offset="1"
         style="stop-opacity:1;stop-color:#ff9200" />
    </linearGradient>
    <linearGradient
       id="linearGradient1716"
       spreadMethod="pad"
       gradientTransform="matrix(8.7653828,8.7653828,8.7653828,-8.7653828,328.25367,1677.6934)"
       gradientUnits="userSpaceOnUse"
       y2="0"
       x2="1"
       y1="0"
       x1="0">
      <stop
         id="stop1712"
         offset="0"
         style="stop-opacity:1;stop-color:#ff151f" />
      <stop
         id="stop1714"
         offset="1"
         style="stop-opacity:1;stop-color:#c9191f" />
    </linearGradient>
    <linearGradient
       id="linearGradient1736"
       spreadMethod="pad"
       gradientTransform="matrix(6.4779491,-6.4779491,-6.4779491,-6.4779491,329.39765,1685.3152)"
       gradientUnits="userSpaceOnUse"
       y2="0"
       x2="1"
       y1="0"
       x1="0">
      <stop
         id="stop1732"
         offset="0"
         style="stop-opacity:1;stop-color:#ffd440" />
      <stop
         id="stop1734"
         offset="1"
         style="stop-opacity:1;stop-color:#ff9200" />
    </linearGradient>
    <linearGradient
       id="linearGradient1756"
       spreadMethod="pad"
       gradientTransform="matrix(8.7653828,8.7653828,8.7653828,-8.7653828,328.11872,1652.645)"
       gradientUnits="userSpaceOnUse"
       y2="0"
       x2="1"
       y1="0"
       x1="0">
      <stop
         id="stop1752"
         offset="0"
         style="stop-opacity:1;stop-color:#ff151f" />
      <stop
         id="stop1754"
         offset="1"
         style="stop-opacity:1;stop-color:#c9191f" />
    </linearGradient>
    <linearGradient
       id="linearGradient1776"
       spreadMethod="pad"
       gradientTransform="matrix(6.4779606,-6.4779606,-6.4779606,-6.4779606,329.26273,1660.2668)"
       gradientUnits="userSpaceOnUse"
       y2="0"
       x2="1"
       y1="0"
       x1="0">
      <stop
         id="stop1772"
         offset="0"
         style="stop-opacity:1;stop-color:#ffd440" />
      <stop
         id="stop1774"
         offset="1"
         style="stop-opacity:1;stop-color:#ff9200" />
    </linearGradient>
    <linearGradient
       id="linearGradient1796"
       spreadMethod="pad"
       gradientTransform="matrix(8.7653532,8.7653532,8.7653532,-8.7653532,328.52274,1626.9233)"
       gradientUnits="userSpaceOnUse"
       y2="0"
       x2="1"
       y1="0"
       x1="0">
      <stop
         id="stop1792"
         offset="0"
         style="stop-opacity:1;stop-color:#ff151f" />
      <stop
         id="stop1794"
         offset="1"
         style="stop-opacity:1;stop-color:#c9191f" />
    </linearGradient>
    <linearGradient
       id="linearGradient1816"
       spreadMethod="pad"
       gradientTransform="matrix(6.4778881,-6.4778881,-6.4778881,-6.4778881,329.66675,1634.5452)"
       gradientUnits="userSpaceOnUse"
       y2="0"
       x2="1"
       y1="0"
       x1="0">
      <stop
         id="stop1812"
         offset="0"
         style="stop-opacity:1;stop-color:#ffd440" />
      <stop
         id="stop1814"
         offset="1"
         style="stop-opacity:1;stop-color:#ff9200" />
    </linearGradient>
    <linearGradient
       id="linearGradient1836"
       spreadMethod="pad"
       gradientTransform="matrix(8.7653627,8.7653627,8.7653627,-8.7653627,308.72706,1685.3695)"
       gradientUnits="userSpaceOnUse"
       y2="0"
       x2="1"
       y1="0"
       x1="0">
      <stop
         id="stop1832"
         offset="0"
         style="stop-opacity:1;stop-color:#ff151f" />
      <stop
         id="stop1834"
         offset="1"
         style="stop-opacity:1;stop-color:#c9191f" />
    </linearGradient>
    <linearGradient
       id="linearGradient1856"
       spreadMethod="pad"
       gradientTransform="matrix(6.4780192,-6.4780192,-6.4780192,-6.4780192,309.87092,1692.9913)"
       gradientUnits="userSpaceOnUse"
       y2="0"
       x2="1"
       y1="0"
       x1="0">
      <stop
         id="stop1852"
         offset="0"
         style="stop-opacity:1;stop-color:#ffd440" />
      <stop
         id="stop1854"
         offset="1"
         style="stop-opacity:1;stop-color:#ff9200" />
    </linearGradient>
    <linearGradient
       id="linearGradient1876"
       spreadMethod="pad"
       gradientTransform="matrix(8.7653627,8.7653627,8.7653627,-8.7653627,308.59214,1660.3211)"
       gradientUnits="userSpaceOnUse"
       y2="0"
       x2="1"
       y1="0"
       x1="0">
      <stop
         id="stop1872"
         offset="0"
         style="stop-opacity:1;stop-color:#ff151f" />
      <stop
         id="stop1874"
         offset="1"
         style="stop-opacity:1;stop-color:#c9191f" />
    </linearGradient>
    <linearGradient
       id="linearGradient1896"
       spreadMethod="pad"
       gradientTransform="matrix(6.4780078,-6.4780078,-6.4780078,-6.4780078,309.736,1667.9429)"
       gradientUnits="userSpaceOnUse"
       y2="0"
       x2="1"
       y1="0"
       x1="0">
      <stop
         id="stop1892"
         offset="0"
         style="stop-opacity:1;stop-color:#ffd440" />
      <stop
         id="stop1894"
         offset="1"
         style="stop-opacity:1;stop-color:#ff9200" />
    </linearGradient>
    <linearGradient
       id="linearGradient1916"
       spreadMethod="pad"
       gradientTransform="matrix(8.7653332,8.7653332,8.7653332,-8.7653332,308.99616,1634.5994)"
       gradientUnits="userSpaceOnUse"
       y2="0"
       x2="1"
       y1="0"
       x1="0">
      <stop
         id="stop1912"
         offset="0"
         style="stop-opacity:1;stop-color:#ff151f" />
      <stop
         id="stop1914"
         offset="1"
         style="stop-opacity:1;stop-color:#c9191f" />
    </linearGradient>
    <linearGradient
       id="linearGradient1936"
       spreadMethod="pad"
       gradientTransform="matrix(6.4779353,-6.4779353,-6.4779353,-6.4779353,310.14005,1642.2214)"
       gradientUnits="userSpaceOnUse"
       y2="0"
       x2="1"
       y1="0"
       x1="0">
      <stop
         id="stop1932"
         offset="0"
         style="stop-opacity:1;stop-color:#ffd440" />
      <stop
         id="stop1934"
         offset="1"
         style="stop-opacity:1;stop-color:#ff9200" />
    </linearGradient>
    <linearGradient
       id="linearGradient1956"
       spreadMethod="pad"
       gradientTransform="matrix(8.7654619,8.7654619,8.7654619,-8.7654619,308.72687,1609.4154)"
       gradientUnits="userSpaceOnUse"
       y2="0"
       x2="1"
       y1="0"
       x1="0">
      <stop
         id="stop1952"
         offset="0"
         style="stop-opacity:1;stop-color:#ff151f" />
      <stop
         id="stop1954"
         offset="1"
         style="stop-opacity:1;stop-color:#c9191f" />
    </linearGradient>
    <linearGradient
       id="linearGradient1976"
       spreadMethod="pad"
       gradientTransform="matrix(6.4778938,-6.4778938,-6.4778938,-6.4778938,309.87082,1617.0374)"
       gradientUnits="userSpaceOnUse"
       y2="0"
       x2="1"
       y1="0"
       x1="0">
      <stop
         id="stop1972"
         offset="0"
         style="stop-opacity:1;stop-color:#ffd440" />
      <stop
         id="stop1974"
         offset="1"
         style="stop-opacity:1;stop-color:#ff9200" />
    </linearGradient>
    <linearGradient
       id="linearGradient1996"
       spreadMethod="pad"
       gradientTransform="matrix(9.4479322,8.0244751,8.0244751,-9.4479322,288.99329,1678.1984)"
       gradientUnits="userSpaceOnUse"
       y2="0"
       x2="1"
       y1="0"
       x1="0">
      <stop
         id="stop1992"
         offset="0"
         style="stop-opacity:1;stop-color:#ff151f" />
      <stop
         id="stop1994"
         offset="1"
         style="stop-opacity:1;stop-color:#c9191f" />
    </linearGradient>
    <linearGradient
       id="linearGradient2016"
       spreadMethod="pad"
       gradientTransform="matrix(5.9308405,-6.9829082,-6.9829082,-5.9308405,291.02152,1685.1633)"
       gradientUnits="userSpaceOnUse"
       y2="0"
       x2="1"
       y1="0"
       x1="0">
      <stop
         id="stop2012"
         offset="0"
         style="stop-opacity:1;stop-color:#ffd440" />
      <stop
         id="stop2014"
         offset="1"
         style="stop-opacity:1;stop-color:#ff9200" />
    </linearGradient>
    <linearGradient
       id="linearGradient2036"
       spreadMethod="pad"
       gradientTransform="matrix(8.0055895,9.46418,9.46418,-8.0055895,289.31009,1652.4304)"
       gradientUnits="userSpaceOnUse"
       y2="0"
       x2="1"
       y1="0"
       x1="0">
      <stop
         id="stop2032"
         offset="0"
         style="stop-opacity:1;stop-color:#ff151f" />
      <stop
         id="stop2034"
         offset="1"
         style="stop-opacity:1;stop-color:#c9191f" />
    </linearGradient>
    <linearGradient
       id="linearGradient2056"
       spreadMethod="pad"
       gradientTransform="matrix(6.9945641,-5.916584,-5.916584,-6.9945641,289.8158,1660.1208)"
       gradientUnits="userSpaceOnUse"
       y2="0"
       x2="1"
       y1="0"
       x1="0">
      <stop
         id="stop2052"
         offset="0"
         style="stop-opacity:1;stop-color:#ffd440" />
      <stop
         id="stop2054"
         offset="1"
         style="stop-opacity:1;stop-color:#ff9200" />
    </linearGradient>
    <linearGradient
       id="linearGradient2076"
       spreadMethod="pad"
       gradientTransform="matrix(6.1850486,10.743191,10.743191,-6.1850486,293.58713,1627.0115)"
       gradientUnits="userSpaceOnUse"
       y2="0"
       x2="1"
       y1="0"
       x1="0">
      <stop
         id="stop2072"
         offset="0"
         style="stop-opacity:1;stop-color:#ff151f" />
      <stop
         id="stop2074"
         offset="1"
         style="stop-opacity:1;stop-color:#c9191f" />
    </linearGradient>
    <linearGradient
       id="linearGradient2096"
       spreadMethod="pad"
       gradientTransform="matrix(7.9397388,-4.5710506,-4.5710506,-7.9397388,292.70991,1634.6691)"
       gradientUnits="userSpaceOnUse"
       y2="0"
       x2="1"
       y1="0"
       x1="0">
      <stop
         id="stop2092"
         offset="0"
         style="stop-opacity:1;stop-color:#ffd440" />
      <stop
         id="stop2094"
         offset="1"
         style="stop-opacity:1;stop-color:#ff9200" />
    </linearGradient>
    <clipPath
       id="clipPath1206"
       clipPathUnits="userSpaceOnUse">
      <path
         inkscape:connector-curvature="0"
         id="path1204"
         d="m 631.591,1203.37 116.653,0 0,-92.56 -116.653,0 z" />
    </clipPath>
    <clipPath
       id="clipPath1210"
       clipPathUnits="userSpaceOnUse">
      <path
         inkscape:connector-curvature="0"
         id="path1208"
         d="m 747.295,1159.076 -0.395,0 c -0.29,1.444 -1.027,2.476 -1.899,2.476 -0.058,0 -0.113,-0.023 -0.17,-0.032 -2.737,23.478 -26.978,41.845 -56.487,41.845 -31.344,0 -56.753,-20.719 -56.753,-46.278 0,-25.559 25.409,-46.278 56.753,-46.278 29.578,0 53.86,18.454 56.502,42.012 0.052,-0.01 0.102,-0.029 0.155,-0.029 0.872,0 1.609,1.032 1.899,2.476 l 0.395,0 c 0.524,0 0.949,0.852 0.949,1.904 0,1.052 -0.425,1.904 -0.949,1.904" />
    </clipPath>
    <mask
       id="mask1224"
       height="1"
       width="1"
       y="0"
       x="0"
       maskUnits="userSpaceOnUse">
      <g
         id="g1234">
        <g
           id="g1232"
           clip-path="url(#clipPath1214)">
          <g
             id="g1230">
            <g
               id="g1228">
              <path
                 inkscape:connector-curvature="0"
                 id="path1226"
                 style="fill:url(#radialGradient1222);stroke:none"
                 d="m -32768,32767 65535,0 0,-65535 -65535,0 z" />
            </g>
          </g>
        </g>
      </g>
    </mask>
    <clipPath
       id="clipPath1214"
       clipPathUnits="userSpaceOnUse">
      <path
         inkscape:connector-curvature="0"
         id="path1212"
         d="m -32768,32767 65535,0 0,-65535 -65535,0 z" />
    </clipPath>
    <radialGradient
       id="radialGradient1222"
       spreadMethod="pad"
       gradientTransform="matrix(46.116836,0,0,-34.673912,692.84668,1137.3414)"
       gradientUnits="userSpaceOnUse"
       r="1"
       cy="0"
       cx="0"
       fy="0"
       fx="0">
      <stop
         id="stop1216"
         offset="0"
         style="stop-opacity:1;stop-color:#ffffff" />
      <stop
         id="stop1218"
         offset="0.03624676"
         style="stop-opacity:1;stop-color:#ffffff" />
      <stop
         id="stop1220"
         offset="1"
         style="stop-opacity:0;stop-color:#ffffff" />
    </radialGradient>
    <radialGradient
       id="radialGradient1242"
       spreadMethod="pad"
       gradientTransform="matrix(46.116836,0,0,-34.673912,692.84668,1137.3414)"
       gradientUnits="userSpaceOnUse"
       r="1"
       cy="0"
       cx="0"
       fy="0"
       fx="0">
      <stop
         id="stop1236"
         offset="0"
         style="stop-opacity:1;stop-color:#1d1d1b" />
      <stop
         id="stop1238"
         offset="0.03624676"
         style="stop-opacity:1;stop-color:#1d1d1b" />
      <stop
         id="stop1240"
         offset="1"
         style="stop-opacity:1;stop-color:#242422" />
    </radialGradient>
    <clipPath
       id="clipPath1268"
       clipPathUnits="userSpaceOnUse">
      <path
         inkscape:connector-curvature="0"
         id="path1266"
         d="m 631.591,1203.37 116.653,0 0,-92.56 -116.653,0 z" />
    </clipPath>
    <clipPath
       id="clipPath1272"
       clipPathUnits="userSpaceOnUse">
      <path
         inkscape:connector-curvature="0"
         id="path1270"
         d="m 747.295,1159.076 -0.395,0 c -0.29,1.444 -1.027,2.476 -1.899,2.476 -0.058,0 -0.113,-0.023 -0.17,-0.032 -2.737,23.478 -26.978,41.845 -56.487,41.845 -31.344,0 -56.753,-20.719 -56.753,-46.278 0,-25.559 25.409,-46.278 56.753,-46.278 29.578,0 53.86,18.454 56.502,42.012 0.052,-0.01 0.102,-0.029 0.155,-0.029 0.872,0 1.609,1.032 1.899,2.476 l 0.395,0 c 0.524,0 0.949,0.852 0.949,1.904 0,1.052 -0.425,1.904 -0.949,1.904" />
    </clipPath>
    <mask
       id="mask1290"
       height="1"
       width="1"
       y="0"
       x="0"
       maskUnits="userSpaceOnUse">
      <g
         id="g1300">
        <g
           id="g1298"
           clip-path="url(#clipPath1276)">
          <g
             id="g1296">
            <g
               id="g1294">
              <path
                 inkscape:connector-curvature="0"
                 id="path1292"
                 style="fill:url(#linearGradient1288);stroke:none"
                 d="m -32768,32767 65535,0 0,-65535 -65535,0 z" />
            </g>
          </g>
        </g>
      </g>
    </mask>
    <clipPath
       id="clipPath1276"
       clipPathUnits="userSpaceOnUse">
      <path
         inkscape:connector-curvature="0"
         id="path1274"
         d="m -32768,32767 65535,0 0,-65535 -65535,0 z" />
    </clipPath>
    <linearGradient
       id="linearGradient1288"
       spreadMethod="pad"
       gradientTransform="matrix(0,101.90416,101.90416,0,689.91779,1110.8092)"
       gradientUnits="userSpaceOnUse"
       y2="0"
       x2="1"
       y1="0"
       x1="0">
      <stop
         id="stop1278"
         offset="0"
         style="stop-opacity:0;stop-color:#ffffff" />
      <stop
         id="stop1280"
         offset="0.400239"
         style="stop-opacity:0;stop-color:#ffffff" />
      <stop
         id="stop1282"
         offset="0.64887027"
         style="stop-opacity:0;stop-color:#ffffff" />
      <stop
         id="stop1284"
         offset="0.924934"
         style="stop-opacity:1;stop-color:#ffffff" />
      <stop
         id="stop1286"
         offset="1"
         style="stop-opacity:1;stop-color:#ffffff" />
    </linearGradient>
    <linearGradient
       y2="0"
       x2="1"
       y1="0"
       x1="0"
       spreadMethod="pad"
       gradientTransform="matrix(0,101.90416,101.90416,0,689.91779,1110.8092)"
       gradientUnits="userSpaceOnUse"
       id="linearGradient17620"
       xlink:href="#linearGradient1288"
       inkscape:collect="always" />
  </defs>
  <sodipodi:namedview
     id="base"
     pagecolor="#ffffff"
     bordercolor="#666666"
     borderopacity="1.0"
     inkscape:pageopacity="0.0"
     inkscape:pageshadow="2"
     inkscape:zoom="2.8"
     inkscape:cx="32.978335"
     inkscape:cy="140.83236"
     inkscape:document-units="px"
     inkscape:current-layer="layer1"
     showgrid="false"
     fit-margin-top="0"
     fit-margin-left="0"
     fit-margin-right="0"
     fit-margin-bottom="0"
     inkscape:window-width="1920"
     inkscape:window-height="1017"
     inkscape:window-x="0"
     inkscape:window-y="30"
     inkscape:window-maximized="1" />
  <metadata
     id="metadata7">
    <rdf:RDF>
      <cc:Work
         rdf:about="">
        <dc:format>image/svg+xml</dc:format>
        <dc:type
           rdf:resource="http://purl.org/dc/dcmitype/StillImage" />
        <dc:title></dc:title>
      </cc:Work>
    </rdf:RDF>
  </metadata>
  <g
     inkscape:label="Capa 1"
     inkscape:groupmode="layer"
     id="layer1"
     transform="translate(-160.17113,-419.16742)">
    <g
       id="g4925"
       transform="matrix(1.6,0,0,1.6,-96.102674,-400.30045)">
      <g
         transform="matrix(0.59295504,0,0,-0.59295504,187.90674,512.7922)"
         id="g674">
        <path
           inkscape:connector-curvature="0"
           id="path676"
           style="fill:#aa7764;fill-opacity:1;fill-rule:evenodd;stroke:none"
           d="M 0,0 C -59.267,0 -44.986,-78.557 0,-78.557 44.987,-78.557 59.266,0 0,0" />
      </g>
      <g
         transform="matrix(0.59295504,0,0,-0.59295504,176.68969,654.84608)"
         id="g678">
        <path
           inkscape:connector-curvature="0"
           id="path680"
           style="fill:#e8972d;fill-opacity:1;fill-rule:evenodd;stroke:none"
           d="m 0,0 c -4.135,-6.159 -9.645,-9.702 -11.021,-14.145 -2.222,-7.175 5.778,-7.183 10.484,-5.832 4.409,1.266 6.832,4.226 9.38,4.961 C 15.415,-13.12 15.584,-9.231 12.925,0 10.266,9.231 3.328,5.762 0,0" />
      </g>
      <g
         transform="matrix(0.59295504,0,0,-0.59295504,198.94981,654.84608)"
         id="g682">
        <path
           inkscape:connector-curvature="0"
           id="path684"
           style="fill:#e8972d;fill-opacity:1;fill-rule:evenodd;stroke:none"
           d="m 0,0 c 4.135,-6.159 9.643,-9.702 11.019,-14.145 2.265,-7.311 -6.168,-7.089 -10.747,-5.735 -4.337,1.283 -6.589,4.135 -9.115,4.864 -6.572,1.896 -6.741,5.785 -4.083,15.016 2.659,9.231 9.598,5.762 12.926,0" />
      </g>
      <g
         transform="matrix(0.59295504,0,0,-0.59295504,174.11679,607.67817)"
         id="g686">
        <path
           inkscape:connector-curvature="0"
           id="path688"
           style="fill:#869ab5;fill-opacity:1;fill-rule:evenodd;stroke:none"
           d="m 0,0 46.511,0 0,-84.694 -19.318,0 0,61.505 c 0,5.277 -7.873,5.309 -7.873,0 l 0,-61.505 -19.32,0 L 0,0 Z" />
      </g>
      <g
         style="fill:#deaa87;fill-opacity:1"
         transform="matrix(0.59295504,0,0,-0.59295504,180.572,574.34746)"
         id="g690">
        <path
           inkscape:connector-curvature="0"
           id="path692"
           style="fill:#deaa87;fill-opacity:1;fill-rule:evenodd;stroke:none"
           d="m 0,0 -11.314,-35.615 c -1.441,-4.536 -6.333,-7.069 -10.869,-5.627 -4.538,1.44 -7.07,6.331 -5.629,10.868 L -16.498,5.24 C -13.211,15.586 3.117,9.812 0,0" />
      </g>
      <g
         style="fill:#deaa87;fill-opacity:1"
         transform="matrix(0.59295504,0,0,-0.59295504,195.35087,574.34746)"
         id="g706">
        <path
           inkscape:connector-curvature="0"
           id="path708"
           style="fill:#deaa87;fill-opacity:1;fill-rule:evenodd;stroke:none"
           d="m 0,0 11.312,-35.615 c 1.443,-4.536 6.333,-7.069 10.871,-5.627 4.536,1.44 7.068,6.331 5.627,10.868 L 16.496,5.24 C 13.209,15.586 -3.117,9.812 0,0" />
      </g>
      <g
         style="fill:#deaa87;fill-opacity:1"
         transform="matrix(0.59295504,0,0,-0.59295504,205.19067,611.62144)"
         id="g710">
        <path
           inkscape:connector-curvature="0"
           id="path712"
           style="fill:#deaa87;fill-opacity:1;fill-rule:evenodd;stroke:none"
           d="m 0,0 0,0 c -1.149,-0.141 -1.972,-1.197 -1.831,-2.346 l 0.627,-5.067 c 0.141,-1.148 1.197,-1.972 2.346,-1.83 1.148,0.141 1.972,1.197 1.83,2.345 L 2.346,-1.831 C 2.205,-0.682 1.149,0.141 0,0" />
      </g>
      <g
         style="fill:#deaa87;fill-opacity:1"
         transform="matrix(0.59295504,0,0,-0.59295504,204.10526,613.01239)"
         id="g714">
        <path
           inkscape:connector-curvature="0"
           id="path716"
           style="fill:#deaa87;fill-opacity:1;fill-rule:evenodd;stroke:none"
           d="M 0,0 -0.302,2.811 16.53,4.785 16.834,1.973 C 18.191,-10.448 1.553,-14.37 0,0" />
      </g>
      <g
         style="fill:#deaa87;fill-opacity:1"
         transform="matrix(0.59295504,0,0,-0.59295504,203.92595,611.3456)"
         id="g718">
        <path
           inkscape:connector-curvature="0"
           id="path720"
           style="fill:#deaa87;fill-opacity:1;fill-rule:evenodd;stroke:none"
           d="m 0,0 -3.262,26.849 c -0.574,4.723 2.944,9.022 7.676,9.532 4.733,0.512 9.022,-2.943 9.534,-7.675 L 16.833,1.974 0,0 Z" />
      </g>
      <path
         inkscape:connector-curvature="0"
         id="path722"
         style="fill:#ff6600;fill-opacity:1;fill-rule:evenodd;stroke:none"
         d="m 174.11769,567.96892 27.57774,0 0,43.48139 -27.57774,0 0,-43.48139 z" />
      <g
         style="fill:#deaa87"
         transform="matrix(0.59295504,0,0,-0.59295504,187.90674,547.47147)"
         id="g724">
        <path
           inkscape:connector-curvature="0"
           id="path726"
           style="fill:#deaa87;fill-opacity:1;fill-rule:evenodd;stroke:none"
           d="m 0,0 0,0 c 5.776,0 10.502,-4.727 10.502,-10.504 l 0,-24.065 c 0,-5.776 -4.726,-10.502 -10.502,-10.502 -5.776,0 -10.504,4.726 -10.504,10.502 l 0,24.065 C -10.504,-4.727 -5.776,0 0,0" />
      </g>
      <g
         style="fill:#d38d5f"
         transform="matrix(0.59295504,0,0,-0.59295504,194.13383,563.32513)"
         id="g728">
        <path
           inkscape:connector-curvature="0"
           id="path730"
           style="fill:#d38d5f;fill-opacity:1;fill-rule:evenodd;stroke:none"
           d="M 0,0 0,0 C 0,-9.021 -21.005,-9.021 -21.005,0 -21.005,9.021 0,9.021 0,0" />
      </g>
      <g
         style="fill:#deaa87"
         transform="matrix(0.59295504,0,0,-0.59295504,187.90674,514.27441)"
         id="g732">
        <path
           inkscape:connector-curvature="0"
           id="path734"
           style="fill:#deaa87;fill-opacity:1;fill-rule:evenodd;stroke:none"
           d="M 0,0 C -59.183,0 -44.924,-85.9 0,-85.9 44.922,-85.9 59.182,0 0,0" />
      </g>
      <g
         style="fill:#deaa87"
         transform="matrix(0.59295504,0,0,-0.59295504,163.52573,536.70163)"
         id="g736">
        <path
           inkscape:connector-curvature="0"
           id="path738"
           style="fill:#deaa87;fill-opacity:1;fill-rule:evenodd;stroke:none"
           d="M 0,0 C 2.99,0.763 6.621,-3.349 8.111,-9.185 9.6,-15.02 8.387,-20.369 5.397,-21.133 c -2.989,-0.763 -6.619,3.349 -8.11,9.184 C -4.203,-6.113 -2.988,-0.763 0,0" />
      </g>
      <g
         style="fill:#deaa87"
         transform="matrix(0.59295504,0,0,-0.59295504,212.30583,536.70163)"
         id="g740">
        <path
           inkscape:connector-curvature="0"
           id="path742"
           style="fill:#deaa87;fill-opacity:1;fill-rule:evenodd;stroke:none"
           d="m 0,0 c -2.99,0.763 -6.621,-3.349 -8.109,-9.185 -1.491,-5.835 -0.276,-11.184 2.712,-11.948 2.99,-0.763 6.621,3.349 8.11,9.184 C 4.203,-6.113 2.988,-0.763 0,0" />
      </g>
      <g
         style="fill:#1a1a1a"
         transform="matrix(0.59295504,0,0,-0.59295504,195.18639,544.65446)"
         id="g744">
        <path
           inkscape:connector-curvature="0"
           id="path746"
           style="fill:#1a1a1a;fill-opacity:1;fill-rule:evenodd;stroke:none"
           d="M 0,0 C 1.571,0 2.851,2.346 2.851,5.223 2.851,8.1 1.571,10.446 0,10.446 -1.569,10.446 -2.849,8.1 -2.849,5.223 -2.849,2.346 -1.569,0 0,0" />
      </g>
      <g
         style="fill:#1a1a1a"
         transform="matrix(0.59295504,0,0,-0.59295504,180.62608,544.65446)"
         id="g748">
        <path
           inkscape:connector-curvature="0"
           id="path750"
           style="fill:#1a1a1a;fill-opacity:1;fill-rule:evenodd;stroke:none"
           d="M 0,0 C 1.569,0 2.85,2.346 2.85,5.223 2.85,8.1 1.569,10.446 0,10.446 -1.569,10.446 -2.85,8.1 -2.85,5.223 -2.85,2.346 -1.569,0 0,0" />
      </g>
      <g
         transform="matrix(0.59295504,0,0,-0.59295504,191.32536,548.1574)"
         id="g752">
        <path
           inkscape:connector-curvature="0"
           id="path754"
           style="fill:#e0ba9b;fill-opacity:1;fill-rule:evenodd;stroke:none"
           d="M 0,0 C -2.213,-5.642 -9.319,-5.543 -11.531,0 -8.292,-3.082 -3.416,-3.225 0,0" />
      </g>
      <g
         style="fill:#1a1a1a"
         transform="matrix(0.59295504,0,0,-0.59295504,168.51248,543.35897)"
         id="g756">
        <path
           inkscape:connector-curvature="0"
           id="path758"
           style="fill:#1a1a1a;fill-opacity:1;fill-rule:evenodd;stroke:none"
           d="m 0,0 c 0.649,-6.284 -0.879,-4.505 -3.135,0.423 -2.256,4.928 -3.903,9.844 -3.507,14.711 3.806,46.989 73.672,47.565 78.669,0 C 72.537,10.277 70.777,5.351 68.52,0.423 66.264,-4.505 64.736,-6.283 65.385,0 66.173,7.63 64.999,18.61 60.962,25.073 53.819,36.508 44.498,29.872 31.861,29.872 19.227,29.872 13.302,35.029 5.051,24.474 0.05,18.076 -0.841,8.147 0,0" />
      </g>
      <g
         style="fill:#502d16"
         transform="matrix(0.59295504,0,0,-0.59295504,196.6983,553.11291)"
         id="g764">
        <path
           inkscape:connector-curvature="0"
           id="path766"
           style="fill:#502d16;fill-opacity:1;fill-rule:evenodd;stroke:none"
           d="M 0,0 C -5.112,-8.995 -23.439,-9.242 -29.655,0 -20.9,-3.459 -8.299,-3.221 0,0" />
      </g>
      <g
         transform="matrix(0.47436403,0,0,0.47436403,42.895921,387.28099)"
         style="fill:#1a1a1a"
         id="g12182">
        <g
           style="fill:#1a1a1a"
           id="g760"
           transform="matrix(1.25,0,0,-1.25,256.59947,309.07313)">
          <path
             d="M 0,0 C -4.702,49.447 83.143,48.26 78.552,0 68.375,29.494 10.176,29.494 0,0"
             style="fill:#1a1a1a;fill-opacity:1;fill-rule:evenodd;stroke:none"
             id="path762"
             inkscape:connector-curvature="0" />
        </g>
        <g
           style="fill:#1a1a1a"
           id="g768"
           transform="matrix(1.25,0,0,-1.25,328.26372,315.00488)">
          <path
             d="M 0,0 C 14.857,23.076 4.853,29.406 -11.805,36.23 9.575,39.08 35.011,18.099 0,0"
             style="fill:#1a1a1a;fill-opacity:1;fill-rule:evenodd;stroke:none"
             id="path770"
             inkscape:connector-curvature="0" />
        </g>
        <g
           style="fill:#1a1a1a"
           id="g772"
           transform="matrix(1.25,0,0,-1.25,305.58572,313.18988)">
          <path
             d="M 0,0 C 22.789,17.7 15.847,25.339 3.312,34.735 26.418,33.057 43.55,9.264 0,0"
             style="fill:#1a1a1a;fill-opacity:1;fill-rule:evenodd;stroke:none"
             id="path774"
             inkscape:connector-curvature="0" />
        </g>
        <g
           style="fill:#1a1a1a"
           id="g776"
           transform="matrix(1.25,0,0,-1.25,285.25622,306.72351)">
          <path
             d="M 0,0 C 19.821,11.754 23.24,20.155 12.495,33.32 36.831,25.943 45.471,0.842 0,0"
             style="fill:#1a1a1a;fill-opacity:1;fill-rule:evenodd;stroke:none"
             id="path778"
             inkscape:connector-curvature="0" />
        </g>
        <g
           style="fill:#1a1a1a"
           id="g780"
           transform="matrix(1.25,0,0,-1.25,263.8711,304.35925)">
          <path
             d="M 0,0 C 10.5,11.753 16.117,16.848 16.802,28.949 42.401,22.469 60.017,10.329 0,0"
             style="fill:#1a1a1a;fill-opacity:1;fill-rule:evenodd;stroke:none"
             id="path782"
             inkscape:connector-curvature="0" />
        </g>
      </g>
      <g
         style="fill:#668000"
         transform="matrix(0.59295504,0,0,-0.59295504,196.13814,574.20425)"
         id="g784">
        <path
           inkscape:connector-curvature="0"
           id="path786"
           style="fill:#668000;fill-opacity:1;fill-rule:evenodd;stroke:none"
           d="M 0,0 6.3,-21.835 23.008,-17.301 16.63,4.8 C 13.621,15.23 -2.856,9.892 0,0" />
      </g>
      <g
         style="fill:#668000"
         transform="matrix(0.59295504,0,0,-0.59295504,179.99695,574.20425)"
         id="g788">
        <path
           inkscape:connector-curvature="0"
           id="path790"
           style="fill:#668000;fill-opacity:1;fill-rule:evenodd;stroke:none"
           d="M 0,0 -6.302,-21.835 -23.009,-17.301 -16.63,4.8 C -13.621,15.23 2.854,9.892 0,0" />
      </g>
      <g
         style="fill:#ff6600;fill-opacity:1"
         transform="matrix(0.59295504,0,0,-0.59295504,166.35336,584.46321)"
         id="g792">
        <path
           inkscape:connector-curvature="0"
           id="path794"
           style="fill:#ff6600;fill-opacity:1;fill-rule:evenodd;stroke:none"
           d="m 0,0 0.896,3.107 12.199,-3.271 0,-3.389 L 0,0 Z" />
      </g>
      <g
         transform="matrix(0.59295504,0,0,-0.59295504,170.51566,662.46206)"
         id="g796">
        <path
           inkscape:connector-curvature="0"
           id="path798"
           style="fill:#f5b158;fill-opacity:1;fill-rule:evenodd;stroke:none"
           d="m 0,0 c -0.242,-0.469 -0.442,-0.943 -0.592,-1.428 -2.23,-7.2 5.38,-7.055 10.042,-5.933 4.879,1.174 7.143,4.289 9.821,5.062 3.526,1.016 5.208,2.607 5.601,5.287 C 21.131,0.079 15.473,-2.306 9.473,-4.278 6.921,-1.451 3.233,-0.045 0,0" />
      </g>
      <g
         transform="matrix(0.59295504,0,0,-0.59295504,172.0478,660.66309)"
         id="g800">
        <path
           inkscape:connector-curvature="0"
           id="path802"
           style="fill:#f5b158;fill-opacity:1;fill-rule:nonzero;stroke:none"
           d="M 0,0 C -0.245,-0.179 -0.589,-0.126 -0.768,0.118 -0.947,0.362 -0.893,0.706 -0.65,0.885 -0.22,1.2 0.449,1.479 1.26,1.69 l -0.013,0 C 1.088,1.676 0.938,1.73 0.828,1.83 0.771,1.866 0.719,1.914 0.678,1.971 0.499,2.214 0.551,2.558 0.796,2.737 1.329,3.128 2.317,3.54 3.511,3.857 3.423,3.852 3.335,3.846 3.246,3.838 2.945,3.811 2.679,4.033 2.652,4.335 2.625,4.635 2.847,4.902 3.147,4.929 4.008,5.008 4.761,4.922 5.425,4.719 l 0,-1.582 C 4.609,3.014 3.838,2.835 3.18,2.629 3.65,2.504 4.078,2.322 4.468,2.098 4.785,2.102 5.105,2.094 5.425,2.074 l 0,-2.24 C 5.196,0.112 4.946,0.377 4.667,0.616 4.509,0.752 4.341,0.879 4.162,0.997 2.357,0.939 0.719,0.529 0,0 M 5.425,4.719 C 5.747,4.621 6.05,4.496 6.331,4.348 L 6.413,4.355 C 8.213,4.498 10.072,4.326 11.434,3.574 11.699,3.429 11.797,3.095 11.651,2.83 11.506,2.564 11.171,2.467 10.906,2.612 10.053,3.084 8.929,3.283 7.748,3.302 8.496,2.568 9.027,1.714 9.446,0.997 9.645,0.832 9.706,0.545 9.577,0.31 9.432,0.045 9.097,-0.052 8.832,0.094 7.997,0.554 6.975,0.819 5.917,0.933 6.624,0.184 7.132,-0.658 7.53,-1.344 7.682,-1.606 7.592,-1.942 7.331,-2.093 7.068,-2.245 6.733,-2.155 6.581,-1.894 c -0.306,0.526 -0.68,1.15 -1.156,1.728 l 0,2.24 C 6.189,2.027 6.952,1.914 7.671,1.72 7.379,2.111 7.043,2.49 6.653,2.816 6.477,2.963 6.291,3.099 6.091,3.222 5.865,3.198 5.644,3.17 5.425,3.137 l 0,1.582 z" />
      </g>
      <g
         transform="matrix(0.59295504,0,0,-0.59295504,205.1217,662.42179)"
         id="g804">
        <path
           inkscape:connector-curvature="0"
           id="path806"
           style="fill:#f5b158;fill-opacity:1;fill-rule:evenodd;stroke:none"
           d="m 0,0 c 0.242,-0.468 0.442,-0.942 0.592,-1.428 2.23,-7.199 -5.448,-7.054 -10.11,-5.932 -4.879,1.174 -7.075,4.289 -9.754,5.062 -3.525,1.016 -5.207,2.607 -5.598,5.287 3.739,-2.909 9.397,-5.294 15.397,-7.266 C -6.921,-1.45 -3.232,-0.045 0,0" />
      </g>
      <g
         transform="matrix(0.59295504,0,0,-0.59295504,200.37261,657.82385)"
         id="g808">
        <path
           inkscape:connector-curvature="0"
           id="path810"
           style="fill:#f5b158;fill-opacity:1;fill-rule:nonzero;stroke:none"
           d="m 0,0 c -0.322,-0.098 -0.623,-0.225 -0.905,-0.371 l -0.083,0.007 c -1.8,0.143 -3.659,-0.03 -5.021,-0.781 -0.265,-0.146 -0.361,-0.48 -0.216,-0.746 0.145,-0.264 0.479,-0.362 0.744,-0.216 0.856,0.471 1.977,0.67 3.158,0.689 -0.746,-0.734 -1.279,-1.587 -1.698,-2.305 -0.198,-0.164 -0.257,-0.452 -0.13,-0.686 0.146,-0.266 0.479,-0.362 0.746,-0.217 0.834,0.46 1.855,0.724 2.913,0.841 -0.705,-0.75 -1.213,-1.593 -1.612,-2.278 -0.152,-0.262 -0.063,-0.598 0.2,-0.75 0.261,-0.151 0.598,-0.062 0.748,0.2 0.306,0.525 0.68,1.15 1.156,1.728 l 0,2.239 c -0.762,-0.046 -1.526,-0.159 -2.246,-0.353 0.294,0.389 0.628,0.769 1.02,1.096 0.174,0.147 0.362,0.283 0.562,0.405 C -0.44,-1.522 -0.218,-1.55 0,-1.583 L 0,0 Z m 5.427,-4.719 c 0.244,-0.179 0.587,-0.126 0.766,0.118 0.179,0.244 0.125,0.587 -0.118,0.766 -0.43,0.314 -1.099,0.594 -1.908,0.806 L 4.18,-3.03 c 0.159,-0.015 0.31,0.041 0.419,0.141 0.055,0.036 0.107,0.082 0.15,0.14 0.179,0.244 0.125,0.587 -0.118,0.766 -0.535,0.391 -1.523,0.804 -2.715,1.12 C 2.002,-0.867 2.09,-0.872 2.179,-0.881 2.48,-0.908 2.747,-0.686 2.773,-0.386 2.8,-0.084 2.579,0.182 2.278,0.209 1.417,0.289 0.664,0.202 0,0 L 0,-1.583 C 0.816,-1.705 1.587,-1.885 2.246,-2.091 1.775,-2.215 1.349,-2.397 0.959,-2.621 0.641,-2.619 0.32,-2.626 0,-2.646 l 0,-2.239 c 0.229,0.276 0.481,0.543 0.76,0.782 0.158,0.135 0.326,0.264 0.503,0.38 1.808,-0.057 3.443,-0.469 4.164,-0.996" />
      </g>
      <g
         style="fill:#ff6600"
         transform="matrix(0.66945055,0,0,-0.80825592,181.63753,567.53279)"
         id="g812">
        <path
           sodipodi:nodetypes="casccccc"
           inkscape:connector-curvature="0"
           id="path814"
           style="fill:#ff6600;fill-opacity:1;fill-rule:evenodd;stroke:none"
           d="m -9.6165393,-0.41921308 c 0,0 4.4378462,-0.22009806 6.1978256,-1.20167802 4.06181884,-2.2653671 6.0856485,-9.9462219 8.481777,-9.9347149 3.731462,0.01792 13.6807907,6.5559958 19.1996847,9.7391725 3.781621,2.18115593 4.207723,1.39722042 4.207723,1.39722042 l 1.491527,-26.91022892 -41.194597,3.291098 z" />
      </g>
      <g
         inkscape:label="Capa 1"
         id="layer1-67"
         transform="matrix(0.25247296,0,0,0.25247296,107.53529,469.1789)">
        <g
           id="g4136"
           transform="matrix(0.80334511,0,0,0.80334511,51.072488,103.38498)">
          <path
             sodipodi:nodetypes="cscssscc"
             inkscape:connector-curvature="0"
             id="path25832"
             d="m 284.86302,416.47118 c 4.16009,25.26387 16.67341,40.92985 24.7995,50.20125 20.82345,23.75834 55.44478,17.7685 86.82236,20.00435 3.06549,21.98644 -41.87475,45.19948 -77.2937,37.55184 -21.25164,-4.58864 -41.71609,-24.19495 -52.00583,-39.57214 -6.19751,-9.26168 -9.51548,-29.90472 -6.12336,-44.33409 3.62553,-15.4222 14.20458,-24.35629 14.20458,-24.35629 0,0 6.92105,-1.25646 9.59645,0.50508 z"
             style="fill:#552200;fill-opacity:1;fill-rule:evenodd;stroke:none;stroke-width:1px;stroke-linecap:butt;stroke-linejoin:miter;stroke-opacity:1" />
          <path
             inkscape:connector-curvature="0"
             id="path35284"
             style="fill:#ffcb2d;fill-opacity:1;stroke:none;stroke-width:1.33333325;stroke-opacity:1"
             d="m 394.44265,492.78569 c 10e-4,0 0,0 0,-0.0133 0.15066,-0.164 0.27733,-0.36533 0.37466,-0.604 0,-0.0133 0.0133,-0.0267 0.0147,-0.0387 0.092,-0.23467 0.15867,-0.492 0.19067,-0.772 0.001,-0.02 0.001,-0.0413 0,-0.0613 0.028,-0.28533 0.028,-0.58667 -0.016,-0.89867 0,0 0,-10e-4 0,-10e-4 -0.024,-0.16666 -0.0587,-0.32666 -0.1,-0.48133 -0.0147,-0.052 -0.032,-0.0987 -0.048,-0.148 -0.032,-0.10133 -0.064,-0.20133 -0.10267,-0.29467 -0.0227,-0.056 -0.0493,-0.10666 -0.0733,-0.15866 -0.0387,-0.0813 -0.0787,-0.16134 -0.12267,-0.23734 -0.0293,-0.0507 -0.06,-0.0987 -0.092,-0.14666 -0.0453,-0.0693 -0.092,-0.13334 -0.14133,-0.19467 -0.0347,-0.044 -0.0707,-0.0853 -0.10667,-0.12533 -0.052,-0.056 -0.10533,-0.10534 -0.16,-0.15334 -0.0387,-0.0347 -0.076,-0.0693 -0.116,-0.1 -0.0587,-0.044 -0.12,-0.0787 -0.18,-0.112 -0.04,-0.0227 -0.0773,-0.048 -0.11733,-0.0653 -0.0787,-0.036 -0.15867,-0.0587 -0.24,-0.076 -0.024,0 -0.0467,-0.0173 -0.0707,-0.0213 l 0,0 -10e-4,0 c -0.0347,-0.0213 -0.076,-0.04 -0.112,-0.06 -0.108,-0.0573 -0.22534,-0.112 -0.344,-0.16533 -0.11734,-0.0533 -0.24134,-0.10533 -0.372,-0.15467 -0.128,-0.0493 -0.25734,-0.0973 -0.396,-0.14266 -0.15334,-0.0493 -0.32,-0.096 -0.48667,-0.14134 l -0.001,0 0,0 c -0.13734,-0.0373 -0.268,-0.0773 -0.416,-0.112 -0.308,-0.072 -0.63467,-0.13733 -0.98267,-0.19466 l 0,0 0,0 c -0.13867,-0.024 -0.29333,-0.0413 -0.43733,-0.0627 l 0,0 0,0 c -0.24534,-0.036 -0.49334,-0.0693 -0.75734,-0.0987 l -10e-4,0 0,0 c -0.17733,-0.02 -0.36533,-0.0347 -0.55067,-0.052 -0.26266,-0.0227 -0.53333,-0.044 -0.81333,-0.06 l -0.001,0 0,0 c -0.19334,-0.0133 -0.38934,-0.024 -0.59067,-0.032 -0.316,-0.0147 -0.64667,-0.024 -0.98267,-0.0307 -0.184,0 -0.36133,-0.0133 -0.55066,-0.0133 -0.52667,0 -1.072,-0.001 -1.644,0.0133 -0.112,0.001 -0.23334,0.0133 -0.34534,0.0133 -0.484,0.0133 -0.98,0.032 -1.496,0.0587 -0.21733,0.0133 -0.44533,0.0253 -0.668,0.0387 -0.43866,0.0253 -0.88533,0.0547 -1.344,0.0893 -0.24533,0.0187 -0.49333,0.0387 -0.744,0.0587 -0.48666,0.0413 -0.98666,0.0867 -1.496,0.13733 -0.23333,0.0227 -0.46133,0.044 -0.7,0.068 -0.74933,0.0787 -1.51733,0.164 -2.316,0.26267 -2.61066,0.32133 -5.67733,0.7 -9.11999,0.928 0,10e-4 -0.0133,10e-4 -0.0147,10e-4 -1.14667,0.076 -2.33467,0.136 -3.56133,0.17066 -0.69734,0.02 -1.412,0.0307 -2.13467,0.0333 -0.22533,10e-4 -0.456,0 -0.684,0 -0.51333,0 -1.032,-0.0133 -1.55733,-0.0213 -0.26267,0 -0.52667,-0.0133 -0.79334,-0.0213 -0.53066,-0.0187 -1.06933,-0.0427 -1.61066,-0.072 -0.244,-0.0133 -0.48534,-0.024 -0.732,-0.04 -0.784,-0.0493 -1.576,-0.108 -2.38,-0.18533 -1.404,-0.13333 -2.83734,-0.31067 -4.3,-0.53867 -0.73067,-0.11333 -1.46934,-0.24 -2.21334,-0.38 -1.48933,-0.28133 -3.00533,-0.61733 -4.54533,-1.016 -0.724,-0.18666 -1.45467,-0.39066 -2.18933,-0.60666 -0.23734,-0.0693 -0.476,-0.14667 -0.71467,-0.22 -0.50133,-0.15334 -1.00267,-0.30934 -1.50933,-0.476 -0.28534,-0.0947 -0.572,-0.196 -0.85867,-0.29467 -0.464,-0.16 -0.92933,-0.324 -1.39733,-0.496 -0.30534,-0.11333 -0.61067,-0.22933 -0.916,-0.348 -0.46,-0.176 -0.92,-0.36 -1.38267,-0.548 -0.308,-0.12667 -0.616,-0.25333 -0.924,-0.38533 -0.47467,-0.20134 -0.952,-0.41334 -1.42933,-0.62934 -0.296,-0.13333 -0.59334,-0.26533 -0.89067,-0.404 -0.52133,-0.244 -1.044,-0.50266 -1.56933,-0.76266 -0.256,-0.12667 -0.50934,-0.248 -0.76667,-0.38 -1.55867,-0.79734 -3.12933,-1.67067 -4.71067,-2.62667 -0.25466,-0.15333 -0.512,-0.32 -0.76666,-0.47867 -0.53734,-0.33333 -1.076,-0.67066 -1.61467,-1.02266 -0.30533,-0.2 -0.612,-0.40934 -0.91867,-0.61467 -0.49333,-0.33333 -0.988,-0.67067 -1.48266,-1.02 -0.324,-0.22667 -0.648,-0.46133 -0.97067,-0.69733 -0.48533,-0.352 -0.972,-0.712 -1.45867,-1.08134 -0.32533,-0.248 -0.65066,-0.496 -0.97733,-0.75066 -0.496,-0.388 -0.99333,-0.78934 -1.49067,-1.19467 -0.31333,-0.25467 -0.62533,-0.50667 -0.93866,-0.76933 -0.54267,-0.45467 -1.08534,-0.92667 -1.62934,-1.404 -0.26666,-0.23334 -0.53333,-0.45867 -0.8,-0.69867 -0.80933,-0.72533 -1.62,-1.47067 -2.43066,-2.24667 -0.78267,-0.75066 -1.532,-1.5 -2.24934,-2.24933 -1.43466,-1.49733 -2.74266,-2.99333 -3.936,-4.48267 -0.596,-0.744 -1.164,-1.48666 -1.70533,-2.22666 -4.32667,-5.92267 -6.92267,-11.688 -8.59867,-16.96667 -0.59066,-1.86 -1.06133,-3.656 -1.46,-5.38 -0.16666,-0.724 -0.324,-1.43867 -0.46533,-2.13467 -0.36,-1.76666 -0.648,-3.44266 -0.90667,-5.00933 -0.0853,-0.52133 -0.16933,-1.032 -0.25066,-1.52933 -0.104,-0.63734 -0.20534,-1.24534 -0.30667,-1.84 -0.028,-0.16 -0.056,-0.32267 -0.084,-0.48134 -0.10933,-0.62 -0.22,-1.22533 -0.33733,-1.792 -0.17067,-0.83066 -0.35334,-1.60266 -0.56134,-2.30933 -0.11733,-0.39733 -0.244,-0.76933 -0.37866,-1.12533 -0.0293,-0.076 -0.0627,-0.14667 -0.092,-0.22134 -0.11467,-0.284 -0.236,-0.55466 -0.36534,-0.81066 -0.0307,-0.06 -0.064,-0.11733 -0.0947,-0.176 -0.144,-0.26667 -0.29866,-0.516 -0.464,-0.748 -0.0227,-0.032 -0.0453,-0.064 -0.068,-0.096 -0.19333,-0.26 -0.40133,-0.49867 -0.628,-0.71067 3.71467,-6.72666 10.92,-15.05733 10.92,-15.05733 -0.844,-0.624 -1.66933,-1.12267 -2.46933,-1.51867 -5.6,-2.77066 -9.92133,-0.484 -9.92133,-0.484 l -2.76265,16.408 c -0.58934,0.26933 -1.216,0.656 -1.86934,1.14933 0,0 -0.0133,0.0133 -0.0147,0.0133 -0.65333,0.496 -1.33066,1.1 -2.02266,1.80533 l 0,0 -10e-4,0 c -0.0133,0.0133 -0.0253,0.0267 -0.0387,0.04 -0.18134,0.18534 -0.364,0.38 -0.54667,0.57867 -0.032,0.036 -0.064,0.0693 -0.0973,0.10533 l 0,0 0,0 c -0.172,0.188 -0.34267,0.384 -0.51467,0.58267 l 0,0.001 0,0 c -0.0453,0.052 -0.0893,0.10267 -0.13466,0.156 -0.164,0.19333 -0.328,0.392 -0.492,0.596 -0.0533,0.0653 -0.10667,0.13067 -0.16,0.19733 l 0,0 0,0.001 c -0.15867,0.19867 -0.31734,0.40267 -0.476,0.612 l 0,0 c -0.0587,0.0773 -0.11734,0.15467 -0.176,0.232 l 0,10e-4 c 0,0.001 0,0 0,0 -0.15467,0.20667 -0.308,0.41467 -0.46134,0.62934 -0.064,0.0893 -0.12666,0.17866 -0.19066,0.268 -0.15067,0.21333 -0.3,0.42933 -0.45067,0.65066 l 0,0.001 0,0 c -0.0653,0.0973 -0.13067,0.196 -0.196,0.29467 -0.14667,0.22133 -0.29467,0.44267 -0.44,0.672 -10e-4,0 -10e-4,0.001 -10e-4,0.001 -10e-4,10e-4 -10e-4,10e-4 -10e-4,0 -0.068,0.10533 -0.136,0.21467 -0.20267,0.32267 -0.144,0.228 -0.288,0.45733 -0.43066,0.69333 l -0.001,0 c 0,0 0,0 0,0 -0.068,0.11067 -0.13334,0.22533 -0.2,0.33733 l 0,0 0,0 c -0.14267,0.24134 -0.28667,0.48267 -0.428,0.73067 l 0,10e-4 0,0 c -0.06,0.104 -0.11867,0.21067 -0.17734,0.316 -0.14933,0.264 -0.29733,0.528 -0.444,0.79867 -0.0253,0.0467 -0.0493,0.0947 -0.0747,0.14133 -0.32267,0.604 -0.64134,1.22667 -0.95334,1.86667 l 0,0 c 0,0 0,0.0133 -0.0133,0.016 -0.0467,0.096 -0.0947,0.18933 -0.14133,0.28533 -0.104,0.21733 -0.20667,0.44267 -0.30934,0.664 0,0 0,0 0,0.0133 -10e-4,0 0,0.0133 0,0.0133 -0.088,0.18933 -0.17733,0.37733 -0.264,0.56933 0,0 0,0 0,0 l 0,0.001 c -0.0947,0.20934 -0.18666,0.424 -0.27866,0.636 0,0 -0.001,0.001 -0.001,0 l -10e-4,0 c -0.096,0.21734 -0.192,0.43467 -0.28534,0.656 -0.088,0.208 -0.17333,0.42 -0.26,0.632 -0.096,0.23334 -0.192,0.468 -0.28666,0.70534 -0.0813,0.20666 -0.16134,0.41733 -0.24134,0.62666 l 0,0.001 -10e-4,0 c -0.0947,0.24934 -0.18933,0.49734 -0.28266,0.74934 -0.076,0.20666 -0.14934,0.416 -0.224,0.62533 -0.0933,0.26133 -0.18534,0.52267 -0.27467,0.78667 l 0,10e-4 0,0.001 c -0.072,0.20933 -0.14133,0.42 -0.21067,0.63066 -0.088,0.27067 -0.176,0.54267 -0.26266,0.81734 -0.0653,0.21066 -0.12934,0.42133 -0.19334,0.63333 l -10e-4,10e-4 0,0 c -0.084,0.28 -0.16666,0.56267 -0.248,0.84667 0,10e-4 -0.001,0 -0.001,0 0,0 0,10e-4 0,0 -0.06,0.208 -0.11866,0.41733 -0.17733,0.628 -0.0813,0.296 -0.15867,0.59333 -0.236,0.89333 l 0,0 0,0 c -0.0533,0.20533 -0.10667,0.41067 -0.15733,0.61867 l 0,0 0,0.001 c -0.0773,0.31066 -0.15067,0.624 -0.224,0.93866 l 0,0 c 0,0 -0.001,0 -0.001,0.0133 -0.0453,0.19867 -0.092,0.39733 -0.136,0.59867 -0.001,10e-4 -0.001,0 -0.001,0 l 0,0 c -0.0733,0.32933 -0.14134,0.66266 -0.20934,0.996 0,0 0,10e-4 0,0 0,0 0,0 0,0 -0.0387,0.19066 -0.0787,0.37866 -0.11466,0.56933 -0.0707,0.36267 -0.136,0.72933 -0.2,1.09733 0,0.001 0,0 0,0.0133 0,10e-4 0,0 0,0 -0.0293,0.164 -0.06,0.32667 -0.0867,0.49067 l 0,0 0,0 c -0.0733,0.44 -0.13867,0.88267 -0.20267,1.328 -0.0147,0.1 -0.0307,0.19867 -0.0453,0.29867 -0.15333,1.11066 -0.27733,2.23866 -0.36933,3.38 0,0.076 -0.0133,0.15333 -0.016,0.22933 0,0 0,0 0,0 0,0 0,0 0,0.0133 -0.0373,0.48267 -0.0707,0.96933 -0.0947,1.45733 l 0,0 0,0.001 c -0.0133,0.152 -0.0133,0.308 -0.0187,0.46134 -0.0187,0.41733 -0.0347,0.836 -0.044,1.25733 0,0.18533 0,0.37333 0,0.56 0,0.39067 -0.0133,0.78267 0,1.17733 0,0.20534 0.0133,0.41067 0.0133,0.616 0.0133,0.38 0.016,0.76 0.0307,1.14134 0.0133,0.216 0.02,0.432 0.0307,0.648 0.0187,0.37333 0.04,0.748 0.0653,1.12266 l 0,0 0,0 c 0.016,0.22534 0.0347,0.45067 0.0533,0.676 0.0293,0.37067 0.064,0.74134 0.10133,1.112 0.024,0.23067 0.0493,0.46 0.0747,0.69067 l 0,0 0,0 c 0.0427,0.37067 0.0893,0.74133 0.14,1.112 l 0,0.001 0,10e-4 c 0.0307,0.232 0.0627,0.464 0.0973,0.69733 l 0,0 0,0 c 0.056,0.37334 0.116,0.74667 0.17867,1.12134 l 0,0 0,10e-4 c 0.0387,0.23066 0.0773,0.46133 0.12,0.69333 0.0693,0.38133 0.14533,0.764 0.22266,1.14667 0.0467,0.22666 0.0907,0.45333 0.14,0.68 0.0853,0.392 0.17867,0.78533 0.27334,1.17866 0.052,0.21867 0.10133,0.436 0.15733,0.65467 l 0,0 0,0 c 0.10533,0.41867 0.22133,0.83733 0.33733,1.25467 0.0533,0.19333 0.104,0.38666 0.16,0.58 l 0,10e-4 0,0 c 0.13734,0.47466 0.28667,0.95066 0.43867,1.42666 0.044,0.13867 0.084,0.27734 0.12933,0.416 0.40667,1.23867 0.86267,2.47867 1.37067,3.72 0.0573,0.14 0.12133,0.28 0.18,0.41867 0,0 0,0 0.001,0 0,0 10e-4,0 10e-4,0 0.19733,0.47067 0.39867,0.94267 0.61067,1.41333 0.0947,0.208 0.196,0.416 0.292,0.62267 0,0 0,0 0,0 0,0 0,0 0,0 0.188,0.404 0.376,0.80667 0.576,1.20933 l 0,0 0,0.001 c 0.11733,0.23467 0.24,0.46933 0.36133,0.704 0.19333,0.37867 0.388,0.75733 0.592,1.13467 0.13467,0.25066 0.27733,0.5 0.416,0.75066 0.204,0.36267 0.408,0.72534 0.62,1.088 0.152,0.25734 0.308,0.51467 0.464,0.772 0,0 0,0 0,0 10e-4,0 10e-4,0 0,0 0.21333,0.35334 0.43067,0.70534 0.65467,1.05867 l 0,0 10e-4,0 c 0.16666,0.26267 0.33733,0.524 0.51066,0.78667 l 0,0 0,0 c 0.228,0.34666 0.46,0.69333 0.69734,1.03866 0.18266,0.26667 0.368,0.53334 0.55733,0.79867 0.24267,0.34267 0.492,0.68533 0.744,1.02667 l 0,0 c 0,0 0,0 0,0 0.196,0.26533 0.39333,0.52933 0.59467,0.79333 l 0,0 0,0 c 0.26,0.34133 0.528,0.68133 0.79866,1.02133 l 10e-4,0 c 0,0.001 0,0 0,0 0.20934,0.26267 0.41734,0.52534 0.632,0.78667 0.28,0.34133 0.56934,0.68267 0.86,1.024 l 0,0 10e-4,10e-4 c 0.22,0.25733 0.43734,0.516 0.664,0.77333 l 0,0 0,10e-4 c 0.304,0.344 0.61734,0.68667 0.93067,1.03067 0,0 0,0 0,0 0,0 0,0 0,0 0.22667,0.248 0.45067,0.49733 0.68267,0.74533 l 10e-4,0 10e-4,0 c 0.336,0.35867 0.68667,0.716 1.036,1.072 0.22667,0.232 0.448,0.46534 0.68,0.696 l 0,0 0,0 c 0.39867,0.396 0.812,0.78933 1.224,1.184 0.19867,0.18933 0.39067,0.38 0.59333,0.56933 l 0,0 0,0 c 0.62267,0.58267 1.26134,1.16267 1.92,1.73867 0.844,0.74 1.688,1.45733 2.53067,2.156 l 10e-4,0 0,10e-4 c 0.28266,0.23334 0.56266,0.452 0.844,0.68134 0.56266,0.45733 1.124,0.916 1.68533,1.35466 0.33333,0.26134 0.66667,0.508 1,0.764 0.50667,0.38667 1.01333,0.77734 1.51867,1.15067 l 0,0.001 0,0 c 0.356,0.26267 0.71066,0.512 1.06666,0.76667 10e-4,0 0,0 0,0 0,0 0,0 0,0 0.48,0.34533 0.96,0.69333 1.43867,1.02533 l 0,0 0,0 c 0.36533,0.25334 0.72933,0.49467 1.09467,0.74134 0.47066,0.31866 0.94266,0.63866 1.41333,0.94533 l 0.001,0 0,0 c 0.37067,0.24133 0.74,0.472 1.11067,0.70667 0.46266,0.292 0.924,0.58533 1.38533,0.86666 l 10e-4,0 0,0 c 0.372,0.22667 0.744,0.444 1.11467,0.66267 0,0 0,0 0,0 0,10e-4 0,10e-4 0,0 0.45733,0.26933 0.91333,0.54 1.37066,0.79867 0.37067,0.212 0.74134,0.41333 1.112,0.61733 0,0 0,0 0,0 0,0 0.001,10e-4 0,10e-4 0.45334,0.24934 0.908,0.49867 1.36,0.73734 0.372,0.196 0.74267,0.38533 1.11467,0.57466 0.452,0.23067 0.90267,0.45867 1.35333,0.67867 l 0,0 10e-4,0 c 0.368,0.18 0.73734,0.35333 1.104,0.52667 10e-4,0 0,0 0,0 l 0,0 c 0.44934,0.21066 0.89734,0.41866 1.34534,0.62 l 0,0 0,0 c 0.368,0.16533 0.73333,0.32533 1.09866,0.48266 l 0.001,0 0,0.001 c 0.448,0.19333 0.89467,0.38133 1.34134,0.56533 l 0,0 10e-4,0 c 0.36266,0.14933 0.72533,0.29467 1.088,0.43733 l 0,0 10e-4,0 c 0.44666,0.176 0.89333,0.34667 1.33866,0.51334 l 0,0 10e-4,0 c 0.35734,0.13333 0.71334,0.264 1.06934,0.39066 0.44933,0.16 0.896,0.31467 1.34266,0.464 l 10e-4,10e-4 0.001,0 c 0.35067,0.11733 0.70267,0.23466 1.05334,0.34666 0.45066,0.144 0.9,0.28134 1.348,0.416 0.344,0.10267 0.688,0.20534 1.03066,0.30267 0.452,0.12933 0.904,0.24933 1.35467,0.368 0.336,0.0893 0.672,0.17867 1.008,0.26133 l 0,0 0,0 c 0.45467,0.112 0.90533,0.216 1.35733,0.32 l 0,0 c 0,0 10e-4,0 0,10e-4 0.32667,0.0733 0.65334,0.14933 0.97867,0.21866 l 0,0 c 0,0 0,0 0,0 0.45867,0.0973 0.91467,0.18667 1.36933,0.27467 0.31734,0.0613 0.63467,0.12533 0.95067,0.18133 l 0,0 10e-4,0 c 0.46667,0.084 0.93067,0.15734 1.39467,0.23067 0.30133,0.048 0.604,0.0987 0.904,0.14267 0.48133,0.0693 0.95866,0.128 1.436,0.188 0.28,0.0333 0.56133,0.072 0.84,0.104 0.50133,0.056 1,0.1 1.49866,0.144 0.252,0.0227 0.50667,0.0507 0.75867,0.0707 l 0,0 c 0.53733,0.0413 1.072,0.072 1.60533,0.1 0.208,0.0133 0.41734,0.028 0.62534,0.0373 l 0,0 10e-4,0 c 0.63466,0.0293 1.264,0.0453 1.89333,0.056 0.10267,0 0.20667,0 0.30933,0.0133 l 0,0 c 1.47734,0.0187 2.93734,-0.0133 4.37734,-0.0867 0.108,0 0.21466,-0.016 0.32266,-0.0213 0.0133,0 0.02,0 0.0307,0 0,0 0.0133,0 0.0133,0 0.588,-0.0347 1.17334,-0.0733 1.75334,-0.12133 l 0.001,0 10e-4,0 c 0.20266,-0.0173 0.40133,-0.0413 0.60266,-0.0587 0,-0.001 0.0133,-0.001 0.0147,0 10e-4,0 0,0 0,0 0.492,-0.0453 0.98267,-0.092 1.47067,-0.14933 0.24,-0.028 0.47867,-0.0613 0.71867,-0.092 0,0 0.0133,0 0.0147,0 0,0 0,0 0.0133,0 0.44,-0.056 0.88133,-0.112 1.31733,-0.176 0.26533,-0.0387 0.52667,-0.084 0.79067,-0.12667 0.41466,-0.0653 0.82933,-0.132 1.24,-0.20533 0.272,-0.048 0.54133,-0.10267 0.812,-0.15334 0,0 0.0133,0 0.0133,0 0,0 0,0 0.0133,0 0.38933,-0.0747 0.77866,-0.14933 1.164,-0.22933 l 0,0 0,0 c 0.27866,-0.0587 0.556,-0.12133 0.832,-0.18267 l 0,0 0.001,-10e-4 c 0.37466,-0.0827 0.75066,-0.168 1.12266,-0.25733 l 0,0 0,0 c 0.28134,-0.068 0.56,-0.14 0.84,-0.212 0,0 0,0 0.0133,-10e-4 0.001,0 0,0 0,-10e-4 0.35867,-0.0907 0.716,-0.18267 1.07067,-0.27867 l 0,0 c 10e-4,0 0,0 0,0 0.28667,-0.0773 0.57067,-0.15866 0.85467,-0.24 0,-10e-4 0,-10e-4 0,0 l 10e-4,0 c 0.344,-0.0987 0.68666,-0.19733 1.02533,-0.3 l 0.001,-10e-4 0,0 c 0.28933,-0.088 0.57467,-0.17733 0.86,-0.268 0,-10e-4 0,-10e-4 0,-10e-4 10e-4,0 0,0 0,0 0.33067,-0.10534 0.66,-0.21067 0.98533,-0.32 l 10e-4,0 c 0.001,-10e-4 0,-10e-4 0,-10e-4 0.28934,-0.0973 0.57467,-0.196 0.86,-0.296 0.001,0 0,0 0,0 l 0,-10e-4 c 0.31733,-0.11067 0.63333,-0.22267 0.94667,-0.33733 l 10e-4,0 c 0,0 0,0 0,0 0.288,-0.10534 0.57333,-0.21334 0.85733,-0.32134 0.001,0 0,0 0,0 l 0,0 c 0.30667,-0.11733 0.60934,-0.236 0.912,-0.356 0.288,-0.11466 0.57467,-0.22933 0.85867,-0.348 0.001,0 0,0 0,0 0,0 0,-10e-4 0,-10e-4 0.292,-0.12 0.58133,-0.24267 0.86933,-0.36667 0.28934,-0.124 0.57734,-0.24933 0.86267,-0.37733 0.27733,-0.124 0.552,-0.24933 0.82667,-0.37733 0.28933,-0.13334 0.57866,-0.268 0.86533,-0.40534 0.26133,-0.12533 0.52133,-0.25333 0.78,-0.38133 l 10e-4,0 c 0,0 0,0 0,0 0.288,-0.14267 0.576,-0.28533 0.86,-0.43067 0,0 0,0 0,0 l 0,0 c 0.24267,-0.12533 0.48267,-0.252 0.72267,-0.37866 0.001,0 0,0 0,0 0,0 0.0133,0 0.0133,0 0.29067,-0.15334 0.58134,-0.30667 0.868,-0.464 0.22667,-0.124 0.45067,-0.25067 0.676,-0.37734 0.296,-0.16666 0.59334,-0.33333 0.88534,-0.504 0.20133,-0.11733 0.39866,-0.236 0.59733,-0.35466 0,0 10e-4,-10e-4 10e-4,-10e-4 0,0 0.0133,0 0.0133,0 0.30534,-0.18266 0.61067,-0.364 0.91067,-0.54933 0,0 0.001,0 0.001,0 l 10e-4,0 c 0.17333,-0.10667 0.344,-0.21733 0.51466,-0.32533 0.32,-0.20134 0.63867,-0.40267 0.952,-0.608 0.13734,-0.0893 0.27067,-0.18134 0.40667,-0.272 0.34267,-0.228 0.684,-0.456 1.01733,-0.68667 0.0747,-0.052 0.14534,-0.104 0.22,-0.156 3.54134,-2.47733 6.61467,-5.15467 9.14667,-7.86 0,0 10e-4,0 10e-4,0 l 0,-10e-4 0,0 c 0.0133,-0.0133 0.016,-0.016 0.024,-0.024 0.304,-0.32534 0.59867,-0.652 0.888,-0.97867 0.02,-0.0227 0.0413,-0.0453 0.0613,-0.068 l 0,0 10e-4,0 c 0.28267,-0.32133 0.55467,-0.64 0.82,-0.96 10e-4,0 0,0 0,0 l 0,0 c 0.0227,-0.028 0.0467,-0.056 0.0693,-0.0827 0.26134,-0.316 0.51334,-0.63066 0.76,-0.94533 0,0 10e-4,0 10e-4,0 0,0 0.001,0 0.001,0 0.024,-0.0307 0.0493,-0.0627 0.0733,-0.0933 0.244,-0.31334 0.47867,-0.62667 0.708,-0.93867 0.024,-0.0333 0.048,-0.0653 0.072,-0.0987 0.22534,-0.31066 0.44267,-0.62133 0.65334,-0.93066 10e-4,0 0,0 0,0 l 10e-4,0 c 0.02,-0.0293 0.04,-0.0587 0.0587,-0.088 l 0,0 c 0,0 0,0 0,0 0.21066,-0.312 0.412,-0.62134 0.60533,-0.92934 l 0,0 c 0.001,-0.001 0.001,-0.001 0.001,-0.001 0.0173,-0.028 0.0347,-0.0547 0.0507,-0.0827 l 10e-4,0 c 0,0 0.001,0 0.001,0 0.19466,-0.31066 0.37866,-0.61999 0.556,-0.92666 l 0,0 0,-10e-4 c 0.0147,-0.0253 0.0293,-0.0507 0.044,-0.076 0.17733,-0.31067 0.34666,-0.62 0.508,-0.92667 l 0,0 0,0 c 0.0133,-0.0213 0.0213,-0.0427 0.032,-0.0627 0.16133,-0.31066 0.31333,-0.61866 0.45733,-0.924 l 0,0 0,-10e-4 c 0.0133,-0.016 0.0147,-0.032 0.0227,-0.048 l 0,-0.001 0,0 c 0.14533,-0.31066 0.28,-0.61733 0.40666,-0.92266 l 0,0 0,0 c 0,-0.0133 0,-0.016 0.0133,-0.024 l 0,0 c 10e-4,-10e-4 10e-4,0 0,0 0.0933,-0.22934 0.188,-0.45867 0.27066,-0.684 0.2,-0.0667 0.37867,-0.18534 0.53334,-0.352" />
          <path
             sodipodi:nodetypes="ccccc"
             inkscape:connector-curvature="0"
             id="path25242"
             d="m 281.04852,398.36769 c 3.51586,-2.41666 11.66013,-0.73653 14.4428,2.8708 -6.218,5.59334 -11.68547,15.04707 -11.68547,15.04707 l -5.10293,-0.7276 c 0,0 1.46906,-11.2572 2.3456,-17.19027 z"
             style="fill:#552200;fill-rule:evenodd;stroke:none;stroke-width:0.75px;stroke-linecap:butt;stroke-linejoin:miter;stroke-opacity:1" />
        </g>
      </g>
      <g
         style="fill:#deaa87;fill-opacity:1"
         transform="matrix(-0.08180568,-0.58728486,-0.58728486,0.08180568,184.47567,590.17635)"
         id="g702">
        <path
           inkscape:connector-curvature="0"
           id="path704"
           style="fill:#deaa87;fill-opacity:1;fill-rule:evenodd;stroke:none"
           d="m 0,0 3.262,26.849 c 0.573,4.723 -2.943,9.022 -7.676,9.532 -4.733,0.512 -9.024,-2.943 -9.534,-7.674 L -16.834,1.974 0,0 Z" />
      </g>
      <g
         style="fill:#ff6600;fill-opacity:1"
         transform="matrix(0.59295504,0,0,-0.59295504,209.78067,584.46321)"
         id="g828">
        <path
           inkscape:connector-curvature="0"
           id="path830"
           style="fill:#ff6600;fill-opacity:1;fill-rule:evenodd;stroke:none"
           d="m 0,0 -0.897,3.107 -12.738,-3.418 0,-3.389 L 0,0 Z" />
      </g>
      <g
         inkscape:label="Capa 1"
         id="layer1-3"
         transform="matrix(-0.01089542,0.44625104,0.44625104,0.01089542,135.07544,434.36369)">
        <g
           id="g4162"
           transform="matrix(0.52428322,0,0,0.52428322,193.25481,84.901624)">
          <path
             d="m 406.25316,130.82537 c 0,-0.50667 0,-0.76 -0.013,-1.26667 -0.1253,-15.228 12.3134,-33.469331 29.4654,-29.41333 18.3,4.51333 36.3693,10.67733 55.4093,10.93733 25.8867,0.35334 51.0533,-9.49466 75.7027,-16.149331 19.492,-5.156 46.7186,14.740001 49.2026,34.597331 0.028,0.51867 0.02,0.75867 0.028,1.288 0.1334,23.91867 -9.8013,46.888 -36.5853,46.94133 -28.26,0.17867 -56.6133,1.04667 -84.8693,0.56934 -20.2747,-0.34267 -38.7414,-6.33334 -58.2907,-10.948 -16.1627,-3.90667 -29.88,-19.76667 -30.052,-36.556"
             style="fill:#ff7f2a;fill-opacity:1;fill-rule:nonzero;stroke:none"
             id="path54164"
             inkscape:connector-curvature="0" />
          <path
             d="m 616.03496,129.80737 c 0,0 -0.128,-0.172 -0.4013,-0.51467 -0.268,-0.34666 -0.6973,-0.85466 -1.3307,-1.52666 -1.2693,-1.344 -3.4333,-3.34667 -6.7413,-5.844 -3.3133,-2.47734 -7.7813,-5.47734 -13.0413,-8.11467 -2.6187,-1.30267 -5.4574,-2.528 -8.3627,-3.268 -0.7453,-0.16933 -1.5253,-0.39067 -2.248,-0.47067 -0.7347,-0.108 -1.4733,-0.23733 -2.2387,-0.26266 -0.38,-0.0253 -0.7626,-0.0493 -1.1466,-0.0733 -0.384,-0.016 -0.7694,10e-4 -1.156,10e-4 -0.388,0.0133 -0.776,0.0133 -1.168,0.02 -0.3894,0.0307 -0.7814,0.0613 -1.176,0.092 -7.116,1.16 -13.8387,3.00133 -20.7814,4.944 -7.9373,2.028 -16.0413,3.332 -24.1586,4.38933 -7.8107,1.01867 -15.636,1.916 -23.452,2.89333 -3.7867,0.47734 -7.66,1.05467 -11.32,1.372 -3.6494,0.316 -7.0654,0.48934 -10.4587,0.45867 -6.0987,-0.29333 -12.0573,-0.74533 -18.0693,-1.864 -5.3774,-1.02667 -10.5374,-1.87867 -15.1827,-3.212 -2.3173,-0.66933 -4.5107,-1.47867 -6.5867,-2.456 -2.0786,-0.96133 -4.0946,-1.97867 -6.1386,-2.84933 -4.084,-1.75334 -8.3174,-2.84667 -12.3414,-2.30934 -3.996,0.572 -7.6266,2.23067 -10.5893,4.25734 -2.9747,2.01866 -5.332,4.37333 -7.0747,6.55866 -1.7373,2.19467 -2.9093,4.17334 -3.6213,5.58134 -0.3667,0.69866 -0.572,1.27733 -0.7507,1.648 -0.1666,0.37733 -0.2546,0.57333 -0.2546,0.57333 0,0 0.077,-0.2 0.2253,-0.58533 0.16,-0.37867 0.34,-0.97067 0.6733,-1.69067 0.6547,-1.444 1.7187,-3.52533 3.4227,-5.81733 1.6973,-2.29067 4.0187,-4.792 7.0067,-6.996 1.4826,-1.12267 3.1586,-2.10667 4.9666,-2.97867 1.8174,-0.85067 3.7974,-1.47467 5.892,-1.85333 0.532,-0.0667 1.0694,-0.13067 1.6094,-0.192 0.5386,-0.0507 1.06,-0.0267 1.596,-0.04 1.1133,-0.0133 2.1906,0.13066 3.2933,0.30666 2.1947,0.37067 4.376,1.06 6.5213,1.884 2.144,0.82667 4.2534,1.78934 6.4014,2.68 1.0693,0.436 2.1653,0.86534 3.2786,1.248 1.12,0.37734 2.2707,0.72134 3.4547,1.03467 5.1707,1.284 10.4373,2.112 15.6827,3.02133 6.1293,1.084 12.2066,1.516 18.416,1.78534 3.4,0.0427 6.7213,-0.13067 10.2906,-0.448 3.56,-0.316 7.3334,-0.89334 11.1214,-1.39334 7.616,-1.004 15.2506,-1.85066 22.868,-2.85466 3.8786,-0.51334 7.8,-1.09734 11.684,-1.752 1.944,-0.33334 3.8546,-0.67734 5.7946,-1.07334 1.9094,-0.36533 3.7787,-0.81866 5.6347,-1.28666 3.7067,-0.95867 7.2747,-2.03067 10.7067,-2.88934 3.4306,-0.86533 6.744,-1.51733 9.9826,-1.71733 0.4054,-0.0227 0.808,-0.0453 1.208,-0.0667 0.4054,0 0.8067,0 1.2067,0.0133 0.4,0.0133 0.796,0 1.1947,0.028 0.3986,0.0347 0.796,0.0693 1.1906,0.10533 0.7827,0.0467 1.584,0.204 2.372,0.34533 0.8027,0.11467 1.528,0.36 2.2747,0.556 3.064,0.90267 5.892,2.25467 8.5427,3.68 5.2933,2.876 9.744,6.05467 13.036,8.66267 3.292,2.616 5.3746,4.74933 6.6,6.144 0.608,0.704 1.0133,1.23067 1.2653,1.58933 0.2573,0.35467 0.3773,0.53334 0.3773,0.53334"
             style="fill:#ff6600;fill-opacity:1;fill-rule:nonzero;stroke:none"
             id="path54168"
             inkscape:connector-curvature="0" />
          <path
             d="m 616.03496,129.80737 c 0,0 -0.7533,-0.22133 -2.316,-0.61733 -1.5626,-0.392 -3.968,-0.90134 -7.348,-1.39867 -3.3813,-0.50133 -7.744,-0.892 -13.096,-1.19067 -2.6706,-0.14666 -5.6133,-0.324 -8.7306,-0.47866 -3.112,-0.136 -6.4427,-0.21867 -9.9414,-0.14134 -7.7066,0.176 -15.3826,1.088 -22.9813,2.344 -8.7187,1.412 -17.4307,2.864 -26.1493,4.272 -8.8054,1.384 -17.6094,2.69067 -26.4534,3.79334 -7.6293,0.784 -15.1373,1.35866 -22.804,1.52 -6.1906,-0.0453 -11.2573,-0.80934 -15.568,-2.02667 -4.316,-1.188 -8.0093,-2.67067 -11.4746,-4.08267 -3.4614,-1.41866 -6.6654,-2.82666 -9.8067,-4.00133 -1.572,-0.58 -3.124,-1.10667 -4.6653,-1.55867 -0.7654,-0.236 -1.5467,-0.43333 -2.292,-0.63066 -0.7707,-0.164 -1.54,-0.336 -2.288,-0.41067 -1.5067,-0.19333 -3.0107,-0.20667 -4.4667,-0.10933 -1.4587,0.0787 -2.8773,0.28666 -4.244,0.54266 -2.7347,0.52534 -5.2733,1.26134 -7.504,1.928 -2.228,0.67867 -4.1587,1.24534 -5.5187,1.65067 -1.364,0.38933 -2.1426,0.62 -2.1426,0.62 0,0 0.7653,-0.27067 2.1053,-0.73733 1.3333,-0.488 3.2227,-1.17867 5.4293,-1.95734 2.208,-0.776 4.728,-1.65066 7.4867,-2.33866 2.7573,-0.67867 5.7827,-1.16934 8.9573,-0.912 0.804,0.044 1.5854,0.18 2.38,0.30666 0.808,0.16934 1.596,0.32534 2.4,0.52534 1.6067,0.38266 3.2227,0.86933 4.8694,1.39066 3.288,1.06534 6.676,2.344 10.284,3.712 3.6133,1.35867 7.4986,2.71067 11.892,3.896 5.092,1.35734 10.3786,1.94267 15.644,1.93067 7.5506,-0.14 14.9333,-0.70267 22.4466,-1.48667 8.6494,-1.08933 17.264,-2.344 25.8774,-3.68933 8.5413,-1.37067 17.08,-2.75467 25.6333,-4.04933 4.1053,-0.628 8.0907,-1.15067 11.9293,-1.48534 3.8387,-0.33466 7.5307,-0.48933 11.044,-0.48533 3.5147,0.0133 6.8427,0.15467 9.972,0.404 3.12,0.264 6,0.54133 8.6747,0.784 5.3373,0.48933 9.7373,1.044 13.1307,1.67867 3.3973,0.61333 5.792,1.28666 7.3453,1.75066 1.5493,0.47734 2.2893,0.73867 2.2893,0.73867"
             style="fill:#ff6600;fill-opacity:1;fill-rule:nonzero;stroke:none"
             id="path54172"
             inkscape:connector-curvature="0" />
          <path
             d="m 616.03496,129.80737 c 0,0 -0.1053,0.18267 -0.3226,0.54533 -0.2134,0.36667 -0.5427,0.91334 -0.996,1.68134 -0.9107,1.52666 -2.2987,3.98 -4.3427,7.356 -2.0547,3.35866 -4.692,7.716 -8.2787,12.16 -1.8093,2.19466 -3.8626,4.39999 -6.3573,6.25599 -0.64,0.41734 -1.292,0.83867 -1.9533,1.26267 -0.7187,0.34933 -1.4467,0.72667 -2.1974,1.05467 -0.764,0.268 -1.5253,0.59066 -2.3293,0.816 -0.8107,0.19866 -1.616,0.47866 -2.4693,0.612 -3.3814,0.688 -7.0774,0.88533 -10.9787,0.91066 -3.904,0.028 -8.028,-0.15333 -12.248,-0.136 -1.0613,-0.0133 -2.108,0.0347 -3.1773,0.0507 -1.0494,0.0587 -2.1227,0.08 -3.1734,0.17333 -2.1693,0.14934 -4.3093,0.34934 -6.46,0.57334 -4.312,0.46666 -8.652,1.04 -12.952,1.656 -8.444,1.212 -16.88,2.504 -25.3973,3.08666 -4.1853,0.27734 -8.3147,0.30667 -12.124,0.42134 -3.8213,0.11466 -7.3187,0.18 -10.7467,0.23866 -6.2773,-0.0787 -12.4,-0.29866 -18.6026,-1.368 -5.4254,-0.98266 -10.6774,-2.63866 -15.916,-4.32 -2.4054,-0.73733 -4.652,-1.31866 -6.8187,-1.748 -2.1813,-0.44533 -4.3227,-0.78266 -6.516,-1.22533 -2.188,-0.43333 -4.4253,-0.96667 -6.672,-1.72267 -0.5627,-0.19733 -1.1213,-0.38666 -1.6827,-0.61333 -0.168,-0.064 -0.252,-0.0973 -0.42,-0.16133 -0.08,-0.032 -0.1146,-0.0413 -0.2333,-0.092 -0.083,-0.0373 -0.124,-0.056 -0.2053,-0.0933 -0.2747,-0.12533 -0.5467,-0.24933 -0.8187,-0.372 -0.272,-0.12266 -0.544,-0.244 -0.8133,-0.364 -0.2747,-0.13466 -0.556,-0.29333 -0.8307,-0.43866 -0.5493,-0.30667 -1.108,-0.55734 -1.6333,-0.896 -0.5294,-0.32533 -1.0534,-0.644 -1.5734,-0.956 -0.5133,-0.336 -1.016,-0.692 -1.5146,-1.02667 -0.504,-0.324 -0.9867,-0.68933 -1.4627,-1.05066 -0.4747,-0.364 -0.952,-0.69734 -1.4053,-1.072 -0.9027,-0.75734 -1.7947,-1.452 -2.612,-2.22134 -0.412,-0.376 -0.828,-0.72933 -1.2187,-1.10266 -0.388,-0.38134 -0.7693,-0.75467 -1.1453,-1.12 -2.9827,-2.952 -5.2734,-5.81467 -6.94,-8.312 -1.6747,-2.5 -2.6974,-4.644 -3.36,-6.11067 -0.3174,-0.74133 -0.5094,-1.332 -0.6667,-1.71867 -0.148,-0.38933 -0.2253,-0.58933 -0.2253,-0.58933 0,0 0.088,0.196 0.2546,0.57867 0.176,0.37733 0.3947,0.956 0.7454,1.67733 0.72,1.43467 1.8533,3.48933 3.564,5.90667 1.7146,2.41066 4.044,5.156 7.02,7.95466 0.3733,0.34534 0.7533,0.69867 1.1386,1.06 0.3894,0.35334 0.8,0.68534 1.208,1.04 0.8094,0.724 1.688,1.372 2.5734,2.07867 1.8,1.324 3.72,2.70267 5.7586,3.82133 0.508,0.316 1.012,0.524 1.524,0.80134 0.2574,0.128 0.5107,0.268 0.772,0.392 0.2667,0.11199 0.5334,0.22533 0.8027,0.33999 0.268,0.11334 0.5373,0.22934 0.808,0.34667 0.081,0.0347 0.1213,0.052 0.2027,0.0867 0.069,0.0253 0.104,0.0373 0.1733,0.0627 0.1587,0.0573 0.2387,0.0853 0.3973,0.14267 0.5307,0.20133 1.06,0.36667 1.5907,0.54 2.124,0.66133 4.244,1.14 6.3253,1.50533 2.0867,0.38 4.1307,0.65734 6.2414,1.048 2.1066,0.36667 4.3186,0.948 6.6773,1.65467 5.08,1.61067 10.18,3.172 15.4307,4.128 6.088,1.04667 12.096,1.23733 18.2573,1.29733 3.4227,-0.0453 6.9773,-0.12266 10.8453,-0.252 3.8814,-0.128 8.0707,-0.17733 12.1907,-0.47333 8.5947,-0.64667 17.116,-1.91733 25.6427,-3.136 4.4026,-0.62 8.8573,-1.23067 13.3293,-1.66267 2.2467,-0.21466 4.4893,-0.40266 6.6787,-0.53466 1.1146,-0.088 2.24,-0.10134 3.3466,-0.152 1.1107,-0.0133 2.212,-0.04 3.3027,-0.0227 4.36,0.0293 8.528,0.23467 12.42,0.28533 3.8907,0.0507 7.5187,-0.0693 10.8053,-0.65733 0.8347,-0.108 1.6067,-0.36 2.396,-0.52933 0.7787,-0.19734 1.5094,-0.488 2.2507,-0.72267 0.7093,-0.28933 1.384,-0.616 2.0653,-0.91467 0.6627,-0.38933 1.3147,-0.77466 1.956,-1.15733 2.464,-1.676 4.5614,-3.73066 6.42,-5.79466 3.692,-4.18267 6.4654,-8.34667 8.6227,-11.56534 2.1333,-3.248 3.6587,-5.57066 4.6293,-7.04666 0.4867,-0.736 0.844,-1.26667 1.0747,-1.62134 0.2347,-0.352 0.3493,-0.52933 0.3493,-0.52933"
             style="fill:#ff6600;fill-opacity:1;fill-rule:nonzero;stroke:none"
             id="path54176"
             inkscape:connector-curvature="0" />
          <path
             d="m 616.03496,129.80737 c 0,0 -0.7146,0.29333 -2.1746,0.928 -1.4667,0.61867 -3.6934,1.59067 -6.856,2.804 -3.1534,1.23467 -7.2614,2.688 -12.2547,4.46667 -2.5027,0.88933 -5.1773,1.90933 -8.0747,3.03866 -2.9106,1.11734 -6.0546,2.204 -9.4386,3.22134 -3.3827,1.02133 -7.0227,1.908 -10.8787,2.65733 -3.86,0.73333 -7.9427,1.308 -12.1893,1.77733 -8.8374,0.97734 -17.68,1.876 -26.536,2.696 -8.8827,0.78534 -17.7667,1.52534 -26.66,2.17334 -7.5347,0.49466 -15.064,0.93866 -22.6067,1.27466 -6.1947,0.12667 -11.2573,-0.13066 -15.6187,-0.55333 -4.3813,-0.432 -8.2973,-1.35733 -11.968,-2.46267 -3.668,-1.09866 -7.1413,-2.456 -10.524,-3.84533 -1.6933,-0.696 -3.3613,-1.4 -5.0133,-2.112 -0.832,-0.36267 -1.6373,-0.70933 -2.4747,-1.08133 -0.4093,-0.192 -0.816,-0.37867 -1.22,-0.56267 -0.4106,-0.2 -0.828,-0.42133 -1.2373,-0.624 -3.2733,-1.688 -6.3587,-3.69467 -9.1293,-5.50533 -2.772,-1.812 -5.2734,-3.41734 -7.4614,-4.66267 -2.188,-1.24533 -4.0586,-2.14667 -5.38,-2.74533 -1.332,-0.57334 -2.0946,-0.85867 -2.0946,-0.85867 0,0 0.7773,0.24533 2.136,0.74533 1.352,0.51734 3.2693,1.30134 5.4786,2.46267 2.2147,1.14667 4.7347,2.63467 7.4827,4.30133 1.3733,0.83467 2.808,1.69867 4.2907,2.552 1.4813,0.872 3.02,1.70134 4.568,2.468 0.3853,0.18 0.7706,0.376 1.1613,0.556 0.3933,0.16667 0.788,0.33734 1.184,0.51067 0.7667,0.31867 1.5693,0.64 2.356,0.96 1.5827,0.63867 3.1813,1.29733 4.792,1.92933 3.224,1.26934 6.5,2.488 10.0093,3.528 3.5107,1.044 7.2174,1.83734 11.512,2.27067 4.2867,0.404 9.3387,0.64 15.536,0.49467 7.6374,-0.328 15.2547,-0.78934 22.8827,-1.312 9.0187,-0.67867 18.032,-1.40134 27.0413,-2.184 8.968,-0.81334 17.9334,-1.64934 26.8934,-2.54667 7.7653,-0.748 15.5146,-1.94133 23.056,-3.96533 3.3973,-0.908 6.5693,-1.92 9.516,-2.90534 2.948,-1.00533 5.7346,-1.932 8.2786,-2.71466 5.096,-1.57067 9.2374,-2.836 12.4307,-3.92534 3.192,-1.08666 5.4733,-1.892 6.9653,-2.43866 1.4907,-0.55334 2.22,-0.81067 2.22,-0.81067"
             style="fill:#ff6600;fill-opacity:1;fill-rule:nonzero;stroke:none"
             id="path54180"
             inkscape:connector-curvature="0" />
          <path
             d="m 611.16776,121.69644 c -1.7453,-2.82667 -5.8106,-6.76134 -8.9333,-8.91067 -4.0893,-2.816 -8.4013,-6.08667 -12.3667,-7.82933 -7.444,-3.27067 -15.032,-6.078671 -23.452,-5.581341 -1.4266,0.0853 -3.06,0.864001 -4.436,0.720001 3.204,-0.916001 6.36,-1.600001 9.6187,-2.184001 2.0747,-0.37066 3.1427,0.22934 5.0987,0.56934 1.38,0.24 2.8266,0.0613 4.2373,0.30533 6.2973,1.08667 11.72,3.697331 16.8,6.966671 5.6707,3.64933 9.848,9.98266 13.4333,15.944"
             style="fill:#ff6600;fill-opacity:1;fill-rule:nonzero;stroke:none"
             id="path54184"
             inkscape:connector-curvature="0" />
          <path
             d="m 579.75606,167.47363 c -1.636,0.392 -2.42,2.5 -1.628,4.06134 0.692,1.364 2.4267,2.11866 3.7933,1.68133 1.3654,-0.43867 2.1307,-2.06133 1.5854,-3.548 -0.5467,-1.48533 -2.32,-2.53733 -3.7507,-2.19467"
             style="fill:#668000;fill-opacity:1;fill-rule:nonzero;stroke:none"
             id="path54188"
             inkscape:connector-curvature="0" />
          <path
             d="m 585.75176,149.20017 c 0.3507,0.83467 1.2187,1.42533 2.0134,1.36533 0.796,-0.06 1.4546,-0.772 1.548,-1.65066 0.1333,-1.24934 -0.9934,-2.55334 -2.1427,-2.45334 -1.148,0.1 -1.9173,1.55067 -1.4187,2.73867"
             style="fill:#668000;fill-opacity:1;fill-rule:nonzero;stroke:none"
             id="path54192"
             inkscape:connector-curvature="0" />
          <path
             d="m 558.80716,169.42843 c -1.0227,-0.56933 -2.34,-0.42266 -2.8987,0.304 -0.5573,0.72667 -0.3173,1.92 0.5027,2.648 0.9733,0.86534 2.6573,0.92 3.3773,0.096 0.72,-0.824 0.232,-2.372 -0.9813,-3.048"
             style="fill:#ff9955;fill-opacity:1;fill-rule:nonzero;stroke:none"
             id="path54196"
             inkscape:connector-curvature="0" />
          <path
             d="m 540.17166,141.9299 c 0.7107,-1.65866 -1.576,-3.26533 -3.9,-2.7 -2.1907,0.532 -3.148,2.71467 -1.5253,3.812 1.6226,1.09734 4.756,0.452 5.4253,-1.112"
             style="fill:#ff9955;fill-opacity:1;fill-rule:nonzero;stroke:none"
             id="path54200"
             inkscape:connector-curvature="0" />
          <path
             d="m 494.50296,131.93804 c 1.14,-1.42267 0.085,-2.42 -1.7746,-1.65467 -1.8907,0.776 -3.5267,2.93467 -2.5627,3.488 0.8653,0.49733 3.2973,-0.53467 4.3373,-1.83333"
             style="fill:#ff9955;fill-opacity:1;fill-rule:nonzero;stroke:none"
             id="path54204"
             inkscape:connector-curvature="0" />
          <path
             d="m 455.56446,145.07137 c 0.6573,0.0227 0.7533,-1.344 0.4387,-2.356 -0.3294,-1.06267 -1.4374,-1.19067 -1.796,-0.208 -0.3587,0.98133 0.6666,2.54 1.3573,2.564"
             style="fill:#ff9955;fill-opacity:1;fill-rule:nonzero;stroke:none"
             id="path54208"
             inkscape:connector-curvature="0" />
          <path
             d="m 463.23406,156.2843 c -0.9187,-0.49333 -1.3213,-0.0973 -0.8107,0.796 0.5107,0.892 1.8374,2.072 2.6507,2.34267 0.8133,0.27066 0.8907,-0.43467 0.1493,-1.39734 -0.52,-0.676 -1.344,-1.396 -1.9893,-1.74133"
             style="fill:#ff9955;fill-opacity:1;fill-rule:nonzero;stroke:none"
             id="path54212"
             inkscape:connector-curvature="0" />
          <path
             d="m 480.86766,169.82803 c -0.184,0.344 0.065,1.02934 0.5693,1.628 0.5027,0.59734 1.2387,1.06134 1.788,1.09467 0.8374,0.0493 0.968,-0.99067 0.1387,-1.89467 -0.8293,-0.90266 -2.216,-1.352 -2.496,-0.828"
             style="fill:#668000;fill-opacity:1;fill-rule:nonzero;stroke:none"
             id="path54216"
             inkscape:connector-curvature="0" />
          <path
             d="m 445.19056,139.65017 c 0.3734,-0.34667 0.5934,-1.42933 0.4547,-2.276 -0.14,-0.84533 -0.6773,-1.30267 -1.1453,-0.96 -0.468,0.34267 -0.7147,1.42667 -0.4947,2.27467 0.2213,0.84933 0.8267,1.29466 1.1853,0.96133"
             style="fill:#668000;fill-opacity:1;fill-rule:nonzero;stroke:none"
             id="path54220"
             inkscape:connector-curvature="0" />
          <path
             d="m 468.51256,126.93244 c 0.172,-0.66134 -0.2013,-1.07867 -0.8746,-1 -0.672,0.0787 -1.592,0.64933 -2.2014,1.36666 -0.9493,1.12 -0.868,2.35067 0.156,2.224 1.024,-0.128 2.6507,-1.55866 2.92,-2.59066"
             style="fill:#ff9955;fill-opacity:1;fill-rule:nonzero;stroke:none"
             id="path54224"
             inkscape:connector-curvature="0" />
          <path
             d="m 467.84236,116.21124 c 1.0493,-0.88134 1.624,-2.44667 1.0853,-3.33467 -0.5387,-0.888 -2.0347,-0.65333 -2.6413,0.50933 -0.3867,0.73734 -0.3667,1.59867 -0.036,2.108 0.3306,0.508 0.9346,0.70534 1.592,0.71734"
             style="fill:#ff9955;fill-opacity:1;fill-rule:nonzero;stroke:none"
             id="path54228"
             inkscape:connector-curvature="0" />
          <path
             d="m 522.19536,114.53284 c 1.1947,-0.392 2.4547,-1.86267 2.368,-2.788 -0.088,-0.924 -1.4093,-1.04134 -2.5106,-0.24667 -0.828,0.59867 -1.4574,1.59867 -1.448,2.3 0.013,0.70133 0.6933,1.02933 1.5906,0.73467"
             style="fill:#ff9955;fill-opacity:1;fill-rule:nonzero;stroke:none"
             id="path54232"
             inkscape:connector-curvature="0" />
          <path
             d="m 537.11286,125.72324 c 0.3533,-1.316 -1.596,-1.872 -3.0227,-0.85334 -1.2386,0.884 -1.4706,2.45067 -0.344,2.76267 1.128,0.312 3.0614,-0.76933 3.3667,-1.90933"
             style="fill:#ff9955;fill-opacity:1;fill-rule:nonzero;stroke:none"
             id="path54236"
             inkscape:connector-curvature="0" />
          <path
             d="m 560.61756,137.94897 c 0.6213,-0.90267 0.7933,-1.92667 0.3133,-2.69467 -1.7253,0.15334 -3.4587,0.30934 -5.196,0.468 -0.216,0.692 -0.4667,1.38934 -0.6627,2.11867 1.4707,0.79467 3.756,0.864 5.5454,0.108"
             style="fill:#ff9955;fill-opacity:1;fill-rule:nonzero;stroke:none"
             id="path54240"
             inkscape:connector-curvature="0" />
          <path
             d="m 437.92356,122.3351 c 0.8546,-0.22 1.7213,-1.83733 1.5426,-2.97866 -0.2093,-1.32934 -1.808,-1.28934 -2.472,0.0613 -0.6626,1.34933 -0.067,3.17333 0.9294,2.91733"
             style="fill:#ff9955;fill-opacity:1;fill-rule:nonzero;stroke:none"
             id="path54244"
             inkscape:connector-curvature="0" />
          <path
             d="m 434.89856,131.44364 c -0.3666,1.11066 -0.073,2.69733 0.5,3.59066 0.5734,0.892 1.2974,1.116 1.8587,0.732 0.34,-0.712 0.508,-1.91466 0.4187,-3.01866 -0.091,-1.10267 -0.4747,-2.05867 -1.036,-2.392 -0.6067,-0.35867 -1.404,0.0667 -1.7414,1.088"
             style="fill:#668000;fill-opacity:1;fill-rule:nonzero;stroke:none"
             id="path54248"
             inkscape:connector-curvature="0" />
          <path
             d="m 438.33886,152.5655 c 0.456,-0.04 0.5573,-0.73066 0.2427,-1.556 -0.3147,-0.82533 -0.9854,-1.692 -1.52,-1.94666 -0.6707,-0.32134 -1.0134,0.43866 -0.656,1.47733 0.3573,1.03867 1.36,2.07467 1.9333,2.02533"
             style="fill:#ff9955;fill-opacity:1;fill-rule:nonzero;stroke:none"
             id="path54252"
             inkscape:connector-curvature="0" />
          <path
             d="m 447.71896,166.8451 c 0.56,0.13867 0.8094,-0.54667 0.684,-1.26933 -0.1266,-0.72267 -0.504,-1.49467 -0.7746,-2.24267 -0.2374,-0.084 -0.4747,-0.168 -0.7107,-0.252 -0.244,0.46933 -0.516,0.984 -0.4493,1.756 0.067,0.772 0.632,1.85467 1.2506,2.008"
             style="fill:#ff9955;fill-opacity:1;fill-rule:nonzero;stroke:none"
             id="path54256"
             inkscape:connector-curvature="0" />
          <path
             d="m 584.99256,131.04764 c -0.037,-0.62667 -0.8746,-1.14134 -1.7346,-1.09734 -0.86,0.044 -1.636,0.60267 -1.8134,1.22934 -0.092,0.32666 -0.027,0.68 0.2707,0.90666 0.244,0.18534 0.616,0.264 0.984,0.272 0.676,0.0147 1.38,-0.2 1.8493,-0.57333 0.468,-0.372 0.4747,-0.24533 0.444,-0.73733"
             style="fill:#668000;fill-opacity:1;fill-rule:nonzero;stroke:none"
             id="path54260"
             inkscape:connector-curvature="0" />
          <path
             d="m 581.02286,115.9731 c -0.5747,-0.404 -1.4547,-0.48533 -1.828,0.0147 -0.256,0.34133 -0.184,0.86 0.112,1.22 0.296,0.36 0.7787,0.56933 1.252,0.62267 0.3333,0.0387 0.688,0 0.916,-0.2 0.2373,-0.20534 0.2933,-0.556 0.1867,-0.868 -0.1054,-0.31334 -0.352,-0.588 -0.6387,-0.78934"
             style="fill:#668000;fill-opacity:1;fill-rule:nonzero;stroke:none"
             id="path54264"
             inkscape:connector-curvature="0" />
          <path
             d="m 556.47276,101.68084 c -0.496,0.17733 -0.8427,0.692 -1.136,1.16133 -0.3427,0.54933 -0.7107,1.22533 -0.4707,1.7 0.232,0.45867 0.904,0.452 1.4827,0.40133 0.7746,-0.068 1.7426,-0.25733 2.1293,-1.00133 0.3947,-0.76133 -0.1307,-1.484 -0.6773,-1.90933 -0.3627,-0.28134 -0.8187,-0.53334 -1.328,-0.352"
             style="fill:#668000;fill-opacity:1;fill-rule:nonzero;stroke:none"
             id="path54268"
             inkscape:connector-curvature="0" />
          <path
             d="m 600.73966,158.7863 c -0.5627,-0.0827 -1.152,-0.0413 -1.6267,0.28667 -0.4746,0.328 -0.8066,0.98933 -0.712,1.68133 0.089,0.64933 0.532,1.208 1.0307,1.47733 0.4973,0.26934 1.0427,0.29067 1.5507,0.212 0.4226,-0.0653 0.8413,-0.20133 1.168,-0.512 0.3253,-0.31066 0.5466,-0.82133 0.4946,-1.36666 -0.1,-1.04134 -1.072,-1.656 -1.9053,-1.77867"
             style="fill:#668000;fill-opacity:1;fill-rule:nonzero;stroke:none"
             id="path54272"
             inkscape:connector-curvature="0" />
          <path
             d="m 409.92616,140.1403 c 2.8934,7.744 8.4107,14.34267 14.9747,19.256 5.6867,4.25733 12.6173,7.44267 19.844,7.44 -13.8027,-4.51867 -26.6053,-14.82666 -34.8187,-26.696"
             style="fill:#ff6600;fill-opacity:1;fill-rule:nonzero;stroke:none"
             id="path54276"
             inkscape:connector-curvature="0" />
        </g>
      </g>
      <g
         inkscape:label="Capa 1"
         id="layer1-62"
         transform="matrix(0.28389819,0,0,0.28389819,114.25921,619.77124)">
        <g
           transform="matrix(0.77741428,0,0,-0.77741428,-457.53644,907.25143)"
           id="g17269">
          <g
             transform="translate(821.39967,1009.0957)"
             id="g1176">
            <path
               inkscape:connector-curvature="0"
               id="path1178"
               style="fill:#00c70c;fill-opacity:1;fill-rule:nonzero;stroke:none"
               d="m 0,0 c 0,-25.559 25.409,-46.278 56.753,-46.278 31.343,0 56.752,20.719 56.752,46.278 0,25.559 -25.409,46.278 -56.752,46.278 C 25.409,46.278 0,25.559 0,0" />
          </g>
          <g
             transform="translate(821.39967,1009.0957)"
             id="g1180">
            <path
               inkscape:connector-curvature="0"
               id="path1182"
               style="fill:#007307;fill-opacity:1;fill-rule:nonzero;stroke:none"
               d="m 0,0 c 0,-21.983 25.409,-39.803 56.753,-39.803 31.343,0 56.752,17.82 56.752,39.803 0,21.983 -25.409,39.803 -56.752,39.803 C 25.409,39.803 0,21.983 0,0" />
          </g>
          <g
             transform="translate(821.39967,1009.0957)"
             id="g1184">
            <path
               inkscape:connector-curvature="0"
               id="path1186"
               style="fill:#00c70c;fill-opacity:1;fill-rule:nonzero;stroke:none"
               d="m 0,0 c 0,-14.41 25.409,-26.091 56.753,-26.091 31.343,0 56.752,11.681 56.752,26.091 0,14.41 -25.409,26.091 -56.752,26.091 C 25.409,26.091 0,14.41 0,0" />
          </g>
          <g
             transform="translate(821.39967,1009.0957)"
             id="g1188">
            <path
               inkscape:connector-curvature="0"
               id="path1190"
               style="fill:#007307;fill-opacity:1;fill-rule:nonzero;stroke:none"
               d="m 0,0 c 0,-6.416 25.409,-11.617 56.753,-11.617 31.343,0 56.752,5.201 56.752,11.617 0,6.416 -25.409,11.617 -56.752,11.617 C 25.409,11.617 0,6.416 0,0" />
          </g>
          <g
             transform="translate(932.77547,1008.6092)"
             id="g1192">
            <path
               inkscape:connector-curvature="0"
               id="path1194"
               style="fill:#574e39;fill-opacity:1;fill-rule:nonzero;stroke:none"
               d="m 0,0 c 0,-2.104 0.911,-3.809 2.034,-3.809 1.123,0 2.034,1.705 2.034,3.809 l 0,1.143 C 4.068,3.246 3.157,4.951 2.034,4.951 0.911,4.951 0,3.246 0,1.143 Z" />
          </g>
          <g
             transform="translate(934.91837,1009.1805)"
             id="g1196">
            <path
               inkscape:connector-curvature="0"
               id="path1198"
               style="fill:#574e39;fill-opacity:1;fill-rule:nonzero;stroke:none"
               d="m 0,0 c 0,-1.052 0.425,-1.904 0.95,-1.904 l 1.235,0 c 0.524,0 0.95,0.852 0.95,1.904 0,1.052 -0.426,1.904 -0.95,1.904 l -1.235,0 C 0.425,1.904 0,1.052 0,0" />
          </g>
          <g
             transform="translate(189.80857,-147.99145)"
             id="g1200">
            <g
               id="g1202" />
            <g
               id="g1260">
              <g
                 style="opacity:0.60000598"
                 id="g1258"
                 clip-path="url(#clipPath1206)">
                <g
                   id="g1256">
                  <g
                     id="g1254"
                     clip-path="url(#clipPath1210)">
                    <g
                       id="g1252">
                      <g
                         id="g1244" />
                      <g
                         id="g1250"
                         mask="url(#mask1224)">
                        <g
                           id="g1248">
                          <path
                             inkscape:connector-curvature="0"
                             id="path1246"
                             style="fill:url(#radialGradient1242);stroke:none"
                             d="m 747.295,1159.076 -0.395,0 c -0.29,1.444 -1.027,2.476 -1.899,2.476 -0.058,0 -0.113,-0.023 -0.17,-0.032 -2.737,23.478 -26.978,41.845 -56.487,41.845 -31.344,0 -56.753,-20.719 -56.753,-46.278 0,-25.559 25.409,-46.278 56.753,-46.278 29.578,0 53.86,18.454 56.502,42.012 0.052,-0.01 0.102,-0.029 0.155,-0.029 0.872,0 1.609,1.032 1.899,2.476 l 0.395,0 c 0.524,0 0.949,0.852 0.949,1.904 0,1.052 -0.425,1.904 -0.949,1.904" />
                        </g>
                      </g>
                    </g>
                  </g>
                </g>
              </g>
            </g>
          </g>
          <g
             transform="translate(189.80857,-147.99145)"
             id="g1262">
            <g
               id="g1264" />
            <g
               id="g1330">
              <g
                 style="opacity:0.39999402"
                 id="g1328"
                 clip-path="url(#clipPath1268)">
                <g
                   id="g1326">
                  <g
                     id="g1324"
                     clip-path="url(#clipPath1272)">
                    <g
                       id="g1322">
                      <g
                         id="g1314" />
                      <g
                         id="g1320"
                         mask="url(#mask1290)">
                        <g
                           id="g1318">
                          <path
                             inkscape:connector-curvature="0"
                             id="path1316"
                             style="fill:url(#linearGradient17620);stroke:none"
                             d="m 747.295,1159.076 -0.395,0 c -0.29,1.444 -1.027,2.476 -1.899,2.476 -0.058,0 -0.113,-0.023 -0.17,-0.032 -2.737,23.478 -26.978,41.845 -56.487,41.845 -31.344,0 -56.753,-20.719 -56.753,-46.278 0,-25.559 25.409,-46.278 56.753,-46.278 29.578,0 53.86,18.454 56.502,42.012 0.052,-0.01 0.102,-0.029 0.155,-0.029 0.872,0 1.609,1.032 1.899,2.476 l 0.395,0 c 0.524,0 0.949,0.852 0.949,1.904 0,1.052 -0.425,1.904 -0.949,1.904" />
                        </g>
                      </g>
                    </g>
                  </g>
                </g>
              </g>
            </g>
          </g>
          <g
             transform="translate(796.55867,1008.0539)"
             id="g1332">
            <path
               inkscape:connector-curvature="0"
               id="path1334"
               style="fill:#00d10c;fill-opacity:1;fill-rule:nonzero;stroke:none"
               d="m 0,0 c 0.231,-27.867 23.973,-50.392 53.238,-50.392 29.265,0 53.007,22.525 53.239,50.392 z" />
          </g>
          <g
             transform="translate(799.00687,1008.0539)"
             id="g1336">
            <path
               inkscape:connector-curvature="0"
               id="path1338"
               style="fill:#d3fccf;fill-opacity:1;fill-rule:nonzero;stroke:none"
               d="m 0,0 c 0.221,-26.062 22.871,-47.128 50.79,-47.128 27.919,0 50.57,21.066 50.79,47.128 z" />
          </g>
          <g
             transform="translate(808.55067,1008.0539)"
             id="g1340">
            <path
               inkscape:connector-curvature="0"
               id="path1342"
               style="fill:#ff0033;fill-opacity:1;fill-rule:nonzero;stroke:none"
               d="m 0,0 c 0.179,-20.911 18.573,-37.812 41.246,-37.812 22.673,0 41.067,16.901 41.246,37.812 z" />
          </g>
          <g
             transform="translate(826.40637,1001.0847)"
             id="g1344">
            <path
               inkscape:connector-curvature="0"
               id="path1346"
               style="fill:#1d1d1b;fill-opacity:1;fill-rule:nonzero;stroke:none"
               d="m 0,0 c 0,0 -4.231,-0.287 -6.314,-2.237 -2.778,-2.599 -0.821,-4.438 -0.821,-4.438 0,0 1.705,-2.075 4.483,0.524 C -0.568,-4.202 0,0 0,0" />
          </g>
          <g
             transform="translate(834.28957,992.41185)"
             id="g1348">
            <path
               inkscape:connector-curvature="0"
               id="path1350"
               style="fill:#1d1d1b;fill-opacity:1;fill-rule:nonzero;stroke:none"
               d="m 0,0 c 0,0 -4.062,-1.218 -5.662,-3.58 -2.133,-3.15 0.183,-4.51 0.183,-4.51 0,0 2.123,-1.646 4.256,1.504 C 0.377,-4.223 0,0 0,0" />
          </g>
          <g
             transform="translate(843.74957,986.78695)"
             id="g1352">
            <path
               inkscape:connector-curvature="0"
               id="path1354"
               style="fill:#1d1d1b;fill-opacity:1;fill-rule:nonzero;stroke:none"
               d="m 0,0 c 0,0 -3.262,-2.71 -3.81,-5.51 -0.73,-3.733 1.933,-4.079 1.933,-4.079 0,0 2.598,-0.684 3.328,3.05 C 1.999,-3.739 0,0 0,0" />
          </g>
          <g
             transform="translate(873.18747,1001.0847)"
             id="g1356">
            <path
               inkscape:connector-curvature="0"
               id="path1358"
               style="fill:#1d1d1b;fill-opacity:1;fill-rule:nonzero;stroke:none"
               d="m 0,0 c 0,0 4.231,-0.287 6.314,-2.237 2.778,-2.599 0.821,-4.438 0.821,-4.438 0,0 -1.705,-2.075 -4.483,0.524 C 0.568,-4.202 0,0 0,0" />
          </g>
          <g
             transform="translate(865.30437,992.41185)"
             id="g1360">
            <path
               inkscape:connector-curvature="0"
               id="path1362"
               style="fill:#1d1d1b;fill-opacity:1;fill-rule:nonzero;stroke:none"
               d="m 0,0 c 0,0 4.062,-1.218 5.661,-3.58 2.134,-3.15 -0.183,-4.51 -0.183,-4.51 0,0 -2.122,-1.646 -4.255,1.504 C -0.377,-4.223 0,0 0,0" />
          </g>
          <g
             transform="translate(855.84437,986.78695)"
             id="g1364">
            <path
               inkscape:connector-curvature="0"
               id="path1366"
               style="fill:#1d1d1b;fill-opacity:1;fill-rule:nonzero;stroke:none"
               d="M 0,0 C 0,0 3.261,-2.71 3.809,-5.51 4.54,-9.243 1.876,-9.589 1.876,-9.589 c 0,0 -2.597,-0.684 -3.328,3.05 C -2,-3.739 0,0 0,0" />
          </g>
        </g>
      </g>
      <g
         style="fill:#deaa87;fill-opacity:1"
         transform="matrix(-0.12041111,-0.58060042,-0.58060042,0.12041111,185.06334,590.11595)"
         id="g698">
        <path
           inkscape:connector-curvature="0"
           id="path700"
           style="fill:#deaa87;fill-opacity:1;fill-rule:evenodd;stroke:none"
           d="M 0,0 0.304,2.811 -16.53,4.785 -16.833,1.974 C -18.191,-10.448 -1.551,-14.37 0,0" />
      </g>
    </g>
  </g>
</svg>
