<?xml version="1.0" encoding="UTF-8" standalone="no"?>
<!-- Created with Inkscape (http://www.inkscape.org/) -->

<svg
   xmlns:osb="http://www.openswatchbook.org/uri/2009/osb"
   xmlns:dc="http://purl.org/dc/elements/1.1/"
   xmlns:cc="http://creativecommons.org/ns#"
   xmlns:rdf="http://www.w3.org/1999/02/22-rdf-syntax-ns#"
   xmlns:svg="http://www.w3.org/2000/svg"
   xmlns="http://www.w3.org/2000/svg"
   xmlns:sodipodi="http://sodipodi.sourceforge.net/DTD/sodipodi-0.dtd"
   xmlns:inkscape="http://www.inkscape.org/namespaces/inkscape"
   width="22.331839mm"
   height="65.616669mm"
   viewBox="0 0 22.331839 65.616669"
   version="1.1"
   id="svg8"
   inkscape:version="0.92.1 r"
   sodipodi:docname="francisco.svg"
   inkscape:export-filename="/home/fundacion/Documentos/linda/Megamente/img/quien-soy/ejercicio18/francisco.png"
   inkscape:export-xdpi="96"
   inkscape:export-ydpi="96">
  <defs
     id="defs2">
    <linearGradient
       osb:paint="solid"
       id="linearGradient4352">
      <stop
         id="stop4354"
         offset="0"
         style="stop-color:#000000;stop-opacity:1;" />
    </linearGradient>
  </defs>
  <sodipodi:namedview
     id="base"
     pagecolor="#ffffff"
     bordercolor="#666666"
     borderopacity="1.0"
     inkscape:pageopacity="0.0"
     inkscape:pageshadow="2"
     inkscape:zoom="1.4142136"
     inkscape:cx="-30.57294"
     inkscape:cy="108.12906"
     inkscape:document-units="mm"
     inkscape:current-layer="layer1"
     showgrid="false"
     fit-margin-top="0"
     fit-margin-left="0"
     fit-margin-right="0"
     fit-margin-bottom="0"
     inkscape:window-width="1366"
     inkscape:window-height="699"
     inkscape:window-x="0"
     inkscape:window-y="32"
     inkscape:window-maximized="1"
     showguides="true"
     inkscape:guide-bbox="true">
    <sodipodi:guide
       position="288.94159,165.35989"
       orientation="0,1"
       id="guide17251"
       inkscape:locked="false" />
  </sodipodi:namedview>
  <metadata
     id="metadata5">
    <rdf:RDF>
      <cc:Work
         rdf:about="">
        <dc:format>image/svg+xml</dc:format>
        <dc:type
           rdf:resource="http://purl.org/dc/dcmitype/StillImage" />
        <dc:title></dc:title>
      </cc:Work>
    </rdf:RDF>
  </metadata>
  <g
     inkscape:label="Capa 1"
     inkscape:groupmode="layer"
     id="layer1"
     transform="translate(320.02756,-277.01799)">
    <g
       transform="matrix(0.28222222,0,0,0.28222222,61.626357,39.0646)"
       id="layer1-6"
       inkscape:label="Capa 1" />
    <g
       transform="matrix(0.28222221,0,0,0.28222221,-56.856553,25.695869)"
       id="layer1-60"
       inkscape:label="Capa 1" />
    <g
       transform="matrix(0.13602804,0,0,0.13602804,84.550818,76.988191)"
       id="layer1-20"
       inkscape:label="Capa 1" />
    <g
       id="g530"
       transform="matrix(0.14719766,0.01728536,0.01728536,-0.14719766,-30.886184,207.63081)"
       style="fill:#fcdabe;fill-opacity:1;stroke-width:2.38027096" />
    <g
       id="g240"
       transform="matrix(0.35277778,0,0,-0.35277778,-99.533406,269.68243)"
       style="fill:#e3687f;fill-opacity:1" />
    <g
       id="g24623"
       transform="matrix(0.71154605,0,0,0.71154605,-92.313211,98.834323)"
       style="stroke-width:1.40539038">
      <ellipse
         ry="16.411064"
         rx="12.887785"
         cy="300.21411"
         cx="-304.44183"
         id="path4886"
         style="color:#000000;clip-rule:nonzero;display:inline;overflow:visible;visibility:visible;opacity:1;isolation:auto;mix-blend-mode:normal;color-interpolation:sRGB;color-interpolation-filters:linearRGB;solid-color:#000000;solid-opacity:1;fill:#004455;fill-opacity:1;fill-rule:nonzero;stroke:none;stroke-width:0.17848441;stroke-linecap:round;stroke-linejoin:round;stroke-miterlimit:4;stroke-dasharray:none;stroke-dashoffset:0;stroke-opacity:1;color-rendering:auto;image-rendering:auto;shape-rendering:auto;text-rendering:auto;enable-background:accumulate" />
      <g
         inkscape:label="Capa 1"
         id="layer1-0"
         transform="matrix(0.28222222,0,0,0.28222222,-376.10016,255.13884)"
         style="stroke-width:1.40539038">
        <g
           id="g674"
           transform="matrix(1.25,0,0,-1.25,254.26665,-15.411623)"
           style="stroke-width:1.40539038">
          <path
             d="M 0,0 C -59.267,0 -44.986,-78.557 0,-78.557 44.987,-78.557 59.266,0 0,0"
             style="fill:#aa7764;fill-opacity:1;fill-rule:evenodd;stroke:none;stroke-width:1.40539038"
             id="path676"
             inkscape:connector-curvature="0" />
        </g>
        <g
           id="g678"
           transform="matrix(1.25,0,0,-1.25,230.62015,284.05013)"
           style="stroke-width:1.40539038">
          <path
             d="m 0,0 c -4.135,-6.159 -9.645,-9.702 -11.021,-14.145 -2.222,-7.175 5.778,-7.183 10.484,-5.832 4.409,1.266 6.832,4.226 9.38,4.961 C 15.415,-13.12 15.584,-9.231 12.925,0 10.266,9.231 3.328,5.762 0,0"
             style="fill:#e8972d;fill-opacity:1;fill-rule:evenodd;stroke:none;stroke-width:1.40539038"
             id="path680"
             inkscape:connector-curvature="0" />
        </g>
        <g
           id="g682"
           transform="matrix(1.25,0,0,-1.25,277.5464,284.05013)"
           style="stroke-width:1.40539038">
          <path
             d="m 0,0 c 4.135,-6.159 9.643,-9.702 11.019,-14.145 2.265,-7.311 -6.168,-7.089 -10.747,-5.735 -4.337,1.283 -6.589,4.135 -9.115,4.864 -6.572,1.896 -6.741,5.785 -4.083,15.016 2.659,9.231 9.598,5.762 12.926,0"
             style="fill:#e8972d;fill-opacity:1;fill-rule:evenodd;stroke:none;stroke-width:1.40539038"
             id="path684"
             inkscape:connector-curvature="0" />
        </g>
        <g
           id="g686"
           transform="matrix(1.25,0,0,-1.25,225.19627,184.61613)"
           style="fill:#483737;stroke-width:1.40539038">
          <path
             d="M 0,0 H 46.511 V -84.694 H 27.193 v 61.505 c 0,5.277 -7.873,5.309 -7.873,0 V -84.694 H 0 Z"
             style="fill:#483737;fill-opacity:1;fill-rule:evenodd;stroke:none;stroke-width:1.40539038"
             id="path688"
             inkscape:connector-curvature="0" />
        </g>
        <g
           id="g690"
           transform="matrix(1.25,0,0,-1.25,238.8044,114.35213)"
           style="stroke-width:1.40539038">
          <path
             d="m 0,0 -11.314,-35.615 c -1.441,-4.536 -6.333,-7.069 -10.869,-5.627 -4.538,1.44 -7.07,6.331 -5.629,10.868 L -16.498,5.24 C -13.211,15.586 3.117,9.812 0,0"
             style="fill:#fcdabe;fill-opacity:1;fill-rule:evenodd;stroke:none;stroke-width:1.40539038"
             id="path692"
             inkscape:connector-curvature="0" />
        </g>
        <g
           id="g694"
           transform="matrix(1.25,0,0,-1.25,218.0589,192.92888)"
           style="stroke-width:1.40539038">
          <path
             d="M 0,0 V 0 C 1.149,-0.141 1.972,-1.197 1.831,-2.346 L 1.206,-7.413 c -0.143,-1.148 -1.199,-1.972 -2.346,-1.83 -1.149,0.141 -1.974,1.197 -1.83,2.345 l 0.624,5.067 C -2.204,-0.682 -1.149,0.141 0,0"
             style="fill:#fcdabe;fill-opacity:1;fill-rule:evenodd;stroke:none;stroke-width:1.40539038"
             id="path696"
             inkscape:connector-curvature="0" />
        </g>
        <g
           id="g698"
           transform="matrix(1.25,0,0,-1.25,220.34702,195.86113)"
           style="stroke-width:1.40539038">
          <path
             d="M 0,0 0.304,2.811 -16.53,4.785 -16.833,1.974 C -18.191,-10.448 -1.551,-14.37 0,0"
             style="fill:#fcdabe;fill-opacity:1;fill-rule:evenodd;stroke:none;stroke-width:1.40539038"
             id="path700"
             inkscape:connector-curvature="0" />
        </g>
        <g
           id="g702"
           transform="matrix(1.25,0,0,-1.25,220.72727,192.34738)"
           style="stroke-width:1.40539038">
          <path
             d="m 0,0 3.262,26.849 c 0.573,4.723 -2.943,9.022 -7.676,9.532 -4.733,0.512 -9.024,-2.943 -9.534,-7.674 L -16.834,1.974 Z"
             style="fill:#fcdabe;fill-opacity:1;fill-rule:evenodd;stroke:none;stroke-width:1.40539038"
             id="path704"
             inkscape:connector-curvature="0" />
        </g>
        <g
           id="g706"
           transform="matrix(1.25,0,0,-1.25,269.95952,114.35213)"
           style="stroke-width:1.40539038">
          <path
             d="m 0,0 11.312,-35.615 c 1.443,-4.536 6.333,-7.069 10.871,-5.627 4.536,1.44 7.068,6.331 5.627,10.868 L 16.496,5.24 C 13.209,15.586 -3.117,9.812 0,0"
             style="fill:#fcdabe;fill-opacity:1;fill-rule:evenodd;stroke:none;stroke-width:1.40539038"
             id="path708"
             inkscape:connector-curvature="0" />
        </g>
        <g
           id="g710"
           transform="matrix(1.25,0,0,-1.25,290.70265,192.92888)"
           style="stroke-width:1.40539038">
          <path
             d="m 0,0 v 0 c -1.149,-0.141 -1.972,-1.197 -1.831,-2.346 l 0.627,-5.067 c 0.141,-1.148 1.197,-1.972 2.346,-1.83 1.148,0.141 1.972,1.197 1.83,2.345 L 2.346,-1.831 C 2.205,-0.682 1.149,0.141 0,0"
             style="fill:#fcdabe;fill-opacity:1;fill-rule:evenodd;stroke:none;stroke-width:1.40539038"
             id="path712"
             inkscape:connector-curvature="0" />
        </g>
        <g
           id="g714"
           transform="matrix(1.25,0,0,-1.25,288.41452,195.86113)"
           style="stroke-width:1.40539038">
          <path
             d="M 0,0 -0.302,2.811 16.53,4.785 16.834,1.973 C 18.191,-10.448 1.553,-14.37 0,0"
             style="fill:#fcdabe;fill-opacity:1;fill-rule:evenodd;stroke:none;stroke-width:1.40539038"
             id="path716"
             inkscape:connector-curvature="0" />
        </g>
        <g
           id="g718"
           transform="matrix(1.25,0,0,-1.25,288.03652,192.34738)"
           style="stroke-width:1.40539038">
          <path
             d="m 0,0 -3.262,26.849 c -0.574,4.723 2.944,9.022 7.676,9.532 4.733,0.512 9.022,-2.943 9.534,-7.675 L 16.833,1.974 Z"
             style="fill:#fcdabe;fill-opacity:1;fill-rule:evenodd;stroke:none;stroke-width:1.40539038"
             id="path720"
             inkscape:connector-curvature="0" />
        </g>
        <path
           d="m 225.19815,100.90563 h 58.13625 v 91.6625 h -58.13625 z"
           style="fill:#2b0000;fill-opacity:1;fill-rule:evenodd;stroke:none;stroke-width:1.40539038"
           id="path722"
           inkscape:connector-curvature="0" />
        <g
           id="g724"
           transform="matrix(1.25,0,0,-1.25,254.26665,57.695247)"
           style="stroke-width:1.40539038">
          <path
             d="m 0,0 v 0 c 5.776,0 10.502,-4.727 10.502,-10.504 v -24.065 c 0,-5.776 -4.726,-10.502 -10.502,-10.502 -5.776,0 -10.504,4.726 -10.504,10.502 v 24.065 C -10.504,-4.727 -5.776,0 0,0"
             style="fill:#fcdabe;fill-opacity:1;fill-rule:evenodd;stroke:none;stroke-width:1.40539038"
             id="path726"
             inkscape:connector-curvature="0" />
        </g>
        <g
           id="g728"
           transform="matrix(1.25,0,0,-1.25,267.3939,91.116131)"
           style="stroke-width:1.40539038">
          <path
             d="M 0,0 V 0 C 0,-9.021 -21.005,-9.021 -21.005,0 -21.005,9.021 0,9.021 0,0"
             style="fill:#e0ba9b;fill-opacity:1;fill-rule:evenodd;stroke:none;stroke-width:1.40539038"
             id="path730"
             inkscape:connector-curvature="0" />
        </g>
        <g
           id="g732"
           transform="matrix(1.25,0,0,-1.25,254.26665,-12.287003)"
           style="stroke-width:1.40539038">
          <path
             d="M 0,0 C -59.183,0 -44.924,-85.9 0,-85.9 44.922,-85.9 59.182,0 0,0"
             style="fill:#fcdabe;fill-opacity:1;fill-rule:evenodd;stroke:none;stroke-width:1.40539038"
             id="path734"
             inkscape:connector-curvature="0" />
        </g>
        <g
           id="g736"
           transform="matrix(1.25,0,0,-1.25,202.8694,34.991507)"
           style="stroke-width:1.40539038">
          <path
             d="M 0,0 C 2.99,0.763 6.621,-3.349 8.111,-9.185 9.6,-15.02 8.387,-20.369 5.397,-21.133 c -2.989,-0.763 -6.619,3.349 -8.11,9.184 C -4.203,-6.113 -2.988,-0.763 0,0"
             style="fill:#fcdabe;fill-opacity:1;fill-rule:evenodd;stroke:none;stroke-width:1.40539038"
             id="path738"
             inkscape:connector-curvature="0" />
        </g>
        <g
           id="g740"
           transform="matrix(1.25,0,0,-1.25,305.70203,34.991507)"
           style="stroke-width:1.40539038">
          <path
             d="m 0,0 c -2.99,0.763 -6.621,-3.349 -8.109,-9.185 -1.491,-5.835 -0.276,-11.184 2.712,-11.948 2.99,-0.763 6.621,3.349 8.11,9.184 C 4.203,-6.113 2.988,-0.763 0,0"
             style="fill:#fcdabe;fill-opacity:1;fill-rule:evenodd;stroke:none;stroke-width:1.40539038"
             id="path742"
             inkscape:connector-curvature="0" />
        </g>
        <g
           id="g744"
           transform="matrix(1.25,0,0,-1.25,269.61278,51.756747)"
           style="stroke-width:1.40539038">
          <path
             d="M 0,0 C 1.571,0 2.851,2.346 2.851,5.223 2.851,8.1 1.571,10.446 0,10.446 -1.569,10.446 -2.849,8.1 -2.849,5.223 -2.849,2.346 -1.569,0 0,0"
             style="fill:#425156;fill-opacity:1;fill-rule:evenodd;stroke:none;stroke-width:1.40539038"
             id="path746"
             inkscape:connector-curvature="0" />
        </g>
        <g
           id="g748"
           transform="matrix(1.25,0,0,-1.25,238.9184,51.756747)"
           style="stroke-width:1.40539038">
          <path
             d="M 0,0 C 1.569,0 2.85,2.346 2.85,5.223 2.85,8.1 1.569,10.446 0,10.446 -1.569,10.446 -2.85,8.1 -2.85,5.223 -2.85,2.346 -1.569,0 0,0"
             style="fill:#425156;fill-opacity:1;fill-rule:evenodd;stroke:none;stroke-width:1.40539038"
             id="path750"
             inkscape:connector-curvature="0" />
        </g>
        <g
           id="g752"
           transform="matrix(1.25,0,0,-1.25,261.4734,59.141247)"
           style="stroke-width:1.40539038">
          <path
             d="M 0,0 C -2.213,-5.642 -9.319,-5.543 -11.531,0 -8.292,-3.082 -3.416,-3.225 0,0"
             style="fill:#e0ba9b;fill-opacity:1;fill-rule:evenodd;stroke:none;stroke-width:1.40539038"
             id="path754"
             inkscape:connector-curvature="0" />
        </g>
        <g
           id="g756"
           transform="matrix(1.25,0,0,-1.25,213.3819,49.025747)"
           style="stroke-width:1.40539038">
          <path
             d="m 0,0 c 0.649,-6.284 -0.879,-4.505 -3.135,0.423 -2.256,4.928 -3.903,9.844 -3.507,14.711 3.806,46.989 73.672,47.565 78.669,0 C 72.537,10.277 70.777,5.351 68.52,0.423 66.264,-4.505 64.736,-6.283 65.385,0 66.173,7.63 64.999,18.61 60.962,25.073 53.819,36.508 44.498,29.872 31.861,29.872 19.227,29.872 13.302,35.029 5.051,24.474 0.05,18.076 -0.841,8.147 0,0"
             style="fill:#aa7764;fill-opacity:1;fill-rule:evenodd;stroke:none;stroke-width:1.40539038"
             id="path758"
             inkscape:connector-curvature="0" />
        </g>
        <g
           id="g760"
           transform="matrix(1.25,0,0,-1.25,205.1709,29.073127)"
           style="stroke-width:1.40539038">
          <path
             d="M 0,0 C -4.702,49.447 83.143,48.26 78.552,0 68.375,29.494 10.176,29.494 0,0"
             style="fill:#aa7764;fill-opacity:1;fill-rule:evenodd;stroke:none;stroke-width:1.40539038"
             id="path762"
             inkscape:connector-curvature="0" />
        </g>
        <g
           id="g764"
           transform="matrix(1.25,0,0,-1.25,272.80002,69.587877)"
           style="stroke-width:1.40539038">
          <path
             d="M 0,0 C -5.112,-8.995 -23.439,-9.242 -29.655,0 -20.9,-3.459 -8.299,-3.221 0,0"
             style="fill:#bf9470;fill-opacity:1;fill-rule:evenodd;stroke:none;stroke-width:1.40539038"
             id="path766"
             inkscape:connector-curvature="0" />
        </g>
        <g
           id="g768"
           transform="matrix(1.25,0,0,-1.25,276.83515,35.004877)"
           style="stroke-width:1.40539038">
          <path
             d="M 0,0 C 14.857,23.076 4.853,29.406 -11.805,36.23 9.575,39.08 35.011,18.099 0,0"
             style="fill:#aa7764;fill-opacity:1;fill-rule:evenodd;stroke:none;stroke-width:1.40539038"
             id="path770"
             inkscape:connector-curvature="0" />
        </g>
        <g
           id="g772"
           transform="matrix(1.25,0,0,-1.25,254.15715,33.189877)"
           style="stroke-width:1.40539038">
          <path
             d="M 0,0 C 22.789,17.7 15.847,25.339 3.312,34.735 26.418,33.057 43.55,9.264 0,0"
             style="fill:#aa7764;fill-opacity:1;fill-rule:evenodd;stroke:none;stroke-width:1.40539038"
             id="path774"
             inkscape:connector-curvature="0" />
        </g>
        <g
           id="g776"
           transform="matrix(1.25,0,0,-1.25,233.82765,26.723507)"
           style="stroke-width:1.40539038">
          <path
             d="M 0,0 C 19.821,11.754 23.24,20.155 12.495,33.32 36.831,25.943 45.471,0.842 0,0"
             style="fill:#aa7764;fill-opacity:1;fill-rule:evenodd;stroke:none;stroke-width:1.40539038"
             id="path778"
             inkscape:connector-curvature="0" />
        </g>
        <g
           id="g780"
           transform="matrix(1.25,0,0,-1.25,212.44253,24.359247)"
           style="stroke-width:1.40539038">
          <path
             d="M 0,0 C 10.5,11.753 16.117,16.848 16.802,28.949 42.401,22.469 60.017,10.329 0,0"
             style="fill:#aa7764;fill-opacity:1;fill-rule:evenodd;stroke:none;stroke-width:1.40539038"
             id="path782"
             inkscape:connector-curvature="0" />
        </g>
        <g
           id="g784"
           transform="matrix(1.25,0,0,-1.25,271.61915,114.05025)"
           style="fill:#2b0000;stroke-width:1.40539038">
          <path
             d="M 0,0 6.3,-21.835 23.008,-17.301 16.63,4.8 C 13.621,15.23 -2.856,9.892 0,0"
             style="fill:#2b0000;fill-opacity:1;fill-rule:evenodd;stroke:none;stroke-width:1.40539038"
             id="path786"
             inkscape:connector-curvature="0" />
        </g>
        <g
           id="g788"
           transform="matrix(1.25,0,0,-1.25,237.59215,114.05025)"
           style="fill:#2b0000;stroke-width:1.40539038">
          <path
             d="M 0,0 -6.302,-21.835 -23.009,-17.301 -16.63,4.8 C -13.621,15.23 2.854,9.892 0,0"
             style="fill:#2b0000;fill-opacity:1;fill-rule:evenodd;stroke:none;stroke-width:1.40539038"
             id="path790"
             inkscape:connector-curvature="0" />
        </g>
        <g
           id="g792"
           transform="matrix(1.25,0,0,-1.25,208.83028,135.677)"
           style="stroke-width:1.40539038">
          <path
             d="M 0,0 0.896,3.107 13.095,-0.164 V -3.553 Z"
             style="fill:#fa7d94;fill-opacity:1;fill-rule:evenodd;stroke:none;stroke-width:1.40539038"
             id="path794"
             inkscape:connector-curvature="0" />
        </g>
        <g
           id="g796"
           transform="matrix(1.25,0,0,-1.25,217.60477,300.10526)"
           style="stroke-width:1.40539038">
          <path
             d="m 0,0 c -0.242,-0.469 -0.442,-0.943 -0.592,-1.428 -2.23,-7.2 5.38,-7.055 10.042,-5.933 4.879,1.174 7.143,4.289 9.821,5.062 3.526,1.016 5.208,2.607 5.601,5.287 C 21.131,0.079 15.473,-2.306 9.473,-4.278 6.921,-1.451 3.233,-0.045 0,0"
             style="fill:#f5b158;fill-opacity:1;fill-rule:evenodd;stroke:none;stroke-width:1.40539038"
             id="path798"
             inkscape:connector-curvature="0" />
        </g>
        <g
           id="g800"
           transform="matrix(1.25,0,0,-1.25,220.83465,296.31288)"
           style="stroke-width:1.40539038">
          <path
             d="M 0,0 C -0.245,-0.179 -0.589,-0.126 -0.768,0.118 -0.947,0.362 -0.893,0.706 -0.65,0.885 -0.22,1.2 0.449,1.479 1.26,1.69 H 1.247 C 1.088,1.676 0.938,1.73 0.828,1.83 0.771,1.866 0.719,1.914 0.678,1.971 0.499,2.214 0.551,2.558 0.796,2.737 1.329,3.128 2.317,3.54 3.511,3.857 3.423,3.852 3.335,3.846 3.246,3.838 2.945,3.811 2.679,4.033 2.652,4.335 2.625,4.635 2.847,4.902 3.147,4.929 4.008,5.008 4.761,4.922 5.425,4.719 V 3.137 C 4.609,3.014 3.838,2.835 3.18,2.629 3.65,2.504 4.078,2.322 4.468,2.098 4.785,2.102 5.105,2.094 5.425,2.074 v -2.24 C 5.196,0.112 4.946,0.377 4.667,0.616 4.509,0.752 4.341,0.879 4.162,0.997 2.357,0.939 0.719,0.529 0,0 M 5.425,4.719 C 5.747,4.621 6.05,4.496 6.331,4.348 L 6.413,4.355 C 8.213,4.498 10.072,4.326 11.434,3.574 11.699,3.429 11.797,3.095 11.651,2.83 11.506,2.564 11.171,2.467 10.906,2.612 10.053,3.084 8.929,3.283 7.748,3.302 8.496,2.568 9.027,1.714 9.446,0.997 9.645,0.832 9.706,0.545 9.577,0.31 9.432,0.045 9.097,-0.052 8.832,0.094 7.997,0.554 6.975,0.819 5.917,0.933 6.624,0.184 7.132,-0.658 7.53,-1.344 7.682,-1.606 7.592,-1.942 7.331,-2.093 7.068,-2.245 6.733,-2.155 6.581,-1.894 c -0.306,0.526 -0.68,1.15 -1.156,1.728 v 2.24 C 6.189,2.027 6.952,1.914 7.671,1.72 7.379,2.111 7.043,2.49 6.653,2.816 6.477,2.963 6.291,3.099 6.091,3.222 5.865,3.198 5.644,3.17 5.425,3.137 Z"
             style="fill:#f5b158;fill-opacity:1;fill-rule:nonzero;stroke:none;stroke-width:1.40539038"
             id="path802"
             inkscape:connector-curvature="0" />
        </g>
        <g
           id="g804"
           transform="matrix(1.25,0,0,-1.25,290.55727,300.02038)"
           style="stroke-width:1.40539038">
          <path
             d="m 0,0 c 0.242,-0.468 0.442,-0.942 0.592,-1.428 2.23,-7.199 -5.448,-7.054 -10.11,-5.932 -4.879,1.174 -7.075,4.289 -9.754,5.062 -3.525,1.016 -5.207,2.607 -5.598,5.287 3.739,-2.909 9.397,-5.294 15.397,-7.266 C -6.921,-1.45 -3.232,-0.045 0,0"
             style="fill:#f5b158;fill-opacity:1;fill-rule:evenodd;stroke:none;stroke-width:1.40539038"
             id="path806"
             inkscape:connector-curvature="0" />
        </g>
        <g
           id="g808"
           transform="matrix(1.25,0,0,-1.25,280.54578,290.32751)"
           style="stroke-width:1.40539038">
          <path
             d="m 0,0 c -0.322,-0.098 -0.623,-0.225 -0.905,-0.371 l -0.083,0.007 c -1.8,0.143 -3.659,-0.03 -5.021,-0.781 -0.265,-0.146 -0.361,-0.48 -0.216,-0.746 0.145,-0.264 0.479,-0.362 0.744,-0.216 0.856,0.471 1.977,0.67 3.158,0.689 -0.746,-0.734 -1.279,-1.587 -1.698,-2.305 -0.198,-0.164 -0.257,-0.452 -0.13,-0.686 0.146,-0.266 0.479,-0.362 0.746,-0.217 0.834,0.46 1.855,0.724 2.913,0.841 -0.705,-0.75 -1.213,-1.593 -1.612,-2.278 -0.152,-0.262 -0.063,-0.598 0.2,-0.75 0.261,-0.151 0.598,-0.062 0.748,0.2 0.306,0.525 0.68,1.15 1.156,1.728 v 2.239 c -0.762,-0.046 -1.526,-0.159 -2.246,-0.353 0.294,0.389 0.628,0.769 1.02,1.096 0.174,0.147 0.362,0.283 0.562,0.405 C -0.44,-1.522 -0.218,-1.55 0,-1.583 Z m 5.427,-4.719 c 0.244,-0.179 0.587,-0.126 0.766,0.118 0.179,0.244 0.125,0.587 -0.118,0.766 -0.43,0.314 -1.099,0.594 -1.908,0.806 L 4.18,-3.03 c 0.159,-0.015 0.31,0.041 0.419,0.141 0.055,0.036 0.107,0.082 0.15,0.14 0.179,0.244 0.125,0.587 -0.118,0.766 -0.535,0.391 -1.523,0.804 -2.715,1.12 C 2.002,-0.867 2.09,-0.872 2.179,-0.881 2.48,-0.908 2.747,-0.686 2.773,-0.386 2.8,-0.084 2.579,0.182 2.278,0.209 1.417,0.289 0.664,0.202 0,0 V -1.583 C 0.816,-1.705 1.587,-1.885 2.246,-2.091 1.775,-2.215 1.349,-2.397 0.959,-2.621 0.641,-2.619 0.32,-2.626 0,-2.646 v -2.239 c 0.229,0.276 0.481,0.543 0.76,0.782 0.158,0.135 0.326,0.264 0.503,0.38 1.808,-0.057 3.443,-0.469 4.164,-0.996"
             style="fill:#f5b158;fill-opacity:1;fill-rule:nonzero;stroke:none;stroke-width:1.40539038"
             id="path810"
             inkscape:connector-curvature="0" />
        </g>
        <g
           id="g812"
           transform="matrix(1.25,0,0,-1.25,241.13727,107.84338)"
           style="fill:#2b0000;stroke-width:1.40539038">
          <path
             d="M 0,0 10.504,-4.953 21.005,0 33.758,-25.967 -12.751,-25.82 Z"
             style="fill:#2b0000;fill-opacity:1;fill-rule:evenodd;stroke:none;stroke-width:1.40539038"
             id="path814"
             inkscape:connector-curvature="0" />
        </g>
        <g
           id="g816"
           transform="matrix(1.25,0,0,-1.25,240.35665,95.954131)"
           style="stroke-width:1.40539038">
          <path
             d="m 0,0 -3.432,-3.962 4.225,-16.635 7.13,8.449 z"
             style="fill:#fa7d94;fill-opacity:1;fill-rule:evenodd;stroke:none;stroke-width:1.40539038"
             id="path818"
             inkscape:connector-curvature="0" />
        </g>
        <g
           id="g820"
           transform="matrix(1.25,0,0,-1.25,268.41615,95.954131)"
           style="stroke-width:1.40539038">
          <path
             d="m 0,0 3.432,-3.962 -4.225,-16.635 -7.13,8.449 z"
             style="fill:#fa7d94;fill-opacity:1;fill-rule:evenodd;stroke:none;stroke-width:1.40539038"
             id="path822"
             inkscape:connector-curvature="0" />
        </g>
        <g
           id="g824"
           transform="matrix(1.25,0,0,-1.25,254.26665,114.03463)"
           style="stroke-width:1.40539038">
          <path
             d="M 0,0 -3.205,2.316 -4.203,1.134 C -3.02,0.526 -1.394,0 0,0 M 4.203,1.361 C 2.92,0.537 1.593,0 0,0 l 3.396,2.316 z"
             style="fill:#bd1837;fill-opacity:1;fill-rule:evenodd;stroke:none;stroke-width:1.40539038"
             id="path826"
             inkscape:connector-curvature="0" />
        </g>
        <g
           id="g828"
           transform="matrix(1.25,0,0,-1.25,300.37878,135.677)"
           style="stroke-width:1.40539038">
          <path
             d="M 0,0 -0.897,3.107 -13.635,-0.311 V -3.7 Z"
             style="fill:#fa7d94;fill-opacity:1;fill-rule:evenodd;stroke:none;stroke-width:1.40539038"
             id="path830"
             inkscape:connector-curvature="0" />
        </g>
      </g>
      <path
         sodipodi:nodetypes="cacssc"
         inkscape:connector-curvature="0"
         id="path4888-5"
         d="m -312.01507,283.61665 c -1.1141,-0.0446 -1.69148,3.86976 -1.78091,5.9325 -0.11708,2.7003 1.65045,7.93877 1.65045,7.93877 0,0 0.63775,-3.63831 0.93512,-5.46106 0.38879,-2.3831 1.45486,-5.90846 1.48184,-8.15619 0.004,-0.34306 -1.87624,-0.0969 -2.2865,-0.25402 z"
         style="fill:#004455;fill-opacity:1;fill-rule:evenodd;stroke:none;stroke-width:0.3966324px;stroke-linecap:butt;stroke-linejoin:miter;stroke-opacity:1" />
      <path
         sodipodi:nodetypes="cacssc"
         inkscape:connector-curvature="0"
         id="path4888-7"
         d="m -296.13689,283.61663 c 1.1141,-0.0446 1.51771,3.78454 1.57933,5.7813 0.0834,2.70155 -1.65046,7.93877 -1.65046,7.93877 0,0 -0.63775,-3.63831 -0.93512,-5.46106 -0.38879,-2.3831 -1.55565,-5.95885 -1.58263,-8.20659 -0.004,-0.34306 2.17862,0.10464 2.58888,-0.0524 z"
         style="fill:#004455;fill-opacity:1;fill-rule:evenodd;stroke:none;stroke-width:0.3966324px;stroke-linecap:butt;stroke-linejoin:miter;stroke-opacity:1" />
      <g
         style="fill:#000000;fill-opacity:1;stroke-width:1.85589802"
         inkscape:label="Capa 1"
         id="layer1-8"
         transform="matrix(0.21371456,0,0,0.21371456,-360.32427,215.46623)">
        <g
           style="fill:#000000;fill-opacity:1;stroke-width:1.85589802"
           id="g4269"
           transform="matrix(2.2087423,0,0,2.2087423,-942.60188,-911.13227)"
           inkscape:export-xdpi="90"
           inkscape:export-ydpi="90">
          <path
             id="path4224"
             transform="translate(344.8855,216.4756)"
             d="m 186.07227,299 c -3.47567,-0.007 -10.35743,1.20508 -10.35743,1.20508 0,0 -0.61665,2.09209 -0.17968,2.99023 0.20587,0.42315 1.16211,0.80469 1.16211,0.80469 0,0 0.76776,6.05734 2.67773,8.21289 1.58947,1.79383 4.12428,2.90927 6.51758,3.03711 3.02254,0.16145 6.18701,-0.70269 8.59375,-2.93555 2.68131,-2.48758 3.26953,-8.26545 5.64844,-8.49414 2.18471,-0.21002 3.9022,6.92386 6.2539,8.71485 3.05683,2.328 5.56515,2.74327 8.52149,2.53515 2.35139,-0.16553 4.89775,-1.15376 6.42968,-2.94531 1.78806,-2.09109 2.23243,-7.94727 2.23243,-7.94727 0,0 1.68906,-0.36018 1.60546,-0.98242 l -0.40039,-2.99023 c 0,0 -7.56913,-1.24658 -11.38476,-1.20508 -4.45541,0.0485 -8.80217,1.67931 -13.25781,1.69531 -4.72145,0.017 -9.34103,-1.68531 -14.0625,-1.69531 z m -0.50977,2.00977 c 3.84908,-0.0496 8.34623,0.84814 10.5293,2.5039 0.0935,1.97261 -1.28205,5.58373 -3.27149,7.40821 -1.75686,1.61115 -4.39176,2.50702 -6.76758,2.3125 -2.09474,-0.17154 -4.41811,-1.21451 -5.55468,-2.98243 -1.46117,-2.27282 -1.18714,-5.92832 -0.52539,-8.08984 1.20393,-0.75167 3.28039,-1.12256 5.58984,-1.15234 z m 29.52539,0 c 2.30945,0.0298 4.38591,0.40067 5.58984,1.15234 0.66175,2.16152 0.93774,5.81702 -0.52343,8.08984 -1.13657,1.76792 -3.45995,2.81089 -5.55469,2.98243 -2.37582,0.19453 -5.01072,-0.70135 -6.76758,-2.3125 -1.98944,-1.82447 -3.36497,-5.4356 -3.27148,-7.40821 2.18307,-1.65576 6.67826,-2.55354 10.52734,-2.5039 z"
             style="fill:#000000;fill-opacity:1;fill-rule:evenodd;stroke:none;stroke-width:0.92794901;stroke-linecap:butt;stroke-linejoin:miter;stroke-miterlimit:4;stroke-dasharray:none;stroke-opacity:1"
             inkscape:connector-curvature="0" />
        </g>
      </g>
    </g>
  </g>
</svg>
