<?xml version="1.0" encoding="UTF-8" standalone="no"?>
<!-- Created with Inkscape (http://www.inkscape.org/) -->

<svg
   xmlns:dc="http://purl.org/dc/elements/1.1/"
   xmlns:cc="http://creativecommons.org/ns#"
   xmlns:rdf="http://www.w3.org/1999/02/22-rdf-syntax-ns#"
   xmlns:svg="http://www.w3.org/2000/svg"
   xmlns="http://www.w3.org/2000/svg"
   xmlns:sodipodi="http://sodipodi.sourceforge.net/DTD/sodipodi-0.dtd"
   xmlns:inkscape="http://www.inkscape.org/namespaces/inkscape"
   id="svg2"
   version="1.1"
   inkscape:version="0.91 r13725"
   xml:space="preserve"
   width="1500"
   height="1125"
   viewBox="0 0 1500 1125"
   sodipodi:docname="bg-deduccion-sin.svg"
   inkscape:export-filename="/home/piccolina/Escritorio/fundacion/cerebro/deduccion/bg-deduccion.png"
   inkscape:export-xdpi="90"
   inkscape:export-ydpi="90"><metadata
     id="metadata8"><rdf:RDF><cc:Work
         rdf:about=""><dc:format>image/svg+xml</dc:format><dc:type
           rdf:resource="http://purl.org/dc/dcmitype/StillImage" /><dc:title></dc:title></cc:Work></rdf:RDF></metadata><defs
     id="defs6"><clipPath
       clipPathUnits="userSpaceOnUse"
       id="clipPath18"><path
         d="M 0,900 1200,900 1200,0 0,0 0,900 Z"
         id="path20"
         inkscape:connector-curvature="0" /></clipPath><clipPath
       clipPathUnits="userSpaceOnUse"
       id="clipPath74"><path
         d="m 39.2181,443.349 1121.5619,0 0,-410.4253 -1121.5619,0 0,410.4253 z"
         id="path76"
         inkscape:connector-curvature="0" /></clipPath><clipPath
       clipPathUnits="userSpaceOnUse"
       id="clipPath258"><path
         d="m 39.2181,619.513 1121.5619,0 0,-151.979 -1121.5619,0 0,151.979 z"
         id="path260"
         inkscape:connector-curvature="0" /></clipPath></defs><sodipodi:namedview
     pagecolor="#ffffff"
     bordercolor="#666666"
     borderopacity="1"
     objecttolerance="10"
     gridtolerance="10"
     guidetolerance="10"
     inkscape:pageopacity="0"
     inkscape:pageshadow="2"
     inkscape:window-width="1366"
     inkscape:window-height="710"
     id="namedview4"
     showgrid="false"
     inkscape:zoom="0.20977778"
     inkscape:cx="-208.15677"
     inkscape:cy="562.50001"
     inkscape:window-x="0"
     inkscape:window-y="25"
     inkscape:window-maximized="1"
     inkscape:current-layer="g10" /><g
     id="g10"
     inkscape:groupmode="layer"
     inkscape:label="Mega Mente"
     transform="matrix(1.25,0,0,-1.25,0,1125)"><path
       d="m 0,0 1200,0 0,900 L 0,900 0,0 Z"
       style="fill:#f4e6a5;fill-opacity:1;fill-rule:nonzero;stroke:none"
       id="path12"
       inkscape:connector-curvature="0" /><g
       id="g22"
       transform="translate(788.1694,868.2675)"><path
         d="m 0,0 c -13.523,0 -26.838,1.638 -39.888,3.244 -16.036,1.972 -32.62,4.013 -49.339,2.999 l -3.096,-0.239 c -14.373,-1.112 -27.949,-2.161 -42.539,-2.161 -14.005,0.466 -27.959,2.757 -41.455,4.972 -21.225,3.484 -43.174,7.085 -65.059,3.437 -51.568,-9.441 -102.224,-7.435 -151.208,-5.497 -32.041,1.269 -65.173,2.582 -98.316,0.687 -56.351,-2.817 -100.419,-1.706 -142.9,3.604 -23.843,2.805 -48.177,0.616 -71.71,-1.5 -16.569,-1.489 -33.711,-3.031 -50.616,-2.837 l -32.043,0 0,2.399 32.056,0 c 16.82,-0.191 33.879,1.344 50.388,2.829 23.653,2.127 48.111,4.328 72.214,1.491 42.345,-5.292 86.285,-6.398 142.483,-3.59 33.249,1.899 66.441,0.585 98.539,-0.685 48.856,-1.934 99.375,-3.934 150.699,5.463 22.299,3.715 44.444,0.082 65.862,-3.434 13.419,-2.202 27.297,-4.48 41.105,-4.94 14.458,0 27.99,1.047 42.315,2.155 l 3.116,0.24 C -72.428,9.666 -55.739,7.612 -39.595,5.625 -18.057,2.976 4.215,0.236 26.756,5.017 54.44,10.786 81.609,15.862 109.789,14.635 119.876,14.154 129.96,13.662 140.043,13.17 229.12,8.822 321.231,4.325 411.592,8.635 l 0.115,-2.397 C 321.228,1.924 229.059,6.422 139.925,10.773 129.844,11.265 119.762,11.757 109.679,12.237 81.787,13.452 54.772,8.403 27.25,2.669 18.089,0.726 8.998,0 0,0"
         style="fill:#c49a6c;fill-opacity:1;fill-rule:nonzero;stroke:none"
         id="path24"
         inkscape:connector-curvature="0" /></g><g
       id="g34"
       transform="translate(1060.8282,625.5562)"><path
         d="m 0,0 c -2.042,-0.001 -4.094,0.086 -6.16,0.274 -17.064,1.938 -34.223,4.536 -50.817,7.049 -34.622,5.241 -70.419,10.647 -105.929,10.099 -3.419,0.146 -6.854,0.207 -10.301,0.178 -24.45,-0.201 -48.106,-4.724 -72.204,-9.745 -22.93,-4.864 -45.406,-2.098 -67.138,0.575 -16.036,1.973 -32.618,4.014 -49.339,2.999 l -3.078,-0.238 c -14.379,-1.111 -27.962,-2.162 -42.558,-2.162 -14.004,0.466 -27.96,2.756 -41.455,4.972 -21.223,3.483 -43.169,7.085 -65.056,3.437 -40.618,-7.437 -79.503,-7.96 -125.383,-6.46 -4.582,0.15 -9.157,0.316 -13.638,0.491 -4.433,0.398 -8.692,0.761 -12.878,1.117 -16.854,1.436 -32.772,2.791 -50.128,5.684 -23.692,5.347 -46.376,1.798 -68.311,-1.635 -12.39,-1.939 -25.202,-3.944 -38.164,-4.376 -20.277,-1.193 -39.718,0.005 -59.504,1.449 -4.075,0.324 -8.138,0.699 -12.426,1.146 -3.955,0.414 -7.989,0.878 -11.992,1.378 -23.843,2.805 -48.176,0.617 -71.71,-1.5 -16.568,-1.49 -33.711,-3.023 -50.616,-2.837 l -32.043,0 0,2.399 32.056,0 c 16.805,-0.196 33.879,1.343 50.388,2.829 23.653,2.127 48.111,4.327 72.214,1.491 3.995,-0.498 8.014,-0.961 11.953,-1.374 4.267,-0.444 8.31,-0.817 12.359,-1.14 19.695,-1.438 39.048,-2.631 59.211,-1.444 12.846,0.428 25.584,2.422 37.904,4.35 22.157,3.468 45.067,7.053 69.143,1.618 17.193,-2.864 33.066,-4.216 49.87,-5.647 4.189,-0.357 8.452,-0.72 12.829,-1.113 4.416,-0.172 8.984,-0.338 13.561,-0.488 45.73,-1.497 84.465,-0.976 124.892,6.426 22.297,3.717 44.442,0.082 65.858,-3.433 13.42,-2.203 27.298,-4.481 41.106,-4.941 14.464,10e-4 28,1.048 42.333,2.156 l 3.098,0.239 c 16.961,1.028 33.653,-1.026 49.797,-3.012 21.539,-2.65 43.81,-5.389 66.352,-0.607 24.225,5.046 48.008,9.592 72.678,9.796 3.479,0.029 6.963,-0.033 10.353,-0.18 35.636,0.573 71.536,-4.869 106.255,-10.125 16.573,-2.509 33.709,-5.104 50.703,-7.035 12.93,-1.175 25.57,1.822 37.799,4.72 12.454,2.951 25.332,6.001 38.621,4.706 4.546,0.023 9.093,0.063 13.639,0.121 18.855,0.236 37.287,0.779 54.787,1.614 l 0.114,-2.397 C 121.518,10.589 103.057,10.044 84.175,9.807 79.602,9.749 75.028,9.709 70.454,9.686 L 70.331,9.692 C 57.419,10.962 44.719,7.954 32.438,5.045 21.944,2.558 11.145,0 0,0"
         style="fill:#c49a6c;fill-opacity:1;fill-rule:nonzero;stroke:none"
         id="path36"
         inkscape:connector-curvature="0" /></g><g
       id="g38"
       transform="translate(788.1683,553.5746)"><path
         d="m 0,0 c -13.523,-0.001 -26.838,1.638 -39.888,3.243 -16.036,1.973 -32.619,4.016 -49.339,3 l -3.112,-0.241 c -14.369,-1.11 -27.939,-2.159 -42.523,-2.159 -14.005,0.466 -27.959,2.757 -41.454,4.971 -21.224,3.484 -43.169,7.088 -65.059,3.438 -51.568,-9.442 -102.224,-7.436 -151.209,-5.497 -32.041,1.268 -65.173,2.581 -98.315,0.687 -56.351,-2.816 -100.419,-1.707 -142.9,3.604 -23.843,2.805 -48.176,0.617 -71.708,-1.499 -16.568,-1.492 -33.701,-3.035 -50.618,-2.838 l -32.043,0 0,2.399 32.056,0 c 16.808,-0.192 33.881,1.344 50.391,2.828 23.651,2.129 48.109,4.329 72.211,1.492 42.345,-5.292 86.285,-6.398 142.483,-3.59 33.248,1.901 66.438,0.586 98.537,-0.685 48.857,-1.935 99.377,-3.934 150.701,5.463 22.3,3.715 44.446,0.081 65.861,-3.434 13.421,-2.202 27.297,-4.48 41.105,-4.94 14.452,0 27.978,1.046 42.299,2.153 l 3.133,0.242 c 16.955,1.026 33.653,-1.026 49.796,-3.012 21.54,-2.65 43.811,-5.389 66.351,-0.608 27.685,5.768 54.86,10.844 83.032,9.617 10.093,-0.48 20.181,-0.973 30.269,-1.465 C 229.13,8.821 321.234,4.326 411.592,8.635 l 0.114,-2.397 C 321.233,1.924 229.069,6.422 139.94,10.772 129.853,11.264 119.766,11.756 109.679,12.237 81.793,13.452 54.774,8.403 27.25,2.669 18.089,0.725 8.999,0 0,0"
         style="fill:#c49a6c;fill-opacity:1;fill-rule:nonzero;stroke:none"
         id="path40"
         inkscape:connector-curvature="0" /></g><g
       id="g42"
       transform="translate(1060.8271,468.2094)"><path
         d="m 0,0 c -2.041,0 -4.093,0.086 -6.159,0.274 -17.064,1.938 -34.222,4.536 -50.817,7.048 -34.622,5.242 -70.419,10.651 -105.929,10.1 -3.42,0.146 -6.861,0.207 -10.301,0.178 -24.45,-0.201 -48.106,-4.724 -72.204,-9.745 -22.93,-4.862 -45.404,-2.098 -67.138,0.575 -16.036,1.972 -32.62,4.011 -49.339,2.999 l -3.112,-0.24 c -14.369,-1.111 -27.939,-2.16 -42.523,-2.16 -14.004,0.466 -27.96,2.757 -41.454,4.972 -21.223,3.483 -43.17,7.085 -65.058,3.437 -40.62,-7.438 -79.504,-7.961 -125.383,-6.46 -4.582,0.15 -9.156,0.316 -13.638,0.492 -4.44,0.398 -8.705,0.761 -12.897,1.118 -16.847,1.435 -32.76,2.79 -50.109,5.682 -23.692,5.347 -46.376,1.798 -68.312,-1.635 -12.39,-1.939 -25.202,-3.944 -38.163,-4.376 -20.281,-1.193 -39.722,0.006 -59.504,1.449 -4.05,0.322 -8.112,0.697 -12.426,1.146 -3.994,0.419 -8.028,0.883 -11.992,1.379 -23.845,2.804 -48.176,0.616 -71.707,-1.5 -16.569,-1.491 -33.702,-3.037 -50.619,-2.838 l -32.043,0 0,2.4 32.056,0 c 16.808,-0.191 33.881,1.343 50.391,2.828 23.654,2.127 48.113,4.326 72.211,1.492 3.957,-0.495 7.975,-0.957 11.953,-1.375 4.293,-0.446 8.336,-0.819 12.359,-1.14 19.69,-1.437 39.041,-2.628 59.211,-1.444 12.845,0.428 25.583,2.422 37.902,4.35 22.157,3.468 45.071,7.054 69.145,1.618 17.187,-2.863 33.053,-4.214 49.851,-5.645 4.196,-0.357 8.465,-0.721 12.848,-1.115 4.416,-0.172 8.984,-0.338 13.561,-0.487 45.726,-1.497 84.463,-0.977 124.892,6.425 22.299,3.715 44.444,0.082 65.859,-3.433 13.421,-2.203 27.297,-4.48 41.105,-4.941 14.452,10e-4 27.978,1.046 42.299,2.153 l 3.133,0.242 c 16.953,1.028 33.652,-1.025 49.796,-3.012 21.539,-2.65 43.81,-5.39 66.352,-0.607 24.225,5.046 48.008,9.592 72.678,9.796 3.479,0.029 6.963,-0.033 10.353,-0.18 35.636,0.575 71.536,-4.869 106.256,-10.125 16.572,-2.509 33.708,-5.104 50.702,-7.035 12.93,-1.174 25.57,1.822 37.799,4.72 12.453,2.95 25.332,5.995 38.618,4.707 4.549,0.023 9.096,0.062 13.642,0.12 18.872,0.237 37.305,0.781 54.787,1.614 l 0.115,-2.397 C 121.536,10.589 103.075,10.045 84.176,9.807 79.603,9.749 75.03,9.709 70.455,9.686 L 70.332,9.692 C 57.42,10.964 44.719,7.954 32.438,5.045 21.943,2.558 11.145,0 0,0"
         style="fill:#c49a6c;fill-opacity:1;fill-rule:nonzero;stroke:none"
         id="path44"
         inkscape:connector-curvature="0" /></g><g
       id="g46"
       transform="translate(788.1672,396.2279)"><path
         d="m 0,0 c -13.523,0 -26.838,1.638 -39.888,3.244 -16.036,1.973 -32.618,4.011 -49.339,2.999 l -3.096,-0.239 c -14.373,-1.112 -27.949,-2.161 -42.539,-2.161 -14.005,0.466 -27.96,2.757 -41.455,4.972 -21.222,3.483 -43.17,7.084 -65.057,3.438 -51.567,-9.443 -102.221,-7.436 -151.208,-5.498 -32.042,1.269 -65.175,2.581 -98.315,0.687 -56.352,-2.817 -100.42,-1.706 -142.901,3.604 -23.843,2.805 -48.176,0.616 -71.71,-1.5 -16.568,-1.489 -33.711,-3.03 -50.616,-2.837 l -32.043,0 0,2.399 32.056,0 c 16.821,-0.192 33.879,1.344 50.388,2.829 23.653,2.128 48.111,4.327 72.214,1.491 42.345,-5.292 86.285,-6.398 142.483,-3.59 33.249,1.898 66.441,0.585 98.539,-0.685 48.856,-1.935 99.376,-3.934 150.7,5.463 22.299,3.716 44.444,0.082 65.859,-3.433 13.419,-2.203 27.297,-4.481 41.105,-4.941 14.458,0 27.99,1.047 42.315,2.155 l 3.116,0.24 c 16.966,1.03 33.653,-1.025 49.797,-3.012 21.539,-2.649 43.81,-5.389 66.351,-0.608 27.681,5.768 54.861,10.847 83.032,9.618 10.088,-0.481 20.172,-0.973 30.254,-1.465 89.078,-4.348 181.187,-8.845 271.55,-4.535 l 0.114,-2.397 C 321.228,1.923 229.059,6.423 139.925,10.773 129.844,11.265 119.762,11.758 109.679,12.237 81.789,13.455 54.772,8.403 27.25,2.669 18.089,0.726 8.997,0 0,0"
         style="fill:#c49a6c;fill-opacity:1;fill-rule:nonzero;stroke:none"
         id="path48"
         inkscape:connector-curvature="0" /></g><g
       id="g50"
       transform="translate(1060.8271,310.8639)"><path
         d="m 0,0 c -2.041,0 -4.094,0.086 -6.159,0.273 -17.065,1.939 -34.226,4.537 -50.822,7.05 -34.619,5.241 -70.423,10.656 -105.924,10.099 -3.421,0.146 -6.862,0.205 -10.301,0.178 -24.448,-0.201 -48.104,-4.724 -72.204,-9.745 -22.931,-4.865 -45.403,-2.098 -67.137,0.574 -16.036,1.973 -32.621,4.013 -49.34,3 l -3.096,-0.239 c -14.373,-1.111 -27.949,-2.161 -42.539,-2.161 -14.004,0.466 -27.961,2.757 -41.456,4.972 -21.222,3.483 -43.168,7.083 -65.056,3.437 -40.617,-7.438 -79.502,-7.964 -125.383,-6.46 -4.582,0.15 -9.156,0.316 -13.638,0.491 -4.443,0.398 -8.712,0.761 -12.907,1.119 -16.844,1.435 -32.753,2.791 -50.099,5.681 -23.696,5.349 -46.377,1.8 -68.311,-1.634 -12.39,-1.94 -25.202,-3.944 -38.164,-4.375 -20.269,-1.196 -39.715,0.003 -59.504,1.448 -4.034,0.32 -8.096,0.695 -12.425,1.144 -4.006,0.422 -8.04,0.886 -11.993,1.38 -23.846,2.803 -48.178,0.617 -71.711,-1.5 -16.569,-1.491 -33.71,-3.016 -50.615,-2.838 l -32.043,0 0,2.4 32.056,0 c 16.81,-0.183 33.879,1.343 50.388,2.828 23.652,2.128 48.111,4.328 72.214,1.492 3.946,-0.493 7.965,-0.955 11.953,-1.376 4.309,-0.446 8.351,-0.819 12.359,-1.138 20.451,-1.492 39.025,-2.631 59.211,-1.444 12.846,0.429 25.584,2.422 37.903,4.35 22.157,3.466 45.07,7.05 69.144,1.617 17.183,-2.862 33.046,-4.213 49.841,-5.644 4.199,-0.357 8.471,-0.722 12.858,-1.117 4.415,-0.171 8.984,-0.337 13.561,-0.487 45.728,-1.493 84.464,-0.975 124.892,6.427 22.296,3.717 44.442,0.081 65.858,-3.433 13.42,-2.203 27.298,-4.481 41.106,-4.941 14.458,10e-4 27.99,1.047 42.315,2.154 l 3.117,0.241 c 16.96,1.031 33.655,-1.026 49.797,-3.012 21.539,-2.65 43.812,-5.392 66.351,-0.608 24.226,5.047 48.01,9.594 72.678,9.797 3.479,0.028 6.963,-0.032 10.353,-0.18 35.652,0.564 71.535,-4.868 106.251,-10.124 16.573,-2.51 33.712,-5.104 50.707,-7.036 12.922,-1.174 25.569,1.822 37.798,4.719 12.453,2.951 25.326,6.004 38.622,4.706 4.547,0.022 9.093,0.062 13.639,0.121 18.839,0.236 37.272,0.779 54.787,1.614 l 0.115,-2.397 C 121.503,10.587 103.042,10.043 84.176,9.806 79.603,9.747 75.03,9.708 70.455,9.685 L 70.332,9.691 C 57.419,10.962 44.718,7.953 32.438,5.044 21.942,2.558 11.146,0 0,0"
         style="fill:#c49a6c;fill-opacity:1;fill-rule:nonzero;stroke:none"
         id="path52"
         inkscape:connector-curvature="0" /></g><g
       id="g54"
       transform="translate(788.1647,238.8818)"><path
         d="m 0,0 c -13.52,0 -26.837,1.638 -39.886,3.243 -16.036,1.973 -32.617,4.009 -49.339,3 L -92.32,6.004 c -14.374,-1.111 -27.95,-2.161 -42.54,-2.161 -14.004,0.466 -27.959,2.757 -41.456,4.972 -21.222,3.483 -43.168,7.083 -65.055,3.438 -51.568,-9.442 -102.224,-7.44 -151.21,-5.497 -32.04,1.269 -65.173,2.579 -98.314,0.687 -56.349,-2.818 -100.419,-1.706 -142.9,3.604 -23.846,2.806 -48.178,0.616 -71.709,-1.501 -16.569,-1.491 -33.712,-3.016 -50.618,-2.838 l -32.043,0 0,2.4 32.057,0 c 16.805,-0.185 33.881,1.342 50.389,2.828 23.653,2.129 48.111,4.327 72.213,1.493 42.345,-5.294 86.286,-6.399 142.483,-3.59 33.249,1.9 66.44,0.584 98.537,-0.686 48.855,-1.934 99.375,-3.934 150.701,5.463 22.297,3.719 44.442,0.083 65.858,-3.433 13.421,-2.203 27.298,-4.481 41.107,-4.941 14.457,0.001 27.989,1.047 42.315,2.154 l 3.116,0.241 c 16.954,1.03 33.651,-1.026 49.796,-3.012 21.539,-2.649 43.81,-5.389 66.351,-0.607 27.684,5.768 54.863,10.84 83.033,9.617 10.097,-0.481 20.19,-0.974 30.282,-1.466 89.068,-4.347 181.168,-8.841 271.521,-4.535 l 0.115,-2.397 C 321.246,1.925 229.083,6.421 139.956,10.771 129.865,11.265 119.773,11.757 109.682,12.237 81.792,13.453 54.776,8.404 27.253,2.67 18.09,0.726 9,0 0,0"
         style="fill:#c49a6c;fill-opacity:1;fill-rule:nonzero;stroke:none"
         id="path56"
         inkscape:connector-curvature="0" /></g><g
       id="g58"
       transform="translate(1060.8271,153.5166)"><path
         d="m 0,0 c -2.042,0 -4.094,0.086 -6.16,0.273 -17.065,1.939 -34.226,4.537 -50.822,7.05 -34.621,5.241 -70.451,10.663 -105.924,10.099 -3.42,0.146 -6.855,0.206 -10.302,0.178 -24.447,-0.201 -48.104,-4.724 -72.203,-9.745 -22.931,-4.864 -45.404,-2.098 -67.137,0.574 -16.036,1.975 -32.62,4.01 -49.34,3 l -3.096,-0.239 c -14.373,-1.111 -27.95,-2.161 -42.54,-2.161 -14.004,0.466 -27.96,2.757 -41.455,4.972 -21.223,3.484 -43.169,7.086 -65.055,3.437 -40.622,-7.436 -79.506,-7.964 -125.383,-6.459 -4.583,0.15 -9.156,0.315 -13.638,0.491 -4.43,0.397 -8.686,0.759 -12.869,1.115 -16.857,1.437 -32.779,2.792 -50.137,5.685 -23.695,5.349 -46.375,1.799 -68.31,-1.634 -12.391,-1.939 -25.202,-3.945 -38.165,-4.376 -20.287,-1.194 -39.724,0.003 -59.504,1.449 -4.021,0.319 -8.084,0.692 -12.425,1.143 -3.966,0.418 -8,0.882 -11.993,1.381 -23.843,2.805 -48.175,0.615 -71.705,-1.5 -16.569,-1.49 -33.688,-3.021 -50.622,-2.838 l -32.042,0 0,2.4 32.056,0 c 16.806,-0.177 33.882,1.344 50.393,2.828 23.652,2.127 48.109,4.325 72.209,1.492 3.986,-0.498 8.005,-0.961 11.953,-1.377 4.321,-0.449 8.364,-0.82 12.359,-1.137 19.689,-1.438 39.039,-2.63 59.211,-1.445 12.846,0.428 25.585,2.423 37.904,4.35 22.157,3.469 45.067,7.054 69.143,1.618 17.196,-2.865 33.071,-4.216 49.878,-5.647 4.187,-0.358 8.447,-0.72 12.821,-1.113 4.416,-0.173 8.985,-0.338 13.561,-0.488 45.726,-1.497 84.462,-0.977 124.892,6.426 22.297,3.717 44.441,0.081 65.857,-3.433 13.42,-2.203 27.298,-4.481 41.106,-4.941 14.458,10e-4 27.99,1.047 42.315,2.154 l 3.117,0.241 c 16.954,1.032 33.652,-1.026 49.797,-3.012 21.539,-2.649 43.81,-5.391 66.351,-0.608 24.226,5.047 48.01,9.594 72.678,9.797 3.476,0.028 6.963,-0.032 10.353,-0.18 35.662,0.557 71.534,-4.869 106.251,-10.124 16.573,-2.51 33.712,-5.104 50.707,-7.035 12.928,-1.183 25.571,1.821 37.8,4.718 12.454,2.951 25.334,6.005 38.619,4.707 4.548,0.021 9.094,0.061 13.64,0.12 18.839,0.236 37.272,0.779 54.786,1.614 l 0.115,-2.397 C 121.501,10.587 103.041,10.043 84.175,9.806 79.602,9.747 75.028,9.707 70.454,9.686 L 70.331,9.692 C 57.416,10.956 44.718,7.955 32.438,5.045 21.943,2.558 11.145,0 0,0"
         style="fill:#c49a6c;fill-opacity:1;fill-rule:nonzero;stroke:none"
         id="path60"
         inkscape:connector-curvature="0" /></g><g
       id="g62"
       transform="translate(788.166,81.5346)"><path
         d="m 0,0 c -13.524,0 -26.838,1.638 -39.889,3.244 -16.035,1.972 -32.618,4.013 -49.337,3 l -3.06,-0.237 c -14.386,-1.113 -27.973,-2.164 -42.575,-2.164 -14.004,0.467 -27.959,2.757 -41.456,4.972 -21.222,3.484 -43.168,7.084 -65.056,3.437 -51.567,-9.441 -102.223,-7.438 -151.209,-5.496 -32.041,1.268 -65.173,2.579 -98.314,0.687 -56.349,-2.818 -100.419,-1.706 -142.901,3.604 -23.846,2.804 -48.177,0.615 -71.709,-1.5 -16.569,-1.49 -33.703,-3.018 -50.617,-2.838 l -32.043,0 0,2.4 32.057,0 c 16.805,-0.191 33.879,1.342 50.388,2.828 23.653,2.127 48.112,4.33 72.213,1.492 42.346,-5.294 86.287,-6.399 142.483,-3.59 33.25,1.9 66.44,0.585 98.538,-0.686 48.855,-1.934 99.374,-3.934 150.701,5.463 22.297,3.719 44.442,0.083 65.858,-3.433 13.42,-2.203 27.298,-4.481 41.107,-4.941 14.469,0.001 28.011,1.048 42.349,2.158 l 3.081,0.238 c 16.96,1.025 33.651,-1.027 49.796,-3.013 21.54,-2.649 43.813,-5.389 66.352,-0.607 27.687,5.767 54.872,10.846 83.032,9.616 10.097,-0.48 20.189,-0.973 30.279,-1.465 89.07,-4.349 181.175,-8.844 271.525,-4.534 l 0.115,-2.397 C 321.24,1.923 229.079,6.421 139.951,10.771 129.862,11.265 119.771,11.757 109.68,12.237 81.797,13.448 54.778,8.403 27.251,2.67 18.09,0.726 8.997,0 0,0"
         style="fill:#c49a6c;fill-opacity:1;fill-rule:nonzero;stroke:none"
         id="path64"
         inkscape:connector-curvature="0" /></g><g
       id="g66"
       transform="translate(1060.8259,7)"><path
         d="m 0,0 c -2.041,0 -4.094,0.086 -6.16,0.273 -17.065,1.939 -34.226,4.537 -50.822,7.05 -34.621,5.241 -70.45,10.667 -105.924,10.099 -3.42,0.148 -6.858,0.209 -10.302,0.178 -24.452,-0.201 -48.107,-4.724 -72.203,-9.744 -22.934,-4.865 -45.408,-2.101 -67.139,0.574 -16.036,1.972 -32.621,4.012 -49.338,3 l -3.061,-0.237 c -14.386,-1.113 -27.973,-2.164 -42.574,-2.164 -14.005,0.466 -27.96,2.757 -41.455,4.972 -21.223,3.483 -43.167,7.083 -65.055,3.437 -40.617,-7.436 -79.501,-7.964 -125.383,-6.459 -4.583,0.15 -9.156,0.316 -13.637,0.492 -4.424,0.396 -8.673,0.758 -12.85,1.113 -16.863,1.435 -32.792,2.792 -50.157,5.686 -23.694,5.35 -46.375,1.798 -68.31,-1.634 -12.39,-1.939 -25.202,-3.945 -38.165,-4.376 -20.287,-1.196 -39.724,0.003 -59.503,1.449 -4.041,0.32 -8.103,0.693 -12.427,1.145 -3.945,0.413 -7.979,0.877 -11.992,1.379 -23.844,2.804 -48.177,0.615 -71.709,-1.5 -16.568,-1.49 -33.693,-3.017 -50.617,-2.838 l -32.043,0 0,2.4 32.057,0 c 16.806,-0.177 33.879,1.342 50.388,2.828 23.653,2.127 48.112,4.33 72.213,1.492 4.006,-0.5 8.024,-0.962 11.953,-1.376 4.302,-0.447 8.345,-0.82 12.359,-1.137 19.689,-1.439 39.039,-2.63 59.211,-1.446 12.846,0.428 25.585,2.423 37.904,4.35 22.157,3.47 45.067,7.054 69.143,1.618 17.203,-2.866 33.085,-4.218 49.898,-5.648 4.181,-0.357 8.434,-0.719 12.801,-1.111 4.416,-0.173 8.985,-0.339 13.562,-0.489 45.725,-1.494 84.464,-0.976 124.891,6.426 22.3,3.716 44.442,0.083 65.857,-3.433 13.419,-2.203 27.297,-4.481 41.105,-4.941 14.47,10e-4 28.012,1.048 42.35,2.158 l 3.08,0.238 c 16.96,1.025 33.652,-1.024 49.797,-3.013 21.539,-2.65 43.812,-5.391 66.353,-0.607 24.222,5.047 48.005,9.593 72.678,9.796 3.477,0.029 6.963,-0.032 10.353,-0.179 35.663,0.555 71.534,-4.87 106.251,-10.125 16.573,-2.51 33.712,-5.104 50.707,-7.035 12.924,-1.185 25.57,1.821 37.8,4.72 12.452,2.95 25.329,6.002 38.62,4.706 4.547,0.02 9.093,0.06 13.639,0.119 18.848,0.236 37.281,0.78 54.786,1.615 l 0.115,-2.397 C 121.512,10.587 103.051,10.043 84.175,9.806 79.602,9.747 75.027,9.707 70.453,9.688 L 70.331,9.693 C 57.413,10.961 44.719,7.953 32.44,5.045 21.943,2.558 11.145,0 0,0"
         style="fill:#c49a6c;fill-opacity:1;fill-rule:nonzero;stroke:none"
         id="path68"
         inkscape:connector-curvature="0" /></g><g
       id="g70"><g
         id="g72" /><g
         id="g78"><g
           clip-path="url(#clipPath74)"
           id="g80"
           style="opacity:0.64999402"><path
             d="m 1160.782,32.924 -1121.564,0 0,410.426 1121.564,0 0,-410.426 z"
             style="fill:#ffffff;fill-opacity:1;fill-rule:nonzero;stroke:none"
             id="path82"
             inkscape:connector-curvature="0" /></g></g></g><path
       d="m 225.985,52.599 -160,0 0,370 160,0 0,-370 z"
       style="fill:#00a79d;fill-opacity:1;fill-rule:nonzero;stroke:none"
       id="path84"
       inkscape:connector-curvature="0" /><g
       id="g86"
       transform="translate(225.9848,58.5987)"><path
         d="m 0,0 0,-6 -6,0"
         style="fill:none;stroke:#603913;stroke-width:4;stroke-linecap:butt;stroke-linejoin:miter;stroke-miterlimit:10;stroke-dasharray:none;stroke-opacity:1"
         id="path88"
         inkscape:connector-curvature="0" /></g><g
       id="g90"
       transform="translate(208.6002,52.5987)"><path
         d="M 0,0 -130.923,0"
         style="fill:none;stroke:#603913;stroke-width:4;stroke-linecap:butt;stroke-linejoin:miter;stroke-miterlimit:10;stroke-dasharray:11.385, 11.385;stroke-dashoffset:0;stroke-opacity:1"
         id="path92"
         inkscape:connector-curvature="0" /></g><g
       id="g94"
       transform="translate(71.9848,52.5987)"><path
         d="m 0,0 -6,0 0,6"
         style="fill:none;stroke:#603913;stroke-width:4;stroke-linecap:butt;stroke-linejoin:miter;stroke-miterlimit:10;stroke-dasharray:none;stroke-opacity:1"
         id="path96"
         inkscape:connector-curvature="0" /></g><g
       id="g98"
       transform="translate(65.9848,70.9437)"><path
         d="M 0,0 0,339.483"
         style="fill:none;stroke:#603913;stroke-width:4;stroke-linecap:butt;stroke-linejoin:miter;stroke-miterlimit:10;stroke-dasharray:12.345, 12.345;stroke-dashoffset:0;stroke-opacity:1"
         id="path100"
         inkscape:connector-curvature="0" /></g><g
       id="g102"
       transform="translate(65.9848,416.5989)"><path
         d="M 0,0 0,6 6,6"
         style="fill:none;stroke:#603913;stroke-width:4;stroke-linecap:butt;stroke-linejoin:miter;stroke-miterlimit:10;stroke-dasharray:none;stroke-opacity:1"
         id="path104"
         inkscape:connector-curvature="0" /></g><g
       id="g106"
       transform="translate(83.3694,422.5989)"><path
         d="M 0,0 130.923,0"
         style="fill:none;stroke:#603913;stroke-width:4;stroke-linecap:butt;stroke-linejoin:miter;stroke-miterlimit:10;stroke-dasharray:11.385, 11.385;stroke-dashoffset:0;stroke-opacity:1"
         id="path108"
         inkscape:connector-curvature="0" /></g><g
       id="g110"
       transform="translate(219.9848,422.5989)"><path
         d="M 0,0 6,0 6,-6"
         style="fill:none;stroke:#603913;stroke-width:4;stroke-linecap:butt;stroke-linejoin:miter;stroke-miterlimit:10;stroke-dasharray:none;stroke-opacity:1"
         id="path112"
         inkscape:connector-curvature="0" /></g><g
       id="g114"
       transform="translate(225.9848,404.254)"><path
         d="M 0,0 0,-339.483"
         style="fill:none;stroke:#603913;stroke-width:4;stroke-linecap:butt;stroke-linejoin:miter;stroke-miterlimit:10;stroke-dasharray:12.345, 12.345;stroke-dashoffset:0;stroke-opacity:1"
         id="path116"
         inkscape:connector-curvature="0" /></g><path
       d="m 452.992,52.599 -160,0 0,370 160,0 0,-370 z"
       style="fill:#00a79d;fill-opacity:1;fill-rule:nonzero;stroke:none"
       id="path118"
       inkscape:connector-curvature="0" /><g
       id="g120"
       transform="translate(452.9924,58.5987)"><path
         d="m 0,0 0,-6 -6,0"
         style="fill:none;stroke:#603913;stroke-width:4;stroke-linecap:butt;stroke-linejoin:miter;stroke-miterlimit:10;stroke-dasharray:none;stroke-opacity:1"
         id="path122"
         inkscape:connector-curvature="0" /></g><g
       id="g124"
       transform="translate(435.6078,52.5987)"><path
         d="M 0,0 -130.923,0"
         style="fill:none;stroke:#603913;stroke-width:4;stroke-linecap:butt;stroke-linejoin:miter;stroke-miterlimit:10;stroke-dasharray:11.385, 11.385;stroke-dashoffset:0;stroke-opacity:1"
         id="path126"
         inkscape:connector-curvature="0" /></g><g
       id="g128"
       transform="translate(298.9924,52.5987)"><path
         d="m 0,0 -6,0 0,6"
         style="fill:none;stroke:#603913;stroke-width:4;stroke-linecap:butt;stroke-linejoin:miter;stroke-miterlimit:10;stroke-dasharray:none;stroke-opacity:1"
         id="path130"
         inkscape:connector-curvature="0" /></g><g
       id="g132"
       transform="translate(292.9924,70.9437)"><path
         d="M 0,0 0,339.483"
         style="fill:none;stroke:#603913;stroke-width:4;stroke-linecap:butt;stroke-linejoin:miter;stroke-miterlimit:10;stroke-dasharray:12.345, 12.345;stroke-dashoffset:0;stroke-opacity:1"
         id="path134"
         inkscape:connector-curvature="0" /></g><g
       id="g136"
       transform="translate(292.9924,416.5989)"><path
         d="M 0,0 0,6 6,6"
         style="fill:none;stroke:#603913;stroke-width:4;stroke-linecap:butt;stroke-linejoin:miter;stroke-miterlimit:10;stroke-dasharray:none;stroke-opacity:1"
         id="path138"
         inkscape:connector-curvature="0" /></g><g
       id="g140"
       transform="translate(310.377,422.5989)"><path
         d="M 0,0 130.923,0"
         style="fill:none;stroke:#603913;stroke-width:4;stroke-linecap:butt;stroke-linejoin:miter;stroke-miterlimit:10;stroke-dasharray:11.385, 11.385;stroke-dashoffset:0;stroke-opacity:1"
         id="path142"
         inkscape:connector-curvature="0" /></g><g
       id="g144"
       transform="translate(446.9924,422.5989)"><path
         d="M 0,0 6,0 6,-6"
         style="fill:none;stroke:#603913;stroke-width:4;stroke-linecap:butt;stroke-linejoin:miter;stroke-miterlimit:10;stroke-dasharray:none;stroke-opacity:1"
         id="path146"
         inkscape:connector-curvature="0" /></g><g
       id="g148"
       transform="translate(452.9924,404.254)"><path
         d="M 0,0 0,-339.483"
         style="fill:none;stroke:#603913;stroke-width:4;stroke-linecap:butt;stroke-linejoin:miter;stroke-miterlimit:10;stroke-dasharray:12.345, 12.345;stroke-dashoffset:0;stroke-opacity:1"
         id="path150"
         inkscape:connector-curvature="0" /></g><path
       d="m 680,52.599 -160,0 0,370 160,0 0,-370 z"
       style="fill:#00a79d;fill-opacity:1;fill-rule:nonzero;stroke:none"
       id="path152"
       inkscape:connector-curvature="0" /><g
       id="g154"
       transform="translate(680,58.5987)"><path
         d="m 0,0 0,-6 -6,0"
         style="fill:none;stroke:#603913;stroke-width:4;stroke-linecap:butt;stroke-linejoin:miter;stroke-miterlimit:10;stroke-dasharray:none;stroke-opacity:1"
         id="path156"
         inkscape:connector-curvature="0" /></g><g
       id="g158"
       transform="translate(662.6154,52.5987)"><path
         d="M 0,0 -130.923,0"
         style="fill:none;stroke:#603913;stroke-width:4;stroke-linecap:butt;stroke-linejoin:miter;stroke-miterlimit:10;stroke-dasharray:11.385, 11.385;stroke-dashoffset:0;stroke-opacity:1"
         id="path160"
         inkscape:connector-curvature="0" /></g><g
       id="g162"
       transform="translate(526,52.5987)"><path
         d="m 0,0 -6,0 0,6"
         style="fill:none;stroke:#603913;stroke-width:4;stroke-linecap:butt;stroke-linejoin:miter;stroke-miterlimit:10;stroke-dasharray:none;stroke-opacity:1"
         id="path164"
         inkscape:connector-curvature="0" /></g><g
       id="g166"
       transform="translate(520,70.9437)"><path
         d="M 0,0 0,339.483"
         style="fill:none;stroke:#603913;stroke-width:4;stroke-linecap:butt;stroke-linejoin:miter;stroke-miterlimit:10;stroke-dasharray:12.345, 12.345;stroke-dashoffset:0;stroke-opacity:1"
         id="path168"
         inkscape:connector-curvature="0" /></g><g
       id="g170"
       transform="translate(520,416.5989)"><path
         d="M 0,0 0,6 6,6"
         style="fill:none;stroke:#603913;stroke-width:4;stroke-linecap:butt;stroke-linejoin:miter;stroke-miterlimit:10;stroke-dasharray:none;stroke-opacity:1"
         id="path172"
         inkscape:connector-curvature="0" /></g><g
       id="g174"
       transform="translate(537.3846,422.5989)"><path
         d="M 0,0 130.923,0"
         style="fill:none;stroke:#603913;stroke-width:4;stroke-linecap:butt;stroke-linejoin:miter;stroke-miterlimit:10;stroke-dasharray:11.385, 11.385;stroke-dashoffset:0;stroke-opacity:1"
         id="path176"
         inkscape:connector-curvature="0" /></g><g
       id="g178"
       transform="translate(674,422.5989)"><path
         d="M 0,0 6,0 6,-6"
         style="fill:none;stroke:#603913;stroke-width:4;stroke-linecap:butt;stroke-linejoin:miter;stroke-miterlimit:10;stroke-dasharray:none;stroke-opacity:1"
         id="path180"
         inkscape:connector-curvature="0" /></g><g
       id="g182"
       transform="translate(680,404.254)"><path
         d="M 0,0 0,-339.483"
         style="fill:none;stroke:#603913;stroke-width:4;stroke-linecap:butt;stroke-linejoin:miter;stroke-miterlimit:10;stroke-dasharray:12.345, 12.345;stroke-dashoffset:0;stroke-opacity:1"
         id="path184"
         inkscape:connector-curvature="0" /></g><path
       d="m 907.008,52.599 -160,0 0,370 160,0 0,-370 z"
       style="fill:#00a79d;fill-opacity:1;fill-rule:nonzero;stroke:none"
       id="path186"
       inkscape:connector-curvature="0" /><g
       id="g188"
       transform="translate(907.0077,58.5987)"><path
         d="m 0,0 0,-6 -6,0"
         style="fill:none;stroke:#603913;stroke-width:4;stroke-linecap:butt;stroke-linejoin:miter;stroke-miterlimit:10;stroke-dasharray:none;stroke-opacity:1"
         id="path190"
         inkscape:connector-curvature="0" /></g><g
       id="g192"
       transform="translate(889.623,52.5987)"><path
         d="M 0,0 -130.923,0"
         style="fill:none;stroke:#603913;stroke-width:4;stroke-linecap:butt;stroke-linejoin:miter;stroke-miterlimit:10;stroke-dasharray:11.385, 11.385;stroke-dashoffset:0;stroke-opacity:1"
         id="path194"
         inkscape:connector-curvature="0" /></g><g
       id="g196"
       transform="translate(753.0077,52.5987)"><path
         d="m 0,0 -6,0 0,6"
         style="fill:none;stroke:#603913;stroke-width:4;stroke-linecap:butt;stroke-linejoin:miter;stroke-miterlimit:10;stroke-dasharray:none;stroke-opacity:1"
         id="path198"
         inkscape:connector-curvature="0" /></g><g
       id="g200"
       transform="translate(747.0077,70.9437)"><path
         d="M 0,0 0,339.483"
         style="fill:none;stroke:#603913;stroke-width:4;stroke-linecap:butt;stroke-linejoin:miter;stroke-miterlimit:10;stroke-dasharray:12.345, 12.345;stroke-dashoffset:0;stroke-opacity:1"
         id="path202"
         inkscape:connector-curvature="0" /></g><g
       id="g204"
       transform="translate(747.0077,416.5989)"><path
         d="M 0,0 0,6 6,6"
         style="fill:none;stroke:#603913;stroke-width:4;stroke-linecap:butt;stroke-linejoin:miter;stroke-miterlimit:10;stroke-dasharray:none;stroke-opacity:1"
         id="path206"
         inkscape:connector-curvature="0" /></g><g
       id="g208"
       transform="translate(764.3923,422.5989)"><path
         d="M 0,0 130.923,0"
         style="fill:none;stroke:#603913;stroke-width:4;stroke-linecap:butt;stroke-linejoin:miter;stroke-miterlimit:10;stroke-dasharray:11.385, 11.385;stroke-dashoffset:0;stroke-opacity:1"
         id="path210"
         inkscape:connector-curvature="0" /></g><g
       id="g212"
       transform="translate(901.0077,422.5989)"><path
         d="M 0,0 6,0 6,-6"
         style="fill:none;stroke:#603913;stroke-width:4;stroke-linecap:butt;stroke-linejoin:miter;stroke-miterlimit:10;stroke-dasharray:none;stroke-opacity:1"
         id="path214"
         inkscape:connector-curvature="0" /></g><g
       id="g216"
       transform="translate(907.0077,404.254)"><path
         d="M 0,0 0,-339.483"
         style="fill:none;stroke:#603913;stroke-width:4;stroke-linecap:butt;stroke-linejoin:miter;stroke-miterlimit:10;stroke-dasharray:12.345, 12.345;stroke-dashoffset:0;stroke-opacity:1"
         id="path218"
         inkscape:connector-curvature="0" /></g><path
       d="m 1134.015,52.599 -160,0 0,370 160,0 0,-370 z"
       style="fill:#00a79d;fill-opacity:1;fill-rule:nonzero;stroke:none"
       id="path220"
       inkscape:connector-curvature="0" /><g
       id="g222"
       transform="translate(1134.0153,58.5987)"><path
         d="m 0,0 0,-6 -6,0"
         style="fill:none;stroke:#603913;stroke-width:4;stroke-linecap:butt;stroke-linejoin:miter;stroke-miterlimit:10;stroke-dasharray:none;stroke-opacity:1"
         id="path224"
         inkscape:connector-curvature="0" /></g><g
       id="g226"
       transform="translate(1116.6307,52.5987)"><path
         d="M 0,0 -130.923,0"
         style="fill:none;stroke:#603913;stroke-width:4;stroke-linecap:butt;stroke-linejoin:miter;stroke-miterlimit:10;stroke-dasharray:11.385, 11.385;stroke-dashoffset:0;stroke-opacity:1"
         id="path228"
         inkscape:connector-curvature="0" /></g><g
       id="g230"
       transform="translate(980.0153,52.5987)"><path
         d="m 0,0 -6,0 0,6"
         style="fill:none;stroke:#603913;stroke-width:4;stroke-linecap:butt;stroke-linejoin:miter;stroke-miterlimit:10;stroke-dasharray:none;stroke-opacity:1"
         id="path232"
         inkscape:connector-curvature="0" /></g><g
       id="g234"
       transform="translate(974.0153,70.9437)"><path
         d="M 0,0 0,339.483"
         style="fill:none;stroke:#603913;stroke-width:4;stroke-linecap:butt;stroke-linejoin:miter;stroke-miterlimit:10;stroke-dasharray:12.345, 12.345;stroke-dashoffset:0;stroke-opacity:1"
         id="path236"
         inkscape:connector-curvature="0" /></g><g
       id="g238"
       transform="translate(974.0153,416.5989)"><path
         d="M 0,0 0,6 6,6"
         style="fill:none;stroke:#603913;stroke-width:4;stroke-linecap:butt;stroke-linejoin:miter;stroke-miterlimit:10;stroke-dasharray:none;stroke-opacity:1"
         id="path240"
         inkscape:connector-curvature="0" /></g><g
       id="g242"
       transform="translate(991.3999,422.5989)"><path
         d="M 0,0 130.923,0"
         style="fill:none;stroke:#603913;stroke-width:4;stroke-linecap:butt;stroke-linejoin:miter;stroke-miterlimit:10;stroke-dasharray:11.385, 11.385;stroke-dashoffset:0;stroke-opacity:1"
         id="path244"
         inkscape:connector-curvature="0" /></g><g
       id="g246"
       transform="translate(1128.0153,422.5989)"><path
         d="M 0,0 6,0 6,-6"
         style="fill:none;stroke:#603913;stroke-width:4;stroke-linecap:butt;stroke-linejoin:miter;stroke-miterlimit:10;stroke-dasharray:none;stroke-opacity:1"
         id="path248"
         inkscape:connector-curvature="0" /></g><g
       id="g250"
       transform="translate(1134.0153,404.254)"><path
         d="M 0,0 0,-339.483"
         style="fill:none;stroke:#603913;stroke-width:4;stroke-linecap:butt;stroke-linejoin:miter;stroke-miterlimit:10;stroke-dasharray:12.345, 12.345;stroke-dashoffset:0;stroke-opacity:1"
         id="path252"
         inkscape:connector-curvature="0" /></g><g
       id="g254"><g
         id="g256" /><g
         id="g262"><g
           clip-path="url(#clipPath258)"
           id="g264"
           style="opacity:0.64999402"><path
             d="m 1160.782,467.534 -1121.564,0 0,151.979 1121.564,0 0,-151.979 z"
             style="fill:#ffffff;fill-opacity:1;fill-rule:nonzero;stroke:none"
             id="path266"
             inkscape:connector-curvature="0" /></g></g></g><path
       d="m 1145.036,483.524 -1090.072,0 0,120 1090.072,0 0,-120 z"
       style="fill:#00a79d;fill-opacity:1;fill-rule:nonzero;stroke:none"
       id="path268"
       inkscape:connector-curvature="0" /><g
       id="g270"
       transform="translate(1145.0359,489.5237)"><path
         d="m 0,0 0,-6 -6,0"
         style="fill:none;stroke:#603913;stroke-width:4;stroke-linecap:butt;stroke-linejoin:miter;stroke-miterlimit:10;stroke-dasharray:none;stroke-opacity:1"
         id="path272"
         inkscape:connector-curvature="0" /></g><g
       id="g274"
       transform="translate(1126.9227,483.5237)"><path
         d="M 0,0 -1059.902,0"
         style="fill:none;stroke:#603913;stroke-width:4;stroke-linecap:butt;stroke-linejoin:miter;stroke-miterlimit:10;stroke-dasharray:12.113, 12.113;stroke-dashoffset:0;stroke-opacity:1"
         id="path276"
         inkscape:connector-curvature="0" /></g><g
       id="g278"
       transform="translate(60.9642,483.5237)"><path
         d="m 0,0 -6,0 0,6"
         style="fill:none;stroke:#603913;stroke-width:4;stroke-linecap:butt;stroke-linejoin:miter;stroke-miterlimit:10;stroke-dasharray:none;stroke-opacity:1"
         id="path280"
         inkscape:connector-curvature="0" /></g><g
       id="g282"
       transform="translate(54.9642,501.5237)"><path
         d="M 0,0 0,90"
         style="fill:none;stroke:#603913;stroke-width:4;stroke-linecap:butt;stroke-linejoin:miter;stroke-miterlimit:10;stroke-dasharray:12, 12;stroke-dashoffset:0;stroke-opacity:1"
         id="path284"
         inkscape:connector-curvature="0" /></g><g
       id="g286"
       transform="translate(54.9642,597.5237)"><path
         d="M 0,0 0,6 6,6"
         style="fill:none;stroke:#603913;stroke-width:4;stroke-linecap:butt;stroke-linejoin:miter;stroke-miterlimit:10;stroke-dasharray:none;stroke-opacity:1"
         id="path288"
         inkscape:connector-curvature="0" /></g><g
       id="g290"
       transform="translate(73.0773,603.5237)"><path
         d="M 0,0 1059.902,0"
         style="fill:none;stroke:#603913;stroke-width:4;stroke-linecap:butt;stroke-linejoin:miter;stroke-miterlimit:10;stroke-dasharray:12.113, 12.113;stroke-dashoffset:0;stroke-opacity:1"
         id="path292"
         inkscape:connector-curvature="0" /></g><g
       id="g294"
       transform="translate(1139.0359,603.5237)"><path
         d="M 0,0 6,0 6,-6"
         style="fill:none;stroke:#603913;stroke-width:4;stroke-linecap:butt;stroke-linejoin:miter;stroke-miterlimit:10;stroke-dasharray:none;stroke-opacity:1"
         id="path296"
         inkscape:connector-curvature="0" /></g><g
       id="g298"
       transform="translate(1145.0359,585.5237)"><path
         d="M 0,0 0,-90"
         style="fill:none;stroke:#603913;stroke-width:4;stroke-linecap:butt;stroke-linejoin:miter;stroke-miterlimit:10;stroke-dasharray:12, 12;stroke-dashoffset:0;stroke-opacity:1"
         id="path300"
         inkscape:connector-curvature="0" /></g><path
       d="m 264.381,234.344 -30.906,0 0,6.816 30.906,0 0,-6.816 z"
       style="fill:#af1919;fill-opacity:1;fill-rule:nonzero;stroke:none"
       id="path302"
       inkscape:connector-curvature="0" /><g
       id="g304"
       transform="translate(259.4539,222.5988)"><path
         d="M 0,0 0.068,15 0.136,30 13.092,22.441 26.049,14.883 13.024,7.441 0,0 Z"
         style="fill:#af1919;fill-opacity:1;fill-rule:nonzero;stroke:none"
         id="path306"
         inkscape:connector-curvature="0" /></g><path
       d="m 491.388,234.344 -30.906,0 0,6.816 30.906,0 0,-6.816 z"
       style="fill:#af1919;fill-opacity:1;fill-rule:nonzero;stroke:none"
       id="path308"
       inkscape:connector-curvature="0" /><g
       id="g310"
       transform="translate(486.4615,222.5988)"><path
         d="M 0,0 0.068,15 0.136,30 13.092,22.441 26.049,14.883 13.024,7.441 0,0 Z"
         style="fill:#af1919;fill-opacity:1;fill-rule:nonzero;stroke:none"
         id="path312"
         inkscape:connector-curvature="0" /></g><path
       d="m 718.396,234.344 -30.906,0 0,6.816 30.906,0 0,-6.816 z"
       style="fill:#af1919;fill-opacity:1;fill-rule:nonzero;stroke:none"
       id="path314"
       inkscape:connector-curvature="0" /><g
       id="g316"
       transform="translate(713.4691,222.5988)"><path
         d="M 0,0 0.068,15 0.136,30 13.092,22.441 26.049,14.883 13.024,7.441 0,0 Z"
         style="fill:#af1919;fill-opacity:1;fill-rule:nonzero;stroke:none"
         id="path318"
         inkscape:connector-curvature="0" /></g><path
       d="m 945.404,234.344 -30.906,0 0,6.816 30.906,0 0,-6.816 z"
       style="fill:#af1919;fill-opacity:1;fill-rule:nonzero;stroke:none"
       id="path320"
       inkscape:connector-curvature="0" /><g
       id="g322"
       transform="translate(940.4767,222.5988)"><path
         d="M 0,0 0.068,15 0.136,30 13.092,22.441 26.049,14.883 13.024,7.441 0,0 Z"
         style="fill:#af1919;fill-opacity:1;fill-rule:nonzero;stroke:none"
         id="path324"
         inkscape:connector-curvature="0" /></g><text
       transform="matrix(1,0,0,-1,94.6328,558.5723)"
       style="font-variant:normal;font-weight:normal;font-stretch:normal;font-size:26px;font-family:'Myriad Pro';-inkscape-font-specification:MyriadPro-Regular;writing-mode:lr-tb;fill:#ffffff;fill-opacity:1;fill-rule:nonzero;stroke:none"
       id="text626"><tspan
         x="0 12.272 24.804001 30.316 42.848 64.531998 77.064003 85.669998 91.753998 97.889999 104.026 116.558 122.07 135.09599 145.392 150.90401 172.588 185.614 200.04401 214.31799 224.614 230.12601 241.62061 255.89461 277.57861 291.8526 306.5166 319.04861 324.56061 339.19861 353.5246 366.5506 372.06259 378.19861 390.73059 396.24261 410.67261 423.20459 431.5766 444.10861 458.5386 464.8566 477.38861 482.9006 495.14661 500.6586 522.34259 534.87457 545.17059 550.68262 565.32062 579.64661 592.67261 598.18457 604.32062 616.8526 622.36462 634.89661 646.0246 660.35059"
         y="0"
         sodipodi:role="line"
         id="tspan628">La amarilla es menos cómoda que la naranja y mas que la azul</tspan><tspan
         x="0 12.272 24.804001 30.316 42.562 55.588001 63.830002 78.494003 91.519997 97.031998 110.058 120.354 125.866 147.55 160.576 175.006 189.28 199.576 205.088 216.58 230.854 252.53799 266.81201 281.47601 294.008 299.51999 314.15799 328.48401 341.51001 347.022 353.15799 365.69 371.202 383.73401 394.862 409.18799 415.32401 420.836 433.082 438.59399 460.27802 472.81 483.10599 488.61801 503.25601 517.58197 530.60797 536.12 542.25598 554.78802 560.29999 568.54199 582.81598 589.13397"
         y="44.122002"
         sodipodi:role="line"
         id="tspan630">La verde es menos cómoda que la azul y mas que la roja</tspan></text>
</g></svg>