<?xml version="1.0" encoding="UTF-8" standalone="no"?>
<!-- Created with Inkscape (http://www.inkscape.org/) -->

<svg
   xmlns:osb="http://www.openswatchbook.org/uri/2009/osb"
   xmlns:dc="http://purl.org/dc/elements/1.1/"
   xmlns:cc="http://creativecommons.org/ns#"
   xmlns:rdf="http://www.w3.org/1999/02/22-rdf-syntax-ns#"
   xmlns:svg="http://www.w3.org/2000/svg"
   xmlns="http://www.w3.org/2000/svg"
   xmlns:sodipodi="http://sodipodi.sourceforge.net/DTD/sodipodi-0.dtd"
   xmlns:inkscape="http://www.inkscape.org/namespaces/inkscape"
   width="22.144438mm"
   height="65.616669mm"
   viewBox="0 0 22.144439 65.616669"
   version="1.1"
   id="svg8"
   inkscape:version="0.92.1 r"
   sodipodi:docname="david.svg"
   inkscape:export-filename="/home/fundacion/Documentos/linda/Megamente/img/quien-soy/ejercicio17/david.png"
   inkscape:export-xdpi="96"
   inkscape:export-ydpi="96">
  <defs
     id="defs2">
    <linearGradient
       osb:paint="solid"
       id="linearGradient4352">
      <stop
         id="stop4354"
         offset="0"
         style="stop-color:#000000;stop-opacity:1;" />
    </linearGradient>
  </defs>
  <sodipodi:namedview
     id="base"
     pagecolor="#ffffff"
     bordercolor="#666666"
     borderopacity="1.0"
     inkscape:pageopacity="0.0"
     inkscape:pageshadow="2"
     inkscape:zoom="1.4142136"
     inkscape:cx="8.47535"
     inkscape:cy="118.84136"
     inkscape:document-units="mm"
     inkscape:current-layer="layer1"
     showgrid="false"
     fit-margin-top="0"
     fit-margin-left="0"
     fit-margin-right="0"
     fit-margin-bottom="0"
     inkscape:window-width="1366"
     inkscape:window-height="699"
     inkscape:window-x="0"
     inkscape:window-y="32"
     inkscape:window-maximized="1"
     showguides="true"
     inkscape:guide-bbox="true">
    <sodipodi:guide
       position="98.673184,101.4414"
       orientation="0,1"
       id="guide17251"
       inkscape:locked="false" />
  </sodipodi:namedview>
  <metadata
     id="metadata5">
    <rdf:RDF>
      <cc:Work
         rdf:about="">
        <dc:format>image/svg+xml</dc:format>
        <dc:type
           rdf:resource="http://purl.org/dc/dcmitype/StillImage" />
        <dc:title></dc:title>
      </cc:Work>
    </rdf:RDF>
  </metadata>
  <g
     inkscape:label="Capa 1"
     inkscape:groupmode="layer"
     id="layer1"
     transform="translate(129.75915,-213.09949)">
    <g
       transform="matrix(0.28222222,0,0,0.28222222,61.626357,39.0646)"
       id="layer1-6"
       inkscape:label="Capa 1" />
    <g
       transform="matrix(0.28222221,0,0,0.28222221,-56.856553,25.695869)"
       id="layer1-60"
       inkscape:label="Capa 1" />
    <g
       transform="matrix(0.13602804,0,0,0.13602804,84.550818,76.988191)"
       id="layer1-20"
       inkscape:label="Capa 1" />
    <g
       id="g530"
       transform="matrix(0.14719766,0.01728536,0.01728536,-0.14719766,-30.886184,207.63081)"
       style="fill:#fcdabe;fill-opacity:1;stroke-width:2.38027096" />
    <g
       id="g17972"
       transform="matrix(0.70557325,0,0,0.70557325,-70.017712,76.913305)"
       style="stroke-width:1.41728735">
      <g
         transform="matrix(0.35277778,0,0,-0.35277778,-68.983644,194.17389)"
         id="g324"
         style="stroke-width:1.41728735">
        <path
           inkscape:connector-curvature="0"
           id="path326"
           style="fill:#aa7764;fill-opacity:1;fill-rule:evenodd;stroke:none;stroke-width:1.41728735"
           d="M 0,0 C -59.267,0 -44.986,-78.557 0,-78.557 44.987,-78.557 59.266,0 0,0" />
      </g>
      <g
         transform="matrix(0.35277778,0,0,-0.35277778,-75.657183,278.68865)"
         id="g328"
         style="stroke-width:1.41728735">
        <path
           inkscape:connector-curvature="0"
           id="path330"
           style="fill:#e3687f;fill-opacity:1;fill-rule:evenodd;stroke:none;stroke-width:1.41728735"
           d="m 0,0 c -4.135,-6.159 -9.645,-9.702 -11.021,-14.145 -2.222,-7.175 5.778,-7.182 10.484,-5.832 4.409,1.266 6.832,4.226 9.38,4.961 6.572,1.896 6.74,5.785 4.082,15.016 C 10.266,9.231 3.328,5.763 0,0" />
      </g>
      <g
         transform="matrix(0.35277778,0,0,-0.35277778,-62.413624,278.68865)"
         id="g332"
         style="stroke-width:1.41728735">
        <path
           inkscape:connector-curvature="0"
           id="path334"
           style="fill:#e3687f;fill-opacity:1;fill-rule:evenodd;stroke:none;stroke-width:1.41728735"
           d="m 0,0 c 4.135,-6.159 9.643,-9.702 11.019,-14.145 2.265,-7.311 -6.168,-7.089 -10.747,-5.735 -4.337,1.283 -6.588,4.135 -9.115,4.864 -6.572,1.896 -6.742,5.785 -4.083,15.016 2.659,9.231 9.598,5.763 12.926,0" />
      </g>
      <g
         transform="matrix(0.35277778,0,0,-0.35277778,-77.187985,250.62617)"
         id="g336"
         style="stroke-width:1.41728735">
        <path
           inkscape:connector-curvature="0"
           id="path338"
           style="fill:#869ab5;fill-opacity:1;fill-rule:evenodd;stroke:none;stroke-width:1.41728735"
           d="M 0,0 H 46.511 V -84.693 H 27.193 v 61.504 c 0,5.277 -7.873,5.31 -7.873,0 V -84.693 H 0 Z" />
      </g>
      <g
         transform="matrix(0.35277778,0,0,-0.35277778,-73.34742,230.79611)"
         id="g340"
         style="stroke-width:1.41728735">
        <path
           inkscape:connector-curvature="0"
           id="path342"
           style="fill:#fcdabe;fill-opacity:1;fill-rule:evenodd;stroke:none;stroke-width:1.41728735"
           d="m 0,0 -11.314,-35.615 c -1.441,-4.536 -6.333,-7.069 -10.869,-5.627 -4.538,1.44 -7.07,6.331 -5.629,10.868 L -16.498,5.24 C -13.211,15.587 3.117,9.812 0,0" />
      </g>
      <g
         transform="matrix(0.35277778,0,0,-0.35277778,-64.554787,230.79611)"
         id="g356"
         style="stroke-width:1.41728735">
        <path
           inkscape:connector-curvature="0"
           id="path358"
           style="fill:#fcdabe;fill-opacity:1;fill-rule:evenodd;stroke:none;stroke-width:1.41728735"
           d="m 0,0 11.312,-35.615 c 1.443,-4.536 6.333,-7.069 10.871,-5.627 4.536,1.44 7.068,6.331 5.627,10.868 L 16.496,5.24 C 13.209,15.587 -3.117,9.812 0,0" />
      </g>
      <g
         transform="matrix(0.35277778,0,0,-0.35277778,-58.700595,252.97221)"
         id="g360"
         style="stroke-width:1.41728735">
        <path
           inkscape:connector-curvature="0"
           id="path362"
           style="fill:#fcdabe;fill-opacity:1;fill-rule:evenodd;stroke:none;stroke-width:1.41728735"
           d="m 0,0 v 0 c -1.149,-0.141 -1.972,-1.197 -1.83,-2.346 l 0.626,-5.067 c 0.141,-1.148 1.197,-1.972 2.346,-1.83 1.148,0.142 1.972,1.197 1.83,2.346 L 2.346,-1.83 C 2.205,-0.682 1.149,0.142 0,0" />
      </g>
      <g
         transform="matrix(0.35277778,0,0,-0.35277778,-59.346348,253.79976)"
         id="g364"
         style="stroke-width:1.41728735">
        <path
           inkscape:connector-curvature="0"
           id="path366"
           style="fill:#fcdabe;fill-opacity:1;fill-rule:evenodd;stroke:none;stroke-width:1.41728735"
           d="M 0,0 -0.302,2.812 16.53,4.785 16.834,1.973 C 18.191,-10.448 1.553,-14.37 0,0" />
      </g>
      <g
         transform="matrix(0.35277778,0,0,-0.35277778,-59.453,252.80778)"
         id="g368"
         style="stroke-width:1.41728735">
        <path
           inkscape:connector-curvature="0"
           id="path370"
           style="fill:#fcdabe;fill-opacity:1;fill-rule:evenodd;stroke:none;stroke-width:1.41728735"
           d="m 0,0 -3.262,26.848 c -0.574,4.724 2.942,9.023 7.674,9.533 4.735,0.511 9.024,-2.944 9.536,-7.676 L 16.833,1.973 Z" />
      </g>
      <path
         inkscape:connector-curvature="0"
         id="path372"
         style="fill:#d1e2ec;fill-opacity:1;fill-rule:evenodd;stroke:none;stroke-width:0.39998996"
         d="m -77.187209,227.00121 h 16.407342 v 25.86954 h -16.407342 z" />
      <g
         transform="matrix(0.35277778,0,0,-0.35277778,-68.983644,214.80628)"
         id="g374"
         style="stroke-width:1.41728735">
        <path
           inkscape:connector-curvature="0"
           id="path376"
           style="fill:#fcdabe;fill-opacity:1;fill-rule:evenodd;stroke:none;stroke-width:1.41728735"
           d="m 0,0 v 0 c 5.776,0 10.502,-4.727 10.502,-10.504 v -24.064 c 0,-5.777 -4.726,-10.503 -10.502,-10.503 -5.778,0 -10.504,4.726 -10.504,10.503 v 24.064 C -10.504,-4.727 -5.778,0 0,0" />
      </g>
      <g
         transform="matrix(0.35277778,0,0,-0.35277778,-65.2788,224.23839)"
         id="g378"
         style="stroke-width:1.41728735">
        <path
           inkscape:connector-curvature="0"
           id="path380"
           style="fill:#e0ba9b;fill-opacity:1;fill-rule:evenodd;stroke:none;stroke-width:1.41728735"
           d="M 0,0 V 0 C 0,-9.021 -21.005,-9.021 -21.005,0 -21.005,9.021 0,9.021 0,0" />
      </g>
      <g
         transform="matrix(0.35277778,0,0,-0.35277778,-68.983644,195.05573)"
         id="g382"
         style="stroke-width:1.41728735">
        <path
           inkscape:connector-curvature="0"
           id="path384"
           style="fill:#fcdabe;fill-opacity:1;fill-rule:evenodd;stroke:none;stroke-width:1.41728735"
           d="M 0,0 C -59.183,0 -44.924,-85.899 0,-85.899 44.922,-85.899 59.182,0 0,0" />
      </g>
      <g
         transform="matrix(0.35277778,0,0,-0.35277778,-83.489132,208.39877)"
         id="g386"
         style="stroke-width:1.41728735">
        <path
           inkscape:connector-curvature="0"
           id="path388"
           style="fill:#fcdabe;fill-opacity:1;fill-rule:evenodd;stroke:none;stroke-width:1.41728735"
           d="M 0,0 C 2.99,0.763 6.621,-3.349 8.111,-9.185 9.6,-15.02 8.387,-20.369 5.397,-21.132 c -2.988,-0.764 -6.621,3.348 -8.11,9.183 C -4.203,-6.113 -2.988,-0.763 0,0" />
      </g>
      <g
         transform="matrix(0.35277778,0,0,-0.35277778,-54.467403,208.39877)"
         id="g390"
         style="stroke-width:1.41728735">
        <path
           inkscape:connector-curvature="0"
           id="path392"
           style="fill:#fcdabe;fill-opacity:1;fill-rule:evenodd;stroke:none;stroke-width:1.41728735"
           d="m 0,0 c -2.99,0.763 -6.621,-3.349 -8.111,-9.185 -1.489,-5.835 -0.276,-11.184 2.714,-11.947 2.988,-0.764 6.621,3.348 8.11,9.183 C 4.203,-6.113 2.988,-0.763 0,0" />
      </g>
      <g
         transform="matrix(0.35277778,0,0,-0.35277778,-64.652634,213.13027)"
         id="g394"
         style="stroke-width:1.41728735">
        <path
           inkscape:connector-curvature="0"
           id="path396"
           style="fill:#425156;fill-opacity:1;fill-rule:evenodd;stroke:none;stroke-width:1.41728735"
           d="M 0,0 C 1.571,0 2.85,2.347 2.85,5.223 2.85,8.1 1.571,10.447 0,10.447 -1.569,10.447 -2.85,8.1 -2.85,5.223 -2.85,2.347 -1.569,0 0,0" />
      </g>
      <g
         transform="matrix(0.35277778,0,0,-0.35277778,-73.315219,213.13027)"
         id="g398"
         style="stroke-width:1.41728735">
        <path
           inkscape:connector-curvature="0"
           id="path400"
           style="fill:#425156;fill-opacity:1;fill-rule:evenodd;stroke:none;stroke-width:1.41728735"
           d="M 0,0 C 1.569,0 2.85,2.347 2.85,5.223 2.85,8.1 1.569,10.447 0,10.447 -1.569,10.447 -2.851,8.1 -2.851,5.223 -2.851,2.347 -1.569,0 0,0" />
      </g>
      <g
         transform="matrix(0.35277778,0,0,-0.35277778,-66.949725,215.21437)"
         id="g402"
         style="stroke-width:1.41728735">
        <path
           inkscape:connector-curvature="0"
           id="path404"
           style="fill:#e0ba9b;fill-opacity:1;fill-rule:evenodd;stroke:none;stroke-width:1.41728735"
           d="M 0,0 C -2.213,-5.642 -9.319,-5.543 -11.531,0 -8.292,-3.082 -3.416,-3.225 0,0" />
      </g>
      <path
         d="m -73.935797,236.80338 c 0.563033,-0.90875 1.302103,-1.65558 2.156883,-2.16993 0.838906,-0.50518 1.788583,-0.78987 2.795411,-0.78987 1.006122,0 1.955447,0.28469 2.794353,0.78987 0.855486,0.51435 1.59385,1.26118 2.156883,2.16993 l -1.051983,0.64947 c -0.4572,-0.73731 -1.054806,-1.34268 -1.744133,-1.75754 -0.649112,-0.39053 -1.381478,-0.61066 -2.15512,-0.61066 -0.7747,0 -1.507066,0.22013 -2.155119,0.61066 -0.690034,0.41486 -1.287992,1.02023 -1.744839,1.75754 z m 9.90353,8.43104 c -0.563033,0.9084 -1.301397,1.65523 -2.156883,2.16993 -0.838906,0.50483 -1.788231,0.78952 -2.794353,0.78952 -1.006828,0 -1.956505,-0.28469 -2.795411,-0.78952 -0.85478,-0.5147 -1.59385,-1.26153 -2.156883,-2.16993 l 1.052336,-0.64982 c 0.456847,0.73731 1.054805,1.34267 1.744839,1.75789 0.648053,0.39053 1.380419,0.61031 2.155119,0.61031 0.773642,0 1.506008,-0.21978 2.15512,-0.61031 0.689327,-0.41522 1.286933,-1.02058 1.744133,-1.75789 z"
         style="fill:#ffd42a;fill-opacity:1;fill-rule:nonzero;stroke:none;stroke-width:0.39998996"
         id="path408"
         inkscape:connector-curvature="0" />
      <path
         sodipodi:nodetypes="acccccsacaca"
         inkscape:connector-curvature="0"
         id="path4266"
         d="m -77.329779,227.07077 c -0.581917,0.19305 -1.496709,1.06908 -1.496709,1.06908 l -3.262698,8.0746 4.759407,3.3289 16.178716,-0.21382 5.350454,-3.07333 c 0,0 -1.769689,-5.52618 -3.443408,-8.21356 -0.361213,-0.57998 -1.105445,-0.8629 -1.764504,-1.04314 -1.237451,-0.33842 -3.848681,0 -3.848681,0 0,0 -0.02365,11.3177 -4.071143,11.44612 -4.149392,0.13165 -4.909112,-11.44612 -4.909112,-11.44612 0,0 -2.387199,-0.29536 -3.492322,0.0713 z"
         style="fill:#d1e2ec;fill-opacity:1;fill-rule:evenodd;stroke:none;stroke-width:0.39998996px;stroke-linecap:butt;stroke-linejoin:miter;stroke-opacity:1" />
      <path
         inkscape:connector-curvature="0"
         id="path412"
         style="fill:#ffdd55;fill-opacity:1;fill-rule:evenodd;stroke:none;stroke-width:0.39998996"
         d="m -68.371772,238.36047 v 5.31651 h 1.424869 v -5.31651 z" />
      <g
         transform="matrix(0.349513,0.04788342,0.04788341,-0.349513,-63.754899,218.27156)"
         id="g416"
         style="stroke-width:1.41728735">
        <path
           inkscape:connector-curvature="0"
           id="path418"
           style="fill:#bf9470;fill-opacity:1;fill-rule:evenodd;stroke:none;stroke-width:1.41728735"
           d="M 0,0 C -6.197,-3.956 -20.866,-6.429 -29.263,-4.805 -19.289,-3.86 -9.471,-2.451 0,0" />
      </g>
      <g
         transform="matrix(0.35277778,0,0,-0.35277778,-65.997197,219.28814)"
         id="g420"
         style="stroke-width:1.41728735">
        <path
           inkscape:connector-curvature="0"
           id="path422"
           style="fill:#e0ba9b;fill-opacity:1;fill-rule:evenodd;stroke:none;stroke-width:1.41728735"
           d="M 0,0 C -2.213,-3.72 -10.666,-4.495 -13.712,-1.345 -9.602,-2.566 -3.792,-2.003 0,0" />
      </g>
      <g
         style="fill:#d3bc5f;fill-opacity:1;stroke-width:1.41728735"
         transform="matrix(0.37267168,0,0,-0.38017735,-81.030409,212.24867)"
         id="g424">
        <path
           inkscape:connector-curvature="0"
           id="path426"
           style="fill:#d3bc5f;fill-opacity:1;fill-rule:evenodd;stroke:none;stroke-width:1.41728735"
           d="m 0,0 c 0.65,-6.285 -0.879,-4.506 -3.135,0.422 -2.256,4.928 -3.903,9.845 -3.507,14.711 3.806,46.989 73.672,47.566 78.67,0 C 72.537,10.277 70.777,5.35 68.52,0.422 66.264,-4.506 64.736,-6.284 65.385,0 c 0.788,7.629 -0.388,18.609 -4.423,25.072 -7.143,11.436 -16.464,4.799 -29.1,4.799 -12.637,0 -18.56,5.157 -26.811,-5.398 C 0.05,18.075 -0.841,8.146 0,0" />
      </g>
      <g
         style="fill:#803300;fill-opacity:1;stroke-width:1.41728735"
         transform="matrix(0.33488652,0.11091972,0.11091971,-0.33488652,-66.344965,207.50414)"
         id="g432">
        <path
           inkscape:connector-curvature="0"
           id="path434"
           style="fill:#803300;fill-opacity:1;fill-rule:evenodd;stroke:none;stroke-width:1.41728735"
           d="M 0,0 C 2.042,2.667 6.814,2.735 9.772,0.973 11.253,0.09 10.332,-0.3 9.369,0.164 6.261,1.663 3.165,0.779 0.966,-1.228 -0.2,-2.293 -1.133,-1.482 0,0" />
      </g>
      <g
         style="fill:#803300;fill-opacity:1;stroke-width:1.41728735"
         transform="matrix(0.33205149,-0.11913848,-0.11913847,-0.33205149,-72.041835,207.46225)"
         id="g436">
        <path
           inkscape:connector-curvature="0"
           id="path438"
           style="fill:#803300;fill-opacity:1;fill-rule:evenodd;stroke:none;stroke-width:1.41728735"
           d="M 0,0 C -2.042,2.667 -6.814,2.735 -9.772,0.973 -11.253,0.09 -10.332,-0.3 -9.369,0.164 -6.261,1.663 -3.165,0.779 -0.966,-1.228 0.2,-2.293 1.133,-1.482 0,0" />
      </g>
      <g
         transform="matrix(0.35277778,0,0,-0.35277778,-79.353166,283.17493)"
         id="g440"
         style="stroke-width:1.41728735">
        <path
           inkscape:connector-curvature="0"
           id="path442"
           style="fill:#ff94a8;fill-opacity:1;fill-rule:evenodd;stroke:none;stroke-width:1.41728735"
           d="m 0,0 c -0.242,-0.468 -0.442,-0.943 -0.592,-1.428 -2.23,-7.199 5.57,-7.191 10.23,-6.069 4.879,1.173 6.955,4.426 9.633,5.198 3.526,1.017 5.208,2.608 5.599,5.287 C 21.131,0.08 15.473,-2.305 9.473,-4.277 6.921,-1.451 3.232,-0.045 0,0" />
      </g>
      <g
         transform="matrix(0.35277778,0,0,-0.35277778,-78.442237,282.10436)"
         id="g444"
         style="stroke-width:1.41728735">
        <path
           inkscape:connector-curvature="0"
           id="path446"
           style="fill:#ff94a8;fill-opacity:1;fill-rule:nonzero;stroke:none;stroke-width:1.41728735"
           d="m 0,0 c -0.243,-0.179 -0.587,-0.126 -0.766,0.118 -0.179,0.244 -0.125,0.588 0.118,0.767 0.43,0.314 1.099,0.594 1.908,0.805 L 1.247,1.689 C 1.088,1.675 0.938,1.73 0.828,1.831 0.773,1.866 0.721,1.913 0.678,1.97 0.499,2.214 0.553,2.558 0.796,2.737 1.331,3.128 2.319,3.539 3.511,3.856 3.425,3.853 3.337,3.846 3.248,3.838 2.947,3.811 2.68,4.033 2.654,4.334 2.627,4.635 2.849,4.902 3.149,4.929 4.01,5.008 4.763,4.921 5.425,4.719 V 3.137 C 4.611,3.014 3.84,2.834 3.181,2.629 3.65,2.504 4.078,2.322 4.468,2.098 4.785,2.101 5.107,2.094 5.425,2.074 V -0.165 C 5.198,0.111 4.946,0.377 4.667,0.616 4.509,0.752 4.341,0.88 4.164,0.997 2.357,0.939 0.721,0.528 0,0 M 5.425,4.719 C 5.749,4.621 6.05,4.495 6.333,4.348 L 6.415,4.355 C 8.215,4.499 10.074,4.326 11.436,3.574 11.701,3.428 11.797,3.095 11.652,2.829 11.506,2.564 11.173,2.467 10.908,2.613 10.053,3.083 8.931,3.283 7.75,3.301 8.496,2.568 9.029,1.714 9.448,0.997 9.646,0.831 9.705,0.544 9.578,0.31 9.432,0.045 9.099,-0.053 8.832,0.093 7.998,0.554 6.977,0.818 5.919,0.933 6.624,0.184 7.132,-0.658 7.531,-1.344 7.684,-1.606 7.594,-1.941 7.331,-2.093 7.07,-2.246 6.733,-2.156 6.581,-1.894 6.277,-1.369 5.903,-0.743 5.425,-0.165 V 2.074 C 6.189,2.027 6.953,1.914 7.673,1.72 7.379,2.11 7.045,2.489 6.653,2.816 6.479,2.962 6.291,3.099 6.091,3.222 5.867,3.198 5.645,3.169 5.425,3.137 Z" />
      </g>
      <g
         transform="matrix(0.35277778,0,0,-0.35277778,-58.728366,283.17493)"
         id="g448"
         style="stroke-width:1.41728735">
        <path
           inkscape:connector-curvature="0"
           id="path450"
           style="fill:#ff94a8;fill-opacity:1;fill-rule:evenodd;stroke:none;stroke-width:1.41728735"
           d="m 0,0 c 0.241,-0.468 0.442,-0.943 0.592,-1.428 2.23,-7.199 -5.397,-7.105 -10.058,-5.984 -4.879,1.174 -7.127,4.341 -9.804,5.113 -3.525,1.017 -5.209,2.608 -5.6,5.287 3.739,-2.908 9.397,-5.293 15.397,-7.265 C -6.921,-1.451 -3.232,-0.045 0,0" />
      </g>
      <g
         transform="matrix(0.35277778,0,0,-0.35277778,-61.553834,280.43942)"
         id="g452"
         style="stroke-width:1.41728735">
        <path
           inkscape:connector-curvature="0"
           id="path454"
           style="fill:#ff94a8;fill-opacity:1;fill-rule:nonzero;stroke:none;stroke-width:1.41728735"
           d="m 0,0 c -0.322,-0.098 -0.623,-0.225 -0.905,-0.371 l -0.083,0.007 c -1.8,0.143 -3.657,-0.03 -5.021,-0.781 -0.265,-0.146 -0.361,-0.48 -0.216,-0.745 0.147,-0.265 0.479,-0.363 0.746,-0.217 0.854,0.471 1.975,0.67 3.156,0.689 -0.746,-0.734 -1.279,-1.587 -1.698,-2.305 -0.198,-0.165 -0.257,-0.452 -0.129,-0.687 0.145,-0.265 0.48,-0.362 0.745,-0.216 0.834,0.46 1.855,0.724 2.913,0.84 -0.705,-0.749 -1.213,-1.592 -1.612,-2.277 -0.151,-0.262 -0.063,-0.598 0.2,-0.75 0.261,-0.152 0.598,-0.063 0.75,0.199 0.304,0.526 0.678,1.15 1.154,1.729 v 2.239 c -0.762,-0.046 -1.526,-0.16 -2.244,-0.353 0.292,0.389 0.628,0.769 1.018,1.096 0.176,0.146 0.362,0.283 0.562,0.405 C -0.44,-1.522 -0.218,-1.551 0,-1.583 Z m 5.427,-4.719 c 0.244,-0.179 0.587,-0.127 0.766,0.118 0.179,0.244 0.125,0.587 -0.118,0.766 -0.429,0.314 -1.099,0.594 -1.908,0.806 L 4.18,-3.03 c 0.159,-0.015 0.31,0.041 0.419,0.141 0.057,0.036 0.107,0.082 0.15,0.14 0.179,0.244 0.125,0.587 -0.118,0.766 -0.533,0.391 -1.523,0.803 -2.715,1.12 0.086,-0.004 0.174,-0.01 0.263,-0.018 0.301,-0.027 0.568,0.195 0.596,0.495 C 2.802,-0.084 2.58,0.182 2.278,0.209 1.417,0.289 0.664,0.201 0,0 V -1.583 C 0.816,-1.705 1.587,-1.885 2.247,-2.091 1.777,-2.215 1.349,-2.398 0.959,-2.621 0.642,-2.619 0.32,-2.626 0,-2.646 v -2.239 c 0.229,0.276 0.481,0.542 0.76,0.782 0.158,0.135 0.326,0.263 0.503,0.38 1.808,-0.057 3.443,-0.469 4.164,-0.996" />
      </g>
      <path
         inkscape:connector-curvature="0"
         id="path412-3"
         style="fill:#ffdd55;fill-opacity:1;fill-rule:evenodd;stroke:none;stroke-width:0.39998996"
         d="m -71.44761,238.36046 v 5.31652 h 1.424869 v -5.31652 z" />
      <g
         id="g17897"
         style="stroke-width:1.41728735">
        <g
           transform="matrix(0.00172103,0.09832007,-0.09825524,0.00172372,-14.149897,341.57587)"
           id="layer1-5"
           inkscape:label="Capa 1"
           style="stroke-width:4.06896114">
          <g
             transform="matrix(-0.27555178,0,0,0.35148038,-1272.3695,388.88577)"
             id="g4391"
             style="stroke-width:4.06896114">
            <ellipse
               style="color:#000000;clip-rule:nonzero;display:inline;overflow:visible;visibility:visible;opacity:1;isolation:auto;mix-blend-mode:normal;color-interpolation:sRGB;color-interpolation-filters:linearRGB;solid-color:#000000;solid-opacity:1;fill:#798486;fill-opacity:1;fill-rule:nonzero;stroke:#71716f;stroke-width:1.74523759;stroke-linecap:round;stroke-linejoin:round;stroke-miterlimit:4;stroke-dasharray:none;stroke-dashoffset:0;stroke-opacity:1;color-rendering:auto;image-rendering:auto;shape-rendering:auto;text-rendering:auto;enable-background:accumulate"
               id="path4147"
               cx="-592.95959"
               cy="264.94827"
               rx="64.660301"
               ry="63.397614" />
            <path
               inkscape:connector-curvature="0"
               style="color:#000000;font-style:normal;font-variant:normal;font-weight:normal;font-stretch:normal;font-size:medium;line-height:normal;font-family:sans-serif;text-indent:0;text-align:start;text-decoration:none;text-decoration-line:none;text-decoration-style:solid;text-decoration-color:#000000;letter-spacing:normal;word-spacing:normal;text-transform:none;writing-mode:lr-tb;direction:ltr;baseline-shift:baseline;text-anchor:start;white-space:normal;clip-rule:nonzero;display:inline;overflow:visible;visibility:visible;opacity:1;isolation:auto;mix-blend-mode:normal;color-interpolation:sRGB;color-interpolation-filters:linearRGB;solid-color:#000000;solid-opacity:1;fill:#b2b5ae;fill-opacity:1;fill-rule:evenodd;stroke:none;stroke-width:20.34480476;stroke-linecap:butt;stroke-linejoin:miter;stroke-miterlimit:4;stroke-dasharray:none;stroke-dashoffset:0;stroke-opacity:1;color-rendering:auto;image-rendering:auto;shape-rendering:auto;text-rendering:auto;enable-background:accumulate"
               d="m -592.95898,201.55078 a 64.660301,63.397614 0 0 0 -1.49024,0.0508 v 1.24805 h -9.52148 v -0.37305 a 64.660301,63.397614 0 0 0 -19.52149,6.64844 v 8.24609 h -9.51953 v -2.18164 a 64.660301,63.397614 0 0 0 -7.75586,7.18164 h 2.75586 v 9.51953 h -9.52148 v -0.81054 a 64.660301,63.397614 0 0 0 -5,9.22656 v 6.10547 h -2.25196 a 64.660301,63.397614 0 0 0 -1.30078,5 h 3.55274 v 9.52148 h -4.88086 a 64.660301,63.397614 0 0 0 -0.20508,4.01563 64.660301,63.397614 0 0 0 0.0352,0.98437 h 5.05078 v 9.51953 h -4.17969 a 64.660301,63.397614 0 0 0 1.11719,5 h 3.0625 v 8.98438 a 64.660301,63.397614 0 0 0 5,9.48438 v -3.94727 h 9.52148 v 9.52148 h -5.47266 a 64.660301,63.397614 0 0 0 4.55469,5 h 0.91797 v 0.83789 a 64.660301,63.397614 0 0 0 5,4.29883 v -5.13672 h 9.51953 v 9.52149 h -3.07422 a 64.660301,63.397614 0 0 0 10.31641,5 h 7.2793 v 2.27148 a 64.660301,63.397614 0 0 0 5,1.06446 v -3.33594 h 9.52148 v 4.25586 a 64.660301,63.397614 0 0 0 1.49024,0.0723 64.660301,63.397614 0 0 0 3.50976,-0.12109 v -4.20703 h 9.52149 v 2.95703 a 64.660301,63.397614 0 0 0 5,-1.17773 v -1.7793 h 5.44335 a 64.660301,63.397614 0 0 0 10.17579,-5 h -1.09961 v -9.52149 h 9.52148 v 3.4961 a 64.660301,63.397614 0 0 0 8.38672,-8.4961 h -3.38672 v -9.52148 h 9.52149 v 0.60742 a 64.660301,63.397614 0 0 0 5,-11.42187 v -3.70704 h 1.01953 a 64.660301,63.397614 0 0 0 1.08008,-5 h -2.09961 v -9.51953 h 3.01562 a 64.660301,63.397614 0 0 0 0.0508,-0.98437 64.660301,63.397614 0 0 0 -0.14453,-4.01563 h -2.92187 v -9.52148 h 1.49218 a 64.660301,63.397614 0 0 0 -1.31836,-5 h -0.17382 v -0.51563 a 64.660301,63.397614 0 0 0 -6.48633,-14.00586 h -8.03516 v -9.51953 h 0.73828 a 64.660301,63.397614 0 0 0 -5.73828,-5.53125 v 0.53125 h -9.52148 v -7.12695 a 64.660301,63.397614 0 0 0 -19.56446,-7.39453 h -9.47656 v -1.12695 a 64.660301,63.397614 0 0 0 -3.50976,-0.17188 z m -25.53321,6.29883 h 9.52149 v 9.52148 h -9.52149 z m 14.52149,0 h 9.52148 v 9.52148 h -9.52148 z m 14.52148,0 h 9.52149 v 9.52148 h -9.52149 z m 14.52149,0 h 9.51953 v 9.52148 h -9.51953 z m -58.08399,14.52148 h 9.51953 v 9.51953 h -9.51953 z m 14.51953,0 h 9.52149 v 9.51953 h -9.52149 z m 14.52149,0 h 9.52148 v 9.51953 h -9.52148 z m 14.52148,0 h 9.52149 v 9.51953 h -9.52149 z m 14.52149,0 h 9.51953 v 9.51953 h -9.51953 z m 14.51953,0 h 9.52148 v 9.51953 h -9.52148 z m -87.125,14.51953 h 9.52148 v 9.52149 h -9.52148 z m 14.52148,0 h 9.51953 v 9.52149 h -9.51953 z m 14.51953,0 h 9.52149 v 9.52149 h -9.52149 z m 14.52149,0 h 9.52148 v 9.52149 h -9.52148 z m 14.52148,0 h 9.52149 v 9.52149 h -9.52149 z m 14.52149,0 h 9.51953 v 9.52149 h -9.51953 z m 14.51953,0 h 9.52148 v 9.52149 h -9.52148 z m 14.52148,0 h 9.52149 v 9.52149 h -9.52149 z m -101.64648,14.52149 h 9.52148 v 9.52148 h -9.52148 z m 14.52148,0 h 9.51953 v 9.52148 h -9.51953 z m 14.51953,0 h 9.52149 v 9.52148 h -9.52149 z m 14.52149,0 h 9.52148 v 9.52148 h -9.52148 z m 14.52148,0 h 9.52149 v 9.52148 h -9.52149 z m 14.52149,0 h 9.51953 v 9.52148 h -9.51953 z m 14.51953,0 h 9.52148 v 9.52148 h -9.52148 z m 14.52148,0 h 9.52149 v 9.52148 h -9.52149 z m -101.64648,14.52148 h 9.52148 v 9.51953 h -9.52148 z m 14.52148,0 h 9.51953 v 9.51953 h -9.51953 z m 14.51953,0 h 9.52149 v 9.51953 h -9.52149 z m 14.52149,0 h 9.52148 v 9.51953 h -9.52148 z m 14.52148,0 h 9.52149 v 9.51953 h -9.52149 z m 14.52149,0 h 9.51953 v 9.51953 h -9.51953 z m 14.51953,0 h 9.52148 v 9.51953 h -9.52148 z m 14.52148,0 h 9.52149 v 9.51953 h -9.52149 z m -101.64648,14.51953 h 9.52148 v 9.52149 h -9.52148 z m 14.52148,0 h 9.51953 v 9.52149 h -9.51953 z m 14.51953,0 h 9.52149 v 9.52149 h -9.52149 z m 14.52149,0 h 9.52148 v 9.52149 h -9.52148 z m 14.52148,0 h 9.52149 v 9.52149 h -9.52149 z m 14.52149,0 h 9.51953 v 9.52149 h -9.51953 z m 14.51953,0 h 9.52148 v 9.52149 h -9.52148 z m 14.52148,0 h 9.52149 v 9.52149 h -9.52149 z m -87.125,14.52149 h 9.51953 v 9.52148 h -9.51953 z m 14.51953,0 h 9.52149 v 9.52148 h -9.52149 z m 14.52149,0 h 9.52148 v 9.52148 h -9.52148 z m 14.52148,0 h 9.52149 v 9.52148 h -9.52149 z m 14.52149,0 h 9.51953 v 9.52148 h -9.51953 z m 14.51953,0 h 9.52148 v 9.52148 h -9.52148 z m -58.08399,14.52148 h 9.52149 v 9.52149 h -9.52149 z m 14.52149,0 h 9.52148 v 9.52149 h -9.52148 z m 14.52148,0 h 9.52149 v 9.52149 h -9.52149 z m 14.52149,0 h 9.51953 v 9.52149 h -9.51953 z"
               id="path4149" />
            <path
               style="fill:#283a44;fill-opacity:1;fill-rule:evenodd;stroke:none;stroke-width:4.06896114px;stroke-linecap:butt;stroke-linejoin:miter;stroke-opacity:1"
               d="m -701.78572,312.3622 c 2.5,-1.42857 33.97337,-35.13663 46.07143,-44.64285 20.51086,15.89555 44.682,44.49035 60.35715,60 -14.04315,17.35112 -33.36231,34.85207 -46.78571,45.71428 -14.84016,-13.37231 -48.92386,-46.53333 -59.64287,-61.07143 z"
               id="path4377"
               inkscape:connector-curvature="0"
               sodipodi:nodetypes="ccccc" />
            <path
               style="fill:#283a44;fill-opacity:1;fill-rule:evenodd;stroke:none;stroke-width:4.06896114px;stroke-linecap:butt;stroke-linejoin:miter;stroke-opacity:1"
               d="m -862.1652,484.65647 c 40.72577,-42.52123 122.43859,-128.22048 163.13964,-169.34848 24.37951,23.37101 42.49229,41.01464 56.06346,56.46394 -68.56305,67.09775 -139.78893,134.25445 -170.08443,163.39217 -19.64351,-19.85491 -27.34484,-25.00296 -49.11867,-50.50763 z"
               id="path4379"
               inkscape:connector-curvature="0"
               sodipodi:nodetypes="ccccc" />
            <path
               style="fill:#283a44;fill-opacity:1;fill-rule:evenodd;stroke:none;stroke-width:4.06896114px;stroke-linecap:butt;stroke-linejoin:miter;stroke-opacity:1"
               d="m -916.20836,549.30624 c 4.30389,-4.54235 40.57992,-45.73368 57.83123,-61.61931 19.7355,15.99808 32.40984,28.00214 42.17387,43.6891 -17.22595,17.45473 -48.32634,45.18417 -61.36676,56.56854 -6.65999,-6.58603 -38.63834,-38.63833 -38.63834,-38.63833 z"
               id="path4381"
               inkscape:connector-curvature="0"
               sodipodi:nodetypes="ccccc" />
            <ellipse
               style="color:#000000;clip-rule:nonzero;display:inline;overflow:visible;visibility:visible;opacity:1;isolation:auto;mix-blend-mode:normal;color-interpolation:sRGB;color-interpolation-filters:linearRGB;solid-color:#000000;solid-opacity:1;fill:#283a41;fill-opacity:1;fill-rule:nonzero;stroke:none;stroke-width:2.12531996;stroke-linecap:round;stroke-linejoin:round;stroke-miterlimit:4;stroke-dasharray:none;stroke-dashoffset:0;stroke-opacity:1;color-rendering:auto;image-rendering:auto;shape-rendering:auto;text-rendering:auto;enable-background:accumulate"
               id="path4383"
               cx="-904.21277"
               cy="576.07532"
               rx="23.071077"
               ry="23.576153" />
            <path
               style="fill:#afb4b0;fill-opacity:1;fill-rule:evenodd;stroke:none;stroke-width:4.06896114px;stroke-linecap:butt;stroke-linejoin:miter;stroke-opacity:1"
               d="m -681.78572,292.00506 9.82143,-10.35714 61.96429,62.14285 -10.17857,10.71429 z"
               id="path4387"
               inkscape:connector-curvature="0" />
            <path
               style="fill:#dfe0db;fill-opacity:1;fill-rule:evenodd;stroke:none;stroke-width:4.06896114px;stroke-linecap:butt;stroke-linejoin:miter;stroke-opacity:1"
               d="m -646.49763,226.05742 c 3.58659,-3.9751 3.78807,-6.06091 10.22779,-9.84899 1.01015,0.75762 64.25126,62.64108 93.06031,92.42896 l -10.35407,10.85914 c -28.92629,-29.89382 -47.69363,-47.01293 -92.93403,-93.43911 z"
               id="path4389"
               inkscape:connector-curvature="0"
               sodipodi:nodetypes="ccccc" />
            <path
               style="fill:#aeb5b1;fill-opacity:1;fill-rule:evenodd;stroke:none;stroke-width:4.12603998px;stroke-linecap:butt;stroke-linejoin:miter;stroke-opacity:1"
               d="m -877.66869,542.8948 22.97738,-23.37992 7.35995,7.30623 -23.15691,23.74522 z"
               id="path4385"
               inkscape:connector-curvature="0" />
          </g>
        </g>
      </g>
      <g
         style="stroke-width:0.79495907"
         transform="matrix(1.7845707,-0.24770583,0.24255327,1.7474496,-60.698505,-132.80772)"
         id="g17249">
        <path
           transform="matrix(0.14719766,0.01728536,0.01728536,-0.14719766,-30.886184,207.63081)"
           d="m -30.276251,-4.4566672 -2.688528,-0.8737025 0.309643,-8.7730623 4.78237,-7.392779 2.689529,0.873726 c 11.887842,3.848511 8.653302,20.63375117 -5.093014,16.1658178"
           style="fill:#fcdabe;fill-opacity:1;fill-rule:evenodd;stroke:none;stroke-width:1.89221823"
           id="path532"
           inkscape:connector-curvature="0" />
        <g
           id="g534"
           transform="matrix(0.02272863,-0.14645595,-0.14645595,-0.02272863,-35.678327,207.82142)"
           style="fill:#fcdabe;fill-opacity:1;stroke-width:1.89221823">
          <path
             d="m 0,0 -7.386,26.017 c -1.299,4.578 -6.206,7.18 -10.768,5.819 -4.561,-1.36 -7.18,-6.207 -5.819,-10.767 l 7.688,-25.766 z"
             style="fill:#fcdabe;fill-opacity:1;fill-rule:evenodd;stroke:none;stroke-width:1.89221823"
             id="path536"
             inkscape:connector-curvature="0" />
        </g>
      </g>
    </g>
  </g>
</svg>
