<?xml version="1.0" encoding="UTF-8" standalone="no"?>
<!-- Created with Inkscape (http://www.inkscape.org/) -->

<svg
   xmlns:dc="http://purl.org/dc/elements/1.1/"
   xmlns:cc="http://creativecommons.org/ns#"
   xmlns:rdf="http://www.w3.org/1999/02/22-rdf-syntax-ns#"
   xmlns:svg="http://www.w3.org/2000/svg"
   xmlns="http://www.w3.org/2000/svg"
   xmlns:sodipodi="http://sodipodi.sourceforge.net/DTD/sodipodi-0.dtd"
   xmlns:inkscape="http://www.inkscape.org/namespaces/inkscape"
   width="31.044445mm"
   height="39.584534mm"
   viewBox="0 0 110 140.26016"
   id="svg24999"
   version="1.1"
   inkscape:version="0.91 r13725"
   sodipodi:docname="ajedrez.svg">
  <defs
     id="defs25001" />
  <sodipodi:namedview
     id="base"
     pagecolor="#ffffff"
     bordercolor="#666666"
     borderopacity="1.0"
     inkscape:pageopacity="0.0"
     inkscape:pageshadow="2"
     inkscape:zoom="2.8"
     inkscape:cx="-0.55865421"
     inkscape:cy="38.217292"
     inkscape:document-units="px"
     inkscape:current-layer="layer1"
     showgrid="false"
     fit-margin-top="0"
     fit-margin-left="0"
     fit-margin-right="0"
     fit-margin-bottom="0"
     inkscape:window-width="1366"
     inkscape:window-height="710"
     inkscape:window-x="0"
     inkscape:window-y="25"
     inkscape:window-maximized="1" />
  <metadata
     id="metadata25004">
    <rdf:RDF>
      <cc:Work
         rdf:about="">
        <dc:format>image/svg+xml</dc:format>
        <dc:type
           rdf:resource="http://purl.org/dc/dcmitype/StillImage" />
        <dc:title></dc:title>
      </cc:Work>
    </rdf:RDF>
  </metadata>
  <g
     inkscape:label="Capa 1"
     inkscape:groupmode="layer"
     id="layer1"
     transform="translate(-210.70283,-466.60151)">
    <g
       id="g4135"
       transform="matrix(1.8773133,0,0,1.8773133,-184.85241,-532.40783)"
       inkscape:export-xdpi="90"
       inkscape:export-ydpi="90">
      <path
         d="m 239.43302,601.73644 c -0.712,-0.49867 -1.14,-0.748 -0.49866,-1.63867 0.64133,-0.89067 0.64133,-2.352 -0.748,-3.42133 -1.39067,-1.06934 -3.02934,-2.38667 -3.34934,-3.77734 -0.32133,-1.38933 -1.616,-1.67466 -2.19733,-2.42266 -0.58267,-0.748 -1.26,-1.74534 -1.58,-4.91734 -0.32133,-3.17066 -1.568,-11.75866 -1.35467,-15.35733 0.21467,-3.6 0.49867,-6.34266 0.49867,-6.34266 0,0 2.67333,-0.21467 3.84933,-0.464 1.176,-0.24934 1.03334,-2.38667 0.0347,-2.60134 -0.99733,-0.21333 -1.152,-0.392 -1.448,-1.068 -0.29733,-0.67733 -1.40266,-0.74933 -1.72266,-0.99866 -0.32134,-0.24934 -0.392,-0.748 0.0707,-0.89067 0.464,-0.14267 0.74933,-1.14 0.24933,-1.35333 -0.49866,-0.21467 -0.10666,-1.14134 0.28534,-2.17467 0,0 0.71333,-2.672 1.74666,-4.38267 1.03334,-1.71066 2.81467,-4.276 1.176,-5.13066 -1.64,-0.856 -6.52133,-1.96 -6.52133,-1.96 0,0 0.428,-0.24934 0.17867,-0.67734 -0.24934,-0.428 -0.28534,-0.64133 -0.28534,-0.64133 0,0 0.49867,0.036 0.85467,-0.356 0.35733,-0.392 -1.24667,-2.744 -1.24667,-2.744 0,0 1.78134,1.28267 2.13734,1.212 0.35733,-0.072 0.67733,-5.024 0.108,-5.06 -0.57067,-0.036 -2.49467,1.31867 -2.49467,1.31867 0,0 1.81733,-2.67334 1.568,-2.95867 -0.23334,-0.26667 -2.50934,-0.78 -3.17068,-0.78 -0.66,0 -2.936,0.51333 -3.16933,0.78 -0.24933,0.28533 1.568,2.95867 1.568,2.95867 0,0 -1.924,-1.35467 -2.49467,-1.31867 -0.56933,0.036 -0.24933,4.988 0.10667,5.06 0.35733,0.0707 2.13867,-1.212 2.13867,-1.212 0,0 -1.604,2.352 -1.248,2.744 0.35733,0.392 0.856,0.356 0.856,0.356 0,0 -0.036,0.21333 -0.28534,0.64133 -0.24933,0.428 0.17867,0.67734 0.17867,0.67734 0,0 -4.88267,1.104 -6.52133,1.96 -1.63867,0.85466 0.14266,3.42 1.176,5.13066 1.03333,1.71067 1.74666,4.38267 1.74666,4.38267 0.39067,1.03333 0.78267,1.96 0.284,2.17467 -0.49866,0.21333 -0.21333,1.21066 0.24934,1.35333 0.464,0.14267 0.392,0.64133 0.072,0.89067 -0.32134,0.24933 -1.42534,0.32133 -1.72267,0.99866 -0.29733,0.676 -0.45067,0.85467 -1.44933,1.068 -0.99734,0.21467 -1.14,2.352 0.036,2.60134 1.176,0.24933 3.848,0.464 3.848,0.464 0,0 0.28533,2.74266 0.5,6.34266 0.21333,3.59867 -1.03467,12.18667 -1.35467,15.35733 -0.32133,3.172 -0.99733,4.16934 -1.58,4.91734 -0.58133,0.748 -1.876,1.03333 -2.19733,2.42266 -0.32,1.39067 -1.96,2.708 -3.34934,3.77734 -1.38933,1.06933 -1.38933,2.53066 -0.748,3.42133 0.64134,0.89067 0.21334,1.14 -0.49866,1.63867 -0.71334,0.49866 -2.15734,2.79066 0.648,3.67333 2.38133,0.748 11.72133,1.19067 13.21066,1.19067 1.48934,0 10.83067,-0.44267 13.21067,-1.19067 2.80667,-0.88267 1.36267,-3.17467 0.64933,-3.67333"
         style="fill:#000000;fill-opacity:1;fill-rule:nonzero;stroke:none"
         id="path36524"
         inkscape:connector-curvature="0" />
      <path
         d="m 268.07616,603.1523 c -0.96534,-0.84 -0.42,-0.88133 0.0413,-1.55333 0.46266,-0.67067 0.63066,-1.76267 -0.46134,-2.476 -1.09066,-0.71333 -1.93066,-0.71333 -2.56,-1.76133 -0.62933,-1.04934 -0.62933,-1.93067 -1.00666,-2.224 -0.37734,-0.29467 -1.30134,-0.252 -1.30134,-0.252 0,0 -0.79733,-0.88134 -1.552,-4.11334 -0.756,-3.23066 -1.00666,-9.232 -1.00666,-9.232 0,0 2.89466,0.0427 4.06933,-0.54533 1.176,-0.588 0.62933,-1.00667 -0.58667,-2.01467 -0.66666,-0.55199 -1.636,-1.36799 -2.37733,-1.99333 1.156,-1.19333 1.868,-2.81866 1.868,-4.61066 0,-3.65867 -2.96533,-6.624 -6.62533,-6.624 -3.65867,0 -6.62534,2.96533 -6.62534,6.624 0,1.792 0.712,3.41733 1.868,4.61066 -0.74,0.62534 -1.70933,1.44134 -2.376,1.99333 -1.21733,1.008 -1.76266,1.42667 -0.588,2.01467 1.17467,0.588 4.07067,0.54533 4.07067,0.54533 0,0 -0.252,6.00134 -1.00667,9.232 -0.756,3.232 -1.55333,4.11334 -1.55333,4.11334 0,0 -0.92267,-0.0427 -1.3,0.252 -0.37867,0.29333 -0.37867,1.17466 -1.008,2.224 -0.62933,1.048 -1.468,1.048 -2.56,1.76133 -1.09067,0.71333 -0.92267,1.80533 -0.46133,2.476 0.46133,0.672 1.008,0.71333 0.0427,1.55333 -0.96534,0.83867 -1.93067,1.28 -0.48267,2.53867 1.448,1.25867 11.12533,1.16933 11.98,1.16933 0.856,0 10.53333,0.0893 11.98133,-1.16933 1.448,-1.25867 0.48267,-1.7 -0.48266,-2.53867"
         style="fill:#000000;fill-opacity:1;fill-rule:nonzero;stroke:none"
         id="path36552"
         inkscape:connector-curvature="0" />
    </g>
  </g>
</svg>
