<?xml version="1.0" encoding="UTF-8" standalone="no"?>
<!-- Created with Inkscape (http://www.inkscape.org/) -->

<svg
   xmlns:dc="http://purl.org/dc/elements/1.1/"
   xmlns:cc="http://creativecommons.org/ns#"
   xmlns:rdf="http://www.w3.org/1999/02/22-rdf-syntax-ns#"
   xmlns:svg="http://www.w3.org/2000/svg"
   xmlns="http://www.w3.org/2000/svg"
   xmlns:sodipodi="http://sodipodi.sourceforge.net/DTD/sodipodi-0.dtd"
   xmlns:inkscape="http://www.inkscape.org/namespaces/inkscape"
   width="31.044445mm"
   height="18.294485mm"
   viewBox="0 0 110 64.822976"
   id="svg14005"
   version="1.1"
   inkscape:version="0.91 r13725"
   sodipodi:docname="avion-naranja.svg">
  <defs
     id="defs14007" />
  <sodipodi:namedview
     id="base"
     pagecolor="#ffffff"
     bordercolor="#666666"
     borderopacity="1.0"
     inkscape:pageopacity="0.0"
     inkscape:pageshadow="2"
     inkscape:zoom="0.35"
     inkscape:cx="-599.26631"
     inkscape:cy="-210.49317"
     inkscape:document-units="px"
     inkscape:current-layer="layer1"
     showgrid="false"
     fit-margin-top="0"
     fit-margin-left="0"
     fit-margin-right="0"
     fit-margin-bottom="0"
     inkscape:window-width="1366"
     inkscape:window-height="710"
     inkscape:window-x="0"
     inkscape:window-y="25"
     inkscape:window-maximized="1" />
  <metadata
     id="metadata14010">
    <rdf:RDF>
      <cc:Work
         rdf:about="">
        <dc:format>image/svg+xml</dc:format>
        <dc:type
           rdf:resource="http://purl.org/dc/dcmitype/StillImage" />
        <dc:title></dc:title>
      </cc:Work>
    </rdf:RDF>
  </metadata>
  <g
     inkscape:label="Capa 1"
     inkscape:groupmode="layer"
     id="layer1"
     transform="translate(-282.83774,-257.04605)">
    <g
       id="g14965"
       transform="matrix(0.41845781,0,0,0.41845781,164.48208,187.18042)"
       inkscape:export-xdpi="90"
       inkscape:export-ydpi="90">
      <path
         d="m 535.98333,249.94635 c -2.13333,6.35067 -3.59066,19.10533 -3.59066,33.81867 0,21.044 2.98133,38.104 6.65733,38.104 3.676,0 6.65733,-17.06 6.65733,-38.104 0,-14.02267 -1.324,-26.268 -3.296,-32.884 -0.76533,0.37067 -1.61466,0.59733 -2.52266,0.59733 -1.50934,0 -2.872,-0.58933 -3.90534,-1.532"
         style="fill:#f7931e;fill-opacity:1;fill-rule:nonzero;stroke:none"
         id="path162"
         inkscape:connector-curvature="0" />
      <path
         d="m 542.41173,240.43929 c 1.972,-6.616 3.296,-18.86134 3.296,-32.884 0,-21.04534 -2.98266,-38.10534 -6.65733,-38.10534 -3.676,0 -6.65867,17.06 -6.65867,38.10534 0,14.712 1.45867,27.468 3.592,33.81733 1.03333,-0.94133 2.39599,-1.53067 3.904,-1.53067 0.90934,0 1.75867,0.22667 2.524,0.59734"
         style="fill:#f7931e;fill-opacity:1;fill-rule:nonzero;stroke:none"
         id="path166"
         inkscape:connector-curvature="0" />
      <path
         d="m 392.29014,184.99635 c -27.928,-16.37866 -57.29735,-20.65866 -65.92267,-13.81733 -7.60266,6.028 8.972,24.872 26.34667,41.348 9.28933,-1.36667 19.028,-2.55067 28.84533,-3.53067 1.44667,-9.04 5.24267,-17.268 10.73067,-24"
         style="fill:#fc7e56;fill-opacity:1;fill-rule:nonzero;stroke:none"
         id="path170"
         inkscape:connector-curvature="0" />
      <path
         inkscape:connector-curvature="0"
         id="path180"
         style="fill:#f15a24;fill-opacity:1;fill-rule:nonzero;stroke:none"
         d="m 441.56147,205.74915 c 8.89733,0 17.02,0.29067 24.43333,0.84 -3.84666,-13.79066 -15.00133,-24.41466 -28.9,-27.188 l 0,26.37334 c 1.508,-0.0147 3.00267,-0.0253 4.46667,-0.0253" />
      <path
         inkscape:connector-curvature="0"
         id="path196"
         style="fill:#f15a24;fill-opacity:1;fill-rule:nonzero;stroke:none"
         d="m 424.16574,206.07729 0,-26.90934 c -15.02934,2.36 -27.12667,13.82667 -30.73334,28.74534 10.504,-0.868 20.90134,-1.488 30.73334,-1.836" />
      <path
         d="m 527.822,227.93648 c 1.60532,1.964 2.87199,4.02001 3.836,6.15067 -0.96133,-2.13066 -2.23334,-4.18533 -3.836,-6.15067"
         style="fill:#c1272d;fill-opacity:1;fill-rule:nonzero;stroke:none"
         id="path206"
         inkscape:connector-curvature="0" />
      <path
         d="m 424.16574,179.16782 0,26.90933 c -9.832,0.348 -20.22934,0.968 -30.73334,1.836 3.60667,-14.91733 15.704,-26.384 30.73334,-28.74533 m 41.82933,27.42133 c -7.41333,-0.54933 -15.536,-0.84 -24.43333,-0.84 -1.464,0 -2.95867,0.0133 -4.46667,0.0253 l 0,-26.37333 c 13.89867,2.77333 25.05333,13.39733 28.9,27.188 m 12.00533,1.19866 c -4.29467,-23.24399 -24.19601,-40.82799 -48.116,-40.82799 -15.10533,0 -28.60933,7.01467 -37.59466,18.036 -5.488,6.73333 -9.284,14.96 -10.73067,24.00133 -9.816,0.97867 -19.556,2.164 -28.84533,3.52934 -14.256,2.096 -27.44267,4.61733 -38.148,7.48533 -9.508,2.54666 -17.064,-36.10133 -31.728,-33.072 l 0,75.97333 c 1.87867,0.82667 3.94,1.636 6.16,2.428 3.55333,-6.16667 11.668,-12.48133 11.668,-12.48133 l 19.17067,2.11333 c 0,0 -6.44134,9.148 -13.996,15.34267 9.712,2.42933 20.84133,4.63333 32.73466,6.56133 17.31333,-17.46933 39.012,-34.676 39.012,-34.676 l 55.36533,5.47733 c -7.07066,14.65067 -17.348,26.79867 -28.90266,36.53067 13.32666,0.88533 26.12266,1.36267 37.512,1.36267 29.43466,0 50.43999,-3.16534 64.93466,-8.46 l 0,-62.90267 c -7.60667,-2.77866 -17.01867,-4.96666 -28.496,-6.42133"
         style="fill:#f15a24;fill-opacity:1;fill-rule:nonzero;stroke:none"
         id="path210"
         inkscape:connector-curvature="0" />
      <path
         d="m 524.09027,224.07969 c 0.63599,0.56133 1.23866,1.13466 1.80665,1.716 -0.56799,-0.58134 -1.17066,-1.15334 -1.80665,-1.716"
         style="fill:#c1272d;fill-opacity:1;fill-rule:nonzero;stroke:none"
         id="path214"
         inkscape:connector-curvature="0" />
      <path
         d="m 523.94439,267.37088 c -4.248,3.71467 -9.96933,7.004 -17.41733,9.728 7.448,-2.724 13.17333,-6.01066 17.41733,-9.728"
         style="fill:#c1272d;fill-opacity:1;fill-rule:nonzero;stroke:none"
         id="path218"
         inkscape:connector-curvature="0" />
      <path
         d="m 506.5212,214.21849 c 7.45066,2.72399 13.17332,6.01466 17.42267,9.73066 -4.24534,-3.71733 -9.972,-7.00667 -17.42267,-9.73066"
         style="fill:#c1272d;fill-opacity:1;fill-rule:nonzero;stroke:none"
         id="path222"
         inkscape:connector-curvature="0" />
      <path
         d="m 525.8988,265.52328 c -0.57067,0.58267 -1.172,1.15467 -1.808,1.71734 0.63467,-0.56267 1.23867,-1.13467 1.808,-1.71734"
         style="fill:#c1272d;fill-opacity:1;fill-rule:nonzero;stroke:none"
         id="path226"
         inkscape:connector-curvature="0" />
      <path
         d="m 527.68267,263.54928 c -0.496,0.59734 -1.02267,1.18667 -1.58001,1.768 0.55733,-0.58133 1.08533,-1.17066 1.58001,-1.768"
         style="fill:#c1272d;fill-opacity:1;fill-rule:nonzero;stroke:none"
         id="path230"
         inkscape:connector-curvature="0" />
      <path
         d="m 533.31293,239.00502 c 0.112,0.47867 0.20667,0.96133 0.29333,1.44667 -0.0867,-0.48534 -0.18267,-0.968 -0.29333,-1.44667"
         style="fill:#c1272d;fill-opacity:1;fill-rule:nonzero;stroke:none"
         id="path234"
         inkscape:connector-curvature="0" />
      <path
         d="m 533.73733,241.21262 c 0.076,0.50933 0.13199,1.02266 0.17999,1.53867 -0.048,-0.51601 -0.104,-1.02934 -0.17999,-1.53867"
         style="fill:#c1272d;fill-opacity:1;fill-rule:nonzero;stroke:none"
         id="path238"
         inkscape:connector-curvature="0" />
      <path
         d="m 534.06947,245.66062 c 0,-0.74933 -0.0307,-1.49333 -0.084,-2.23333 0.0533,0.74 0.084,1.48399 0.084,2.23333"
         style="fill:#c1272d;fill-opacity:1;fill-rule:nonzero;stroke:none"
         id="path242"
         inkscape:connector-curvature="0" />
      <path
         d="m 531.658,257.23222 c -0.96267,2.132 -2.232,4.188 -3.836,6.15333 1.60266,-1.96533 2.87467,-4.02133 3.836,-6.15333"
         style="fill:#c1272d;fill-opacity:1;fill-rule:nonzero;stroke:none"
         id="path246"
         inkscape:connector-curvature="0" />
      <path
         d="m 526.10199,226.00435 c 0.55867,0.58 1.08267,1.168 1.57867,1.764 -0.49467,-0.59733 -1.02134,-1.184 -1.57867,-1.764"
         style="fill:#c1272d;fill-opacity:1;fill-rule:nonzero;stroke:none"
         id="path250"
         inkscape:connector-curvature="0" />
      <path
         d="m 531.81812,234.47035 c 0.24135,0.55733 0.46534,1.11733 0.664,1.68267 -0.19866,-0.56667 -0.42265,-1.12534 -0.664,-1.68267"
         style="fill:#c1272d;fill-opacity:1;fill-rule:nonzero;stroke:none"
         id="path254"
         inkscape:connector-curvature="0" />
      <path
         d="m 532.69186,236.78488 c 0.16,0.49201 0.30666,0.98667 0.43733,1.48534 -0.13067,-0.49867 -0.27733,-0.99334 -0.43733,-1.48534"
         style="fill:#c1272d;fill-opacity:1;fill-rule:nonzero;stroke:none"
         id="path258"
         inkscape:connector-curvature="0" />
      <path
         d="m 533.13067,253.04995 c -0.132,0.5 -0.27868,0.99467 -0.43867,1.48667 0.15999,-0.492 0.30667,-0.98667 0.43867,-1.48667"
         style="fill:#c1272d;fill-opacity:1;fill-rule:nonzero;stroke:none"
         id="path262"
         inkscape:connector-curvature="0" />
      <path
         d="m 533.60572,250.86822 c -0.0853,0.48533 -0.18133,0.968 -0.29332,1.448 0.11067,-0.48 0.20799,-0.96267 0.29332,-1.448"
         style="fill:#c1272d;fill-opacity:1;fill-rule:nonzero;stroke:none"
         id="path266"
         inkscape:connector-curvature="0" />
      <path
         d="m 534.06947,245.66062 c 0,0.74933 -0.0307,1.49333 -0.084,2.232 0.0533,-0.73867 0.084,-1.48267 0.084,-2.232"
         style="fill:#c1272d;fill-opacity:1;fill-rule:nonzero;stroke:none"
         id="path270"
         inkscape:connector-curvature="0" />
      <path
         d="m 532.48333,255.16648 c -0.20133,0.56667 -0.424,1.12934 -0.66666,1.68667 0.24132,-0.55733 0.46666,-1.12 0.66666,-1.68667"
         style="fill:#c1272d;fill-opacity:1;fill-rule:nonzero;stroke:none"
         id="path274"
         inkscape:connector-curvature="0" />
      <path
         d="m 533.91707,248.56862 c -0.048,0.516 -0.104,1.03066 -0.18,1.54 0.076,-0.50933 0.132,-1.024 0.18,-1.54"
         style="fill:#c1272d;fill-opacity:1;fill-rule:nonzero;stroke:none"
         id="path278"
         inkscape:connector-curvature="0" />
      <path
         d="m 533.91707,242.75115 c -0.048,-0.51467 -0.104,-1.02933 -0.18,-1.53867 -0.0387,-0.25466 -0.0853,-0.508 -0.13067,-0.76133 -0.0867,-0.484 -0.18133,-0.96667 -0.29333,-1.44666 -0.0573,-0.24534 -0.11867,-0.48934 -0.184,-0.73467 -0.13067,-0.49734 -0.27734,-0.99333 -0.43734,-1.48534 -0.0693,-0.21066 -0.136,-0.42133 -0.20933,-0.63066 -0.2,-0.56667 -0.424,-1.12667 -0.664,-1.684 -0.0547,-0.12667 -0.10267,-0.25467 -0.16,-0.38267 -0.964,-2.13066 -2.23067,-4.18667 -3.836,-6.15067 -0.0467,-0.056 -0.096,-0.11066 -0.14267,-0.168 -0.49466,-0.59599 -1.01866,-1.184 -1.57733,-1.76399 -0.0667,-0.0693 -0.136,-0.13867 -0.20533,-0.20801 -0.568,-0.58133 -1.17067,-1.15466 -1.80667,-1.71733 -0.048,-0.0427 -0.096,-0.0867 -0.14667,-0.13067 -4.24933,-3.716 -9.972,-7.00533 -17.42266,-9.72933 -0.008,0 -0.016,0 -0.024,-0.0133 l 0,0.001 0,62.90133 0,10e-4 c 0.009,0 0.02,-0.0133 0.0307,-0.0133 7.448,-2.724 13.168,-6.01333 17.416,-9.728 0.0507,-0.0427 0.0973,-0.0867 0.14667,-0.12933 0.636,-0.564 1.23867,-1.136 1.808,-1.71867 0.068,-0.0693 0.136,-0.13733 0.204,-0.20666 0.55867,-0.58 1.084,-1.16934 1.58,-1.76667 0.0453,-0.056 0.0933,-0.10933 0.14,-0.164 1.604,-1.96533 2.87333,-4.02267 3.836,-6.15333 0.0573,-0.12534 0.10533,-0.25334 0.15867,-0.38 0.24133,-0.55734 0.464,-1.11867 0.66666,-1.68534 0.072,-0.20933 0.13867,-0.42 0.208,-0.63066 0.16,-0.492 0.30667,-0.98667 0.43867,-1.48667 0.064,-0.244 0.12533,-0.488 0.18267,-0.73333 0.112,-0.48 0.20666,-0.96267 0.29333,-1.448 0.0453,-0.25333 0.092,-0.50533 0.13067,-0.76 0.076,-0.50933 0.132,-1.024 0.18,-1.54 0.0227,-0.22533 0.052,-0.44933 0.068,-0.676 0.0533,-0.73867 0.084,-1.48267 0.084,-2.232 0,-0.74933 -0.0307,-1.49333 -0.084,-2.23333 -0.016,-0.22667 -0.0453,-0.45067 -0.068,-0.676"
         style="fill:#f2f2f2;fill-opacity:1;fill-rule:nonzero;stroke:none"
         id="path282"
         inkscape:connector-curvature="0" />
      <path
         d="m 432.95227,247.67889 -55.36533,-5.47734 c 0,0 -21.69733,17.20667 -39.012,34.67467 -14.35467,14.48266 -25.696,29.14533 -19.15867,34.33066 10.60267,8.408 52.54933,0.02 84.63333,-26.99866 11.55467,-9.73067 21.832,-21.87867 28.90267,-36.52933"
         style="fill:#fc7e56;fill-opacity:1;fill-rule:nonzero;stroke:none"
         id="path286"
         inkscape:connector-curvature="0" />
      <path
         d="m 545.70747,245.66062 c 0,-2.30533 -1.352,-4.28 -3.296,-5.22133 -0.76535,-0.37067 -1.61468,-0.59734 -2.52267,-0.59734 -1.50933,0 -2.872,0.58933 -3.90533,1.53067 -1.168,1.06533 -1.91467,2.584 -1.91467,4.288 0,1.704 0.74667,3.22266 1.91467,4.28533 1.03332,0.94267 2.39599,1.532 3.90533,1.532 0.908,0 1.75733,-0.22667 2.52267,-0.59733 1.94399,-0.94267 3.296,-2.916 3.296,-5.22"
         style="fill:#f15a24;fill-opacity:1;fill-rule:nonzero;stroke:none"
         id="path290"
         inkscape:connector-curvature="0" />
      <path
         d="m 319.83574,254.97315 -19.17067,-2.11333 c 0,0 -8.11334,6.31466 -11.668,12.48133 -2.18667,3.79733 -2.65067,7.53733 1.57866,9.716 4.488,2.31333 10.13333,-0.53333 15.26534,-4.74133 7.55333,-6.19467 13.99466,-15.34267 13.99466,-15.34267"
         style="fill:#fc7e56;fill-opacity:1;fill-rule:nonzero;stroke:none"
         id="path294"
         inkscape:connector-curvature="0" />
    </g>
  </g>
</svg>
