<?xml version="1.0" encoding="UTF-8" standalone="no"?>
<!-- Created with Inkscape (http://www.inkscape.org/) -->

<svg
   xmlns:dc="http://purl.org/dc/elements/1.1/"
   xmlns:cc="http://creativecommons.org/ns#"
   xmlns:rdf="http://www.w3.org/1999/02/22-rdf-syntax-ns#"
   xmlns:svg="http://www.w3.org/2000/svg"
   xmlns="http://www.w3.org/2000/svg"
   xmlns:sodipodi="http://sodipodi.sourceforge.net/DTD/sodipodi-0.dtd"
   xmlns:inkscape="http://www.inkscape.org/namespaces/inkscape"
   width="31.044445mm"
   height="18.294519mm"
   viewBox="0 0 110 64.823098"
   id="svg14005"
   version="1.1"
   inkscape:version="0.91 r13725"
   sodipodi:docname="avion-rojo.svg"
   inkscape:export-filename="/home/piccolina/Escritorio/fundacion/megamente-web/Megamente/img/deduccion/objetos/avion-rojo.png"
   inkscape:export-xdpi="90"
   inkscape:export-ydpi="90">
  <defs
     id="defs14007" />
  <sodipodi:namedview
     id="base"
     pagecolor="#ffffff"
     bordercolor="#666666"
     borderopacity="1.0"
     inkscape:pageopacity="0.0"
     inkscape:pageshadow="2"
     inkscape:zoom="0.35"
     inkscape:cx="-930.68839"
     inkscape:cy="306.96146"
     inkscape:document-units="px"
     inkscape:current-layer="layer1"
     showgrid="false"
     fit-margin-top="0"
     fit-margin-left="0"
     fit-margin-right="0"
     fit-margin-bottom="0"
     inkscape:window-width="1366"
     inkscape:window-height="710"
     inkscape:window-x="0"
     inkscape:window-y="25"
     inkscape:window-maximized="1" />
  <metadata
     id="metadata14010">
    <rdf:RDF>
      <cc:Work
         rdf:about="">
        <dc:format>image/svg+xml</dc:format>
        <dc:type
           rdf:resource="http://purl.org/dc/dcmitype/StillImage" />
        <dc:title></dc:title>
      </cc:Work>
    </rdf:RDF>
  </metadata>
  <g
     inkscape:label="Capa 1"
     inkscape:groupmode="layer"
     id="layer1"
     transform="translate(-728.54554,-1117.3577)">
    <g
       id="g15110"
       transform="matrix(0.41845759,0,0,0.41845759,423.68013,687.48828)">
      <path
         d="m 981.69126,1110.2581 c -2.13334,6.3507 -3.59067,19.1053 -3.59067,33.8187 0,21.044 2.98133,38.104 6.65733,38.104 3.676,0 6.65734,-17.06 6.65734,-38.104 0,-14.0227 -1.324,-26.268 -3.296,-32.884 -0.76534,0.3706 -1.61467,0.5973 -2.52267,0.5973 -1.50933,0 -2.872,-0.5893 -3.90533,-1.532"
         style="fill:#f4646f;fill-opacity:1;fill-rule:nonzero;stroke:none"
         id="path26"
         inkscape:connector-curvature="0" />
      <path
         d="m 988.11966,1100.7508 c 1.97066,-6.616 3.296,-18.8614 3.296,-32.884 0,-21.0454 -2.98267,-38.1054 -6.65867,-38.1054 -3.67467,0 -6.65733,17.06 -6.65733,38.1054 0,14.712 1.45866,27.468 3.592,33.8173 1.03333,-0.9413 2.396,-1.5307 3.904,-1.5307 0.90933,0 1.75866,0.2267 2.524,0.5974"
         style="fill:#f4646f;fill-opacity:1;fill-rule:nonzero;stroke:none"
         id="path30"
         inkscape:connector-curvature="0" />
      <path
         d="m 837.99793,1045.3081 c -27.928,-16.3787 -57.29734,-20.6587 -65.92267,-13.8173 -7.60266,6.028 8.972,24.872 26.34667,41.3466 9.28933,-1.3653 19.028,-2.5493 28.84533,-3.5293 1.44667,-9.04 5.24267,-17.268 10.73067,-24"
         style="fill:#f4646f;fill-opacity:1;fill-rule:nonzero;stroke:none"
         id="path34"
         inkscape:connector-curvature="0" />
      <path
         inkscape:connector-curvature="0"
         id="path44"
         style="fill:#c1272d;fill-opacity:1;fill-rule:nonzero;stroke:none"
         d="m 887.26939,1066.0608 c 8.89734,0 17.02,0.2906 24.43334,0.84 -3.84667,-13.7907 -15.00134,-24.4147 -28.9,-27.188 l 0,26.3746 c 1.508,-0.016 3.00266,-0.027 4.46666,-0.027" />
      <path
         inkscape:connector-curvature="0"
         id="path60"
         style="fill:#c1272d;fill-opacity:1;fill-rule:nonzero;stroke:none"
         d="m 869.87353,1066.3889 0,-26.9093 c -15.02934,2.36 -27.12667,13.8266 -30.73334,28.7453 10.504,-0.868 20.90134,-1.488 30.73334,-1.836" />
      <path
         d="m 973.52979,1088.2482 c 1.60533,1.964 2.872,4.02 3.836,6.1507 -0.96133,-2.1307 -2.23333,-4.1853 -3.836,-6.1507"
         style="fill:#c1272d;fill-opacity:1;fill-rule:nonzero;stroke:none"
         id="path70"
         inkscape:connector-curvature="0" />
      <path
         d="m 869.87353,1039.4796 0,26.9093 c -9.832,0.348 -20.22934,0.968 -30.73334,1.836 3.60667,-14.9187 15.704,-26.3853 30.73334,-28.7453 m 41.82933,27.4213 c -7.41333,-0.5493 -15.536,-0.84 -24.43333,-0.84 -1.464,0 -2.95867,0.013 -4.46667,0.025 l 0,-26.3733 c 13.89867,2.7733 25.05333,13.3973 28.9,27.188 m 12.00533,1.1986 c -4.29466,-23.244 -24.19466,-40.828 -48.116,-40.828 -15.10533,0 -28.60933,7.0147 -37.59466,18.036 -5.488,6.7334 -9.284,14.96 -10.73067,24.0014 -9.816,0.9786 -19.556,2.164 -28.84533,3.5293 -14.256,2.096 -27.44267,4.6173 -38.148,7.4853 -9.508,2.5467 -17.064,-36.1013 -31.728,-33.072 l 0,75.9734 c 1.87867,0.8266 3.94,1.636 6.16,2.428 3.55333,-6.1667 11.668,-12.4814 11.668,-12.4814 l 19.17067,2.1134 c 0,0 -6.44134,9.148 -13.996,15.3426 9.712,2.428 20.84133,4.6334 32.73466,6.5614 17.31467,-17.4694 39.012,-34.676 39.012,-34.676 l 55.36533,5.4773 c -7.07066,14.6507 -17.348,26.7987 -28.90266,36.5307 13.32666,0.8853 26.12266,1.3626 37.512,1.3626 29.43466,0 50.43999,-3.1653 64.93466,-8.4613 l 0,-62.9013 c -7.60667,-2.7787 -17.01867,-4.9667 -28.496,-6.4214"
         style="fill:#c1272d;fill-opacity:1;fill-rule:nonzero;stroke:none"
         id="path74"
         inkscape:connector-curvature="0" />
      <path
         d="m 969.79806,1084.3914 c 0.63733,0.5614 1.23866,1.1347 1.80666,1.716 -0.568,-0.5813 -1.17066,-1.1533 -1.80666,-1.716"
         style="fill:#c1272d;fill-opacity:1;fill-rule:nonzero;stroke:none"
         id="path78"
         inkscape:connector-curvature="0" />
      <path
         d="m 969.65219,1127.6825 c -4.248,3.716 -9.968,7.004 -17.416,9.728 7.448,-2.724 13.172,-6.0107 17.416,-9.728"
         style="fill:#c1272d;fill-opacity:1;fill-rule:nonzero;stroke:none"
         id="path82"
         inkscape:connector-curvature="0" />
      <path
         d="m 952.22899,1074.5302 c 7.45067,2.724 13.17333,6.0147 17.42267,9.7307 -4.24534,-3.7173 -9.972,-7.0067 -17.42267,-9.7307"
         style="fill:#c1272d;fill-opacity:1;fill-rule:nonzero;stroke:none"
         id="path86"
         inkscape:connector-curvature="0" />
      <path
         d="m 971.60659,1125.8348 c -0.57067,0.5826 -1.172,1.1546 -1.808,1.7186 0.63467,-0.564 1.23867,-1.136 1.808,-1.7186"
         style="fill:#c1272d;fill-opacity:1;fill-rule:nonzero;stroke:none"
         id="path90"
         inkscape:connector-curvature="0" />
      <path
         d="m 973.39046,1123.8609 c -0.496,0.5973 -1.02267,1.1867 -1.58,1.768 0.55733,-0.5813 1.08533,-1.1707 1.58,-1.768"
         style="fill:#c1272d;fill-opacity:1;fill-rule:nonzero;stroke:none"
         id="path94"
         inkscape:connector-curvature="0" />
      <path
         d="m 979.02072,1099.3166 c 0.112,0.4787 0.20667,0.9614 0.29334,1.4467 -0.0867,-0.4853 -0.18267,-0.968 -0.29334,-1.4467"
         style="fill:#c1272d;fill-opacity:1;fill-rule:nonzero;stroke:none"
         id="path98"
         inkscape:connector-curvature="0" />
      <path
         d="m 979.44526,1101.5244 c 0.076,0.5093 0.132,1.0226 0.18,1.5386 -0.048,-0.516 -0.104,-1.0293 -0.18,-1.5386"
         style="fill:#c1272d;fill-opacity:1;fill-rule:nonzero;stroke:none"
         id="path102"
         inkscape:connector-curvature="0" />
      <path
         d="m 979.77726,1105.9722 c 0,-0.7493 -0.0307,-1.4933 -0.0853,-2.2333 0.0547,0.74 0.0853,1.484 0.0853,2.2333"
         style="fill:#c1272d;fill-opacity:1;fill-rule:nonzero;stroke:none"
         id="path106"
         inkscape:connector-curvature="0" />
      <path
         d="m 977.36579,1117.5438 c -0.96267,2.132 -2.232,4.188 -3.836,6.1534 1.60267,-1.9654 2.87467,-4.0214 3.836,-6.1534"
         style="fill:#c1272d;fill-opacity:1;fill-rule:nonzero;stroke:none"
         id="path110"
         inkscape:connector-curvature="0" />
      <path
         d="m 971.80979,1086.316 c 0.55867,0.58 1.08267,1.168 1.57867,1.764 -0.49467,-0.5974 -1.02134,-1.184 -1.57867,-1.764"
         style="fill:#c1272d;fill-opacity:1;fill-rule:nonzero;stroke:none"
         id="path114"
         inkscape:connector-curvature="0" />
      <path
         d="m 977.52592,1094.7821 c 0.24134,0.556 0.46534,1.1173 0.664,1.6827 -0.19866,-0.5667 -0.42266,-1.1267 -0.664,-1.6827"
         style="fill:#c1272d;fill-opacity:1;fill-rule:nonzero;stroke:none"
         id="path118"
         inkscape:connector-curvature="0" />
      <path
         d="m 978.39966,1097.0966 c 0.16,0.492 0.30666,0.9867 0.43733,1.4854 -0.13067,-0.4987 -0.27733,-0.9934 -0.43733,-1.4854"
         style="fill:#c1272d;fill-opacity:1;fill-rule:nonzero;stroke:none"
         id="path122"
         inkscape:connector-curvature="0" />
      <path
         d="m 978.83846,1113.3616 c -0.132,0.5 -0.27867,0.9946 -0.43867,1.4866 0.16,-0.492 0.30667,-0.9866 0.43867,-1.4866"
         style="fill:#c1272d;fill-opacity:1;fill-rule:nonzero;stroke:none"
         id="path126"
         inkscape:connector-curvature="0" />
      <path
         d="m 979.31366,1111.18 c -0.0853,0.4853 -0.18134,0.968 -0.29334,1.448 0.11067,-0.48 0.208,-0.9627 0.29334,-1.448"
         style="fill:#c1272d;fill-opacity:1;fill-rule:nonzero;stroke:none"
         id="path130"
         inkscape:connector-curvature="0" />
      <path
         d="m 979.77726,1105.9722 c 0,0.7494 -0.0307,1.4934 -0.0853,2.232 0.0547,-0.7386 0.0853,-1.4826 0.0853,-2.232"
         style="fill:#c1272d;fill-opacity:1;fill-rule:nonzero;stroke:none"
         id="path134"
         inkscape:connector-curvature="0" />
      <path
         d="m 978.19126,1115.4781 c -0.20134,0.5667 -0.424,1.1293 -0.66667,1.6867 0.24133,-0.5574 0.46667,-1.12 0.66667,-1.6867"
         style="fill:#c1272d;fill-opacity:1;fill-rule:nonzero;stroke:none"
         id="path138"
         inkscape:connector-curvature="0" />
      <path
         d="m 979.62486,1108.8804 c -0.048,0.516 -0.104,1.0293 -0.18,1.54 0.076,-0.5107 0.132,-1.024 0.18,-1.54"
         style="fill:#c1272d;fill-opacity:1;fill-rule:nonzero;stroke:none"
         id="path142"
         inkscape:connector-curvature="0" />
      <path
         d="m 979.62486,1103.0629 c -0.048,-0.5147 -0.104,-1.0293 -0.18,-1.5387 -0.0387,-0.2546 -0.0853,-0.508 -0.13067,-0.7613 -0.0867,-0.4853 -0.18133,-0.9667 -0.29333,-1.4467 -0.0573,-0.2453 -0.11867,-0.4893 -0.184,-0.7346 -0.13067,-0.4974 -0.27734,-0.9934 -0.43734,-1.4854 -0.0693,-0.2106 -0.136,-0.4213 -0.20933,-0.6306 -0.2,-0.5667 -0.424,-1.1267 -0.664,-1.684 -0.0547,-0.1267 -0.10267,-0.2547 -0.16,-0.3827 -0.964,-2.1307 -2.23067,-4.1867 -3.836,-6.1507 -0.0453,-0.056 -0.096,-0.1106 -0.14267,-0.168 -0.49466,-0.596 -1.01866,-1.1853 -1.57733,-1.764 -0.0667,-0.069 -0.136,-0.1386 -0.20533,-0.208 -0.568,-0.5813 -1.17067,-1.1546 -1.80667,-1.7173 -0.048,-0.043 -0.096,-0.087 -0.14667,-0.1307 -4.24933,-3.716 -9.972,-7.0053 -17.42266,-9.7293 -0.008,0 -0.016,0 -0.024,-0.013 l 0,0 0,62.9013 0,0 c 0.009,0 0.02,-0.013 0.0307,-0.013 7.448,-2.724 13.168,-6.0133 17.416,-9.728 0.0507,-0.044 0.0973,-0.087 0.14667,-0.1293 0.636,-0.564 1.23867,-1.136 1.808,-1.7187 0.068,-0.069 0.136,-0.1373 0.204,-0.2066 0.55867,-0.58 1.084,-1.1694 1.58,-1.7667 0.0453,-0.056 0.0947,-0.1107 0.14,-0.164 1.604,-1.9653 2.87333,-4.0227 3.836,-6.1533 0.0573,-0.1267 0.10533,-0.2534 0.15867,-0.38 0.24133,-0.5574 0.464,-1.1187 0.66666,-1.6867 0.072,-0.208 0.13867,-0.4187 0.208,-0.6293 0.16,-0.492 0.30667,-0.9867 0.43867,-1.4867 0.064,-0.244 0.12533,-0.488 0.18267,-0.7333 0.112,-0.48 0.20666,-0.9627 0.29333,-1.448 0.0453,-0.2534 0.092,-0.5054 0.13067,-0.76 0.076,-0.5094 0.132,-1.024 0.18,-1.54 0.0227,-0.2254 0.052,-0.4494 0.068,-0.676 0.0533,-0.7387 0.084,-1.4827 0.084,-2.232 0,-0.7494 -0.0307,-1.4934 -0.084,-2.2334 -0.016,-0.2266 -0.0453,-0.4506 -0.068,-0.676"
         style="fill:#f2f2f2;fill-opacity:1;fill-rule:nonzero;stroke:none"
         id="path146"
         inkscape:connector-curvature="0" />
      <path
         d="m 878.66006,1107.9906 -55.36533,-5.4786 c 0,0 -21.69733,17.208 -39.012,34.676 -14.35467,14.4826 -25.696,29.1453 -19.15867,34.3293 10.60267,8.4093 52.54933,0.021 84.63333,-26.9973 11.55467,-9.7307 21.832,-21.8787 28.90267,-36.5294"
         style="fill:#f4646f;fill-opacity:1;fill-rule:nonzero;stroke:none"
         id="path150"
         inkscape:connector-curvature="0" />
      <path
         d="m 991.41526,1105.9722 c 0,-2.3053 -1.352,-4.28 -3.296,-5.2213 -0.76534,-0.3707 -1.61467,-0.5973 -2.52267,-0.5973 -1.50933,0 -2.872,0.5893 -3.90533,1.5306 -1.168,1.0654 -1.91467,2.584 -1.91467,4.288 0,1.704 0.74667,3.2227 1.91467,4.2854 1.03333,0.9426 2.396,1.532 3.90533,1.532 0.908,0 1.75733,-0.2267 2.52267,-0.5974 1.944,-0.9426 3.296,-2.916 3.296,-5.22"
         style="fill:#ef3426;fill-opacity:1;fill-rule:nonzero;stroke:none"
         id="path154"
         inkscape:connector-curvature="0" />
      <path
         d="m 765.54353,1115.2846 -19.17067,-2.1133 c 0,0 -8.11333,6.3147 -11.668,12.4813 -2.18666,3.7974 -2.65066,7.5374 1.57867,9.716 4.488,2.3134 10.13333,-0.5333 15.26533,-4.7413 7.55334,-6.1947 13.99467,-15.3427 13.99467,-15.3427"
         style="fill:#f4646f;fill-opacity:1;fill-rule:nonzero;stroke:none"
         id="path158"
         inkscape:connector-curvature="0" />
    </g>
  </g>
</svg>
