<?xml version="1.0" encoding="UTF-8" standalone="no"?>
<!-- Created with Inkscape (http://www.inkscape.org/) -->

<svg
   xmlns:dc="http://purl.org/dc/elements/1.1/"
   xmlns:cc="http://creativecommons.org/ns#"
   xmlns:rdf="http://www.w3.org/1999/02/22-rdf-syntax-ns#"
   xmlns:svg="http://www.w3.org/2000/svg"
   xmlns="http://www.w3.org/2000/svg"
   xmlns:sodipodi="http://sodipodi.sourceforge.net/DTD/sodipodi-0.dtd"
   xmlns:inkscape="http://www.inkscape.org/namespaces/inkscape"
   width="74.18779mm"
   height="43.718845mm"
   viewBox="0 0 262.87012 154.90929"
   id="svg14005"
   version="1.1"
   inkscape:version="0.91 r13725"
   sodipodi:docname="avion-amarillo.svg">
  <defs
     id="defs14007" />
  <sodipodi:namedview
     id="base"
     pagecolor="#ffffff"
     bordercolor="#666666"
     borderopacity="1.0"
     inkscape:pageopacity="0.0"
     inkscape:pageshadow="2"
     inkscape:zoom="0.35"
     inkscape:cx="-304.9935"
     inkscape:cy="-271.11676"
     inkscape:document-units="px"
     inkscape:current-layer="layer1"
     showgrid="false"
     fit-margin-top="0"
     fit-margin-left="0"
     fit-margin-right="0"
     fit-margin-bottom="0"
     inkscape:window-width="1366"
     inkscape:window-height="710"
     inkscape:window-x="0"
     inkscape:window-y="25"
     inkscape:window-maximized="1" />
  <metadata
     id="metadata14010">
    <rdf:RDF>
      <cc:Work
         rdf:about="">
        <dc:format>image/svg+xml</dc:format>
        <dc:type
           rdf:resource="http://purl.org/dc/dcmitype/StillImage" />
        <dc:title></dc:title>
      </cc:Work>
    </rdf:RDF>
  </metadata>
  <g
     inkscape:label="Capa 1"
     inkscape:groupmode="layer"
     id="layer1"
     transform="translate(-105.70779,-106.33614)">
    <path
       inkscape:connector-curvature="0"
       id="path410"
       style="fill:#f7e859;fill-opacity:1;fill-rule:nonzero;stroke:none"
       d="m 358.85352,189.32278 c -2.13334,6.35066 -3.59067,19.10533 -3.59067,33.81866 0,21.044 2.98133,38.104 6.65733,38.104 3.676,0 6.65734,-17.06 6.65734,-38.104 0,-14.02267 -1.324,-26.268 -3.296,-32.884 -0.76534,0.37067 -1.61467,0.59734 -2.52267,0.59734 -1.50933,0 -2.872,-0.58934 -3.90533,-1.532" />
    <path
       inkscape:connector-curvature="0"
       id="path414"
       style="fill:#f7e859;fill-opacity:1;fill-rule:nonzero;stroke:none"
       d="m 365.28192,179.81571 c 1.972,-6.616 3.296,-18.86133 3.296,-32.884 0,-21.04533 -2.98267,-38.10533 -6.65734,-38.10533 -3.676,0 -6.65866,17.06 -6.65866,38.10533 0,14.712 1.45866,27.468 3.592,33.81733 1.03333,-0.94133 2.396,-1.53066 3.904,-1.53066 0.90933,0 1.75866,0.22666 2.524,0.59733" />
    <path
       inkscape:connector-curvature="0"
       id="path418"
       style="fill:#f7e859;fill-opacity:1;fill-rule:nonzero;stroke:none"
       d="m 215.16019,124.37278 c -27.928,-16.37867 -57.29733,-20.65867 -65.92267,-13.81734 -7.60266,6.028 8.972,24.872 26.34667,41.348 9.28933,-1.36666 19.028,-2.55066 28.84533,-3.53066 1.44667,-9.04 5.24267,-17.268 10.73067,-24" />
    <path
       d="m 264.43165,145.12558 c 8.89734,0 17.02,0.29066 24.43334,0.84 -3.84667,-13.79067 -15.00134,-24.41467 -28.9,-27.188 l 0,26.37466 c 1.508,-0.016 3.00266,-0.0267 4.46666,-0.0267"
       style="fill:#f7e98b;fill-opacity:1;fill-rule:nonzero;stroke:none"
       id="path428"
       inkscape:connector-curvature="0" />
    <path
       d="m 247.03579,145.45371 0,-26.90933 c -15.02934,2.36 -27.12667,13.82666 -30.73334,28.74533 10.504,-0.868 20.90134,-1.488 30.73334,-1.836"
       style="fill:#f7e98b;fill-opacity:1;fill-rule:nonzero;stroke:none"
       id="path444"
       inkscape:connector-curvature="0" />
    <path
       inkscape:connector-curvature="0"
       id="path454"
       style="fill:#c1272d;fill-opacity:1;fill-rule:nonzero;stroke:none"
       d="m 350.69205,167.31304 c 1.60533,1.964 2.872,4.02 3.836,6.15067 -0.96133,-2.13067 -2.23333,-4.18533 -3.836,-6.15067" />
    <path
       inkscape:connector-curvature="0"
       id="path458"
       style="fill:#f9ed32;fill-opacity:1;fill-rule:nonzero;stroke:none"
       d="m 247.03579,118.54411 0,26.90933 c -9.832,0.348 -20.22934,0.968 -30.73334,1.836 3.60667,-14.91733 15.704,-26.384 30.73334,-28.74533 m 41.82933,27.42133 c -7.41333,-0.54933 -15.536,-0.84 -24.43333,-0.84 -1.464,0 -2.95867,0.0133 -4.46667,0.0267 l 0,-26.37466 c 13.89867,2.77333 25.05333,13.39733 28.9,27.188 m 12.00533,1.19866 c -4.29466,-23.244 -24.19466,-40.828 -48.116,-40.828 -15.10533,0 -28.60933,7.01467 -37.59466,18.036 -5.488,6.73333 -9.284,14.96 -10.73067,24.00133 -9.816,0.97867 -19.556,2.164 -28.84533,3.52934 -14.256,2.096 -27.44267,4.61733 -38.148,7.48533 -9.508,2.54667 -17.064,-36.10133 -31.728,-33.072 l 0,75.97333 c 1.87867,0.82667 3.94,1.636 6.16,2.428 3.55334,-6.16666 11.668,-12.48133 11.668,-12.48133 l 19.17067,2.11333 c 0,0 -6.44133,9.148 -13.996,15.34267 9.712,2.42933 20.84133,4.63333 32.73466,6.56133 17.31467,-17.46933 39.012,-34.676 39.012,-34.676 l 55.36533,5.47734 c -7.07066,14.65066 -17.348,26.79866 -28.90266,36.53066 13.32666,0.88533 26.12266,1.36267 37.512,1.36267 29.43466,0 50.43999,-3.16534 64.93466,-8.46 l 0,-62.90267 c -7.60667,-2.77866 -17.01867,-4.96666 -28.496,-6.42133" />
    <path
       inkscape:connector-curvature="0"
       id="path462"
       style="fill:#c1272d;fill-opacity:1;fill-rule:nonzero;stroke:none"
       d="m 346.96032,163.45611 c 0.63733,0.56133 1.23866,1.13467 1.80666,1.716 -0.568,-0.58133 -1.17066,-1.15333 -1.80666,-1.716" />
    <path
       inkscape:connector-curvature="0"
       id="path466"
       style="fill:#c1272d;fill-opacity:1;fill-rule:nonzero;stroke:none"
       d="m 346.81445,206.74731 c -4.248,3.716 -9.96933,7.004 -17.41733,9.728 7.448,-2.724 13.17333,-6.01067 17.41733,-9.728" />
    <path
       inkscape:connector-curvature="0"
       id="path470"
       style="fill:#c1272d;fill-opacity:1;fill-rule:nonzero;stroke:none"
       d="m 329.39125,153.59491 c 7.45067,2.724 13.17333,6.01467 17.42267,9.73067 -4.24534,-3.71734 -9.972,-7.00667 -17.42267,-9.73067" />
    <path
       inkscape:connector-curvature="0"
       id="path474"
       style="fill:#c1272d;fill-opacity:1;fill-rule:nonzero;stroke:none"
       d="m 348.76885,204.89958 c -0.57067,0.58266 -1.172,1.15466 -1.808,1.71733 0.63467,-0.56267 1.23867,-1.13467 1.808,-1.71733" />
    <path
       inkscape:connector-curvature="0"
       id="path478"
       style="fill:#c1272d;fill-opacity:1;fill-rule:nonzero;stroke:none"
       d="m 350.55272,202.92571 c -0.496,0.59733 -1.02267,1.18667 -1.58,1.768 0.55733,-0.58133 1.08533,-1.17067 1.58,-1.768" />
    <path
       inkscape:connector-curvature="0"
       id="path482"
       style="fill:#c1272d;fill-opacity:1;fill-rule:nonzero;stroke:none"
       d="m 356.18298,178.38144 c 0.112,0.47867 0.20667,0.96134 0.29334,1.44667 -0.0867,-0.48533 -0.18267,-0.968 -0.29334,-1.44667" />
    <path
       inkscape:connector-curvature="0"
       id="path486"
       style="fill:#c1272d;fill-opacity:1;fill-rule:nonzero;stroke:none"
       d="m 356.60752,180.58904 c 0.076,0.50934 0.132,1.02267 0.18,1.53867 -0.048,-0.516 -0.104,-1.02933 -0.18,-1.53867" />
    <path
       inkscape:connector-curvature="0"
       id="path490"
       style="fill:#c1272d;fill-opacity:1;fill-rule:nonzero;stroke:none"
       d="m 356.93952,185.03704 c 0,-0.74933 -0.0307,-1.49333 -0.0853,-2.23333 0.0547,0.74 0.0853,1.484 0.0853,2.23333" />
    <path
       inkscape:connector-curvature="0"
       id="path494"
       style="fill:#c1272d;fill-opacity:1;fill-rule:nonzero;stroke:none"
       d="m 354.52805,196.60864 c -0.96267,2.132 -2.232,4.188 -3.836,6.15334 1.60267,-1.96534 2.87467,-4.02134 3.836,-6.15334" />
    <path
       inkscape:connector-curvature="0"
       id="path498"
       style="fill:#c1272d;fill-opacity:1;fill-rule:nonzero;stroke:none"
       d="m 348.97205,165.38078 c 0.55867,0.58 1.08267,1.168 1.57867,1.764 -0.49334,-0.59734 -1.02134,-1.184 -1.57867,-1.764" />
    <path
       inkscape:connector-curvature="0"
       id="path502"
       style="fill:#c1272d;fill-opacity:1;fill-rule:nonzero;stroke:none"
       d="m 354.68818,173.84691 c 0.24134,0.556 0.46534,1.11733 0.664,1.68267 -0.19866,-0.56667 -0.42266,-1.12667 -0.664,-1.68267" />
    <path
       inkscape:connector-curvature="0"
       id="path506"
       style="fill:#c1272d;fill-opacity:1;fill-rule:nonzero;stroke:none"
       d="m 355.56192,176.16131 c 0.16,0.492 0.30666,0.98667 0.43733,1.48533 -0.13067,-0.49866 -0.27733,-0.99333 -0.43733,-1.48533" />
    <path
       inkscape:connector-curvature="0"
       id="path510"
       style="fill:#c1272d;fill-opacity:1;fill-rule:nonzero;stroke:none"
       d="m 356.00072,192.42638 c -0.132,0.5 -0.27867,0.99466 -0.43867,1.48666 0.16,-0.492 0.30667,-0.98666 0.43867,-1.48666" />
    <path
       inkscape:connector-curvature="0"
       id="path514"
       style="fill:#c1272d;fill-opacity:1;fill-rule:nonzero;stroke:none"
       d="m 356.47592,190.24464 c -0.0853,0.48534 -0.18134,0.968 -0.29334,1.448 0.11067,-0.48 0.208,-0.96266 0.29334,-1.448" />
    <path
       inkscape:connector-curvature="0"
       id="path518"
       style="fill:#c1272d;fill-opacity:1;fill-rule:nonzero;stroke:none"
       d="m 356.93952,185.03704 c 0,0.74934 -0.0307,1.49334 -0.0853,2.232 0.0547,-0.73866 0.0853,-1.48266 0.0853,-2.232" />
    <path
       inkscape:connector-curvature="0"
       id="path522"
       style="fill:#c1272d;fill-opacity:1;fill-rule:nonzero;stroke:none"
       d="m 355.35352,194.54291 c -0.20134,0.56667 -0.424,1.12933 -0.66667,1.68667 0.24133,-0.55734 0.46667,-1.12 0.66667,-1.68667" />
    <path
       inkscape:connector-curvature="0"
       id="path526"
       style="fill:#c1272d;fill-opacity:1;fill-rule:nonzero;stroke:none"
       d="m 356.78712,187.94504 c -0.048,0.516 -0.104,1.03067 -0.18,1.54 0.076,-0.50933 0.132,-1.024 0.18,-1.54" />
    <path
       inkscape:connector-curvature="0"
       id="path530"
       style="fill:#f2f2f2;fill-opacity:1;fill-rule:nonzero;stroke:none"
       d="m 356.78712,182.12744 c -0.048,-0.51466 -0.104,-1.02933 -0.18,-1.53866 -0.0387,-0.25467 -0.0853,-0.508 -0.13067,-0.76134 -0.0867,-0.484 -0.18133,-0.96666 -0.29333,-1.44666 -0.0573,-0.24534 -0.11867,-0.48934 -0.184,-0.73467 -0.13067,-0.49733 -0.27734,-0.99333 -0.43734,-1.48533 -0.0693,-0.21067 -0.136,-0.42134 -0.20933,-0.63067 -0.2,-0.56667 -0.42267,-1.12667 -0.664,-1.68267 -0.0547,-0.128 -0.10267,-0.256 -0.16,-0.384 -0.964,-2.13066 -2.23067,-4.18666 -3.836,-6.15066 -0.0453,-0.056 -0.096,-0.11067 -0.14267,-0.168 -0.49466,-0.596 -1.01866,-1.184 -1.57733,-1.764 -0.0667,-0.0693 -0.136,-0.13867 -0.20533,-0.208 -0.568,-0.58134 -1.17067,-1.15467 -1.80667,-1.71734 -0.048,-0.0427 -0.096,-0.0867 -0.14533,-0.13066 -4.25067,-3.716 -9.97334,-7.00534 -17.424,-9.72934 -0.008,0 -0.016,-0.0133 -0.024,-0.0133 l 0,10e-4 0,62.90133 0,0.001 c 0.009,0 0.02,-0.0133 0.0307,-0.0133 7.448,-2.724 13.168,-6.01333 17.41734,-9.728 0.0493,-0.0427 0.096,-0.0867 0.14533,-0.12933 0.636,-0.564 1.23867,-1.136 1.808,-1.71866 0.068,-0.0693 0.136,-0.13734 0.204,-0.20667 0.55867,-0.58 1.084,-1.16933 1.58,-1.76667 0.0453,-0.056 0.0947,-0.10933 0.14,-0.164 1.604,-1.96533 2.87333,-4.02266 3.836,-6.15333 0.0573,-0.12533 0.10533,-0.25333 0.15867,-0.38 0.24266,-0.55733 0.464,-1.11867 0.66666,-1.68533 0.072,-0.20934 0.13867,-0.42 0.208,-0.63067 0.16,-0.492 0.30667,-0.98667 0.43867,-1.48667 0.064,-0.244 0.12533,-0.488 0.18267,-0.73333 0.112,-0.48 0.20666,-0.96267 0.29333,-1.448 0.0453,-0.25333 0.092,-0.50533 0.13067,-0.76 0.076,-0.50933 0.132,-1.024 0.18,-1.54 0.0227,-0.22533 0.052,-0.44933 0.068,-0.676 0.0533,-0.73867 0.084,-1.48267 0.084,-2.232 0,-0.74933 -0.0307,-1.49333 -0.084,-2.23333 -0.016,-0.22667 -0.0453,-0.45067 -0.068,-0.676" />
    <path
       inkscape:connector-curvature="0"
       id="path534"
       style="fill:#f7e859;fill-opacity:1;fill-rule:nonzero;stroke:none"
       d="m 255.82232,187.05518 -55.36533,-5.47734 c 0,0 -21.69733,17.20667 -39.012,34.67467 -14.35467,14.48266 -25.696,29.14533 -19.15867,34.33066 10.60267,8.408 52.54934,0.02 84.63333,-26.99866 11.55467,-9.73067 21.832,-21.87867 28.90267,-36.52933" />
    <path
       inkscape:connector-curvature="0"
       id="path538"
       style="fill:#f2ce1c;fill-opacity:1;fill-rule:nonzero;stroke:none"
       d="m 368.57752,185.03704 c 0,-2.30533 -1.352,-4.28 -3.296,-5.22133 -0.76534,-0.37067 -1.61467,-0.59733 -2.52267,-0.59733 -1.50933,0 -2.872,0.58933 -3.90533,1.53066 -1.168,1.06534 -1.91467,2.584 -1.91467,4.288 0,1.704 0.74667,3.22267 1.91467,4.28534 1.03333,0.94266 2.396,1.532 3.90533,1.532 0.908,0 1.75733,-0.22667 2.52267,-0.59734 1.944,-0.94266 3.296,-2.916 3.296,-5.22" />
    <path
       inkscape:connector-curvature="0"
       id="path542"
       style="fill:#f7e859;fill-opacity:1;fill-rule:nonzero;stroke:none"
       d="m 142.70592,194.34944 -19.17066,-2.11333 c 0,0 -8.11333,6.31467 -11.668,12.48133 -2.18667,3.79733 -2.65067,7.53733 1.57867,9.716 4.488,2.31333 10.13333,-0.53333 15.26533,-4.74133 7.55333,-6.19467 13.99466,-15.34267 13.99466,-15.34267" />
  </g>
</svg>
