<?xml version="1.0" encoding="UTF-8" standalone="no"?>
<!-- Created with Inkscape (http://www.inkscape.org/) -->

<svg
   xmlns:dc="http://purl.org/dc/elements/1.1/"
   xmlns:cc="http://creativecommons.org/ns#"
   xmlns:rdf="http://www.w3.org/1999/02/22-rdf-syntax-ns#"
   xmlns:svg="http://www.w3.org/2000/svg"
   xmlns="http://www.w3.org/2000/svg"
   xmlns:sodipodi="http://sodipodi.sourceforge.net/DTD/sodipodi-0.dtd"
   xmlns:inkscape="http://www.inkscape.org/namespaces/inkscape"
   width="74.18779mm"
   height="43.71896mm"
   viewBox="0 0 262.87012 154.90969"
   id="svg14005"
   version="1.1"
   inkscape:version="0.91 r13725"
   sodipodi:docname="avion-verde.svg">
  <defs
     id="defs14007" />
  <sodipodi:namedview
     id="base"
     pagecolor="#ffffff"
     bordercolor="#666666"
     borderopacity="1.0"
     inkscape:pageopacity="0.0"
     inkscape:pageshadow="2"
     inkscape:zoom="0.35"
     inkscape:cx="131.43507"
     inkscape:cy="77.454851"
     inkscape:document-units="px"
     inkscape:current-layer="layer1"
     showgrid="false"
     fit-margin-top="0"
     fit-margin-left="0"
     fit-margin-right="0"
     fit-margin-bottom="0"
     inkscape:window-width="1366"
     inkscape:window-height="710"
     inkscape:window-x="0"
     inkscape:window-y="25"
     inkscape:window-maximized="1" />
  <metadata
     id="metadata14010">
    <rdf:RDF>
      <cc:Work
         rdf:about="">
        <dc:format>image/svg+xml</dc:format>
        <dc:type
           rdf:resource="http://purl.org/dc/dcmitype/StillImage" />
        <dc:title></dc:title>
      </cc:Work>
    </rdf:RDF>
  </metadata>
  <g
     inkscape:label="Capa 1"
     inkscape:groupmode="layer"
     id="layer1"
     transform="translate(-240.70779,-797.7645)">
    <g
       id="g15255">
      <path
         d="m 493.85352,880.7516 c -2.13334,6.3506 -3.59067,19.1053 -3.59067,33.8186 0,21.044 2.98133,38.104 6.65733,38.104 3.676,0 6.65734,-17.06 6.65734,-38.104 0,-14.0226 -1.324,-26.268 -3.296,-32.884 -0.76534,0.3707 -1.61467,0.5974 -2.52267,0.5974 -1.50933,0 -2.872,-0.5894 -3.90533,-1.532"
         style="fill:#2ec66f;fill-opacity:1;fill-rule:nonzero;stroke:none"
         id="path546"
         inkscape:connector-curvature="0" />
      <path
         d="m 500.28192,871.2444 c 1.972,-6.616 3.296,-18.8614 3.296,-32.884 0,-21.0454 -2.98267,-38.1054 -6.65734,-38.1054 -3.676,0 -6.65866,17.06 -6.65866,38.1054 0,14.712 1.45866,27.468 3.592,33.8173 1.03333,-0.9413 2.396,-1.5307 3.904,-1.5307 0.90933,0 1.75866,0.2267 2.524,0.5974"
         style="fill:#2ec66f;fill-opacity:1;fill-rule:nonzero;stroke:none"
         id="path550"
         inkscape:connector-curvature="0" />
      <path
         d="m 350.16019,815.8014 c -27.928,-16.3786 -57.29733,-20.6586 -65.92267,-13.8173 -7.60266,6.028 8.972,24.872 26.34667,41.3467 9.28933,-1.3654 19.028,-2.5494 28.84533,-3.5294 1.44667,-9.04 5.24267,-17.268 10.73067,-24"
         style="fill:#2ec66f;fill-opacity:1;fill-rule:nonzero;stroke:none"
         id="path554"
         inkscape:connector-curvature="0" />
      <path
         inkscape:connector-curvature="0"
         id="path564"
         style="fill:#009444;fill-opacity:1;fill-rule:nonzero;stroke:none"
         d="m 399.43165,836.5541 c 8.89734,0 17.02,0.2907 24.43334,0.84 -3.84667,-13.7907 -15.00134,-24.4147 -28.9,-27.188 l 0,26.3747 c 1.508,-0.016 3.00266,-0.027 4.46666,-0.027" />
      <path
         inkscape:connector-curvature="0"
         id="path580"
         style="fill:#009444;fill-opacity:1;fill-rule:nonzero;stroke:none"
         d="m 382.03579,836.8824 0,-26.9094 c -15.02934,2.36 -27.12667,13.8267 -30.73334,28.7454 10.504,-0.868 20.90134,-1.488 30.73334,-1.836" />
      <path
         d="m 485.69205,858.7416 c 1.60533,1.964 2.872,4.02 3.836,6.1506 -0.96133,-2.1306 -2.23333,-4.1853 -3.836,-6.1506"
         style="fill:#c1272d;fill-opacity:1;fill-rule:nonzero;stroke:none"
         id="path590"
         inkscape:connector-curvature="0" />
      <path
         d="m 382.03579,809.9729 0,26.9093 c -9.832,0.348 -20.22934,0.968 -30.73334,1.836 3.60667,-14.9173 15.704,-26.384 30.73334,-28.7453 m 41.82933,27.4213 c -7.41333,-0.5493 -15.536,-0.84 -24.43333,-0.84 -1.464,0 -2.95867,0.013 -4.46667,0.025 l 0,-26.3734 c 13.89867,2.7734 25.05333,13.3974 28.9,27.188 m 12.00533,1.1987 c -4.29466,-23.244 -24.19466,-40.828 -48.116,-40.828 -15.10533,0 -28.60933,7.0147 -37.59466,18.036 -5.488,6.7333 -9.284,14.96 -10.73067,24.0013 -9.816,0.9787 -19.556,2.164 -28.84533,3.5294 -14.256,2.096 -27.44267,4.6173 -38.148,7.4853 -9.508,2.5467 -17.064,-36.1013 -31.728,-33.072 l 0,75.9733 c 1.87867,0.8267 3.94,1.636 6.16,2.428 3.55333,-6.1666 11.668,-12.4813 11.668,-12.4813 l 19.17067,2.1133 c 0,0 -6.44134,9.148 -13.996,15.3427 9.712,2.4293 20.84133,4.6333 32.73466,6.5613 17.31467,-17.4693 39.012,-34.676 39.012,-34.676 l 55.36533,5.4774 c -7.07066,14.6506 -17.348,26.7986 -28.90266,36.5306 13.32666,0.8854 26.12266,1.3627 37.512,1.3627 29.43466,0 50.43999,-3.1653 64.93466,-8.46 l 0,-62.9027 c -7.60667,-2.7786 -17.01867,-4.9666 -28.496,-6.4213"
         style="fill:#009444;fill-opacity:1;fill-rule:nonzero;stroke:none"
         id="path594"
         inkscape:connector-curvature="0" />
      <path
         d="m 481.96032,854.8848 c 0.636,0.5613 1.23866,1.1346 1.80666,1.716 -0.568,-0.5814 -1.17066,-1.1534 -1.80666,-1.716"
         style="fill:#c1272d;fill-opacity:1;fill-rule:nonzero;stroke:none"
         id="path598"
         inkscape:connector-curvature="0" />
      <path
         d="m 481.81445,898.1758 c -4.24933,3.716 -9.96933,7.004 -17.41733,9.7294 7.448,-2.7254 13.17333,-6.012 17.41733,-9.7294"
         style="fill:#c1272d;fill-opacity:1;fill-rule:nonzero;stroke:none"
         id="path602"
         inkscape:connector-curvature="0" />
      <path
         d="m 464.39125,845.0237 c 7.45067,2.724 13.17333,6.0147 17.42267,9.7307 -4.24534,-3.7174 -9.972,-7.0067 -17.42267,-9.7307"
         style="fill:#c1272d;fill-opacity:1;fill-rule:nonzero;stroke:none"
         id="path606"
         inkscape:connector-curvature="0" />
      <path
         d="m 483.76885,896.3284 c -0.57067,0.5826 -1.172,1.1546 -1.808,1.7173 0.63467,-0.5627 1.23867,-1.1347 1.808,-1.7173"
         style="fill:#c1272d;fill-opacity:1;fill-rule:nonzero;stroke:none"
         id="path610"
         inkscape:connector-curvature="0" />
      <path
         d="m 485.55272,894.3542 c -0.496,0.5974 -1.02267,1.1867 -1.58,1.768 0.55733,-0.5813 1.08533,-1.1706 1.58,-1.768"
         style="fill:#c1272d;fill-opacity:1;fill-rule:nonzero;stroke:none"
         id="path614"
         inkscape:connector-curvature="0" />
      <path
         d="m 491.18298,869.8101 c 0.112,0.4787 0.20667,0.9613 0.29334,1.4467 -0.0867,-0.4854 -0.18267,-0.968 -0.29334,-1.4467"
         style="fill:#c1272d;fill-opacity:1;fill-rule:nonzero;stroke:none"
         id="path618"
         inkscape:connector-curvature="0" />
      <path
         d="m 491.60752,872.0178 c 0.076,0.5094 0.132,1.0227 0.18,1.5387 -0.048,-0.516 -0.104,-1.0293 -0.18,-1.5387"
         style="fill:#c1272d;fill-opacity:1;fill-rule:nonzero;stroke:none"
         id="path622"
         inkscape:connector-curvature="0" />
      <path
         d="m 491.93952,876.4657 c 0,-0.7493 -0.0307,-1.4933 -0.084,-2.2333 0.0533,0.74 0.084,1.484 0.084,2.2333"
         style="fill:#c1272d;fill-opacity:1;fill-rule:nonzero;stroke:none"
         id="path626"
         inkscape:connector-curvature="0" />
      <path
         d="m 489.52805,888.0372 c -0.96267,2.132 -2.232,4.188 -3.836,6.1533 1.60267,-1.9653 2.87467,-4.0213 3.836,-6.1533"
         style="fill:#c1272d;fill-opacity:1;fill-rule:nonzero;stroke:none"
         id="path630"
         inkscape:connector-curvature="0" />
      <path
         d="m 483.97205,856.8093 c 0.55867,0.58 1.08267,1.168 1.57867,1.764 -0.49334,-0.596 -1.02134,-1.184 -1.57867,-1.764"
         style="fill:#c1272d;fill-opacity:1;fill-rule:nonzero;stroke:none"
         id="path634"
         inkscape:connector-curvature="0" />
      <path
         d="m 489.68818,865.2754 c 0.24134,0.5574 0.46534,1.1174 0.664,1.6827 -0.19866,-0.5667 -0.42266,-1.1253 -0.664,-1.6827"
         style="fill:#c1272d;fill-opacity:1;fill-rule:nonzero;stroke:none"
         id="path638"
         inkscape:connector-curvature="0" />
      <path
         d="m 490.56192,867.5901 c 0.16,0.492 0.30666,0.9867 0.43733,1.4853 -0.13067,-0.4986 -0.27733,-0.9933 -0.43733,-1.4853"
         style="fill:#c1272d;fill-opacity:1;fill-rule:nonzero;stroke:none"
         id="path642"
         inkscape:connector-curvature="0" />
      <path
         d="m 491.00072,883.855 c -0.132,0.4987 -0.27867,0.9947 -0.43867,1.4867 0.16,-0.492 0.30667,-0.988 0.43867,-1.4867"
         style="fill:#c1272d;fill-opacity:1;fill-rule:nonzero;stroke:none"
         id="path646"
         inkscape:connector-curvature="0" />
      <path
         d="m 491.47592,881.6734 c -0.0853,0.4854 -0.18134,0.968 -0.29334,1.448 0.11067,-0.48 0.208,-0.9626 0.29334,-1.448"
         style="fill:#c1272d;fill-opacity:1;fill-rule:nonzero;stroke:none"
         id="path650"
         inkscape:connector-curvature="0" />
      <path
         d="m 491.93952,876.4657 c 0,0.7493 -0.0307,1.4933 -0.084,2.232 0.0533,-0.7387 0.084,-1.4827 0.084,-2.232"
         style="fill:#c1272d;fill-opacity:1;fill-rule:nonzero;stroke:none"
         id="path654"
         inkscape:connector-curvature="0" />
      <path
         d="m 490.35352,885.9716 c -0.20134,0.5666 -0.424,1.1293 -0.66667,1.6866 0.24133,-0.5573 0.46667,-1.12 0.66667,-1.6866"
         style="fill:#c1272d;fill-opacity:1;fill-rule:nonzero;stroke:none"
         id="path658"
         inkscape:connector-curvature="0" />
      <path
         d="m 491.78712,879.3737 c -0.048,0.516 -0.104,1.0293 -0.18,1.54 0.076,-0.5107 0.132,-1.024 0.18,-1.54"
         style="fill:#c1272d;fill-opacity:1;fill-rule:nonzero;stroke:none"
         id="path662"
         inkscape:connector-curvature="0" />
      <path
         d="m 491.78712,873.5562 c -0.048,-0.5146 -0.104,-1.0293 -0.18,-1.5386 -0.0387,-0.2547 -0.0853,-0.508 -0.13067,-0.7614 -0.0867,-0.484 -0.18133,-0.9666 -0.29333,-1.4466 -0.0573,-0.2454 -0.11867,-0.4894 -0.184,-0.7347 -0.13067,-0.4973 -0.27734,-0.9933 -0.43734,-1.4853 -0.0693,-0.2107 -0.136,-0.4214 -0.20933,-0.6307 -0.2,-0.5667 -0.42267,-1.1267 -0.664,-1.684 -0.0547,-0.1267 -0.10267,-0.2547 -0.16,-0.3827 -0.964,-2.1306 -2.23067,-4.1866 -3.836,-6.1506 -0.0467,-0.056 -0.096,-0.1107 -0.14267,-0.168 -0.49466,-0.596 -1.01866,-1.184 -1.57733,-1.764 -0.0667,-0.069 -0.136,-0.1387 -0.20533,-0.208 -0.568,-0.5814 -1.17067,-1.1547 -1.80667,-1.7174 -0.048,-0.043 -0.096,-0.087 -0.14533,-0.1306 -4.25067,-3.716 -9.97334,-7.0054 -17.424,-9.7294 -0.008,0 -0.016,0 -0.024,-0.013 l 0,0 0,62.9013 0,0 c 0.009,0 0.02,-0.013 0.0307,-0.013 7.448,-2.724 13.168,-6.0133 17.41734,-9.728 0.0493,-0.043 0.096,-0.087 0.14533,-0.1293 0.636,-0.564 1.23867,-1.136 1.808,-1.7187 0.068,-0.069 0.136,-0.1373 0.204,-0.2066 0.55867,-0.58 1.084,-1.1694 1.58,-1.7667 0.0453,-0.056 0.0933,-0.1093 0.14,-0.164 1.604,-1.9653 2.87333,-4.0227 3.836,-6.1533 0.0573,-0.1254 0.10533,-0.2534 0.15867,-0.38 0.24266,-0.5574 0.464,-1.1187 0.66666,-1.6854 0.072,-0.2093 0.13867,-0.42 0.208,-0.6306 0.16,-0.492 0.30667,-0.9867 0.43867,-1.4867 0.064,-0.244 0.12533,-0.488 0.18267,-0.7333 0.112,-0.48 0.20666,-0.9627 0.29333,-1.448 0.0453,-0.2534 0.092,-0.5054 0.13067,-0.76 0.076,-0.5094 0.132,-1.024 0.18,-1.54 0.0227,-0.2254 0.052,-0.4494 0.068,-0.676 0.0533,-0.7387 0.084,-1.4827 0.084,-2.232 0,-0.7494 -0.0307,-1.4934 -0.084,-2.2334 -0.016,-0.2266 -0.0453,-0.4506 -0.068,-0.676"
         style="fill:#f2f2f2;fill-opacity:1;fill-rule:nonzero;stroke:none"
         id="path666"
         inkscape:connector-curvature="0" />
      <path
         d="m 390.82232,878.484 -55.36533,-5.4774 c 0,0 -21.69734,17.2067 -39.012,34.6747 -14.35467,14.4827 -25.696,29.1453 -19.15867,34.3307 10.60267,8.408 52.54933,0.02 84.63333,-26.9987 11.55467,-9.7307 21.832,-21.8787 28.90267,-36.5293"
         style="fill:#2ec66f;fill-opacity:1;fill-rule:nonzero;stroke:none"
         id="path670"
         inkscape:connector-curvature="0" />
      <path
         d="m 503.57752,876.4657 c 0,-2.3053 -1.352,-4.28 -3.296,-5.2213 -0.76534,-0.3707 -1.61467,-0.5974 -2.52267,-0.5974 -1.50933,0 -2.872,0.5894 -3.90533,1.5307 -1.168,1.064 -1.91467,2.584 -1.91467,4.288 0,1.704 0.74667,3.2213 1.91467,4.2853 1.03333,0.9427 2.396,1.532 3.90533,1.532 0.908,0 1.75733,-0.2266 2.52267,-0.5973 1.944,-0.9427 3.296,-2.916 3.296,-5.22"
         style="fill:#037533;fill-opacity:1;fill-rule:nonzero;stroke:none"
         id="path674"
         inkscape:connector-curvature="0" />
      <path
         d="m 277.70579,885.7782 -19.17067,-2.1133 c 0,0 -8.11333,6.3147 -11.668,12.4813 -2.18666,3.796 -2.65066,7.5374 1.57867,9.716 4.488,2.3134 10.13333,-0.5333 15.26533,-4.7413 7.55334,-6.1947 13.99467,-15.3427 13.99467,-15.3427"
         style="fill:#2ec66f;fill-opacity:1;fill-rule:nonzero;stroke:none"
         id="path678"
         inkscape:connector-curvature="0" />
    </g>
  </g>
</svg>
