<?xml version="1.0" encoding="UTF-8" standalone="no"?>
<!-- Created with Inkscape (http://www.inkscape.org/) -->

<svg
   xmlns:dc="http://purl.org/dc/elements/1.1/"
   xmlns:cc="http://creativecommons.org/ns#"
   xmlns:rdf="http://www.w3.org/1999/02/22-rdf-syntax-ns#"
   xmlns:svg="http://www.w3.org/2000/svg"
   xmlns="http://www.w3.org/2000/svg"
   xmlns:sodipodi="http://sodipodi.sourceforge.net/DTD/sodipodi-0.dtd"
   xmlns:inkscape="http://www.inkscape.org/namespaces/inkscape"
   width="31.044445mm"
   height="18.294474mm"
   viewBox="0 0 110 64.822936"
   id="svg14005"
   version="1.1"
   inkscape:version="0.91 r13725"
   sodipodi:docname="avion-amarillo.svg"
   inkscape:export-filename="/home/piccolina/Escritorio/fundacion/megamente-web/Megamente/img/deduccion/objetos/avion-amarillo.png"
   inkscape:export-xdpi="90"
   inkscape:export-ydpi="90">
  <defs
     id="defs14007" />
  <sodipodi:namedview
     id="base"
     pagecolor="#ffffff"
     bordercolor="#666666"
     borderopacity="1.0"
     inkscape:pageopacity="0.0"
     inkscape:pageshadow="2"
     inkscape:zoom="1.4"
     inkscape:cx="-140.48693"
     inkscape:cy="-12.156213"
     inkscape:document-units="px"
     inkscape:current-layer="layer1"
     showgrid="false"
     fit-margin-top="0"
     fit-margin-left="0"
     fit-margin-right="0"
     fit-margin-bottom="0"
     inkscape:window-width="1366"
     inkscape:window-height="710"
     inkscape:window-x="0"
     inkscape:window-y="25"
     inkscape:window-maximized="1" />
  <metadata
     id="metadata14010">
    <rdf:RDF>
      <cc:Work
         rdf:about="">
        <dc:format>image/svg+xml</dc:format>
        <dc:type
           rdf:resource="http://purl.org/dc/dcmitype/StillImage" />
        <dc:title></dc:title>
      </cc:Work>
    </rdf:RDF>
  </metadata>
  <g
     inkscape:label="Capa 1"
     inkscape:groupmode="layer"
     id="layer1"
     transform="translate(-105.70779,-196.42251)">
    <path
       inkscape:connector-curvature="0"
       id="path410"
       style="fill:#f7e859;fill-opacity:1;fill-rule:nonzero;stroke:none"
       d="m 211.63854,231.14886 c -0.89271,2.65748 -1.50254,7.99477 -1.50254,14.15167 0,8.80602 1.24756,15.94491 2.78581,15.94491 1.53825,0 2.78581,-7.13889 2.78581,-15.94491 0,-5.86789 -0.55404,-10.99204 -1.37923,-13.76056 -0.32027,0.15511 -0.67567,0.24996 -1.05563,0.24996 -0.63159,0 -1.20181,-0.24661 -1.63422,-0.64107" />
    <path
       inkscape:connector-curvature="0"
       id="path414"
       style="fill:#f7e859;fill-opacity:1;fill-rule:nonzero;stroke:none"
       d="m 214.32855,227.17055 c 0.8252,-2.76851 1.37924,-7.89266 1.37924,-13.76056 0,-8.80658 -1.24812,-15.94546 -2.78581,-15.94546 -1.53825,0 -2.78637,7.13888 -2.78637,15.94546 0,6.15635 0.61039,11.4942 1.5031,14.15112 0.4324,-0.39391 1.00262,-0.64052 1.63366,-0.64052 0.38051,0 0.73592,0.0949 1.05618,0.24996" />
    <path
       inkscape:connector-curvature="0"
       id="path418"
       style="fill:#f7e859;fill-opacity:1;fill-rule:nonzero;stroke:none"
       d="m 151.50898,203.97004 c -11.68669,-6.85378 -23.97651,-8.64478 -27.58584,-5.78197 -3.1814,2.52246 3.7544,10.40787 11.02496,17.30238 3.88719,-0.57189 7.96241,-1.06734 12.07055,-1.47743 0.60537,-3.78286 2.19383,-7.22593 4.49033,-10.04298" />
    <path
       d="m 172.12699,212.6542 c 3.72316,0 7.12215,0.12163 10.22432,0.35151 -1.60967,-5.77081 -6.27742,-10.21651 -12.09342,-11.37703 l 0,11.03668 c 0.63103,-0.007 1.25648,-0.0112 1.8691,-0.0112"
       style="fill:#f7e98b;fill-opacity:1;fill-rule:nonzero;stroke:none"
       id="path428"
       inkscape:connector-curvature="0" />
    <path
       d="m 164.84756,212.79151 0,-11.26041 c -6.28914,0.98756 -11.35136,5.78587 -12.8606,12.0287 4.39548,-0.36322 8.74633,-0.62266 12.8606,-0.76829"
       style="fill:#f7e98b;fill-opacity:1;fill-rule:nonzero;stroke:none"
       id="path444"
       inkscape:connector-curvature="0" />
    <path
       inkscape:connector-curvature="0"
       id="path454"
       style="fill:#c1272d;fill-opacity:1;fill-rule:nonzero;stroke:none"
       d="m 208.22331,221.93871 c 0.67176,0.82186 1.20181,1.6822 1.60521,2.5738 -0.40228,-0.8916 -0.93456,-1.75138 -1.60521,-2.5738" />
    <path
       inkscape:connector-curvature="0"
       id="path458"
       style="fill:#f9ed32;fill-opacity:1;fill-rule:nonzero;stroke:none"
       d="m 164.84756,201.53099 0,11.26041 c -4.11427,0.14562 -8.46512,0.40507 -12.8606,0.76829 1.50924,-6.24227 6.57146,-11.04059 12.8606,-12.0287 m 17.5038,11.47466 c -3.10216,-0.22987 -6.50115,-0.3515 -10.22431,-0.3515 -0.61262,0 -1.23808,0.006 -1.86911,0.0112 l 0,-11.03668 c 5.816,1.16052 10.48376,5.60622 12.09342,11.37703 m 5.02373,0.50158 c -1.79714,-9.72662 -10.12444,-17.08478 -20.13451,-17.08478 -6.32094,0 -11.97179,2.93534 -15.73177,7.5473 -2.2965,2.81761 -3.88496,6.26012 -4.49033,10.04354 -4.10758,0.40953 -8.18336,0.90554 -12.07055,1.47688 -5.96553,0.87708 -11.48359,1.93215 -15.96332,3.13229 -3.97869,1.06567 -7.14056,-15.10688 -13.27682,-13.83923 l 0,31.79162 c 0.78614,0.34592 1.64872,0.68459 2.5777,1.01601 1.48692,-2.58048 4.88256,-5.22291 4.88256,-5.22291 l 8.02211,0.88434 c 0,0 -2.69542,3.82805 -5.85673,6.42026 4.06406,1.01657 8.72121,1.93885 13.69807,2.74564 7.24545,-7.31017 16.32487,-14.51044 16.32487,-14.51044 l 23.16804,2.29204 c -2.95877,6.13068 -7.2594,11.2141 -12.09454,15.28653 5.57664,0.37047 10.93123,0.57022 15.69718,0.57022 12.31716,0 21.107,-1.32456 27.1724,-3.54015 l 0,-26.3221 c -3.18307,-1.16275 -7.12159,-2.07834 -11.92436,-2.68706" />
    <path
       inkscape:connector-curvature="0"
       id="path462"
       style="fill:#c1272d;fill-opacity:1;fill-rule:nonzero;stroke:none"
       d="m 206.66174,220.32475 c 0.2667,0.2349 0.51833,0.47481 0.75601,0.71808 -0.23768,-0.24327 -0.48987,-0.48262 -0.75601,-0.71808" />
    <path
       inkscape:connector-curvature="0"
       id="path466"
       style="fill:#c1272d;fill-opacity:1;fill-rule:nonzero;stroke:none"
       d="m 206.6007,238.44028 c -1.77761,1.55499 -4.17174,2.93088 -7.28841,4.07076 3.11667,-1.13988 5.51248,-2.51521 7.28841,-4.07076" />
    <path
       inkscape:connector-curvature="0"
       id="path470"
       style="fill:#c1272d;fill-opacity:1;fill-rule:nonzero;stroke:none"
       d="m 199.30983,216.19826 c 3.11779,1.13988 5.51248,2.51688 7.29065,4.07187 -1.7765,-1.55555 -4.17286,-2.93199 -7.29065,-4.07187" />
    <path
       inkscape:connector-curvature="0"
       id="path474"
       style="fill:#c1272d;fill-opacity:1;fill-rule:nonzero;stroke:none"
       d="m 207.41853,237.66709 c -0.2388,0.24382 -0.49043,0.48317 -0.75657,0.71863 0.26559,-0.23546 0.51833,-0.47481 0.75657,-0.71863" />
    <path
       inkscape:connector-curvature="0"
       id="path478"
       style="fill:#c1272d;fill-opacity:1;fill-rule:nonzero;stroke:none"
       d="m 208.16501,236.84111 c -0.20756,0.24995 -0.42795,0.49657 -0.66116,0.73983 0.23321,-0.24326 0.45416,-0.48988 0.66116,-0.73983" />
    <path
       inkscape:connector-curvature="0"
       id="path482"
       style="fill:#c1272d;fill-opacity:1;fill-rule:nonzero;stroke:none"
       d="m 210.52103,226.57037 c 0.0469,0.2003 0.0865,0.40228 0.12275,0.60537 -0.0363,-0.20309 -0.0764,-0.40507 -0.12275,-0.60537" />
    <path
       inkscape:connector-curvature="0"
       id="path486"
       style="fill:#c1272d;fill-opacity:1;fill-rule:nonzero;stroke:none"
       d="m 210.69869,227.49416 c 0.0318,0.21313 0.0552,0.42794 0.0753,0.64387 -0.0201,-0.21593 -0.0435,-0.43074 -0.0753,-0.64387" />
    <path
       inkscape:connector-curvature="0"
       id="path490"
       style="fill:#c1272d;fill-opacity:1;fill-rule:nonzero;stroke:none"
       d="m 210.83761,229.35546 c 0,-0.31357 -0.0128,-0.6249 -0.0357,-0.93456 0.0229,0.30966 0.0357,0.62099 0.0357,0.93456" />
    <path
       inkscape:connector-curvature="0"
       id="path494"
       style="fill:#c1272d;fill-opacity:1;fill-rule:nonzero;stroke:none"
       d="m 209.82852,234.19768 c -0.40284,0.89215 -0.934,1.7525 -1.60521,2.57491 0.67065,-0.82241 1.20293,-1.68276 1.60521,-2.57491" />
    <path
       inkscape:connector-curvature="0"
       id="path498"
       style="fill:#c1272d;fill-opacity:1;fill-rule:nonzero;stroke:none"
       d="m 207.50356,221.13015 c 0.23378,0.2427 0.45306,0.48875 0.66061,0.73815 -0.20644,-0.24996 -0.42739,-0.49545 -0.66061,-0.73815" />
    <path
       inkscape:connector-curvature="0"
       id="path502"
       style="fill:#c1272d;fill-opacity:1;fill-rule:nonzero;stroke:none"
       d="m 209.89552,224.67286 c 0.10099,0.23266 0.19473,0.46756 0.27786,0.70413 -0.0831,-0.23713 -0.17687,-0.47147 -0.27786,-0.70413" />
    <path
       inkscape:connector-curvature="0"
       id="path506"
       style="fill:#c1272d;fill-opacity:1;fill-rule:nonzero;stroke:none"
       d="m 210.26115,225.64134 c 0.067,0.20588 0.12832,0.41288 0.183,0.62155 -0.0547,-0.20867 -0.11605,-0.41567 -0.183,-0.62155" />
    <path
       inkscape:connector-curvature="0"
       id="path510"
       style="fill:#c1272d;fill-opacity:1;fill-rule:nonzero;stroke:none"
       d="m 210.44477,232.44758 c -0.0552,0.20923 -0.11662,0.41623 -0.18357,0.62211 0.0669,-0.20588 0.12833,-0.41288 0.18357,-0.62211" />
    <path
       inkscape:connector-curvature="0"
       id="path514"
       style="fill:#c1272d;fill-opacity:1;fill-rule:nonzero;stroke:none"
       d="m 210.64362,231.53462 c -0.0357,0.20309 -0.0759,0.40506 -0.12275,0.60592 0.0463,-0.20086 0.087,-0.40283 0.12275,-0.60592" />
    <path
       inkscape:connector-curvature="0"
       id="path518"
       style="fill:#c1272d;fill-opacity:1;fill-rule:nonzero;stroke:none"
       d="m 210.83761,229.35546 c 0,0.31356 -0.0128,0.6249 -0.0357,0.93399 0.0229,-0.30909 0.0357,-0.62043 0.0357,-0.93399" />
    <path
       inkscape:connector-curvature="0"
       id="path522"
       style="fill:#c1272d;fill-opacity:1;fill-rule:nonzero;stroke:none"
       d="m 210.17394,233.33326 c -0.0842,0.23713 -0.17743,0.47258 -0.27897,0.7058 0.10098,-0.23322 0.19528,-0.46867 0.27897,-0.7058" />
    <path
       inkscape:connector-curvature="0"
       id="path526"
       style="fill:#c1272d;fill-opacity:1;fill-rule:nonzero;stroke:none"
       d="m 210.77384,230.57233 c -0.0201,0.21593 -0.0435,0.43129 -0.0753,0.64443 0.0318,-0.21314 0.0552,-0.4285 0.0753,-0.64443" />
    <path
       inkscape:connector-curvature="0"
       id="path530"
       style="fill:#f2f2f2;fill-opacity:1;fill-rule:nonzero;stroke:none"
       d="m 210.77384,228.13791 c -0.0201,-0.21536 -0.0435,-0.43073 -0.0753,-0.64386 -0.0162,-0.10657 -0.0357,-0.21258 -0.0547,-0.31859 -0.0363,-0.20253 -0.0759,-0.40451 -0.12275,-0.60537 -0.024,-0.10266 -0.0497,-0.20476 -0.077,-0.30742 -0.0547,-0.20812 -0.11606,-0.41567 -0.18301,-0.62155 -0.029,-0.0882 -0.0569,-0.17631 -0.0876,-0.26391 -0.0837,-0.23713 -0.17687,-0.47146 -0.27785,-0.70413 -0.0229,-0.0536 -0.043,-0.10712 -0.067,-0.16068 -0.40339,-0.89159 -0.93344,-1.75194 -1.6052,-2.57379 -0.019,-0.0234 -0.0402,-0.0463 -0.0597,-0.0703 -0.207,-0.2494 -0.42627,-0.49545 -0.66005,-0.73815 -0.0279,-0.029 -0.0569,-0.058 -0.0859,-0.087 -0.23768,-0.24327 -0.48988,-0.48318 -0.75601,-0.71864 -0.0201,-0.0179 -0.0402,-0.0363 -0.0608,-0.0547 -1.77872,-1.55499 -4.17342,-2.93144 -7.2912,-4.07132 -0.003,0 -0.007,-0.006 -0.01,-0.006 l 0,4.1e-4 0,26.32154 0,4.2e-4 c 0.004,0 0.008,-0.006 0.0128,-0.006 3.11667,-1.13988 5.51025,-2.51633 7.28842,-4.07076 0.0206,-0.0179 0.0402,-0.0363 0.0608,-0.0541 0.26614,-0.23601 0.51833,-0.47537 0.75657,-0.71919 0.0285,-0.029 0.0569,-0.0575 0.0854,-0.0865 0.23378,-0.2427 0.45361,-0.48931 0.66116,-0.73927 0.019,-0.0234 0.0396,-0.0457 0.0586,-0.0686 0.6712,-0.82241 1.20236,-1.68331 1.6052,-2.57491 0.024,-0.0524 0.0441,-0.10601 0.0664,-0.15901 0.10154,-0.23322 0.19416,-0.46812 0.27897,-0.70524 0.0301,-0.0876 0.058,-0.17575 0.087,-0.26391 0.067,-0.20588 0.12833,-0.41288 0.18357,-0.62211 0.0268,-0.1021 0.0524,-0.20421 0.0764,-0.30687 0.0469,-0.20086 0.0865,-0.40283 0.12274,-0.60592 0.019,-0.10601 0.0385,-0.21146 0.0547,-0.31803 0.0318,-0.21313 0.0552,-0.4285 0.0753,-0.64443 0.009,-0.0943 0.0218,-0.18802 0.0284,-0.28287 0.0223,-0.3091 0.0351,-0.62044 0.0351,-0.934 0,-0.31356 -0.0128,-0.6249 -0.0351,-0.93455 -0.007,-0.0949 -0.019,-0.18859 -0.0284,-0.28288" />
    <path
       inkscape:connector-curvature="0"
       id="path534"
       style="fill:#f7e859;fill-opacity:1;fill-rule:nonzero;stroke:none"
       d="m 168.52435,230.19996 -23.16804,-2.29203 c 0,0 -9.07941,7.20026 -16.32487,14.50988 -6.00682,6.06038 -10.75268,12.19608 -8.01709,14.36592 4.43677,3.51839 21.98967,0.008 35.41546,-11.29779 4.83514,-4.07187 9.13577,-9.1553 12.09454,-15.28598" />
    <path
       inkscape:connector-curvature="0"
       id="path538"
       style="fill:#f2ce1c;fill-opacity:1;fill-rule:nonzero;stroke:none"
       d="m 215.70762,229.35546 c 0,-0.96469 -0.56575,-1.791 -1.37923,-2.18491 -0.32027,-0.15511 -0.67567,-0.24996 -1.05563,-0.24996 -0.63159,0 -1.20181,0.24661 -1.63422,0.64052 -0.48876,0.4458 -0.80121,1.0813 -0.80121,1.79435 0,0.71305 0.31245,1.34855 0.80121,1.79323 0.43241,0.39446 1.00263,0.64108 1.63422,0.64108 0.37996,0 0.73536,-0.0949 1.05563,-0.24996 0.81348,-0.39447 1.37923,-1.22023 1.37923,-2.18435" />
    <path
       inkscape:connector-curvature="0"
       id="path542"
       style="fill:#f7e859;fill-opacity:1;fill-rule:nonzero;stroke:none"
       d="m 121.18994,233.2523 -8.02211,-0.88434 c 0,0 -3.39508,2.64242 -4.88256,5.22291 -0.91503,1.58902 -1.1092,3.15405 0.6606,4.06573 1.87804,0.96803 4.24037,-0.22317 6.3879,-1.98404 3.16074,-2.59221 5.85617,-6.42026 5.85617,-6.42026" />
  </g>
</svg>
