<?xml version="1.0" encoding="UTF-8" standalone="no"?>
<!-- Created with Inkscape (http://www.inkscape.org/) -->

<svg
   xmlns:dc="http://purl.org/dc/elements/1.1/"
   xmlns:cc="http://creativecommons.org/ns#"
   xmlns:rdf="http://www.w3.org/1999/02/22-rdf-syntax-ns#"
   xmlns:svg="http://www.w3.org/2000/svg"
   xmlns="http://www.w3.org/2000/svg"
   xmlns:sodipodi="http://sodipodi.sourceforge.net/DTD/sodipodi-0.dtd"
   xmlns:inkscape="http://www.inkscape.org/namespaces/inkscape"
   width="31.044443mm"
   height="17.559437mm"
   viewBox="0 0 110 62.218481"
   id="svg2"
   version="1.1"
   inkscape:version="0.91 r13725"
   sodipodi:docname="bicicleta.svg"
   inkscape:export-filename="/home/piccolina/Escritorio/fundacion/megamente-web/Megamente/img/deduccion/objetos/bicicleta.png"
   inkscape:export-xdpi="90"
   inkscape:export-ydpi="90">
  <defs
     id="defs4" />
  <sodipodi:namedview
     id="base"
     pagecolor="#ffffff"
     bordercolor="#666666"
     borderopacity="1.0"
     inkscape:pageopacity="0.0"
     inkscape:pageshadow="2"
     inkscape:zoom="0.5"
     inkscape:cx="-10.40594"
     inkscape:cy="292.92302"
     inkscape:document-units="px"
     inkscape:current-layer="layer1"
     showgrid="false"
     inkscape:window-width="1366"
     inkscape:window-height="710"
     inkscape:window-x="0"
     inkscape:window-y="25"
     inkscape:window-maximized="1"
     fit-margin-top="0"
     fit-margin-left="0"
     fit-margin-right="0"
     fit-margin-bottom="0" />
  <metadata
     id="metadata7">
    <rdf:RDF>
      <cc:Work
         rdf:about="">
        <dc:format>image/svg+xml</dc:format>
        <dc:type
           rdf:resource="http://purl.org/dc/dcmitype/StillImage" />
        <dc:title />
      </cc:Work>
    </rdf:RDF>
  </metadata>
  <g
     inkscape:label="Capa 1"
     inkscape:groupmode="layer"
     id="layer1"
     transform="translate(756.54411,-374.84368)">
    <g
       id="g4536"
       transform="matrix(0.15765907,0,0,0.15765907,-637.26809,368.15535)">
      <path
         id="path4158"
         d="m -616.80977,157.58952 a 139.73624,139.73624 0 0 0 -139.73437,139.73633 139.73624,139.73624 0 0 0 139.73437,139.73632 139.73624,139.73624 0 0 0 139.73633,-139.73632 139.73624,139.73624 0 0 0 -139.73633,-139.73633 z m 0,14.9707 a 124.7645,124.7645 0 0 1 124.76563,124.76563 124.7645,124.7645 0 0 1 -124.76563,124.76367 124.7645,124.7645 0 0 1 -124.76367,-124.76367 124.7645,124.7645 0 0 1 124.76367,-124.76563 z"
         style="color:#000000;clip-rule:nonzero;display:inline;overflow:visible;visibility:visible;opacity:1;isolation:auto;mix-blend-mode:normal;color-interpolation:sRGB;color-interpolation-filters:linearRGB;solid-color:#000000;solid-opacity:1;fill:#0c0c0c;fill-opacity:1;fill-rule:nonzero;stroke:none;stroke-width:0.52753609;stroke-linecap:round;stroke-linejoin:round;stroke-miterlimit:4;stroke-dasharray:none;stroke-dashoffset:0;stroke-opacity:1;color-rendering:auto;image-rendering:auto;shape-rendering:auto;text-rendering:auto;enable-background:accumulate"
         inkscape:connector-curvature="0" />
      <path
         inkscape:connector-curvature="0"
         id="path4220"
         d="m -616.80879,172.55924 a 124.76736,124.76736 0 0 0 -124.76758,124.76758 124.76736,124.76736 0 0 0 124.76758,124.76563 124.76736,124.76736 0 0 0 124.76758,-124.76563 124.76736,124.76736 0 0 0 -124.76758,-124.76758 z m 0,8.91211 a 115.85541,115.85541 0 0 1 115.85547,115.85547 115.85541,115.85541 0 0 1 -115.85547,115.85352 115.85541,115.85541 0 0 1 -115.85547,-115.85352 115.85541,115.85541 0 0 1 115.85547,-115.85547 z"
         style="color:#000000;clip-rule:nonzero;display:inline;overflow:visible;visibility:visible;opacity:1;isolation:auto;mix-blend-mode:normal;color-interpolation:sRGB;color-interpolation-filters:linearRGB;solid-color:#000000;solid-opacity:1;fill:#818181;fill-opacity:1;fill-rule:nonzero;stroke:none;stroke-width:0.46527362;stroke-linecap:round;stroke-linejoin:round;stroke-miterlimit:4;stroke-dasharray:none;stroke-dashoffset:0;stroke-opacity:1;color-rendering:auto;image-rendering:auto;shape-rendering:auto;text-rendering:auto;enable-background:accumulate" />
      <path
         inkscape:connector-curvature="0"
         id="path4240"
         d="m -711.69845,228.56511 -1.16211,1.6289 83.58204,59.61133 -94.40235,-42.15234 -0.81445,1.82617 103.42773,46.18359 98.74414,70.42383 1.16016,-1.62695 -90.69336,-64.68555 101.91993,45.50977 0.81445,-1.82617 -110.94532,-49.53907 -91.63086,-65.35351 z"
         style="color:#000000;font-style:normal;font-variant:normal;font-weight:normal;font-stretch:normal;font-size:medium;line-height:normal;font-family:sans-serif;text-indent:0;text-align:start;text-decoration:none;text-decoration-line:none;text-decoration-style:solid;text-decoration-color:#000000;letter-spacing:normal;word-spacing:normal;text-transform:none;direction:ltr;block-progression:tb;writing-mode:lr-tb;baseline-shift:baseline;text-anchor:start;white-space:normal;clip-rule:nonzero;display:inline;overflow:visible;visibility:visible;opacity:1;isolation:auto;mix-blend-mode:normal;color-interpolation:sRGB;color-interpolation-filters:linearRGB;solid-color:#000000;solid-opacity:1;fill:#838383;fill-opacity:1;fill-rule:evenodd;stroke:none;stroke-width:2;stroke-linecap:butt;stroke-linejoin:miter;stroke-miterlimit:4;stroke-dasharray:none;stroke-dashoffset:0;stroke-opacity:1;color-rendering:auto;image-rendering:auto;shape-rendering:auto;text-rendering:auto;enable-background:accumulate" />
      <path
         id="path4240-5"
         d="m -632.71887,181.29013 -1.98187,0.27568 14.15955,101.68075 -34.27754,-97.53806 -1.88616,0.66379 37.55375,106.86409 16.72903,120.12519 1.97912,-0.27576 -15.36255,-110.33358 37.00667,105.30582 1.88617,-0.66378 -40.28431,-114.63052 -15.52186,-111.47362 z"
         style="color:#000000;font-style:normal;font-variant:normal;font-weight:normal;font-stretch:normal;font-size:medium;line-height:normal;font-family:sans-serif;text-indent:0;text-align:start;text-decoration:none;text-decoration-line:none;text-decoration-style:solid;text-decoration-color:#000000;letter-spacing:normal;word-spacing:normal;text-transform:none;direction:ltr;block-progression:tb;writing-mode:lr-tb;baseline-shift:baseline;text-anchor:start;white-space:normal;clip-rule:nonzero;display:inline;overflow:visible;visibility:visible;opacity:1;isolation:auto;mix-blend-mode:normal;color-interpolation:sRGB;color-interpolation-filters:linearRGB;solid-color:#000000;solid-opacity:1;fill:#838383;fill-opacity:1;fill-rule:evenodd;stroke:none;stroke-width:2;stroke-linecap:butt;stroke-linejoin:miter;stroke-miterlimit:4;stroke-dasharray:none;stroke-dashoffset:0;stroke-opacity:1;color-rendering:auto;image-rendering:auto;shape-rendering:auto;text-rendering:auto;enable-background:accumulate"
         inkscape:connector-curvature="0" />
      <path
         id="path4240-56"
         d="m -546.68278,203.43042 -1.61188,-1.1856 -60.8166,82.7092 43.51628,-93.78144 -1.81417,-0.84083 -47.67793,102.74743 -71.84773,97.71297 1.60996,1.18362 65.99336,-89.74621 -46.98232,101.24954 1.81417,0.84085 51.14202,-110.21559 66.67484,-90.67394 z"
         style="color:#000000;font-style:normal;font-variant:normal;font-weight:normal;font-stretch:normal;font-size:medium;line-height:normal;font-family:sans-serif;text-indent:0;text-align:start;text-decoration:none;text-decoration-line:none;text-decoration-style:solid;text-decoration-color:#000000;letter-spacing:normal;word-spacing:normal;text-transform:none;direction:ltr;block-progression:tb;writing-mode:lr-tb;baseline-shift:baseline;text-anchor:start;white-space:normal;clip-rule:nonzero;display:inline;overflow:visible;visibility:visible;opacity:1;isolation:auto;mix-blend-mode:normal;color-interpolation:sRGB;color-interpolation-filters:linearRGB;solid-color:#000000;solid-opacity:1;fill:#838383;fill-opacity:1;fill-rule:evenodd;stroke:none;stroke-width:2;stroke-linecap:butt;stroke-linejoin:miter;stroke-miterlimit:4;stroke-dasharray:none;stroke-dashoffset:0;stroke-opacity:1;color-rendering:auto;image-rendering:auto;shape-rendering:auto;text-rendering:auto;enable-background:accumulate"
         inkscape:connector-curvature="0" />
      <path
         id="path4240-2"
         d="m -500.94182,280.17971 -0.29688,-1.97881 -101.52341,15.24685 97.16567,-35.31936 -0.68393,-1.87895 -106.45611,38.69518 -119.93929,18.01356 0.29692,1.97605 110.16286,-16.54237 -104.90377,38.13145 0.68392,1.87896 114.19288,-41.50869 111.30114,-16.71387 z"
         style="color:#000000;font-style:normal;font-variant:normal;font-weight:normal;font-stretch:normal;font-size:medium;line-height:normal;font-family:sans-serif;text-indent:0;text-align:start;text-decoration:none;text-decoration-line:none;text-decoration-style:solid;text-decoration-color:#000000;letter-spacing:normal;word-spacing:normal;text-transform:none;direction:ltr;block-progression:tb;writing-mode:lr-tb;baseline-shift:baseline;text-anchor:start;white-space:normal;clip-rule:nonzero;display:inline;overflow:visible;visibility:visible;opacity:1;isolation:auto;mix-blend-mode:normal;color-interpolation:sRGB;color-interpolation-filters:linearRGB;solid-color:#000000;solid-opacity:1;fill:#838383;fill-opacity:1;fill-rule:evenodd;stroke:none;stroke-width:2;stroke-linecap:butt;stroke-linejoin:miter;stroke-miterlimit:4;stroke-dasharray:none;stroke-dashoffset:0;stroke-opacity:1;color-rendering:auto;image-rendering:auto;shape-rendering:auto;text-rendering:auto;enable-background:accumulate"
         inkscape:connector-curvature="0" />
      <path
         id="path4300"
         d="m -604.57176,297.32584 a 12.23702,12.237019 0 0 1 -12.23702,12.23701 12.23702,12.237019 0 0 1 -12.23702,-12.23701 12.23702,12.237019 0 0 1 12.23702,-12.23702 12.23702,12.237019 0 0 1 12.23702,12.23702 z"
         style="color:#000000;clip-rule:nonzero;display:inline;overflow:visible;visibility:visible;opacity:1;isolation:auto;mix-blend-mode:normal;color-interpolation:sRGB;color-interpolation-filters:linearRGB;solid-color:#000000;solid-opacity:1;fill:#818181;fill-opacity:1;fill-rule:nonzero;stroke:none;stroke-width:0.525962;stroke-linecap:round;stroke-linejoin:round;stroke-miterlimit:4;stroke-dasharray:none;stroke-dashoffset:0;stroke-opacity:1;color-rendering:auto;image-rendering:auto;shape-rendering:auto;text-rendering:auto;enable-background:accumulate"
         inkscape:connector-curvature="0" />
      <path
         inkscape:connector-curvature="0"
         id="path4158-1"
         d="M -198.57241,152.7913 A 139.73624,139.73624 0 0 0 -338.30678,292.52763 139.73624,139.73624 0 0 0 -198.57241,432.26395 139.73624,139.73624 0 0 0 -58.83608,292.52763 139.73624,139.73624 0 0 0 -198.57241,152.7913 Z m 0,14.9707 A 124.7645,124.7645 0 0 1 -73.80678,292.52763 124.7645,124.7645 0 0 1 -198.57241,417.2913 124.7645,124.7645 0 0 1 -323.33608,292.52763 124.7645,124.7645 0 0 1 -198.57241,167.762 Z"
         style="color:#000000;clip-rule:nonzero;display:inline;overflow:visible;visibility:visible;opacity:1;isolation:auto;mix-blend-mode:normal;color-interpolation:sRGB;color-interpolation-filters:linearRGB;solid-color:#000000;solid-opacity:1;fill:#0c0c0c;fill-opacity:1;fill-rule:nonzero;stroke:none;stroke-width:0.52753609;stroke-linecap:round;stroke-linejoin:round;stroke-miterlimit:4;stroke-dasharray:none;stroke-dashoffset:0;stroke-opacity:1;color-rendering:auto;image-rendering:auto;shape-rendering:auto;text-rendering:auto;enable-background:accumulate" />
      <path
         inkscape:connector-curvature="0"
         id="path4220-2"
         d="M -198.57143,167.76102 A 124.76736,124.76736 0 0 0 -323.33901,292.5286 124.76736,124.76736 0 0 0 -198.57143,417.29423 124.76736,124.76736 0 0 0 -73.80385,292.5286 124.76736,124.76736 0 0 0 -198.57143,167.76102 Z m 0,8.91211 A 115.85541,115.85541 0 0 1 -82.71596,292.5286 115.85541,115.85541 0 0 1 -198.57143,408.38212 115.85541,115.85541 0 0 1 -314.4269,292.5286 115.85541,115.85541 0 0 1 -198.57143,176.67313 Z"
         style="color:#000000;clip-rule:nonzero;display:inline;overflow:visible;visibility:visible;opacity:1;isolation:auto;mix-blend-mode:normal;color-interpolation:sRGB;color-interpolation-filters:linearRGB;solid-color:#000000;solid-opacity:1;fill:#818181;fill-opacity:1;fill-rule:nonzero;stroke:none;stroke-width:0.46527362;stroke-linecap:round;stroke-linejoin:round;stroke-miterlimit:4;stroke-dasharray:none;stroke-dashoffset:0;stroke-opacity:1;color-rendering:auto;image-rendering:auto;shape-rendering:auto;text-rendering:auto;enable-background:accumulate" />
      <path
         inkscape:connector-curvature="0"
         id="path4240-0"
         d="m -293.46109,223.76688 -1.16211,1.6289 83.58204,59.61133 -94.40235,-42.15234 -0.81445,1.82617 103.42773,46.18359 98.74414,70.42383 1.16016,-1.62695 -90.69336,-64.68555 101.919926,45.50977 0.814454,-1.82617 -110.94532,-49.53907 -91.63086,-65.35351 z"
         style="color:#000000;font-style:normal;font-variant:normal;font-weight:normal;font-stretch:normal;font-size:medium;line-height:normal;font-family:sans-serif;text-indent:0;text-align:start;text-decoration:none;text-decoration-line:none;text-decoration-style:solid;text-decoration-color:#000000;letter-spacing:normal;word-spacing:normal;text-transform:none;direction:ltr;block-progression:tb;writing-mode:lr-tb;baseline-shift:baseline;text-anchor:start;white-space:normal;clip-rule:nonzero;display:inline;overflow:visible;visibility:visible;opacity:1;isolation:auto;mix-blend-mode:normal;color-interpolation:sRGB;color-interpolation-filters:linearRGB;solid-color:#000000;solid-opacity:1;fill:#838383;fill-opacity:1;fill-rule:evenodd;stroke:none;stroke-width:2;stroke-linecap:butt;stroke-linejoin:miter;stroke-miterlimit:4;stroke-dasharray:none;stroke-dashoffset:0;stroke-opacity:1;color-rendering:auto;image-rendering:auto;shape-rendering:auto;text-rendering:auto;enable-background:accumulate" />
      <path
         id="path4240-5-9"
         d="m -214.48151,176.4919 -1.98187,0.27568 14.15955,101.68075 -34.27754,-97.53806 -1.88616,0.66379 37.55375,106.86409 16.72903,120.12519 1.97912,-0.27576 -15.36255,-110.33358 37.00667,105.30582 1.88617,-0.66378 -40.28431,-114.63052 -15.52186,-111.47362 z"
         style="color:#000000;font-style:normal;font-variant:normal;font-weight:normal;font-stretch:normal;font-size:medium;line-height:normal;font-family:sans-serif;text-indent:0;text-align:start;text-decoration:none;text-decoration-line:none;text-decoration-style:solid;text-decoration-color:#000000;letter-spacing:normal;word-spacing:normal;text-transform:none;direction:ltr;block-progression:tb;writing-mode:lr-tb;baseline-shift:baseline;text-anchor:start;white-space:normal;clip-rule:nonzero;display:inline;overflow:visible;visibility:visible;opacity:1;isolation:auto;mix-blend-mode:normal;color-interpolation:sRGB;color-interpolation-filters:linearRGB;solid-color:#000000;solid-opacity:1;fill:#838383;fill-opacity:1;fill-rule:evenodd;stroke:none;stroke-width:2;stroke-linecap:butt;stroke-linejoin:miter;stroke-miterlimit:4;stroke-dasharray:none;stroke-dashoffset:0;stroke-opacity:1;color-rendering:auto;image-rendering:auto;shape-rendering:auto;text-rendering:auto;enable-background:accumulate"
         inkscape:connector-curvature="0" />
      <path
         id="path4240-56-3"
         d="m -128.44542,198.63219 -1.61188,-1.1856 -60.8166,82.7092 43.51628,-93.78144 -1.81417,-0.84083 -47.67793,102.74743 -71.84773,97.71297 1.60996,1.18362 65.99336,-89.74621 -46.98232,101.24954 1.81417,0.84085 51.14202,-110.21559 66.67484,-90.67394 z"
         style="color:#000000;font-style:normal;font-variant:normal;font-weight:normal;font-stretch:normal;font-size:medium;line-height:normal;font-family:sans-serif;text-indent:0;text-align:start;text-decoration:none;text-decoration-line:none;text-decoration-style:solid;text-decoration-color:#000000;letter-spacing:normal;word-spacing:normal;text-transform:none;direction:ltr;block-progression:tb;writing-mode:lr-tb;baseline-shift:baseline;text-anchor:start;white-space:normal;clip-rule:nonzero;display:inline;overflow:visible;visibility:visible;opacity:1;isolation:auto;mix-blend-mode:normal;color-interpolation:sRGB;color-interpolation-filters:linearRGB;solid-color:#000000;solid-opacity:1;fill:#838383;fill-opacity:1;fill-rule:evenodd;stroke:none;stroke-width:2;stroke-linecap:butt;stroke-linejoin:miter;stroke-miterlimit:4;stroke-dasharray:none;stroke-dashoffset:0;stroke-opacity:1;color-rendering:auto;image-rendering:auto;shape-rendering:auto;text-rendering:auto;enable-background:accumulate"
         inkscape:connector-curvature="0" />
      <path
         id="path4240-2-6"
         d="m -82.704462,275.38148 -0.296877,-1.97881 -101.523411,15.24685 97.165671,-35.31936 -0.683932,-1.87895 -106.456109,38.69518 -119.93929,18.01356 0.29692,1.97605 110.16286,-16.54237 -104.90377,38.13145 0.68392,1.87896 114.19288,-41.50869 111.30114,-16.71387 z"
         style="color:#000000;font-style:normal;font-variant:normal;font-weight:normal;font-stretch:normal;font-size:medium;line-height:normal;font-family:sans-serif;text-indent:0;text-align:start;text-decoration:none;text-decoration-line:none;text-decoration-style:solid;text-decoration-color:#000000;letter-spacing:normal;word-spacing:normal;text-transform:none;direction:ltr;block-progression:tb;writing-mode:lr-tb;baseline-shift:baseline;text-anchor:start;white-space:normal;clip-rule:nonzero;display:inline;overflow:visible;visibility:visible;opacity:1;isolation:auto;mix-blend-mode:normal;color-interpolation:sRGB;color-interpolation-filters:linearRGB;solid-color:#000000;solid-opacity:1;fill:#838383;fill-opacity:1;fill-rule:evenodd;stroke:none;stroke-width:2;stroke-linecap:butt;stroke-linejoin:miter;stroke-miterlimit:4;stroke-dasharray:none;stroke-dashoffset:0;stroke-opacity:1;color-rendering:auto;image-rendering:auto;shape-rendering:auto;text-rendering:auto;enable-background:accumulate"
         inkscape:connector-curvature="0" />
      <path
         id="path4300-0"
         d="m -186.33442,292.52762 a 12.23702,12.237019 0 0 1 -12.23702,12.23702 12.23702,12.237019 0 0 1 -12.23702,-12.23702 12.23702,12.237019 0 0 1 12.23702,-12.23702 12.23702,12.237019 0 0 1 12.23702,12.23702 z"
         style="color:#000000;clip-rule:nonzero;display:inline;overflow:visible;visibility:visible;opacity:1;isolation:auto;mix-blend-mode:normal;color-interpolation:sRGB;color-interpolation-filters:linearRGB;solid-color:#000000;solid-opacity:1;fill:#818181;fill-opacity:1;fill-rule:nonzero;stroke:none;stroke-width:0.525962;stroke-linecap:round;stroke-linejoin:round;stroke-miterlimit:4;stroke-dasharray:none;stroke-dashoffset:0;stroke-opacity:1;color-rendering:auto;image-rendering:auto;shape-rendering:auto;text-rendering:auto;enable-background:accumulate"
         inkscape:connector-curvature="0" />
      <path
         inkscape:connector-curvature="0"
         id="path4377"
         d="m -616.80879,237.90885 c -32.78579,0 -59.41797,26.63218 -59.41797,59.41797 0,32.78579 26.63218,59.41602 59.41797,59.41602 32.78579,0 59.41797,-26.63023 59.41797,-59.41602 0,-32.78579 -26.63218,-59.41797 -59.41797,-59.41797 z m 0,5 c 30.08359,0 54.41797,24.33438 54.41797,54.41797 0,30.08359 -24.33438,54.41602 -54.41797,54.41602 -30.08359,0 -54.41797,-24.33243 -54.41797,-54.41602 0,-30.08359 24.33438,-54.41797 54.41797,-54.41797 z"
         style="color:#000000;font-style:normal;font-variant:normal;font-weight:normal;font-stretch:normal;font-size:medium;line-height:normal;font-family:sans-serif;text-indent:0;text-align:start;text-decoration:none;text-decoration-line:none;text-decoration-style:solid;text-decoration-color:#000000;letter-spacing:normal;word-spacing:normal;text-transform:none;direction:ltr;block-progression:tb;writing-mode:lr-tb;baseline-shift:baseline;text-anchor:start;white-space:normal;clip-rule:nonzero;display:inline;overflow:visible;visibility:visible;opacity:1;isolation:auto;mix-blend-mode:normal;color-interpolation:sRGB;color-interpolation-filters:linearRGB;solid-color:#000000;solid-opacity:1;fill:#f0632e;fill-opacity:1;fill-rule:nonzero;stroke:none;stroke-width:5;stroke-linecap:round;stroke-linejoin:round;stroke-miterlimit:4;stroke-dasharray:none;stroke-dashoffset:0;stroke-opacity:1;color-rendering:auto;image-rendering:auto;shape-rendering:auto;text-rendering:auto;enable-background:accumulate" />
      <path
         inkscape:connector-curvature="0"
         id="path4377-6"
         d="m -616.99043,250.7526 c -25.79308,0 -46.75586,20.96277 -46.75586,46.75586 0,25.79309 20.96278,46.75586 46.75586,46.75586 25.79309,0 46.75586,-20.96277 46.75586,-46.75586 0,-25.79309 -20.96277,-46.75586 -46.75586,-46.75586 z m 0,5 c 23.09089,0 41.75586,18.66497 41.75586,41.75586 0,23.09089 -18.66497,41.75586 -41.75586,41.75586 -23.09088,0 -41.75586,-18.66497 -41.75586,-41.75586 0,-23.09089 18.66498,-41.75586 41.75586,-41.75586 z"
         style="color:#000000;font-style:normal;font-variant:normal;font-weight:normal;font-stretch:normal;font-size:medium;line-height:normal;font-family:sans-serif;text-indent:0;text-align:start;text-decoration:none;text-decoration-line:none;text-decoration-style:solid;text-decoration-color:#000000;letter-spacing:normal;word-spacing:normal;text-transform:none;direction:ltr;block-progression:tb;writing-mode:lr-tb;baseline-shift:baseline;text-anchor:start;white-space:normal;clip-rule:nonzero;display:inline;overflow:visible;visibility:visible;opacity:1;isolation:auto;mix-blend-mode:normal;color-interpolation:sRGB;color-interpolation-filters:linearRGB;solid-color:#000000;solid-opacity:1;fill:#f0632e;fill-opacity:1;fill-rule:nonzero;stroke:none;stroke-width:5;stroke-linecap:round;stroke-linejoin:round;stroke-miterlimit:4;stroke-dasharray:none;stroke-dashoffset:0;stroke-opacity:1;color-rendering:auto;image-rendering:auto;shape-rendering:auto;text-rendering:auto;enable-background:accumulate" />
      <path
         inkscape:connector-curvature="0"
         id="path4402"
         d="m -198.57143,260.02762 c -17.91983,0 -32.5,14.58017 -32.5,32.5 0,17.91983 14.58017,32.5 32.5,32.5 17.91983,0 32.5,-14.58017 32.5,-32.5 0,-17.91983 -14.58017,-32.5 -32.5,-32.5 z m 0,4.96875 c 15.23493,0 27.5332,12.29632 27.5332,27.53125 0,15.23493 -12.29827,27.5332 -27.5332,27.5332 -15.23493,0 -27.53125,-12.29827 -27.53125,-27.5332 0,-15.23493 12.29632,-27.53125 27.53125,-27.53125 z"
         style="color:#000000;font-style:normal;font-variant:normal;font-weight:normal;font-stretch:normal;font-size:medium;line-height:normal;font-family:sans-serif;text-indent:0;text-align:start;text-decoration:none;text-decoration-line:none;text-decoration-style:solid;text-decoration-color:#000000;letter-spacing:normal;word-spacing:normal;text-transform:none;direction:ltr;block-progression:tb;writing-mode:lr-tb;baseline-shift:baseline;text-anchor:start;white-space:normal;clip-rule:nonzero;display:inline;overflow:visible;visibility:visible;opacity:1;isolation:auto;mix-blend-mode:normal;color-interpolation:sRGB;color-interpolation-filters:linearRGB;solid-color:#000000;solid-opacity:1;fill:#f0632e;fill-opacity:1;fill-rule:nonzero;stroke:none;stroke-width:4.96798658;stroke-linecap:round;stroke-linejoin:round;stroke-miterlimit:4;stroke-dasharray:none;stroke-dashoffset:0;stroke-opacity:1;color-rendering:auto;image-rendering:auto;shape-rendering:auto;text-rendering:auto;enable-background:accumulate" />
      <path
         inkscape:connector-curvature="0"
         id="path4402-2"
         d="m -198.57143,273.98856 c -10.20999,0 -18.53906,8.32907 -18.53906,18.53906 0,10.20999 8.32907,18.54102 18.53906,18.54102 10.20999,0 18.54102,-8.33103 18.54102,-18.54102 0,-10.20999 -8.33103,-18.53906 -18.54102,-18.53906 z m 0,5 c 7.50779,0 13.54102,6.03127 13.54102,13.53906 0,7.50779 -6.03323,13.54102 -13.54102,13.54102 -7.50779,0 -13.53906,-6.03323 -13.53906,-13.54102 0,-7.50779 6.03127,-13.53906 13.53906,-13.53906 z"
         style="color:#000000;font-style:normal;font-variant:normal;font-weight:normal;font-stretch:normal;font-size:medium;line-height:normal;font-family:sans-serif;text-indent:0;text-align:start;text-decoration:none;text-decoration-line:none;text-decoration-style:solid;text-decoration-color:#000000;letter-spacing:normal;word-spacing:normal;text-transform:none;direction:ltr;block-progression:tb;writing-mode:lr-tb;baseline-shift:baseline;text-anchor:start;white-space:normal;clip-rule:nonzero;display:inline;overflow:visible;visibility:visible;opacity:1;isolation:auto;mix-blend-mode:normal;color-interpolation:sRGB;color-interpolation-filters:linearRGB;solid-color:#000000;solid-opacity:1;fill:#f0632e;fill-opacity:1;fill-rule:nonzero;stroke:none;stroke-width:5;stroke-linecap:round;stroke-linejoin:round;stroke-miterlimit:4;stroke-dasharray:none;stroke-dashoffset:0;stroke-opacity:1;color-rendering:auto;image-rendering:auto;shape-rendering:auto;text-rendering:auto;enable-background:accumulate" />
      <path
         inkscape:connector-curvature="0"
         id="path4506"
         d="m -217.99805,72.033203 c 0,0 -0.1069,2.032672 -0.39062,4.537109 -0.28372,2.504438 -0.77985,5.512665 -1.39063,7.140626 -2.83854,7.565868 -7.64223,14.514066 -13.09179,20.656252 -4.69229,5.28866 -17.29297,14.07226 -17.29297,14.07226 l 1.70312,2.46875 c 0,0 12.50026,-8.54136 17.83203,-14.55078 5.61304,-6.32642 10.64153,-13.553088 13.65821,-21.593748 0.82581,-2.201128 1.26786,-5.254678 1.5625,-7.855469 0.29463,-2.60079 0.40625,-4.716797 0.40625,-4.716797 l -2.9961,-0.158203 z"
         style="color:#000000;font-style:normal;font-variant:normal;font-weight:normal;font-stretch:normal;font-size:medium;line-height:normal;font-family:sans-serif;text-indent:0;text-align:start;text-decoration:none;text-decoration-line:none;text-decoration-style:solid;text-decoration-color:#000000;letter-spacing:normal;word-spacing:normal;text-transform:none;direction:ltr;block-progression:tb;writing-mode:lr-tb;baseline-shift:baseline;text-anchor:start;white-space:normal;clip-rule:nonzero;display:inline;overflow:visible;visibility:visible;opacity:1;isolation:auto;mix-blend-mode:normal;color-interpolation:sRGB;color-interpolation-filters:linearRGB;solid-color:#000000;solid-opacity:1;fill:#222222;fill-opacity:1;fill-rule:evenodd;stroke:none;stroke-width:3;stroke-linecap:butt;stroke-linejoin:miter;stroke-miterlimit:4;stroke-dasharray:none;stroke-dashoffset:0;stroke-opacity:1;color-rendering:auto;image-rendering:auto;shape-rendering:auto;text-rendering:auto;enable-background:accumulate" />
      <path
         id="path4427"
         d="m -260.24023,74.15625 -14.26954,4.671875 4.27539,15.863281 -215.15039,61.683594 -13.88281,-42.44531 -11.11133,3.1582 13.10938,42.69531 -8.3125,2.38282 1.76758,6.81836 8.59179,-2.53516 36.48633,118.82812 14.39453,-3.4082 -38.90429,-118.95508 214.34765,-63.259763 0.48828,1.810543 -166.85742,179.29102 13.8457,8.14062 157.91016,-169.25586 6.04883,22.44727 1.69922,-0.43555 48.30273,137.56446 10.10156,-3.03125 -47.36132,-137.36328 2.03125,-0.52149 -17.55078,-64.14453 z"
         style="fill:#f2632c;fill-opacity:1;fill-rule:evenodd;stroke:none;stroke-width:1px;stroke-linecap:butt;stroke-linejoin:miter;stroke-opacity:1"
         inkscape:connector-curvature="0" />
      <path
         id="path4442"
         d="m -442.81445,276.60156 a 40.538616,39.735039 0 0 0 -23.6543,7.52735 l -135.1875,-0.48633 a 20.322977,20.590836 0 0 0 -15.15234,-6.9082 20.322977,20.590836 0 0 0 -20.32227,20.59179 20.322977,20.590836 0 0 0 20.32227,20.58985 20.322977,20.590836 0 0 0 16.34765,-8.39649 l 121.36914,24.51758 a 40.538616,39.735039 0 0 0 36.27735,22.03516 40.538616,39.735039 0 0 0 40.53906,-39.73438 40.538616,39.735039 0 0 0 -40.53906,-39.73633 z m -154.75586,14.16992 118.93945,7.00196 a 40.538616,39.735039 0 0 0 -4.70898,18.29687 L -597.09375,302.2207 a 20.322977,20.590836 0 0 0 0.60742,-4.89453 20.322977,20.590836 0 0 0 -1.08398,-6.55469 z"
         style="color:#000000;clip-rule:nonzero;display:inline;overflow:visible;visibility:visible;opacity:1;isolation:auto;mix-blend-mode:normal;color-interpolation:sRGB;color-interpolation-filters:linearRGB;solid-color:#000000;solid-opacity:1;fill:#848484;fill-opacity:1;fill-rule:nonzero;stroke:none;stroke-width:0.52991873;stroke-linecap:round;stroke-linejoin:round;stroke-miterlimit:4;stroke-dasharray:none;stroke-dashoffset:0;stroke-opacity:1;color-rendering:auto;image-rendering:auto;shape-rendering:auto;text-rendering:auto;enable-background:accumulate"
         inkscape:connector-curvature="0" />
      <path
         inkscape:connector-curvature="0"
         id="path4500"
         d="m -494.5625,54.753906 c 0,0 -1.74615,1.636422 -4.03516,3.50586 -2.28901,1.869437 -5.21374,3.959972 -6.90625,4.683593 -8.0009,3.420743 -17.08898,5.10012 -25.68554,4.402344 -2.27075,-0.184315 -6.36087,-1.514657 -9.65821,-2.833984 -3.29734,-1.319327 -5.88867,-2.580078 -5.88867,-2.580078 l -2.1875,4.496093 c 0,0 2.74008,1.33468 6.21875,2.726563 3.47868,1.391883 7.60566,2.891228 11.11133,3.175781 9.51742,0.772522 19.34721,-1.067345 28.05664,-4.791016 2.76125,-1.180556 5.67038,-3.420702 8.10156,-5.40625 2.43118,-1.985547 4.29102,-3.728515 4.29102,-3.728515 l -3.41797,-3.650391 z"
         style="color:#000000;font-style:normal;font-variant:normal;font-weight:normal;font-stretch:normal;font-size:medium;line-height:normal;font-family:sans-serif;text-indent:0;text-align:start;text-decoration:none;text-decoration-line:none;text-decoration-style:solid;text-decoration-color:#000000;letter-spacing:normal;word-spacing:normal;text-transform:none;direction:ltr;block-progression:tb;writing-mode:lr-tb;baseline-shift:baseline;text-anchor:start;white-space:normal;clip-rule:nonzero;display:inline;overflow:visible;visibility:visible;opacity:1;isolation:auto;mix-blend-mode:normal;color-interpolation:sRGB;color-interpolation-filters:linearRGB;solid-color:#000000;solid-opacity:1;fill:#0c0c0c;fill-opacity:1;fill-rule:evenodd;stroke:none;stroke-width:5;stroke-linecap:butt;stroke-linejoin:miter;stroke-miterlimit:4;stroke-dasharray:none;stroke-dashoffset:0;stroke-opacity:1;color-rendering:auto;image-rendering:auto;shape-rendering:auto;text-rendering:auto;enable-background:accumulate" />
      <path
         sodipodi:nodetypes="ccccc"
         inkscape:connector-curvature="0"
         id="path4438"
         d="m -499.28572,113.43363 -11.60714,3.92857 -16.78571,-57.321426 10.53571,-3.035714 z"
         style="fill:#838383;fill-opacity:1;fill-rule:evenodd;stroke:none;stroke-width:1px;stroke-linecap:butt;stroke-linejoin:miter;stroke-opacity:1" />
      <path
         sodipodi:nodetypes="ccaaaccc"
         inkscape:connector-curvature="0"
         id="path4504"
         d="m -234.75,56.612207 22.125,8.25 c 0,0 2.45059,1.438403 3.12204,2.619272 0.64018,1.125864 1.01594,2.600594 0.62397,3.835 -0.38641,1.216915 -1.49216,2.274009 -2.68351,2.733228 -1.65519,0.63801 -5.3125,-0.3125 -5.3125,-0.3125 l -17.125,-6.375 z"
         style="fill:#222222;fill-opacity:1;fill-rule:evenodd;stroke:none;stroke-width:1px;stroke-linecap:butt;stroke-linejoin:miter;stroke-opacity:1" />
      <path
         sodipodi:nodetypes="sccaccaccaccss"
         inkscape:connector-curvature="0"
         id="path4440"
         d="m -282.14286,66.246132 c 0.62367,-0.579471 2.18899,-1.315712 2.18899,-1.315712 l 37.04919,-14.475606 c 0,0 4.24005,-1.605411 6.11897,-0.771183 1.46215,0.649184 2.74834,3.934528 2.74834,3.934528 l 3.9132,11.612941 c 0,0 0.42825,1.487774 0.12417,2.131103 -0.2034,0.430341 -1.15424,0.840725 -1.15424,0.840725 l -46.42665,12.833281 c 0,0 -1.49148,0.325413 -2.10661,-0.0133 -0.51508,-0.283618 -0.95259,-1.484683 -0.95259,-1.484683 l -2.09252,-6.583545 c 0,0 -0.53915,-1.916719 -0.56905,-3.098383 -0.0287,-1.132196 0.21346,-2.731827 1.1588,-3.610169 z"
         style="fill:#828282;fill-opacity:1;fill-rule:evenodd;stroke:none;stroke-width:1px;stroke-linecap:butt;stroke-linejoin:miter;stroke-opacity:1" />
      <path
         id="path4450"
         d="m -616.80859,278.99805 c -10.08054,0 -18.32813,8.24759 -18.32813,18.32812 0,10.08053 8.24759,18.32617 18.32813,18.32617 6.261,0 11.81118,-3.18402 15.12109,-8.00976 l 128.75195,20.64062 c 4.79496,12.14836 16.65489,20.79493 30.46485,20.79492 18.02311,0 32.74023,-14.71907 32.74023,-32.74218 0,-18.02312 -14.71712,-32.74024 -32.74023,-32.74024 -7.43125,0 -14.29701,2.50683 -19.80469,6.71094 l -140.78516,-5.04102 c -3.36557,-3.82905 -8.28052,-6.26757 -13.74804,-6.26757 z m 0,7 c 6.29745,0 11.32812,5.03067 11.32812,11.32812 0,6.29745 -5.03067,11.32617 -11.32812,11.32617 -6.29745,0 -11.32813,-5.02872 -11.32813,-11.32617 0,-6.29745 5.03068,-11.32812 11.32813,-11.32812 z m 15.99804,2.43164 135.18164,4.80859 c -5.9149,5.92973 -9.58398,14.10143 -9.58398,23.09766 0,2.54733 0.30354,5.0251 0.85937,7.4082 l -125.22656,-20.24609 c 0.6984,-1.93355 1.09961,-4.00512 1.09961,-6.17188 0,-3.22506 -0.85177,-6.2567 -2.33008,-8.89648 z m 158.33985,5.16601 c 12.61871,0 22.74023,10.12153 22.74023,22.74024 0,12.61871 -10.12152,22.74219 -22.74023,22.74218 -12.61872,0 -22.74219,-10.12347 -22.74219,-22.74218 0,-12.61871 10.12347,-22.74024 22.74219,-22.74024 z"
         style="color:#000000;font-style:normal;font-variant:normal;font-weight:normal;font-stretch:normal;font-size:medium;line-height:normal;font-family:sans-serif;text-indent:0;text-align:start;text-decoration:none;text-decoration-line:none;text-decoration-style:solid;text-decoration-color:#000000;letter-spacing:normal;word-spacing:normal;text-transform:none;direction:ltr;block-progression:tb;writing-mode:lr-tb;baseline-shift:baseline;text-anchor:start;white-space:normal;clip-rule:nonzero;display:inline;overflow:visible;visibility:visible;opacity:1;isolation:auto;mix-blend-mode:normal;color-interpolation:sRGB;color-interpolation-filters:linearRGB;solid-color:#000000;solid-opacity:1;fill:#c9c6c1;fill-opacity:1;fill-rule:nonzero;stroke:none;stroke-width:10;stroke-linecap:round;stroke-linejoin:round;stroke-miterlimit:4;stroke-dasharray:none;stroke-dashoffset:0;stroke-opacity:1;color-rendering:auto;image-rendering:auto;shape-rendering:auto;text-rendering:auto;enable-background:accumulate"
         inkscape:connector-curvature="0" />
      <path
         id="path4488"
         d="m -442.5332,308.68359 a 7.6524978,7.6524973 0 0 0 -7.65235,7.65235 7.6524978,7.6524973 0 0 0 0.34766,2.2539 l 13.54297,63.01368 13.97265,-4.15235 -12.66211,-62.34961 a 7.6524978,7.6524973 0 0 0 -0.0684,-0.33398 l -0.125,-0.61914 -0.0254,0.006 a 7.6524978,7.6524973 0 0 0 -7.33008,-5.47071 z"
         style="color:#000000;clip-rule:nonzero;display:inline;overflow:visible;visibility:visible;opacity:1;isolation:auto;mix-blend-mode:normal;color-interpolation:sRGB;color-interpolation-filters:linearRGB;solid-color:#000000;solid-opacity:1;fill:#202020;fill-opacity:1;fill-rule:nonzero;stroke:none;stroke-width:0.45261919;stroke-linecap:round;stroke-linejoin:round;stroke-miterlimit:4;stroke-dasharray:none;stroke-dashoffset:0;stroke-opacity:1;color-rendering:auto;image-rendering:auto;shape-rendering:auto;text-rendering:auto;enable-background:accumulate"
         inkscape:connector-curvature="0" />
      <path
         id="rect4494"
         d="m -533.39815,239.68033 28.80745,0 c 1.00581,0 1.81554,0.80973 1.81554,1.81553 l 0,2.37934 c 0,1.00581 -0.80973,1.81554 -1.81554,1.81554 l -28.80745,0 c -1.00581,0 -1.81553,-0.80973 -1.81553,-1.81554 l 0,-2.37934 c 0,-1.0058 0.80972,-1.81553 1.81553,-1.81553 z"
         style="opacity:1;fill:#cbc7c4;fill-opacity:1;stroke:none;stroke-width:7;stroke-linejoin:round;stroke-miterlimit:4;stroke-dasharray:none;stroke-dashoffset:0;stroke-opacity:1"
         transform="matrix(0.95871154,-0.28438034,0.28438034,0.95871154,0,0)"
         inkscape:connector-curvature="0" />
      <path
         id="rect4496"
         d="m -524.89984,-45.999722 15.20279,0 0,5.303301 -15.20279,0 z"
         style="opacity:1;fill:#cbc7c4;fill-opacity:1;stroke:none;stroke-width:7;stroke-linejoin:round;stroke-miterlimit:4;stroke-dasharray:none;stroke-dashoffset:0;stroke-opacity:1"
         transform="matrix(0.95298182,-0.30302748,0.30302748,0.95298182,0,0)"
         inkscape:connector-curvature="0" />
      <path
         sodipodi:nodetypes="aaaaaaasaa"
         inkscape:connector-curvature="0"
         id="path4498"
         d="m -565.25,44.112208 c -3.48767,0.797818 -8.47678,1.361498 -9.625,4.75 -1.26782,3.741462 2.81545,7.513908 5.25,10.625 2.82424,3.609075 6.14814,7.438656 10.5,8.875 4.32171,1.426395 9.13907,-0.108022 13.625,-0.875 8.25639,-1.411629 15.92941,-5.410886 24.1875,-6.8125 8.99292,-1.526333 18.29193,-0.334127 27.3125,-1.6875 6.78106,-1.017375 26.87111,-0.554344 20,-4.8125 -6.40673,-3.970368 -31.76543,-7.994484 -48,-9.6875 -14.33945,-1.495384 -29.19582,-3.589948 -43.25,-0.375 z"
         style="fill:#0c0c0c;fill-opacity:1;fill-rule:evenodd;stroke:none;stroke-width:1px;stroke-linecap:butt;stroke-linejoin:miter;stroke-opacity:1" />
    </g>
  </g>
</svg>
