<?xml version="1.0" encoding="UTF-8" standalone="no"?>
<!-- Created with Inkscape (http://www.inkscape.org/) -->

<svg
   xmlns:dc="http://purl.org/dc/elements/1.1/"
   xmlns:cc="http://creativecommons.org/ns#"
   xmlns:rdf="http://www.w3.org/1999/02/22-rdf-syntax-ns#"
   xmlns:svg="http://www.w3.org/2000/svg"
   xmlns="http://www.w3.org/2000/svg"
   xmlns:sodipodi="http://sodipodi.sourceforge.net/DTD/sodipodi-0.dtd"
   xmlns:inkscape="http://www.inkscape.org/namespaces/inkscape"
   width="33.503269mm"
   height="39.511112mm"
   viewBox="0 0 118.71237 140.00001"
   id="svg18011"
   version="1.1"
   inkscape:version="0.91 r13725"
   sodipodi:docname="calcetin-gris.svg">
  <defs
     id="defs18013" />
  <sodipodi:namedview
     id="base"
     pagecolor="#ffffff"
     bordercolor="#666666"
     borderopacity="1.0"
     inkscape:pageopacity="0.0"
     inkscape:pageshadow="2"
     inkscape:zoom="0.35"
     inkscape:cx="-461.41615"
     inkscape:cy="-172.6395"
     inkscape:document-units="px"
     inkscape:current-layer="layer1"
     showgrid="false"
     fit-margin-top="0"
     fit-margin-left="0"
     fit-margin-right="0"
     fit-margin-bottom="0"
     inkscape:window-width="1366"
     inkscape:window-height="710"
     inkscape:window-x="0"
     inkscape:window-y="25"
     inkscape:window-maximized="1" />
  <metadata
     id="metadata18016">
    <rdf:RDF>
      <cc:Work
         rdf:about="">
        <dc:format>image/svg+xml</dc:format>
        <dc:type
           rdf:resource="http://purl.org/dc/dcmitype/StillImage" />
        <dc:title></dc:title>
      </cc:Work>
    </rdf:RDF>
  </metadata>
  <g
     inkscape:label="Capa 1"
     inkscape:groupmode="layer"
     id="layer1"
     transform="translate(-224.98758,-219.72271)">
    <g
       transform="matrix(0.78570614,0,0,-0.78570614,-1922.4146,1575.6455)"
       id="g17843">
      <path
         d="m 2818.8567,1658.623 c -0.341,-7.3 -4.55,-12.563 -12.501,-15.665 -1.716,-0.661 -3.422,-1.819 -4.88,-2.998 -2.399,-1.913 -4.126,-3.898 -4.157,-3.929 l -30.243,-34.11 -0.558,-0.631 c -5.925,-7.062 -14.92,-7.072 -15.055,-7.062 -5.014,0.103 -9.678,2.151 -13.152,5.77 -3.463,3.608 -5.324,8.364 -5.221,13.369 0.093,4.497 2.027,8.085 4.094,11.29 0,0 0.052,0.073 0.155,0.218 2.317,3.143 29.086,39.476 29.096,39.487 0.052,0.062 3.784,4.983 5.666,13.152 0.114,0.506 0.217,1.023 0.31,1.55 0.455,2.347 0.735,4.932 0.735,7.724 l 0,36.861 c 0,1.158 0.94,2.088 2.098,2.088 l 36.768,0 c 1.158,0 2.099,-0.93 2.099,-2.088 l 0,-45.939 c 0.021,-0.062 0.052,-0.124 0.072,-0.196 0.248,-0.693 0.538,-1.438 0.838,-2.224 1.83,-4.797 4.105,-10.753 3.836,-16.667"
         style="fill:#808285;fill-opacity:1;fill-rule:nonzero;stroke:none"
         id="path15500"
         inkscape:connector-curvature="0" />
      <path
         d="m 2815.0205,1675.2905 c -0.3,0.786 -0.589,1.53 -0.837,2.223 -0.021,0.072 -0.052,0.134 -0.073,0.196 l 0,45.939 c 0,1.158 -0.941,2.089 -2.099,2.089 l -4.093,0 c 1.158,0 2.099,-0.931 2.099,-2.089 l 0,-45.939 c 0.021,-0.062 0.052,-0.124 0.073,-0.196 0.248,-0.693 0.537,-1.437 0.837,-2.223 1.83,-4.798 4.105,-10.753 3.836,-16.667 -0.341,-7.3 -4.549,-12.563 -12.5,-15.665 -1.717,-0.662 -3.423,-1.82 -4.881,-2.998 -2.398,-1.913 -4.125,-3.899 -4.156,-3.93 l -30.244,-34.11 -0.558,-0.63 c -4.234,-5.048 -10.022,-6.487 -13.037,-6.897 0.684,-0.09 1.375,-0.151 2.076,-0.166 0.134,-0.01 9.13,0 15.054,7.063 l 0.558,0.63 30.244,34.11 c 0.031,0.031 1.757,2.017 4.156,3.93 1.458,1.178 3.164,2.336 4.88,2.998 7.952,3.102 12.16,8.365 12.501,15.665 0.269,5.914 -2.006,11.869 -3.836,16.667"
         style="fill:#a7a9ac;fill-opacity:1;fill-rule:nonzero;stroke:none"
         id="path15504"
         inkscape:connector-curvature="0" />
      <path
         d="m 2814.1106,1723.6488 0,-5.987 -40.965,0 0,5.987 c 0,1.158 0.941,2.089 2.099,2.089 l 36.767,0 c 1.158,0 2.099,-0.931 2.099,-2.089"
         style="fill:#bcbec0;fill-opacity:1;fill-rule:nonzero;stroke:none"
         id="path15508"
         inkscape:connector-curvature="0" />
      <path
         inkscape:connector-curvature="0"
         id="path15510"
         style="fill:#bcbec0;fill-opacity:1;fill-rule:nonzero;stroke:none"
         d="m 2814.111,1712.143 -40.965,0 0,1.551 40.965,0 z" />
      <path
         inkscape:connector-curvature="0"
         id="path15512"
         style="fill:#bcbec0;fill-opacity:1;fill-rule:nonzero;stroke:none"
         d="m 2814.111,1702.297 -40.965,0 0,5.565 40.965,0 z" />
      <path
         inkscape:connector-curvature="0"
         id="path15514"
         style="fill:#bcbec0;fill-opacity:1;fill-rule:nonzero;stroke:none"
         d="m 2814.111,1695.265 -40.965,0 0,1.551 40.965,0 z" />
      <path
         d="m 2814.1831,1677.5135 -42.082,0 c 0.113,0.507 0.217,1.024 0.31,1.551 l 41.699,0 0,-1.355 c 0.021,-0.062 0.052,-0.124 0.073,-0.196"
         style="fill:#bcbec0;fill-opacity:1;fill-rule:nonzero;stroke:none"
         id="path15518"
         inkscape:connector-curvature="0" />
      <path
         inkscape:connector-curvature="0"
         id="path15520"
         style="fill:#bcbec0;fill-opacity:1;fill-rule:nonzero;stroke:none"
         d="m 2814.111,1685.419 -40.965,0 0,5.565 40.965,0 z" />
      <path
         d="m 2767.0759,1601.9207 -0.558,-0.631 c -5.925,-7.062 -14.921,-7.072 -15.055,-7.062 -5.014,0.104 -9.678,2.151 -13.152,5.77 -3.464,3.608 -5.325,8.365 -5.221,13.369 0.093,4.498 2.026,8.085 4.094,11.291 0,0 0.052,0.072 0.155,0.217 9.172,-0.341 25.632,-3.733 29.737,-22.954"
         style="fill:#d1d3d4;fill-opacity:1;fill-rule:nonzero;stroke:none"
         id="path15524"
         inkscape:connector-curvature="0" />
      <path
         d="m 2818.8567,1658.623 c -0.341,-7.3 -4.55,-12.563 -12.501,-15.665 -1.716,-0.661 -3.422,-1.819 -4.88,-2.998 -5.098,24.081 12.707,37.554 12.707,37.554 0.248,-0.693 0.538,-1.438 0.838,-2.224 1.83,-4.797 4.105,-10.753 3.836,-16.667"
         style="fill:#d1d3d4;fill-opacity:1;fill-rule:nonzero;stroke:none"
         id="path15528"
         inkscape:connector-curvature="0" />
      <path
         d="m 2884.1538,1611.9502 c -0.341,-7.3 -4.549,-12.563 -12.5,-15.665 -1.717,-0.661 -3.423,-1.819 -4.881,-2.998 -2.399,-1.913 -4.125,-3.898 -4.156,-3.929 l -30.244,-34.11 -0.558,-0.631 c -5.925,-7.062 -14.92,-7.072 -15.054,-7.062 -5.015,0.103 -9.678,2.151 -13.152,5.77 -3.464,3.608 -5.325,8.364 -5.222,13.369 0.093,4.497 2.027,8.085 4.095,11.29 0,0 0.051,0.073 0.155,0.218 2.316,3.143 29.085,39.476 29.095,39.486 0.052,0.063 3.785,4.984 5.666,13.153 0.114,0.506 0.217,1.023 0.31,1.55 0.456,2.347 0.735,4.932 0.735,7.724 l 0,36.861 c 0,1.158 0.94,2.088 2.099,2.088 l 36.767,0 c 1.158,0 2.099,-0.93 2.099,-2.088 l 0,-45.939 c 0.021,-0.062 0.052,-0.124 0.072,-0.196 0.249,-0.693 0.538,-1.438 0.838,-2.224 1.83,-4.797 4.105,-10.753 3.836,-16.667"
         style="fill:#808285;fill-opacity:1;fill-rule:nonzero;stroke:none"
         id="path15532"
         inkscape:connector-curvature="0" />
      <path
         d="m 2880.3179,1628.6176 c -0.3,0.786 -0.589,1.53 -0.838,2.223 -0.02,0.072 -0.051,0.134 -0.072,0.196 l 0,45.939 c 0,1.158 -0.941,2.089 -2.099,2.089 l -4.093,0 c 1.158,0 2.099,-0.931 2.099,-2.089 l 0,-45.939 c 0.021,-0.062 0.052,-0.124 0.073,-0.196 0.248,-0.693 0.537,-1.437 0.837,-2.223 1.83,-4.797 4.105,-10.753 3.836,-16.667 -0.341,-7.3 -4.549,-12.563 -12.501,-15.665 -1.716,-0.662 -3.422,-1.82 -4.88,-2.998 -2.399,-1.913 -4.125,-3.898 -4.156,-3.929 l -30.244,-34.111 -0.558,-0.63 c -4.235,-5.048 -10.022,-6.487 -13.037,-6.897 0.684,-0.089 1.375,-0.151 2.076,-0.165 0.134,-0.011 9.129,0 15.054,7.062 l 0.558,0.63 30.244,34.111 c 0.031,0.031 1.757,2.016 4.156,3.929 1.458,1.178 3.164,2.336 4.88,2.998 7.952,3.102 12.16,8.365 12.501,15.665 0.269,5.914 -2.006,11.87 -3.836,16.667"
         style="fill:#a7a9ac;fill-opacity:1;fill-rule:nonzero;stroke:none"
         id="path15536"
         inkscape:connector-curvature="0" />
      <path
         d="m 2879.408,1676.976 0,-5.987 -40.966,0 0,5.987 c 0,1.158 0.941,2.089 2.1,2.089 l 36.767,0 c 1.158,0 2.099,-0.931 2.099,-2.089"
         style="fill:#bcbec0;fill-opacity:1;fill-rule:nonzero;stroke:none"
         id="path15540"
         inkscape:connector-curvature="0" />
      <path
         inkscape:connector-curvature="0"
         id="path15542"
         style="fill:#bcbec0;fill-opacity:1;fill-rule:nonzero;stroke:none"
         d="m 2879.408,1665.47 -40.966,0 0,1.551 40.966,0 z" />
      <path
         inkscape:connector-curvature="0"
         id="path15544"
         style="fill:#bcbec0;fill-opacity:1;fill-rule:nonzero;stroke:none"
         d="m 2879.408,1655.624 -40.966,0 0,5.565 40.966,0 z" />
      <path
         inkscape:connector-curvature="0"
         id="path15546"
         style="fill:#bcbec0;fill-opacity:1;fill-rule:nonzero;stroke:none"
         d="m 2879.408,1648.592 -40.966,0 0,1.551 40.966,0 z" />
      <path
         d="m 2879.4802,1630.8407 -42.082,0 c 0.114,0.507 0.217,1.024 0.31,1.551 l 41.7,0 0,-1.355 c 0.02,-0.062 0.051,-0.124 0.072,-0.196"
         style="fill:#bcbec0;fill-opacity:1;fill-rule:nonzero;stroke:none"
         id="path15550"
         inkscape:connector-curvature="0" />
      <path
         inkscape:connector-curvature="0"
         id="path15552"
         style="fill:#bcbec0;fill-opacity:1;fill-rule:nonzero;stroke:none"
         d="m 2879.408,1638.746 -40.966,0 0,5.565 40.966,0 z" />
      <path
         d="m 2832.373,1555.2478 -0.558,-0.631 c -5.925,-7.062 -14.92,-7.072 -15.055,-7.062 -5.014,0.104 -9.678,2.151 -13.152,5.77 -3.463,3.608 -5.325,8.365 -5.221,13.369 0.093,4.498 2.026,8.085 4.094,11.291 0,0 0.052,0.072 0.155,0.217 9.172,-0.341 25.632,-3.733 29.737,-22.954"
         style="fill:#d1d3d4;fill-opacity:1;fill-rule:nonzero;stroke:none"
         id="path15556"
         inkscape:connector-curvature="0" />
      <path
         d="m 2884.1538,1611.9502 c -0.341,-7.3 -4.549,-12.563 -12.5,-15.665 -1.717,-0.661 -3.423,-1.819 -4.881,-2.998 -5.097,24.081 12.707,37.554 12.707,37.554 0.249,-0.693 0.538,-1.438 0.838,-2.224 1.83,-4.797 4.105,-10.753 3.836,-16.667"
         style="fill:#d1d3d4;fill-opacity:1;fill-rule:nonzero;stroke:none"
         id="path15560"
         inkscape:connector-curvature="0" />
    </g>
  </g>
</svg>
