<?xml version="1.0" encoding="UTF-8" standalone="no"?>
<!-- Created with Inkscape (http://www.inkscape.org/) -->

<svg
   xmlns:dc="http://purl.org/dc/elements/1.1/"
   xmlns:cc="http://creativecommons.org/ns#"
   xmlns:rdf="http://www.w3.org/1999/02/22-rdf-syntax-ns#"
   xmlns:svg="http://www.w3.org/2000/svg"
   xmlns="http://www.w3.org/2000/svg"
   xmlns:sodipodi="http://sodipodi.sourceforge.net/DTD/sodipodi-0.dtd"
   xmlns:inkscape="http://www.inkscape.org/namespaces/inkscape"
   width="27.559599mm"
   height="29.084469mm"
   viewBox="0 0 97.652123 103.05521"
   id="svg15304"
   version="1.1"
   inkscape:version="0.91 r13725"
   sodipodi:docname="camisa-verde.svg">
  <defs
     id="defs15306" />
  <sodipodi:namedview
     id="base"
     pagecolor="#ffffff"
     bordercolor="#666666"
     borderopacity="1.0"
     inkscape:pageopacity="0.0"
     inkscape:pageshadow="2"
     inkscape:zoom="0.35"
     inkscape:cx="-850.20508"
     inkscape:cy="117.34078"
     inkscape:document-units="px"
     inkscape:current-layer="layer1"
     showgrid="false"
     fit-margin-top="0"
     fit-margin-left="0"
     fit-margin-right="0"
     fit-margin-bottom="0"
     inkscape:window-width="1366"
     inkscape:window-height="710"
     inkscape:window-x="0"
     inkscape:window-y="25"
     inkscape:window-maximized="1" />
  <metadata
     id="metadata15309">
    <rdf:RDF>
      <cc:Work
         rdf:about="">
        <dc:format>image/svg+xml</dc:format>
        <dc:type
           rdf:resource="http://purl.org/dc/dcmitype/StillImage" />
        <dc:title></dc:title>
      </cc:Work>
    </rdf:RDF>
  </metadata>
  <g
     inkscape:label="Capa 1"
     inkscape:groupmode="layer"
     id="layer1"
     transform="translate(-650.91938,-546.6478)">
    <g
       id="g15960">
      <path
         inkscape:connector-curvature="0"
         id="path2504"
         style="fill:#39b54a;fill-opacity:1;fill-rule:evenodd;stroke:none"
         d="m 668.37804,551.92967 62.01201,0 0,97.77334 -62.01201,0 z" />
      <path
         d="m 717.89418,565.95033 8.4,29.11334 22.27733,-6.04534 -8.504,-29.468 c -4.012,-13.90666 -25.98133,-6.78933 -22.17333,6.4"
         style="fill:#39b54a;fill-opacity:1;fill-rule:evenodd;stroke:none"
         id="path2508"
         inkscape:connector-curvature="0" />
      <path
         d="m 681.59858,565.95033 -8.40267,29.11334 -22.276,-6.04534 8.50533,-29.468 c 4.012,-13.90666 25.97867,-6.78933 22.17334,6.4"
         style="fill:#39b54a;fill-opacity:1;fill-rule:evenodd;stroke:none"
         id="path2512"
         inkscape:connector-curvature="0" />
      <path
         d="m 650.91938,589.01873 1.19466,-4.14266 16.26534,4.36133 0,4.51867 z"
         style="fill:#86bf89;fill-opacity:1;fill-rule:evenodd;stroke:none"
         id="path2516"
         inkscape:connector-curvature="0" />
      <path
         d="m 685.38018,559.32953 14.00533,6.604 14.00133,-6.604 17.00401,34.62267 -62.01201,-0.196 z"
         style="fill:#39b54a;fill-opacity:1;fill-rule:evenodd;stroke:none"
         id="path2520"
         inkscape:connector-curvature="0" />
      <path
         d="m 684.54751,546.6478 -4.576,5.28267 5.63333,22.18 9.50667,-11.26534 z"
         style="fill:#86bf89;fill-opacity:1;fill-rule:evenodd;stroke:none"
         id="path2524"
         inkscape:connector-curvature="0" />
      <path
         d="m 714.47764,546.6478 4.57601,5.28267 -5.63334,22.18 -9.50667,-11.26534 z"
         style="fill:#86bf89;fill-opacity:1;fill-rule:evenodd;stroke:none"
         id="path2528"
         inkscape:connector-curvature="0" />
      <path
         d="m 699.38484,565.93353 -4.27333,-3.088 -1.33067,1.576 c 1.57734,0.81067 3.74534,1.512 5.604,1.512 m 5.604,-1.81466 c -1.71066,1.09866 -3.48,1.81466 -5.604,1.81466 l 4.528,-3.088 z"
         style="fill:#006838;fill-opacity:1;fill-rule:evenodd;stroke:none"
         id="path2532"
         inkscape:connector-curvature="0" />
      <path
         d="m 748.57111,589.01873 -1.196,-4.14266 -16.984,4.55733 0,4.51867 z"
         style="fill:#86bf89;fill-opacity:1;fill-rule:evenodd;stroke:none"
         id="path2536"
         inkscape:connector-curvature="0" />
    </g>
  </g>
</svg>
