<?xml version="1.0" encoding="UTF-8" standalone="no"?>
<!-- Created with Inkscape (http://www.inkscape.org/) -->

<svg
   xmlns:dc="http://purl.org/dc/elements/1.1/"
   xmlns:cc="http://creativecommons.org/ns#"
   xmlns:rdf="http://www.w3.org/1999/02/22-rdf-syntax-ns#"
   xmlns:svg="http://www.w3.org/2000/svg"
   xmlns="http://www.w3.org/2000/svg"
   xmlns:sodipodi="http://sodipodi.sourceforge.net/DTD/sodipodi-0.dtd"
   xmlns:inkscape="http://www.inkscape.org/namespaces/inkscape"
   width="27.559601mm"
   height="29.084467mm"
   viewBox="0 0 97.65213 103.0552"
   id="svg15304"
   version="1.1"
   inkscape:version="0.91 r13725"
   sodipodi:docname="camisa-rosa.svg">
  <defs
     id="defs15306" />
  <sodipodi:namedview
     id="base"
     pagecolor="#ffffff"
     bordercolor="#666666"
     borderopacity="1.0"
     inkscape:pageopacity="0.0"
     inkscape:pageshadow="2"
     inkscape:zoom="0.35"
     inkscape:cx="-1032.8076"
     inkscape:cy="274.58267"
     inkscape:document-units="px"
     inkscape:current-layer="layer1"
     showgrid="false"
     fit-margin-top="0"
     fit-margin-left="0"
     fit-margin-right="0"
     fit-margin-bottom="0"
     inkscape:window-width="1366"
     inkscape:window-height="710"
     inkscape:window-x="0"
     inkscape:window-y="25"
     inkscape:window-maximized="1" />
  <metadata
     id="metadata15309">
    <rdf:RDF>
      <cc:Work
         rdf:about="">
        <dc:format>image/svg+xml</dc:format>
        <dc:type
           rdf:resource="http://purl.org/dc/dcmitype/StillImage" />
        <dc:title></dc:title>
      </cc:Work>
    </rdf:RDF>
  </metadata>
  <g
     inkscape:label="Capa 1"
     inkscape:groupmode="layer"
     id="layer1"
     transform="translate(-833.52189,-703.88969)">
    <g
       id="g16029">
      <path
         inkscape:connector-curvature="0"
         id="path2470"
         style="fill:#f47acf;fill-opacity:1;fill-rule:evenodd;stroke:none"
         d="m 850.98176,709.17156 62.012,0 0,97.77333 -62.012,0 z" />
      <path
         d="m 900.49669,723.19222 8.4,29.11333 22.27733,-6.04533 -8.504,-29.468 c -4.012,-13.90666 -25.98133,-6.78933 -22.17333,6.4"
         style="fill:#f47acf;fill-opacity:1;fill-rule:evenodd;stroke:none"
         id="path2474"
         inkscape:connector-curvature="0" />
      <path
         d="m 864.20109,723.19222 -8.40267,29.11333 -22.276,-6.04533 8.50534,-29.468 c 4.012,-13.90666 25.97866,-6.78933 22.17333,6.4"
         style="fill:#f47acf;fill-opacity:1;fill-rule:evenodd;stroke:none"
         id="path2478"
         inkscape:connector-curvature="0" />
      <path
         d="m 833.52189,746.26062 1.19467,-4.14266 16.26533,4.36133 0,4.51866 z"
         style="fill:#f7bae8;fill-opacity:1;fill-rule:evenodd;stroke:none"
         id="path2482"
         inkscape:connector-curvature="0" />
      <path
         d="m 867.98269,716.57142 14.00533,6.604 14.00133,-6.604 17.00401,34.62267 -62.012,-0.196 z"
         style="fill:#f47acf;fill-opacity:1;fill-rule:evenodd;stroke:none"
         id="path2486"
         inkscape:connector-curvature="0" />
      <path
         d="m 867.15002,703.88969 -4.576,5.28267 5.63334,22.18 9.50666,-11.26534 z"
         style="fill:#f7bae8;fill-opacity:1;fill-rule:evenodd;stroke:none"
         id="path2490"
         inkscape:connector-curvature="0" />
      <path
         d="m 897.08016,703.88969 4.576,5.28267 -5.63334,22.18 -9.50666,-11.26534 z"
         style="fill:#f7bae8;fill-opacity:1;fill-rule:evenodd;stroke:none"
         id="path2494"
         inkscape:connector-curvature="0" />
      <path
         d="m 881.98736,723.17542 -4.27334,-3.088 -1.33066,1.576 c 1.57733,0.81067 3.74533,1.512 5.604,1.512 m 5.604,-1.81466 c -1.71067,1.09866 -3.48,1.81466 -5.604,1.81466 l 4.528,-3.088 z"
         style="fill:#f906cb;fill-opacity:1;fill-rule:evenodd;stroke:none"
         id="path2498"
         inkscape:connector-curvature="0" />
      <path
         d="m 931.17362,746.26062 -1.196,-4.14266 -16.984,4.55733 0,4.51866 z"
         style="fill:#f7bae8;fill-opacity:1;fill-rule:evenodd;stroke:none"
         id="path2502"
         inkscape:connector-curvature="0" />
    </g>
  </g>
</svg>
