<?xml version="1.0" encoding="UTF-8" standalone="no"?>
<!-- Created with Inkscape (http://www.inkscape.org/) -->

<svg
   xmlns:dc="http://purl.org/dc/elements/1.1/"
   xmlns:cc="http://creativecommons.org/ns#"
   xmlns:rdf="http://www.w3.org/1999/02/22-rdf-syntax-ns#"
   xmlns:svg="http://www.w3.org/2000/svg"
   xmlns="http://www.w3.org/2000/svg"
   xmlns:sodipodi="http://sodipodi.sourceforge.net/DTD/sodipodi-0.dtd"
   xmlns:inkscape="http://www.inkscape.org/namespaces/inkscape"
   width="31.044443mm"
   height="32.762127mm"
   viewBox="0 0 110 116.08628"
   id="svg15304"
   version="1.1"
   inkscape:version="0.91 r13725"
   sodipodi:docname="camisa-naranja.svg">
  <defs
     id="defs15306" />
  <sodipodi:namedview
     id="base"
     pagecolor="#ffffff"
     bordercolor="#666666"
     borderopacity="1.0"
     inkscape:pageopacity="0.0"
     inkscape:pageshadow="2"
     inkscape:zoom="0.98994949"
     inkscape:cx="-107.4871"
     inkscape:cy="54.614255"
     inkscape:document-units="px"
     inkscape:current-layer="layer1"
     showgrid="false"
     fit-margin-top="0"
     fit-margin-left="0"
     fit-margin-right="0"
     fit-margin-bottom="0"
     inkscape:window-width="1366"
     inkscape:window-height="710"
     inkscape:window-x="0"
     inkscape:window-y="25"
     inkscape:window-maximized="1" />
  <metadata
     id="metadata15309">
    <rdf:RDF>
      <cc:Work
         rdf:about="">
        <dc:format>image/svg+xml</dc:format>
        <dc:type
           rdf:resource="http://purl.org/dc/dcmitype/StillImage" />
        <dc:title></dc:title>
      </cc:Work>
    </rdf:RDF>
  </metadata>
  <g
     inkscape:label="Capa 1"
     inkscape:groupmode="layer"
     id="layer1"
     transform="translate(-862.13881,-809.06608)">
    <g
       id="g16186"
       transform="matrix(1.1264475,0,0,1.1264475,-109.01532,-116.98323)"
       inkscape:export-xdpi="90"
       inkscape:export-ydpi="90">
      <path
         inkscape:connector-curvature="0"
         id="path2402"
         style="fill:#f15a29;fill-opacity:1;fill-rule:evenodd;stroke:none"
         d="m 879.59776,827.37905 62.012,0 0,97.77333 -62.012,0 z" />
      <path
         d="m 929.11363,841.39971 8.4,29.11333 22.27733,-6.04533 -8.504,-29.468 c -4.012,-13.90666 -25.98133,-6.78933 -22.17333,6.4"
         style="fill:#f15a29;fill-opacity:1;fill-rule:evenodd;stroke:none"
         id="path2406"
         inkscape:connector-curvature="0" />
      <path
         d="m 892.81803,841.39971 -8.40267,29.11333 -22.276,-6.04533 8.50534,-29.468 c 4.012,-13.90666 25.97866,-6.78933 22.17333,6.4"
         style="fill:#f15a29;fill-opacity:1;fill-rule:evenodd;stroke:none"
         id="path2410"
         inkscape:connector-curvature="0" />
      <path
         d="m 862.13883,864.46811 1.19467,-4.14266 16.26533,4.36133 0,4.51866 z"
         style="fill:#ff7f5c;fill-opacity:1;fill-rule:evenodd;stroke:none"
         id="path2414"
         inkscape:connector-curvature="0" />
      <path
         d="m 896.59963,834.77891 14.00533,6.604 14.00133,-6.604 17.004,34.62267 -62.01199,-0.196 z"
         style="fill:#f15a29;fill-opacity:1;fill-rule:evenodd;stroke:none"
         id="path2418"
         inkscape:connector-curvature="0" />
      <path
         d="m 895.76696,822.09718 -4.576,5.28267 5.63334,22.18 9.50666,-11.26534 z"
         style="fill:#ff7f5c;fill-opacity:1;fill-rule:evenodd;stroke:none"
         id="path2422"
         inkscape:connector-curvature="0" />
      <path
         d="m 925.69709,822.09718 4.576,5.28267 -5.63333,22.18 -9.50667,-11.26534 z"
         style="fill:#ff7f5c;fill-opacity:1;fill-rule:evenodd;stroke:none"
         id="path2426"
         inkscape:connector-curvature="0" />
      <path
         d="m 910.60429,841.38291 -4.27333,-3.088 -1.33066,1.576 c 1.57733,0.81067 3.74533,1.512 5.60399,1.512 m 5.604,-1.81466 c -1.71066,1.09866 -3.48,1.81466 -5.604,1.81466 l 4.528,-3.088 z"
         style="fill:#bf3d19;fill-opacity:1;fill-rule:evenodd;stroke:none"
         id="path2430"
         inkscape:connector-curvature="0" />
      <path
         d="m 959.79056,864.46811 -1.196,-4.14266 -16.984,4.55733 0,4.52 z"
         style="fill:#ff7f5c;fill-opacity:1;fill-rule:evenodd;stroke:none"
         id="path2434"
         inkscape:connector-curvature="0" />
    </g>
  </g>
</svg>
