<?xml version="1.0" encoding="UTF-8" standalone="no"?>
<!-- Created with Inkscape (http://www.inkscape.org/) -->

<svg
   xmlns:dc="http://purl.org/dc/elements/1.1/"
   xmlns:cc="http://creativecommons.org/ns#"
   xmlns:rdf="http://www.w3.org/1999/02/22-rdf-syntax-ns#"
   xmlns:svg="http://www.w3.org/2000/svg"
   xmlns="http://www.w3.org/2000/svg"
   xmlns:sodipodi="http://sodipodi.sourceforge.net/DTD/sodipodi-0.dtd"
   xmlns:inkscape="http://www.inkscape.org/namespaces/inkscape"
   width="33.302223mm"
   height="5.0724478mm"
   viewBox="0 0 118 17.97324"
   id="svg21874"
   version="1.1"
   inkscape:version="0.91 r13725"
   sodipodi:docname="faja-azul.svg"
   inkscape:export-filename="/home/piccolina/Escritorio/fundacion/megamente-web/Megamente/img/deduccion/objetos/faja-roja.png"
   inkscape:export-xdpi="90"
   inkscape:export-ydpi="90">
  <defs
     id="defs21876" />
  <sodipodi:namedview
     id="base"
     pagecolor="#ffffff"
     bordercolor="#666666"
     borderopacity="1.0"
     inkscape:pageopacity="0.0"
     inkscape:pageshadow="2"
     inkscape:zoom="1.979899"
     inkscape:cx="50.454669"
     inkscape:cy="55.857711"
     inkscape:document-units="px"
     inkscape:current-layer="layer1"
     showgrid="false"
     fit-margin-top="0"
     fit-margin-left="0"
     fit-margin-right="0"
     fit-margin-bottom="0"
     inkscape:window-width="1366"
     inkscape:window-height="710"
     inkscape:window-x="0"
     inkscape:window-y="25"
     inkscape:window-maximized="1" />
  <metadata
     id="metadata21879">
    <rdf:RDF>
      <cc:Work
         rdf:about="">
        <dc:format>image/svg+xml</dc:format>
        <dc:type
           rdf:resource="http://purl.org/dc/dcmitype/StillImage" />
        <dc:title></dc:title>
      </cc:Work>
    </rdf:RDF>
  </metadata>
  <g
     inkscape:label="Capa 1"
     inkscape:groupmode="layer"
     id="layer1"
     transform="translate(-136.38461,-444.81476)">
    <g
       transform="matrix(0,1.346411,1.346411,0,-419.04225,-4743.6666)"
       id="g21818">
      <path
         d="m 3855.8115,500.1644 0,-40.553 2.04,9.759 2.387,0 0.959,0 1.428,0 2.04,-9.759 0,40.553 z"
         style="fill:#a32e13;fill-opacity:1;fill-rule:nonzero;stroke:none"
         id="path27764"
         inkscape:connector-curvature="0" />
      <path
         inkscape:connector-curvature="0"
         id="path27766"
         style="fill:#db532e;fill-opacity:1;fill-rule:nonzero;stroke:none"
         d="m 3855.812,412.524 8.854,0 0,47.088 -8.854,0 z" />
      <path
         d="m 3861.1975,469.3699 -0.959,0 -2.387,0 -2.04,-9.758 8.855,0 -2.041,9.758 z"
         style="fill:#db532e;fill-opacity:1;fill-rule:nonzero;stroke:none"
         id="path27770"
         inkscape:connector-curvature="0" />
      <path
         d="m 3855.9697,459.7404 8.538,0 -1.987,9.501 -4.564,0 z m 8.854,-0.257 -9.171,0 2.095,10.015 4.982,0 z"
         style="fill:#db532e;fill-opacity:1;fill-rule:nonzero;stroke:none"
         id="path27774"
         inkscape:connector-curvature="0" />
      <path
         d="m 3866.9133,441.7561 -13.349,0 0,9.875 2.247,0 0,-1.03 -1.218,0 0,-7.815 11.29,0 0,7.815 -1.217,0 0,1.03 2.247,0 z"
         style="fill:#d19442;fill-opacity:1;fill-rule:nonzero;stroke:none"
         id="path27778"
         inkscape:connector-curvature="0" />
      <path
         d="m 3861.1975,446.7707 c 0,-0.53 -0.429,-0.959 -0.959,-0.959 -0.529,0 -0.958,0.429 -0.958,0.959 0,0.53 0.429,0.959 0.958,0.959 0.53,0 0.959,-0.429 0.959,-0.959"
         style="fill:#dd7962;fill-opacity:1;fill-rule:nonzero;stroke:none"
         id="path27782"
         inkscape:connector-curvature="0" />
      <path
         d="m 3861.1975,455.1297 c 0,-0.529 -0.429,-0.959 -0.959,-0.959 -0.529,0 -0.958,0.43 -0.958,0.959 0,0.53 0.429,0.959 0.958,0.959 0.53,0 0.959,-0.429 0.959,-0.959"
         style="fill:#dd7962;fill-opacity:1;fill-rule:nonzero;stroke:none"
         id="path27786"
         inkscape:connector-curvature="0" />
      <path
         d="m 3861.1975,463.4893 c 0,-0.53 -0.429,-0.959 -0.959,-0.959 -0.529,0 -0.958,0.429 -0.958,0.959 0,0.529 0.429,0.959 0.958,0.959 0.53,0 0.959,-0.43 0.959,-0.959"
         style="fill:#dd7962;fill-opacity:1;fill-rule:nonzero;stroke:none"
         id="path27790"
         inkscape:connector-curvature="0" />
      <path
         d="m 3861.1975,471.8486 c 0,-0.529 -0.429,-0.959 -0.959,-0.959 -0.529,0 -0.958,0.43 -0.958,0.959 0,0.529 0.429,0.959 0.958,0.959 0.53,0 0.959,-0.43 0.959,-0.959"
         style="fill:#dd7962;fill-opacity:1;fill-rule:nonzero;stroke:none"
         id="path27794"
         inkscape:connector-curvature="0" />
      <path
         inkscape:connector-curvature="0"
         id="path27796"
         style="fill:#d19442;fill-opacity:1;fill-rule:nonzero;stroke:none"
         d="m 3860.754,439.168 -1.03,0 0,7.526 1.03,0 z" />
      <path
         inkscape:connector-curvature="0"
         id="path27798"
         style="fill:#dd7962;fill-opacity:1;fill-rule:nonzero;stroke:none"
         d="m 3865.634,458.067 -10.791,0 0,1.544 10.791,0 z" />
      <path
         inkscape:connector-curvature="0"
         id="path27800"
         style="fill:#dd7962;fill-opacity:1;fill-rule:nonzero;stroke:none"
         d="m 3854.966,458.189 10.546,0 0,1.3 -10.546,0 z m 10.791,-0.244 -11.036,0 0,1.789 11.036,0 z" />
    </g>
    <g
       transform="matrix(1.3333333,0,0,-1.3333333,-5014.48,1104.3732)"
       id="g21832">
      <path
         d="m 3893.5715,502.6596 0,-40.553 2.04,9.759 2.387,0 0.959,0 1.428,0 2.04,-9.759 0,40.553 z"
         style="fill:#03632c;fill-opacity:1;fill-rule:nonzero;stroke:none"
         id="path27804"
         inkscape:connector-curvature="0" />
      <path
         inkscape:connector-curvature="0"
         id="path27806"
         style="fill:#009444;fill-opacity:1;fill-rule:nonzero;stroke:none"
         d="m 3893.572,415.019 8.854,0 0,47.088 -8.854,0 z" />
      <path
         d="m 3898.9575,471.8651 -0.959,0 -2.387,0 -2.04,-9.758 8.854,0 -2.04,9.758 z"
         style="fill:#009444;fill-opacity:1;fill-rule:nonzero;stroke:none"
         id="path27810"
         inkscape:connector-curvature="0" />
      <path
         d="m 3893.7297,462.2356 8.538,0 -1.987,9.501 -4.564,0 z m 8.854,-0.257 -9.171,0 2.094,10.015 4.983,0 z"
         style="fill:#009444;fill-opacity:1;fill-rule:nonzero;stroke:none"
         id="path27814"
         inkscape:connector-curvature="0" />
      <path
         d="m 3904.6733,444.2513 -13.349,0 0,9.875 2.247,0 0,-1.03 -1.218,0 0,-7.815 11.29,0 0,7.815 -1.218,0 0,1.03 2.248,0 z"
         style="fill:#d19442;fill-opacity:1;fill-rule:nonzero;stroke:none"
         id="path27818"
         inkscape:connector-curvature="0" />
      <path
         d="m 3898.9575,449.2658 c 0,-0.529 -0.429,-0.959 -0.959,-0.959 -0.529,0 -0.959,0.43 -0.959,0.959 0,0.53 0.43,0.959 0.959,0.959 0.53,0 0.959,-0.429 0.959,-0.959"
         style="fill:#0ac95b;fill-opacity:1;fill-rule:nonzero;stroke:none"
         id="path27822"
         inkscape:connector-curvature="0" />
      <path
         d="m 3898.9575,457.6249 c 0,-0.529 -0.429,-0.959 -0.959,-0.959 -0.529,0 -0.959,0.43 -0.959,0.959 0,0.529 0.43,0.959 0.959,0.959 0.53,0 0.959,-0.43 0.959,-0.959"
         style="fill:#0ac95b;fill-opacity:1;fill-rule:nonzero;stroke:none"
         id="path27826"
         inkscape:connector-curvature="0" />
      <path
         d="m 3898.9575,465.9845 c 0,-0.529 -0.429,-0.959 -0.959,-0.959 -0.529,0 -0.959,0.43 -0.959,0.959 0,0.53 0.43,0.959 0.959,0.959 0.53,0 0.959,-0.429 0.959,-0.959"
         style="fill:#0ac95b;fill-opacity:1;fill-rule:nonzero;stroke:none"
         id="path27830"
         inkscape:connector-curvature="0" />
      <path
         d="m 3898.9575,474.3438 c 0,-0.53 -0.429,-0.959 -0.959,-0.959 -0.529,0 -0.959,0.429 -0.959,0.959 0,0.529 0.43,0.959 0.959,0.959 0.53,0 0.959,-0.43 0.959,-0.959"
         style="fill:#0ac95b;fill-opacity:1;fill-rule:nonzero;stroke:none"
         id="path27834"
         inkscape:connector-curvature="0" />
      <path
         inkscape:connector-curvature="0"
         id="path27836"
         style="fill:#d19442;fill-opacity:1;fill-rule:nonzero;stroke:none"
         d="m 3898.513,441.663 -1.03,0 0,7.526 1.03,0 z" />
      <path
         inkscape:connector-curvature="0"
         id="path27838"
         style="fill:#0ac95b;fill-opacity:1;fill-rule:nonzero;stroke:none"
         d="m 3903.394,460.562 -10.791,0 0,1.545 10.791,0 z" />
      <path
         inkscape:connector-curvature="0"
         id="path27840"
         style="fill:#0ac95b;fill-opacity:1;fill-rule:nonzero;stroke:none"
         d="m 3892.726,460.685 10.546,0 0,1.3 -10.546,0 z m 10.791,-0.245 -11.036,0 0,1.789 11.036,0 z" />
    </g>
  </g>
</svg>
