<?xml version="1.0" encoding="UTF-8" standalone="no"?>
<!-- Created with Inkscape (http://www.inkscape.org/) -->

<svg
   xmlns:dc="http://purl.org/dc/elements/1.1/"
   xmlns:cc="http://creativecommons.org/ns#"
   xmlns:rdf="http://www.w3.org/1999/02/22-rdf-syntax-ns#"
   xmlns:svg="http://www.w3.org/2000/svg"
   xmlns="http://www.w3.org/2000/svg"
   xmlns:sodipodi="http://sodipodi.sourceforge.net/DTD/sodipodi-0.dtd"
   xmlns:inkscape="http://www.inkscape.org/namespaces/inkscape"
   width="31.044445mm"
   height="31.144873mm"
   viewBox="0 0 110 110.35585"
   id="svg2"
   version="1.1"
   inkscape:version="0.91 r13725"
   sodipodi:docname="guitarra.svg"
   inkscape:export-filename="/home/piccolina/Escritorio/fundacion/megamente-web/Megamente/img/deduccion/objetos/guitarra.png"
   inkscape:export-xdpi="90"
   inkscape:export-ydpi="90">
  <defs
     id="defs4" />
  <sodipodi:namedview
     id="base"
     pagecolor="#ffffff"
     bordercolor="#666666"
     borderopacity="1.0"
     inkscape:pageopacity="0.0"
     inkscape:pageshadow="2"
     inkscape:zoom="0.24748737"
     inkscape:cx="-1175.0263"
     inkscape:cy="-95.48314"
     inkscape:document-units="px"
     inkscape:current-layer="layer1"
     showgrid="false"
     fit-margin-top="0"
     fit-margin-left="0"
     fit-margin-right="0"
     fit-margin-bottom="0"
     inkscape:window-width="1366"
     inkscape:window-height="710"
     inkscape:window-x="0"
     inkscape:window-y="25"
     inkscape:window-maximized="1" />
  <metadata
     id="metadata7">
    <rdf:RDF>
      <cc:Work
         rdf:about="">
        <dc:format>image/svg+xml</dc:format>
        <dc:type
           rdf:resource="http://purl.org/dc/dcmitype/StillImage" />
        <dc:title></dc:title>
      </cc:Work>
    </rdf:RDF>
  </metadata>
  <g
     inkscape:label="Capa 1"
     inkscape:groupmode="layer"
     id="layer1"
     transform="translate(659.34568,-707.50266)">
    <g
       id="g4599"
       transform="matrix(0.34891616,0,0,0.34891616,-429.28932,532.49446)">
      <path
         sodipodi:nodetypes="sasccaaassaasaaas"
         inkscape:connector-curvature="0"
         id="path4147"
         d="m -610.63721,677.84815 c 10.64739,-2.41299 21.36029,-2.82818 29.7995,-8.83884 10.48919,-7.47072 13.94909,-21.24459 22.49012,-31.4119 6.37061,-7.58362 13.84401,-14.94753 27.51243,-14.69797 13.2485,-0.75109 32.32488,13.78499 32.32488,13.78499 0,0 14.22433,12.83199 20.07836,20.3516 5.04207,6.47663 11.0885,13.02704 12.7516,21.06466 1.95048,9.42649 1.01281,20.34652 -3.92332,28.61077 -6.43975,10.78167 -19.38981,16.23161 -30.43764,22.20323 -4.19748,2.26884 -7.73892,4.4351 -9.58068,8.27992 -7.33097,15.304 -8.35111,33.36392 -16.90736,48.01814 -5.74263,9.83536 -12.36127,20.51248 -22.48859,25.723 -11.7022,6.02081 -26.71688,9.97171 -39.29135,3.86204 -27.27244,-13.25112 -55.40906,-36.70028 -67.78482,-65.60761 -4.53897,-10.60214 -4.04604,-23.7066 -0.25254,-34.59774 3.73189,-10.71424 12.27502,-19.69319 21.33948,-26.51649 7.03847,-5.29823 16.92988,-8.54169 24.36993,-10.2278 z"
         style="fill:#d9a156;fill-opacity:1;fill-rule:evenodd;stroke:none;stroke-width:1px;stroke-linecap:butt;stroke-linejoin:miter;stroke-opacity:1" />
      <path
         inkscape:connector-curvature="0"
         id="path4149"
         d="m -613.92021,718.50679 8.5863,-8.5863 53.79062,53.28555 -9.09137,9.09137 z"
         style="fill:#33120d;fill-opacity:1;fill-rule:evenodd;stroke:#000000;stroke-width:1px;stroke-linecap:butt;stroke-linejoin:miter;stroke-opacity:1" />
      <g
         id="g4170">
        <rect
           style="opacity:1;fill:#f0ede3;fill-opacity:1;stroke:none;stroke-width:1;stroke-linejoin:round;stroke-miterlimit:4;stroke-dasharray:none;stroke-dashoffset:0;stroke-opacity:1"
           id="rect4151"
           width="33.960163"
           height="2.2444935"
           x="102.16878"
           y="931.71875"
           transform="matrix(0.70131503,0.71285148,-0.71285148,0.70131503,0,0)" />
        <path
           style="fill:#f0ede3;fill-opacity:1;fill-rule:evenodd;stroke:none;stroke-width:0.5;stroke-linecap:butt;stroke-linejoin:miter;stroke-miterlimit:4;stroke-dasharray:none;stroke-opacity:1"
           d="m -596.30568,730.88116 0.75762,-0.82075 23.35978,23.35978 -0.50508,0.63134 z"
           id="path4168"
           inkscape:connector-curvature="0"
           sodipodi:nodetypes="ccccc" />
      </g>
      <path
         id="path4174"
         d="m -531.33984,660.78125 a 28.63553,28.546244 0 0 0 -28.63477,28.54492 28.63553,28.546244 0 0 0 28.63477,28.54688 28.63553,28.546244 0 0 0 28.63672,-28.54688 28.63553,28.546244 0 0 0 -28.63672,-28.54492 z m 0,7.3457 a 21.266222,21.199913 0 0 1 21.26757,21.19922 21.266222,21.199913 0 0 1 -21.26757,21.20117 21.266222,21.199913 0 0 1 -21.26563,-21.20117 21.266222,21.199913 0 0 1 21.26563,-21.19922 z"
         style="color:#000000;clip-rule:nonzero;display:inline;overflow:visible;visibility:visible;opacity:1;isolation:auto;mix-blend-mode:normal;color-interpolation:sRGB;color-interpolation-filters:linearRGB;solid-color:#000000;solid-opacity:1;fill:#32110d;fill-opacity:1;fill-rule:nonzero;stroke:none;stroke-width:0.50036657;stroke-linecap:round;stroke-linejoin:round;stroke-miterlimit:4;stroke-dasharray:none;stroke-dashoffset:0;stroke-opacity:1;color-rendering:auto;image-rendering:auto;shape-rendering:auto;text-rendering:auto;enable-background:accumulate"
         inkscape:connector-curvature="0" />
      <g
         id="g4334">
        <path
           style="fill:#1b1714;fill-opacity:1;fill-rule:evenodd;stroke:none;stroke-width:1px;stroke-linecap:butt;stroke-linejoin:miter;stroke-opacity:1"
           d="m -538.92858,677.00506 142.41072,-137.5 15.44643,14.91072 -138.21429,142.94643 z"
           id="path4198"
           inkscape:connector-curvature="0"
           sodipodi:nodetypes="ccccc" />
        <path
           style="fill:#cccccc;fill-rule:evenodd;stroke:#ececec;stroke-width:4;stroke-linecap:butt;stroke-linejoin:miter;stroke-miterlimit:4;stroke-dasharray:none;stroke-opacity:1"
           d="m -400.17858,543.07649 15.35715,15.17857 -0.17858,-0.17857"
           id="path4200"
           inkscape:connector-curvature="0"
           sodipodi:nodetypes="ccc" />
        <path
           style="fill:#cccccc;fill-rule:evenodd;stroke:#666666;stroke-width:1px;stroke-linecap:butt;stroke-linejoin:miter;stroke-opacity:1"
           d="m -411.25104,554.2372 15.35715,15.17857 -0.17858,-0.17857"
           id="path4200-7"
           inkscape:connector-curvature="0"
           sodipodi:nodetypes="ccc" />
        <path
           style="fill:#cccccc;fill-rule:evenodd;stroke:#666666;stroke-width:1px;stroke-linecap:butt;stroke-linejoin:miter;stroke-opacity:1"
           d="m -420.89389,563.88006 15.35715,15.17857 -0.17858,-0.17857"
           id="path4200-7-5"
           inkscape:connector-curvature="0"
           sodipodi:nodetypes="ccc" />
        <path
           style="fill:#cccccc;fill-rule:evenodd;stroke:#666666;stroke-width:1.02223504px;stroke-linecap:butt;stroke-linejoin:miter;stroke-opacity:1"
           d="m -430.48778,572.86141 15.69861,15.51606 -0.18255,-0.18254"
           id="path4200-7-3"
           inkscape:connector-curvature="0"
           sodipodi:nodetypes="ccc" />
        <path
           style="fill:#cccccc;fill-rule:evenodd;stroke:#666666;stroke-width:1.06150806px;stroke-linecap:butt;stroke-linejoin:miter;stroke-opacity:1"
           d="m -439.28212,581.23042 16.30174,16.11216 -0.18956,-0.18955"
           id="path4200-7-56"
           inkscape:connector-curvature="0"
           sodipodi:nodetypes="ccc" />
        <path
           style="fill:#cccccc;fill-rule:evenodd;stroke:#666666;stroke-width:1.08338141px;stroke-linecap:butt;stroke-linejoin:miter;stroke-opacity:1"
           d="m -447.76562,589.37555 16.63764,16.44417 -0.19347,-0.19346"
           id="path4200-7-2"
           inkscape:connector-curvature="0"
           sodipodi:nodetypes="ccc" />
        <path
           style="fill:#cccccc;fill-rule:evenodd;stroke:#666666;stroke-width:1.10676205px;stroke-linecap:butt;stroke-linejoin:miter;stroke-opacity:1"
           d="m -455.33927,597.13211 16.99671,16.79906 -0.19764,-0.19763"
           id="path4200-7-9"
           inkscape:connector-curvature="0"
           sodipodi:nodetypes="ccc" />
        <path
           style="fill:#cccccc;fill-rule:evenodd;stroke:#666666;stroke-width:1.08894002px;stroke-linecap:butt;stroke-linejoin:miter;stroke-opacity:1"
           d="m -463.18383,604.17649 16.72302,16.52857 -0.19446,-0.19447"
           id="path4200-7-1"
           inkscape:connector-curvature="0"
           sodipodi:nodetypes="ccc" />
        <path
           style="fill:#cccccc;fill-rule:evenodd;stroke:#666666;stroke-width:1.12785137px;stroke-linecap:butt;stroke-linejoin:miter;stroke-opacity:1"
           d="m -470.31518,611.18553 17.32059,17.11916 -0.20142,-0.2014"
           id="path4200-7-27"
           inkscape:connector-curvature="0"
           sodipodi:nodetypes="ccc" />
        <path
           style="fill:#cccccc;fill-rule:evenodd;stroke:#666666;stroke-width:1.15171456px;stroke-linecap:butt;stroke-linejoin:miter;stroke-opacity:1"
           d="m -476.8881,617.24917 17.68706,17.48138 -0.20568,-0.20566"
           id="path4200-7-0"
           inkscape:connector-curvature="0"
           sodipodi:nodetypes="ccc" />
        <path
           style="fill:#cccccc;fill-rule:evenodd;stroke:#666666;stroke-width:1.17298484px;stroke-linecap:butt;stroke-linejoin:miter;stroke-opacity:1"
           d="m -483.13076,623.3763 18.0137,17.80422 -0.20948,-0.20946"
           id="path4200-7-93"
           inkscape:connector-curvature="0"
           sodipodi:nodetypes="ccc" />
        <path
           style="fill:#cccccc;fill-rule:evenodd;stroke:#666666;stroke-width:1.1845243px;stroke-linecap:butt;stroke-linejoin:miter;stroke-opacity:1"
           d="m -489.28157,629.35109 18.19092,17.97938 -0.21153,-0.21152"
           id="path4200-7-6"
           inkscape:connector-curvature="0"
           sodipodi:nodetypes="ccc" />
        <path
           style="fill:#cccccc;fill-rule:evenodd;stroke:#666666;stroke-width:1.17274356px;stroke-linecap:butt;stroke-linejoin:miter;stroke-opacity:1"
           d="m -494.63913,634.84504 18.01,17.80057 -0.20942,-0.20941"
           id="path4200-7-06"
           inkscape:connector-curvature="0"
           sodipodi:nodetypes="ccc" />
        <path
           style="fill:#cccccc;fill-rule:evenodd;stroke:#666666;stroke-width:1.21352422px;stroke-linecap:butt;stroke-linejoin:miter;stroke-opacity:1"
           d="m -500.20059,639.92036 18.63627,18.41956 -0.21671,-0.2167"
           id="path4200-7-26"
           inkscape:connector-curvature="0"
           sodipodi:nodetypes="ccc" />
        <path
           style="fill:#cccccc;fill-rule:evenodd;stroke:#666666;stroke-width:1.20645797px;stroke-linecap:butt;stroke-linejoin:miter;stroke-opacity:1"
           d="m -505.01778,644.67536 18.52775,18.31231 -0.21544,-0.21543"
           id="path4200-7-18"
           inkscape:connector-curvature="0"
           sodipodi:nodetypes="ccc" />
        <path
           style="fill:#cccccc;fill-rule:evenodd;stroke:#666666;stroke-width:1.21787691px;stroke-linecap:butt;stroke-linejoin:miter;stroke-opacity:1"
           d="m -510.01073,649.5363 18.70312,18.48563 -0.21749,-0.21748"
           id="path4200-7-7"
           inkscape:connector-curvature="0"
           sodipodi:nodetypes="ccc" />
        <path
           style="fill:#cccccc;fill-rule:evenodd;stroke:#666666;stroke-width:1.21866083px;stroke-linecap:butt;stroke-linejoin:miter;stroke-opacity:1"
           d="m -514.21422,653.67916 18.71516,18.49754 -0.21763,-0.21762"
           id="path4200-7-92"
           inkscape:connector-curvature="0"
           sodipodi:nodetypes="ccc" />
        <path
           style="fill:#cccccc;fill-rule:evenodd;stroke:#666666;stroke-width:1.21914327px;stroke-linecap:butt;stroke-linejoin:miter;stroke-opacity:1"
           d="m -518.43122,657.94448 18.72257,18.50485 -0.21771,-0.2177"
           id="path4200-7-02"
           inkscape:connector-curvature="0"
           sodipodi:nodetypes="ccc" />
        <path
           style="fill:#cccccc;fill-rule:evenodd;stroke:#666666;stroke-width:1.24458528px;stroke-linecap:butt;stroke-linejoin:miter;stroke-opacity:1"
           d="m -522.35827,661.57834 19.11328,18.89102 -0.22226,-0.22224"
           id="path4200-7-37"
           inkscape:connector-curvature="0"
           sodipodi:nodetypes="ccc" />
        <path
           style="fill:#cccccc;fill-rule:evenodd;stroke:#666666;stroke-width:1.24458528px;stroke-linecap:butt;stroke-linejoin:miter;stroke-opacity:1"
           d="m -526.30697,665.29508 19.11328,18.89102 -0.22226,-0.22224"
           id="path4200-7-59"
           inkscape:connector-curvature="0"
           sodipodi:nodetypes="ccc" />
      </g>
      <ellipse
         ry="17.943041"
         rx="17.585897"
         cy="689.32715"
         cx="-531.33887"
         id="path4192"
         style="color:#000000;clip-rule:nonzero;display:inline;overflow:visible;visibility:visible;opacity:1;isolation:auto;mix-blend-mode:normal;color-interpolation:sRGB;color-interpolation-filters:linearRGB;solid-color:#000000;solid-opacity:1;fill:#150301;fill-opacity:1;fill-rule:nonzero;stroke:none;stroke-width:0.45677707;stroke-linecap:round;stroke-linejoin:round;stroke-miterlimit:4;stroke-dasharray:none;stroke-dashoffset:0;stroke-opacity:1;color-rendering:auto;image-rendering:auto;shape-rendering:auto;text-rendering:auto;enable-background:accumulate" />
      <g
         id="g4574">
        <g
           id="g4445">
          <rect
             transform="matrix(0.69994315,0.71419856,-0.71419856,0.69994315,0,0)"
             y="624.87616"
             x="105.53906"
             height="4.0406103"
             width="8.586297"
             id="rect4395"
             style="opacity:1;fill:#e4e6e1;fill-opacity:1;stroke:none;stroke-width:4;stroke-linejoin:round;stroke-miterlimit:4;stroke-dasharray:none;stroke-dashoffset:0;stroke-opacity:1" />
          <rect
             transform="matrix(0.69994315,0.71419856,-0.71419856,0.69994315,0,0)"
             y="636.65405"
             x="106.37212"
             height="4.0406103"
             width="8.586297"
             id="rect4395-8"
             style="opacity:1;fill:#e4e6e1;fill-opacity:1;stroke:none;stroke-width:4;stroke-linejoin:round;stroke-miterlimit:4;stroke-dasharray:none;stroke-dashoffset:0;stroke-opacity:1" />
          <rect
             transform="matrix(0.69994315,0.71419856,-0.71419856,0.69994315,0,0)"
             y="648.51672"
             x="107.65247"
             height="4.0406103"
             width="8.586297"
             id="rect4395-9"
             style="opacity:1;fill:#e4e6e1;fill-opacity:1;stroke:none;stroke-width:4;stroke-linejoin:round;stroke-miterlimit:4;stroke-dasharray:none;stroke-dashoffset:0;stroke-opacity:1" />
          <rect
             inkscape:transform-center-y="-0.75761441"
             inkscape:transform-center-x="-1.2626907"
             transform="matrix(0.69994315,0.71419856,-0.71419856,0.69994315,0,0)"
             y="624.62219"
             x="121.87662"
             height="4.0406103"
             width="8.586297"
             id="rect4395-7"
             style="opacity:1;fill:#e4e6e1;fill-opacity:1;stroke:none;stroke-width:4;stroke-linejoin:round;stroke-miterlimit:4;stroke-dasharray:none;stroke-dashoffset:0;stroke-opacity:1" />
          <rect
             transform="matrix(0.69994315,0.71419856,-0.71419856,0.69994315,0,0)"
             y="636.94843"
             x="121.46513"
             height="4.0406103"
             width="8.586297"
             id="rect4395-3"
             style="opacity:1;fill:#e4e6e1;fill-opacity:1;stroke:none;stroke-width:4;stroke-linejoin:round;stroke-miterlimit:4;stroke-dasharray:none;stroke-dashoffset:0;stroke-opacity:1" />
          <rect
             transform="matrix(0.69994315,0.71419856,-0.71419856,0.69994315,0,0)"
             y="648.20685"
             x="120.68572"
             height="4.0406103"
             width="8.586297"
             id="rect4395-3-6"
             style="opacity:1;fill:#e4e6e1;fill-opacity:1;stroke:none;stroke-width:4;stroke-linejoin:round;stroke-miterlimit:4;stroke-dasharray:none;stroke-dashoffset:0;stroke-opacity:1" />
        </g>
        <g
           id="g4548">
          <rect
             ry="0.47314465"
             transform="matrix(0.73707383,-0.67581223,0.67581223,0.73707383,0,0)"
             y="124.06849"
             x="-648.84052"
             height="3.2829957"
             width="3.9143412"
             id="rect4453"
             style="opacity:1;fill:#886540;fill-opacity:1;stroke:none;stroke-width:4;stroke-linejoin:round;stroke-miterlimit:4;stroke-dasharray:none;stroke-dashoffset:0;stroke-opacity:1" />
          <rect
             ry="0.47314465"
             transform="matrix(0.73707383,-0.67581223,0.67581223,0.73707383,0,0)"
             y="123.03632"
             x="-636.88745"
             height="3.2829957"
             width="3.9143412"
             id="rect4453-1"
             style="opacity:1;fill:#886540;fill-opacity:1;stroke:none;stroke-width:4;stroke-linejoin:round;stroke-miterlimit:4;stroke-dasharray:none;stroke-dashoffset:0;stroke-opacity:1" />
          <rect
             ry="0.47314465"
             transform="matrix(0.73707383,-0.67581223,0.67581223,0.73707383,0,0)"
             y="122.01383"
             x="-625.15735"
             height="3.2829957"
             width="3.9143412"
             id="rect4453-2"
             style="opacity:1;fill:#886540;fill-opacity:1;stroke:none;stroke-width:4;stroke-linejoin:round;stroke-miterlimit:4;stroke-dasharray:none;stroke-dashoffset:0;stroke-opacity:1" />
          <rect
             ry="0.47314465"
             transform="matrix(0.73707383,-0.67581223,0.67581223,0.73707383,0,0)"
             y="152.5258"
             x="-647.65137"
             height="3.2829957"
             width="3.9143412"
             id="rect4453-9"
             style="opacity:1;fill:#886540;fill-opacity:1;stroke:none;stroke-width:4;stroke-linejoin:round;stroke-miterlimit:4;stroke-dasharray:none;stroke-dashoffset:0;stroke-opacity:1" />
          <rect
             ry="0.47314465"
             transform="matrix(0.73707383,-0.67581223,0.67581223,0.73707383,0,0)"
             y="152.53502"
             x="-635.4967"
             height="3.2829957"
             width="3.9143412"
             id="rect4453-3"
             style="opacity:1;fill:#886540;fill-opacity:1;stroke:none;stroke-width:4;stroke-linejoin:round;stroke-miterlimit:4;stroke-dasharray:none;stroke-dashoffset:0;stroke-opacity:1" />
          <rect
             ry="0.47314465"
             transform="matrix(0.73707383,-0.67581223,0.67581223,0.73707383,0,0)"
             y="152.71475"
             x="-624.18365"
             height="3.2829957"
             width="3.9143412"
             id="rect4453-19"
             style="opacity:1;fill:#886540;fill-opacity:1;stroke:none;stroke-width:4;stroke-linejoin:round;stroke-miterlimit:4;stroke-dasharray:none;stroke-dashoffset:0;stroke-opacity:1" />
          <rect
             ry="0.80154616"
             transform="matrix(-0.71461921,-0.69951368,0.69951368,-0.71461921,0,0)"
             y="-642.20929"
             x="-123.98386"
             height="2.3891516"
             width="2.848604"
             id="rect4453-4"
             style="opacity:1;fill:#1a1a1a;fill-opacity:1;stroke:none;stroke-width:4;stroke-linejoin:round;stroke-miterlimit:4;stroke-dasharray:none;stroke-dashoffset:0;stroke-opacity:1" />
          <rect
             ry="0.80154616"
             transform="matrix(-0.71461921,-0.69951368,0.69951368,-0.71461921,0,0)"
             y="-630.92249"
             x="-124.86431"
             height="2.3891516"
             width="2.848604"
             id="rect4453-4-7"
             style="opacity:1;fill:#1a1a1a;fill-opacity:1;stroke:none;stroke-width:4;stroke-linejoin:round;stroke-miterlimit:4;stroke-dasharray:none;stroke-dashoffset:0;stroke-opacity:1" />
          <rect
             ry="0.80154616"
             transform="matrix(-0.71461921,-0.69951368,0.69951368,-0.71461921,0,0)"
             y="-654.341"
             x="-122.96228"
             height="2.3891516"
             width="2.848604"
             id="rect4453-4-8"
             style="opacity:1;fill:#1a1a1a;fill-opacity:1;stroke:none;stroke-width:4;stroke-linejoin:round;stroke-miterlimit:4;stroke-dasharray:none;stroke-dashoffset:0;stroke-opacity:1" />
          <rect
             ry="0.80154616"
             transform="matrix(-0.71461921,-0.69951368,0.69951368,-0.71461921,0,0)"
             y="-653.93738"
             x="-89.34861"
             height="2.3891516"
             width="2.848604"
             id="rect4453-4-4"
             style="opacity:1;fill:#1a1a1a;fill-opacity:1;stroke:none;stroke-width:4;stroke-linejoin:round;stroke-miterlimit:4;stroke-dasharray:none;stroke-dashoffset:0;stroke-opacity:1" />
          <rect
             ry="0.80154616"
             transform="matrix(-0.71461921,-0.69951368,0.69951368,-0.71461921,0,0)"
             y="-641.56769"
             x="-89.078926"
             height="2.3891516"
             width="2.848604"
             id="rect4453-4-5"
             style="opacity:1;fill:#1a1a1a;fill-opacity:1;stroke:none;stroke-width:4;stroke-linejoin:round;stroke-miterlimit:4;stroke-dasharray:none;stroke-dashoffset:0;stroke-opacity:1" />
          <rect
             ry="0.80154616"
             transform="matrix(-0.71461921,-0.69951368,0.69951368,-0.71461921,0,0)"
             y="-630.66779"
             x="-88.481033"
             height="2.3891516"
             width="2.848604"
             id="rect4453-4-0"
             style="opacity:1;fill:#1a1a1a;fill-opacity:1;stroke:none;stroke-width:4;stroke-linejoin:round;stroke-miterlimit:4;stroke-dasharray:none;stroke-dashoffset:0;stroke-opacity:1" />
        </g>
        <path
           style="fill:#33120d;fill-opacity:1;fill-rule:evenodd;stroke:none;stroke-width:1px;stroke-linecap:butt;stroke-linejoin:miter;stroke-opacity:1"
           d="m -366.17939,501.57666 c -6.59934,8.158 -30.40039,34.47071 -30.40039,34.47071 l -0.2832,3.6621 14.64648,14.9004 3.91992,0.25195 c 0,0 20.01126,-18.46455 34.21289,-31.0625 0,0 -3.06083,-2.36157 -4.16601,-3.91406 -2.03229,-2.85484 -1.80317,-7.1297 -4.29297,-9.59571 -2.54451,-2.52021 -6.96982,-2.16394 -9.84961,-4.29297 -1.56017,-1.15343 -2.47834,-2.12499 -3.78711,-4.41992 z m -3.17187,10.66211 c 0.75444,0.017 1.52457,0.25687 2.05468,0.66602 1.02291,0.78951 1.84275,2.78588 0.98243,3.75 -8.79405,9.85509 -14.13209,16.72584 -21.33985,23.92773 -1.01144,1.01062 -3.18357,0.73379 -4.28515,-0.17773 -1.10682,-0.91586 -1.93335,-3.12042 -0.98243,-4.19727 6.28313,-7.11515 14.30965,-15.89526 21.60743,-23.30273 0.46996,-0.47703 1.20844,-0.68299 1.96289,-0.66602 z m 11.70312,11.59375 c 0.92115,-0.0344 1.92961,0.30721 2.54102,0.87891 0.94382,0.88253 1.57248,2.94561 0.625,3.82422 -9.68495,8.98107 -15.64664,15.31915 -23.50196,21.80859 -1.10232,0.91064 -3.23937,0.4294 -4.25,-0.58203 -1.01543,-1.01623 -1.63034,-3.2892 -0.58203,-4.27148 6.92664,-6.49037 15.74464,-14.47455 23.70899,-21.16016 0.38467,-0.32291 0.90629,-0.47738 1.45898,-0.49805 z"
           id="path4357-2"
           inkscape:connector-curvature="0" />
      </g>
    </g>
  </g>
</svg>
