<?xml version="1.0" encoding="UTF-8" standalone="no"?>
<!-- Created with Inkscape (http://www.inkscape.org/) -->

<svg
   xmlns:dc="http://purl.org/dc/elements/1.1/"
   xmlns:cc="http://creativecommons.org/ns#"
   xmlns:rdf="http://www.w3.org/1999/02/22-rdf-syntax-ns#"
   xmlns:svg="http://www.w3.org/2000/svg"
   xmlns="http://www.w3.org/2000/svg"
   xmlns:sodipodi="http://sodipodi.sourceforge.net/DTD/sodipodi-0.dtd"
   xmlns:inkscape="http://www.inkscape.org/namespaces/inkscape"
   width="112.66283mm"
   height="112.41342mm"
   viewBox="0 0 399.19902 398.31527"
   id="svg2"
   version="1.1"
   inkscape:version="0.91 r13725"
   sodipodi:docname="microdono.svg"
   inkscape:export-filename="/home/piccolina/Escritorio/fundacion/megamente-web/Megamente/img/quien-soy/microfono.png"
   inkscape:export-xdpi="90"
   inkscape:export-ydpi="90">
  <defs
     id="defs4" />
  <sodipodi:namedview
     id="base"
     pagecolor="#ffffff"
     bordercolor="#666666"
     borderopacity="1.0"
     inkscape:pageopacity="0.0"
     inkscape:pageshadow="2"
     inkscape:zoom="0.7"
     inkscape:cx="70.929066"
     inkscape:cy="242.52237"
     inkscape:document-units="px"
     inkscape:current-layer="layer1"
     showgrid="false"
     fit-margin-top="0"
     fit-margin-left="0"
     fit-margin-right="0"
     fit-margin-bottom="0"
     inkscape:window-width="1366"
     inkscape:window-height="710"
     inkscape:window-x="0"
     inkscape:window-y="25"
     inkscape:window-maximized="1" />
  <metadata
     id="metadata7">
    <rdf:RDF>
      <cc:Work
         rdf:about="">
        <dc:format>image/svg+xml</dc:format>
        <dc:type
           rdf:resource="http://purl.org/dc/dcmitype/StillImage" />
        <dc:title></dc:title>
      </cc:Work>
    </rdf:RDF>
  </metadata>
  <g
     inkscape:label="Capa 1"
     inkscape:groupmode="layer"
     id="layer1"
     transform="translate(927.28385,-201.3362)">
    <g
       id="g4391">
      <ellipse
         ry="63.397614"
         rx="64.660301"
         cy="264.94827"
         cx="-592.95959"
         id="path4147"
         style="color:#000000;clip-rule:nonzero;display:inline;overflow:visible;visibility:visible;opacity:1;isolation:auto;mix-blend-mode:normal;color-interpolation:sRGB;color-interpolation-filters:linearRGB;solid-color:#000000;solid-opacity:1;fill:#798486;fill-opacity:1;fill-rule:nonzero;stroke:#71716f;stroke-width:0.42891484;stroke-linecap:round;stroke-linejoin:round;stroke-miterlimit:4;stroke-dasharray:none;stroke-dashoffset:0;stroke-opacity:1;color-rendering:auto;image-rendering:auto;shape-rendering:auto;text-rendering:auto;enable-background:accumulate" />
      <path
         id="path4149"
         d="m -592.95898,201.55078 a 64.660301,63.397614 0 0 0 -1.49024,0.0508 l 0,1.24805 -9.52148,0 0,-0.37305 a 64.660301,63.397614 0 0 0 -19.52149,6.64844 l 0,8.24609 -9.51953,0 0,-2.18164 a 64.660301,63.397614 0 0 0 -7.75586,7.18164 l 2.75586,0 0,9.51953 -9.52148,0 0,-0.81054 a 64.660301,63.397614 0 0 0 -5,9.22656 l 0,6.10547 -2.25196,0 a 64.660301,63.397614 0 0 0 -1.30078,5 l 3.55274,0 0,9.52148 -4.88086,0 a 64.660301,63.397614 0 0 0 -0.20508,4.01563 64.660301,63.397614 0 0 0 0.0352,0.98437 l 5.05078,0 0,9.51953 -4.17969,0 a 64.660301,63.397614 0 0 0 1.11719,5 l 3.0625,0 0,8.98438 a 64.660301,63.397614 0 0 0 5,9.48438 l 0,-3.94727 9.52148,0 0,9.52148 -5.47266,0 a 64.660301,63.397614 0 0 0 4.55469,5 l 0.91797,0 0,0.83789 a 64.660301,63.397614 0 0 0 5,4.29883 l 0,-5.13672 9.51953,0 0,9.52149 -3.07422,0 a 64.660301,63.397614 0 0 0 10.31641,5 l 7.2793,0 0,2.27148 a 64.660301,63.397614 0 0 0 5,1.06446 l 0,-3.33594 9.52148,0 0,4.25586 a 64.660301,63.397614 0 0 0 1.49024,0.0723 64.660301,63.397614 0 0 0 3.50976,-0.12109 l 0,-4.20703 9.52149,0 0,2.95703 a 64.660301,63.397614 0 0 0 5,-1.17773 l 0,-1.7793 5.44335,0 a 64.660301,63.397614 0 0 0 10.17579,-5 l -1.09961,0 0,-9.52149 9.52148,0 0,3.4961 a 64.660301,63.397614 0 0 0 8.38672,-8.4961 l -3.38672,0 0,-9.52148 9.52149,0 0,0.60742 a 64.660301,63.397614 0 0 0 5,-11.42187 l 0,-3.70704 1.01953,0 a 64.660301,63.397614 0 0 0 1.08008,-5 l -2.09961,0 0,-9.51953 3.01562,0 a 64.660301,63.397614 0 0 0 0.0508,-0.98437 64.660301,63.397614 0 0 0 -0.14453,-4.01563 l -2.92187,0 0,-9.52148 1.49218,0 a 64.660301,63.397614 0 0 0 -1.31836,-5 l -0.17382,0 0,-0.51563 a 64.660301,63.397614 0 0 0 -6.48633,-14.00586 l -8.03516,0 0,-9.51953 0.73828,0 a 64.660301,63.397614 0 0 0 -5.73828,-5.53125 l 0,0.53125 -9.52148,0 0,-7.12695 a 64.660301,63.397614 0 0 0 -19.56446,-7.39453 l -9.47656,0 0,-1.12695 a 64.660301,63.397614 0 0 0 -3.50976,-0.17188 z m -25.53321,6.29883 9.52149,0 0,9.52148 -9.52149,0 0,-9.52148 z m 14.52149,0 9.52148,0 0,9.52148 -9.52148,0 0,-9.52148 z m 14.52148,0 9.52149,0 0,9.52148 -9.52149,0 0,-9.52148 z m 14.52149,0 9.51953,0 0,9.52148 -9.51953,0 0,-9.52148 z m -58.08399,14.52148 9.51953,0 0,9.51953 -9.51953,0 0,-9.51953 z m 14.51953,0 9.52149,0 0,9.51953 -9.52149,0 0,-9.51953 z m 14.52149,0 9.52148,0 0,9.51953 -9.52148,0 0,-9.51953 z m 14.52148,0 9.52149,0 0,9.51953 -9.52149,0 0,-9.51953 z m 14.52149,0 9.51953,0 0,9.51953 -9.51953,0 0,-9.51953 z m 14.51953,0 9.52148,0 0,9.51953 -9.52148,0 0,-9.51953 z m -87.125,14.51953 9.52148,0 0,9.52149 -9.52148,0 0,-9.52149 z m 14.52148,0 9.51953,0 0,9.52149 -9.51953,0 0,-9.52149 z m 14.51953,0 9.52149,0 0,9.52149 -9.52149,0 0,-9.52149 z m 14.52149,0 9.52148,0 0,9.52149 -9.52148,0 0,-9.52149 z m 14.52148,0 9.52149,0 0,9.52149 -9.52149,0 0,-9.52149 z m 14.52149,0 9.51953,0 0,9.52149 -9.51953,0 0,-9.52149 z m 14.51953,0 9.52148,0 0,9.52149 -9.52148,0 0,-9.52149 z m 14.52148,0 9.52149,0 0,9.52149 -9.52149,0 0,-9.52149 z m -101.64648,14.52149 9.52148,0 0,9.52148 -9.52148,0 0,-9.52148 z m 14.52148,0 9.51953,0 0,9.52148 -9.51953,0 0,-9.52148 z m 14.51953,0 9.52149,0 0,9.52148 -9.52149,0 0,-9.52148 z m 14.52149,0 9.52148,0 0,9.52148 -9.52148,0 0,-9.52148 z m 14.52148,0 9.52149,0 0,9.52148 -9.52149,0 0,-9.52148 z m 14.52149,0 9.51953,0 0,9.52148 -9.51953,0 0,-9.52148 z m 14.51953,0 9.52148,0 0,9.52148 -9.52148,0 0,-9.52148 z m 14.52148,0 9.52149,0 0,9.52148 -9.52149,0 0,-9.52148 z m -101.64648,14.52148 9.52148,0 0,9.51953 -9.52148,0 0,-9.51953 z m 14.52148,0 9.51953,0 0,9.51953 -9.51953,0 0,-9.51953 z m 14.51953,0 9.52149,0 0,9.51953 -9.52149,0 0,-9.51953 z m 14.52149,0 9.52148,0 0,9.51953 -9.52148,0 0,-9.51953 z m 14.52148,0 9.52149,0 0,9.51953 -9.52149,0 0,-9.51953 z m 14.52149,0 9.51953,0 0,9.51953 -9.51953,0 0,-9.51953 z m 14.51953,0 9.52148,0 0,9.51953 -9.52148,0 0,-9.51953 z m 14.52148,0 9.52149,0 0,9.51953 -9.52149,0 0,-9.51953 z m -101.64648,14.51953 9.52148,0 0,9.52149 -9.52148,0 0,-9.52149 z m 14.52148,0 9.51953,0 0,9.52149 -9.51953,0 0,-9.52149 z m 14.51953,0 9.52149,0 0,9.52149 -9.52149,0 0,-9.52149 z m 14.52149,0 9.52148,0 0,9.52149 -9.52148,0 0,-9.52149 z m 14.52148,0 9.52149,0 0,9.52149 -9.52149,0 0,-9.52149 z m 14.52149,0 9.51953,0 0,9.52149 -9.51953,0 0,-9.52149 z m 14.51953,0 9.52148,0 0,9.52149 -9.52148,0 0,-9.52149 z m 14.52148,0 9.52149,0 0,9.52149 -9.52149,0 0,-9.52149 z m -87.125,14.52149 9.51953,0 0,9.52148 -9.51953,0 0,-9.52148 z m 14.51953,0 9.52149,0 0,9.52148 -9.52149,0 0,-9.52148 z m 14.52149,0 9.52148,0 0,9.52148 -9.52148,0 0,-9.52148 z m 14.52148,0 9.52149,0 0,9.52148 -9.52149,0 0,-9.52148 z m 14.52149,0 9.51953,0 0,9.52148 -9.51953,0 0,-9.52148 z m 14.51953,0 9.52148,0 0,9.52148 -9.52148,0 0,-9.52148 z m -58.08399,14.52148 9.52149,0 0,9.52149 -9.52149,0 0,-9.52149 z m 14.52149,0 9.52148,0 0,9.52149 -9.52148,0 0,-9.52149 z m 14.52148,0 9.52149,0 0,9.52149 -9.52149,0 0,-9.52149 z m 14.52149,0 9.51953,0 0,9.52149 -9.51953,0 0,-9.52149 z"
         style="color:#000000;font-style:normal;font-variant:normal;font-weight:normal;font-stretch:normal;font-size:medium;line-height:normal;font-family:sans-serif;text-indent:0;text-align:start;text-decoration:none;text-decoration-line:none;text-decoration-style:solid;text-decoration-color:#000000;letter-spacing:normal;word-spacing:normal;text-transform:none;direction:ltr;block-progression:tb;writing-mode:lr-tb;baseline-shift:baseline;text-anchor:start;white-space:normal;clip-rule:nonzero;display:inline;overflow:visible;visibility:visible;opacity:1;isolation:auto;mix-blend-mode:normal;color-interpolation:sRGB;color-interpolation-filters:linearRGB;solid-color:#000000;solid-opacity:1;fill:#b2b5ae;fill-opacity:1;fill-rule:evenodd;stroke:none;stroke-width:5;stroke-linecap:butt;stroke-linejoin:miter;stroke-miterlimit:4;stroke-dasharray:none;stroke-dashoffset:0;stroke-opacity:1;color-rendering:auto;image-rendering:auto;shape-rendering:auto;text-rendering:auto;enable-background:accumulate"
         inkscape:connector-curvature="0" />
      <path
         sodipodi:nodetypes="ccccc"
         inkscape:connector-curvature="0"
         id="path4377"
         d="m -701.78572,312.3622 c 2.5,-1.42857 33.97337,-35.13663 46.07143,-44.64285 20.51086,15.89555 44.682,44.49035 60.35715,60 -14.04315,17.35112 -33.36231,34.85207 -46.78571,45.71428 -14.84016,-13.37231 -48.92386,-46.53333 -59.64287,-61.07143 z"
         style="fill:#283a44;fill-opacity:1;fill-rule:evenodd;stroke:none;stroke-width:1px;stroke-linecap:butt;stroke-linejoin:miter;stroke-opacity:1" />
      <path
         sodipodi:nodetypes="ccccc"
         inkscape:connector-curvature="0"
         id="path4379"
         d="m -862.1652,484.65647 c 40.72577,-42.52123 122.43859,-128.22048 163.13964,-169.34848 24.37951,23.37101 42.49229,41.01464 56.06346,56.46394 -68.56305,67.09775 -139.78893,134.25445 -170.08443,163.39217 -19.64351,-19.85491 -27.34484,-25.00296 -49.11867,-50.50763 z"
         style="fill:#283a44;fill-opacity:1;fill-rule:evenodd;stroke:none;stroke-width:1px;stroke-linecap:butt;stroke-linejoin:miter;stroke-opacity:1" />
      <path
         sodipodi:nodetypes="ccccc"
         inkscape:connector-curvature="0"
         id="path4381"
         d="m -916.20836,549.30624 c 4.30389,-4.54235 40.57992,-45.73368 57.83123,-61.61931 19.7355,15.99808 32.40984,28.00214 42.17387,43.6891 -17.22595,17.45473 -48.32634,45.18417 -61.36676,56.56854 -6.65999,-6.58603 -38.63834,-38.63833 -38.63834,-38.63833 z"
         style="fill:#283a44;fill-opacity:1;fill-rule:evenodd;stroke:none;stroke-width:1px;stroke-linecap:butt;stroke-linejoin:miter;stroke-opacity:1" />
      <ellipse
         ry="23.576153"
         rx="23.071077"
         cy="576.07532"
         cx="-904.21277"
         id="path4383"
         style="color:#000000;clip-rule:nonzero;display:inline;overflow:visible;visibility:visible;opacity:1;isolation:auto;mix-blend-mode:normal;color-interpolation:sRGB;color-interpolation-filters:linearRGB;solid-color:#000000;solid-opacity:1;fill:#283a41;fill-opacity:1;fill-rule:nonzero;stroke:none;stroke-width:0.52232498;stroke-linecap:round;stroke-linejoin:round;stroke-miterlimit:4;stroke-dasharray:none;stroke-dashoffset:0;stroke-opacity:1;color-rendering:auto;image-rendering:auto;shape-rendering:auto;text-rendering:auto;enable-background:accumulate" />
      <path
         inkscape:connector-curvature="0"
         id="path4387"
         d="m -681.78572,292.00506 9.82143,-10.35714 61.96429,62.14285 -10.17857,10.71429 z"
         style="fill:#afb4b0;fill-opacity:1;fill-rule:evenodd;stroke:none;stroke-width:1px;stroke-linecap:butt;stroke-linejoin:miter;stroke-opacity:1" />
      <path
         sodipodi:nodetypes="ccccc"
         inkscape:connector-curvature="0"
         id="path4389"
         d="m -646.49763,226.05742 c 3.58659,-3.9751 3.78807,-6.06091 10.22779,-9.84899 1.01015,0.75762 64.25126,62.64108 93.06031,92.42896 l -10.35407,10.85914 c -28.92629,-29.89382 -47.69363,-47.01293 -92.93403,-93.43911 z"
         style="fill:#dfe0db;fill-opacity:1;fill-rule:evenodd;stroke:none;stroke-width:1px;stroke-linecap:butt;stroke-linejoin:miter;stroke-opacity:1" />
      <path
         inkscape:connector-curvature="0"
         id="path4385"
         d="m -877.66869,542.8948 22.97738,-23.37992 7.35995,7.30623 -23.15691,23.74522 z"
         style="fill:#aeb5b1;fill-opacity:1;fill-rule:evenodd;stroke:none;stroke-width:1.01402795px;stroke-linecap:butt;stroke-linejoin:miter;stroke-opacity:1" />
    </g>
  </g>
</svg>
