<?xml version="1.0" encoding="UTF-8" standalone="no"?>
<!-- Created with Inkscape (http://www.inkscape.org/) -->

<svg
   xmlns:dc="http://purl.org/dc/elements/1.1/"
   xmlns:cc="http://creativecommons.org/ns#"
   xmlns:rdf="http://www.w3.org/1999/02/22-rdf-syntax-ns#"
   xmlns:svg="http://www.w3.org/2000/svg"
   xmlns="http://www.w3.org/2000/svg"
   xmlns:sodipodi="http://sodipodi.sourceforge.net/DTD/sodipodi-0.dtd"
   xmlns:inkscape="http://www.inkscape.org/namespaces/inkscape"
   width="31.992491mm"
   height="18.692244mm"
   viewBox="0 0 113.35923 66.232359"
   id="svg12295"
   version="1.1"
   inkscape:version="0.91 r13725"
   sodipodi:docname="sombrero.svg"
   inkscape:export-filename="/home/piccolina/Escritorio/fundacion/megamente-web/Megamente/img/quien-soy/sombrero.png"
   inkscape:export-xdpi="90"
   inkscape:export-ydpi="90">
  <defs
     id="defs12297" />
  <sodipodi:namedview
     id="base"
     pagecolor="#ffffff"
     bordercolor="#666666"
     borderopacity="1.0"
     inkscape:pageopacity="0.0"
     inkscape:pageshadow="2"
     inkscape:zoom="0.98994949"
     inkscape:cx="92.94793"
     inkscape:cy="-54.90335"
     inkscape:document-units="px"
     inkscape:current-layer="layer1"
     showgrid="false"
     fit-margin-top="0"
     fit-margin-left="0"
     fit-margin-right="0"
     fit-margin-bottom="0"
     inkscape:window-width="1366"
     inkscape:window-height="710"
     inkscape:window-x="0"
     inkscape:window-y="25"
     inkscape:window-maximized="1" />
  <metadata
     id="metadata12300">
    <rdf:RDF>
      <cc:Work
         rdf:about="">
        <dc:format>image/svg+xml</dc:format>
        <dc:type
           rdf:resource="http://purl.org/dc/dcmitype/StillImage" />
        <dc:title></dc:title>
      </cc:Work>
    </rdf:RDF>
  </metadata>
  <g
     inkscape:label="Capa 1"
     inkscape:groupmode="layer"
     id="layer1"
     transform="translate(-122.59398,-189.12783)">
    <g
       id="g240"
       transform="matrix(1.25,0,0,-1.25,376.37155,394.78477)"
       style="fill:#e3687f;fill-opacity:1" />
    <g
       id="g6363"
       transform="matrix(1.1463822,0.33736585,-0.33736585,1.1463822,158.00526,-357.2282)">
      <ellipse
         transform="matrix(0.99766131,-0.06835135,-0.13168713,0.99129133,0,0)"
         ry="19.365322"
         rx="45.022743"
         cy="487.31491"
         cx="218.1188"
         id="path6333"
         style="color:#000000;clip-rule:nonzero;display:inline;overflow:visible;visibility:visible;opacity:1;isolation:auto;mix-blend-mode:normal;color-interpolation:sRGB;color-interpolation-filters:linearRGB;solid-color:#000000;solid-opacity:1;fill:#00222b;fill-opacity:1;fill-rule:nonzero;stroke:none;stroke-width:0.73937815;stroke-linecap:round;stroke-linejoin:round;stroke-miterlimit:4;stroke-dasharray:none;stroke-dashoffset:0;stroke-opacity:1;color-rendering:auto;image-rendering:auto;shape-rendering:auto;text-rendering:auto;enable-background:accumulate" />
      <ellipse
         ry="7.7858047"
         rx="9.0625"
         cy="451.08795"
         cx="183.948"
         id="path6343"
         style="color:#000000;clip-rule:nonzero;display:inline;overflow:visible;visibility:visible;opacity:1;isolation:auto;mix-blend-mode:normal;color-interpolation:sRGB;color-interpolation-filters:linearRGB;solid-color:#000000;solid-opacity:1;fill:#d49e39;fill-opacity:1;fill-rule:nonzero;stroke:none;stroke-width:0.44999954;stroke-linecap:round;stroke-linejoin:round;stroke-miterlimit:4;stroke-dasharray:none;stroke-dashoffset:0;stroke-opacity:1;color-rendering:auto;image-rendering:auto;shape-rendering:auto;text-rendering:auto;enable-background:accumulate" />
      <path
         sodipodi:nodetypes="caascac"
         inkscape:connector-curvature="0"
         id="path6339"
         d="m 128.6355,466.10593 c 0.14321,-7.43417 2.07297,-19.85323 8.21429,-26.96429 3.18481,-3.6877 8.35842,-5.84644 13.21428,-6.25 6.96667,-0.57898 15.36526,0.6446 20.17857,5.71429 5.87651,6.18953 7.49408,15.37194 8.39286,23.39286 -6.03671,5.86953 -16.6813,9.22275 -25.89286,9.82143 -8.24099,0.5356 -17.67387,0.19766 -24.10714,-5.71429 z"
         style="fill:#00222b;fill-rule:evenodd;stroke:none;stroke-width:1px;stroke-linecap:butt;stroke-linejoin:miter;stroke-opacity:1" />
      <path
         sodipodi:nodetypes="cscczcc"
         inkscape:connector-curvature="0"
         id="path6341"
         d="m 128.81407,458.42736 c 8.22013,4.61211 14.90682,6.12276 23.03572,5.71428 9.04813,-0.45467 21.46746,-8.2929 24.82142,-10.35714 1.5764,3.21596 1.67437,6.05248 1.07144,9.46429 -7.02822,4.27942 -16.34471,7.73084 -25.08929,8.39285 -8.74458,0.66201 -17.98998,0.49868 -25.08929,-5.17857 -0.0272,-2.13808 -0.22547,-5.85366 1.25,-8.03571 z"
         style="fill:#daaa4c;fill-opacity:1;fill-rule:evenodd;stroke:none;stroke-width:1px;stroke-linecap:butt;stroke-linejoin:miter;stroke-opacity:1" />
      <path
         sodipodi:nodetypes="cccacc"
         inkscape:connector-curvature="0"
         id="path6345"
         d="m 176.67122,453.7845 c 10.70011,-0.62232 18.93713,-3.02185 24.99999,2.67857 1.80373,1.6959 1.6816,4.08049 1.25,7.32143 -2.10945,-0.5386 -3.03699,-1.22102 -4.64285,-1.42857 -6.80938,-0.88007 -12.29518,-0.57696 -20.58036,0.85324 -0.31988,-2.45752 -1.52294,-6.96047 -1.02678,-9.42467 z"
         style="fill:#9d7422;fill-opacity:1;fill-rule:evenodd;stroke:none;stroke-width:1px;stroke-linecap:butt;stroke-linejoin:miter;stroke-opacity:1" />
      <ellipse
         ry="3.5714285"
         rx="12.5"
         cy="436.82022"
         cx="153.6355"
         id="path6359"
         style="color:#000000;clip-rule:nonzero;display:inline;overflow:visible;visibility:visible;opacity:1;isolation:auto;mix-blend-mode:normal;color-interpolation:sRGB;color-interpolation-filters:linearRGB;solid-color:#000000;solid-opacity:1;fill:#004455;fill-opacity:0.58823529;fill-rule:nonzero;stroke:none;stroke-width:0.44999954;stroke-linecap:round;stroke-linejoin:round;stroke-miterlimit:4;stroke-dasharray:none;stroke-dashoffset:0;stroke-opacity:1;color-rendering:auto;image-rendering:auto;shape-rendering:auto;text-rendering:auto;enable-background:accumulate" />
      <path
         sodipodi:nodetypes="ccaacaaaac"
         inkscape:connector-curvature="0"
         id="path6361"
         d="m 110.37045,468.77213 c 0,0 9.82169,7.22495 13.33036,8.65065 10.0002,5.68466 20.10078,5.82837 30.29183,4.93315 11.30804,-0.99334 23.08141,-4.41271 32.14286,-11.25 1.97745,-1.49208 4.28571,-6.07143 4.28571,-6.07143 0,0 -0.30181,2.76577 -0.86407,4.01338 -0.58198,1.29136 -1.37875,2.5824 -2.51981,3.42163 -9.01065,6.62717 -20.61116,9.64559 -31.72072,10.94516 -9.1321,1.06825 -18.80511,0.40282 -27.44707,-2.73613 -6.63129,-2.40864 -17.49909,-11.90641 -17.49909,-11.90641 z"
         style="fill:#003644;fill-opacity:1;fill-rule:evenodd;stroke:none;stroke-width:1px;stroke-linecap:butt;stroke-linejoin:miter;stroke-opacity:1" />
    </g>
  </g>
</svg>
