<?xml version="1.0" encoding="UTF-8" standalone="no"?>
<!-- Created with Inkscape (http://www.inkscape.org/) -->

<svg
   xmlns:dc="http://purl.org/dc/elements/1.1/"
   xmlns:cc="http://creativecommons.org/ns#"
   xmlns:rdf="http://www.w3.org/1999/02/22-rdf-syntax-ns#"
   xmlns:svg="http://www.w3.org/2000/svg"
   xmlns="http://www.w3.org/2000/svg"
   xmlns:sodipodi="http://sodipodi.sourceforge.net/DTD/sodipodi-0.dtd"
   xmlns:inkscape="http://www.inkscape.org/namespaces/inkscape"
   width="16.838118mm"
   height="39.158333mm"
   viewBox="0 0 16.838118 39.158333"
   version="1.1"
   id="svg4374"
   inkscape:version="0.92.1 r"
   sodipodi:docname="jorge.svg">
  <defs
     id="defs4368" />
  <sodipodi:namedview
     id="base"
     pagecolor="#ffffff"
     bordercolor="#666666"
     borderopacity="1.0"
     inkscape:pageopacity="0.0"
     inkscape:pageshadow="2"
     inkscape:zoom="1.4"
     inkscape:cx="320.64559"
     inkscape:cy="26.969357"
     inkscape:document-units="mm"
     inkscape:current-layer="layer1"
     showgrid="false"
     fit-margin-top="0"
     fit-margin-left="0"
     fit-margin-right="0"
     fit-margin-bottom="0"
     inkscape:window-width="1366"
     inkscape:window-height="699"
     inkscape:window-x="0"
     inkscape:window-y="32"
     inkscape:window-maximized="1" />
  <metadata
     id="metadata4371">
    <rdf:RDF>
      <cc:Work
         rdf:about="">
        <dc:format>image/svg+xml</dc:format>
        <dc:type
           rdf:resource="http://purl.org/dc/dcmitype/StillImage" />
        <dc:title></dc:title>
      </cc:Work>
    </rdf:RDF>
  </metadata>
  <g
     inkscape:label="Capa 1"
     inkscape:groupmode="layer"
     id="layer1"
     transform="translate(-2.7291826,-55.608176)">
    <g
       id="g5562"
       transform="matrix(0.42463232,0,0,0.42463232,1.5702835,54.525586)">
      <g
         inkscape:label="Capa 1"
         id="layer1-5"
         transform="matrix(0.48646902,0,0,0.40289821,-66.799769,-7.0710524)">
        <g
           id="g4572"
           transform="matrix(0,1.0852712,-1.0852712,0,342.26369,-37.654837)"
           inkscape:export-xdpi="90"
           inkscape:export-ydpi="90">
          <rect
             ry="0.89484763"
             y="108.56754"
             x="125.89287"
             height="37.678566"
             width="138.21429"
             id="rect4147"
             style="opacity:1;fill:#000000;fill-opacity:1;stroke:none;stroke-width:4;stroke-linejoin:round;stroke-miterlimit:4;stroke-dasharray:none;stroke-dashoffset:0;stroke-opacity:1" />
          <rect
             ry="0.98011559"
             y="113.25505"
             x="129.94641"
             height="32.232136"
             width="5.1785779"
             id="rect4149"
             style="opacity:1;fill:#ffffff;fill-opacity:1;stroke:#000000;stroke-width:0.5;stroke-linejoin:round;stroke-miterlimit:4;stroke-dasharray:none;stroke-dashoffset:0;stroke-opacity:1" />
          <rect
             ry="0.98011559"
             y="113.25505"
             x="135.62498"
             height="32.232136"
             width="5.1785779"
             id="rect4149-3"
             style="opacity:1;fill:#ffffff;fill-opacity:1;stroke:#000000;stroke-width:0.5;stroke-linejoin:round;stroke-miterlimit:4;stroke-dasharray:none;stroke-dashoffset:0;stroke-opacity:1" />
          <rect
             ry="0.98011559"
             y="113.25505"
             x="141.30356"
             height="32.232136"
             width="5.1785779"
             id="rect4149-6"
             style="opacity:1;fill:#ffffff;fill-opacity:1;stroke:#000000;stroke-width:0.5;stroke-linejoin:round;stroke-miterlimit:4;stroke-dasharray:none;stroke-dashoffset:0;stroke-opacity:1" />
          <rect
             ry="0.98011559"
             y="113.25505"
             x="146.98213"
             height="32.232136"
             width="5.1785779"
             id="rect4149-7"
             style="opacity:1;fill:#ffffff;fill-opacity:1;stroke:#000000;stroke-width:0.5;stroke-linejoin:round;stroke-miterlimit:4;stroke-dasharray:none;stroke-dashoffset:0;stroke-opacity:1" />
          <rect
             ry="0.98011559"
             y="113.25505"
             x="152.66071"
             height="32.232136"
             width="5.1785779"
             id="rect4149-7-5"
             style="opacity:1;fill:#ffffff;fill-opacity:1;stroke:#000000;stroke-width:0.5;stroke-linejoin:round;stroke-miterlimit:4;stroke-dasharray:none;stroke-dashoffset:0;stroke-opacity:1" />
          <rect
             ry="0.98011559"
             y="113.25505"
             x="158.33928"
             height="32.232136"
             width="5.1785779"
             id="rect4149-7-6"
             style="opacity:1;fill:#ffffff;fill-opacity:1;stroke:#000000;stroke-width:0.5;stroke-linejoin:round;stroke-miterlimit:4;stroke-dasharray:none;stroke-dashoffset:0;stroke-opacity:1" />
          <rect
             ry="0.98011559"
             y="113.25505"
             x="164.01785"
             height="32.232136"
             width="5.1785779"
             id="rect4149-7-2"
             style="opacity:1;fill:#ffffff;fill-opacity:1;stroke:#000000;stroke-width:0.5;stroke-linejoin:round;stroke-miterlimit:4;stroke-dasharray:none;stroke-dashoffset:0;stroke-opacity:1" />
          <rect
             ry="0.98011559"
             y="113.25505"
             x="169.69643"
             height="32.232136"
             width="5.1785779"
             id="rect4149-7-9"
             style="opacity:1;fill:#ffffff;fill-opacity:1;stroke:#000000;stroke-width:0.5;stroke-linejoin:round;stroke-miterlimit:4;stroke-dasharray:none;stroke-dashoffset:0;stroke-opacity:1" />
          <rect
             ry="0.98011559"
             y="113.25505"
             x="175.375"
             height="32.232136"
             width="5.1785779"
             id="rect4149-7-1"
             style="opacity:1;fill:#ffffff;fill-opacity:1;stroke:#000000;stroke-width:0.5;stroke-linejoin:round;stroke-miterlimit:4;stroke-dasharray:none;stroke-dashoffset:0;stroke-opacity:1" />
          <rect
             ry="0.98011559"
             y="113.25505"
             x="181.05357"
             height="32.232136"
             width="5.1785779"
             id="rect4149-7-27"
             style="opacity:1;fill:#ffffff;fill-opacity:1;stroke:#000000;stroke-width:0.5;stroke-linejoin:round;stroke-miterlimit:4;stroke-dasharray:none;stroke-dashoffset:0;stroke-opacity:1" />
          <rect
             ry="0.98011559"
             y="113.25505"
             x="186.73215"
             height="32.232136"
             width="5.1785779"
             id="rect4149-7-0"
             style="opacity:1;fill:#ffffff;fill-opacity:1;stroke:#000000;stroke-width:0.5;stroke-linejoin:round;stroke-miterlimit:4;stroke-dasharray:none;stroke-dashoffset:0;stroke-opacity:1" />
          <rect
             ry="0.98011559"
             y="113.25505"
             x="192.41072"
             height="32.232136"
             width="5.1785779"
             id="rect4149-7-93"
             style="opacity:1;fill:#ffffff;fill-opacity:1;stroke:#000000;stroke-width:0.5;stroke-linejoin:round;stroke-miterlimit:4;stroke-dasharray:none;stroke-dashoffset:0;stroke-opacity:1" />
          <rect
             ry="0.98011559"
             y="113.25505"
             x="198.08929"
             height="32.232136"
             width="5.1785779"
             id="rect4149-7-60"
             style="opacity:1;fill:#ffffff;fill-opacity:1;stroke:#000000;stroke-width:0.5;stroke-linejoin:round;stroke-miterlimit:4;stroke-dasharray:none;stroke-dashoffset:0;stroke-opacity:1" />
          <rect
             ry="0.98011559"
             y="113.25505"
             x="203.76787"
             height="32.232136"
             width="5.1785779"
             id="rect4149-7-62"
             style="opacity:1;fill:#ffffff;fill-opacity:1;stroke:#000000;stroke-width:0.5;stroke-linejoin:round;stroke-miterlimit:4;stroke-dasharray:none;stroke-dashoffset:0;stroke-opacity:1" />
          <rect
             ry="0.98011559"
             y="113.25505"
             x="209.44644"
             height="32.232136"
             width="5.1785779"
             id="rect4149-7-61"
             style="opacity:1;fill:#ffffff;fill-opacity:1;stroke:#000000;stroke-width:0.5;stroke-linejoin:round;stroke-miterlimit:4;stroke-dasharray:none;stroke-dashoffset:0;stroke-opacity:1" />
          <rect
             ry="0.98011559"
             y="113.25505"
             x="215.12502"
             height="32.232136"
             width="5.1785779"
             id="rect4149-7-8"
             style="opacity:1;fill:#ffffff;fill-opacity:1;stroke:#000000;stroke-width:0.5;stroke-linejoin:round;stroke-miterlimit:4;stroke-dasharray:none;stroke-dashoffset:0;stroke-opacity:1" />
          <rect
             ry="0.98011559"
             y="113.25505"
             x="220.80359"
             height="32.232136"
             width="5.1785779"
             id="rect4149-7-7"
             style="opacity:1;fill:#ffffff;fill-opacity:1;stroke:#000000;stroke-width:0.5;stroke-linejoin:round;stroke-miterlimit:4;stroke-dasharray:none;stroke-dashoffset:0;stroke-opacity:1" />
          <rect
             ry="0.98011559"
             y="113.25505"
             x="226.48216"
             height="32.232136"
             width="5.1785779"
             id="rect4149-7-92"
             style="opacity:1;fill:#ffffff;fill-opacity:1;stroke:#000000;stroke-width:0.5;stroke-linejoin:round;stroke-miterlimit:4;stroke-dasharray:none;stroke-dashoffset:0;stroke-opacity:1" />
          <rect
             ry="0.98011559"
             y="113.25505"
             x="232.16074"
             height="32.232136"
             width="5.1785779"
             id="rect4149-7-02"
             style="opacity:1;fill:#ffffff;fill-opacity:1;stroke:#000000;stroke-width:0.5;stroke-linejoin:round;stroke-miterlimit:4;stroke-dasharray:none;stroke-dashoffset:0;stroke-opacity:1" />
          <rect
             ry="0.98011559"
             y="113.25505"
             x="237.83931"
             height="32.232136"
             width="5.1785779"
             id="rect4149-7-3"
             style="opacity:1;fill:#ffffff;fill-opacity:1;stroke:#000000;stroke-width:0.5;stroke-linejoin:round;stroke-miterlimit:4;stroke-dasharray:none;stroke-dashoffset:0;stroke-opacity:1" />
          <rect
             ry="0.98011559"
             y="113.25505"
             x="243.51788"
             height="32.232136"
             width="5.1785779"
             id="rect4149-7-75"
             style="opacity:1;fill:#ffffff;fill-opacity:1;stroke:#000000;stroke-width:0.5;stroke-linejoin:round;stroke-miterlimit:4;stroke-dasharray:none;stroke-dashoffset:0;stroke-opacity:1" />
          <rect
             ry="0.98011559"
             y="113.25505"
             x="249.19646"
             height="32.232136"
             width="5.1785779"
             id="rect4149-7-922"
             style="opacity:1;fill:#ffffff;fill-opacity:1;stroke:#000000;stroke-width:0.5;stroke-linejoin:round;stroke-miterlimit:4;stroke-dasharray:none;stroke-dashoffset:0;stroke-opacity:1" />
          <rect
             ry="0.98011559"
             y="113.25505"
             x="254.87503"
             height="32.232136"
             width="5.1785779"
             id="rect4149-7-89"
             style="opacity:1;fill:#ffffff;fill-opacity:1;stroke:#000000;stroke-width:0.5;stroke-linejoin:round;stroke-miterlimit:4;stroke-dasharray:none;stroke-dashoffset:0;stroke-opacity:1" />
          <rect
             ry="0.53288811"
             y="113.40772"
             x="134.04362"
             height="19.359192"
             width="2.6627624"
             id="rect4178-5"
             style="opacity:1;fill:#000000;fill-opacity:1;stroke:#000000;stroke-width:0.51580906;stroke-linejoin:round;stroke-miterlimit:4;stroke-dasharray:none;stroke-dashoffset:0;stroke-opacity:1" />
          <rect
             ry="0.53288811"
             y="113.40772"
             x="145.40077"
             height="19.359192"
             width="2.6627624"
             id="rect4178-5-7"
             style="opacity:1;fill:#000000;fill-opacity:1;stroke:#000000;stroke-width:0.51580906;stroke-linejoin:round;stroke-miterlimit:4;stroke-dasharray:none;stroke-dashoffset:0;stroke-opacity:1" />
          <rect
             ry="0.53288811"
             y="113.40772"
             x="151.07933"
             height="19.359192"
             width="2.6627624"
             id="rect4178-5-3"
             style="opacity:1;fill:#000000;fill-opacity:1;stroke:#000000;stroke-width:0.51580906;stroke-linejoin:round;stroke-miterlimit:4;stroke-dasharray:none;stroke-dashoffset:0;stroke-opacity:1" />
          <rect
             ry="0.53288811"
             y="113.40772"
             x="162.43648"
             height="19.359192"
             width="2.6627624"
             id="rect4178-5-6"
             style="opacity:1;fill:#000000;fill-opacity:1;stroke:#000000;stroke-width:0.51580906;stroke-linejoin:round;stroke-miterlimit:4;stroke-dasharray:none;stroke-dashoffset:0;stroke-opacity:1" />
          <rect
             ry="0.53288811"
             y="113.40772"
             x="168.11507"
             height="19.359192"
             width="2.6627624"
             id="rect4178-5-1"
             style="opacity:1;fill:#000000;fill-opacity:1;stroke:#000000;stroke-width:0.51580906;stroke-linejoin:round;stroke-miterlimit:4;stroke-dasharray:none;stroke-dashoffset:0;stroke-opacity:1" />
          <rect
             ry="0.53288811"
             y="113.40772"
             x="173.79362"
             height="19.359192"
             width="2.6627624"
             id="rect4178-5-2"
             style="opacity:1;fill:#000000;fill-opacity:1;stroke:#000000;stroke-width:0.51580906;stroke-linejoin:round;stroke-miterlimit:4;stroke-dasharray:none;stroke-dashoffset:0;stroke-opacity:1" />
          <rect
             ry="0.53288811"
             y="113.40772"
             x="185.15077"
             height="19.359192"
             width="2.6627624"
             id="rect4178-5-9"
             style="opacity:1;fill:#000000;fill-opacity:1;stroke:#000000;stroke-width:0.51580906;stroke-linejoin:round;stroke-miterlimit:4;stroke-dasharray:none;stroke-dashoffset:0;stroke-opacity:1" />
          <rect
             ry="0.53288811"
             y="113.40772"
             x="190.82936"
             height="19.359192"
             width="2.6627624"
             id="rect4178-5-31"
             style="opacity:1;fill:#000000;fill-opacity:1;stroke:#000000;stroke-width:0.51580906;stroke-linejoin:round;stroke-miterlimit:4;stroke-dasharray:none;stroke-dashoffset:0;stroke-opacity:1" />
          <rect
             ry="0.53288811"
             y="113.40772"
             x="202.18651"
             height="19.359192"
             width="2.6627624"
             id="rect4178-5-94"
             style="opacity:1;fill:#000000;fill-opacity:1;stroke:#000000;stroke-width:0.51580906;stroke-linejoin:round;stroke-miterlimit:4;stroke-dasharray:none;stroke-dashoffset:0;stroke-opacity:1" />
          <rect
             ry="0.53288811"
             y="113.40772"
             x="207.86507"
             height="19.359192"
             width="2.6627624"
             id="rect4178-5-78"
             style="opacity:1;fill:#000000;fill-opacity:1;stroke:#000000;stroke-width:0.51580906;stroke-linejoin:round;stroke-miterlimit:4;stroke-dasharray:none;stroke-dashoffset:0;stroke-opacity:1" />
          <rect
             ry="0.53288811"
             y="113.40772"
             x="213.54366"
             height="19.359192"
             width="2.6627624"
             id="rect4178-5-4"
             style="opacity:1;fill:#000000;fill-opacity:1;stroke:#000000;stroke-width:0.51580906;stroke-linejoin:round;stroke-miterlimit:4;stroke-dasharray:none;stroke-dashoffset:0;stroke-opacity:1" />
          <rect
             ry="0.53288811"
             y="113.40772"
             x="224.9008"
             height="19.359192"
             width="2.6627624"
             id="rect4178-5-5"
             style="opacity:1;fill:#000000;fill-opacity:1;stroke:#000000;stroke-width:0.51580906;stroke-linejoin:round;stroke-miterlimit:4;stroke-dasharray:none;stroke-dashoffset:0;stroke-opacity:1" />
          <rect
             ry="0.53288811"
             y="113.40772"
             x="230.57936"
             height="19.359192"
             width="2.6627624"
             id="rect4178-5-0"
             style="opacity:1;fill:#000000;fill-opacity:1;stroke:#000000;stroke-width:0.51580906;stroke-linejoin:round;stroke-miterlimit:4;stroke-dasharray:none;stroke-dashoffset:0;stroke-opacity:1" />
          <rect
             ry="0.53288811"
             y="113.40772"
             x="241.93651"
             height="19.359192"
             width="2.6627624"
             id="rect4178-5-36"
             style="opacity:1;fill:#000000;fill-opacity:1;stroke:#000000;stroke-width:0.51580906;stroke-linejoin:round;stroke-miterlimit:4;stroke-dasharray:none;stroke-dashoffset:0;stroke-opacity:1" />
          <rect
             ry="0.53288811"
             y="113.40772"
             x="247.6151"
             height="19.359192"
             width="2.6627624"
             id="rect4178-5-10"
             style="opacity:1;fill:#000000;fill-opacity:1;stroke:#000000;stroke-width:0.51580906;stroke-linejoin:round;stroke-miterlimit:4;stroke-dasharray:none;stroke-dashoffset:0;stroke-opacity:1" />
          <rect
             ry="0.53288811"
             y="113.40772"
             x="253.29366"
             height="19.359192"
             width="2.6627624"
             id="rect4178-5-63"
             style="opacity:1;fill:#000000;fill-opacity:1;stroke:#000000;stroke-width:0.51580906;stroke-linejoin:round;stroke-miterlimit:4;stroke-dasharray:none;stroke-dashoffset:0;stroke-opacity:1" />
        </g>
      </g>
      <g
         inkscape:label="Capa 1"
         id="layer1-9"
         transform="matrix(0.28222222,0,0,0.28222222,-67.857705,-71.751531)">
        <g
           id="g674"
           transform="matrix(1.25,0,0,-1.25,305.69522,264.58838)">
          <path
             d="M 0,0 C -59.267,0 -44.986,-78.557 0,-78.557 44.987,-78.557 59.266,0 0,0"
             style="fill:#aa7764;fill-opacity:1;fill-rule:evenodd;stroke:none"
             id="path676"
             inkscape:connector-curvature="0" />
        </g>
        <g
           id="g678"
           transform="matrix(1.25,0,0,-1.25,282.04872,564.05013)">
          <path
             d="m 0,0 c -4.135,-6.159 -9.645,-9.702 -11.021,-14.145 -2.222,-7.175 5.778,-7.183 10.484,-5.832 4.409,1.266 6.832,4.226 9.38,4.961 C 15.415,-13.12 15.584,-9.231 12.925,0 10.266,9.231 3.328,5.762 0,0"
             style="fill:#e8972d;fill-opacity:1;fill-rule:evenodd;stroke:none"
             id="path680"
             inkscape:connector-curvature="0" />
        </g>
        <g
           id="g682"
           transform="matrix(1.25,0,0,-1.25,328.97497,564.05013)">
          <path
             d="m 0,0 c 4.135,-6.159 9.643,-9.702 11.019,-14.145 2.265,-7.311 -6.168,-7.089 -10.747,-5.735 -4.337,1.283 -6.589,4.135 -9.115,4.864 -6.572,1.896 -6.741,5.785 -4.083,15.016 2.659,9.231 9.598,5.762 12.926,0"
             style="fill:#e8972d;fill-opacity:1;fill-rule:evenodd;stroke:none"
             id="path684"
             inkscape:connector-curvature="0" />
        </g>
        <g
           id="g686"
           transform="matrix(1.25,0,0,-1.25,276.62484,464.61613)"
           style="fill:#004455">
          <path
             d="M 0,0 H 46.511 V -84.694 H 27.193 v 61.505 c 0,5.277 -7.873,5.309 -7.873,0 V -84.694 H 0 Z"
             style="fill:#004455;fill-opacity:1;fill-rule:evenodd;stroke:none"
             id="path688"
             inkscape:connector-curvature="0" />
        </g>
        <g
           id="g690"
           transform="matrix(1.25,0,0,-1.25,290.23297,394.35213)"
           style="fill:#e8972d;fill-opacity:1">
          <path
             d="m 0,0 -11.314,-35.615 c -1.441,-4.536 -6.333,-7.069 -10.869,-5.627 -4.538,1.44 -7.07,6.331 -5.629,10.868 L -16.498,5.24 C -13.211,15.586 3.117,9.812 0,0"
             style="fill:#e8972d;fill-opacity:1;fill-rule:evenodd;stroke:none"
             id="path692"
             inkscape:connector-curvature="0" />
        </g>
        <g
           id="g694"
           transform="matrix(1.25,0,0,-1.25,269.48747,472.92888)"
           style="fill:#deaa87;fill-opacity:1">
          <path
             d="M 0,0 V 0 C 1.149,-0.141 1.972,-1.197 1.831,-2.346 L 1.206,-7.413 c -0.143,-1.148 -1.199,-1.972 -2.346,-1.83 -1.149,0.141 -1.974,1.197 -1.83,2.345 l 0.624,5.067 C -2.204,-0.682 -1.149,0.141 0,0"
             style="fill:#deaa87;fill-opacity:1;fill-rule:evenodd;stroke:none"
             id="path696"
             inkscape:connector-curvature="0" />
        </g>
        <g
           id="g698"
           transform="matrix(1.25,0,0,-1.25,271.77559,475.86113)"
           style="fill:#deaa87;fill-opacity:1">
          <path
             d="M 0,0 0.304,2.811 -16.53,4.785 -16.833,1.974 C -18.191,-10.448 -1.551,-14.37 0,0"
             style="fill:#deaa87;fill-opacity:1;fill-rule:evenodd;stroke:none"
             id="path700"
             inkscape:connector-curvature="0" />
        </g>
        <g
           id="g702"
           transform="matrix(1.25,0,0,-1.25,272.15584,472.34738)"
           style="fill:#e8972d;fill-opacity:1">
          <path
             d="m 0,0 3.262,26.849 c 0.573,4.723 -2.943,9.022 -7.676,9.532 -4.733,0.512 -9.024,-2.943 -9.534,-7.674 L -16.834,1.974 Z"
             style="fill:#e8972d;fill-opacity:1;fill-rule:evenodd;stroke:none"
             id="path704"
             inkscape:connector-curvature="0" />
        </g>
        <g
           id="g706"
           transform="matrix(1.25,0,0,-1.25,321.38809,394.35213)"
           style="fill:#e8972d;fill-opacity:1">
          <path
             d="m 0,0 11.312,-35.615 c 1.443,-4.536 6.333,-7.069 10.871,-5.627 4.536,1.44 7.068,6.331 5.627,10.868 L 16.496,5.24 C 13.209,15.586 -3.117,9.812 0,0"
             style="fill:#e8972d;fill-opacity:1;fill-rule:evenodd;stroke:none"
             id="path708"
             inkscape:connector-curvature="0" />
        </g>
        <g
           id="g710"
           transform="matrix(1.25,0,0,-1.25,342.13122,472.92888)"
           style="fill:#deaa87;fill-opacity:1">
          <path
             d="m 0,0 v 0 c -1.149,-0.141 -1.972,-1.197 -1.831,-2.346 l 0.627,-5.067 c 0.141,-1.148 1.197,-1.972 2.346,-1.83 1.148,0.141 1.972,1.197 1.83,2.345 L 2.346,-1.831 C 2.205,-0.682 1.149,0.141 0,0"
             style="fill:#deaa87;fill-opacity:1;fill-rule:evenodd;stroke:none"
             id="path712"
             inkscape:connector-curvature="0" />
        </g>
        <g
           id="g714"
           transform="matrix(1.25,0,0,-1.25,339.84309,475.86113)"
           style="fill:#deaa87;fill-opacity:1">
          <path
             d="M 0,0 -0.302,2.811 16.53,4.785 16.834,1.973 C 18.191,-10.448 1.553,-14.37 0,0"
             style="fill:#deaa87;fill-opacity:1;fill-rule:evenodd;stroke:none"
             id="path716"
             inkscape:connector-curvature="0" />
        </g>
        <g
           id="g718"
           transform="matrix(1.25,0,0,-1.25,339.46509,472.34738)"
           style="fill:#e8972d;fill-opacity:1">
          <path
             d="m 0,0 -3.262,26.849 c -0.574,4.723 2.944,9.022 7.676,9.532 4.733,0.512 9.022,-2.943 9.534,-7.675 L 16.833,1.974 Z"
             style="fill:#e8972d;fill-opacity:1;fill-rule:evenodd;stroke:none"
             id="path720"
             inkscape:connector-curvature="0" />
        </g>
        <path
           d="m 276.62672,380.90563 57.77911,-2.14286 0.35714,93.80536 h -58.13625 z"
           style="fill:#999999;fill-opacity:1;fill-rule:evenodd;stroke:none"
           id="path722"
           inkscape:connector-curvature="0"
           sodipodi:nodetypes="ccccc" />
        <g
           id="g724"
           transform="matrix(1.25,0,0,-1.25,305.69522,337.69525)"
           style="fill:#deaa87">
          <path
             d="m 0,0 v 0 c 5.776,0 10.502,-4.727 10.502,-10.504 v -24.065 c 0,-5.776 -11.15711235,-19.289817 -11.15711235,-19.289817 0,0 -9.84888765,13.513817 -9.84888765,19.289817 v 24.065 C -10.504,-4.727 -5.776,0 0,0"
             style="fill:#deaa87;fill-opacity:1;fill-rule:evenodd;stroke:none"
             id="path726"
             inkscape:connector-curvature="0"
             sodipodi:nodetypes="ccsscssc" />
        </g>
        <g
           id="g728"
           transform="matrix(1.25,0,0,-1.25,318.82247,371.11613)"
           style="fill:#d38d5f">
          <path
             d="M 0,0 V 0 C 0,-9.021 -21.005,-9.021 -21.005,0 -21.005,9.021 0,9.021 0,0"
             style="fill:#d38d5f;fill-opacity:1;fill-rule:evenodd;stroke:none"
             id="path730"
             inkscape:connector-curvature="0" />
        </g>
        <g
           id="g732"
           transform="matrix(1.25,0,0,-1.25,305.69522,267.713)"
           style="fill:#deaa87">
          <path
             d="M 0,0 C -59.183,0 -44.924,-85.9 0,-85.9 44.922,-85.9 59.182,0 0,0"
             style="fill:#deaa87;fill-opacity:1;fill-rule:evenodd;stroke:none"
             id="path734"
             inkscape:connector-curvature="0" />
        </g>
        <g
           id="g736"
           transform="matrix(1.25,0,0,-1.25,254.29797,314.99151)"
           style="fill:#deaa87">
          <path
             d="M 0,0 C 2.99,0.763 6.621,-3.349 8.111,-9.185 9.6,-15.02 8.387,-20.369 5.397,-21.133 c -2.989,-0.763 -6.619,3.349 -8.11,9.184 C -4.203,-6.113 -2.988,-0.763 0,0"
             style="fill:#deaa87;fill-opacity:1;fill-rule:evenodd;stroke:none"
             id="path738"
             inkscape:connector-curvature="0" />
        </g>
        <g
           id="g740"
           transform="matrix(1.25,0,0,-1.25,357.1306,314.99151)"
           style="fill:#deaa87">
          <path
             d="m 0,0 c -2.99,0.763 -6.621,-3.349 -8.109,-9.185 -1.491,-5.835 -0.276,-11.184 2.712,-11.948 2.99,-0.763 6.621,3.349 8.11,9.184 C 4.203,-6.113 2.988,-0.763 0,0"
             style="fill:#deaa87;fill-opacity:1;fill-rule:evenodd;stroke:none"
             id="path742"
             inkscape:connector-curvature="0" />
        </g>
        <g
           id="g744"
           transform="matrix(1.25,0,0,-1.25,321.04135,331.75675)"
           style="fill:#1a1a1a">
          <path
             d="M 0,0 C 1.571,0 2.851,2.346 2.851,5.223 2.851,8.1 1.571,10.446 0,10.446 -1.569,10.446 -2.849,8.1 -2.849,5.223 -2.849,2.346 -1.569,0 0,0"
             style="fill:#1a1a1a;fill-opacity:1;fill-rule:evenodd;stroke:none"
             id="path746"
             inkscape:connector-curvature="0" />
        </g>
        <g
           id="g748"
           transform="matrix(1.25,0,0,-1.25,290.34697,331.75675)"
           style="fill:#1a1a1a">
          <path
             d="M 0,0 C 1.569,0 2.85,2.346 2.85,5.223 2.85,8.1 1.569,10.446 0,10.446 -1.569,10.446 -2.85,8.1 -2.85,5.223 -2.85,2.346 -1.569,0 0,0"
             style="fill:#1a1a1a;fill-opacity:1;fill-rule:evenodd;stroke:none"
             id="path750"
             inkscape:connector-curvature="0" />
        </g>
        <g
           id="g752"
           transform="matrix(1.25,0,0,-1.25,312.90197,339.14125)">
          <path
             d="M 0,0 C -2.213,-5.642 -9.319,-5.543 -11.531,0 -8.292,-3.082 -3.416,-3.225 0,0"
             style="fill:#e0ba9b;fill-opacity:1;fill-rule:evenodd;stroke:none"
             id="path754"
             inkscape:connector-curvature="0" />
        </g>
        <g
           id="g756"
           transform="matrix(1.25,0,0,-1.25,264.81047,329.02575)"
           style="fill:#1a1a1a">
          <path
             d="m 0,0 c 0.649,-6.284 -0.879,-4.505 -3.135,0.423 -2.256,4.928 -3.903,9.844 -3.507,14.711 3.806,46.989 73.672,47.565 78.669,0 C 72.537,10.277 70.777,5.351 68.52,0.423 66.264,-4.505 64.736,-6.283 65.385,0 66.173,7.63 64.999,18.61 60.962,25.073 53.819,36.508 44.498,29.872 31.861,29.872 19.227,29.872 13.302,35.029 5.051,24.474 0.05,18.076 -0.841,8.147 0,0"
             style="fill:#1a1a1a;fill-opacity:1;fill-rule:evenodd;stroke:none"
             id="path758"
             inkscape:connector-curvature="0" />
        </g>
        <g
           id="g764"
           transform="matrix(1.25,0,0,-1.25,324.22859,349.58788)"
           style="fill:#d38d5f;fill-opacity:1">
          <path
             d="M 0,0 C -5.112,-8.995 -23.439,-9.242 -29.655,0 -20.9,-3.459 -8.299,-3.221 0,0"
             style="fill:#d38d5f;fill-opacity:1;fill-rule:evenodd;stroke:none"
             id="path766"
             inkscape:connector-curvature="0" />
        </g>
        <g
           id="g12182"
           style="fill:#1a1a1a">
          <g
             transform="matrix(1.25,0,0,-1.25,256.59947,309.07313)"
             id="g760"
             style="fill:#1a1a1a">
            <path
               inkscape:connector-curvature="0"
               id="path762"
               style="fill:#1a1a1a;fill-opacity:1;fill-rule:evenodd;stroke:none"
               d="M 0,0 C -4.702,49.447 83.143,48.26 78.552,0 68.375,29.494 10.176,29.494 0,0" />
          </g>
          <g
             transform="matrix(1.25,0,0,-1.25,328.26372,315.00488)"
             id="g768"
             style="fill:#1a1a1a">
            <path
               inkscape:connector-curvature="0"
               id="path770"
               style="fill:#1a1a1a;fill-opacity:1;fill-rule:evenodd;stroke:none"
               d="M 0,0 C 14.857,23.076 4.853,29.406 -11.805,36.23 9.575,39.08 35.011,18.099 0,0" />
          </g>
          <g
             transform="matrix(1.25,0,0,-1.25,305.58572,313.18988)"
             id="g772"
             style="fill:#1a1a1a">
            <path
               inkscape:connector-curvature="0"
               id="path774"
               style="fill:#1a1a1a;fill-opacity:1;fill-rule:evenodd;stroke:none"
               d="M 0,0 C 22.789,17.7 15.847,25.339 3.312,34.735 26.418,33.057 43.55,9.264 0,0" />
          </g>
          <g
             transform="matrix(1.25,0,0,-1.25,285.25622,306.72351)"
             id="g776"
             style="fill:#1a1a1a">
            <path
               inkscape:connector-curvature="0"
               id="path778"
               style="fill:#1a1a1a;fill-opacity:1;fill-rule:evenodd;stroke:none"
               d="M 0,0 C 19.821,11.754 23.24,20.155 12.495,33.32 36.831,25.943 45.471,0.842 0,0" />
          </g>
          <g
             transform="matrix(1.25,0,0,-1.25,263.8711,304.35925)"
             id="g780"
             style="fill:#1a1a1a">
            <path
               inkscape:connector-curvature="0"
               id="path782"
               style="fill:#1a1a1a;fill-opacity:1;fill-rule:evenodd;stroke:none"
               d="M 0,0 C 10.5,11.753 16.117,16.848 16.802,28.949 42.401,22.469 60.017,10.329 0,0" />
          </g>
        </g>
        <g
           id="g796"
           transform="matrix(1.25,0,0,-1.25,269.03334,580.10526)">
          <path
             d="m 0,0 c -0.242,-0.469 -0.442,-0.943 -0.592,-1.428 -2.23,-7.2 5.38,-7.055 10.042,-5.933 4.879,1.174 7.143,4.289 9.821,5.062 3.526,1.016 5.208,2.607 5.601,5.287 C 21.131,0.079 15.473,-2.306 9.473,-4.278 6.921,-1.451 3.233,-0.045 0,0"
             style="fill:#f5b158;fill-opacity:1;fill-rule:evenodd;stroke:none"
             id="path798"
             inkscape:connector-curvature="0" />
        </g>
        <g
           id="g800"
           transform="matrix(1.25,0,0,-1.25,272.26322,576.31288)">
          <path
             d="M 0,0 C -0.245,-0.179 -0.589,-0.126 -0.768,0.118 -0.947,0.362 -0.893,0.706 -0.65,0.885 -0.22,1.2 0.449,1.479 1.26,1.69 H 1.247 C 1.088,1.676 0.938,1.73 0.828,1.83 0.771,1.866 0.719,1.914 0.678,1.971 0.499,2.214 0.551,2.558 0.796,2.737 1.329,3.128 2.317,3.54 3.511,3.857 3.423,3.852 3.335,3.846 3.246,3.838 2.945,3.811 2.679,4.033 2.652,4.335 2.625,4.635 2.847,4.902 3.147,4.929 4.008,5.008 4.761,4.922 5.425,4.719 V 3.137 C 4.609,3.014 3.838,2.835 3.18,2.629 3.65,2.504 4.078,2.322 4.468,2.098 4.785,2.102 5.105,2.094 5.425,2.074 v -2.24 C 5.196,0.112 4.946,0.377 4.667,0.616 4.509,0.752 4.341,0.879 4.162,0.997 2.357,0.939 0.719,0.529 0,0 M 5.425,4.719 C 5.747,4.621 6.05,4.496 6.331,4.348 L 6.413,4.355 C 8.213,4.498 10.072,4.326 11.434,3.574 11.699,3.429 11.797,3.095 11.651,2.83 11.506,2.564 11.171,2.467 10.906,2.612 10.053,3.084 8.929,3.283 7.748,3.302 8.496,2.568 9.027,1.714 9.446,0.997 9.645,0.832 9.706,0.545 9.577,0.31 9.432,0.045 9.097,-0.052 8.832,0.094 7.997,0.554 6.975,0.819 5.917,0.933 6.624,0.184 7.132,-0.658 7.53,-1.344 7.682,-1.606 7.592,-1.942 7.331,-2.093 7.068,-2.245 6.733,-2.155 6.581,-1.894 c -0.306,0.526 -0.68,1.15 -1.156,1.728 v 2.24 C 6.189,2.027 6.952,1.914 7.671,1.72 7.379,2.111 7.043,2.49 6.653,2.816 6.477,2.963 6.291,3.099 6.091,3.222 5.865,3.198 5.644,3.17 5.425,3.137 Z"
             style="fill:#f5b158;fill-opacity:1;fill-rule:nonzero;stroke:none"
             id="path802"
             inkscape:connector-curvature="0" />
        </g>
        <g
           id="g804"
           transform="matrix(1.25,0,0,-1.25,341.98584,580.02038)">
          <path
             d="m 0,0 c 0.242,-0.468 0.442,-0.942 0.592,-1.428 2.23,-7.199 -5.448,-7.054 -10.11,-5.932 -4.879,1.174 -7.075,4.289 -9.754,5.062 -3.525,1.016 -5.207,2.607 -5.598,5.287 3.739,-2.909 9.397,-5.294 15.397,-7.266 C -6.921,-1.45 -3.232,-0.045 0,0"
             style="fill:#f5b158;fill-opacity:1;fill-rule:evenodd;stroke:none"
             id="path806"
             inkscape:connector-curvature="0" />
        </g>
        <g
           id="g808"
           transform="matrix(1.25,0,0,-1.25,331.97435,570.32751)">
          <path
             d="m 0,0 c -0.322,-0.098 -0.623,-0.225 -0.905,-0.371 l -0.083,0.007 c -1.8,0.143 -3.659,-0.03 -5.021,-0.781 -0.265,-0.146 -0.361,-0.48 -0.216,-0.746 0.145,-0.264 0.479,-0.362 0.744,-0.216 0.856,0.471 1.977,0.67 3.158,0.689 -0.746,-0.734 -1.279,-1.587 -1.698,-2.305 -0.198,-0.164 -0.257,-0.452 -0.13,-0.686 0.146,-0.266 0.479,-0.362 0.746,-0.217 0.834,0.46 1.855,0.724 2.913,0.841 -0.705,-0.75 -1.213,-1.593 -1.612,-2.278 -0.152,-0.262 -0.063,-0.598 0.2,-0.75 0.261,-0.151 0.598,-0.062 0.748,0.2 0.306,0.525 0.68,1.15 1.156,1.728 v 2.239 c -0.762,-0.046 -1.526,-0.159 -2.246,-0.353 0.294,0.389 0.628,0.769 1.02,1.096 0.174,0.147 0.362,0.283 0.562,0.405 C -0.44,-1.522 -0.218,-1.55 0,-1.583 Z m 5.427,-4.719 c 0.244,-0.179 0.587,-0.126 0.766,0.118 0.179,0.244 0.125,0.587 -0.118,0.766 -0.43,0.314 -1.099,0.594 -1.908,0.806 L 4.18,-3.03 c 0.159,-0.015 0.31,0.041 0.419,0.141 0.055,0.036 0.107,0.082 0.15,0.14 0.179,0.244 0.125,0.587 -0.118,0.766 -0.535,0.391 -1.523,0.804 -2.715,1.12 C 2.002,-0.867 2.09,-0.872 2.179,-0.881 2.48,-0.908 2.747,-0.686 2.773,-0.386 2.8,-0.084 2.579,0.182 2.278,0.209 1.417,0.289 0.664,0.202 0,0 V -1.583 C 0.816,-1.705 1.587,-1.885 2.246,-2.091 1.775,-2.215 1.349,-2.397 0.959,-2.621 0.641,-2.619 0.32,-2.626 0,-2.646 v -2.239 c 0.229,0.276 0.481,0.543 0.76,0.782 0.158,0.135 0.326,0.264 0.503,0.38 1.808,-0.057 3.443,-0.469 4.164,-0.996"
             style="fill:#f5b158;fill-opacity:1;fill-rule:nonzero;stroke:none"
             id="path810"
             inkscape:connector-curvature="0" />
        </g>
        <g
           id="g812"
           transform="matrix(1.4112591,0,0,-1.7038727,292.47919,379.98624)"
           style="fill:#999999">
          <path
             d="M -9.6165393,-1.6768523 C -6.1268904,-5.5895994 3.8444649,-24.400695 5.0630633,-24.551211 c 3.731462,0.01792 13.6807907,19.5516008 19.1996847,22.7347775 3.781621,2.18115593 4.207723,1.39722042 4.207723,1.39722042 l 1.491527,-26.91022892 -41.194597,3.291098 z"
             style="fill:#999999;fill-opacity:1;fill-rule:evenodd;stroke:none"
             id="path814"
             inkscape:connector-curvature="0"
             sodipodi:nodetypes="ccccccc" />
        </g>
        <path
           style="fill:#e8972d;fill-opacity:1;fill-rule:evenodd;stroke:none;stroke-width:1px;stroke-linecap:butt;stroke-linejoin:miter;stroke-opacity:1"
           d="m 290.1723,382.38033 0.2742,-9.50235 8.22851,13.53861 4.49865,17.78536 z"
           id="path4207"
           inkscape:connector-curvature="0"
           sodipodi:nodetypes="ccccc" />
        <path
           style="fill:#e8972d;fill-opacity:1;fill-rule:evenodd;stroke:none;stroke-width:1px;stroke-linecap:butt;stroke-linejoin:miter;stroke-opacity:1"
           d="m 321.07206,380.44544 -1.66316,-7.98712 -8.22851,13.53861 -4.37238,17.91163 z"
           id="path4207-3"
           inkscape:connector-curvature="0"
           sodipodi:nodetypes="ccccc" />
        <path
           style="fill:#004455;fill-opacity:1;fill-rule:evenodd;stroke:none;stroke-width:1px;stroke-linecap:butt;stroke-linejoin:miter;stroke-opacity:1"
           d="m 305.2997,414.48883 -19.81132,20.75472 19.81132,29.24529 19.81133,-29.24529 z"
           id="path4224"
           inkscape:connector-curvature="0"
           sodipodi:nodetypes="ccccc" />
        <path
           style="fill:#004455;fill-opacity:1;fill-rule:evenodd;stroke:none;stroke-width:1px;stroke-linecap:butt;stroke-linejoin:miter;stroke-opacity:1"
           d="m 319.84361,425.73883 -15,15.71429 15,22.14286 15.00001,-22.14286 z"
           id="path4224-6"
           inkscape:connector-curvature="0"
           sodipodi:nodetypes="ccccc" />
        <path
           style="fill:#004455;fill-opacity:1;fill-rule:evenodd;stroke:none;stroke-width:1px;stroke-linecap:butt;stroke-linejoin:miter;stroke-opacity:1"
           d="m 291.01348,425.73883 -15,15.71429 15,22.14286 15.00001,-22.14286 z"
           id="path4224-7"
           inkscape:connector-curvature="0"
           sodipodi:nodetypes="ccccc" />
      </g>
      <g
         inkscape:label="Capa 1"
         id="layer1-56"
         transform="matrix(0.15587488,0,0,0.16235455,193.10103,-32.111847)">
        <g
           id="g4391"
           transform="matrix(-0.27555178,0,0,0.35148038,-1272.3695,388.88577)">
          <ellipse
             ry="63.397614"
             rx="64.660301"
             cy="264.94827"
             cx="-592.95959"
             id="path4147"
             style="color:#000000;clip-rule:nonzero;display:inline;overflow:visible;visibility:visible;opacity:1;isolation:auto;mix-blend-mode:normal;color-interpolation:sRGB;color-interpolation-filters:linearRGB;solid-color:#000000;solid-opacity:1;fill:#798486;fill-opacity:1;fill-rule:nonzero;stroke:#71716f;stroke-width:0.42891484;stroke-linecap:round;stroke-linejoin:round;stroke-miterlimit:4;stroke-dasharray:none;stroke-dashoffset:0;stroke-opacity:1;color-rendering:auto;image-rendering:auto;shape-rendering:auto;text-rendering:auto;enable-background:accumulate" />
          <path
             id="path4149"
             d="m -592.95898,201.55078 a 64.660301,63.397614 0 0 0 -1.49024,0.0508 v 1.24805 h -9.52148 v -0.37305 a 64.660301,63.397614 0 0 0 -19.52149,6.64844 v 8.24609 h -9.51953 v -2.18164 a 64.660301,63.397614 0 0 0 -7.75586,7.18164 h 2.75586 v 9.51953 h -9.52148 v -0.81054 a 64.660301,63.397614 0 0 0 -5,9.22656 v 6.10547 h -2.25196 a 64.660301,63.397614 0 0 0 -1.30078,5 h 3.55274 v 9.52148 h -4.88086 a 64.660301,63.397614 0 0 0 -0.20508,4.01563 64.660301,63.397614 0 0 0 0.0352,0.98437 h 5.05078 v 9.51953 h -4.17969 a 64.660301,63.397614 0 0 0 1.11719,5 h 3.0625 v 8.98438 a 64.660301,63.397614 0 0 0 5,9.48438 v -3.94727 h 9.52148 v 9.52148 h -5.47266 a 64.660301,63.397614 0 0 0 4.55469,5 h 0.91797 v 0.83789 a 64.660301,63.397614 0 0 0 5,4.29883 v -5.13672 h 9.51953 v 9.52149 h -3.07422 a 64.660301,63.397614 0 0 0 10.31641,5 h 7.2793 v 2.27148 a 64.660301,63.397614 0 0 0 5,1.06446 v -3.33594 h 9.52148 v 4.25586 a 64.660301,63.397614 0 0 0 1.49024,0.0723 64.660301,63.397614 0 0 0 3.50976,-0.12109 v -4.20703 h 9.52149 v 2.95703 a 64.660301,63.397614 0 0 0 5,-1.17773 v -1.7793 h 5.44335 a 64.660301,63.397614 0 0 0 10.17579,-5 h -1.09961 v -9.52149 h 9.52148 v 3.4961 a 64.660301,63.397614 0 0 0 8.38672,-8.4961 h -3.38672 v -9.52148 h 9.52149 v 0.60742 a 64.660301,63.397614 0 0 0 5,-11.42187 v -3.70704 h 1.01953 a 64.660301,63.397614 0 0 0 1.08008,-5 h -2.09961 v -9.51953 h 3.01562 a 64.660301,63.397614 0 0 0 0.0508,-0.98437 64.660301,63.397614 0 0 0 -0.14453,-4.01563 h -2.92187 v -9.52148 h 1.49218 a 64.660301,63.397614 0 0 0 -1.31836,-5 h -0.17382 v -0.51563 a 64.660301,63.397614 0 0 0 -6.48633,-14.00586 h -8.03516 v -9.51953 h 0.73828 a 64.660301,63.397614 0 0 0 -5.73828,-5.53125 v 0.53125 h -9.52148 v -7.12695 a 64.660301,63.397614 0 0 0 -19.56446,-7.39453 h -9.47656 v -1.12695 a 64.660301,63.397614 0 0 0 -3.50976,-0.17188 z m -25.53321,6.29883 h 9.52149 v 9.52148 h -9.52149 z m 14.52149,0 h 9.52148 v 9.52148 h -9.52148 z m 14.52148,0 h 9.52149 v 9.52148 h -9.52149 z m 14.52149,0 h 9.51953 v 9.52148 h -9.51953 z m -58.08399,14.52148 h 9.51953 v 9.51953 h -9.51953 z m 14.51953,0 h 9.52149 v 9.51953 h -9.52149 z m 14.52149,0 h 9.52148 v 9.51953 h -9.52148 z m 14.52148,0 h 9.52149 v 9.51953 h -9.52149 z m 14.52149,0 h 9.51953 v 9.51953 h -9.51953 z m 14.51953,0 h 9.52148 v 9.51953 h -9.52148 z m -87.125,14.51953 h 9.52148 v 9.52149 h -9.52148 z m 14.52148,0 h 9.51953 v 9.52149 h -9.51953 z m 14.51953,0 h 9.52149 v 9.52149 h -9.52149 z m 14.52149,0 h 9.52148 v 9.52149 h -9.52148 z m 14.52148,0 h 9.52149 v 9.52149 h -9.52149 z m 14.52149,0 h 9.51953 v 9.52149 h -9.51953 z m 14.51953,0 h 9.52148 v 9.52149 h -9.52148 z m 14.52148,0 h 9.52149 v 9.52149 h -9.52149 z m -101.64648,14.52149 h 9.52148 v 9.52148 h -9.52148 z m 14.52148,0 h 9.51953 v 9.52148 h -9.51953 z m 14.51953,0 h 9.52149 v 9.52148 h -9.52149 z m 14.52149,0 h 9.52148 v 9.52148 h -9.52148 z m 14.52148,0 h 9.52149 v 9.52148 h -9.52149 z m 14.52149,0 h 9.51953 v 9.52148 h -9.51953 z m 14.51953,0 h 9.52148 v 9.52148 h -9.52148 z m 14.52148,0 h 9.52149 v 9.52148 h -9.52149 z m -101.64648,14.52148 h 9.52148 v 9.51953 h -9.52148 z m 14.52148,0 h 9.51953 v 9.51953 h -9.51953 z m 14.51953,0 h 9.52149 v 9.51953 h -9.52149 z m 14.52149,0 h 9.52148 v 9.51953 h -9.52148 z m 14.52148,0 h 9.52149 v 9.51953 h -9.52149 z m 14.52149,0 h 9.51953 v 9.51953 h -9.51953 z m 14.51953,0 h 9.52148 v 9.51953 h -9.52148 z m 14.52148,0 h 9.52149 v 9.51953 h -9.52149 z m -101.64648,14.51953 h 9.52148 v 9.52149 h -9.52148 z m 14.52148,0 h 9.51953 v 9.52149 h -9.51953 z m 14.51953,0 h 9.52149 v 9.52149 h -9.52149 z m 14.52149,0 h 9.52148 v 9.52149 h -9.52148 z m 14.52148,0 h 9.52149 v 9.52149 h -9.52149 z m 14.52149,0 h 9.51953 v 9.52149 h -9.51953 z m 14.51953,0 h 9.52148 v 9.52149 h -9.52148 z m 14.52148,0 h 9.52149 v 9.52149 h -9.52149 z m -87.125,14.52149 h 9.51953 v 9.52148 h -9.51953 z m 14.51953,0 h 9.52149 v 9.52148 h -9.52149 z m 14.52149,0 h 9.52148 v 9.52148 h -9.52148 z m 14.52148,0 h 9.52149 v 9.52148 h -9.52149 z m 14.52149,0 h 9.51953 v 9.52148 h -9.51953 z m 14.51953,0 h 9.52148 v 9.52148 h -9.52148 z m -58.08399,14.52148 h 9.52149 v 9.52149 h -9.52149 z m 14.52149,0 h 9.52148 v 9.52149 h -9.52148 z m 14.52148,0 h 9.52149 v 9.52149 h -9.52149 z m 14.52149,0 h 9.51953 v 9.52149 h -9.51953 z"
             style="color:#000000;font-style:normal;font-variant:normal;font-weight:normal;font-stretch:normal;font-size:medium;line-height:normal;font-family:sans-serif;text-indent:0;text-align:start;text-decoration:none;text-decoration-line:none;text-decoration-style:solid;text-decoration-color:#000000;letter-spacing:normal;word-spacing:normal;text-transform:none;writing-mode:lr-tb;direction:ltr;baseline-shift:baseline;text-anchor:start;white-space:normal;clip-rule:nonzero;display:inline;overflow:visible;visibility:visible;opacity:1;isolation:auto;mix-blend-mode:normal;color-interpolation:sRGB;color-interpolation-filters:linearRGB;solid-color:#000000;solid-opacity:1;fill:#b2b5ae;fill-opacity:1;fill-rule:evenodd;stroke:none;stroke-width:5;stroke-linecap:butt;stroke-linejoin:miter;stroke-miterlimit:4;stroke-dasharray:none;stroke-dashoffset:0;stroke-opacity:1;color-rendering:auto;image-rendering:auto;shape-rendering:auto;text-rendering:auto;enable-background:accumulate"
             inkscape:connector-curvature="0" />
          <path
             sodipodi:nodetypes="ccccc"
             inkscape:connector-curvature="0"
             id="path4377"
             d="m -701.78572,312.3622 c 2.5,-1.42857 33.97337,-35.13663 46.07143,-44.64285 20.51086,15.89555 44.682,44.49035 60.35715,60 -14.04315,17.35112 -33.36231,34.85207 -46.78571,45.71428 -14.84016,-13.37231 -48.92386,-46.53333 -59.64287,-61.07143 z"
             style="fill:#283a44;fill-opacity:1;fill-rule:evenodd;stroke:none;stroke-width:1px;stroke-linecap:butt;stroke-linejoin:miter;stroke-opacity:1" />
          <path
             sodipodi:nodetypes="ccccc"
             inkscape:connector-curvature="0"
             id="path4379"
             d="m -862.1652,484.65647 c 40.72577,-42.52123 122.43859,-128.22048 163.13964,-169.34848 24.37951,23.37101 42.49229,41.01464 56.06346,56.46394 -68.56305,67.09775 -139.78893,134.25445 -170.08443,163.39217 -19.64351,-19.85491 -27.34484,-25.00296 -49.11867,-50.50763 z"
             style="fill:#283a44;fill-opacity:1;fill-rule:evenodd;stroke:none;stroke-width:1px;stroke-linecap:butt;stroke-linejoin:miter;stroke-opacity:1" />
          <path
             sodipodi:nodetypes="ccccc"
             inkscape:connector-curvature="0"
             id="path4381"
             d="m -916.20836,549.30624 c 4.30389,-4.54235 40.57992,-45.73368 57.83123,-61.61931 19.7355,15.99808 32.40984,28.00214 42.17387,43.6891 -17.22595,17.45473 -48.32634,45.18417 -61.36676,56.56854 -6.65999,-6.58603 -38.63834,-38.63833 -38.63834,-38.63833 z"
             style="fill:#283a44;fill-opacity:1;fill-rule:evenodd;stroke:none;stroke-width:1px;stroke-linecap:butt;stroke-linejoin:miter;stroke-opacity:1" />
          <ellipse
             ry="23.576153"
             rx="23.071077"
             cy="576.07532"
             cx="-904.21277"
             id="path4383"
             style="color:#000000;clip-rule:nonzero;display:inline;overflow:visible;visibility:visible;opacity:1;isolation:auto;mix-blend-mode:normal;color-interpolation:sRGB;color-interpolation-filters:linearRGB;solid-color:#000000;solid-opacity:1;fill:#283a41;fill-opacity:1;fill-rule:nonzero;stroke:none;stroke-width:0.52232498;stroke-linecap:round;stroke-linejoin:round;stroke-miterlimit:4;stroke-dasharray:none;stroke-dashoffset:0;stroke-opacity:1;color-rendering:auto;image-rendering:auto;shape-rendering:auto;text-rendering:auto;enable-background:accumulate" />
          <path
             inkscape:connector-curvature="0"
             id="path4387"
             d="m -681.78572,292.00506 9.82143,-10.35714 61.96429,62.14285 -10.17857,10.71429 z"
             style="fill:#afb4b0;fill-opacity:1;fill-rule:evenodd;stroke:none;stroke-width:1px;stroke-linecap:butt;stroke-linejoin:miter;stroke-opacity:1" />
          <path
             sodipodi:nodetypes="ccccc"
             inkscape:connector-curvature="0"
             id="path4389"
             d="m -646.49763,226.05742 c 3.58659,-3.9751 3.78807,-6.06091 10.22779,-9.84899 1.01015,0.75762 64.25126,62.64108 93.06031,92.42896 l -10.35407,10.85914 c -28.92629,-29.89382 -47.69363,-47.01293 -92.93403,-93.43911 z"
             style="fill:#dfe0db;fill-opacity:1;fill-rule:evenodd;stroke:none;stroke-width:1px;stroke-linecap:butt;stroke-linejoin:miter;stroke-opacity:1" />
          <path
             inkscape:connector-curvature="0"
             id="path4385"
             d="m -877.66869,542.8948 22.97738,-23.37992 7.35995,7.30623 -23.15691,23.74522 z"
             style="fill:#aeb5b1;fill-opacity:1;fill-rule:evenodd;stroke:none;stroke-width:1.01402795px;stroke-linecap:butt;stroke-linejoin:miter;stroke-opacity:1" />
        </g>
      </g>
    </g>
  </g>
</svg>
