<?xml version="1.0" encoding="UTF-8" standalone="no"?>
<!-- Created with Inkscape (http://www.inkscape.org/) -->

<svg
   xmlns:dc="http://purl.org/dc/elements/1.1/"
   xmlns:cc="http://creativecommons.org/ns#"
   xmlns:rdf="http://www.w3.org/1999/02/22-rdf-syntax-ns#"
   xmlns:svg="http://www.w3.org/2000/svg"
   xmlns="http://www.w3.org/2000/svg"
   xmlns:sodipodi="http://sodipodi.sourceforge.net/DTD/sodipodi-0.dtd"
   xmlns:inkscape="http://www.inkscape.org/namespaces/inkscape"
   width="25.915003mm"
   height="69.991112mm"
   viewBox="0 0 91.824815 248"
   id="svg7099"
   version="1.1"
   inkscape:version="0.91 r13725"
   sodipodi:docname="gabriela.svg"
   inkscape:export-filename="/home/piccolina/Escritorio/fundacion/megamente-web/Megamente/img/quien-soy/ejercicio3/gabriela.png"
   inkscape:export-xdpi="90"
   inkscape:export-ydpi="90">
  <defs
     id="defs7101" />
  <sodipodi:namedview
     id="base"
     pagecolor="#ffffff"
     bordercolor="#666666"
     borderopacity="1.0"
     inkscape:pageopacity="0.0"
     inkscape:pageshadow="2"
     inkscape:zoom="0.9899495"
     inkscape:cx="-69.636989"
     inkscape:cy="64.540424"
     inkscape:document-units="px"
     inkscape:current-layer="layer1"
     showgrid="false"
     fit-margin-top="0"
     fit-margin-left="0"
     fit-margin-right="0"
     fit-margin-bottom="0"
     inkscape:window-width="1366"
     inkscape:window-height="710"
     inkscape:window-x="0"
     inkscape:window-y="25"
     inkscape:window-maximized="1" />
  <metadata
     id="metadata7104">
    <rdf:RDF>
      <cc:Work
         rdf:about="">
        <dc:format>image/svg+xml</dc:format>
        <dc:type
           rdf:resource="http://purl.org/dc/dcmitype/StillImage" />
        <dc:title></dc:title>
      </cc:Work>
    </rdf:RDF>
  </metadata>
  <g
     inkscape:label="Capa 1"
     inkscape:groupmode="layer"
     id="layer1"
     transform="translate(-372.33676,-152.52851)">
    <g
       id="g4226"
       transform="matrix(0.77696732,0,0,0.77696732,83.043264,89.330949)">
      <g
         transform="matrix(1.25,0,0,-1.25,430.7916,81.343923)"
         id="g40">
        <path
           inkscape:connector-curvature="0"
           id="path42"
           style="fill:#aa7764;fill-opacity:1;fill-rule:evenodd;stroke:none"
           d="M 0,0 C -45.475,-0.723 -76.135,-89.021 -2.556,-91.217 80.786,-93.703 45.474,0.724 0,0" />
      </g>
      <g
         transform="matrix(1.25,0,0,-1.25,413.97311,381.95868)"
         id="g44">
        <path
           inkscape:connector-curvature="0"
           id="path46"
           style="fill:#fcdabe;fill-opacity:1;fill-rule:evenodd;stroke:none"
           d="m 0,0 c -3.091,-4.474 -7.207,-7.048 -8.235,-10.275 -0.582,-1.826 -0.15,-4.133 1.705,-4.363 7.979,-0.987 10.297,2.933 13.139,3.729 C 11.52,-9.531 11.646,-6.706 9.66,0 7.672,6.706 2.487,4.185 0,0" />
      </g>
      <g
         transform="matrix(1.25,0,0,-1.25,408.14936,275.67367)"
         id="g48">
        <path
           inkscape:connector-curvature="0"
           id="path50"
           style="fill:#fcdabe;fill-opacity:1;fill-rule:evenodd;stroke:none"
           d="m 0,0 36.51,0 -4.66,-85.028 -9.659,0 -1.964,64.67 c -0.156,5.128 -3.787,5.158 -3.944,0 l -1.964,-64.67 -9.66,0 L 0,0 Z" />
      </g>
      <g
         transform="matrix(1.25,0,0,-1.25,450.3331,212.13992)"
         id="g52">
        <path
           inkscape:connector-curvature="0"
           id="path54"
           style="fill:#fcdabe;fill-opacity:1;fill-rule:evenodd;stroke:none"
           d="m 0,0 19.202,-24.946 c 2.728,-3.546 9.707,3.39 7.619,6.898 L 11.744,7.282 C 6.307,16.416 -6.168,8.011 0,0" />
      </g>
      <g
         transform="matrix(1.0517134,-0.6755731,-0.67557302,-1.0517134,412.60776,207.48058)"
         id="g56">
        <path
           inkscape:connector-curvature="0"
           id="path58"
           style="fill:#fcdabe;fill-opacity:1;fill-rule:evenodd;stroke:none"
           d="m 0,0 -19.203,-24.757 c -2.741,-3.536 -9.718,3.397 -7.619,6.897 L -11.745,7.282 C -6.277,16.399 6.197,7.99 0,0" />
      </g>
      <g
         transform="matrix(1.25,0,0,-1.25,396.27135,203.0208)"
         id="g60">
        <path
           inkscape:connector-curvature="0"
           id="path62"
           style="fill:#2c8245;fill-opacity:1;fill-rule:evenodd;stroke:none"
           d="M 0,0 C 3.486,5.794 9.808,4.484 12.335,0.706 L 7.004,-13.397 0,0 Z" />
      </g>
      <g
         transform="matrix(1.25,0,0,-1.25,458.85498,251.93105)"
         id="g64">
        <path
           inkscape:connector-curvature="0"
           id="path66"
           style="fill:#fcdabe;fill-opacity:1;fill-rule:evenodd;stroke:none"
           d="m 0,0 0,0 c 0.043,0.415 -0.601,0.558 -0.991,0.382 l -5.766,-2.6 c -0.39,-0.175 -0.383,-0.616 -0.424,-1.031 l 0,-10e-4 c -0.043,-0.415 0.6,-0.557 0.99,-0.381 l 5.767,2.599 C -0.034,-0.855 0.156,-0.389 0,0" />
      </g>
      <g
         transform="matrix(1.25,0,0,-1.25,404.44029,262.28511)"
         id="g68">
        <path
           inkscape:connector-curvature="0"
           id="path70"
           style="fill:#fcdabe;fill-opacity:1;fill-rule:evenodd;stroke:none"
           d="m 0,0 0,0 c -0.043,0.415 0.6,0.557 0.99,0.382 l 5.766,-2.6 c 0.39,-0.175 0.382,-0.616 0.424,-1.031 l 0,-10e-4 C 7.223,-3.665 6.581,-3.807 6.19,-3.631 L 0.424,-1.032 C 0.034,-0.855 -0.156,-0.389 0,0" />
      </g>
      <g
         transform="matrix(1.25,0,0,-1.25,465.52936,203.0208)"
         id="g72">
        <path
           inkscape:connector-curvature="0"
           id="path74"
           style="fill:#2c8245;fill-opacity:1;fill-rule:evenodd;stroke:none"
           d="M 0,0 C -3.488,5.794 -9.808,4.484 -12.336,0.706 L -7.005,-13.397 0,0 Z" />
      </g>
      <g
         transform="matrix(1.25,0,0,-1.25,458.1326,197.85192)"
         id="g76">
        <path
           inkscape:connector-curvature="0"
           id="path78"
           style="fill:#5ebf79;fill-opacity:1;fill-rule:evenodd;stroke:none"
           d="m 0,0 -3.479,-62.257 -18.551,0 -17.957,0 L -43.464,0 0,0 Z" />
      </g>
      <g
         transform="matrix(1.25,0,0,-1.25,417.31873,197.85192)"
         id="g80">
        <path
           inkscape:connector-curvature="0"
           id="path82"
           style="fill:#2c8245;fill-opacity:1;fill-rule:evenodd;stroke:none"
           d="m 0,0 21.646,0 c 1.096,-1.308 1.756,-2.994 1.756,-4.833 0,-4.158 -3.37,-7.528 -7.528,-7.528 -1.943,0 -3.715,0.737 -5.051,1.947 -1.335,-1.21 -3.106,-1.947 -5.051,-1.947 -4.158,0 -7.528,3.37 -7.528,7.528 0,1.839 0.66,3.525 1.756,4.833" />
      </g>
      <g
         transform="matrix(1.25,0,0,-1.25,430.96823,155.67641)"
         id="g84">
        <path
           inkscape:connector-curvature="0"
           id="path86"
           style="fill:#fcdabe;fill-opacity:1;fill-rule:evenodd;stroke:none"
           d="m 0,0 0,0 c 5.776,0 10.503,-4.726 10.503,-10.503 l 0,-22.805 c 0,-5.777 -4.727,-10.503 -10.503,-10.503 -5.777,0 -10.504,4.726 -10.504,10.503 l 0,22.805 C -10.504,-4.726 -5.777,0 0,0" />
      </g>
      <g
         transform="matrix(1.25,0,0,-1.25,444.09723,188.16243)"
         id="g88">
        <path
           inkscape:connector-curvature="0"
           id="path90"
           style="fill:#e0ba9b;fill-opacity:1;fill-rule:evenodd;stroke:none"
           d="M 0,0 0,0 C 0,-8.77 -21.007,-8.77 -21.007,0 -21.007,8.769 0,8.769 0,0" />
      </g>
      <g
         transform="matrix(1.25,0,0,-1.25,430.96823,87.649163)"
         id="g92">
        <path
           inkscape:connector-curvature="0"
           id="path94"
           style="fill:#fcdabe;fill-opacity:1;fill-rule:evenodd;stroke:none"
           d="M 0,0 C -45.955,0 -42.437,-43.08 -33.669,-58.237 -21.702,-78.922 -5.61,-83.499 0,-83.499 c 5.609,0 21.701,4.577 33.666,25.262 C 42.436,-43.08 45.954,0 0,0" />
      </g>
      <g
         transform="matrix(1.25,0,0,-1.25,407.18198,258.36043)"
         id="g96">
        <path
           inkscape:connector-curvature="0"
           id="path98"
           style="fill:#425156;fill-opacity:1;fill-rule:evenodd;stroke:none"
           d="m 0,0 2.126,-38.521 33.71,0 L 38.051,-0.08 0,0 Z" />
      </g>
      <g
         transform="matrix(1.25,0,0,-1.25,447.9891,381.95868)"
         id="g100">
        <path
           inkscape:connector-curvature="0"
           id="path102"
           style="fill:#fcdabe;fill-opacity:1;fill-rule:evenodd;stroke:none"
           d="m 0,0 c 3.09,-4.474 7.207,-7.048 8.235,-10.275 0.581,-1.826 0.15,-4.133 -1.706,-4.363 -7.978,-0.987 -10.297,2.933 -13.137,3.729 C -11.52,-9.531 -11.647,-6.706 -9.659,0 -7.673,6.706 -2.487,4.185 0,0" />
      </g>
      <g
         transform="matrix(1.25,0,0,-1.25,380.05236,133.60679)"
         id="g104">
        <path
           inkscape:connector-curvature="0"
           id="path106"
           style="fill:#fcdabe;fill-opacity:1;fill-rule:evenodd;stroke:none"
           d="M 0,0 C 2.989,0.742 6.62,-3.255 8.11,-8.928 9.6,-14.6 8.386,-19.8 5.397,-20.542 c -2.989,-0.743 -6.62,3.255 -8.111,8.928 C -4.204,-5.942 -2.989,-0.742 0,0" />
      </g>
      <g
         transform="matrix(1.25,0,0,-1.25,481.90648,133.60679)"
         id="g108">
        <path
           inkscape:connector-curvature="0"
           id="path110"
           style="fill:#fcdabe;fill-opacity:1;fill-rule:evenodd;stroke:none"
           d="M 0,0 C -2.99,0.742 -6.621,-3.255 -8.109,-8.928 -9.6,-14.6 -8.385,-19.8 -5.397,-20.542 c 2.99,-0.743 6.621,3.255 8.11,8.928 C 4.203,-5.942 2.988,-0.742 0,0" />
      </g>
      <g
         transform="matrix(1.25,0,0,-1.25,446.31598,149.90354)"
         id="g112">
        <path
           inkscape:connector-curvature="0"
           id="path114"
           style="fill:#425156;fill-opacity:1;fill-rule:evenodd;stroke:none"
           d="m 0,0 c 1.569,0 2.849,2.28 2.849,5.077 0,2.797 -1.28,5.078 -2.849,5.078 -1.571,0 -2.85,-2.281 -2.85,-5.078 C -2.85,2.28 -1.571,0 0,0" />
      </g>
      <g
         transform="matrix(1.25,0,0,-1.25,415.62048,149.90354)"
         id="g116">
        <path
           inkscape:connector-curvature="0"
           id="path118"
           style="fill:#425156;fill-opacity:1;fill-rule:evenodd;stroke:none"
           d="m 0,0 c 1.57,0 2.85,2.28 2.85,5.077 0,2.797 -1.28,5.078 -2.85,5.078 -1.57,0 -2.85,-2.281 -2.85,-5.078 C -2.85,2.28 -1.57,0 0,0" />
      </g>
      <g
         transform="matrix(1.25,0,0,-1.25,438.17435,157.08116)"
         id="g120">
        <path
           inkscape:connector-curvature="0"
           id="path122"
           style="fill:#e0ba9b;fill-opacity:1;fill-rule:evenodd;stroke:none"
           d="M 0,0 C -2.213,-5.484 -9.318,-5.388 -11.53,0 -8.292,-2.995 -3.416,-3.135 0,0" />
      </g>
      <g
         transform="matrix(1.25,0,0,-1.25,406.9181,389.9628)"
         id="g124">
        <path
           inkscape:connector-curvature="0"
           id="path126"
           style="fill:#2c8245;fill-opacity:1;fill-rule:evenodd;stroke:none"
           d="m 0,0 c -1.201,-1.3 -2.163,-2.529 -2.591,-3.872 -1.457,-4.574 2.379,-4.79 5.769,-4.44 4.838,0.499 6.787,3.166 9.075,3.806 4.412,1.239 4.962,3.644 3.587,8.982 C 15.652,-0.181 8.3,-3.185 6.459,-3.741 4.618,-4.296 0.347,-1.813 0,0" />
      </g>
      <g
         transform="matrix(1.25,0,0,-1.25,455.04585,389.9628)"
         id="g128">
        <path
           inkscape:connector-curvature="0"
           id="path130"
           style="fill:#2c8245;fill-opacity:1;fill-rule:evenodd;stroke:none"
           d="m 0,0 c 1.201,-1.3 2.163,-2.529 2.591,-3.872 1.555,-4.88 -3.079,-4.893 -6.545,-4.338 -4.277,0.686 -6.136,3.099 -8.298,3.704 -4.412,1.239 -4.962,3.644 -3.587,8.982 0.187,-4.657 7.57,-8.082 9.49,-8.217 C -4.429,-3.877 0.632,-0.565 0,0" />
      </g>
      <g
         transform="matrix(1.25,0,0,-1.25,458.31823,250.85855)"
         id="g132">
        <path
           inkscape:connector-curvature="0"
           id="path134"
           style="fill:#fcdabe;fill-opacity:1;fill-rule:evenodd;stroke:none"
           d="m 0,0 12.837,14.793 c 6.52,2.8 12.522,-5.509 4.89,-9.562 L 4.228,-7.465 0,0 Z" />
      </g>
      <g
         transform="matrix(1.25,0,0,-1.25,456.32073,252.1658)"
         id="g136">
        <path
           inkscape:connector-curvature="0"
           id="path138"
           style="fill:#fcdabe;fill-opacity:1;fill-rule:evenodd;stroke:none"
           d="M 0,0 2.296,1.441 6.542,-6.106 4.246,-7.548 C -2.813,-11.703 -8.55,-5.073 0,0" />
      </g>
      <g
         transform="matrix(0.71098226,0.81628651,0.61306226,-0.94666594,416.1449,262.36701)"
         id="g140">
        <path
           inkscape:connector-curvature="0"
           id="path142"
           style="fill:#fcdabe;fill-opacity:1;fill-rule:evenodd;stroke:none"
           d="M -3.3877532,-11.724449 -16.224753,3.2575508 c -6.52,2.8 -12.522,-5.509 -4.891,-9.561 l 13.4979998,-12.8859998 4.23,7.465 z" />
      </g>
      <g
         transform="matrix(1.25,0,0,-1.25,417.7751,393.75955)"
         id="g148">
        <path
           inkscape:connector-curvature="0"
           id="path150"
           style="fill:#2c8245;fill-opacity:1;fill-rule:nonzero;stroke:none"
           d="m 0,0 c -0.024,0.144 -0.076,0.306 -0.153,0.48 -0.45,1.019 -1.606,2.158 -2.984,3.01 -1.325,0.819 -3.081,1.341 -4.258,1.185 0.609,0.628 1.242,1.286 1.872,1.991 C -4.403,6.424 -2.991,5.931 -1.96,5.293 -0.236,4.228 1.243,2.725 1.865,1.316 2.008,0.992 2.11,0.663 2.164,0.334 L 0,0 Z" />
      </g>
      <g
         transform="matrix(1.25,0,0,-1.25,444.31423,393.75955)"
         id="g152">
        <path
           inkscape:connector-curvature="0"
           id="path154"
           style="fill:#2c8245;fill-opacity:1;fill-rule:nonzero;stroke:none"
           d="M 0,0 C 0.023,0.144 0.077,0.306 0.154,0.48 0.603,1.499 1.759,2.638 3.137,3.49 4.463,4.309 6.218,4.831 7.395,4.675 6.785,5.303 6.154,5.961 5.524,6.666 4.404,6.424 2.992,5.931 1.959,5.293 0.236,4.228 -1.244,2.725 -1.865,1.316 -2.008,0.992 -2.11,0.663 -2.163,0.334 L 0,0 Z" />
      </g>
      <g
         transform="matrix(1.25,0,0,-1.25,446.21536,167.26491)"
         id="g156">
        <path
           inkscape:connector-curvature="0"
           id="path158"
           style="fill:#bf9470;fill-opacity:1;fill-rule:evenodd;stroke:none"
           d="M 0,0 C -4.481,-4.461 -19.294,-4.403 -24.045,0 -16.208,-1.413 -6.86,-1.188 0,0" />
      </g>
      <g
         transform="matrix(1.25,0,0,-1.25,438.16985,172.50442)"
         id="g160">
        <path
           inkscape:connector-curvature="0"
           id="path162"
           style="fill:#e0ba9b;fill-opacity:1;fill-rule:evenodd;stroke:none"
           d="M 0,0 C -2.081,-2.748 -8.964,-2.706 -11.172,0 -7.952,-1.274 -3.219,-1.279 0,0" />
      </g>
      <g
         transform="matrix(1.25,0,0,-1.25,392.1021,142.96854)"
         id="g164">
        <path
           inkscape:connector-curvature="0"
           id="path166"
           style="fill:#aa7764;fill-opacity:1;fill-rule:evenodd;stroke:none"
           d="M 0,0 C -1.39,-5.594 -2.494,-5.475 -4.75,-0.547 -7.007,4.381 -10.68,6.916 -9.8,11.718 -1.405,57.55 66.032,55.673 70.761,12.829 71.296,7.977 69.161,4.381 66.905,-0.547 64.648,-5.475 63.527,-7.386 62.639,-1.131 57.607,34.368 11.698,47.067 0,0" />
      </g>
      <g
         transform="matrix(1.25,0,0,-1.25,430.99748,86.235543)"
         id="g168">
        <path
           inkscape:connector-curvature="0"
           id="path170"
           style="fill:#aa7764;fill-opacity:1;fill-rule:evenodd;stroke:none"
           d="m 0,0 c -28.179,-0.225 -35.114,-15.897 -39.287,-28.27 2.468,-3.29 0.498,0.834 3.859,-2.726 19.724,-7.357 51.17,-7.339 70.016,0 3.652,3.873 -0.274,0.596 2.267,4.158 C 31.92,-12.834 21.794,0.175 0,0" />
      </g>
      <g
         transform="matrix(1.25,0,0,-1.25,389.91961,143.32754)"
         id="g172">
        <path
           inkscape:connector-curvature="0"
           id="path174"
           style="fill:#fcc379;fill-opacity:1;fill-rule:evenodd;stroke:none"
           d="M 0,0 C 6.76,39.46 58.29,36.97 65.682,1.42 75.091,51.153 -7.485,55.932 0,0" />
      </g>
      <g
         inkscape:label="Capa 1"
         id="layer1-6"
         transform="matrix(0.13556741,0,0,0.13556741,505.80244,216.9585)">
        <g
           id="g4391">
          <ellipse
             ry="63.397614"
             rx="64.660301"
             cy="264.94827"
             cx="-592.95959"
             id="path4147"
             style="color:#000000;clip-rule:nonzero;display:inline;overflow:visible;visibility:visible;opacity:1;isolation:auto;mix-blend-mode:normal;color-interpolation:sRGB;color-interpolation-filters:linearRGB;solid-color:#000000;solid-opacity:1;fill:#798486;fill-opacity:1;fill-rule:nonzero;stroke:#71716f;stroke-width:0.42891484;stroke-linecap:round;stroke-linejoin:round;stroke-miterlimit:4;stroke-dasharray:none;stroke-dashoffset:0;stroke-opacity:1;color-rendering:auto;image-rendering:auto;shape-rendering:auto;text-rendering:auto;enable-background:accumulate" />
          <path
             id="path4149"
             d="m -592.95898,201.55078 a 64.660301,63.397614 0 0 0 -1.49024,0.0508 l 0,1.24805 -9.52148,0 0,-0.37305 a 64.660301,63.397614 0 0 0 -19.52149,6.64844 l 0,8.24609 -9.51953,0 0,-2.18164 a 64.660301,63.397614 0 0 0 -7.75586,7.18164 l 2.75586,0 0,9.51953 -9.52148,0 0,-0.81054 a 64.660301,63.397614 0 0 0 -5,9.22656 l 0,6.10547 -2.25196,0 a 64.660301,63.397614 0 0 0 -1.30078,5 l 3.55274,0 0,9.52148 -4.88086,0 a 64.660301,63.397614 0 0 0 -0.20508,4.01563 64.660301,63.397614 0 0 0 0.0352,0.98437 l 5.05078,0 0,9.51953 -4.17969,0 a 64.660301,63.397614 0 0 0 1.11719,5 l 3.0625,0 0,8.98438 a 64.660301,63.397614 0 0 0 5,9.48438 l 0,-3.94727 9.52148,0 0,9.52148 -5.47266,0 a 64.660301,63.397614 0 0 0 4.55469,5 l 0.91797,0 0,0.83789 a 64.660301,63.397614 0 0 0 5,4.29883 l 0,-5.13672 9.51953,0 0,9.52149 -3.07422,0 a 64.660301,63.397614 0 0 0 10.31641,5 l 7.2793,0 0,2.27148 a 64.660301,63.397614 0 0 0 5,1.06446 l 0,-3.33594 9.52148,0 0,4.25586 a 64.660301,63.397614 0 0 0 1.49024,0.0723 64.660301,63.397614 0 0 0 3.50976,-0.12109 l 0,-4.20703 9.52149,0 0,2.95703 a 64.660301,63.397614 0 0 0 5,-1.17773 l 0,-1.7793 5.44335,0 a 64.660301,63.397614 0 0 0 10.17579,-5 l -1.09961,0 0,-9.52149 9.52148,0 0,3.4961 a 64.660301,63.397614 0 0 0 8.38672,-8.4961 l -3.38672,0 0,-9.52148 9.52149,0 0,0.60742 a 64.660301,63.397614 0 0 0 5,-11.42187 l 0,-3.70704 1.01953,0 a 64.660301,63.397614 0 0 0 1.08008,-5 l -2.09961,0 0,-9.51953 3.01562,0 a 64.660301,63.397614 0 0 0 0.0508,-0.98437 64.660301,63.397614 0 0 0 -0.14453,-4.01563 l -2.92187,0 0,-9.52148 1.49218,0 a 64.660301,63.397614 0 0 0 -1.31836,-5 l -0.17382,0 0,-0.51563 a 64.660301,63.397614 0 0 0 -6.48633,-14.00586 l -8.03516,0 0,-9.51953 0.73828,0 a 64.660301,63.397614 0 0 0 -5.73828,-5.53125 l 0,0.53125 -9.52148,0 0,-7.12695 a 64.660301,63.397614 0 0 0 -19.56446,-7.39453 l -9.47656,0 0,-1.12695 a 64.660301,63.397614 0 0 0 -3.50976,-0.17188 z m -25.53321,6.29883 9.52149,0 0,9.52148 -9.52149,0 0,-9.52148 z m 14.52149,0 9.52148,0 0,9.52148 -9.52148,0 0,-9.52148 z m 14.52148,0 9.52149,0 0,9.52148 -9.52149,0 0,-9.52148 z m 14.52149,0 9.51953,0 0,9.52148 -9.51953,0 0,-9.52148 z m -58.08399,14.52148 9.51953,0 0,9.51953 -9.51953,0 0,-9.51953 z m 14.51953,0 9.52149,0 0,9.51953 -9.52149,0 0,-9.51953 z m 14.52149,0 9.52148,0 0,9.51953 -9.52148,0 0,-9.51953 z m 14.52148,0 9.52149,0 0,9.51953 -9.52149,0 0,-9.51953 z m 14.52149,0 9.51953,0 0,9.51953 -9.51953,0 0,-9.51953 z m 14.51953,0 9.52148,0 0,9.51953 -9.52148,0 0,-9.51953 z m -87.125,14.51953 9.52148,0 0,9.52149 -9.52148,0 0,-9.52149 z m 14.52148,0 9.51953,0 0,9.52149 -9.51953,0 0,-9.52149 z m 14.51953,0 9.52149,0 0,9.52149 -9.52149,0 0,-9.52149 z m 14.52149,0 9.52148,0 0,9.52149 -9.52148,0 0,-9.52149 z m 14.52148,0 9.52149,0 0,9.52149 -9.52149,0 0,-9.52149 z m 14.52149,0 9.51953,0 0,9.52149 -9.51953,0 0,-9.52149 z m 14.51953,0 9.52148,0 0,9.52149 -9.52148,0 0,-9.52149 z m 14.52148,0 9.52149,0 0,9.52149 -9.52149,0 0,-9.52149 z m -101.64648,14.52149 9.52148,0 0,9.52148 -9.52148,0 0,-9.52148 z m 14.52148,0 9.51953,0 0,9.52148 -9.51953,0 0,-9.52148 z m 14.51953,0 9.52149,0 0,9.52148 -9.52149,0 0,-9.52148 z m 14.52149,0 9.52148,0 0,9.52148 -9.52148,0 0,-9.52148 z m 14.52148,0 9.52149,0 0,9.52148 -9.52149,0 0,-9.52148 z m 14.52149,0 9.51953,0 0,9.52148 -9.51953,0 0,-9.52148 z m 14.51953,0 9.52148,0 0,9.52148 -9.52148,0 0,-9.52148 z m 14.52148,0 9.52149,0 0,9.52148 -9.52149,0 0,-9.52148 z m -101.64648,14.52148 9.52148,0 0,9.51953 -9.52148,0 0,-9.51953 z m 14.52148,0 9.51953,0 0,9.51953 -9.51953,0 0,-9.51953 z m 14.51953,0 9.52149,0 0,9.51953 -9.52149,0 0,-9.51953 z m 14.52149,0 9.52148,0 0,9.51953 -9.52148,0 0,-9.51953 z m 14.52148,0 9.52149,0 0,9.51953 -9.52149,0 0,-9.51953 z m 14.52149,0 9.51953,0 0,9.51953 -9.51953,0 0,-9.51953 z m 14.51953,0 9.52148,0 0,9.51953 -9.52148,0 0,-9.51953 z m 14.52148,0 9.52149,0 0,9.51953 -9.52149,0 0,-9.51953 z m -101.64648,14.51953 9.52148,0 0,9.52149 -9.52148,0 0,-9.52149 z m 14.52148,0 9.51953,0 0,9.52149 -9.51953,0 0,-9.52149 z m 14.51953,0 9.52149,0 0,9.52149 -9.52149,0 0,-9.52149 z m 14.52149,0 9.52148,0 0,9.52149 -9.52148,0 0,-9.52149 z m 14.52148,0 9.52149,0 0,9.52149 -9.52149,0 0,-9.52149 z m 14.52149,0 9.51953,0 0,9.52149 -9.51953,0 0,-9.52149 z m 14.51953,0 9.52148,0 0,9.52149 -9.52148,0 0,-9.52149 z m 14.52148,0 9.52149,0 0,9.52149 -9.52149,0 0,-9.52149 z m -87.125,14.52149 9.51953,0 0,9.52148 -9.51953,0 0,-9.52148 z m 14.51953,0 9.52149,0 0,9.52148 -9.52149,0 0,-9.52148 z m 14.52149,0 9.52148,0 0,9.52148 -9.52148,0 0,-9.52148 z m 14.52148,0 9.52149,0 0,9.52148 -9.52149,0 0,-9.52148 z m 14.52149,0 9.51953,0 0,9.52148 -9.51953,0 0,-9.52148 z m 14.51953,0 9.52148,0 0,9.52148 -9.52148,0 0,-9.52148 z m -58.08399,14.52148 9.52149,0 0,9.52149 -9.52149,0 0,-9.52149 z m 14.52149,0 9.52148,0 0,9.52149 -9.52148,0 0,-9.52149 z m 14.52148,0 9.52149,0 0,9.52149 -9.52149,0 0,-9.52149 z m 14.52149,0 9.51953,0 0,9.52149 -9.51953,0 0,-9.52149 z"
             style="color:#000000;font-style:normal;font-variant:normal;font-weight:normal;font-stretch:normal;font-size:medium;line-height:normal;font-family:sans-serif;text-indent:0;text-align:start;text-decoration:none;text-decoration-line:none;text-decoration-style:solid;text-decoration-color:#000000;letter-spacing:normal;word-spacing:normal;text-transform:none;direction:ltr;block-progression:tb;writing-mode:lr-tb;baseline-shift:baseline;text-anchor:start;white-space:normal;clip-rule:nonzero;display:inline;overflow:visible;visibility:visible;opacity:1;isolation:auto;mix-blend-mode:normal;color-interpolation:sRGB;color-interpolation-filters:linearRGB;solid-color:#000000;solid-opacity:1;fill:#b2b5ae;fill-opacity:1;fill-rule:evenodd;stroke:none;stroke-width:5;stroke-linecap:butt;stroke-linejoin:miter;stroke-miterlimit:4;stroke-dasharray:none;stroke-dashoffset:0;stroke-opacity:1;color-rendering:auto;image-rendering:auto;shape-rendering:auto;text-rendering:auto;enable-background:accumulate"
             inkscape:connector-curvature="0" />
          <path
             sodipodi:nodetypes="ccccc"
             inkscape:connector-curvature="0"
             id="path4377"
             d="m -701.78572,312.3622 c 2.5,-1.42857 33.97337,-35.13663 46.07143,-44.64285 20.51086,15.89555 44.682,44.49035 60.35715,60 -14.04315,17.35112 -33.36231,34.85207 -46.78571,45.71428 -14.84016,-13.37231 -48.92386,-46.53333 -59.64287,-61.07143 z"
             style="fill:#283a44;fill-opacity:1;fill-rule:evenodd;stroke:none;stroke-width:1px;stroke-linecap:butt;stroke-linejoin:miter;stroke-opacity:1" />
          <path
             sodipodi:nodetypes="ccccc"
             inkscape:connector-curvature="0"
             id="path4379"
             d="m -862.1652,484.65647 c 40.72577,-42.52123 122.43859,-128.22048 163.13964,-169.34848 24.37951,23.37101 42.49229,41.01464 56.06346,56.46394 -68.56305,67.09775 -139.78893,134.25445 -170.08443,163.39217 -19.64351,-19.85491 -27.34484,-25.00296 -49.11867,-50.50763 z"
             style="fill:#283a44;fill-opacity:1;fill-rule:evenodd;stroke:none;stroke-width:1px;stroke-linecap:butt;stroke-linejoin:miter;stroke-opacity:1" />
          <path
             sodipodi:nodetypes="ccccc"
             inkscape:connector-curvature="0"
             id="path4381"
             d="m -916.20836,549.30624 c 4.30389,-4.54235 40.57992,-45.73368 57.83123,-61.61931 19.7355,15.99808 32.40984,28.00214 42.17387,43.6891 -17.22595,17.45473 -48.32634,45.18417 -61.36676,56.56854 -6.65999,-6.58603 -38.63834,-38.63833 -38.63834,-38.63833 z"
             style="fill:#283a44;fill-opacity:1;fill-rule:evenodd;stroke:none;stroke-width:1px;stroke-linecap:butt;stroke-linejoin:miter;stroke-opacity:1" />
          <ellipse
             ry="23.576153"
             rx="23.071077"
             cy="576.07532"
             cx="-904.21277"
             id="path4383"
             style="color:#000000;clip-rule:nonzero;display:inline;overflow:visible;visibility:visible;opacity:1;isolation:auto;mix-blend-mode:normal;color-interpolation:sRGB;color-interpolation-filters:linearRGB;solid-color:#000000;solid-opacity:1;fill:#283a41;fill-opacity:1;fill-rule:nonzero;stroke:none;stroke-width:0.52232498;stroke-linecap:round;stroke-linejoin:round;stroke-miterlimit:4;stroke-dasharray:none;stroke-dashoffset:0;stroke-opacity:1;color-rendering:auto;image-rendering:auto;shape-rendering:auto;text-rendering:auto;enable-background:accumulate" />
          <path
             inkscape:connector-curvature="0"
             id="path4387"
             d="m -681.78572,292.00506 9.82143,-10.35714 61.96429,62.14285 -10.17857,10.71429 z"
             style="fill:#afb4b0;fill-opacity:1;fill-rule:evenodd;stroke:none;stroke-width:1px;stroke-linecap:butt;stroke-linejoin:miter;stroke-opacity:1" />
          <path
             sodipodi:nodetypes="ccccc"
             inkscape:connector-curvature="0"
             id="path4389"
             d="m -646.49763,226.05742 c 3.58659,-3.9751 3.78807,-6.06091 10.22779,-9.84899 1.01015,0.75762 64.25126,62.64108 93.06031,92.42896 l -10.35407,10.85914 c -28.92629,-29.89382 -47.69363,-47.01293 -92.93403,-93.43911 z"
             style="fill:#dfe0db;fill-opacity:1;fill-rule:evenodd;stroke:none;stroke-width:1px;stroke-linecap:butt;stroke-linejoin:miter;stroke-opacity:1" />
          <path
             inkscape:connector-curvature="0"
             id="path4385"
             d="m -877.66869,542.8948 22.97738,-23.37992 7.35995,7.30623 -23.15691,23.74522 z"
             style="fill:#aeb5b1;fill-opacity:1;fill-rule:evenodd;stroke:none;stroke-width:1.01402795px;stroke-linecap:butt;stroke-linejoin:miter;stroke-opacity:1" />
        </g>
      </g>
      <path
         inkscape:connector-curvature="0"
         id="path4255-3"
         d="m 448.18945,197.74358 -2.99218,0.19033 1.42968,17.87971 2.99219,-0.19032 -1.42969,-17.87972 z"
         style="color:#000000;font-style:normal;font-variant:normal;font-weight:normal;font-stretch:normal;font-size:medium;line-height:normal;font-family:sans-serif;text-indent:0;text-align:start;text-decoration:none;text-decoration-line:none;text-decoration-style:solid;text-decoration-color:#000000;letter-spacing:normal;word-spacing:normal;text-transform:none;direction:ltr;block-progression:tb;writing-mode:lr-tb;baseline-shift:baseline;text-anchor:start;white-space:normal;clip-rule:nonzero;display:inline;overflow:visible;visibility:visible;opacity:1;isolation:auto;mix-blend-mode:normal;color-interpolation:sRGB;color-interpolation-filters:linearRGB;solid-color:#000000;solid-opacity:1;fill:#000000;fill-opacity:1;fill-rule:evenodd;stroke:none;stroke-width:3.00000024;stroke-linecap:butt;stroke-linejoin:miter;stroke-miterlimit:4;stroke-dasharray:none;stroke-dashoffset:0;stroke-opacity:1;color-rendering:auto;image-rendering:auto;shape-rendering:auto;text-rendering:auto;enable-background:accumulate" />
      <g
         inkscape:label="Capa 1"
         id="layer1-5"
         transform="matrix(0.05257601,0,0,0.05257601,462.9223,207.40679)">
        <rect
           style="opacity:1;fill:#0000ff;fill-opacity:1;stroke:none;stroke-width:5;stroke-linejoin:round;stroke-miterlimit:4;stroke-dasharray:none;stroke-dashoffset:0;stroke-opacity:1"
           id="rect4167"
           width="117.14286"
           height="75.714287"
           x="-302.61206"
           y="95.429611" />
        <ellipse
           style="color:#000000;clip-rule:nonzero;display:inline;overflow:visible;visibility:visible;opacity:1;isolation:auto;mix-blend-mode:normal;color-interpolation:sRGB;color-interpolation-filters:linearRGB;solid-color:#000000;solid-opacity:1;fill:#465e60;fill-opacity:1;fill-rule:nonzero;stroke:#71716f;stroke-width:0.44999954;stroke-linecap:round;stroke-linejoin:round;stroke-miterlimit:4;stroke-dasharray:none;stroke-dashoffset:0;stroke-opacity:1;color-rendering:auto;image-rendering:auto;shape-rendering:auto;text-rendering:auto;enable-background:accumulate"
           id="path4165"
           cx="-556.59399"
           cy="380.61075"
           rx="65.659912"
           ry="64.649765" />
        <rect
           style="opacity:1;fill:#d9d8dd;fill-opacity:1;stroke:none;stroke-width:10;stroke-linejoin:round;stroke-miterlimit:4;stroke-dasharray:none;stroke-dashoffset:0;stroke-opacity:1"
           id="rect4147"
           width="781.42859"
           height="395.71429"
           x="-945.46918"
           y="138.28676" />
        <rect
           style="opacity:1;fill:#333333;fill-opacity:1;stroke:none;stroke-width:10;stroke-linejoin:round;stroke-miterlimit:4;stroke-dasharray:none;stroke-dashoffset:0;stroke-opacity:1"
           id="rect4149"
           width="784.28571"
           height="248.57143"
           x="-948.32629"
           y="206.85817" />
        <path
           style="fill:#d9d8dd;fill-opacity:1;fill-rule:evenodd;stroke:none;stroke-width:1px;stroke-linecap:butt;stroke-linejoin:miter;stroke-opacity:1"
           d="m -774.04061,138.28675 62.2654,-103.867285 314.87746,-0.41842 64.28571,104.285705 z"
           id="path4151"
           inkscape:connector-curvature="0"
           sodipodi:nodetypes="ccccc" />
        <rect
           style="opacity:1;fill:#7fb0d0;fill-opacity:1;stroke:#000000;stroke-width:5;stroke-linejoin:round;stroke-miterlimit:4;stroke-dasharray:none;stroke-dashoffset:0;stroke-opacity:1"
           id="rect4153"
           width="292.94424"
           height="46.972092"
           x="-701.5509"
           y="80.595459" />
        <rect
           style="opacity:1;fill:#ff0000;fill-opacity:1;stroke:none;stroke-width:5;stroke-linejoin:round;stroke-miterlimit:4;stroke-dasharray:none;stroke-dashoffset:0;stroke-opacity:1"
           id="rect4155"
           width="57.073627"
           height="20.960665"
           x="-937.92664"
           y="117.97108" />
        <rect
           style="opacity:1;fill:#d9d8dd;fill-opacity:1;stroke:none;stroke-width:5;stroke-linejoin:round;stroke-miterlimit:4;stroke-dasharray:none;stroke-dashoffset:0;stroke-opacity:1"
           id="rect4157"
           width="55.558392"
           height="45.961941"
           x="-834.89105"
           y="99.283279" />
        <ellipse
           style="color:#000000;clip-rule:nonzero;display:inline;overflow:visible;visibility:visible;opacity:1;isolation:auto;mix-blend-mode:normal;color-interpolation:sRGB;color-interpolation-filters:linearRGB;solid-color:#000000;solid-opacity:1;fill:#dadadc;fill-opacity:1;fill-rule:nonzero;stroke:#71716f;stroke-width:0.42788956;stroke-linecap:round;stroke-linejoin:round;stroke-miterlimit:4;stroke-dasharray:none;stroke-dashoffset:0;stroke-opacity:1;color-rendering:auto;image-rendering:auto;shape-rendering:auto;text-rendering:auto;enable-background:accumulate"
           id="path4159"
           cx="-556.18341"
           cy="383.28677"
           rx="239.29678"
           ry="240.72534" />
        <ellipse
           style="color:#000000;clip-rule:nonzero;display:inline;overflow:visible;visibility:visible;opacity:1;isolation:auto;mix-blend-mode:normal;color-interpolation:sRGB;color-interpolation-filters:linearRGB;solid-color:#000000;solid-opacity:1;fill:#333333;fill-opacity:1;fill-rule:nonzero;stroke:#71716f;stroke-width:0.50448215;stroke-linecap:round;stroke-linejoin:round;stroke-miterlimit:4;stroke-dasharray:none;stroke-dashoffset:0;stroke-opacity:1;color-rendering:auto;image-rendering:auto;shape-rendering:auto;text-rendering:auto;enable-background:accumulate"
           id="path4161"
           cx="-556.08893"
           cy="382.63104"
           rx="228.77231"
           ry="229.27737" />
        <circle
           style="color:#000000;clip-rule:nonzero;display:inline;overflow:visible;visibility:visible;opacity:1;isolation:auto;mix-blend-mode:normal;color-interpolation:sRGB;color-interpolation-filters:linearRGB;solid-color:#000000;solid-opacity:1;fill:#6fbec5;fill-opacity:1;fill-rule:nonzero;stroke:#71716f;stroke-width:0.44771677;stroke-linecap:round;stroke-linejoin:round;stroke-miterlimit:4;stroke-dasharray:none;stroke-dashoffset:0;stroke-opacity:1;color-rendering:auto;image-rendering:auto;shape-rendering:auto;text-rendering:auto;enable-background:accumulate"
           id="path4163"
           cx="-556.08899"
           cy="384.14633"
           r="147.98849" />
      </g>
      <g
         transform="matrix(1.25,0,0,-1.25,406.21642,265.07443)"
         id="g144">
        <path
           inkscape:connector-curvature="0"
           id="path146"
           style="fill:#fcdabe;fill-opacity:1;fill-rule:evenodd;stroke:none"
           d="m 0,0 -2.296,1.442 -4.246,-7.548 2.295,-1.442 C 2.812,-11.703 8.549,-5.073 0,0" />
      </g>
      <path
         inkscape:connector-curvature="0"
         id="path4255"
         d="m 417.40458,197.56502 -2.99219,0.17903 1.42774,16.81957 2.99218,-0.17904 -1.42773,-16.81956 z"
         style="color:#000000;font-style:normal;font-variant:normal;font-weight:normal;font-stretch:normal;font-size:medium;line-height:normal;font-family:sans-serif;text-indent:0;text-align:start;text-decoration:none;text-decoration-line:none;text-decoration-style:solid;text-decoration-color:#000000;letter-spacing:normal;word-spacing:normal;text-transform:none;direction:ltr;block-progression:tb;writing-mode:lr-tb;baseline-shift:baseline;text-anchor:start;white-space:normal;clip-rule:nonzero;display:inline;overflow:visible;visibility:visible;opacity:1;isolation:auto;mix-blend-mode:normal;color-interpolation:sRGB;color-interpolation-filters:linearRGB;solid-color:#000000;solid-opacity:1;fill:#000000;fill-opacity:1;fill-rule:evenodd;stroke:none;stroke-width:3.00000024;stroke-linecap:butt;stroke-linejoin:miter;stroke-miterlimit:4;stroke-dasharray:none;stroke-dashoffset:0;stroke-opacity:1;color-rendering:auto;image-rendering:auto;shape-rendering:auto;text-rendering:auto;enable-background:accumulate" />
    </g>
  </g>
</svg>
