<?xml version="1.0" encoding="UTF-8" standalone="no"?>
<!-- Created with Inkscape (http://www.inkscape.org/) -->

<svg
   xmlns:dc="http://purl.org/dc/elements/1.1/"
   xmlns:cc="http://creativecommons.org/ns#"
   xmlns:rdf="http://www.w3.org/1999/02/22-rdf-syntax-ns#"
   xmlns:svg="http://www.w3.org/2000/svg"
   xmlns="http://www.w3.org/2000/svg"
   xmlns:sodipodi="http://sodipodi.sourceforge.net/DTD/sodipodi-0.dtd"
   xmlns:inkscape="http://www.inkscape.org/namespaces/inkscape"
   width="77.511703mm"
   height="99.013321mm"
   viewBox="0 0 274.64778 350.8346"
   id="svg10614"
   version="1.1"
   inkscape:version="0.91 r13725"
   sodipodi:docname="jose.svg">
  <defs
     id="defs10616" />
  <sodipodi:namedview
     id="base"
     pagecolor="#ffffff"
     bordercolor="#666666"
     borderopacity="1.0"
     inkscape:pageopacity="0.0"
     inkscape:pageshadow="2"
     inkscape:zoom="0.49497475"
     inkscape:cx="51.999184"
     inkscape:cy="23.270283"
     inkscape:document-units="px"
     inkscape:current-layer="layer1"
     showgrid="false"
     fit-margin-top="0"
     fit-margin-left="0"
     fit-margin-right="0"
     fit-margin-bottom="0"
     inkscape:window-width="1366"
     inkscape:window-height="710"
     inkscape:window-x="0"
     inkscape:window-y="25"
     inkscape:window-maximized="1" />
  <metadata
     id="metadata10619">
    <rdf:RDF>
      <cc:Work
         rdf:about="">
        <dc:format>image/svg+xml</dc:format>
        <dc:type
           rdf:resource="http://purl.org/dc/dcmitype/StillImage" />
        <dc:title></dc:title>
      </cc:Work>
    </rdf:RDF>
  </metadata>
  <g
     inkscape:label="Capa 1"
     inkscape:groupmode="layer"
     id="layer1"
     transform="translate(-466.05321,-239.33028)">
    <g
       id="g11298">
      <g
         transform="matrix(1.25,0,0,-1.25,594.26666,254.26708)"
         id="g324">
        <path
           inkscape:connector-curvature="0"
           id="path326"
           style="fill:#aa7764;fill-opacity:1;fill-rule:evenodd;stroke:none"
           d="M 0,0 C -59.267,0 -44.986,-78.557 0,-78.557 44.987,-78.557 59.266,0 0,0" />
      </g>
      <g
         transform="matrix(1.25,0,0,-1.25,570.62026,553.72883)"
         id="g328">
        <path
           inkscape:connector-curvature="0"
           id="path330"
           style="fill:#e3687f;fill-opacity:1;fill-rule:evenodd;stroke:none"
           d="m 0,0 c -4.135,-6.159 -9.645,-9.702 -11.021,-14.145 -2.222,-7.175 5.778,-7.182 10.484,-5.832 4.409,1.266 6.832,4.226 9.38,4.961 6.572,1.896 6.74,5.785 4.082,15.016 C 10.266,9.231 3.328,5.763 0,0" />
      </g>
      <g
         transform="matrix(1.25,0,0,-1.25,617.54626,553.72883)"
         id="g332">
        <path
           inkscape:connector-curvature="0"
           id="path334"
           style="fill:#e3687f;fill-opacity:1;fill-rule:evenodd;stroke:none"
           d="m 0,0 c 4.135,-6.159 9.643,-9.702 11.019,-14.145 2.265,-7.311 -6.168,-7.089 -10.747,-5.735 -4.337,1.283 -6.588,4.135 -9.115,4.864 -6.572,1.896 -6.742,5.785 -4.083,15.016 2.659,9.231 9.598,5.763 12.926,0" />
      </g>
      <g
         transform="matrix(1.25,0,0,-1.25,565.19616,454.29483)"
         id="g336">
        <path
           inkscape:connector-curvature="0"
           id="path338"
           style="fill:#869ab5;fill-opacity:1;fill-rule:evenodd;stroke:none"
           d="m 0,0 46.511,0 0,-84.693 -19.318,0 0,61.504 c 0,5.277 -7.873,5.31 -7.873,0 l 0,-61.504 -19.32,0 L 0,0 Z" />
      </g>
      <g
         transform="matrix(1.25,0,0,-1.25,578.80446,384.03083)"
         id="g340">
        <path
           inkscape:connector-curvature="0"
           id="path342"
           style="fill:#fcdabe;fill-opacity:1;fill-rule:evenodd;stroke:none"
           d="m 0,0 -11.314,-35.615 c -1.441,-4.536 -6.333,-7.069 -10.869,-5.627 -4.538,1.44 -7.07,6.331 -5.629,10.868 L -16.498,5.24 C -13.211,15.587 3.117,9.812 0,0" />
      </g>
      <g
         transform="matrix(1.25,0,0,-1.25,558.05896,462.60758)"
         id="g344">
        <path
           inkscape:connector-curvature="0"
           id="path346"
           style="fill:#fcdabe;fill-opacity:1;fill-rule:evenodd;stroke:none"
           d="M 0,0 0,0 C 1.149,-0.141 1.972,-1.197 1.831,-2.346 L 1.204,-7.413 C 1.063,-8.561 0.007,-9.385 -1.14,-9.243 l -0.002,0 c -1.147,0.142 -1.971,1.197 -1.828,2.346 l 0.624,5.067 C -2.204,-0.682 -1.149,0.142 0,0" />
      </g>
      <g
         transform="matrix(1.25,0,0,-1.25,560.34706,465.53983)"
         id="g348">
        <path
           inkscape:connector-curvature="0"
           id="path350"
           style="fill:#fcdabe;fill-opacity:1;fill-rule:evenodd;stroke:none"
           d="M 0,0 0.304,2.812 -16.53,4.785 -16.834,1.974 C -18.191,-10.448 -1.551,-14.37 0,0" />
      </g>
      <g
         transform="matrix(1.25,0,0,-1.25,560.72726,462.02495)"
         id="g352">
        <path
           inkscape:connector-curvature="0"
           id="path354"
           style="fill:#fcdabe;fill-opacity:1;fill-rule:evenodd;stroke:none"
           d="m 0,0 3.262,26.848 c 0.573,4.724 -2.943,9.023 -7.676,9.533 -4.733,0.511 -9.024,-2.944 -9.534,-7.675 L -16.834,1.973 0,0 Z" />
      </g>
      <g
         transform="matrix(1.25,0,0,-1.25,609.95946,384.03083)"
         id="g356">
        <path
           inkscape:connector-curvature="0"
           id="path358"
           style="fill:#fcdabe;fill-opacity:1;fill-rule:evenodd;stroke:none"
           d="m 0,0 11.312,-35.615 c 1.443,-4.536 6.333,-7.069 10.871,-5.627 4.536,1.44 7.068,6.331 5.627,10.868 L 16.496,5.24 C 13.209,15.587 -3.117,9.812 0,0" />
      </g>
      <g
         transform="matrix(1.25,0,0,-1.25,630.70266,462.60758)"
         id="g360">
        <path
           inkscape:connector-curvature="0"
           id="path362"
           style="fill:#fcdabe;fill-opacity:1;fill-rule:evenodd;stroke:none"
           d="m 0,0 0,0 c -1.149,-0.141 -1.972,-1.197 -1.83,-2.346 l 0.626,-5.067 c 0.141,-1.148 1.197,-1.972 2.346,-1.83 1.148,0.142 1.972,1.197 1.83,2.346 L 2.346,-1.83 C 2.205,-0.682 1.149,0.142 0,0" />
      </g>
      <g
         transform="matrix(1.25,0,0,-1.25,628.41456,465.53983)"
         id="g364">
        <path
           inkscape:connector-curvature="0"
           id="path366"
           style="fill:#fcdabe;fill-opacity:1;fill-rule:evenodd;stroke:none"
           d="M 0,0 -0.302,2.812 16.53,4.785 16.834,1.973 C 18.191,-10.448 1.553,-14.37 0,0" />
      </g>
      <g
         transform="matrix(1.25,0,0,-1.25,628.03666,462.02495)"
         id="g368">
        <path
           inkscape:connector-curvature="0"
           id="path370"
           style="fill:#fcdabe;fill-opacity:1;fill-rule:evenodd;stroke:none"
           d="m 0,0 -3.262,26.848 c -0.574,4.724 2.942,9.023 7.674,9.533 4.735,0.511 9.024,-2.944 9.536,-7.676 L 16.833,1.973 0,0 Z" />
      </g>
      <path
         inkscape:connector-curvature="0"
         id="path372"
         style="fill:#d1e2ec;fill-opacity:1;fill-rule:evenodd;stroke:none"
         d="m 565.19891,370.58433 58.13625,0 0,91.66375 -58.13625,0 0,-91.66375 z" />
      <g
         transform="matrix(1.25,0,0,-1.25,594.26666,327.37395)"
         id="g374">
        <path
           inkscape:connector-curvature="0"
           id="path376"
           style="fill:#fcdabe;fill-opacity:1;fill-rule:evenodd;stroke:none"
           d="m 0,0 0,0 c 5.776,0 10.502,-4.727 10.502,-10.504 l 0,-24.064 c 0,-5.777 -4.726,-10.503 -10.502,-10.503 -5.778,0 -10.504,4.726 -10.504,10.503 l 0,24.064 C -10.504,-4.727 -5.778,0 0,0" />
      </g>
      <g
         transform="matrix(1.25,0,0,-1.25,607.39406,360.79483)"
         id="g378">
        <path
           inkscape:connector-curvature="0"
           id="path380"
           style="fill:#e0ba9b;fill-opacity:1;fill-rule:evenodd;stroke:none"
           d="M 0,0 0,0 C 0,-9.021 -21.005,-9.021 -21.005,0 -21.005,9.021 0,9.021 0,0" />
      </g>
      <g
         transform="matrix(1.25,0,0,-1.25,594.26666,257.3917)"
         id="g382">
        <path
           inkscape:connector-curvature="0"
           id="path384"
           style="fill:#fcdabe;fill-opacity:1;fill-rule:evenodd;stroke:none"
           d="M 0,0 C -59.183,0 -44.924,-85.899 0,-85.899 44.922,-85.899 59.182,0 0,0" />
      </g>
      <g
         transform="matrix(1.25,0,0,-1.25,542.86926,304.6702)"
         id="g386">
        <path
           inkscape:connector-curvature="0"
           id="path388"
           style="fill:#fcdabe;fill-opacity:1;fill-rule:evenodd;stroke:none"
           d="M 0,0 C 2.99,0.763 6.621,-3.349 8.111,-9.185 9.6,-15.02 8.387,-20.369 5.397,-21.132 c -2.988,-0.764 -6.621,3.348 -8.11,9.183 C -4.203,-6.113 -2.988,-0.763 0,0" />
      </g>
      <g
         transform="matrix(1.25,0,0,-1.25,645.70216,304.6702)"
         id="g390">
        <path
           inkscape:connector-curvature="0"
           id="path392"
           style="fill:#fcdabe;fill-opacity:1;fill-rule:evenodd;stroke:none"
           d="m 0,0 c -2.99,0.763 -6.621,-3.349 -8.111,-9.185 -1.489,-5.835 -0.276,-11.184 2.714,-11.947 2.988,-0.764 6.621,3.348 8.11,9.183 C 4.203,-6.113 2.988,-0.763 0,0" />
      </g>
      <g
         transform="matrix(1.25,0,0,-1.25,609.61276,321.43533)"
         id="g394">
        <path
           inkscape:connector-curvature="0"
           id="path396"
           style="fill:#425156;fill-opacity:1;fill-rule:evenodd;stroke:none"
           d="M 0,0 C 1.571,0 2.85,2.347 2.85,5.223 2.85,8.1 1.571,10.447 0,10.447 -1.569,10.447 -2.85,8.1 -2.85,5.223 -2.85,2.347 -1.569,0 0,0" />
      </g>
      <g
         transform="matrix(1.25,0,0,-1.25,578.91856,321.43533)"
         id="g398">
        <path
           inkscape:connector-curvature="0"
           id="path400"
           style="fill:#425156;fill-opacity:1;fill-rule:evenodd;stroke:none"
           d="M 0,0 C 1.569,0 2.85,2.347 2.85,5.223 2.85,8.1 1.569,10.447 0,10.447 -1.569,10.447 -2.851,8.1 -2.851,5.223 -2.851,2.347 -1.569,0 0,0" />
      </g>
      <g
         transform="matrix(1.25,0,0,-1.25,601.47346,328.81996)"
         id="g402">
        <path
           inkscape:connector-curvature="0"
           id="path404"
           style="fill:#e0ba9b;fill-opacity:1;fill-rule:evenodd;stroke:none"
           d="M 0,0 C -2.213,-5.642 -9.319,-5.543 -11.531,0 -8.292,-3.082 -3.416,-3.225 0,0" />
      </g>
      <g
         transform="matrix(1.25,0,0,-1.25,576.71966,405.31645)"
         id="g406">
        <path
           inkscape:connector-curvature="0"
           id="path408"
           style="fill:#9ab5c4;fill-opacity:1;fill-rule:nonzero;stroke:none"
           d="m 0,0 c 1.596,2.576 3.691,4.693 6.114,6.151 2.378,1.432 5.07,2.239 7.924,2.239 2.852,0 5.543,-0.807 7.921,-2.239 C 24.384,4.693 26.477,2.576 28.073,0 l -2.982,-1.841 c -1.296,2.09 -2.99,3.806 -4.944,4.982 -1.84,1.107 -3.916,1.731 -6.109,1.731 C 11.842,4.872 9.766,4.248 7.929,3.141 5.973,1.965 4.278,0.249 2.983,-1.841 L 0,0 Z m 28.073,-23.899 c -1.596,-2.575 -3.689,-4.692 -6.114,-6.151 -2.378,-1.431 -5.069,-2.238 -7.921,-2.238 -2.854,0 -5.546,0.807 -7.924,2.238 -2.423,1.459 -4.518,3.576 -6.114,6.151 l 2.983,1.842 c 1.295,-2.09 2.99,-3.806 4.946,-4.983 1.837,-1.107 3.913,-1.73 6.109,-1.73 2.193,0 4.269,0.623 6.109,1.73 1.954,1.177 3.648,2.893 4.944,4.983 l 2.982,-1.842 z" />
      </g>
      <path
         inkscape:connector-curvature="0"
         id="path410"
         style="fill:#9ab5c4;fill-opacity:1;fill-rule:evenodd;stroke:none"
         d="m 577.70391,415.06183 33.12375,0 0,-4.0575 -33.12375,0 0,4.0575 z" />
      <path
         inkscape:connector-curvature="0"
         id="path412"
         style="fill:#9ab5c4;fill-opacity:1;fill-rule:evenodd;stroke:none"
         d="m 577.70391,423.39933 33.12375,0 0,-6.2925 -33.12375,0 0,6.2925 z" />
      <path
         inkscape:connector-curvature="0"
         id="path414"
         style="fill:#9ab5c4;fill-opacity:1;fill-rule:evenodd;stroke:none"
         d="m 577.70391,429.50058 33.12375,0 0,-4.05625 -33.12375,0 0,4.05625 z" />
      <g
         transform="matrix(1.25,0,0,-1.25,615.57816,337.13933)"
         id="g416">
        <path
           inkscape:connector-curvature="0"
           id="path418"
           style="fill:#bf9470;fill-opacity:1;fill-rule:evenodd;stroke:none"
           d="M 0,0 C -6.197,-3.956 -20.866,-6.429 -29.263,-4.805 -19.289,-3.86 -9.471,-2.451 0,0" />
      </g>
      <g
         transform="matrix(1.25,0,0,-1.25,604.84856,343.25458)"
         id="g420">
        <path
           inkscape:connector-curvature="0"
           id="path422"
           style="fill:#e0ba9b;fill-opacity:1;fill-rule:evenodd;stroke:none"
           d="M 0,0 C -2.213,-3.72 -10.666,-4.495 -13.712,-1.345 -9.602,-2.566 -3.792,-2.003 0,0" />
      </g>
      <g
         transform="matrix(1.25,0,0,-1.25,553.38176,318.7032)"
         id="g424">
        <path
           inkscape:connector-curvature="0"
           id="path426"
           style="fill:#c47816;fill-opacity:1;fill-rule:evenodd;stroke:none"
           d="m 0,0 c 0.65,-6.285 -0.879,-4.506 -3.135,0.422 -2.256,4.928 -3.903,9.845 -3.507,14.711 3.806,46.989 73.672,47.566 78.67,0 C 72.537,10.277 70.777,5.35 68.52,0.422 66.264,-4.506 64.736,-6.284 65.385,0 c 0.788,7.629 -0.388,18.609 -4.423,25.072 -7.143,11.436 -16.464,4.799 -29.1,4.799 -12.637,0 -18.56,5.157 -26.811,-5.398 C 0.05,18.075 -0.841,8.146 0,0" />
      </g>
      <g
         transform="matrix(1.25,0,0,-1.25,545.17096,298.75183)"
         id="g428">
        <path
           inkscape:connector-curvature="0"
           id="path430"
           style="fill:#c47816;fill-opacity:1;fill-rule:evenodd;stroke:none"
           d="m 0,0 c -2.301,28.115 12.08,44.451 13.891,35.766 1.812,-8.685 5.302,-2.793 7.075,3.186 1.772,5.978 3.248,7.901 6.215,1.213 2.966,-6.688 5.38,-3.804 8.216,2.576 2.842,6.395 4.916,6.395 7.759,0 2.834,-6.38 4.64,-9.72 7.607,-3.032 2.968,6.688 4.899,5.374 6.67,-0.605 1.774,-5.979 5.182,-12.49 6.995,-3.805 C 66.239,43.984 80.853,28.115 78.551,0 68.375,29.494 10.176,29.494 0,0" />
      </g>
      <g
         transform="matrix(1.25,0,0,-1.25,603.38796,303.48695)"
         id="g432">
        <path
           inkscape:connector-curvature="0"
           id="path434"
           style="fill:#c47816;fill-opacity:1;fill-rule:evenodd;stroke:none"
           d="M 0,0 C 2.042,2.667 6.814,2.735 9.772,0.973 11.253,0.09 10.332,-0.3 9.369,0.164 6.261,1.663 3.165,0.779 0.966,-1.228 -0.2,-2.293 -1.133,-1.482 0,0" />
      </g>
      <g
         transform="matrix(1.25,0,0,-1.25,583.70266,303.48695)"
         id="g436">
        <path
           inkscape:connector-curvature="0"
           id="path438"
           style="fill:#c47816;fill-opacity:1;fill-rule:evenodd;stroke:none"
           d="M 0,0 C -2.042,2.667 -6.814,2.735 -9.772,0.973 -11.253,0.09 -10.332,-0.3 -9.369,0.164 -6.261,1.663 -3.165,0.779 -0.966,-1.228 0.2,-2.293 1.133,-1.482 0,0" />
      </g>
      <g
         transform="matrix(1.25,0,0,-1.25,557.52426,569.62508)"
         id="g440">
        <path
           inkscape:connector-curvature="0"
           id="path442"
           style="fill:#ff94a8;fill-opacity:1;fill-rule:evenodd;stroke:none"
           d="m 0,0 c -0.242,-0.468 -0.442,-0.943 -0.592,-1.428 -2.23,-7.199 5.57,-7.191 10.23,-6.069 4.879,1.173 6.955,4.426 9.633,5.198 3.526,1.017 5.208,2.608 5.599,5.287 C 21.131,0.08 15.473,-2.305 9.473,-4.277 6.921,-1.451 3.232,-0.045 0,0" />
      </g>
      <g
         transform="matrix(1.25,0,0,-1.25,560.75196,565.83171)"
         id="g444">
        <path
           inkscape:connector-curvature="0"
           id="path446"
           style="fill:#ff94a8;fill-opacity:1;fill-rule:nonzero;stroke:none"
           d="m 0,0 c -0.243,-0.179 -0.587,-0.126 -0.766,0.118 -0.179,0.244 -0.125,0.588 0.118,0.767 0.43,0.314 1.099,0.594 1.908,0.805 L 1.247,1.689 C 1.088,1.675 0.938,1.73 0.828,1.831 0.773,1.866 0.721,1.913 0.678,1.97 0.499,2.214 0.553,2.558 0.796,2.737 1.331,3.128 2.319,3.539 3.511,3.856 3.425,3.853 3.337,3.846 3.248,3.838 2.947,3.811 2.68,4.033 2.654,4.334 2.627,4.635 2.849,4.902 3.149,4.929 4.01,5.008 4.763,4.921 5.425,4.719 l 0,-1.582 C 4.611,3.014 3.84,2.834 3.181,2.629 3.65,2.504 4.078,2.322 4.468,2.098 4.785,2.101 5.107,2.094 5.425,2.074 l 0,-2.239 C 5.198,0.111 4.946,0.377 4.667,0.616 4.509,0.752 4.341,0.88 4.164,0.997 2.357,0.939 0.721,0.528 0,0 M 5.425,4.719 C 5.749,4.621 6.05,4.495 6.333,4.348 L 6.415,4.355 C 8.215,4.499 10.074,4.326 11.436,3.574 11.701,3.428 11.797,3.095 11.652,2.829 11.506,2.564 11.173,2.467 10.908,2.613 10.053,3.083 8.931,3.283 7.75,3.301 8.496,2.568 9.029,1.714 9.448,0.997 9.646,0.831 9.705,0.544 9.578,0.31 9.432,0.045 9.099,-0.053 8.832,0.093 7.998,0.554 6.977,0.818 5.919,0.933 6.624,0.184 7.132,-0.658 7.531,-1.344 7.684,-1.606 7.594,-1.941 7.331,-2.093 7.07,-2.246 6.733,-2.156 6.581,-1.894 6.277,-1.369 5.903,-0.743 5.425,-0.165 l 0,2.239 C 6.189,2.027 6.953,1.914 7.673,1.72 7.379,2.11 7.045,2.489 6.653,2.816 6.479,2.962 6.291,3.099 6.091,3.222 5.867,3.198 5.645,3.169 5.425,3.137 l 0,1.582 z" />
      </g>
      <g
         transform="matrix(1.25,0,0,-1.25,630.60426,569.62508)"
         id="g448">
        <path
           inkscape:connector-curvature="0"
           id="path450"
           style="fill:#ff94a8;fill-opacity:1;fill-rule:evenodd;stroke:none"
           d="m 0,0 c 0.241,-0.468 0.442,-0.943 0.592,-1.428 2.23,-7.199 -5.397,-7.105 -10.058,-5.984 -4.879,1.174 -7.127,4.341 -9.804,5.113 -3.525,1.017 -5.209,2.608 -5.6,5.287 3.739,-2.908 9.397,-5.293 15.397,-7.265 C -6.921,-1.451 -3.232,-0.045 0,0" />
      </g>
      <g
         transform="matrix(1.25,0,0,-1.25,620.59276,559.93233)"
         id="g452">
        <path
           inkscape:connector-curvature="0"
           id="path454"
           style="fill:#ff94a8;fill-opacity:1;fill-rule:nonzero;stroke:none"
           d="m 0,0 c -0.322,-0.098 -0.623,-0.225 -0.905,-0.371 l -0.083,0.007 c -1.8,0.143 -3.657,-0.03 -5.021,-0.781 -0.265,-0.146 -0.361,-0.48 -0.216,-0.745 0.147,-0.265 0.479,-0.363 0.746,-0.217 0.854,0.471 1.975,0.67 3.156,0.689 -0.746,-0.734 -1.279,-1.587 -1.698,-2.305 -0.198,-0.165 -0.257,-0.452 -0.129,-0.687 0.145,-0.265 0.48,-0.362 0.745,-0.216 0.834,0.46 1.855,0.724 2.913,0.84 -0.705,-0.749 -1.213,-1.592 -1.612,-2.277 -0.151,-0.262 -0.063,-0.598 0.2,-0.75 0.261,-0.152 0.598,-0.063 0.75,0.199 0.304,0.526 0.678,1.15 1.154,1.729 l 0,2.239 c -0.762,-0.046 -1.526,-0.16 -2.244,-0.353 0.292,0.389 0.628,0.769 1.018,1.096 0.176,0.146 0.362,0.283 0.562,0.405 C -0.44,-1.522 -0.218,-1.551 0,-1.583 L 0,0 Z m 5.427,-4.719 c 0.244,-0.179 0.587,-0.127 0.766,0.118 0.179,0.244 0.125,0.587 -0.118,0.766 -0.429,0.314 -1.099,0.594 -1.908,0.806 L 4.18,-3.03 c 0.159,-0.015 0.31,0.041 0.419,0.141 0.057,0.036 0.107,0.082 0.15,0.14 0.179,0.244 0.125,0.587 -0.118,0.766 -0.533,0.391 -1.523,0.803 -2.715,1.12 0.086,-0.004 0.174,-0.01 0.263,-0.018 0.301,-0.027 0.568,0.195 0.596,0.495 C 2.802,-0.084 2.58,0.182 2.278,0.209 1.417,0.289 0.664,0.201 0,0 L 0,-1.583 C 0.816,-1.705 1.587,-1.885 2.247,-2.091 1.777,-2.215 1.349,-2.398 0.959,-2.621 0.642,-2.619 0.32,-2.626 0,-2.646 l 0,-2.239 c 0.229,0.276 0.481,0.542 0.76,0.782 0.158,0.135 0.326,0.263 0.503,0.38 1.808,-0.057 3.443,-0.469 4.164,-0.996" />
      </g>
    </g>
    <g
       transform="matrix(0.19869388,0,0,0.19869388,724.87974,363.69259)"
       id="layer1-6"
       inkscape:label="Capa 1">
      <g
         id="g4391">
        <ellipse
           style="color:#000000;clip-rule:nonzero;display:inline;overflow:visible;visibility:visible;opacity:1;isolation:auto;mix-blend-mode:normal;color-interpolation:sRGB;color-interpolation-filters:linearRGB;solid-color:#000000;solid-opacity:1;fill:#798486;fill-opacity:1;fill-rule:nonzero;stroke:#71716f;stroke-width:0.42891484;stroke-linecap:round;stroke-linejoin:round;stroke-miterlimit:4;stroke-dasharray:none;stroke-dashoffset:0;stroke-opacity:1;color-rendering:auto;image-rendering:auto;shape-rendering:auto;text-rendering:auto;enable-background:accumulate"
           id="path4147"
           cx="-592.95959"
           cy="264.94827"
           rx="64.660301"
           ry="63.397614" />
        <path
           inkscape:connector-curvature="0"
           style="color:#000000;font-style:normal;font-variant:normal;font-weight:normal;font-stretch:normal;font-size:medium;line-height:normal;font-family:sans-serif;text-indent:0;text-align:start;text-decoration:none;text-decoration-line:none;text-decoration-style:solid;text-decoration-color:#000000;letter-spacing:normal;word-spacing:normal;text-transform:none;direction:ltr;block-progression:tb;writing-mode:lr-tb;baseline-shift:baseline;text-anchor:start;white-space:normal;clip-rule:nonzero;display:inline;overflow:visible;visibility:visible;opacity:1;isolation:auto;mix-blend-mode:normal;color-interpolation:sRGB;color-interpolation-filters:linearRGB;solid-color:#000000;solid-opacity:1;fill:#b2b5ae;fill-opacity:1;fill-rule:evenodd;stroke:none;stroke-width:5;stroke-linecap:butt;stroke-linejoin:miter;stroke-miterlimit:4;stroke-dasharray:none;stroke-dashoffset:0;stroke-opacity:1;color-rendering:auto;image-rendering:auto;shape-rendering:auto;text-rendering:auto;enable-background:accumulate"
           d="m -592.95898,201.55078 a 64.660301,63.397614 0 0 0 -1.49024,0.0508 l 0,1.24805 -9.52148,0 0,-0.37305 a 64.660301,63.397614 0 0 0 -19.52149,6.64844 l 0,8.24609 -9.51953,0 0,-2.18164 a 64.660301,63.397614 0 0 0 -7.75586,7.18164 l 2.75586,0 0,9.51953 -9.52148,0 0,-0.81054 a 64.660301,63.397614 0 0 0 -5,9.22656 l 0,6.10547 -2.25196,0 a 64.660301,63.397614 0 0 0 -1.30078,5 l 3.55274,0 0,9.52148 -4.88086,0 a 64.660301,63.397614 0 0 0 -0.20508,4.01563 64.660301,63.397614 0 0 0 0.0352,0.98437 l 5.05078,0 0,9.51953 -4.17969,0 a 64.660301,63.397614 0 0 0 1.11719,5 l 3.0625,0 0,8.98438 a 64.660301,63.397614 0 0 0 5,9.48438 l 0,-3.94727 9.52148,0 0,9.52148 -5.47266,0 a 64.660301,63.397614 0 0 0 4.55469,5 l 0.91797,0 0,0.83789 a 64.660301,63.397614 0 0 0 5,4.29883 l 0,-5.13672 9.51953,0 0,9.52149 -3.07422,0 a 64.660301,63.397614 0 0 0 10.31641,5 l 7.2793,0 0,2.27148 a 64.660301,63.397614 0 0 0 5,1.06446 l 0,-3.33594 9.52148,0 0,4.25586 a 64.660301,63.397614 0 0 0 1.49024,0.0723 64.660301,63.397614 0 0 0 3.50976,-0.12109 l 0,-4.20703 9.52149,0 0,2.95703 a 64.660301,63.397614 0 0 0 5,-1.17773 l 0,-1.7793 5.44335,0 a 64.660301,63.397614 0 0 0 10.17579,-5 l -1.09961,0 0,-9.52149 9.52148,0 0,3.4961 a 64.660301,63.397614 0 0 0 8.38672,-8.4961 l -3.38672,0 0,-9.52148 9.52149,0 0,0.60742 a 64.660301,63.397614 0 0 0 5,-11.42187 l 0,-3.70704 1.01953,0 a 64.660301,63.397614 0 0 0 1.08008,-5 l -2.09961,0 0,-9.51953 3.01562,0 a 64.660301,63.397614 0 0 0 0.0508,-0.98437 64.660301,63.397614 0 0 0 -0.14453,-4.01563 l -2.92187,0 0,-9.52148 1.49218,0 a 64.660301,63.397614 0 0 0 -1.31836,-5 l -0.17382,0 0,-0.51563 a 64.660301,63.397614 0 0 0 -6.48633,-14.00586 l -8.03516,0 0,-9.51953 0.73828,0 a 64.660301,63.397614 0 0 0 -5.73828,-5.53125 l 0,0.53125 -9.52148,0 0,-7.12695 a 64.660301,63.397614 0 0 0 -19.56446,-7.39453 l -9.47656,0 0,-1.12695 a 64.660301,63.397614 0 0 0 -3.50976,-0.17188 z m -25.53321,6.29883 9.52149,0 0,9.52148 -9.52149,0 0,-9.52148 z m 14.52149,0 9.52148,0 0,9.52148 -9.52148,0 0,-9.52148 z m 14.52148,0 9.52149,0 0,9.52148 -9.52149,0 0,-9.52148 z m 14.52149,0 9.51953,0 0,9.52148 -9.51953,0 0,-9.52148 z m -58.08399,14.52148 9.51953,0 0,9.51953 -9.51953,0 0,-9.51953 z m 14.51953,0 9.52149,0 0,9.51953 -9.52149,0 0,-9.51953 z m 14.52149,0 9.52148,0 0,9.51953 -9.52148,0 0,-9.51953 z m 14.52148,0 9.52149,0 0,9.51953 -9.52149,0 0,-9.51953 z m 14.52149,0 9.51953,0 0,9.51953 -9.51953,0 0,-9.51953 z m 14.51953,0 9.52148,0 0,9.51953 -9.52148,0 0,-9.51953 z m -87.125,14.51953 9.52148,0 0,9.52149 -9.52148,0 0,-9.52149 z m 14.52148,0 9.51953,0 0,9.52149 -9.51953,0 0,-9.52149 z m 14.51953,0 9.52149,0 0,9.52149 -9.52149,0 0,-9.52149 z m 14.52149,0 9.52148,0 0,9.52149 -9.52148,0 0,-9.52149 z m 14.52148,0 9.52149,0 0,9.52149 -9.52149,0 0,-9.52149 z m 14.52149,0 9.51953,0 0,9.52149 -9.51953,0 0,-9.52149 z m 14.51953,0 9.52148,0 0,9.52149 -9.52148,0 0,-9.52149 z m 14.52148,0 9.52149,0 0,9.52149 -9.52149,0 0,-9.52149 z m -101.64648,14.52149 9.52148,0 0,9.52148 -9.52148,0 0,-9.52148 z m 14.52148,0 9.51953,0 0,9.52148 -9.51953,0 0,-9.52148 z m 14.51953,0 9.52149,0 0,9.52148 -9.52149,0 0,-9.52148 z m 14.52149,0 9.52148,0 0,9.52148 -9.52148,0 0,-9.52148 z m 14.52148,0 9.52149,0 0,9.52148 -9.52149,0 0,-9.52148 z m 14.52149,0 9.51953,0 0,9.52148 -9.51953,0 0,-9.52148 z m 14.51953,0 9.52148,0 0,9.52148 -9.52148,0 0,-9.52148 z m 14.52148,0 9.52149,0 0,9.52148 -9.52149,0 0,-9.52148 z m -101.64648,14.52148 9.52148,0 0,9.51953 -9.52148,0 0,-9.51953 z m 14.52148,0 9.51953,0 0,9.51953 -9.51953,0 0,-9.51953 z m 14.51953,0 9.52149,0 0,9.51953 -9.52149,0 0,-9.51953 z m 14.52149,0 9.52148,0 0,9.51953 -9.52148,0 0,-9.51953 z m 14.52148,0 9.52149,0 0,9.51953 -9.52149,0 0,-9.51953 z m 14.52149,0 9.51953,0 0,9.51953 -9.51953,0 0,-9.51953 z m 14.51953,0 9.52148,0 0,9.51953 -9.52148,0 0,-9.51953 z m 14.52148,0 9.52149,0 0,9.51953 -9.52149,0 0,-9.51953 z m -101.64648,14.51953 9.52148,0 0,9.52149 -9.52148,0 0,-9.52149 z m 14.52148,0 9.51953,0 0,9.52149 -9.51953,0 0,-9.52149 z m 14.51953,0 9.52149,0 0,9.52149 -9.52149,0 0,-9.52149 z m 14.52149,0 9.52148,0 0,9.52149 -9.52148,0 0,-9.52149 z m 14.52148,0 9.52149,0 0,9.52149 -9.52149,0 0,-9.52149 z m 14.52149,0 9.51953,0 0,9.52149 -9.51953,0 0,-9.52149 z m 14.51953,0 9.52148,0 0,9.52149 -9.52148,0 0,-9.52149 z m 14.52148,0 9.52149,0 0,9.52149 -9.52149,0 0,-9.52149 z m -87.125,14.52149 9.51953,0 0,9.52148 -9.51953,0 0,-9.52148 z m 14.51953,0 9.52149,0 0,9.52148 -9.52149,0 0,-9.52148 z m 14.52149,0 9.52148,0 0,9.52148 -9.52148,0 0,-9.52148 z m 14.52148,0 9.52149,0 0,9.52148 -9.52149,0 0,-9.52148 z m 14.52149,0 9.51953,0 0,9.52148 -9.51953,0 0,-9.52148 z m 14.51953,0 9.52148,0 0,9.52148 -9.52148,0 0,-9.52148 z m -58.08399,14.52148 9.52149,0 0,9.52149 -9.52149,0 0,-9.52149 z m 14.52149,0 9.52148,0 0,9.52149 -9.52148,0 0,-9.52149 z m 14.52148,0 9.52149,0 0,9.52149 -9.52149,0 0,-9.52149 z m 14.52149,0 9.51953,0 0,9.52149 -9.51953,0 0,-9.52149 z"
           id="path4149" />
        <path
           style="fill:#283a44;fill-opacity:1;fill-rule:evenodd;stroke:none;stroke-width:1px;stroke-linecap:butt;stroke-linejoin:miter;stroke-opacity:1"
           d="m -701.78572,312.3622 c 2.5,-1.42857 33.97337,-35.13663 46.07143,-44.64285 20.51086,15.89555 44.682,44.49035 60.35715,60 -14.04315,17.35112 -33.36231,34.85207 -46.78571,45.71428 -14.84016,-13.37231 -48.92386,-46.53333 -59.64287,-61.07143 z"
           id="path4377"
           inkscape:connector-curvature="0"
           sodipodi:nodetypes="ccccc" />
        <path
           style="fill:#283a44;fill-opacity:1;fill-rule:evenodd;stroke:none;stroke-width:1px;stroke-linecap:butt;stroke-linejoin:miter;stroke-opacity:1"
           d="m -862.1652,484.65647 c 40.72577,-42.52123 122.43859,-128.22048 163.13964,-169.34848 24.37951,23.37101 42.49229,41.01464 56.06346,56.46394 -68.56305,67.09775 -139.78893,134.25445 -170.08443,163.39217 -19.64351,-19.85491 -27.34484,-25.00296 -49.11867,-50.50763 z"
           id="path4379"
           inkscape:connector-curvature="0"
           sodipodi:nodetypes="ccccc" />
        <path
           style="fill:#283a44;fill-opacity:1;fill-rule:evenodd;stroke:none;stroke-width:1px;stroke-linecap:butt;stroke-linejoin:miter;stroke-opacity:1"
           d="m -916.20836,549.30624 c 4.30389,-4.54235 40.57992,-45.73368 57.83123,-61.61931 19.7355,15.99808 32.40984,28.00214 42.17387,43.6891 -17.22595,17.45473 -48.32634,45.18417 -61.36676,56.56854 -6.65999,-6.58603 -38.63834,-38.63833 -38.63834,-38.63833 z"
           id="path4381"
           inkscape:connector-curvature="0"
           sodipodi:nodetypes="ccccc" />
        <ellipse
           style="color:#000000;clip-rule:nonzero;display:inline;overflow:visible;visibility:visible;opacity:1;isolation:auto;mix-blend-mode:normal;color-interpolation:sRGB;color-interpolation-filters:linearRGB;solid-color:#000000;solid-opacity:1;fill:#283a41;fill-opacity:1;fill-rule:nonzero;stroke:none;stroke-width:0.52232498;stroke-linecap:round;stroke-linejoin:round;stroke-miterlimit:4;stroke-dasharray:none;stroke-dashoffset:0;stroke-opacity:1;color-rendering:auto;image-rendering:auto;shape-rendering:auto;text-rendering:auto;enable-background:accumulate"
           id="path4383"
           cx="-904.21277"
           cy="576.07532"
           rx="23.071077"
           ry="23.576153" />
        <path
           style="fill:#afb4b0;fill-opacity:1;fill-rule:evenodd;stroke:none;stroke-width:1px;stroke-linecap:butt;stroke-linejoin:miter;stroke-opacity:1"
           d="m -681.78572,292.00506 9.82143,-10.35714 61.96429,62.14285 -10.17857,10.71429 z"
           id="path4387"
           inkscape:connector-curvature="0" />
        <path
           style="fill:#dfe0db;fill-opacity:1;fill-rule:evenodd;stroke:none;stroke-width:1px;stroke-linecap:butt;stroke-linejoin:miter;stroke-opacity:1"
           d="m -646.49763,226.05742 c 3.58659,-3.9751 3.78807,-6.06091 10.22779,-9.84899 1.01015,0.75762 64.25126,62.64108 93.06031,92.42896 l -10.35407,10.85914 c -28.92629,-29.89382 -47.69363,-47.01293 -92.93403,-93.43911 z"
           id="path4389"
           inkscape:connector-curvature="0"
           sodipodi:nodetypes="ccccc" />
        <path
           style="fill:#aeb5b1;fill-opacity:1;fill-rule:evenodd;stroke:none;stroke-width:1.01402795px;stroke-linecap:butt;stroke-linejoin:miter;stroke-opacity:1"
           d="m -877.66869,542.8948 22.97738,-23.37992 7.35995,7.30623 -23.15691,23.74522 z"
           id="path4385"
           inkscape:connector-curvature="0" />
      </g>
    </g>
    <g
       transform="matrix(0.39364284,0,0,0.39364284,763.86139,418.11852)"
       id="layer1-5"
       inkscape:label="Capa 1">
      <g
         id="g4536">
        <path
           inkscape:connector-curvature="0"
           style="color:#000000;clip-rule:nonzero;display:inline;overflow:visible;visibility:visible;opacity:1;isolation:auto;mix-blend-mode:normal;color-interpolation:sRGB;color-interpolation-filters:linearRGB;solid-color:#000000;solid-opacity:1;fill:#0c0c0c;fill-opacity:1;fill-rule:nonzero;stroke:none;stroke-width:0.52753609;stroke-linecap:round;stroke-linejoin:round;stroke-miterlimit:4;stroke-dasharray:none;stroke-dashoffset:0;stroke-opacity:1;color-rendering:auto;image-rendering:auto;shape-rendering:auto;text-rendering:auto;enable-background:accumulate"
           d="m -616.80977,157.58952 a 139.73624,139.73624 0 0 0 -139.73437,139.73633 139.73624,139.73624 0 0 0 139.73437,139.73632 139.73624,139.73624 0 0 0 139.73633,-139.73632 139.73624,139.73624 0 0 0 -139.73633,-139.73633 z m 0,14.9707 a 124.7645,124.7645 0 0 1 124.76563,124.76563 124.7645,124.7645 0 0 1 -124.76563,124.76367 124.7645,124.7645 0 0 1 -124.76367,-124.76367 124.7645,124.7645 0 0 1 124.76367,-124.76563 z"
           id="path4158" />
        <path
           style="color:#000000;clip-rule:nonzero;display:inline;overflow:visible;visibility:visible;opacity:1;isolation:auto;mix-blend-mode:normal;color-interpolation:sRGB;color-interpolation-filters:linearRGB;solid-color:#000000;solid-opacity:1;fill:#818181;fill-opacity:1;fill-rule:nonzero;stroke:none;stroke-width:0.46527362;stroke-linecap:round;stroke-linejoin:round;stroke-miterlimit:4;stroke-dasharray:none;stroke-dashoffset:0;stroke-opacity:1;color-rendering:auto;image-rendering:auto;shape-rendering:auto;text-rendering:auto;enable-background:accumulate"
           d="m -616.80879,172.55924 a 124.76736,124.76736 0 0 0 -124.76758,124.76758 124.76736,124.76736 0 0 0 124.76758,124.76563 124.76736,124.76736 0 0 0 124.76758,-124.76563 124.76736,124.76736 0 0 0 -124.76758,-124.76758 z m 0,8.91211 a 115.85541,115.85541 0 0 1 115.85547,115.85547 115.85541,115.85541 0 0 1 -115.85547,115.85352 115.85541,115.85541 0 0 1 -115.85547,-115.85352 115.85541,115.85541 0 0 1 115.85547,-115.85547 z"
           id="path4220"
           inkscape:connector-curvature="0" />
        <path
           style="color:#000000;font-style:normal;font-variant:normal;font-weight:normal;font-stretch:normal;font-size:medium;line-height:normal;font-family:sans-serif;text-indent:0;text-align:start;text-decoration:none;text-decoration-line:none;text-decoration-style:solid;text-decoration-color:#000000;letter-spacing:normal;word-spacing:normal;text-transform:none;direction:ltr;block-progression:tb;writing-mode:lr-tb;baseline-shift:baseline;text-anchor:start;white-space:normal;clip-rule:nonzero;display:inline;overflow:visible;visibility:visible;opacity:1;isolation:auto;mix-blend-mode:normal;color-interpolation:sRGB;color-interpolation-filters:linearRGB;solid-color:#000000;solid-opacity:1;fill:#838383;fill-opacity:1;fill-rule:evenodd;stroke:none;stroke-width:2;stroke-linecap:butt;stroke-linejoin:miter;stroke-miterlimit:4;stroke-dasharray:none;stroke-dashoffset:0;stroke-opacity:1;color-rendering:auto;image-rendering:auto;shape-rendering:auto;text-rendering:auto;enable-background:accumulate"
           d="m -711.69845,228.56511 -1.16211,1.6289 83.58204,59.61133 -94.40235,-42.15234 -0.81445,1.82617 103.42773,46.18359 98.74414,70.42383 1.16016,-1.62695 -90.69336,-64.68555 101.91993,45.50977 0.81445,-1.82617 -110.94532,-49.53907 -91.63086,-65.35351 z"
           id="path4240"
           inkscape:connector-curvature="0" />
        <path
           inkscape:connector-curvature="0"
           style="color:#000000;font-style:normal;font-variant:normal;font-weight:normal;font-stretch:normal;font-size:medium;line-height:normal;font-family:sans-serif;text-indent:0;text-align:start;text-decoration:none;text-decoration-line:none;text-decoration-style:solid;text-decoration-color:#000000;letter-spacing:normal;word-spacing:normal;text-transform:none;direction:ltr;block-progression:tb;writing-mode:lr-tb;baseline-shift:baseline;text-anchor:start;white-space:normal;clip-rule:nonzero;display:inline;overflow:visible;visibility:visible;opacity:1;isolation:auto;mix-blend-mode:normal;color-interpolation:sRGB;color-interpolation-filters:linearRGB;solid-color:#000000;solid-opacity:1;fill:#838383;fill-opacity:1;fill-rule:evenodd;stroke:none;stroke-width:2;stroke-linecap:butt;stroke-linejoin:miter;stroke-miterlimit:4;stroke-dasharray:none;stroke-dashoffset:0;stroke-opacity:1;color-rendering:auto;image-rendering:auto;shape-rendering:auto;text-rendering:auto;enable-background:accumulate"
           d="m -632.71887,181.29013 -1.98187,0.27568 14.15955,101.68075 -34.27754,-97.53806 -1.88616,0.66379 37.55375,106.86409 16.72903,120.12519 1.97912,-0.27576 -15.36255,-110.33358 37.00667,105.30582 1.88617,-0.66378 -40.28431,-114.63052 -15.52186,-111.47362 z"
           id="path4240-5" />
        <path
           inkscape:connector-curvature="0"
           style="color:#000000;font-style:normal;font-variant:normal;font-weight:normal;font-stretch:normal;font-size:medium;line-height:normal;font-family:sans-serif;text-indent:0;text-align:start;text-decoration:none;text-decoration-line:none;text-decoration-style:solid;text-decoration-color:#000000;letter-spacing:normal;word-spacing:normal;text-transform:none;direction:ltr;block-progression:tb;writing-mode:lr-tb;baseline-shift:baseline;text-anchor:start;white-space:normal;clip-rule:nonzero;display:inline;overflow:visible;visibility:visible;opacity:1;isolation:auto;mix-blend-mode:normal;color-interpolation:sRGB;color-interpolation-filters:linearRGB;solid-color:#000000;solid-opacity:1;fill:#838383;fill-opacity:1;fill-rule:evenodd;stroke:none;stroke-width:2;stroke-linecap:butt;stroke-linejoin:miter;stroke-miterlimit:4;stroke-dasharray:none;stroke-dashoffset:0;stroke-opacity:1;color-rendering:auto;image-rendering:auto;shape-rendering:auto;text-rendering:auto;enable-background:accumulate"
           d="m -546.68278,203.43042 -1.61188,-1.1856 -60.8166,82.7092 43.51628,-93.78144 -1.81417,-0.84083 -47.67793,102.74743 -71.84773,97.71297 1.60996,1.18362 65.99336,-89.74621 -46.98232,101.24954 1.81417,0.84085 51.14202,-110.21559 66.67484,-90.67394 z"
           id="path4240-56" />
        <path
           inkscape:connector-curvature="0"
           style="color:#000000;font-style:normal;font-variant:normal;font-weight:normal;font-stretch:normal;font-size:medium;line-height:normal;font-family:sans-serif;text-indent:0;text-align:start;text-decoration:none;text-decoration-line:none;text-decoration-style:solid;text-decoration-color:#000000;letter-spacing:normal;word-spacing:normal;text-transform:none;direction:ltr;block-progression:tb;writing-mode:lr-tb;baseline-shift:baseline;text-anchor:start;white-space:normal;clip-rule:nonzero;display:inline;overflow:visible;visibility:visible;opacity:1;isolation:auto;mix-blend-mode:normal;color-interpolation:sRGB;color-interpolation-filters:linearRGB;solid-color:#000000;solid-opacity:1;fill:#838383;fill-opacity:1;fill-rule:evenodd;stroke:none;stroke-width:2;stroke-linecap:butt;stroke-linejoin:miter;stroke-miterlimit:4;stroke-dasharray:none;stroke-dashoffset:0;stroke-opacity:1;color-rendering:auto;image-rendering:auto;shape-rendering:auto;text-rendering:auto;enable-background:accumulate"
           d="m -500.94182,280.17971 -0.29688,-1.97881 -101.52341,15.24685 97.16567,-35.31936 -0.68393,-1.87895 -106.45611,38.69518 -119.93929,18.01356 0.29692,1.97605 110.16286,-16.54237 -104.90377,38.13145 0.68392,1.87896 114.19288,-41.50869 111.30114,-16.71387 z"
           id="path4240-2" />
        <path
           inkscape:connector-curvature="0"
           style="color:#000000;clip-rule:nonzero;display:inline;overflow:visible;visibility:visible;opacity:1;isolation:auto;mix-blend-mode:normal;color-interpolation:sRGB;color-interpolation-filters:linearRGB;solid-color:#000000;solid-opacity:1;fill:#818181;fill-opacity:1;fill-rule:nonzero;stroke:none;stroke-width:0.525962;stroke-linecap:round;stroke-linejoin:round;stroke-miterlimit:4;stroke-dasharray:none;stroke-dashoffset:0;stroke-opacity:1;color-rendering:auto;image-rendering:auto;shape-rendering:auto;text-rendering:auto;enable-background:accumulate"
           d="m -604.57176,297.32584 a 12.23702,12.237019 0 0 1 -12.23702,12.23701 12.23702,12.237019 0 0 1 -12.23702,-12.23701 12.23702,12.237019 0 0 1 12.23702,-12.23702 12.23702,12.237019 0 0 1 12.23702,12.23702 z"
           id="path4300" />
        <path
           style="color:#000000;clip-rule:nonzero;display:inline;overflow:visible;visibility:visible;opacity:1;isolation:auto;mix-blend-mode:normal;color-interpolation:sRGB;color-interpolation-filters:linearRGB;solid-color:#000000;solid-opacity:1;fill:#0c0c0c;fill-opacity:1;fill-rule:nonzero;stroke:none;stroke-width:0.52753609;stroke-linecap:round;stroke-linejoin:round;stroke-miterlimit:4;stroke-dasharray:none;stroke-dashoffset:0;stroke-opacity:1;color-rendering:auto;image-rendering:auto;shape-rendering:auto;text-rendering:auto;enable-background:accumulate"
           d="M -198.57241,152.7913 A 139.73624,139.73624 0 0 0 -338.30678,292.52763 139.73624,139.73624 0 0 0 -198.57241,432.26395 139.73624,139.73624 0 0 0 -58.83608,292.52763 139.73624,139.73624 0 0 0 -198.57241,152.7913 Z m 0,14.9707 A 124.7645,124.7645 0 0 1 -73.80678,292.52763 124.7645,124.7645 0 0 1 -198.57241,417.2913 124.7645,124.7645 0 0 1 -323.33608,292.52763 124.7645,124.7645 0 0 1 -198.57241,167.762 Z"
           id="path4158-1"
           inkscape:connector-curvature="0" />
        <path
           style="color:#000000;clip-rule:nonzero;display:inline;overflow:visible;visibility:visible;opacity:1;isolation:auto;mix-blend-mode:normal;color-interpolation:sRGB;color-interpolation-filters:linearRGB;solid-color:#000000;solid-opacity:1;fill:#818181;fill-opacity:1;fill-rule:nonzero;stroke:none;stroke-width:0.46527362;stroke-linecap:round;stroke-linejoin:round;stroke-miterlimit:4;stroke-dasharray:none;stroke-dashoffset:0;stroke-opacity:1;color-rendering:auto;image-rendering:auto;shape-rendering:auto;text-rendering:auto;enable-background:accumulate"
           d="M -198.57143,167.76102 A 124.76736,124.76736 0 0 0 -323.33901,292.5286 124.76736,124.76736 0 0 0 -198.57143,417.29423 124.76736,124.76736 0 0 0 -73.80385,292.5286 124.76736,124.76736 0 0 0 -198.57143,167.76102 Z m 0,8.91211 A 115.85541,115.85541 0 0 1 -82.71596,292.5286 115.85541,115.85541 0 0 1 -198.57143,408.38212 115.85541,115.85541 0 0 1 -314.4269,292.5286 115.85541,115.85541 0 0 1 -198.57143,176.67313 Z"
           id="path4220-2"
           inkscape:connector-curvature="0" />
        <path
           style="color:#000000;font-style:normal;font-variant:normal;font-weight:normal;font-stretch:normal;font-size:medium;line-height:normal;font-family:sans-serif;text-indent:0;text-align:start;text-decoration:none;text-decoration-line:none;text-decoration-style:solid;text-decoration-color:#000000;letter-spacing:normal;word-spacing:normal;text-transform:none;direction:ltr;block-progression:tb;writing-mode:lr-tb;baseline-shift:baseline;text-anchor:start;white-space:normal;clip-rule:nonzero;display:inline;overflow:visible;visibility:visible;opacity:1;isolation:auto;mix-blend-mode:normal;color-interpolation:sRGB;color-interpolation-filters:linearRGB;solid-color:#000000;solid-opacity:1;fill:#838383;fill-opacity:1;fill-rule:evenodd;stroke:none;stroke-width:2;stroke-linecap:butt;stroke-linejoin:miter;stroke-miterlimit:4;stroke-dasharray:none;stroke-dashoffset:0;stroke-opacity:1;color-rendering:auto;image-rendering:auto;shape-rendering:auto;text-rendering:auto;enable-background:accumulate"
           d="m -293.46109,223.76688 -1.16211,1.6289 83.58204,59.61133 -94.40235,-42.15234 -0.81445,1.82617 103.42773,46.18359 98.74414,70.42383 1.16016,-1.62695 -90.69336,-64.68555 101.919926,45.50977 0.814454,-1.82617 -110.94532,-49.53907 -91.63086,-65.35351 z"
           id="path4240-0"
           inkscape:connector-curvature="0" />
        <path
           inkscape:connector-curvature="0"
           style="color:#000000;font-style:normal;font-variant:normal;font-weight:normal;font-stretch:normal;font-size:medium;line-height:normal;font-family:sans-serif;text-indent:0;text-align:start;text-decoration:none;text-decoration-line:none;text-decoration-style:solid;text-decoration-color:#000000;letter-spacing:normal;word-spacing:normal;text-transform:none;direction:ltr;block-progression:tb;writing-mode:lr-tb;baseline-shift:baseline;text-anchor:start;white-space:normal;clip-rule:nonzero;display:inline;overflow:visible;visibility:visible;opacity:1;isolation:auto;mix-blend-mode:normal;color-interpolation:sRGB;color-interpolation-filters:linearRGB;solid-color:#000000;solid-opacity:1;fill:#838383;fill-opacity:1;fill-rule:evenodd;stroke:none;stroke-width:2;stroke-linecap:butt;stroke-linejoin:miter;stroke-miterlimit:4;stroke-dasharray:none;stroke-dashoffset:0;stroke-opacity:1;color-rendering:auto;image-rendering:auto;shape-rendering:auto;text-rendering:auto;enable-background:accumulate"
           d="m -214.48151,176.4919 -1.98187,0.27568 14.15955,101.68075 -34.27754,-97.53806 -1.88616,0.66379 37.55375,106.86409 16.72903,120.12519 1.97912,-0.27576 -15.36255,-110.33358 37.00667,105.30582 1.88617,-0.66378 -40.28431,-114.63052 -15.52186,-111.47362 z"
           id="path4240-5-9" />
        <path
           inkscape:connector-curvature="0"
           style="color:#000000;font-style:normal;font-variant:normal;font-weight:normal;font-stretch:normal;font-size:medium;line-height:normal;font-family:sans-serif;text-indent:0;text-align:start;text-decoration:none;text-decoration-line:none;text-decoration-style:solid;text-decoration-color:#000000;letter-spacing:normal;word-spacing:normal;text-transform:none;direction:ltr;block-progression:tb;writing-mode:lr-tb;baseline-shift:baseline;text-anchor:start;white-space:normal;clip-rule:nonzero;display:inline;overflow:visible;visibility:visible;opacity:1;isolation:auto;mix-blend-mode:normal;color-interpolation:sRGB;color-interpolation-filters:linearRGB;solid-color:#000000;solid-opacity:1;fill:#838383;fill-opacity:1;fill-rule:evenodd;stroke:none;stroke-width:2;stroke-linecap:butt;stroke-linejoin:miter;stroke-miterlimit:4;stroke-dasharray:none;stroke-dashoffset:0;stroke-opacity:1;color-rendering:auto;image-rendering:auto;shape-rendering:auto;text-rendering:auto;enable-background:accumulate"
           d="m -128.44542,198.63219 -1.61188,-1.1856 -60.8166,82.7092 43.51628,-93.78144 -1.81417,-0.84083 -47.67793,102.74743 -71.84773,97.71297 1.60996,1.18362 65.99336,-89.74621 -46.98232,101.24954 1.81417,0.84085 51.14202,-110.21559 66.67484,-90.67394 z"
           id="path4240-56-3" />
        <path
           inkscape:connector-curvature="0"
           style="color:#000000;font-style:normal;font-variant:normal;font-weight:normal;font-stretch:normal;font-size:medium;line-height:normal;font-family:sans-serif;text-indent:0;text-align:start;text-decoration:none;text-decoration-line:none;text-decoration-style:solid;text-decoration-color:#000000;letter-spacing:normal;word-spacing:normal;text-transform:none;direction:ltr;block-progression:tb;writing-mode:lr-tb;baseline-shift:baseline;text-anchor:start;white-space:normal;clip-rule:nonzero;display:inline;overflow:visible;visibility:visible;opacity:1;isolation:auto;mix-blend-mode:normal;color-interpolation:sRGB;color-interpolation-filters:linearRGB;solid-color:#000000;solid-opacity:1;fill:#838383;fill-opacity:1;fill-rule:evenodd;stroke:none;stroke-width:2;stroke-linecap:butt;stroke-linejoin:miter;stroke-miterlimit:4;stroke-dasharray:none;stroke-dashoffset:0;stroke-opacity:1;color-rendering:auto;image-rendering:auto;shape-rendering:auto;text-rendering:auto;enable-background:accumulate"
           d="m -82.704462,275.38148 -0.296877,-1.97881 -101.523411,15.24685 97.165671,-35.31936 -0.683932,-1.87895 -106.456109,38.69518 -119.93929,18.01356 0.29692,1.97605 110.16286,-16.54237 -104.90377,38.13145 0.68392,1.87896 114.19288,-41.50869 111.30114,-16.71387 z"
           id="path4240-2-6" />
        <path
           inkscape:connector-curvature="0"
           style="color:#000000;clip-rule:nonzero;display:inline;overflow:visible;visibility:visible;opacity:1;isolation:auto;mix-blend-mode:normal;color-interpolation:sRGB;color-interpolation-filters:linearRGB;solid-color:#000000;solid-opacity:1;fill:#818181;fill-opacity:1;fill-rule:nonzero;stroke:none;stroke-width:0.525962;stroke-linecap:round;stroke-linejoin:round;stroke-miterlimit:4;stroke-dasharray:none;stroke-dashoffset:0;stroke-opacity:1;color-rendering:auto;image-rendering:auto;shape-rendering:auto;text-rendering:auto;enable-background:accumulate"
           d="m -186.33442,292.52762 a 12.23702,12.237019 0 0 1 -12.23702,12.23702 12.23702,12.237019 0 0 1 -12.23702,-12.23702 12.23702,12.237019 0 0 1 12.23702,-12.23702 12.23702,12.237019 0 0 1 12.23702,12.23702 z"
           id="path4300-0" />
        <path
           style="color:#000000;font-style:normal;font-variant:normal;font-weight:normal;font-stretch:normal;font-size:medium;line-height:normal;font-family:sans-serif;text-indent:0;text-align:start;text-decoration:none;text-decoration-line:none;text-decoration-style:solid;text-decoration-color:#000000;letter-spacing:normal;word-spacing:normal;text-transform:none;direction:ltr;block-progression:tb;writing-mode:lr-tb;baseline-shift:baseline;text-anchor:start;white-space:normal;clip-rule:nonzero;display:inline;overflow:visible;visibility:visible;opacity:1;isolation:auto;mix-blend-mode:normal;color-interpolation:sRGB;color-interpolation-filters:linearRGB;solid-color:#000000;solid-opacity:1;fill:#f0632e;fill-opacity:1;fill-rule:nonzero;stroke:none;stroke-width:5;stroke-linecap:round;stroke-linejoin:round;stroke-miterlimit:4;stroke-dasharray:none;stroke-dashoffset:0;stroke-opacity:1;color-rendering:auto;image-rendering:auto;shape-rendering:auto;text-rendering:auto;enable-background:accumulate"
           d="m -616.80879,237.90885 c -32.78579,0 -59.41797,26.63218 -59.41797,59.41797 0,32.78579 26.63218,59.41602 59.41797,59.41602 32.78579,0 59.41797,-26.63023 59.41797,-59.41602 0,-32.78579 -26.63218,-59.41797 -59.41797,-59.41797 z m 0,5 c 30.08359,0 54.41797,24.33438 54.41797,54.41797 0,30.08359 -24.33438,54.41602 -54.41797,54.41602 -30.08359,0 -54.41797,-24.33243 -54.41797,-54.41602 0,-30.08359 24.33438,-54.41797 54.41797,-54.41797 z"
           id="path4377-3"
           inkscape:connector-curvature="0" />
        <path
           style="color:#000000;font-style:normal;font-variant:normal;font-weight:normal;font-stretch:normal;font-size:medium;line-height:normal;font-family:sans-serif;text-indent:0;text-align:start;text-decoration:none;text-decoration-line:none;text-decoration-style:solid;text-decoration-color:#000000;letter-spacing:normal;word-spacing:normal;text-transform:none;direction:ltr;block-progression:tb;writing-mode:lr-tb;baseline-shift:baseline;text-anchor:start;white-space:normal;clip-rule:nonzero;display:inline;overflow:visible;visibility:visible;opacity:1;isolation:auto;mix-blend-mode:normal;color-interpolation:sRGB;color-interpolation-filters:linearRGB;solid-color:#000000;solid-opacity:1;fill:#f0632e;fill-opacity:1;fill-rule:nonzero;stroke:none;stroke-width:5;stroke-linecap:round;stroke-linejoin:round;stroke-miterlimit:4;stroke-dasharray:none;stroke-dashoffset:0;stroke-opacity:1;color-rendering:auto;image-rendering:auto;shape-rendering:auto;text-rendering:auto;enable-background:accumulate"
           d="m -616.99043,250.7526 c -25.79308,0 -46.75586,20.96277 -46.75586,46.75586 0,25.79309 20.96278,46.75586 46.75586,46.75586 25.79309,0 46.75586,-20.96277 46.75586,-46.75586 0,-25.79309 -20.96277,-46.75586 -46.75586,-46.75586 z m 0,5 c 23.09089,0 41.75586,18.66497 41.75586,41.75586 0,23.09089 -18.66497,41.75586 -41.75586,41.75586 -23.09088,0 -41.75586,-18.66497 -41.75586,-41.75586 0,-23.09089 18.66498,-41.75586 41.75586,-41.75586 z"
           id="path4377-6"
           inkscape:connector-curvature="0" />
        <path
           style="color:#000000;font-style:normal;font-variant:normal;font-weight:normal;font-stretch:normal;font-size:medium;line-height:normal;font-family:sans-serif;text-indent:0;text-align:start;text-decoration:none;text-decoration-line:none;text-decoration-style:solid;text-decoration-color:#000000;letter-spacing:normal;word-spacing:normal;text-transform:none;direction:ltr;block-progression:tb;writing-mode:lr-tb;baseline-shift:baseline;text-anchor:start;white-space:normal;clip-rule:nonzero;display:inline;overflow:visible;visibility:visible;opacity:1;isolation:auto;mix-blend-mode:normal;color-interpolation:sRGB;color-interpolation-filters:linearRGB;solid-color:#000000;solid-opacity:1;fill:#f0632e;fill-opacity:1;fill-rule:nonzero;stroke:none;stroke-width:4.96798658;stroke-linecap:round;stroke-linejoin:round;stroke-miterlimit:4;stroke-dasharray:none;stroke-dashoffset:0;stroke-opacity:1;color-rendering:auto;image-rendering:auto;shape-rendering:auto;text-rendering:auto;enable-background:accumulate"
           d="m -198.57143,260.02762 c -17.91983,0 -32.5,14.58017 -32.5,32.5 0,17.91983 14.58017,32.5 32.5,32.5 17.91983,0 32.5,-14.58017 32.5,-32.5 0,-17.91983 -14.58017,-32.5 -32.5,-32.5 z m 0,4.96875 c 15.23493,0 27.5332,12.29632 27.5332,27.53125 0,15.23493 -12.29827,27.5332 -27.5332,27.5332 -15.23493,0 -27.53125,-12.29827 -27.53125,-27.5332 0,-15.23493 12.29632,-27.53125 27.53125,-27.53125 z"
           id="path4402"
           inkscape:connector-curvature="0" />
        <path
           style="color:#000000;font-style:normal;font-variant:normal;font-weight:normal;font-stretch:normal;font-size:medium;line-height:normal;font-family:sans-serif;text-indent:0;text-align:start;text-decoration:none;text-decoration-line:none;text-decoration-style:solid;text-decoration-color:#000000;letter-spacing:normal;word-spacing:normal;text-transform:none;direction:ltr;block-progression:tb;writing-mode:lr-tb;baseline-shift:baseline;text-anchor:start;white-space:normal;clip-rule:nonzero;display:inline;overflow:visible;visibility:visible;opacity:1;isolation:auto;mix-blend-mode:normal;color-interpolation:sRGB;color-interpolation-filters:linearRGB;solid-color:#000000;solid-opacity:1;fill:#f0632e;fill-opacity:1;fill-rule:nonzero;stroke:none;stroke-width:5;stroke-linecap:round;stroke-linejoin:round;stroke-miterlimit:4;stroke-dasharray:none;stroke-dashoffset:0;stroke-opacity:1;color-rendering:auto;image-rendering:auto;shape-rendering:auto;text-rendering:auto;enable-background:accumulate"
           d="m -198.57143,273.98856 c -10.20999,0 -18.53906,8.32907 -18.53906,18.53906 0,10.20999 8.32907,18.54102 18.53906,18.54102 10.20999,0 18.54102,-8.33103 18.54102,-18.54102 0,-10.20999 -8.33103,-18.53906 -18.54102,-18.53906 z m 0,5 c 7.50779,0 13.54102,6.03127 13.54102,13.53906 0,7.50779 -6.03323,13.54102 -13.54102,13.54102 -7.50779,0 -13.53906,-6.03323 -13.53906,-13.54102 0,-7.50779 6.03127,-13.53906 13.53906,-13.53906 z"
           id="path4402-2"
           inkscape:connector-curvature="0" />
        <path
           style="color:#000000;font-style:normal;font-variant:normal;font-weight:normal;font-stretch:normal;font-size:medium;line-height:normal;font-family:sans-serif;text-indent:0;text-align:start;text-decoration:none;text-decoration-line:none;text-decoration-style:solid;text-decoration-color:#000000;letter-spacing:normal;word-spacing:normal;text-transform:none;direction:ltr;block-progression:tb;writing-mode:lr-tb;baseline-shift:baseline;text-anchor:start;white-space:normal;clip-rule:nonzero;display:inline;overflow:visible;visibility:visible;opacity:1;isolation:auto;mix-blend-mode:normal;color-interpolation:sRGB;color-interpolation-filters:linearRGB;solid-color:#000000;solid-opacity:1;fill:#222222;fill-opacity:1;fill-rule:evenodd;stroke:none;stroke-width:3;stroke-linecap:butt;stroke-linejoin:miter;stroke-miterlimit:4;stroke-dasharray:none;stroke-dashoffset:0;stroke-opacity:1;color-rendering:auto;image-rendering:auto;shape-rendering:auto;text-rendering:auto;enable-background:accumulate"
           d="m -217.99805,72.033203 c 0,0 -0.1069,2.032672 -0.39062,4.537109 -0.28372,2.504438 -0.77985,5.512665 -1.39063,7.140626 -2.83854,7.565868 -7.64223,14.514066 -13.09179,20.656252 -4.69229,5.28866 -17.29297,14.07226 -17.29297,14.07226 l 1.70312,2.46875 c 0,0 12.50026,-8.54136 17.83203,-14.55078 5.61304,-6.32642 10.64153,-13.553088 13.65821,-21.593748 0.82581,-2.201128 1.26786,-5.254678 1.5625,-7.855469 0.29463,-2.60079 0.40625,-4.716797 0.40625,-4.716797 l -2.9961,-0.158203 z"
           id="path4506"
           inkscape:connector-curvature="0" />
        <path
           inkscape:connector-curvature="0"
           style="fill:#f2632c;fill-opacity:1;fill-rule:evenodd;stroke:none;stroke-width:1px;stroke-linecap:butt;stroke-linejoin:miter;stroke-opacity:1"
           d="m -260.24023,74.15625 -14.26954,4.671875 4.27539,15.863281 -215.15039,61.683594 -13.88281,-42.44531 -11.11133,3.1582 13.10938,42.69531 -8.3125,2.38282 1.76758,6.81836 8.59179,-2.53516 36.48633,118.82812 14.39453,-3.4082 -38.90429,-118.95508 214.34765,-63.259763 0.48828,1.810543 -166.85742,179.29102 13.8457,8.14062 157.91016,-169.25586 6.04883,22.44727 1.69922,-0.43555 48.30273,137.56446 10.10156,-3.03125 -47.36132,-137.36328 2.03125,-0.52149 -17.55078,-64.14453 z"
           id="path4427" />
        <path
           inkscape:connector-curvature="0"
           style="color:#000000;clip-rule:nonzero;display:inline;overflow:visible;visibility:visible;opacity:1;isolation:auto;mix-blend-mode:normal;color-interpolation:sRGB;color-interpolation-filters:linearRGB;solid-color:#000000;solid-opacity:1;fill:#848484;fill-opacity:1;fill-rule:nonzero;stroke:none;stroke-width:0.52991873;stroke-linecap:round;stroke-linejoin:round;stroke-miterlimit:4;stroke-dasharray:none;stroke-dashoffset:0;stroke-opacity:1;color-rendering:auto;image-rendering:auto;shape-rendering:auto;text-rendering:auto;enable-background:accumulate"
           d="m -442.81445,276.60156 a 40.538616,39.735039 0 0 0 -23.6543,7.52735 l -135.1875,-0.48633 a 20.322977,20.590836 0 0 0 -15.15234,-6.9082 20.322977,20.590836 0 0 0 -20.32227,20.59179 20.322977,20.590836 0 0 0 20.32227,20.58985 20.322977,20.590836 0 0 0 16.34765,-8.39649 l 121.36914,24.51758 a 40.538616,39.735039 0 0 0 36.27735,22.03516 40.538616,39.735039 0 0 0 40.53906,-39.73438 40.538616,39.735039 0 0 0 -40.53906,-39.73633 z m -154.75586,14.16992 118.93945,7.00196 a 40.538616,39.735039 0 0 0 -4.70898,18.29687 L -597.09375,302.2207 a 20.322977,20.590836 0 0 0 0.60742,-4.89453 20.322977,20.590836 0 0 0 -1.08398,-6.55469 z"
           id="path4442" />
        <path
           style="color:#000000;font-style:normal;font-variant:normal;font-weight:normal;font-stretch:normal;font-size:medium;line-height:normal;font-family:sans-serif;text-indent:0;text-align:start;text-decoration:none;text-decoration-line:none;text-decoration-style:solid;text-decoration-color:#000000;letter-spacing:normal;word-spacing:normal;text-transform:none;direction:ltr;block-progression:tb;writing-mode:lr-tb;baseline-shift:baseline;text-anchor:start;white-space:normal;clip-rule:nonzero;display:inline;overflow:visible;visibility:visible;opacity:1;isolation:auto;mix-blend-mode:normal;color-interpolation:sRGB;color-interpolation-filters:linearRGB;solid-color:#000000;solid-opacity:1;fill:#0c0c0c;fill-opacity:1;fill-rule:evenodd;stroke:none;stroke-width:5;stroke-linecap:butt;stroke-linejoin:miter;stroke-miterlimit:4;stroke-dasharray:none;stroke-dashoffset:0;stroke-opacity:1;color-rendering:auto;image-rendering:auto;shape-rendering:auto;text-rendering:auto;enable-background:accumulate"
           d="m -494.5625,54.753906 c 0,0 -1.74615,1.636422 -4.03516,3.50586 -2.28901,1.869437 -5.21374,3.959972 -6.90625,4.683593 -8.0009,3.420743 -17.08898,5.10012 -25.68554,4.402344 -2.27075,-0.184315 -6.36087,-1.514657 -9.65821,-2.833984 -3.29734,-1.319327 -5.88867,-2.580078 -5.88867,-2.580078 l -2.1875,4.496093 c 0,0 2.74008,1.33468 6.21875,2.726563 3.47868,1.391883 7.60566,2.891228 11.11133,3.175781 9.51742,0.772522 19.34721,-1.067345 28.05664,-4.791016 2.76125,-1.180556 5.67038,-3.420702 8.10156,-5.40625 2.43118,-1.985547 4.29102,-3.728515 4.29102,-3.728515 l -3.41797,-3.650391 z"
           id="path4500"
           inkscape:connector-curvature="0" />
        <path
           style="fill:#838383;fill-opacity:1;fill-rule:evenodd;stroke:none;stroke-width:1px;stroke-linecap:butt;stroke-linejoin:miter;stroke-opacity:1"
           d="m -499.28572,113.43363 -11.60714,3.92857 -16.78571,-57.321426 10.53571,-3.035714 z"
           id="path4438"
           inkscape:connector-curvature="0"
           sodipodi:nodetypes="ccccc" />
        <path
           style="fill:#222222;fill-opacity:1;fill-rule:evenodd;stroke:none;stroke-width:1px;stroke-linecap:butt;stroke-linejoin:miter;stroke-opacity:1"
           d="m -234.75,56.612207 22.125,8.25 c 0,0 2.45059,1.438403 3.12204,2.619272 0.64018,1.125864 1.01594,2.600594 0.62397,3.835 -0.38641,1.216915 -1.49216,2.274009 -2.68351,2.733228 -1.65519,0.63801 -5.3125,-0.3125 -5.3125,-0.3125 l -17.125,-6.375 z"
           id="path4504"
           inkscape:connector-curvature="0"
           sodipodi:nodetypes="ccaaaccc" />
        <path
           style="fill:#828282;fill-opacity:1;fill-rule:evenodd;stroke:none;stroke-width:1px;stroke-linecap:butt;stroke-linejoin:miter;stroke-opacity:1"
           d="m -282.14286,66.246132 c 0.62367,-0.579471 2.18899,-1.315712 2.18899,-1.315712 l 37.04919,-14.475606 c 0,0 4.24005,-1.605411 6.11897,-0.771183 1.46215,0.649184 2.74834,3.934528 2.74834,3.934528 l 3.9132,11.612941 c 0,0 0.42825,1.487774 0.12417,2.131103 -0.2034,0.430341 -1.15424,0.840725 -1.15424,0.840725 l -46.42665,12.833281 c 0,0 -1.49148,0.325413 -2.10661,-0.0133 -0.51508,-0.283618 -0.95259,-1.484683 -0.95259,-1.484683 l -2.09252,-6.583545 c 0,0 -0.53915,-1.916719 -0.56905,-3.098383 -0.0287,-1.132196 0.21346,-2.731827 1.1588,-3.610169 z"
           id="path4440"
           inkscape:connector-curvature="0"
           sodipodi:nodetypes="sccaccaccaccss" />
        <path
           inkscape:connector-curvature="0"
           style="color:#000000;font-style:normal;font-variant:normal;font-weight:normal;font-stretch:normal;font-size:medium;line-height:normal;font-family:sans-serif;text-indent:0;text-align:start;text-decoration:none;text-decoration-line:none;text-decoration-style:solid;text-decoration-color:#000000;letter-spacing:normal;word-spacing:normal;text-transform:none;direction:ltr;block-progression:tb;writing-mode:lr-tb;baseline-shift:baseline;text-anchor:start;white-space:normal;clip-rule:nonzero;display:inline;overflow:visible;visibility:visible;opacity:1;isolation:auto;mix-blend-mode:normal;color-interpolation:sRGB;color-interpolation-filters:linearRGB;solid-color:#000000;solid-opacity:1;fill:#c9c6c1;fill-opacity:1;fill-rule:nonzero;stroke:none;stroke-width:10;stroke-linecap:round;stroke-linejoin:round;stroke-miterlimit:4;stroke-dasharray:none;stroke-dashoffset:0;stroke-opacity:1;color-rendering:auto;image-rendering:auto;shape-rendering:auto;text-rendering:auto;enable-background:accumulate"
           d="m -616.80859,278.99805 c -10.08054,0 -18.32813,8.24759 -18.32813,18.32812 0,10.08053 8.24759,18.32617 18.32813,18.32617 6.261,0 11.81118,-3.18402 15.12109,-8.00976 l 128.75195,20.64062 c 4.79496,12.14836 16.65489,20.79493 30.46485,20.79492 18.02311,0 32.74023,-14.71907 32.74023,-32.74218 0,-18.02312 -14.71712,-32.74024 -32.74023,-32.74024 -7.43125,0 -14.29701,2.50683 -19.80469,6.71094 l -140.78516,-5.04102 c -3.36557,-3.82905 -8.28052,-6.26757 -13.74804,-6.26757 z m 0,7 c 6.29745,0 11.32812,5.03067 11.32812,11.32812 0,6.29745 -5.03067,11.32617 -11.32812,11.32617 -6.29745,0 -11.32813,-5.02872 -11.32813,-11.32617 0,-6.29745 5.03068,-11.32812 11.32813,-11.32812 z m 15.99804,2.43164 135.18164,4.80859 c -5.9149,5.92973 -9.58398,14.10143 -9.58398,23.09766 0,2.54733 0.30354,5.0251 0.85937,7.4082 l -125.22656,-20.24609 c 0.6984,-1.93355 1.09961,-4.00512 1.09961,-6.17188 0,-3.22506 -0.85177,-6.2567 -2.33008,-8.89648 z m 158.33985,5.16601 c 12.61871,0 22.74023,10.12153 22.74023,22.74024 0,12.61871 -10.12152,22.74219 -22.74023,22.74218 -12.61872,0 -22.74219,-10.12347 -22.74219,-22.74218 0,-12.61871 10.12347,-22.74024 22.74219,-22.74024 z"
           id="path4450" />
        <path
           inkscape:connector-curvature="0"
           style="color:#000000;clip-rule:nonzero;display:inline;overflow:visible;visibility:visible;opacity:1;isolation:auto;mix-blend-mode:normal;color-interpolation:sRGB;color-interpolation-filters:linearRGB;solid-color:#000000;solid-opacity:1;fill:#202020;fill-opacity:1;fill-rule:nonzero;stroke:none;stroke-width:0.45261919;stroke-linecap:round;stroke-linejoin:round;stroke-miterlimit:4;stroke-dasharray:none;stroke-dashoffset:0;stroke-opacity:1;color-rendering:auto;image-rendering:auto;shape-rendering:auto;text-rendering:auto;enable-background:accumulate"
           d="m -442.5332,308.68359 a 7.6524978,7.6524973 0 0 0 -7.65235,7.65235 7.6524978,7.6524973 0 0 0 0.34766,2.2539 l 13.54297,63.01368 13.97265,-4.15235 -12.66211,-62.34961 a 7.6524978,7.6524973 0 0 0 -0.0684,-0.33398 l -0.125,-0.61914 -0.0254,0.006 a 7.6524978,7.6524973 0 0 0 -7.33008,-5.47071 z"
           id="path4488" />
        <path
           inkscape:connector-curvature="0"
           transform="matrix(0.95871154,-0.28438034,0.28438034,0.95871154,0,0)"
           style="opacity:1;fill:#cbc7c4;fill-opacity:1;stroke:none;stroke-width:7;stroke-linejoin:round;stroke-miterlimit:4;stroke-dasharray:none;stroke-dashoffset:0;stroke-opacity:1"
           d="m -533.39815,239.68033 28.80745,0 c 1.00581,0 1.81554,0.80973 1.81554,1.81553 l 0,2.37934 c 0,1.00581 -0.80973,1.81554 -1.81554,1.81554 l -28.80745,0 c -1.00581,0 -1.81553,-0.80973 -1.81553,-1.81554 l 0,-2.37934 c 0,-1.0058 0.80972,-1.81553 1.81553,-1.81553 z"
           id="rect4494" />
        <path
           inkscape:connector-curvature="0"
           transform="matrix(0.95298182,-0.30302748,0.30302748,0.95298182,0,0)"
           style="opacity:1;fill:#cbc7c4;fill-opacity:1;stroke:none;stroke-width:7;stroke-linejoin:round;stroke-miterlimit:4;stroke-dasharray:none;stroke-dashoffset:0;stroke-opacity:1"
           d="m -524.89984,-45.999722 15.20279,0 0,5.303301 -15.20279,0 z"
           id="rect4496" />
        <path
           style="fill:#0c0c0c;fill-opacity:1;fill-rule:evenodd;stroke:none;stroke-width:1px;stroke-linecap:butt;stroke-linejoin:miter;stroke-opacity:1"
           d="m -565.25,44.112208 c -3.48767,0.797818 -8.47678,1.361498 -9.625,4.75 -1.26782,3.741462 2.81545,7.513908 5.25,10.625 2.82424,3.609075 6.14814,7.438656 10.5,8.875 4.32171,1.426395 9.13907,-0.108022 13.625,-0.875 8.25639,-1.411629 15.92941,-5.410886 24.1875,-6.8125 8.99292,-1.526333 18.29193,-0.334127 27.3125,-1.6875 6.78106,-1.017375 26.87111,-0.554344 20,-4.8125 -6.40673,-3.970368 -31.76543,-7.994484 -48,-9.6875 -14.33945,-1.495384 -29.19582,-3.589948 -43.25,-0.375 z"
           id="path4498"
           inkscape:connector-curvature="0"
           sodipodi:nodetypes="aaaaaaasaa" />
      </g>
    </g>
  </g>
</svg>
