<?xml version="1.0" encoding="UTF-8" standalone="no"?>
<!-- Created with Inkscape (http://www.inkscape.org/) -->

<svg
   xmlns:dc="http://purl.org/dc/elements/1.1/"
   xmlns:cc="http://creativecommons.org/ns#"
   xmlns:rdf="http://www.w3.org/1999/02/22-rdf-syntax-ns#"
   xmlns:svg="http://www.w3.org/2000/svg"
   xmlns="http://www.w3.org/2000/svg"
   xmlns:sodipodi="http://sodipodi.sourceforge.net/DTD/sodipodi-0.dtd"
   xmlns:inkscape="http://www.inkscape.org/namespaces/inkscape"
   width="22.781557mm"
   height="65.616669mm"
   viewBox="0 0 80.722054 232.5"
   id="svg8924"
   version="1.1"
   inkscape:version="0.92.1 r"
   sodipodi:docname="isabel.svg"
   inkscape:export-filename="/home/fundacion/Documentos/Megamente/img/quien-soy/ejercicio33/isabel.png"
   inkscape:export-xdpi="95.999992"
   inkscape:export-ydpi="95.999992">
  <defs
     id="defs8926" />
  <sodipodi:namedview
     id="base"
     pagecolor="#ffffff"
     bordercolor="#666666"
     borderopacity="1.0"
     inkscape:pageopacity="0.0"
     inkscape:pageshadow="2"
     inkscape:zoom="1.4"
     inkscape:cx="-265.51393"
     inkscape:cy="94.714505"
     inkscape:document-units="px"
     inkscape:current-layer="layer1"
     showgrid="false"
     fit-margin-top="0"
     fit-margin-left="0"
     fit-margin-right="0"
     fit-margin-bottom="0"
     inkscape:window-width="1366"
     inkscape:window-height="699"
     inkscape:window-x="0"
     inkscape:window-y="32"
     inkscape:window-maximized="1" />
  <metadata
     id="metadata8929">
    <rdf:RDF>
      <cc:Work
         rdf:about="">
        <dc:format>image/svg+xml</dc:format>
        <dc:type
           rdf:resource="http://purl.org/dc/dcmitype/StillImage" />
        <dc:title></dc:title>
      </cc:Work>
    </rdf:RDF>
  </metadata>
  <g
     inkscape:label="Capa 1"
     inkscape:groupmode="layer"
     id="layer1"
     transform="translate(-24.885505,-190.03449)">
    <g
       id="g1245"
       transform="matrix(1.6,0,0,1.6,-14.931304,-253.52071)"
       style="stroke-width:0.625">
      <ellipse
         ry="26.565794"
         rx="20.862402"
         cy="355.12503"
         cx="50.53326"
         id="path4886"
         style="color:#000000;clip-rule:nonzero;display:inline;overflow:visible;visibility:visible;opacity:1;isolation:auto;mix-blend-mode:normal;color-interpolation:sRGB;color-interpolation-filters:linearRGB;solid-color:#000000;solid-opacity:1;fill:#004455;fill-opacity:1;fill-rule:nonzero;stroke:none;stroke-width:0.2812497;stroke-linecap:round;stroke-linejoin:round;stroke-miterlimit:4;stroke-dasharray:none;stroke-dashoffset:0;stroke-opacity:1;color-rendering:auto;image-rendering:auto;shape-rendering:auto;text-rendering:auto;enable-background:accumulate" />
      <g
         transform="matrix(0.57211905,0,0,-0.57211905,61.325161,368.67129)"
         id="g180"
         style="stroke-width:1.36553752">
        <path
           inkscape:connector-curvature="0"
           id="path182"
           style="fill:#fcdabe;fill-opacity:1;fill-rule:evenodd;stroke:none;stroke-width:1.36553752"
           d="m 0,0 1.891,25.454 c 1.636,6.744 10.463,6.593 9.185,-1.768 L 8.677,-1.223 Z" />
      </g>
      <g
         transform="matrix(0.57211905,0,0,-0.57211905,49.885986,277.92675)"
         id="g184"
         style="stroke-width:1.36553752">
        <path
           inkscape:connector-curvature="0"
           id="path186"
           style="fill:#e8972d;fill-opacity:1;fill-rule:evenodd;stroke:none;stroke-width:1.36553752"
           d="m 0,0 c -13.678,4.808 -25.799,-5.368 -32.534,-14.826 -22.28,-31.289 -1.627,-98.686 32.917,-98.686 33.892,0 54.252,64.873 33.898,96.873 C 27.617,-6.163 15.881,4.808 0,0" />
      </g>
      <g
         transform="matrix(0.57211905,0,0,-0.57211905,40.531061,333.84395)"
         id="g188"
         style="stroke-width:1.36553752">
        <path
           inkscape:connector-curvature="0"
           id="path190"
           style="fill:#4e6078;fill-opacity:1;fill-rule:evenodd;stroke:none;stroke-width:1.36553752"
           d="m 0,0 -5.284,-35.936 c -0.644,-4.383 -9.376,-1.982 -9.292,2.069 l 0.691,32.788 C -13.664,9.472 1.457,9.906 0,0" />
      </g>
      <g
         transform="matrix(0.57211905,0,0,-0.57211905,59.585828,333.84395)"
         id="g192"
         style="stroke-width:1.36553752">
        <path
           inkscape:connector-curvature="0"
           id="path194"
           style="fill:#4e6078;fill-opacity:1;fill-rule:evenodd;stroke:none;stroke-width:1.36553752"
           d="m 0,0 5.284,-35.936 c 0.644,-4.383 9.376,-1.982 9.292,2.07 L 13.887,-1.079 C 13.665,9.471 -1.457,9.906 0,0" />
      </g>
      <g
         transform="matrix(0.57211905,0,0,-0.57211905,62.539289,329.74803)"
         id="g196"
         style="stroke-width:1.36553752">
        <path
           inkscape:connector-curvature="0"
           id="path198"
           style="fill:#fcdabe;fill-opacity:1;fill-rule:evenodd;stroke:none;stroke-width:1.36553752"
           d="m 0,0 -8.326,-62.257 h -13.705 -14.2 L -43.465,0 Z" />
      </g>
      <g
         transform="matrix(0.57211905,0,0,-0.57211905,42.326737,414.01287)"
         id="g200"
         style="stroke-width:1.36553752">
        <path
           inkscape:connector-curvature="0"
           id="path202"
           style="fill:#fcdabe;fill-opacity:1;fill-rule:evenodd;stroke:none;stroke-width:1.36553752"
           d="m 0,0 c -3.09,-4.474 -7.206,-7.048 -8.235,-10.275 -0.581,-1.826 -0.148,-4.133 1.706,-4.363 7.978,-0.987 10.297,2.933 13.139,3.729 C 11.522,-9.531 11.647,-6.706 9.661,0 7.673,6.706 2.487,4.185 0,0" />
      </g>
      <g
         transform="matrix(0.57211905,0,0,-0.57211905,39.66199,365.36668)"
         id="g204"
         style="stroke-width:1.36553752">
        <path
           inkscape:connector-curvature="0"
           id="path206"
           style="fill:#fcdabe;fill-opacity:1;fill-rule:evenodd;stroke:none;stroke-width:1.36553752"
           d="M 0,0 H 36.508 L 31.851,-85.028 H 22.19 l -1.965,64.67 c -0.155,5.128 -3.786,5.158 -3.942,0 l -1.964,-64.67 H 4.658 Z" />
      </g>
      <g
         transform="matrix(0.57211905,0,0,-0.57211905,61.745875,368.23368)"
         id="g208"
         style="stroke-width:1.36553752">
        <path
           inkscape:connector-curvature="0"
           id="path210"
           style="fill:#fcdabe;fill-opacity:1;fill-rule:evenodd;stroke:none;stroke-width:1.36553752"
           d="m 0,0 v 0 c -0.352,0.237 -0.793,-0.239 -0.825,-0.656 l -0.46,-6.162 c -0.032,-0.417 0.369,-0.624 0.721,-0.861 V -7.68 c 0.353,-0.237 0.793,0.239 0.825,0.657 l 0.46,6.161 C 0.753,-0.445 0.424,-0.056 0,0" />
      </g>
      <g
         transform="matrix(0.57211905,0,0,-0.57211905,61.264791,369.7411)"
         id="g212"
         style="stroke-width:1.36553752">
        <path
           inkscape:connector-curvature="0"
           id="path214"
           style="fill:#fcdabe;fill-opacity:1;fill-rule:evenodd;stroke:none;stroke-width:1.36553752"
           d="M 0,0 0.202,2.65 8.956,1.39 8.755,-1.26 C 7.907,-9.239 -0.993,-9.688 0,0" />
      </g>
      <g
         transform="matrix(0.57211905,0,0,-0.57211905,50.105085,310.44451)"
         id="g216"
         style="stroke-width:1.36553752">
        <path
           inkscape:connector-curvature="0"
           id="path218"
           style="fill:#fcdabe;fill-opacity:1;fill-rule:evenodd;stroke:none;stroke-width:1.36553752"
           d="m 0,0 v 0 c 5.778,0 10.504,-4.726 10.504,-10.503 v -22.805 c 0,-5.777 -4.726,-10.503 -10.504,-10.503 -5.776,0 -10.502,4.726 -10.502,10.503 v 22.805 C -10.502,-4.726 -5.776,0 0,0" />
      </g>
      <g
         transform="matrix(0.57211905,0,0,-0.57211905,56.114348,325.31319)"
         id="g220"
         style="stroke-width:1.36553752">
        <path
           inkscape:connector-curvature="0"
           id="path222"
           style="fill:#e0ba9b;fill-opacity:1;fill-rule:evenodd;stroke:none;stroke-width:1.36553752"
           d="M 0,0 V 0 C 0,-8.77 -21.005,-8.77 -21.005,0 -21.005,8.769 0,8.769 0,0" />
      </g>
      <g
         transform="matrix(0.57211905,0,0,-0.57211905,50.105085,279.30882)"
         id="g224"
         style="stroke-width:1.36553752">
        <path
           inkscape:connector-curvature="0"
           id="path226"
           style="fill:#fcdabe;fill-opacity:1;fill-rule:evenodd;stroke:none;stroke-width:1.36553752"
           d="M 0,0 C -45.955,0 -42.435,-43.08 -33.667,-58.237 -21.701,-78.922 -5.608,-83.499 0,-83.499 c 5.61,0 21.703,4.577 33.669,25.262 C 42.437,-43.08 45.956,0 0,0" />
      </g>
      <g
         transform="matrix(0.57211905,0,0,-0.57211905,67.461344,333.66888)"
         id="g236"
         style="stroke-width:1.36553752">
        <path
           inkscape:connector-curvature="0"
           id="path238"
           style="fill:#4e6078;fill-opacity:1;fill-rule:evenodd;stroke:none;stroke-width:1.36553752"
           d="m 0,0 0.256,-7.821 -9.868,-3.393 -2.47,-44.19 H -48.59 l -2.432,43.535 -10.08,3.607 0.145,6.877 C -43.104,-6.818 -24.276,-11.004 0,0" />
      </g>
      <g
         transform="matrix(0.57211905,0,0,-0.57211905,39.29652,358.83325)"
         id="g240"
         style="stroke-width:1.36553752">
        <path
           inkscape:connector-curvature="0"
           id="path242"
           style="fill:#1c75bc;fill-opacity:1;fill-rule:evenodd;stroke:none;stroke-width:1.36553752"
           d="M 0,0 2.262,-52.148 H 35.973 L 37.786,0 Z" />
      </g>
      <g
         transform="matrix(0.57211905,0,0,-0.57211905,57.895653,414.01287)"
         id="g244"
         style="stroke-width:1.36553752">
        <path
           inkscape:connector-curvature="0"
           id="path246"
           style="fill:#fcdabe;fill-opacity:1;fill-rule:evenodd;stroke:none;stroke-width:1.36553752"
           d="m 0,0 c 3.092,-4.474 7.208,-7.048 8.237,-10.275 0.581,-1.826 0.148,-4.133 -1.706,-4.363 -7.979,-0.987 -10.298,2.933 -13.139,3.729 C -11.52,-9.531 -11.645,-6.706 -9.659,0 -7.671,6.706 -2.485,4.185 0,0" />
      </g>
      <g
         transform="matrix(0.57211905,0,0,-0.57211905,26.801852,300.34334)"
         id="g248"
         style="stroke-width:1.36553752">
        <path
           inkscape:connector-curvature="0"
           id="path250"
           style="fill:#fcdabe;fill-opacity:1;fill-rule:evenodd;stroke:none;stroke-width:1.36553752"
           d="M 0,0 C 2.99,0.742 6.621,-3.255 8.111,-8.928 9.6,-14.6 8.387,-19.8 5.397,-20.542 c -2.989,-0.743 -6.621,3.255 -8.11,8.928 C -4.203,-5.942 -2.988,-0.742 0,0" />
      </g>
      <g
         transform="matrix(0.57211905,0,0,-0.57211905,73.419529,300.34334)"
         id="g252"
         style="stroke-width:1.36553752">
        <path
           inkscape:connector-curvature="0"
           id="path254"
           style="fill:#fcdabe;fill-opacity:1;fill-rule:evenodd;stroke:none;stroke-width:1.36553752"
           d="M 0,0 C -2.988,0.742 -6.619,-3.255 -8.109,-8.928 -9.6,-14.6 -8.385,-19.8 -5.395,-20.542 c 2.988,-0.743 6.619,3.255 8.109,8.928 C 4.205,-5.942 2.99,-0.742 0,0" />
      </g>
      <g
         transform="matrix(0.57211905,0,0,-0.57211905,57.129928,307.80229)"
         id="g256"
         style="stroke-width:1.36553752">
        <path
           inkscape:connector-curvature="0"
           id="path258"
           style="fill:#425156;fill-opacity:1;fill-rule:evenodd;stroke:none;stroke-width:1.36553752"
           d="m 0,0 c 1.569,0 2.85,2.28 2.85,5.077 0,2.797 -1.281,5.078 -2.85,5.078 -1.569,0 -2.85,-2.281 -2.85,-5.078 C -2.85,2.28 -1.569,0 0,0" />
      </g>
      <g
         transform="matrix(0.57211905,0,0,-0.57211905,43.081248,307.80229)"
         id="g260"
         style="stroke-width:1.36553752">
        <path
           inkscape:connector-curvature="0"
           id="path262"
           style="fill:#425156;fill-opacity:1;fill-rule:evenodd;stroke:none;stroke-width:1.36553752"
           d="m 0,0 c 1.569,0 2.85,2.28 2.85,5.077 0,2.797 -1.281,5.078 -2.85,5.078 -1.569,0 -2.851,-2.281 -2.851,-5.078 C -2.851,2.28 -1.569,0 0,0" />
      </g>
      <g
         transform="matrix(0.57211905,0,0,-0.57211905,58.588695,315.41886)"
         id="g264"
         style="stroke-width:1.36553752">
        <path
           inkscape:connector-curvature="0"
           id="path266"
           style="fill:#bf9470;fill-opacity:1;fill-rule:evenodd;stroke:none;stroke-width:1.36553752"
           d="M 0,0 C -5.526,-5.502 -23.795,-5.431 -29.655,0 -21.523,-3.389 -8.977,-3.339 0,0" />
      </g>
      <g
         transform="matrix(0.57211905,0,0,-0.57211905,53.403511,311.08746)"
         id="g268"
         style="stroke-width:1.36553752">
        <path
           inkscape:connector-curvature="0"
           id="path270"
           style="fill:#e0ba9b;fill-opacity:1;fill-rule:evenodd;stroke:none;stroke-width:1.36553752"
           d="M 0,0 C -2.212,-5.484 -9.317,-5.388 -11.529,0 -8.29,-2.995 -3.414,-3.135 0,0" />
      </g>
      <g
         transform="matrix(0.57211905,0,0,-0.57211905,34.292538,295.3563)"
         id="g272"
         style="stroke-width:1.36553752">
        <path
           inkscape:connector-curvature="0"
           id="path274"
           style="fill:#e8972d;fill-opacity:1;fill-rule:evenodd;stroke:none;stroke-width:1.36553752"
           d="m 0,0 c -6.959,-6.098 -6.52,-14.909 -6.048,-21.018 0.474,-6.109 -2.215,-1.798 -3.861,2.992 -1.645,4.79 -2.819,9.617 -2.448,15.023 C -11.989,2.403 3.319,11.057 0,0" />
      </g>
      <g
         transform="matrix(0.57211905,0,0,-0.57211905,65.942208,295.3563)"
         id="g276"
         style="stroke-width:1.36553752">
        <path
           inkscape:connector-curvature="0"
           id="path278"
           style="fill:#e8972d;fill-opacity:1;fill-rule:evenodd;stroke:none;stroke-width:1.36553752"
           d="m 0,0 c 6.959,-6.098 6.522,-14.909 6.048,-21.018 -0.472,-6.109 2.217,-1.798 3.861,2.992 1.647,4.79 2.819,9.617 2.45,15.023 C 11.991,2.403 -3.318,11.057 0,0" />
      </g>
      <g
         transform="matrix(0.57211905,0,0,-0.57211905,39.097926,417.67632)"
         id="g280"
         style="stroke-width:1.36553752">
        <path
           inkscape:connector-curvature="0"
           id="path282"
           style="fill:#e3687f;fill-opacity:1;fill-rule:evenodd;stroke:none;stroke-width:1.36553752"
           d="m 0,0 c -1.201,-1.3 -2.163,-2.529 -2.591,-3.872 -1.503,-4.717 2.698,-4.841 6.13,-4.398 4.576,0.59 6.485,3.14 8.715,3.764 4.412,1.239 4.962,3.644 3.587,8.982 C 15.652,-0.181 11.296,-1.447 6.46,-3.741 1.623,-6.036 -2.276,-3.764 0,0" />
      </g>
      <g
         transform="matrix(0.57211905,0,0,-0.57211905,61.126567,417.67632)"
         id="g284"
         style="stroke-width:1.36553752">
        <path
           inkscape:connector-curvature="0"
           id="path286"
           style="fill:#e3687f;fill-opacity:1;fill-rule:evenodd;stroke:none;stroke-width:1.36553752"
           d="m 0,0 c 1.201,-1.3 2.163,-2.529 2.591,-3.872 1.72,-5.4 -4.411,-4.992 -7.877,-4.053 -3.36,0.911 -5.044,2.881 -6.966,3.419 -4.412,1.239 -4.964,3.644 -3.589,8.982 0.189,-4.657 4.545,-5.923 9.381,-8.217 C -1.623,-6.036 2.276,-3.764 0,0" />
      </g>
      <g
         transform="matrix(0.57211905,0,0,-0.57211905,54.046436,318.37745)"
         id="g288"
         style="stroke-width:1.36553752">
        <path
           inkscape:connector-curvature="0"
           id="path290"
           style="fill:#e0ba9b;fill-opacity:1;fill-rule:evenodd;stroke:none;stroke-width:1.36553752"
           d="M 0,0 C -2.566,-3.388 -11.055,-3.335 -13.776,0 -9.806,-1.571 -3.969,-1.577 0,0" />
      </g>
      <g
         transform="matrix(0.57211905,0,0,-0.57211905,56.39487,298.38092)"
         id="g292"
         style="stroke-width:1.36553752">
        <path
           inkscape:connector-curvature="0"
           id="path294"
           style="fill:#e8972d;fill-opacity:1;fill-rule:evenodd;stroke:none;stroke-width:1.36553752"
           d="m 0,0 c 2.795,0.658 6.007,-0.865 7.383,-3.288 0.691,-1.214 0.22,-1.36 -0.249,-0.617 -1.82,2.886 -4.548,3.162 -6.959,2.66 C -1.1,-1.51 -1.43,-0.336 0,0" />
      </g>
      <g
         transform="matrix(0.57211905,0,0,-0.57211905,43.828618,298.38092)"
         id="g296"
         style="stroke-width:1.36553752">
        <path
           inkscape:connector-curvature="0"
           id="path298"
           style="fill:#e8972d;fill-opacity:1;fill-rule:evenodd;stroke:none;stroke-width:1.36553752"
           d="m 0,0 c -2.795,0.658 -6.007,-0.865 -7.385,-3.288 -0.689,-1.214 -0.218,-1.36 0.251,-0.617 1.82,2.886 4.548,3.162 6.957,2.66 C 1.1,-1.51 1.43,-0.336 0,0" />
      </g>
      <g
         transform="matrix(0.57211905,0,0,-0.57211905,61.947535,359.99671)"
         id="g304"
         style="stroke-width:1.36553752">
        <path
           inkscape:connector-curvature="0"
           id="path306"
           style="fill:#4e6078;fill-opacity:1;fill-rule:evenodd;stroke:none;stroke-width:1.36553752"
           d="m 0,0 1.262,14.097 c 1.633,6.745 10.185,2.787 8.907,-5.573 L 9.405,-0.699 Z" />
      </g>
      <g
         transform="matrix(0.57211905,0,0,-0.57211905,37.671839,329.74803)"
         id="g308"
         style="stroke-width:1.36553752">
        <path
           inkscape:connector-curvature="0"
           id="path310"
           style="fill:#e3687f;fill-opacity:1;fill-rule:evenodd;stroke:none;stroke-width:1.36553752"
           d="M 0,0 1.666,-29.819 2.84,-50.838 H 40.626 L 41.753,-30.629 43.465,0 32.235,0.432 21.646,-34.555 11.239,0 Z" />
      </g>
      <g
         transform="matrix(0.57211905,0,0,-0.57211905,50.223811,286.05668)"
         id="g312"
         style="stroke-width:1.36553752">
        <path
           inkscape:connector-curvature="0"
           id="path314"
           style="fill:#e8972d;fill-opacity:1;fill-rule:evenodd;stroke:none;stroke-width:1.36553752"
           d="m 0,0 c 25.475,-5.826 32.797,-21.772 34.25,-32.742 1.879,1.579 5.474,6.19 5.386,11.534 C 39.49,-12.305 34.689,-1.73 27.259,4.524 19.164,11.34 6.252,15.928 0,13.751 -6.252,15.928 -19.164,11.34 -27.259,4.524 c -7.43,-6.254 -12.231,-16.829 -12.377,-25.732 -0.088,-5.344 3.507,-9.955 5.386,-11.534 C -32.797,-21.772 -25.473,-5.826 0,0" />
      </g>
      <g
         transform="matrix(0.57211905,0,0,-0.57211905,37.951308,335.05913)"
         id="g316"
         style="stroke-width:1.36553752">
        <path
           inkscape:connector-curvature="0"
           id="path318"
           style="fill:#fcc379;fill-opacity:1;fill-rule:evenodd;stroke:none;stroke-width:1.36553752"
           d="M 0,0 C -22.253,66.233 10.718,85.127 21.451,85.651 3.559,83.934 -36.271,63.897 0,0" />
      </g>
      <g
         transform="matrix(0.57211905,0,0,-0.57211905,62.496312,335.05913)"
         id="g320"
         style="stroke-width:1.36553752">
        <path
           inkscape:connector-curvature="0"
           id="path322"
           style="fill:#fcc379;fill-opacity:1;fill-rule:evenodd;stroke:none;stroke-width:1.36553752"
           d="M 0,0 C 22.253,66.233 -10.717,85.127 -21.451,85.651 -3.559,83.934 36.272,63.897 0,0" />
      </g>
      <g
         id="g1141"
         style="stroke-width:0.625">
        <g
           id="g4393"
           style="stroke-width:2.21583772"
           transform="matrix(0.08448147,0,0,0.08448147,56.758032,349.66291)">
          <rect
             ry="22.752092"
             y="713.98492"
             x="-349.59665"
             height="129.40251"
             width="367.2597"
             id="rect4147"
             style="opacity:1;fill:#fff5da;fill-opacity:1;stroke:none;stroke-width:6.5807066;stroke-linejoin:round;stroke-miterlimit:4;stroke-dasharray:none;stroke-dashoffset:0;stroke-opacity:1" />
          <circle
             r="24"
             cy="778.34943"
             cx="-296.21835"
             id="path4149"
             style="color:#000000;clip-rule:nonzero;display:inline;overflow:visible;visibility:visible;opacity:1;isolation:auto;mix-blend-mode:normal;color-interpolation:sRGB;color-interpolation-filters:linearRGB;solid-color:#000000;solid-opacity:1;fill:#ef4a24;fill-opacity:1;fill-rule:nonzero;stroke:none;stroke-width:0.99712592;stroke-linecap:round;stroke-linejoin:round;stroke-miterlimit:4;stroke-dasharray:none;stroke-dashoffset:0;stroke-opacity:1;color-rendering:auto;image-rendering:auto;shape-rendering:auto;text-rendering:auto;enable-background:accumulate" />
          <rect
             ry="0.048993785"
             y="800.59961"
             x="-246.12007"
             height="15.38688"
             width="221.87642"
             id="rect4151"
             style="opacity:1;fill:#567371;fill-opacity:1;stroke:none;stroke-width:6.64751339;stroke-linejoin:round;stroke-miterlimit:4;stroke-dasharray:none;stroke-dashoffset:0;stroke-opacity:1" />
        </g>
        <path
           style="fill:none;fill-rule:evenodd;stroke:#000000;stroke-width:1.31038058;stroke-linecap:butt;stroke-linejoin:miter;stroke-miterlimit:4;stroke-dasharray:none;stroke-opacity:1"
           d="m 54.016837,362.57288 c -6.175383,2.40883 -8.589128,13.2934 -9.59935,20.88978 -1.039561,7.81701 9.536118,19.1744 3.916658,23.33101 l -4.369021,3.23168"
           id="path4408"
           inkscape:connector-curvature="0"
           sodipodi:nodetypes="casc" />
        <g
           id="g4398"
           transform="matrix(0.05479024,0,0,0.05479024,41.991697,307.65335)"
           style="stroke-width:3.4166162">
          <path
             id="path4153"
             d="m 125.30273,919.02148 c -10e-4,0 -8.9e-4,0.002 -0.002,0.002 a 69.771431,69.771431 0 0 0 -69.73828,69.76953 69.771431,69.771431 0 0 0 69.77148,69.77149 69.771431,69.771431 0 0 0 52.06836,-23.4317 h 60.06055 a 69.771431,69.771431 0 0 0 52.04688,23.4317 69.771431,69.771431 0 0 0 69.77148,-69.77149 69.771431,69.771431 0 0 0 -69.77148,-69.77149 69.771431,69.771431 0 0 0 -0.14063,0.006 c -0.003,-4.6e-4 -0.001,-0.006 -0.004,-0.006 h -164.03125 -0.0312 z"
             style="color:#000000;clip-rule:nonzero;display:inline;overflow:visible;visibility:visible;opacity:1;isolation:auto;mix-blend-mode:normal;color-interpolation:sRGB;color-interpolation-filters:linearRGB;solid-color:#000000;solid-opacity:1;fill:#fff5da;fill-opacity:1;fill-rule:nonzero;stroke:none;stroke-width:1.56184196;stroke-linecap:round;stroke-linejoin:round;stroke-miterlimit:4;stroke-dasharray:none;stroke-dashoffset:0;stroke-opacity:1;color-rendering:auto;image-rendering:auto;shape-rendering:auto;text-rendering:auto;enable-background:accumulate"
             inkscape:connector-curvature="0" />
          <ellipse
             ry="9.782115"
             rx="9.782114"
             cy="985.69214"
             cx="321.24881"
             id="path4318-3"
             style="color:#000000;clip-rule:nonzero;display:inline;overflow:visible;visibility:visible;opacity:1;isolation:auto;mix-blend-mode:normal;color-interpolation:sRGB;color-interpolation-filters:linearRGB;solid-color:#000000;solid-opacity:1;fill:#48ba6c;fill-opacity:1;fill-rule:nonzero;stroke:none;stroke-width:1.48886085;stroke-linecap:round;stroke-linejoin:round;stroke-miterlimit:4;stroke-dasharray:none;stroke-dashoffset:0;stroke-opacity:1;color-rendering:auto;image-rendering:auto;shape-rendering:auto;text-rendering:auto;enable-background:accumulate" />
          <rect
             ry="4.8422308"
             y="1002.3597"
             x="170.96832"
             height="10.354064"
             width="25.253813"
             id="rect4347"
             style="opacity:1;fill:#3d201f;fill-opacity:1;stroke:none;stroke-width:10.24984932;stroke-linejoin:round;stroke-miterlimit:4;stroke-dasharray:none;stroke-dashoffset:0;stroke-opacity:1" />
          <rect
             ry="4.8422308"
             y="1002.3597"
             x="219.47595"
             height="10.354064"
             width="24.496199"
             id="rect4347-5"
             style="opacity:1;fill:#3d201f;fill-opacity:1;stroke:none;stroke-width:10.24984932;stroke-linejoin:round;stroke-miterlimit:4;stroke-dasharray:none;stroke-dashoffset:0;stroke-opacity:1" />
          <path
             id="rect4364"
             d="m 111.875,954.125 v 18.6875 H 93.1875 V 991.5 h 18.6875 v 18.6875 h 18.6875 V 991.5 H 149.25 V 972.8125 H 130.5625 V 954.125 Z"
             style="opacity:1;fill:#3c2223;fill-opacity:1;stroke:none;stroke-width:10.24984932;stroke-linejoin:round;stroke-miterlimit:4;stroke-dasharray:none;stroke-dashoffset:0;stroke-opacity:1"
             inkscape:connector-curvature="0" />
          <ellipse
             ry="9.782115"
             rx="9.782114"
             cy="1005.9155"
             cx="300.19385"
             id="path4318-5"
             style="color:#000000;clip-rule:nonzero;display:inline;overflow:visible;visibility:visible;opacity:1;isolation:auto;mix-blend-mode:normal;color-interpolation:sRGB;color-interpolation-filters:linearRGB;solid-color:#000000;solid-opacity:1;fill:#2e92bb;fill-opacity:1;fill-rule:nonzero;stroke:none;stroke-width:1.48886085;stroke-linecap:round;stroke-linejoin:round;stroke-miterlimit:4;stroke-dasharray:none;stroke-dashoffset:0;stroke-opacity:1;color-rendering:auto;image-rendering:auto;shape-rendering:auto;text-rendering:auto;enable-background:accumulate" />
          <ellipse
             ry="9.782115"
             rx="9.782114"
             cy="985.69214"
             cx="279.42447"
             id="path4318-7"
             style="color:#000000;clip-rule:nonzero;display:inline;overflow:visible;visibility:visible;opacity:1;isolation:auto;mix-blend-mode:normal;color-interpolation:sRGB;color-interpolation-filters:linearRGB;solid-color:#000000;solid-opacity:1;fill:#f25a59;fill-opacity:1;fill-rule:nonzero;stroke:none;stroke-width:1.48886085;stroke-linecap:round;stroke-linejoin:round;stroke-miterlimit:4;stroke-dasharray:none;stroke-dashoffset:0;stroke-opacity:1;color-rendering:auto;image-rendering:auto;shape-rendering:auto;text-rendering:auto;enable-background:accumulate" />
          <ellipse
             ry="9.782115"
             rx="9.782114"
             cy="964.80548"
             cx="300.19385"
             id="path4318"
             style="color:#000000;clip-rule:nonzero;display:inline;overflow:visible;visibility:visible;opacity:1;isolation:auto;mix-blend-mode:normal;color-interpolation:sRGB;color-interpolation-filters:linearRGB;solid-color:#000000;solid-opacity:1;fill:#6654ab;fill-opacity:1;fill-rule:nonzero;stroke:none;stroke-width:1.48886085;stroke-linecap:round;stroke-linejoin:round;stroke-miterlimit:4;stroke-dasharray:none;stroke-dashoffset:0;stroke-opacity:1;color-rendering:auto;image-rendering:auto;shape-rendering:auto;text-rendering:auto;enable-background:accumulate" />
        </g>
      </g>
      <path
         sodipodi:nodetypes="cacssc"
         inkscape:connector-curvature="0"
         id="path4888-5"
         d="m 41.0073,329.74729 c -1.745742,-0.0699 -2.650473,6.06373 -2.790612,9.29596 -0.183454,4.23125 2.586187,12.43969 2.586187,12.43969 0,0 0.999333,-5.70106 1.465297,-8.55724 0.609211,-3.73421 2.279699,-9.25829 2.321972,-12.78039 0.0065,-0.53755 -2.939979,-0.15192 -3.582844,-0.39802 z"
         style="fill:#004455;fill-opacity:1;fill-rule:evenodd;stroke:none;stroke-width:0.625px;stroke-linecap:butt;stroke-linejoin:miter;stroke-opacity:1" />
      <path
         sodipodi:nodetypes="cacssc"
         inkscape:connector-curvature="0"
         id="path4888-7"
         d="m 59.782318,329.72059 c 1.797546,-0.072 2.44876,6.10619 2.548172,9.32788 0.134498,4.35883 -2.662929,12.80882 -2.662929,12.80882 0,0 -1.028988,-5.87024 -1.508779,-8.81116 -0.62729,-3.84502 -2.509973,-9.61434 -2.5535,-13.24095 -0.0067,-0.55351 3.515095,0.16882 4.177036,-0.0846 z"
         style="fill:#004455;fill-opacity:1;fill-rule:evenodd;stroke:none;stroke-width:0.625px;stroke-linecap:butt;stroke-linejoin:miter;stroke-opacity:1" />
      <g
         transform="matrix(0.34173434,-0.45884402,-0.45884402,-0.34173434,50.16914,360.95398)"
         id="g176"
         style="stroke-width:1.36553752">
        <path
           inkscape:connector-curvature="0"
           id="path178"
           style="fill:#fcdabe;fill-opacity:1;fill-rule:evenodd;stroke:none;stroke-width:1.36553752"
           d="m 0,0 -1.891,25.454 c -1.634,6.744 -10.373,5.938 -9.096,-2.424 l 2.31,-24.253 z" />
      </g>
      <g
         transform="matrix(0.36078907,-0.4440174,-0.4440174,-0.36078907,42.971396,356.28024)"
         id="g300"
         style="stroke-width:1.36553752">
        <path
           inkscape:connector-curvature="0"
           id="path302"
           style="fill:#4e6078;fill-opacity:1;fill-rule:evenodd;stroke:none;stroke-width:1.36553752"
           d="m 0,0 -1.428,14.593 c -1.634,6.744 -10.128,4.143 -8.85,-4.218 L -9.405,-0.699 -0.002,0 Z" />
      </g>
      <g
         transform="matrix(0.35239679,-0.4507069,-0.4507069,-0.35239679,50.16914,360.95398)"
         id="g232"
         style="stroke-width:1.36553752">
        <path
           inkscape:connector-curvature="0"
           id="path234"
           style="fill:#fcdabe;fill-opacity:1;fill-rule:evenodd;stroke:none;stroke-width:1.36553752"
           d="M 0,0 -0.2,2.65 -8.956,1.39 -8.755,-1.26 C -7.907,-9.239 0.993,-9.689 0,0" />
      </g>
    </g>
  </g>
</svg>
