<?xml version="1.0" encoding="UTF-8" standalone="no"?>
<!-- Created with Inkscape (http://www.inkscape.org/) -->

<svg
   xmlns:dc="http://purl.org/dc/elements/1.1/"
   xmlns:cc="http://creativecommons.org/ns#"
   xmlns:rdf="http://www.w3.org/1999/02/22-rdf-syntax-ns#"
   xmlns:svg="http://www.w3.org/2000/svg"
   xmlns="http://www.w3.org/2000/svg"
   xmlns:sodipodi="http://sodipodi.sourceforge.net/DTD/sodipodi-0.dtd"
   xmlns:inkscape="http://www.inkscape.org/namespaces/inkscape"
   width="31.10907mm"
   height="89.602013mm"
   viewBox="0 0 110.22899 317.48744"
   id="svg8924"
   version="1.1"
   inkscape:version="0.91 r13725"
   sodipodi:docname="cecilia.svg">
  <defs
     id="defs8926" />
  <sodipodi:namedview
     id="base"
     pagecolor="#ffffff"
     bordercolor="#666666"
     borderopacity="1.0"
     inkscape:pageopacity="0.0"
     inkscape:pageshadow="2"
     inkscape:zoom="0.98994949"
     inkscape:cx="-314.98089"
     inkscape:cy="105.7063"
     inkscape:document-units="px"
     inkscape:current-layer="layer1"
     showgrid="false"
     fit-margin-top="0"
     fit-margin-left="0"
     fit-margin-right="0"
     fit-margin-bottom="0"
     inkscape:window-width="1366"
     inkscape:window-height="710"
     inkscape:window-x="0"
     inkscape:window-y="25"
     inkscape:window-maximized="1" />
  <metadata
     id="metadata8929">
    <rdf:RDF>
      <cc:Work
         rdf:about="">
        <dc:format>image/svg+xml</dc:format>
        <dc:type
           rdf:resource="http://purl.org/dc/dcmitype/StillImage" />
        <dc:title></dc:title>
      </cc:Work>
    </rdf:RDF>
  </metadata>
  <g
     inkscape:label="Capa 1"
     inkscape:groupmode="layer"
     id="layer1"
     transform="translate(-24.885505,-105.04705)">
    <g
       id="g176"
       transform="matrix(1.25,0,0,-1.25,55.268754,304.85093)">
      <path
         d="m 0,0 -1.891,25.454 c -1.634,6.744 -10.373,5.938 -9.096,-2.424 L -8.677,-1.223 0,0 Z"
         style="fill:#fcdabe;fill-opacity:1;fill-rule:evenodd;stroke:none"
         id="path178"
         inkscape:connector-curvature="0" />
    </g>
    <g
       id="g180"
       transform="matrix(1.25,0,0,-1.25,104.50105,304.85093)">
      <path
         d="m 0,0 1.891,25.454 c 1.636,6.744 10.463,6.593 9.185,-1.768 L 8.677,-1.223 0,0 Z"
         style="fill:#fcdabe;fill-opacity:1;fill-rule:evenodd;stroke:none"
         id="path182"
         inkscape:connector-curvature="0" />
    </g>
    <g
       id="g184"
       transform="matrix(1.25,0,0,-1.25,79.508054,106.58682)"
       style="fill:#000000">
      <path
         d="m 0,0 c -13.678,4.808 -25.799,-5.368 -32.534,-14.826 -22.28,-31.289 -1.627,-98.686 32.917,-98.686 33.892,0 54.252,64.873 33.898,96.873 C 27.617,-6.163 15.881,4.808 0,0"
         style="fill:#000000;fill-opacity:1;fill-rule:evenodd;stroke:none"
         id="path186"
         inkscape:connector-curvature="0" />
    </g>
    <g
       id="g188"
       transform="matrix(1.25,0,0,-1.25,59.068854,228.75806)">
      <path
         d="m 0,0 -5.284,-35.936 c -0.644,-4.383 -9.376,-1.982 -9.292,2.069 l 0.691,32.788 C -13.664,9.472 1.457,9.906 0,0"
         style="fill:#4e6078;fill-opacity:1;fill-rule:evenodd;stroke:none"
         id="path190"
         inkscape:connector-curvature="0" />
    </g>
    <g
       id="g192"
       transform="matrix(1.25,0,0,-1.25,100.70085,228.75806)">
      <path
         d="m 0,0 5.284,-35.936 c 0.644,-4.383 9.376,-1.982 9.292,2.07 L 13.887,-1.079 C 13.665,9.471 -1.457,9.906 0,0"
         style="fill:#4e6078;fill-opacity:1;fill-rule:evenodd;stroke:none"
         id="path194"
         inkscape:connector-curvature="0" />
    </g>
    <g
       id="g196"
       transform="matrix(1.25,0,0,-1.25,107.15375,219.80906)">
      <path
         d="m 0,0 -8.326,-62.257 -13.705,0 -14.2,0 L -43.465,0 0,0 Z"
         style="fill:#fcdabe;fill-opacity:1;fill-rule:evenodd;stroke:none"
         id="path198"
         inkscape:connector-curvature="0" />
    </g>
    <g
       id="g200"
       transform="matrix(1.25,0,0,-1.25,62.992154,403.91594)">
      <path
         d="m 0,0 c -3.09,-4.474 -7.206,-7.048 -8.235,-10.275 -0.581,-1.826 -0.148,-4.133 1.706,-4.363 7.978,-0.987 10.297,2.933 13.139,3.729 C 11.522,-9.531 11.647,-6.706 9.661,0 7.673,6.706 2.487,4.185 0,0"
         style="fill:#fcdabe;fill-opacity:1;fill-rule:evenodd;stroke:none"
         id="path202"
         inkscape:connector-curvature="0" />
    </g>
    <g
       id="g204"
       transform="matrix(1.25,0,0,-1.25,57.170054,297.63081)"
       style="fill:#4e6078;fill-opacity:1">
      <path
         d="m 0,0 36.508,0 -4.657,-85.028 -9.661,0 -1.965,64.67 c -0.155,5.128 -3.786,5.158 -3.942,0 l -1.964,-64.67 -9.661,0 L 0,0 Z"
         style="fill:#4e6078;fill-opacity:1;fill-rule:evenodd;stroke:none"
         id="path206"
         inkscape:connector-curvature="0" />
    </g>
    <g
       id="g208"
       transform="matrix(1.25,0,0,-1.25,105.42025,303.89481)">
      <path
         d="m 0,0 0,0 c -0.352,0.237 -0.793,-0.239 -0.825,-0.656 l -0.46,-6.162 c -0.032,-0.417 0.369,-0.624 0.721,-0.861 l 0,-10e-4 c 0.353,-0.237 0.793,0.239 0.825,0.657 l 0.46,6.161 C 0.753,-0.445 0.424,-0.056 0,0"
         style="fill:#fcdabe;fill-opacity:1;fill-rule:evenodd;stroke:none"
         id="path210"
         inkscape:connector-curvature="0" />
    </g>
    <g
       id="g212"
       transform="matrix(1.25,0,0,-1.25,104.36915,307.18831)">
      <path
         d="M 0,0 0.202,2.65 8.956,1.39 8.755,-1.26 C 7.907,-9.239 -0.993,-9.688 0,0"
         style="fill:#fcdabe;fill-opacity:1;fill-rule:evenodd;stroke:none"
         id="path214"
         inkscape:connector-curvature="0" />
    </g>
    <g
       id="g216"
       transform="matrix(1.25,0,0,-1.25,79.986754,177.63357)">
      <path
         d="m 0,0 0,0 c 5.778,0 10.504,-4.726 10.504,-10.503 l 0,-22.805 c 0,-5.777 -4.726,-10.503 -10.504,-10.503 -5.776,0 -10.502,4.726 -10.502,10.503 l 0,22.805 C -10.502,-4.726 -5.776,0 0,0"
         style="fill:#fcdabe;fill-opacity:1;fill-rule:evenodd;stroke:none"
         id="path218"
         inkscape:connector-curvature="0" />
    </g>
    <g
       id="g220"
       transform="matrix(1.25,0,0,-1.25,93.116154,210.11956)">
      <path
         d="M 0,0 0,0 C 0,-8.77 -21.005,-8.77 -21.005,0 -21.005,8.769 0,8.769 0,0"
         style="fill:#e0ba9b;fill-opacity:1;fill-rule:evenodd;stroke:none"
         id="path222"
         inkscape:connector-curvature="0" />
    </g>
    <g
       id="g224"
       transform="matrix(1.25,0,0,-1.25,79.986754,109.60644)">
      <path
         d="M 0,0 C -45.955,0 -42.435,-43.08 -33.667,-58.237 -21.701,-78.922 -5.608,-83.499 0,-83.499 c 5.61,0 21.703,4.577 33.669,25.262 C 42.437,-43.08 45.956,0 0,0"
         style="fill:#fcdabe;fill-opacity:1;fill-rule:evenodd;stroke:none"
         id="path226"
         inkscape:connector-curvature="0" />
    </g>
    <g
       id="g228"
       transform="matrix(1.25,0,0,-1.25,54.349554,303.89581)">
      <path
         d="m 0,0 0.002,0.001 c 0.351,0.238 0.791,-0.239 0.823,-0.656 l 0.46,-6.162 C 1.317,-7.234 0.916,-7.441 0.564,-7.678 l 0,-0.001 c -0.353,-0.237 -0.793,0.239 -0.825,0.657 l -0.46,6.161 C -0.752,-0.444 -0.424,-0.056 0,0"
         style="fill:#fcdabe;fill-opacity:1;fill-rule:evenodd;stroke:none"
         id="path230"
         inkscape:connector-curvature="0" />
    </g>
    <g
       id="g232"
       transform="matrix(1.25,0,0,-1.25,55.400754,307.18831)">
      <path
         d="M 0,0 -0.2,2.65 -8.956,1.39 -8.755,-1.26 C -7.907,-9.239 0.993,-9.689 0,0"
         style="fill:#fcdabe;fill-opacity:1;fill-rule:evenodd;stroke:none"
         id="path234"
         inkscape:connector-curvature="0" />
    </g>
    <g
       id="g236"
       transform="matrix(1.25,0,0,-1.25,117.90775,228.37556)">
      <path
         d="m 0,0 0.256,-7.821 -9.868,-3.393 -2.47,-44.19 -36.508,0 -2.432,43.535 -10.08,3.607 0.145,6.877 C -43.104,-6.818 -24.276,-11.004 0,0"
         style="fill:#4e6078;fill-opacity:1;fill-rule:evenodd;stroke:none"
         id="path238"
         inkscape:connector-curvature="0" />
    </g>
    <g
       id="g244"
       transform="matrix(1.25,0,0,-1.25,97.008054,403.91594)">
      <path
         d="m 0,0 c 3.092,-4.474 7.208,-7.048 8.237,-10.275 0.581,-1.826 0.148,-4.133 -1.706,-4.363 -7.979,-0.987 -10.298,2.933 -13.139,3.729 C -11.52,-9.531 -11.645,-6.706 -9.659,0 -7.671,6.706 -2.485,4.185 0,0"
         style="fill:#fcdabe;fill-opacity:1;fill-rule:evenodd;stroke:none"
         id="path246"
         inkscape:connector-curvature="0" />
    </g>
    <g
       id="g248"
       transform="matrix(1.25,0,0,-1.25,29.072454,155.56394)">
      <path
         d="M 0,0 C 2.99,0.742 6.621,-3.255 8.111,-8.928 9.6,-14.6 8.387,-19.8 5.397,-20.542 c -2.989,-0.743 -6.621,3.255 -8.11,8.928 C -4.203,-5.942 -2.988,-0.742 0,0"
         style="fill:#fcdabe;fill-opacity:1;fill-rule:evenodd;stroke:none"
         id="path250"
         inkscape:connector-curvature="0" />
    </g>
    <g
       id="g252"
       transform="matrix(1.25,0,0,-1.25,130.92555,155.56394)">
      <path
         d="M 0,0 C -2.988,0.742 -6.619,-3.255 -8.109,-8.928 -9.6,-14.6 -8.385,-19.8 -5.395,-20.542 c 2.988,-0.743 6.619,3.255 8.109,8.928 C 4.205,-5.942 2.99,-0.742 0,0"
         style="fill:#fcdabe;fill-opacity:1;fill-rule:evenodd;stroke:none"
         id="path254"
         inkscape:connector-curvature="0" />
    </g>
    <g
       id="g256"
       transform="matrix(1.25,0,0,-1.25,95.335054,171.86069)">
      <path
         d="m 0,0 c 1.569,0 2.85,2.28 2.85,5.077 0,2.797 -1.281,5.078 -2.85,5.078 -1.569,0 -2.85,-2.281 -2.85,-5.078 C -2.85,2.28 -1.569,0 0,0"
         style="fill:#425156;fill-opacity:1;fill-rule:evenodd;stroke:none"
         id="path258"
         inkscape:connector-curvature="0" />
    </g>
    <g
       id="g260"
       transform="matrix(1.25,0,0,-1.25,64.640654,171.86069)">
      <path
         d="m 0,0 c 1.569,0 2.85,2.28 2.85,5.077 0,2.797 -1.281,5.078 -2.85,5.078 -1.569,0 -2.851,-2.281 -2.851,-5.078 C -2.851,2.28 -1.569,0 0,0"
         style="fill:#425156;fill-opacity:1;fill-rule:evenodd;stroke:none"
         id="path262"
         inkscape:connector-curvature="0" />
    </g>
    <g
       id="g264"
       transform="matrix(1.25,0,0,-1.25,98.522254,188.50182)">
      <path
         d="M 0,0 C -5.526,-5.502 -23.795,-5.431 -29.655,0 -21.523,-3.389 -8.977,-3.339 0,0"
         style="fill:#bf9470;fill-opacity:1;fill-rule:evenodd;stroke:none"
         id="path266"
         inkscape:connector-curvature="0" />
    </g>
    <g
       id="g268"
       transform="matrix(1.25,0,0,-1.25,87.193354,179.03832)">
      <path
         d="M 0,0 C -2.212,-5.484 -9.317,-5.388 -11.529,0 -8.29,-2.995 -3.414,-3.135 0,0"
         style="fill:#e0ba9b;fill-opacity:1;fill-rule:evenodd;stroke:none"
         id="path270"
         inkscape:connector-curvature="0" />
    </g>
    <g
       id="g272"
       transform="matrix(1.25,0,0,-1.25,45.438554,144.66794)"
       style="fill:#000000">
      <path
         d="m 0,0 c -6.959,-6.098 -6.52,-14.909 -6.048,-21.018 0.474,-6.109 -2.215,-1.798 -3.861,2.992 -1.645,4.79 -2.819,9.617 -2.448,15.023 C -11.989,2.403 3.319,11.057 0,0"
         style="fill:#000000;fill-opacity:1;fill-rule:evenodd;stroke:none"
         id="path274"
         inkscape:connector-curvature="0" />
    </g>
    <g
       id="g276"
       transform="matrix(1.25,0,0,-1.25,114.58865,144.66794)"
       style="fill:#000000">
      <path
         d="m 0,0 c 6.959,-6.098 6.522,-14.909 6.048,-21.018 -0.472,-6.109 2.217,-1.798 3.861,2.992 1.647,4.79 2.819,9.617 2.45,15.023 C 11.991,2.403 -3.318,11.057 0,0"
         style="fill:#000000;fill-opacity:1;fill-rule:evenodd;stroke:none"
         id="path278"
         inkscape:connector-curvature="0" />
    </g>
    <g
       id="g280"
       transform="matrix(1.25,0,0,-1.25,55.937654,411.92006)">
      <path
         d="m 0,0 c -1.201,-1.3 -2.163,-2.529 -2.591,-3.872 -1.503,-4.717 2.698,-4.841 6.13,-4.398 4.576,0.59 6.485,3.14 8.715,3.764 4.412,1.239 4.962,3.644 3.587,8.982 C 15.652,-0.181 11.296,-1.447 6.46,-3.741 1.623,-6.036 -2.276,-3.764 0,0"
         style="fill:#e3687f;fill-opacity:1;fill-rule:evenodd;stroke:none"
         id="path282"
         inkscape:connector-curvature="0" />
    </g>
    <g
       id="g284"
       transform="matrix(1.25,0,0,-1.25,104.06715,411.92006)">
      <path
         d="m 0,0 c 1.201,-1.3 2.163,-2.529 2.591,-3.872 1.72,-5.4 -4.411,-4.992 -7.877,-4.053 -3.36,0.911 -5.044,2.881 -6.966,3.419 -4.412,1.239 -4.964,3.644 -3.589,8.982 0.189,-4.657 4.545,-5.923 9.381,-8.217 C -1.623,-6.036 2.276,-3.764 0,0"
         style="fill:#e3687f;fill-opacity:1;fill-rule:evenodd;stroke:none"
         id="path286"
         inkscape:connector-curvature="0" />
    </g>
    <g
       id="g288"
       transform="matrix(1.25,0,0,-1.25,88.598054,194.96594)">
      <path
         d="M 0,0 C -2.566,-3.388 -11.055,-3.335 -13.776,0 -9.806,-1.571 -3.969,-1.577 0,0"
         style="fill:#e0ba9b;fill-opacity:1;fill-rule:evenodd;stroke:none"
         id="path290"
         inkscape:connector-curvature="0" />
    </g>
    <g
       id="g292"
       transform="matrix(1.25,0,0,-1.25,93.729054,151.27632)"
       style="fill:#000000">
      <path
         d="m 0,0 c 2.795,0.658 6.007,-0.865 7.383,-3.288 0.691,-1.214 0.22,-1.36 -0.249,-0.617 -1.82,2.886 -4.548,3.162 -6.959,2.66 C -1.1,-1.51 -1.43,-0.336 0,0"
         style="fill:#000000;fill-opacity:1;fill-rule:evenodd;stroke:none"
         id="path294"
         inkscape:connector-curvature="0" />
    </g>
    <g
       id="g296"
       transform="matrix(1.25,0,0,-1.25,66.273554,151.27632)"
       style="fill:#000000">
      <path
         d="m 0,0 c -2.795,0.658 -6.007,-0.865 -7.385,-3.288 -0.689,-1.214 -0.218,-1.36 0.251,-0.617 1.82,2.886 4.548,3.162 6.957,2.66 C 1.1,-1.51 1.43,-0.336 0,0"
         style="fill:#000000;fill-opacity:1;fill-rule:evenodd;stroke:none"
         id="path298"
         inkscape:connector-curvature="0" />
    </g>
    <g
       id="g300"
       transform="matrix(1.25,0,0,-1.25,53.862054,285.89818)">
      <path
         d="m 0,0 -1.428,14.593 c -1.634,6.744 -10.128,4.143 -8.85,-4.218 L -9.405,-0.699 -0.002,0 0,0 Z"
         style="fill:#4e6078;fill-opacity:1;fill-rule:evenodd;stroke:none"
         id="path302"
         inkscape:connector-curvature="0" />
    </g>
    <g
       id="g304"
       transform="matrix(1.25,0,0,-1.25,105.86085,285.89818)">
      <path
         d="m 0,0 1.262,14.097 c 1.633,6.745 10.185,2.787 8.907,-5.573 L 9.405,-0.699 0,0 Z"
         style="fill:#4e6078;fill-opacity:1;fill-rule:evenodd;stroke:none"
         id="path306"
         inkscape:connector-curvature="0" />
    </g>
    <g
       id="g308"
       transform="matrix(1.25,0,0,-1.5849443,52.821854,219.95376)">
      <path
         d="m 0,0 1.666,-29.819 1.174,-21.019 37.786,0 1.127,20.209 L 43.465,0 32.235,0.432 21.646,-34.555 11.239,0 0,0 Z"
         style="fill:#e3687f;fill-opacity:1;fill-rule:evenodd;stroke:none"
         id="path310"
         inkscape:connector-curvature="0" />
    </g>
    <g
       id="g312"
       transform="matrix(1.25,0,0,-1.25,80.246154,124.34957)"
       style="fill:#000000">
      <path
         d="m 0,0 c 25.475,-5.826 32.797,-21.772 34.25,-32.742 1.879,1.579 5.474,6.19 5.386,11.534 C 39.49,-12.305 34.689,-1.73 27.259,4.524 19.164,11.34 6.252,15.928 0,13.751 -6.252,15.928 -19.164,11.34 -27.259,4.524 c -7.43,-6.254 -12.231,-16.829 -12.377,-25.732 -0.088,-5.344 3.507,-9.955 5.386,-11.534 C -32.797,-21.772 -25.473,-5.826 0,0"
         style="fill:#000000;fill-opacity:1;fill-rule:evenodd;stroke:none"
         id="path314"
         inkscape:connector-curvature="0" />
    </g>
    <g
       id="g316"
       transform="matrix(1.25,0,0,-1.25,53.432454,231.41306)"
       style="fill:#000000">
      <path
         d="M 0,0 C -22.253,66.233 10.718,85.127 21.451,85.651 3.559,83.934 -36.271,63.897 0,0"
         style="fill:#000000;fill-opacity:1;fill-rule:evenodd;stroke:none"
         id="path318"
         inkscape:connector-curvature="0" />
    </g>
    <g
       id="g320"
       transform="matrix(1.25,0,0,-1.25,107.05985,231.41306)"
       style="fill:#000000">
      <path
         d="M 0,0 C 22.253,66.233 -10.717,85.127 -21.451,85.651 -3.559,83.934 36.272,63.897 0,0"
         style="fill:#000000;fill-opacity:1;fill-rule:evenodd;stroke:none"
         id="path322"
         inkscape:connector-curvature="0" />
    </g>
  </g>
</svg>
