<?xml version="1.0" encoding="UTF-8" standalone="no"?>
<!-- Created with Inkscape (http://www.inkscape.org/) -->

<svg
   xmlns:dc="http://purl.org/dc/elements/1.1/"
   xmlns:cc="http://creativecommons.org/ns#"
   xmlns:rdf="http://www.w3.org/1999/02/22-rdf-syntax-ns#"
   xmlns:svg="http://www.w3.org/2000/svg"
   xmlns="http://www.w3.org/2000/svg"
   xmlns:sodipodi="http://sodipodi.sourceforge.net/DTD/sodipodi-0.dtd"
   xmlns:inkscape="http://www.inkscape.org/namespaces/inkscape"
   width="14.77941mm"
   height="41.010418mm"
   viewBox="0 0 52.36799 145.3125"
   id="svg7923"
   version="1.1"
   inkscape:version="0.92.1 r"
   sodipodi:docname="enrique.svg"
   inkscape:export-filename="/home/sam/Trabajo/CI/fundecyt/Megamente/img/deduccion/personajes/enrique.png"
   inkscape:export-xdpi="90"
   inkscape:export-ydpi="90">
  <defs
     id="defs7925" />
  <sodipodi:namedview
     id="base"
     pagecolor="#ffffff"
     bordercolor="#666666"
     borderopacity="1.0"
     inkscape:pageopacity="0.0"
     inkscape:pageshadow="2"
     inkscape:zoom="0.7"
     inkscape:cx="-293.00717"
     inkscape:cy="211.13319"
     inkscape:document-units="px"
     inkscape:current-layer="layer1"
     showgrid="false"
     fit-margin-top="0"
     fit-margin-left="0"
     fit-margin-right="0"
     fit-margin-bottom="0"
     inkscape:window-width="1366"
     inkscape:window-height="707"
     inkscape:window-x="0"
     inkscape:window-y="0"
     inkscape:window-maximized="1" />
  <metadata
     id="metadata7928">
    <rdf:RDF>
      <cc:Work
         rdf:about="">
        <dc:format>image/svg+xml</dc:format>
        <dc:type
           rdf:resource="http://purl.org/dc/dcmitype/StillImage" />
        <dc:title></dc:title>
      </cc:Work>
    </rdf:RDF>
  </metadata>
  <g
     inkscape:label="Capa 1"
     inkscape:groupmode="layer"
     id="layer1"
     transform="translate(-434.89959,-591.83638)">
    <g
       id="g4700"
       transform="matrix(0.44091096,0,0,0.44091096,243.14759,412.13186)"
       style="stroke-width:2.2680316">
      <path
         d="m 514.19971,541.46667 12.9525,44.87875 c 1.64875,5.71625 7.675,9.045 13.3925,7.39375 5.7175,-1.64875 9.045,-7.67625 7.395,-13.3925 l -12.95125,-44.88 c -3.7625,-13.0375 -24.3575,-6.365 -20.78875,6"
         style="fill:#fcdabe;fill-opacity:1;fill-rule:evenodd;stroke:none;stroke-width:2.83503962"
         id="path458"
         inkscape:connector-curvature="0" />
      <path
         d="m 530.35759,711.52255 c 5.17,7.69875 12.055,12.1275 13.775,17.68125 2.76,8.91125 -6.415,8.54375 -12.245,7.21 -6.25,-1.4325 -9.195,-5.14375 -12.58375,-6.12125 -8.215,-2.37 -8.42625,-7.23125 -5.1025,-18.77 3.32375,-11.53875 11.99625,-7.2025 16.15625,0"
         style="fill:#003380;fill-opacity:1;fill-rule:evenodd;stroke:none;stroke-width:2.83503962"
         id="path462"
         inkscape:connector-curvature="0" />
      <path
         d="m 477.87159,711.52255 c -5.16875,7.69875 -12.055,12.1275 -13.775,17.68125 -2.8575,9.22625 7.2125,8.585 13.01875,7.01625 5.72625,-1.5475 8.565,-4.99125 11.81,-5.9275 8.21625,-2.37 8.42625,-7.23125 5.10375,-18.77 -3.32375,-11.53875 -11.9975,-7.2025 -16.1575,0"
         style="fill:#003380;fill-opacity:1;fill-rule:evenodd;stroke:none;stroke-width:2.83503962"
         id="path466"
         inkscape:connector-curvature="0" />
      <path
         d="m 462.11122,609.50742 v -10e-4 c 1.0225,-1.02375 2.695,-1.025 3.71875,-0.004 l 4.5175,4.51 c 1.02375,1.02125 1.025,2.695 0.004,3.71875 -1.0225,1.02375 -2.69625,1.025 -3.72,0.004 l -4.51625,-4.50875 c -1.02375,-1.0225 -1.02625,-2.695 -0.004,-3.71875"
         style="fill:#fcdabe;fill-opacity:1;fill-rule:evenodd;stroke:none;stroke-width:2.83503962"
         id="path470"
         inkscape:connector-curvature="0" />
      <path
         d="m 525.61696,612.08855 h -58.1375 l 4.7925,105.8675 h 24.14875 l -4.79375,-76.88125 c -0.40875,-6.575 8.93,-6.5325 9.8425,0 l 10.72625,76.88125 h 24.14875 z"
         style="fill:#425156;fill-opacity:1;fill-rule:evenodd;stroke:none;stroke-width:2.83503962"
         id="path474"
         inkscape:connector-curvature="0" />
      <path
         d="m 478.23959,544.07029 -23.055,40.62375 c -2.93625,5.175 -9.57375,7.0075 -14.74875,4.06875 -5.175,-2.93625 -7.00625,-9.5725 -4.06875,-14.7475 l 23.055,-40.62375 c 6.6975,-11.8025 25.16875,-0.51375 18.8175,10.67875"
         style="fill:#fcdabe;fill-opacity:1;fill-rule:evenodd;stroke:none;stroke-width:2.83503962"
         id="path478"
         inkscape:connector-curvature="0" />
      <path
         d="m 478.23959,544.07029 -15.0975,26.6025 -17.78875,-12.49375 14.06875,-24.7875 c 6.6975,-11.8025 25.16875,-0.5125 18.8175,10.67875"
         style="fill:#869ab5;fill-opacity:1;fill-rule:evenodd;stroke:none;stroke-width:2.83503962"
         id="path482"
         inkscape:connector-curvature="0" />
      <path
         d="m 514.19971,541.46667 7.87625,27.29375 20.885,-5.6675 -7.9725,-27.62625 c -3.7625,-13.0375 -24.3575,-6.365 -20.78875,6"
         style="fill:#869ab5;fill-opacity:1;fill-rule:evenodd;stroke:none;stroke-width:2.83503962"
         id="path486"
         inkscape:connector-curvature="0" />
      <path
         sodipodi:nodetypes="ccccc"
         inkscape:connector-curvature="0"
         id="path488"
         style="fill:#869ab5;fill-opacity:1;fill-rule:evenodd;stroke:none;stroke-width:2.2680316"
         d="m 525.61709,528.37817 h -58.1375 l -1.07143,91.30536 60.6375,-0.17857 z" />
      <path
         d="m 480.39071,528.37855 h 32.315 v 2.02875 c 0,8.88625 -7.27,16.1575 -16.1575,16.1575 -8.88625,0 -16.1575,-7.27125 -16.1575,-16.1575 z"
         style="fill:#869ab5;fill-opacity:1;fill-rule:evenodd;stroke:none;stroke-width:2.83503962"
         id="path492"
         inkscape:connector-curvature="0" />
      <path
         d="m 464.40046,510.57442 c 8.6225,0 15.65625,-7.03375 15.65625,-15.6575 0,-8.6225 -7.03375,-15.655 -15.65625,-15.655 -8.6225,0 -15.65625,7.0325 -15.65625,15.655 0,8.62375 7.03375,15.6575 15.65625,15.6575"
         style="fill:#800000;fill-opacity:1;fill-rule:evenodd;stroke:none;stroke-width:2.83503962"
         id="path504"
         inkscape:connector-curvature="0" />
      <path
         d="m 525.67459,511.09442 c 8.6225,0 15.65625,-7.0325 15.65625,-15.65625 0,-8.6225 -7.03375,-15.655 -15.65625,-15.655 -8.6225,0 -15.65625,7.0325 -15.65625,15.655 0,8.62375 7.03375,15.65625 15.65625,15.65625"
         style="fill:#800000;fill-opacity:1;fill-rule:evenodd;stroke:none;stroke-width:2.83503962"
         id="path508"
         inkscape:connector-curvature="0" />
      <path
         d="m 535.74372,497.6093 c 8.6225,0 15.65625,-7.0325 15.65625,-15.65625 0,-8.62375 -7.03375,-15.655 -15.65625,-15.655 -8.62375,0 -15.65625,7.03125 -15.65625,15.655 0,8.62375 7.0325,15.65625 15.65625,15.65625"
         style="fill:#800000;fill-opacity:1;fill-rule:evenodd;stroke:none;stroke-width:2.83503962"
         id="path516"
         inkscape:connector-curvature="0" />
      <path
         d="m 450.55584,483.75404 c 8.6225,0 15.65625,-7.03375 15.65625,-15.6575 0,-8.6225 -7.03375,-15.655 -15.65625,-15.655 -8.62375,0 -15.65625,7.0325 -15.65625,15.655 0,8.62375 7.0325,15.6575 15.65625,15.6575"
         style="fill:#800000;fill-opacity:1;fill-rule:evenodd;stroke:none;stroke-width:2.83503962"
         id="path520"
         inkscape:connector-curvature="0" />
      <path
         d="m 538.01559,481.32492 c 8.6225,0 15.65625,-7.03375 15.65625,-15.6575 0,-8.6225 -7.03375,-15.655 -15.65625,-15.655 -8.62375,0 -15.65625,7.0325 -15.65625,15.655 0,8.62375 7.0325,15.6575 15.65625,15.6575"
         style="fill:#800000;fill-opacity:1;fill-rule:evenodd;stroke:none;stroke-width:2.83503962"
         id="path524"
         inkscape:connector-curvature="0" />
      <path
         d="m 496.54809,485.16767 v 0 c -7.22125,0 -13.12875,5.90875 -13.12875,13.13 v 30.08125 c 0,7.22 5.9075,13.1275 13.12875,13.1275 7.22125,0 13.12875,-5.9075 13.12875,-13.1275 v -30.08125 c 0,-7.22125 -5.9075,-13.13 -13.12875,-13.13"
         style="fill:#fcdabe;fill-opacity:1;fill-rule:evenodd;stroke:none;stroke-width:2.83503962"
         id="path496"
         inkscape:connector-curvature="0" />
      <path
         d="m 483.41972,518.58855 v 0 c 0,11.27625 26.2575,11.27625 26.2575,0 0,-11.27625 -26.2575,-11.27625 -26.2575,0"
         style="fill:#e0ba9b;fill-opacity:1;fill-rule:evenodd;stroke:none;stroke-width:2.83503962"
         id="path500"
         inkscape:connector-curvature="0" />
      <path
         d="m 445.11221,462.46392 c 3.73625,-0.95375 8.275,4.18625 10.1375,11.48125 1.8625,7.29375 0.345,13.98 -3.39125,14.935 -3.73625,0.95375 -8.275,-4.18625 -10.13875,-11.48125 -1.8625,-7.29375 -0.34375,-13.98125 3.3925,-14.935"
         style="fill:#800000;fill-opacity:1;fill-rule:evenodd;stroke:none;stroke-width:2.83503962"
         id="path556"
         inkscape:connector-curvature="0" />
      <path
         d="m 452.80359,498.71204 c 8.6225,0 15.65625,-7.03375 15.65625,-15.6575 0,-8.6225 -7.03375,-15.655 -15.65625,-15.655 -8.62375,0 -15.65625,7.0325 -15.65625,15.655 0,8.62375 7.0325,15.6575 15.65625,15.6575"
         style="fill:#800000;fill-opacity:1;fill-rule:evenodd;stroke:none;stroke-width:2.83503962"
         id="path512"
         inkscape:connector-curvature="0" />
      <path
         d="m 496.54809,415.18542 c 73.9775,0 56.15375,107.375 0,107.375 -56.15375,0 -73.9775,-107.375 0,-107.375"
         style="fill:#fcdabe;fill-opacity:1;fill-rule:evenodd;stroke:none;stroke-width:2.83503962"
         id="path528"
         inkscape:connector-curvature="0" />
      <path
         d="m 547.94434,462.46392 c -3.73625,-0.95375 -8.275,4.18625 -10.1375,11.48125 -1.8625,7.29375 -0.34375,13.98 3.39125,14.935 3.73625,0.95375 8.275,-4.18625 10.13875,-11.48125 1.8625,-7.29375 0.34375,-13.98125 -3.3925,-14.935"
         style="fill:#800000;fill-opacity:1;fill-rule:evenodd;stroke:none;stroke-width:2.83503962"
         id="path552"
         inkscape:connector-curvature="0" />
      <path
         d="m 464.72709,448.20042 c 8.62375,0 15.65625,-7.03375 15.65625,-15.65625 0,-8.62375 -7.0325,-15.65625 -15.65625,-15.65625 -8.6225,0 -15.65625,7.0325 -15.65625,15.65625 0,8.6225 7.03375,15.65625 15.65625,15.65625"
         style="fill:#800000;fill-opacity:1;fill-rule:evenodd;stroke:none;stroke-width:2.83503962"
         id="path588"
         inkscape:connector-curvature="0" />
      <path
         d="m 466.4944,612.31527 -1.01,-3.38625 -10.9725,0.12 -9.38375,5.75125 1.01,3.3875 c 4.4475,14.9725 25.52125,11.44125 20.35625,-5.8725"
         style="fill:#fcdabe;fill-opacity:1;fill-rule:evenodd;stroke:none;stroke-width:2.83503962"
         id="path532"
         inkscape:connector-curvature="0" />
      <path
         d="m 465.66259,609.28592 -9.2325,-32.52125 c -1.62375,-5.7225 -7.7575,-8.975 -13.46,-7.27375 -5.70125,1.7 -8.975,7.75875 -7.27375,13.45875 l 9.61,32.2075 z"
         style="fill:#fcdabe;fill-opacity:1;fill-rule:evenodd;stroke:none;stroke-width:2.83503962"
         id="path536"
         inkscape:connector-curvature="0" />
      <path
         d="m 530.71046,619.62967 v 0 c -1.44625,0.0312 -2.60375,1.24 -2.5725,2.68625 l 0.13875,6.38125 c 0.0312,1.445 1.24,2.60375 2.68625,2.57125 1.44625,-0.03 2.60375,-1.24 2.5725,-2.68625 l -0.13875,-6.38 c -0.0312,-1.44625 -1.24,-2.60375 -2.68625,-2.5725"
         style="fill:#fcdabe;fill-opacity:1;fill-rule:evenodd;stroke:none;stroke-width:2.83503962"
         id="path540"
         inkscape:connector-curvature="0" />
      <path
         d="m 528.13821,622.31592 -0.0225,-3.53375 9.57875,-3.405 11.60375,3.075 0.0237,3.53375 c 0.12,15.62 -21.06625,18.39625 -21.18375,0.33"
         style="fill:#fcdabe;fill-opacity:1;fill-rule:evenodd;stroke:none;stroke-width:2.83503962"
         id="path544"
         inkscape:connector-curvature="0" />
      <path
         d="m 528.11534,618.78192 -0.66875,-33.80125 c -0.11875,-5.9475 4.79875,-10.84875 10.74875,-10.8875 5.95,-0.0375 10.85,4.8 10.8875,10.75 l 0.21625,33.60875 z"
         style="fill:#fcdabe;fill-opacity:1;fill-rule:evenodd;stroke:none;stroke-width:2.83503962"
         id="path548"
         inkscape:connector-curvature="0" />
      <path
         d="m 481.20096,479.22917 c 1.9625,0 3.5625,-2.9325 3.5625,-6.52875 0,-3.59625 -1.6,-6.52875 -3.5625,-6.52875 -1.9625,0 -3.5625,2.9325 -3.5625,6.52875 0,3.59625 1.6,6.52875 3.5625,6.52875"
         style="fill:#425156;fill-opacity:1;fill-rule:evenodd;stroke:none;stroke-width:2.83503962"
         id="path560"
         inkscape:connector-curvature="0" />
      <path
         d="m 480.11334,441.31692 c 8.6225,0 15.65625,-7.03375 15.65625,-15.6575 0,-8.6225 -7.03375,-15.655 -15.65625,-15.655 -8.62375,0 -15.65625,7.0325 -15.65625,15.655 0,8.62375 7.0325,15.6575 15.65625,15.6575"
         style="fill:#800000;fill-opacity:1;fill-rule:evenodd;stroke:none;stroke-width:2.83503962"
         id="path592"
         inkscape:connector-curvature="0" />
      <path
         d="m 511.89584,479.22917 c 1.9625,0 3.56375,-2.9325 3.56375,-6.52875 0,-3.59625 -1.60125,-6.52875 -3.56375,-6.52875 -1.9625,0 -3.5625,2.9325 -3.5625,6.52875 0,3.59625 1.6,6.52875 3.5625,6.52875"
         style="fill:#425156;fill-opacity:1;fill-rule:evenodd;stroke:none;stroke-width:2.83503962"
         id="path564"
         inkscape:connector-curvature="0" />
      <path
         d="m 503.59821,438.88679 c 8.6225,0 15.65625,-7.0325 15.65625,-15.65625 0,-8.6225 -7.03375,-15.655 -15.65625,-15.655 -8.62375,0 -15.65625,7.0325 -15.65625,15.655 0,8.62375 7.0325,15.65625 15.65625,15.65625"
         style="fill:#800000;fill-opacity:1;fill-rule:evenodd;stroke:none;stroke-width:2.83503962"
         id="path596"
         inkscape:connector-curvature="0" />
      <path
         d="m 478.01359,500.58304 c 8.6325,2.455 27.1675,2.91125 37.06875,0 z"
         style="fill:#bf9470;fill-opacity:1;fill-rule:evenodd;stroke:none;stroke-width:2.83503962"
         id="path568"
         inkscape:connector-curvature="0" />
      <path
         d="m 524.65296,446.58117 c 8.62375,0 15.65625,-7.03375 15.65625,-15.6575 0,-8.6225 -7.0325,-15.655 -15.65625,-15.655 -8.6225,0 -15.65625,7.0325 -15.65625,15.655 0,8.62375 7.03375,15.6575 15.65625,15.6575"
         style="fill:#800000;fill-opacity:1;fill-rule:evenodd;stroke:none;stroke-width:2.83503962"
         id="path600"
         inkscape:connector-curvature="0" />
      <path
         d="m 489.34147,486.61367 c 2.76625,7.0525 11.6475,6.92875 14.41375,0 -4.05,3.8525 -10.14375,4.03125 -14.41375,0"
         style="fill:#ba885f;fill-opacity:1;fill-rule:evenodd;stroke:none;stroke-width:2.83503962"
         id="path572"
         inkscape:connector-curvature="0" />
      <path
         d="m 536.80046,463.99279 c 8.62375,0 15.65625,-7.03375 15.65625,-15.6575 0,-8.6225 -7.0325,-15.655 -15.65625,-15.655 -8.6225,0 -15.65625,7.0325 -15.65625,15.655 0,8.62375 7.03375,15.6575 15.65625,15.6575"
         style="fill:#800000;fill-opacity:1;fill-rule:evenodd;stroke:none;stroke-width:2.83503962"
         id="path604"
         inkscape:connector-curvature="0" />
      <path
         d="m 487.93684,504.34405 c 3.20875,4.3575 13.82,4.29125 17.2225,0 -4.96375,2.02125 -12.25875,2.03 -17.2225,0"
         style="fill:#e0ba9b;fill-opacity:1;fill-rule:evenodd;stroke:none;stroke-width:2.83503962"
         id="path576"
         inkscape:connector-curvature="0" />
      <path
         d="m 451.36546,464.39755 c 8.6225,0 15.65625,-7.035 15.65625,-15.6575 0,-8.6225 -7.03375,-15.65625 -15.65625,-15.65625 -8.62375,0 -15.65625,7.03375 -15.65625,15.65625 0,8.6225 7.0325,15.6575 15.65625,15.6575"
         style="fill:#800000;fill-opacity:1;fill-rule:evenodd;stroke:none;stroke-width:2.83503962"
         id="path608"
         inkscape:connector-curvature="0" />
      <path
         d="m 508.38321,457.37542 c 2.78625,-2.0725 7.55125,-0.78625 9.99125,1.80625 1.2225,1.29875 0.195,1.42375 -0.63,0.68875 -2.665,-2.3725 -5.99375,-2.3725 -8.75,-1 -1.46125,0.72875 -2.15875,-0.3425 -0.61125,-1.495"
         style="fill:#800000;fill-opacity:1;fill-rule:evenodd;stroke:none;stroke-width:2.83503962"
         id="path580"
         inkscape:connector-curvature="0" />
      <path
         d="m 499.14384,447.5663 c 8.6225,0 15.65625,-7.035 15.65625,-15.6575 0,-8.6225 -7.03375,-15.65625 -15.65625,-15.65625 -8.6225,0 -15.65625,7.03375 -15.65625,15.65625 0,8.6225 7.03375,15.6575 15.65625,15.6575"
         style="fill:#800000;fill-opacity:1;fill-rule:evenodd;stroke:none;stroke-width:2.83503962"
         id="path612"
         inkscape:connector-curvature="0" />
      <path
         d="m 485.43122,457.37654 c -2.88625,-1.93 -7.58125,-0.405 -9.8875,2.305 -1.15625,1.35875 -0.1225,1.4325 0.66375,0.6575 2.5425,-2.50375 5.86625,-2.67 8.6875,-1.4375 1.4975,0.6525 2.14,-0.4525 0.53625,-1.525"
         style="fill:#800000;fill-opacity:1;fill-rule:evenodd;stroke:none;stroke-width:2.83503962"
         id="path584"
         inkscape:connector-curvature="0" />
      <path
         d="m 477.68371,448.9318 c 8.6225,0 15.65625,-7.03375 15.65625,-15.65625 0,-8.62375 -7.03375,-15.65625 -15.65625,-15.65625 -8.6225,0 -15.65625,7.0325 -15.65625,15.65625 0,8.6225 7.03375,15.65625 15.65625,15.65625"
         style="fill:#800000;fill-opacity:1;fill-rule:evenodd;stroke:none;stroke-width:2.83503962"
         id="path616"
         inkscape:connector-curvature="0" />
      <path
         d="m 521.19271,450.24817 c 8.6225,0 15.65625,-7.03375 15.65625,-15.6575 0,-8.6225 -7.03375,-15.655 -15.65625,-15.655 -8.62375,0 -15.6575,7.0325 -15.6575,15.655 0,8.62375 7.03375,15.6575 15.6575,15.6575"
         style="fill:#800000;fill-opacity:1;fill-rule:evenodd;stroke:none;stroke-width:2.83503962"
         id="path620"
         inkscape:connector-curvature="0" />
      <path
         d="m 521.19271,450.24817 c 8.6225,0 15.65625,-7.03375 15.65625,-15.6575 0,-8.6225 -7.03375,-15.655 -15.65625,-15.655 -8.62375,0 -15.6575,7.0325 -15.6575,15.655 0,8.62375 7.03375,15.6575 15.6575,15.6575 z"
         style="fill:#800000;fill-opacity:1;stroke:none;stroke-width:0.61236858;stroke-linecap:butt;stroke-linejoin:miter;stroke-miterlimit:22.9260006;stroke-dasharray:none;stroke-opacity:1"
         id="path624"
         inkscape:connector-curvature="0" />
      <path
         d="m 532.29959,456.78267 c 7.335,0 13.3175,-5.98375 13.3175,-13.31875 0,-7.335 -5.9825,-13.3175 -13.3175,-13.3175 -7.335,0 -13.3175,5.9825 -13.3175,13.3175 0,7.335 5.9825,13.31875 13.3175,13.31875"
         style="fill:#800000;fill-opacity:1;fill-rule:evenodd;stroke:none;stroke-width:2.83503962"
         id="path628"
         inkscape:connector-curvature="0" />
      <path
         d="m 461.05159,455.11405 c 8.6225,0 15.65625,-7.03375 15.65625,-15.65625 0,-8.62375 -7.03375,-15.65625 -15.65625,-15.65625 -8.62375,0 -15.6575,7.0325 -15.6575,15.65625 0,8.6225 7.03375,15.65625 15.6575,15.65625"
         style="fill:#800000;fill-opacity:1;fill-rule:evenodd;stroke:none;stroke-width:2.83503962"
         id="path632"
         inkscape:connector-curvature="0" />
      <path
         d="m 451.87721,468.44942 c 6.0825,0 11.04375,-4.96125 11.04375,-11.04375 0,-6.0825 -4.96125,-11.0425 -11.04375,-11.0425 -6.0825,0 -11.04375,4.96 -11.04375,11.0425 0,6.0825 4.96125,11.04375 11.04375,11.04375"
         style="fill:#800000;fill-opacity:1;fill-rule:evenodd;stroke:none;stroke-width:2.83503962"
         id="path636"
         inkscape:connector-curvature="0" />
      <path
         d="m 538.56909,468.39242 c 5.88625,0 10.68625,-4.80125 10.68625,-10.6875 0,-5.88375 -4.8,-10.685 -10.68625,-10.685 -5.88625,0 -10.68625,4.80125 -10.68625,10.685 0,5.88625 4.8,10.6875 10.68625,10.6875"
         style="fill:#800000;fill-opacity:1;fill-rule:evenodd;stroke:none;stroke-width:2.83503962"
         id="path640"
         inkscape:connector-curvature="0" />
      <path
         d="m 536.71546,477.04054 c 3.7675,0 6.84,-3.0725 6.84,-6.84 0,-3.7675 -3.0725,-6.84 -6.84,-6.84 -3.7675,0 -6.84,3.0725 -6.84,6.84 0,3.7675 3.0725,6.84 6.84,6.84"
         style="fill:#800000;fill-opacity:1;fill-rule:evenodd;stroke:none;stroke-width:2.83503962"
         id="path644"
         inkscape:connector-curvature="0" />
      <path
         d="m 450.73647,476.21854 c 3.7675,0 6.83875,-3.07375 6.83875,-6.84 0,-3.7675 -3.07125,-6.84 -6.83875,-6.84 -3.7675,0 -6.84,3.0725 -6.84,6.84 0,3.76625 3.0725,6.84 6.84,6.84"
         style="fill:#800000;fill-opacity:1;fill-rule:evenodd;stroke:none;stroke-width:2.83503962"
         id="path648"
         inkscape:connector-curvature="0" />
      <path
         d="m 538.66089,480.81735 c 2.6525,0 4.815,-2.1625 4.815,-4.815 0,-2.6525 -2.1625,-4.815 -4.815,-4.815 -2.65125,0 -4.815,2.1625 -4.815,4.815 0,2.6525 2.16375,4.815 4.815,4.815"
         style="fill:#800000;fill-opacity:1;fill-rule:evenodd;stroke:none;stroke-width:2.83503962"
         id="path652"
         inkscape:connector-curvature="0" />
      <path
         d="m 451.54546,482.9813 c 2.6525,0 4.815,-2.1625 4.815,-4.815 0,-2.6525 -2.1625,-4.815 -4.815,-4.815 -2.6525,0 -4.815,2.1625 -4.815,4.815 0,2.6525 2.1625,4.815 4.815,4.815"
         style="fill:#800000;fill-opacity:1;fill-rule:evenodd;stroke:none;stroke-width:2.83503962"
         id="path656"
         inkscape:connector-curvature="0" />
      <path
         d="m 543.35796,727.3518 c 0.30125,0.58625 0.55125,1.17875 0.73875,1.785 2.78875,9 -6.63875,8.56 -12.465,7.1575 -6.1,-1.4675 -9.015,-5.1025 -12.36375,-6.06875 -4.40625,-1.27125 -6.50875,-3.26 -6.99875,-6.60875 4.675,3.635 11.7475,6.61625 19.2475,9.0825 3.19,-3.53375 7.8,-5.29125 11.84125,-5.3475"
         style="fill:#5599ff;fill-opacity:1;fill-rule:evenodd;stroke:none;stroke-width:2.83503962"
         id="path660"
         inkscape:connector-curvature="0" />
      <path
         d="m 533.34647,717.66005 c -0.40375,0.1225 -0.78,0.28 -1.13125,0.46375 l -0.10375,-0.009 c -2.25,-0.17875 -4.57375,0.0375 -6.27625,0.97625 -0.33125,0.18125 -0.4525,0.6 -0.27125,0.93125 0.1825,0.33125 0.6,0.45375 0.93125,0.27 1.0675,-0.5875 2.47125,-0.83625 3.9475,-0.86125 -0.93375,0.91875 -1.59875,1.98375 -2.1225,2.8825 -0.2475,0.205 -0.32375,0.565 -0.1625,0.8575 0.18125,0.33125 0.59875,0.4525 0.93125,0.27 1.0425,-0.57375 2.32,-0.905 3.64125,-1.05 -0.88125,0.9375 -1.5175,1.99 -2.015,2.8475 -0.18875,0.3275 -0.0775,0.7475 0.25,0.93625 0.3275,0.19 0.74625,0.0787 0.93625,-0.24875 0.38125,-0.6575 0.84875,-1.4375 1.445,-2.16125 v -2.79875 c -0.95375,0.0587 -1.90875,0.2 -2.8075,0.4425 0.36625,-0.4875 0.785,-0.96125 1.27375,-1.37125 0.21875,-0.1825 0.45125,-0.3525 0.7025,-0.50625 0.28,0.03 0.5575,0.0662 0.83125,0.1075 z m 6.7825,5.89875 c 0.305,0.2225 0.73375,0.1575 0.9575,-0.14875 0.22375,-0.30375 0.1575,-0.7325 -0.1475,-0.95625 -0.53625,-0.39375 -1.37375,-0.74375 -2.385,-1.0075 h 0.0162 c 0.19875,0.0188 0.38625,-0.0512 0.52375,-0.17625 0.07,-0.045 0.135,-0.1025 0.1875,-0.175 0.22375,-0.305 0.15625,-0.7325 -0.1475,-0.95625 -0.6675,-0.49 -1.90375,-1.005 -3.39375,-1.40125 0.10875,0.005 0.21875,0.0125 0.33,0.0225 0.37625,0.035 0.70875,-0.24375 0.7425,-0.61875 0.0337,-0.37625 -0.24375,-0.70875 -0.62,-0.7425 -1.07625,-0.1 -2.0175,0.009 -2.84625,0.26125 v 1.97875 c 1.01875,0.15125 1.9825,0.37625 2.8075,0.635 -0.58875,0.15375 -1.1225,0.3825 -1.61,0.6625 -0.39625,-0.004 -0.7975,0.006 -1.1975,0.03 v 2.79875 c 0.285,-0.345 0.6,-0.6775 0.94875,-0.97625 0.1975,-0.17 0.4075,-0.33 0.63,-0.47625 2.2575,0.0712 4.30375,0.58625 5.20375,1.24625"
         style="fill:#5599ff;fill-opacity:1;fill-rule:nonzero;stroke:none;stroke-width:2.83503962"
         id="path664"
         inkscape:connector-curvature="0" />
      <path
         d="m 464.82597,727.3518 c -0.3025,0.58625 -0.55125,1.17875 -0.73875,1.785 -2.78875,9 6.63875,8.56 12.465,7.1575 6.1,-1.4675 9.015,-5.1025 12.3625,-6.06875 4.4075,-1.27125 6.51,-3.26 7,-6.60875 -4.675,3.635 -11.7475,6.61625 -19.2475,9.0825 -3.19,-3.53375 -7.8,-5.29125 -11.84125,-5.3475"
         style="fill:#5599ff;fill-opacity:1;fill-rule:evenodd;stroke:none;stroke-width:2.83503962"
         id="path668"
         inkscape:connector-curvature="0" />
      <path
         d="m 468.22409,723.5583 c -0.305,0.22375 -0.735,0.1575 -0.95875,-0.1475 -0.2225,-0.30375 -0.15625,-0.73375 0.14875,-0.9575 0.535,-0.39375 1.3725,-0.74375 2.385,-1.0075 l -0.0162,0.001 c -0.2,0.0175 -0.38625,-0.0512 -0.52375,-0.17625 -0.0713,-0.045 -0.135,-0.10375 -0.1875,-0.175 -0.22375,-0.305 -0.1575,-0.73375 0.1475,-0.9575 0.6675,-0.49 1.90375,-1.00375 3.3925,-1.4 -0.1075,0.004 -0.2175,0.0125 -0.32875,0.0225 -0.37625,0.035 -0.71,-0.24375 -0.74375,-0.62 -0.0337,-0.375 0.24375,-0.70875 0.62,-0.7425 1.07625,-0.1 2.01875,0.009 2.8475,0.26125 v 1.97875 c -1.02,0.1525 -1.98375,0.3775 -2.8075,0.635 0.5875,0.155 1.1225,0.3825 1.61,0.6625 0.39625,-0.004 0.79625,0.006 1.1975,0.03 v 2.8 c -0.285,-0.34625 -0.6,-0.67875 -0.94875,-0.9775 -0.1975,-0.17 -0.4075,-0.33 -0.63125,-0.47625 -2.25625,0.0725 -4.3025,0.58625 -5.2025,1.24625 m 6.7825,-5.89875 c 0.4025,0.12375 0.78,0.28 1.13125,0.465 l 0.10375,-0.009 c 2.25,-0.18 4.5725,0.0362 6.275,0.97625 0.3325,0.18125 0.45375,0.59875 0.27125,0.93 -0.18125,0.3325 -0.59875,0.45375 -0.93125,0.27 -1.06625,-0.5875 -2.47,-0.83625 -3.94625,-0.86 0.9325,0.9175 1.59875,1.98375 2.1225,2.88125 0.2475,0.20625 0.32375,0.565 0.1625,0.8575 -0.1825,0.33125 -0.6,0.45375 -0.93125,0.27125 -1.0425,-0.575 -2.32,-0.90625 -3.6425,-1.05 0.8825,0.9375 1.5175,1.99 2.015,2.8475 0.19,0.3275 0.0788,0.74625 -0.24875,0.93625 -0.32875,0.19 -0.7475,0.0775 -0.9375,-0.25 -0.38,-0.65625 -0.8475,-1.4375 -1.44375,-2.16 v -2.8 c 0.95375,0.06 1.9075,0.2 2.80625,0.4425 -0.365,-0.4875 -0.785,-0.96125 -1.27375,-1.37 -0.2175,-0.1825 -0.45125,-0.3525 -0.70125,-0.5075 -0.28125,0.03 -0.5575,0.0662 -0.83125,0.1075 z"
         style="fill:#5599ff;fill-opacity:1;fill-rule:nonzero;stroke:none;stroke-width:2.83503962"
         id="path672"
         inkscape:connector-curvature="0" />
    </g>
  </g>
</svg>
