<?xml version="1.0" encoding="UTF-8" standalone="no"?>
<!-- Created with Inkscape (http://www.inkscape.org/) -->

<svg
   xmlns:dc="http://purl.org/dc/elements/1.1/"
   xmlns:cc="http://creativecommons.org/ns#"
   xmlns:rdf="http://www.w3.org/1999/02/22-rdf-syntax-ns#"
   xmlns:svg="http://www.w3.org/2000/svg"
   xmlns="http://www.w3.org/2000/svg"
   xmlns:sodipodi="http://sodipodi.sourceforge.net/DTD/sodipodi-0.dtd"
   xmlns:inkscape="http://www.inkscape.org/namespaces/inkscape"
   width="33.354046mm"
   height="90.082451mm"
   viewBox="0 0 118.18363 319.18979"
   id="svg7099"
   version="1.1"
   inkscape:version="0.91 r13725"
   sodipodi:docname="Ana.svg"
   inkscape:export-filename="/home/piccolina/Escritorio/fundacion/cerebro/ana.png"
   inkscape:export-xdpi="90"
   inkscape:export-ydpi="90">
  <defs
     id="defs7101" />
  <sodipodi:namedview
     id="base"
     pagecolor="#ffffff"
     bordercolor="#666666"
     borderopacity="1.0"
     inkscape:pageopacity="0.0"
     inkscape:pageshadow="2"
     inkscape:zoom="0.35"
     inkscape:cx="-571.62248"
     inkscape:cy="-131.83368"
     inkscape:document-units="px"
     inkscape:current-layer="layer1"
     showgrid="false"
     fit-margin-top="0"
     fit-margin-left="0"
     fit-margin-right="0"
     fit-margin-bottom="0"
     inkscape:window-width="1366"
     inkscape:window-height="710"
     inkscape:window-x="0"
     inkscape:window-y="25"
     inkscape:window-maximized="1" />
  <metadata
     id="metadata7104">
    <rdf:RDF>
      <cc:Work
         rdf:about="">
        <dc:format>image/svg+xml</dc:format>
        <dc:type
           rdf:resource="http://purl.org/dc/dcmitype/StillImage" />
        <dc:title></dc:title>
      </cc:Work>
    </rdf:RDF>
  </metadata>
  <g
     inkscape:label="Capa 1"
     inkscape:groupmode="layer"
     id="layer1"
     transform="translate(-372.33676,-81.338745)">
    <g
       id="g40"
       transform="matrix(1.25,0,0,-1.25,430.7916,81.343923)">
      <path
         d="M 0,0 C -45.475,-0.723 -76.135,-89.021 -2.556,-91.217 80.786,-93.703 45.474,0.724 0,0"
         style="fill:#aa7764;fill-opacity:1;fill-rule:evenodd;stroke:none"
         id="path42"
         inkscape:connector-curvature="0" />
    </g>
    <g
       id="g44"
       transform="matrix(1.25,0,0,-1.25,413.97311,381.95868)">
      <path
         d="m 0,0 c -3.091,-4.474 -7.207,-7.048 -8.235,-10.275 -0.582,-1.826 -0.15,-4.133 1.705,-4.363 7.979,-0.987 10.297,2.933 13.139,3.729 C 11.52,-9.531 11.646,-6.706 9.66,0 7.672,6.706 2.487,4.185 0,0"
         style="fill:#fcdabe;fill-opacity:1;fill-rule:evenodd;stroke:none"
         id="path46"
         inkscape:connector-curvature="0" />
    </g>
    <g
       id="g48"
       transform="matrix(1.25,0,0,-1.25,408.14936,275.67367)">
      <path
         d="m 0,0 36.51,0 -4.66,-85.028 -9.659,0 -1.964,64.67 c -0.156,5.128 -3.787,5.158 -3.944,0 l -1.964,-64.67 -9.66,0 L 0,0 Z"
         style="fill:#fcdabe;fill-opacity:1;fill-rule:evenodd;stroke:none"
         id="path50"
         inkscape:connector-curvature="0" />
    </g>
    <g
       id="g52"
       transform="matrix(1.25,0,0,-1.25,450.3331,212.13992)">
      <path
         d="m 0,0 19.202,-24.946 c 2.728,-3.546 9.707,3.39 7.619,6.898 L 11.744,7.282 C 6.307,16.416 -6.168,8.011 0,0"
         style="fill:#fcdabe;fill-opacity:1;fill-rule:evenodd;stroke:none"
         id="path54"
         inkscape:connector-curvature="0" />
    </g>
    <g
       id="g56"
       transform="matrix(1.25,0,0,-1.25,410.94198,212.13992)">
      <path
         d="m 0,0 -19.203,-24.757 c -2.741,-3.536 -9.718,3.397 -7.619,6.897 L -11.745,7.282 C -6.277,16.399 6.197,7.99 0,0"
         style="fill:#fcdabe;fill-opacity:1;fill-rule:evenodd;stroke:none"
         id="path58"
         inkscape:connector-curvature="0" />
    </g>
    <g
       id="g60"
       transform="matrix(1.25,0,0,-1.25,396.27135,203.0208)">
      <path
         d="M 0,0 C 3.486,5.794 9.808,4.484 12.335,0.706 L 7.004,-13.397 0,0 Z"
         style="fill:#2c8245;fill-opacity:1;fill-rule:evenodd;stroke:none"
         id="path62"
         inkscape:connector-curvature="0" />
    </g>
    <g
       id="g64"
       transform="matrix(1.25,0,0,-1.25,458.85498,251.93105)">
      <path
         d="m 0,0 0,0 c 0.043,0.415 -0.601,0.558 -0.991,0.382 l -5.766,-2.6 c -0.39,-0.175 -0.383,-0.616 -0.424,-1.031 l 0,-10e-4 c -0.043,-0.415 0.6,-0.557 0.99,-0.381 l 5.767,2.599 C -0.034,-0.855 0.156,-0.389 0,0"
         style="fill:#fcdabe;fill-opacity:1;fill-rule:evenodd;stroke:none"
         id="path66"
         inkscape:connector-curvature="0" />
    </g>
    <g
       id="g68"
       transform="matrix(1.25,0,0,-1.25,402.41998,251.93105)">
      <path
         d="m 0,0 0,0 c -0.043,0.415 0.6,0.557 0.99,0.382 l 5.766,-2.6 c 0.39,-0.175 0.382,-0.616 0.424,-1.031 l 0,-10e-4 C 7.223,-3.665 6.581,-3.807 6.19,-3.631 L 0.424,-1.032 C 0.034,-0.855 -0.156,-0.389 0,0"
         style="fill:#fcdabe;fill-opacity:1;fill-rule:evenodd;stroke:none"
         id="path70"
         inkscape:connector-curvature="0" />
    </g>
    <g
       id="g72"
       transform="matrix(1.25,0,0,-1.25,465.52936,203.0208)">
      <path
         d="M 0,0 C -3.488,5.794 -9.808,4.484 -12.336,0.706 L -7.005,-13.397 0,0 Z"
         style="fill:#2c8245;fill-opacity:1;fill-rule:evenodd;stroke:none"
         id="path74"
         inkscape:connector-curvature="0" />
    </g>
    <g
       id="g76"
       transform="matrix(1.25,0,0,-1.25,458.1326,197.85192)">
      <path
         d="m 0,0 -3.479,-62.257 -18.551,0 -17.957,0 L -43.464,0 0,0 Z"
         style="fill:#5ebf79;fill-opacity:1;fill-rule:evenodd;stroke:none"
         id="path78"
         inkscape:connector-curvature="0" />
    </g>
    <g
       id="g80"
       transform="matrix(1.25,0,0,-1.25,417.31873,197.85192)">
      <path
         d="m 0,0 21.646,0 c 1.096,-1.308 1.756,-2.994 1.756,-4.833 0,-4.158 -3.37,-7.528 -7.528,-7.528 -1.943,0 -3.715,0.737 -5.051,1.947 -1.335,-1.21 -3.106,-1.947 -5.051,-1.947 -4.158,0 -7.528,3.37 -7.528,7.528 0,1.839 0.66,3.525 1.756,4.833"
         style="fill:#2c8245;fill-opacity:1;fill-rule:evenodd;stroke:none"
         id="path82"
         inkscape:connector-curvature="0" />
    </g>
    <g
       id="g84"
       transform="matrix(1.25,0,0,-1.25,430.96823,155.67641)">
      <path
         d="m 0,0 0,0 c 5.776,0 10.503,-4.726 10.503,-10.503 l 0,-22.805 c 0,-5.777 -4.727,-10.503 -10.503,-10.503 -5.777,0 -10.504,4.726 -10.504,10.503 l 0,22.805 C -10.504,-4.726 -5.777,0 0,0"
         style="fill:#fcdabe;fill-opacity:1;fill-rule:evenodd;stroke:none"
         id="path86"
         inkscape:connector-curvature="0" />
    </g>
    <g
       id="g88"
       transform="matrix(1.25,0,0,-1.25,444.09723,188.16243)">
      <path
         d="M 0,0 0,0 C 0,-8.77 -21.007,-8.77 -21.007,0 -21.007,8.769 0,8.769 0,0"
         style="fill:#e0ba9b;fill-opacity:1;fill-rule:evenodd;stroke:none"
         id="path90"
         inkscape:connector-curvature="0" />
    </g>
    <g
       id="g92"
       transform="matrix(1.25,0,0,-1.25,430.96823,87.649163)">
      <path
         d="M 0,0 C -45.955,0 -42.437,-43.08 -33.669,-58.237 -21.702,-78.922 -5.61,-83.499 0,-83.499 c 5.609,0 21.701,4.577 33.666,25.262 C 42.436,-43.08 45.954,0 0,0"
         style="fill:#fcdabe;fill-opacity:1;fill-rule:evenodd;stroke:none"
         id="path94"
         inkscape:connector-curvature="0" />
    </g>
    <g
       id="g96"
       transform="matrix(1.25,0,0,-1.25,407.18198,258.36043)">
      <path
         d="m 0,0 2.126,-38.521 33.71,0 L 38.051,-0.08 0,0 Z"
         style="fill:#425156;fill-opacity:1;fill-rule:evenodd;stroke:none"
         id="path98"
         inkscape:connector-curvature="0" />
    </g>
    <g
       id="g100"
       transform="matrix(1.25,0,0,-1.25,447.9891,381.95868)">
      <path
         d="m 0,0 c 3.09,-4.474 7.207,-7.048 8.235,-10.275 0.581,-1.826 0.15,-4.133 -1.706,-4.363 -7.978,-0.987 -10.297,2.933 -13.137,3.729 C -11.52,-9.531 -11.647,-6.706 -9.659,0 -7.673,6.706 -2.487,4.185 0,0"
         style="fill:#fcdabe;fill-opacity:1;fill-rule:evenodd;stroke:none"
         id="path102"
         inkscape:connector-curvature="0" />
    </g>
    <g
       id="g104"
       transform="matrix(1.25,0,0,-1.25,380.05236,133.60679)">
      <path
         d="M 0,0 C 2.989,0.742 6.62,-3.255 8.11,-8.928 9.6,-14.6 8.386,-19.8 5.397,-20.542 c -2.989,-0.743 -6.62,3.255 -8.111,8.928 C -4.204,-5.942 -2.989,-0.742 0,0"
         style="fill:#fcdabe;fill-opacity:1;fill-rule:evenodd;stroke:none"
         id="path106"
         inkscape:connector-curvature="0" />
    </g>
    <g
       id="g108"
       transform="matrix(1.25,0,0,-1.25,481.90648,133.60679)">
      <path
         d="M 0,0 C -2.99,0.742 -6.621,-3.255 -8.109,-8.928 -9.6,-14.6 -8.385,-19.8 -5.397,-20.542 c 2.99,-0.743 6.621,3.255 8.11,8.928 C 4.203,-5.942 2.988,-0.742 0,0"
         style="fill:#fcdabe;fill-opacity:1;fill-rule:evenodd;stroke:none"
         id="path110"
         inkscape:connector-curvature="0" />
    </g>
    <g
       id="g112"
       transform="matrix(1.25,0,0,-1.25,446.31598,149.90354)">
      <path
         d="m 0,0 c 1.569,0 2.849,2.28 2.849,5.077 0,2.797 -1.28,5.078 -2.849,5.078 -1.571,0 -2.85,-2.281 -2.85,-5.078 C -2.85,2.28 -1.571,0 0,0"
         style="fill:#425156;fill-opacity:1;fill-rule:evenodd;stroke:none"
         id="path114"
         inkscape:connector-curvature="0" />
    </g>
    <g
       id="g116"
       transform="matrix(1.25,0,0,-1.25,415.62048,149.90354)">
      <path
         d="m 0,0 c 1.57,0 2.85,2.28 2.85,5.077 0,2.797 -1.28,5.078 -2.85,5.078 -1.57,0 -2.85,-2.281 -2.85,-5.078 C -2.85,2.28 -1.57,0 0,0"
         style="fill:#425156;fill-opacity:1;fill-rule:evenodd;stroke:none"
         id="path118"
         inkscape:connector-curvature="0" />
    </g>
    <g
       id="g120"
       transform="matrix(1.25,0,0,-1.25,438.17435,157.08116)">
      <path
         d="M 0,0 C -2.213,-5.484 -9.318,-5.388 -11.53,0 -8.292,-2.995 -3.416,-3.135 0,0"
         style="fill:#e0ba9b;fill-opacity:1;fill-rule:evenodd;stroke:none"
         id="path122"
         inkscape:connector-curvature="0" />
    </g>
    <g
       id="g124"
       transform="matrix(1.25,0,0,-1.25,406.9181,389.9628)">
      <path
         d="m 0,0 c -1.201,-1.3 -2.163,-2.529 -2.591,-3.872 -1.457,-4.574 2.379,-4.79 5.769,-4.44 4.838,0.499 6.787,3.166 9.075,3.806 4.412,1.239 4.962,3.644 3.587,8.982 C 15.652,-0.181 8.3,-3.185 6.459,-3.741 4.618,-4.296 0.347,-1.813 0,0"
         style="fill:#2c8245;fill-opacity:1;fill-rule:evenodd;stroke:none"
         id="path126"
         inkscape:connector-curvature="0" />
    </g>
    <g
       id="g128"
       transform="matrix(1.25,0,0,-1.25,455.04585,389.9628)">
      <path
         d="m 0,0 c 1.201,-1.3 2.163,-2.529 2.591,-3.872 1.555,-4.88 -3.079,-4.893 -6.545,-4.338 -4.277,0.686 -6.136,3.099 -8.298,3.704 -4.412,1.239 -4.962,3.644 -3.587,8.982 0.187,-4.657 7.57,-8.082 9.49,-8.217 C -4.429,-3.877 0.632,-0.565 0,0"
         style="fill:#2c8245;fill-opacity:1;fill-rule:evenodd;stroke:none"
         id="path130"
         inkscape:connector-curvature="0" />
    </g>
    <g
       id="g132"
       transform="matrix(1.25,0,0,-1.25,458.31823,250.85855)">
      <path
         d="m 0,0 12.837,14.793 c 6.52,2.8 12.522,-5.509 4.89,-9.562 L 4.228,-7.465 0,0 Z"
         style="fill:#fcdabe;fill-opacity:1;fill-rule:evenodd;stroke:none"
         id="path134"
         inkscape:connector-curvature="0" />
    </g>
    <g
       id="g136"
       transform="matrix(1.25,0,0,-1.25,456.32073,252.1658)">
      <path
         d="M 0,0 2.296,1.441 6.542,-6.106 4.246,-7.548 C -2.813,-11.703 -8.55,-5.073 0,0"
         style="fill:#fcdabe;fill-opacity:1;fill-rule:evenodd;stroke:none"
         id="path138"
         inkscape:connector-curvature="0" />
    </g>
    <g
       id="g140"
       transform="matrix(1.25,0,0,-1.25,402.95686,250.85855)">
      <path
         d="m 0,0 -12.837,14.982 c -6.52,2.8 -12.522,-5.509 -4.891,-9.561 L -4.23,-7.465 0,0 Z"
         style="fill:#fcdabe;fill-opacity:1;fill-rule:evenodd;stroke:none"
         id="path142"
         inkscape:connector-curvature="0" />
    </g>
    <g
       id="g144"
       transform="matrix(1.25,0,0,-1.25,404.95373,252.1658)">
      <path
         d="m 0,0 -2.296,1.442 -4.246,-7.548 2.295,-1.442 C 2.812,-11.703 8.549,-5.073 0,0"
         style="fill:#fcdabe;fill-opacity:1;fill-rule:evenodd;stroke:none"
         id="path146"
         inkscape:connector-curvature="0" />
    </g>
    <g
       id="g148"
       transform="matrix(1.25,0,0,-1.25,417.7751,393.75955)">
      <path
         d="m 0,0 c -0.024,0.144 -0.076,0.306 -0.153,0.48 -0.45,1.019 -1.606,2.158 -2.984,3.01 -1.325,0.819 -3.081,1.341 -4.258,1.185 0.609,0.628 1.242,1.286 1.872,1.991 C -4.403,6.424 -2.991,5.931 -1.96,5.293 -0.236,4.228 1.243,2.725 1.865,1.316 2.008,0.992 2.11,0.663 2.164,0.334 L 0,0 Z"
         style="fill:#2c8245;fill-opacity:1;fill-rule:nonzero;stroke:none"
         id="path150"
         inkscape:connector-curvature="0" />
    </g>
    <g
       id="g152"
       transform="matrix(1.25,0,0,-1.25,444.31423,393.75955)">
      <path
         d="M 0,0 C 0.023,0.144 0.077,0.306 0.154,0.48 0.603,1.499 1.759,2.638 3.137,3.49 4.463,4.309 6.218,4.831 7.395,4.675 6.785,5.303 6.154,5.961 5.524,6.666 4.404,6.424 2.992,5.931 1.959,5.293 0.236,4.228 -1.244,2.725 -1.865,1.316 -2.008,0.992 -2.11,0.663 -2.163,0.334 L 0,0 Z"
         style="fill:#2c8245;fill-opacity:1;fill-rule:nonzero;stroke:none"
         id="path154"
         inkscape:connector-curvature="0" />
    </g>
    <g
       id="g156"
       transform="matrix(1.25,0,0,-1.25,446.21536,167.26491)">
      <path
         d="M 0,0 C -4.481,-4.461 -19.294,-4.403 -24.045,0 -16.208,-1.413 -6.86,-1.188 0,0"
         style="fill:#bf9470;fill-opacity:1;fill-rule:evenodd;stroke:none"
         id="path158"
         inkscape:connector-curvature="0" />
    </g>
    <g
       id="g160"
       transform="matrix(1.25,0,0,-1.25,438.16985,172.50442)">
      <path
         d="M 0,0 C -2.081,-2.748 -8.964,-2.706 -11.172,0 -7.952,-1.274 -3.219,-1.279 0,0"
         style="fill:#e0ba9b;fill-opacity:1;fill-rule:evenodd;stroke:none"
         id="path162"
         inkscape:connector-curvature="0" />
    </g>
    <g
       id="g164"
       transform="matrix(1.25,0,0,-1.25,392.1021,142.96854)">
      <path
         d="M 0,0 C -1.39,-5.594 -2.494,-5.475 -4.75,-0.547 -7.007,4.381 -10.68,6.916 -9.8,11.718 -1.405,57.55 66.032,55.673 70.761,12.829 71.296,7.977 69.161,4.381 66.905,-0.547 64.648,-5.475 63.527,-7.386 62.639,-1.131 57.607,34.368 11.698,47.067 0,0"
         style="fill:#aa7764;fill-opacity:1;fill-rule:evenodd;stroke:none"
         id="path166"
         inkscape:connector-curvature="0" />
    </g>
    <g
       id="g168"
       transform="matrix(1.25,0,0,-1.25,430.99748,86.235543)">
      <path
         d="m 0,0 c -28.179,-0.225 -35.114,-15.897 -39.287,-28.27 2.468,-3.29 0.498,0.834 3.859,-2.726 19.724,-7.357 51.17,-7.339 70.016,0 3.652,3.873 -0.274,0.596 2.267,4.158 C 31.92,-12.834 21.794,0.175 0,0"
         style="fill:#aa7764;fill-opacity:1;fill-rule:evenodd;stroke:none"
         id="path170"
         inkscape:connector-curvature="0" />
    </g>
    <g
       id="g172"
       transform="matrix(1.25,0,0,-1.25,389.91961,143.32754)">
      <path
         d="M 0,0 C 6.76,39.46 58.29,36.97 65.682,1.42 75.091,51.153 -7.485,55.932 0,0"
         style="fill:#fcc379;fill-opacity:1;fill-rule:evenodd;stroke:none"
         id="path174"
         inkscape:connector-curvature="0" />
    </g>
  </g>
</svg>
