<?xml version="1.0" encoding="UTF-8" standalone="no"?>
<!-- Created with Inkscape (http://www.inkscape.org/) -->

<svg
   xmlns:dc="http://purl.org/dc/elements/1.1/"
   xmlns:cc="http://creativecommons.org/ns#"
   xmlns:rdf="http://www.w3.org/1999/02/22-rdf-syntax-ns#"
   xmlns:svg="http://www.w3.org/2000/svg"
   xmlns="http://www.w3.org/2000/svg"
   xmlns:sodipodi="http://sodipodi.sourceforge.net/DTD/sodipodi-0.dtd"
   xmlns:inkscape="http://www.inkscape.org/namespaces/inkscape"
   width="15.003034mm"
   height="41.010418mm"
   viewBox="0 0 53.160355 145.31251"
   id="svg6314"
   version="1.1"
   inkscape:version="0.92.1 r"
   sodipodi:docname="irene.svg"
   inkscape:export-filename="/home/sam/Trabajo/CI/fundecyt/Megamente/img/deduccion/personajes/irene.png"
   inkscape:export-xdpi="90"
   inkscape:export-ydpi="90">
  <defs
     id="defs6316" />
  <sodipodi:namedview
     id="base"
     pagecolor="#ffffff"
     bordercolor="#666666"
     borderopacity="1.0"
     inkscape:pageopacity="0.0"
     inkscape:pageshadow="2"
     inkscape:zoom="0.35"
     inkscape:cx="-747.02684"
     inkscape:cy="-118.6747"
     inkscape:document-units="px"
     inkscape:current-layer="layer1"
     showgrid="false"
     fit-margin-top="0"
     fit-margin-left="0"
     fit-margin-right="0"
     fit-margin-bottom="0"
     inkscape:window-width="1366"
     inkscape:window-height="707"
     inkscape:window-x="0"
     inkscape:window-y="0"
     inkscape:window-maximized="1" />
  <metadata
     id="metadata6319">
    <rdf:RDF>
      <cc:Work
         rdf:about="">
        <dc:format>image/svg+xml</dc:format>
        <dc:type
           rdf:resource="http://purl.org/dc/dcmitype/StillImage" />
        <dc:title></dc:title>
      </cc:Work>
    </rdf:RDF>
  </metadata>
  <g
     inkscape:label="Capa 1"
     inkscape:groupmode="layer"
     id="layer1"
     transform="translate(-142.02685,-268.37501)">
    <g
       transform="matrix(0.57311395,0,0,-0.57311395,57.126382,553.85814)"
       id="g6167"
       style="stroke-width:2.18106723">
      <g
         transform="translate(198.3638,498.1263)"
         id="g832"
         style="stroke-width:2.18106723">
        <path
           inkscape:connector-curvature="0"
           id="path834"
           style="fill:#e88c6a;fill-opacity:1;fill-rule:evenodd;stroke:none;stroke-width:2.18106723"
           d="m 0,0 c 46.025,0 50.436,-53.766 33.349,-84.532 -7.516,-13.534 -19.745,-18.154 -33.49,-18.154 -13.765,0 -25.982,4.649 -33.461,18.215 C -50.567,-53.7 -45.995,0 0,0" />
      </g>
      <g
         transform="translate(211.8185,259.4721)"
         id="g836"
         style="stroke-width:2.18106723">
        <path
           inkscape:connector-curvature="0"
           id="path838"
           style="fill:#fcdabe;fill-opacity:1;fill-rule:evenodd;stroke:none;stroke-width:2.18106723"
           d="m 0,0 c 3.091,-4.474 7.207,-7.048 8.235,-10.275 0.582,-1.826 0.15,-4.133 -1.704,-4.363 -7.98,-0.987 -10.298,2.933 -13.139,3.729 C -11.52,-9.531 -11.646,-6.706 -9.659,0 -7.672,6.706 -2.487,4.185 0,0" />
      </g>
      <g
         transform="translate(216.4776,344.5002)"
         id="g840"
         style="stroke-width:2.18106723">
        <path
           inkscape:connector-curvature="0"
           id="path842"
           style="fill:#fcdabe;fill-opacity:1;fill-rule:evenodd;stroke:none;stroke-width:2.18106723"
           d="m 0,0 h -36.509 l 4.659,-85.028 h 9.659 l 1.965,64.67 c 0.156,5.128 3.787,5.158 3.943,0 l 1.965,-64.67 h 9.659 z" />
      </g>
      <g
         transform="translate(153.5433,383.4654)"
         id="g844"
         style="stroke-width:2.18106723">
        <path
           inkscape:connector-curvature="0"
           id="path846"
           style="fill:#fcdabe;fill-opacity:1;fill-rule:evenodd;stroke:none;stroke-width:2.18106723"
           d="m 0,0 -4.935,-6.234 7.71,-5.216 5.241,3.985 -0.73,6.127 z" />
      </g>
      <g
         transform="translate(181.86,396.068)"
         id="g848"
         style="stroke-width:2.18106723">
        <path
           inkscape:connector-curvature="0"
           id="path850"
           style="fill:#ff94a8;fill-opacity:1;fill-rule:evenodd;stroke:none;stroke-width:2.18106723"
           d="m 0,0 -19.131,-18.912 c -2.824,2.026 -7.59,4.724 -9.186,6.309 L -11.745,7.283 C -4.911,15.482 7.217,7.135 0,0" />
      </g>
      <g
         transform="translate(213.7693,399.6252)"
         id="g852"
         style="stroke-width:2.18106723">
        <path
           inkscape:connector-curvature="0"
           id="path854"
           style="fill:#ff94a8;fill-opacity:1;fill-rule:evenodd;stroke:none;stroke-width:2.18106723"
           d="m 0,0 6.472,-35.963 c 0.785,-4.359 9.42,-0.166 9.292,2.07 L 13.886,-1.079 C 13.283,9.457 -1.774,9.856 0,0" />
      </g>
      <g
         transform="translate(176.491,406.7576)"
         id="g856"
         style="stroke-width:2.18106723">
        <path
           inkscape:connector-curvature="0"
           id="path858"
           style="fill:#ff94a8;fill-opacity:1;fill-rule:evenodd;stroke:none;stroke-width:2.18106723"
           d="M 0,0 3.478,-62.257 H 22.03 39.987 L 43.464,0 Z" />
      </g>
      <g
         transform="translate(198.2229,440.498)"
         id="g860"
         style="stroke-width:2.18106723">
        <path
           inkscape:connector-curvature="0"
           id="path862"
           style="fill:#fcdabe;fill-opacity:1;fill-rule:evenodd;stroke:none;stroke-width:2.18106723"
           d="m 0,0 v 0 c -5.777,0 -10.503,-4.726 -10.503,-10.503 v -22.805 c 0,-5.777 4.726,-10.503 10.503,-10.503 5.777,0 10.503,4.726 10.503,10.503 v 22.805 C 10.503,-4.726 5.777,0 0,0" />
      </g>
      <g
         transform="translate(187.7202,414.5092)"
         id="g864"
         style="stroke-width:2.18106723">
        <path
           inkscape:connector-curvature="0"
           id="path866"
           style="fill:#e0ba9b;fill-opacity:1;fill-rule:evenodd;stroke:none;stroke-width:2.18106723"
           d="M 0,0 V 0 C 0,-8.77 21.006,-8.77 21.006,0 21.006,8.769 0,8.769 0,0" />
      </g>
      <g
         transform="translate(198.2229,494.9197)"
         id="g868"
         style="stroke-width:2.18106723">
        <path
           inkscape:connector-curvature="0"
           id="path870"
           style="fill:#fcdabe;fill-opacity:1;fill-rule:evenodd;stroke:none;stroke-width:2.18106723"
           d="M 0,0 C 45.955,0 42.436,-43.08 33.668,-58.237 21.702,-78.922 5.609,-83.499 0,-83.499 c -5.609,0 -21.701,4.577 -33.667,25.262 C -42.436,-43.08 -45.955,0 0,0" />
      </g>
      <g
         transform="translate(218.7331,339.489)"
         id="g872"
         style="stroke-width:2.18106723">
        <path
           inkscape:connector-curvature="0"
           id="path874"
           style="fill:#fcdabe;fill-opacity:1;fill-rule:evenodd;stroke:none;stroke-width:2.18106723"
           d="m 0,0 v 0 c -0.353,0.237 -0.793,-0.239 -0.824,-0.656 l -0.461,-6.162 c -0.031,-0.417 0.369,-0.624 0.722,-0.861 V -7.68 c 0.352,-0.237 0.792,0.239 0.824,0.657 l 0.461,6.161 C 0.753,-0.445 0.425,-0.056 0,0" />
      </g>
      <g
         transform="translate(217.8925,336.8542)"
         id="g876"
         style="stroke-width:2.18106723">
        <path
           inkscape:connector-curvature="0"
           id="path878"
           style="fill:#fcdabe;fill-opacity:1;fill-rule:evenodd;stroke:none;stroke-width:2.18106723"
           d="M 0,0 0.201,2.65 8.956,1.39 8.755,-1.26 C 7.908,-9.239 -0.994,-9.688 0,0" />
      </g>
      <g
         transform="translate(217.9977,338.7241)"
         id="g880"
         style="stroke-width:2.18106723">
        <path
           inkscape:connector-curvature="0"
           id="path882"
           style="fill:#fcdabe;fill-opacity:1;fill-rule:evenodd;stroke:none;stroke-width:2.18106723"
           d="m 0,0 1.892,25.454 c 1.634,6.744 9.292,7.555 9.646,1.556 L 8.677,-1.223 Z" />
      </g>
      <g
         transform="translate(174.4006,364.9848)"
         id="g884"
         style="stroke-width:2.18106723">
        <path
           inkscape:connector-curvature="0"
           id="path886"
           style="fill:#fcdabe;fill-opacity:1;fill-rule:evenodd;stroke:none;stroke-width:2.18106723"
           d="M 0,0 V 0 C 0.017,0.417 0.675,0.471 1.035,0.243 L 6.37,-3.115 C 6.73,-3.342 6.659,-3.778 6.641,-4.194 6.623,-4.611 5.967,-4.666 5.606,-4.438 L 0.271,-1.079 C -0.09,-0.852 -0.211,-0.363 0,0" />
      </g>
      <g
         transform="translate(216.4776,344.5002)"
         id="g888"
         style="stroke-width:2.18106723">
        <path
           inkscape:connector-curvature="0"
           id="path890"
           style="fill:#e3687f;fill-opacity:1;fill-rule:evenodd;stroke:none;stroke-width:2.18106723"
           d="m 0,0 -1.352,-24.67 h -33.71 L -36.509,0 -19.518,52.263 c 0.78,-0.075 1.562,-0.093 2.347,-0.021 z" />
      </g>
      <g
         transform="translate(184.6058,259.4721)"
         id="g892"
         style="stroke-width:2.18106723">
        <path
           inkscape:connector-curvature="0"
           id="path894"
           style="fill:#fcdabe;fill-opacity:1;fill-rule:evenodd;stroke:none;stroke-width:2.18106723"
           d="m 0,0 c -3.09,-4.474 -7.207,-7.048 -8.235,-10.275 -0.581,-1.826 -0.15,-4.133 1.705,-4.363 7.979,-0.987 10.298,2.933 13.139,3.729 C 11.52,-9.531 11.647,-6.706 9.659,0 7.672,6.706 2.487,4.185 0,0" />
      </g>
      <g
         transform="translate(185.9451,445.1163)"
         id="g896"
         style="stroke-width:2.18106723">
        <path
           inkscape:connector-curvature="0"
           id="path898"
           style="fill:#425156;fill-opacity:1;fill-rule:evenodd;stroke:none;stroke-width:2.18106723"
           d="m 0,0 c 1.57,0 2.85,2.28 2.85,5.077 0,2.797 -1.28,5.078 -2.85,5.078 -1.57,0 -2.85,-2.281 -2.85,-5.078 C -2.85,2.28 -1.57,0 0,0" />
      </g>
      <g
         transform="translate(210.501,445.1163)"
         id="g900"
         style="stroke-width:2.18106723">
        <path
           inkscape:connector-curvature="0"
           id="path902"
           style="fill:#425156;fill-opacity:1;fill-rule:evenodd;stroke:none;stroke-width:2.18106723"
           d="M 0,0 C 1.57,0 2.851,2.28 2.851,5.077 2.851,7.874 1.57,10.155 0,10.155 -1.57,10.155 -2.85,7.874 -2.85,5.077 -2.85,2.28 -1.57,0 0,0" />
      </g>
      <g
         transform="translate(192.4575,439.3742)"
         id="g904"
         style="stroke-width:2.18106723">
        <path
           inkscape:connector-curvature="0"
           id="path906"
           style="fill:#e0ba9b;fill-opacity:1;fill-rule:evenodd;stroke:none;stroke-width:2.18106723"
           d="M 0,0 C 2.213,-5.484 9.318,-5.388 11.531,0 8.291,-2.996 3.416,-3.135 0,0" />
      </g>
      <g
         transform="translate(217.4626,253.0688)"
         id="g908"
         style="stroke-width:2.18106723">
        <path
           inkscape:connector-curvature="0"
           id="path910"
           style="fill:#e82c4f;fill-opacity:1;fill-rule:evenodd;stroke:none;stroke-width:2.18106723"
           d="m 0,0 c 1.201,-1.3 2.163,-2.529 2.591,-3.872 1.503,-4.717 -2.698,-4.841 -6.13,-4.398 -4.576,0.59 -6.484,3.14 -8.713,3.764 -4.413,1.239 -4.963,3.644 -3.588,8.982 0.188,-4.657 4.544,-5.923 9.381,-8.217 C -1.622,-6.036 2.277,-3.764 0,0" />
      </g>
      <g
         transform="translate(178.9594,253.0688)"
         id="g912"
         style="stroke-width:2.18106723">
        <path
           inkscape:connector-curvature="0"
           id="path914"
           style="fill:#e82c4f;fill-opacity:1;fill-rule:evenodd;stroke:none;stroke-width:2.18106723"
           d="m 0,0 c -1.2,-1.3 -2.163,-2.529 -2.591,-3.872 -1.72,-5.4 4.41,-4.992 7.876,-4.053 3.361,0.911 5.045,2.881 6.968,3.419 4.412,1.239 4.962,3.644 3.588,8.982 C 15.652,-0.181 11.296,-1.447 6.459,-3.741 1.623,-6.036 -2.276,-3.764 0,0" />
      </g>
      <g
         transform="translate(175.472,365.094)"
         id="g916"
         style="stroke-width:2.18106723">
        <path
           inkscape:connector-curvature="0"
           id="path918"
           style="fill:#fcdabe;fill-opacity:1;fill-rule:evenodd;stroke:none;stroke-width:2.18106723"
           d="m 0,0 -18.87,14.793 c -6.52,2.8 -12.522,-5.51 -4.89,-9.562 L -4.23,-7.465 Z" />
      </g>
      <g
         transform="translate(177.0694,364.0472)"
         id="g920"
         style="stroke-width:2.18106723">
        <path
           inkscape:connector-curvature="0"
           id="path922"
           style="fill:#fcdabe;fill-opacity:1;fill-rule:evenodd;stroke:none;stroke-width:2.18106723"
           d="m 0,0 -2.296,1.442 -4.247,-7.547 2.296,-1.443 C 2.812,-11.702 8.549,-5.072 0,0" />
      </g>
      <g
         transform="translate(187.2308,461.5838)"
         id="g924"
         style="stroke-width:2.18106723">
        <path
           inkscape:connector-curvature="0"
           id="path926"
           style="fill:#e88c6a;fill-opacity:1;fill-rule:evenodd;stroke:none;stroke-width:2.18106723"
           d="m 0,0 c -2.796,0.658 -6.008,-0.865 -7.384,-3.288 -0.69,-1.214 -0.219,-1.36 0.249,-0.618 1.82,2.887 4.549,3.163 6.958,2.661 C 1.1,-1.51 1.429,-0.336 0,0" />
      </g>
      <g
         transform="translate(209.194,461.5838)"
         id="g928"
         style="stroke-width:2.18106723">
        <path
           inkscape:connector-curvature="0"
           id="path930"
           style="fill:#e88c6a;fill-opacity:1;fill-rule:evenodd;stroke:none;stroke-width:2.18106723"
           d="m 0,0 c 2.796,0.658 6.008,-0.865 7.385,-3.288 0.69,-1.214 0.218,-1.36 -0.25,-0.618 -1.82,2.887 -4.549,3.163 -6.958,2.661 C -1.1,-1.51 -1.429,-0.336 0,0" />
      </g>
      <g
         transform="translate(229.5337,365.731)"
         id="g932"
         style="stroke-width:2.18106723">
        <path
           inkscape:connector-curvature="0"
           id="path934"
           style="fill:#e3687f;fill-opacity:1;fill-rule:evenodd;stroke:none;stroke-width:2.18106723"
           d="m 0,0 -9.644,-1.553 -0.776,7.159 9.906,1.746 z" />
      </g>
      <g
         transform="translate(231.3718,414.0985)"
         id="g936"
         style="stroke-width:2.18106723">
        <path
           inkscape:connector-curvature="0"
           id="path938"
           style="fill:#e88c6a;fill-opacity:1;fill-rule:evenodd;stroke:none;stroke-width:2.18106723"
           d="m 0,0 c 21.81,66.455 -6.612,82.544 -32.806,82.942 -26.393,0.401 -55.174,-17.18 -33.57,-82.296 0.089,27.867 14.431,53.752 33.188,64.252 C -14.431,54.398 -0.089,27.867 0,0" />
      </g>
      <g
         transform="translate(174.0651,408.0692)"
         id="g940"
         style="stroke-width:2.18106723">
        <path
           inkscape:connector-curvature="0"
           id="path942"
           style="fill:#f5a487;fill-opacity:1;fill-rule:evenodd;stroke:none;stroke-width:2.18106723"
           d="M 0,0 C -26.559,31.921 11.958,70.88 24.119,77.753 8.75,79.064 -32.693,35.122 0,0" />
      </g>
      <g
         transform="translate(222.3024,408.0692)"
         id="g944"
         style="stroke-width:2.18106723">
        <path
           inkscape:connector-curvature="0"
           id="path946"
           style="fill:#f5a487;fill-opacity:1;fill-rule:evenodd;stroke:none;stroke-width:2.18106723"
           d="M 0,0 C 26.559,31.921 -11.958,70.88 -24.118,77.753 -8.75,79.064 32.693,35.122 0,0" />
      </g>
      <g
         transform="translate(236.021,458.1537)"
         id="g948"
         style="stroke-width:2.18106723">
        <path
           inkscape:connector-curvature="0"
           id="path950"
           style="fill:#fcdabe;fill-opacity:1;fill-rule:evenodd;stroke:none;stroke-width:2.18106723"
           d="m 0,0 c -1.033,0.256 -2.142,-0.054 -3.213,-0.802 2.17,-4.592 3.761,-9.538 4.469,-14.669 0.589,1.152 1.089,2.453 1.458,3.857 C 4.204,-5.942 2.989,-0.742 0,0" />
      </g>
      <g
         transform="translate(161.0716,458.1537)"
         id="g952"
         style="stroke-width:2.18106723">
        <path
           inkscape:connector-curvature="0"
           id="path954"
           style="fill:#fcdabe;fill-opacity:1;fill-rule:evenodd;stroke:none;stroke-width:2.18106723"
           d="m 0,0 c 1.033,0.256 2.142,-0.054 3.213,-0.802 -2.17,-4.592 -3.761,-9.538 -4.469,-14.669 -0.589,1.152 -1.089,2.453 -1.458,3.857 C -4.204,-5.942 -2.989,-0.742 0,0" />
      </g>
      <g
         transform="translate(183.3958,428.2891)"
         id="g956"
         style="stroke-width:2.18106723">
        <path
           inkscape:connector-curvature="0"
           id="path958"
           style="fill:#bf9470;fill-opacity:1;fill-rule:evenodd;stroke:none;stroke-width:2.18106723"
           d="M 0,0 C 6.649,-2.992 21.433,-3.532 29.655,0 20.277,-1.013 10.494,-1.219 0,0" />
      </g>
      <g
         transform="translate(191.3339,425.2802)"
         id="g960"
         style="stroke-width:2.18106723">
        <path
           inkscape:connector-curvature="0"
           id="path962"
           style="fill:#e0ba9b;fill-opacity:1;fill-rule:evenodd;stroke:none;stroke-width:2.18106723"
           d="M 0,0 C 2.567,-3.486 11.056,-3.432 13.778,0 9.807,-1.617 3.971,-1.623 0,0" />
      </g>
      <g
         transform="translate(152.3829,382.0724)"
         id="g964"
         style="stroke-width:2.18106723">
        <path
           inkscape:connector-curvature="0"
           id="path966"
           style="fill:#e3687f;fill-opacity:1;fill-rule:evenodd;stroke:none;stroke-width:2.18106723"
           d="M 0,0 9.177,-6.072 14.299,-1.01 4.73,5.676 Z" />
      </g>
    </g>
  </g>
</svg>
