<?xml version="1.0" encoding="UTF-8" standalone="no"?>
<!-- Created with Inkscape (http://www.inkscape.org/) -->

<svg
   xmlns:dc="http://purl.org/dc/elements/1.1/"
   xmlns:cc="http://creativecommons.org/ns#"
   xmlns:rdf="http://www.w3.org/1999/02/22-rdf-syntax-ns#"
   xmlns:svg="http://www.w3.org/2000/svg"
   xmlns="http://www.w3.org/2000/svg"
   xmlns:sodipodi="http://sodipodi.sourceforge.net/DTD/sodipodi-0.dtd"
   xmlns:inkscape="http://www.inkscape.org/namespaces/inkscape"
   width="13.957399mm"
   height="41.010418mm"
   viewBox="0 0 49.45535 145.31251"
   id="svg11472"
   version="1.1"
   inkscape:version="0.92.1 r"
   sodipodi:docname="ricardo.svg"
   inkscape:export-filename="/home/sam/Trabajo/CI/fundecyt/Megamente/img/deduccion/personajes/ricardo.png"
   inkscape:export-xdpi="90"
   inkscape:export-ydpi="90">
  <defs
     id="defs11474" />
  <sodipodi:namedview
     id="base"
     pagecolor="#ffffff"
     bordercolor="#666666"
     borderopacity="1.0"
     inkscape:pageopacity="0.0"
     inkscape:pageshadow="2"
     inkscape:zoom="0.9899495"
     inkscape:cx="-187.20479"
     inkscape:cy="175.17627"
     inkscape:document-units="px"
     inkscape:current-layer="layer1"
     showgrid="false"
     fit-margin-top="0"
     fit-margin-left="0"
     fit-margin-right="0"
     fit-margin-bottom="0"
     inkscape:window-width="1366"
     inkscape:window-height="707"
     inkscape:window-x="0"
     inkscape:window-y="0"
     inkscape:window-maximized="1" />
  <metadata
     id="metadata11477">
    <rdf:RDF>
      <cc:Work
         rdf:about="">
        <dc:format>image/svg+xml</dc:format>
        <dc:type
           rdf:resource="http://purl.org/dc/dcmitype/StillImage" />
        <dc:title></dc:title>
      </cc:Work>
    </rdf:RDF>
  </metadata>
  <g
     inkscape:label="Capa 1"
     inkscape:groupmode="layer"
     id="layer1"
     transform="translate(-250.11102,-444.71206)">
    <g
       id="g4631"
       transform="matrix(0.44471628,0,0,0.44471628,138.88258,327.63103)"
       style="stroke-width:2.24862456">
      <g
         transform="matrix(1.25,0,0,-1.25,305.69522,264.58838)"
         id="g674"
         style="stroke-width:2.24862456">
        <path
           inkscape:connector-curvature="0"
           id="path676"
           style="fill:#aa7764;fill-opacity:1;fill-rule:evenodd;stroke:none;stroke-width:2.24862456"
           d="M 0,0 C -59.267,0 -44.986,-78.557 0,-78.557 44.987,-78.557 59.266,0 0,0" />
      </g>
      <g
         transform="matrix(1.25,0,0,-1.25,282.04872,564.05013)"
         id="g678"
         style="stroke-width:2.24862456">
        <path
           inkscape:connector-curvature="0"
           id="path680"
           style="fill:#e8972d;fill-opacity:1;fill-rule:evenodd;stroke:none;stroke-width:2.24862456"
           d="m 0,0 c -4.135,-6.159 -9.645,-9.702 -11.021,-14.145 -2.222,-7.175 5.778,-7.183 10.484,-5.832 4.409,1.266 6.832,4.226 9.38,4.961 C 15.415,-13.12 15.584,-9.231 12.925,0 10.266,9.231 3.328,5.762 0,0" />
      </g>
      <g
         transform="matrix(1.25,0,0,-1.25,328.97497,564.05013)"
         id="g682"
         style="stroke-width:2.24862456">
        <path
           inkscape:connector-curvature="0"
           id="path684"
           style="fill:#e8972d;fill-opacity:1;fill-rule:evenodd;stroke:none;stroke-width:2.24862456"
           d="m 0,0 c 4.135,-6.159 9.643,-9.702 11.019,-14.145 2.265,-7.311 -6.168,-7.089 -10.747,-5.735 -4.337,1.283 -6.589,4.135 -9.115,4.864 -6.572,1.896 -6.741,5.785 -4.083,15.016 2.659,9.231 9.598,5.762 12.926,0" />
      </g>
      <g
         transform="matrix(1.25,0,0,-1.25,276.62484,464.61613)"
         id="g686"
         style="stroke-width:2.24862456">
        <path
           inkscape:connector-curvature="0"
           id="path688"
           style="fill:#869ab5;fill-opacity:1;fill-rule:evenodd;stroke:none;stroke-width:2.24862456"
           d="M 0,0 H 46.511 V -84.694 H 27.193 v 61.505 c 0,5.277 -7.873,5.309 -7.873,0 V -84.694 H 0 Z" />
      </g>
      <g
         style="fill:#deaa87;fill-opacity:1;stroke-width:2.24862456"
         transform="matrix(1.25,0,0,-1.25,290.23297,394.35213)"
         id="g690">
        <path
           inkscape:connector-curvature="0"
           id="path692"
           style="fill:#deaa87;fill-opacity:1;fill-rule:evenodd;stroke:none;stroke-width:2.24862456"
           d="m 0,0 -11.314,-35.615 c -1.441,-4.536 -6.333,-7.069 -10.869,-5.627 -4.538,1.44 -7.07,6.331 -5.629,10.868 L -16.498,5.24 C -13.211,15.586 3.117,9.812 0,0" />
      </g>
      <g
         style="fill:#deaa87;fill-opacity:1;stroke-width:2.24862456"
         transform="matrix(1.25,0,0,-1.25,269.48747,472.92888)"
         id="g694">
        <path
           inkscape:connector-curvature="0"
           id="path696"
           style="fill:#deaa87;fill-opacity:1;fill-rule:evenodd;stroke:none;stroke-width:2.24862456"
           d="M 0,0 V 0 C 1.149,-0.141 1.972,-1.197 1.831,-2.346 L 1.206,-7.413 c -0.143,-1.148 -1.199,-1.972 -2.346,-1.83 -1.149,0.141 -1.974,1.197 -1.83,2.345 l 0.624,5.067 C -2.204,-0.682 -1.149,0.141 0,0" />
      </g>
      <g
         style="fill:#deaa87;fill-opacity:1;stroke-width:2.24862456"
         transform="matrix(1.25,0,0,-1.25,271.77559,475.86113)"
         id="g698">
        <path
           inkscape:connector-curvature="0"
           id="path700"
           style="fill:#deaa87;fill-opacity:1;fill-rule:evenodd;stroke:none;stroke-width:2.24862456"
           d="M 0,0 0.304,2.811 -16.53,4.785 -16.833,1.974 C -18.191,-10.448 -1.551,-14.37 0,0" />
      </g>
      <g
         style="fill:#deaa87;fill-opacity:1;stroke-width:2.24862456"
         transform="matrix(1.25,0,0,-1.25,272.15584,472.34738)"
         id="g702">
        <path
           inkscape:connector-curvature="0"
           id="path704"
           style="fill:#deaa87;fill-opacity:1;fill-rule:evenodd;stroke:none;stroke-width:2.24862456"
           d="m 0,0 3.262,26.849 c 0.573,4.723 -2.943,9.022 -7.676,9.532 -4.733,0.512 -9.024,-2.943 -9.534,-7.674 L -16.834,1.974 Z" />
      </g>
      <g
         style="fill:#deaa87;fill-opacity:1;stroke-width:2.24862456"
         transform="matrix(1.25,0,0,-1.25,321.38809,394.35213)"
         id="g706">
        <path
           inkscape:connector-curvature="0"
           id="path708"
           style="fill:#deaa87;fill-opacity:1;fill-rule:evenodd;stroke:none;stroke-width:2.24862456"
           d="m 0,0 11.312,-35.615 c 1.443,-4.536 6.333,-7.069 10.871,-5.627 4.536,1.44 7.068,6.331 5.627,10.868 L 16.496,5.24 C 13.209,15.586 -3.117,9.812 0,0" />
      </g>
      <g
         style="fill:#deaa87;fill-opacity:1;stroke-width:2.24862456"
         transform="matrix(1.25,0,0,-1.25,342.13122,472.92888)"
         id="g710">
        <path
           inkscape:connector-curvature="0"
           id="path712"
           style="fill:#deaa87;fill-opacity:1;fill-rule:evenodd;stroke:none;stroke-width:2.24862456"
           d="m 0,0 v 0 c -1.149,-0.141 -1.972,-1.197 -1.831,-2.346 l 0.627,-5.067 c 0.141,-1.148 1.197,-1.972 2.346,-1.83 1.148,0.141 1.972,1.197 1.83,2.345 L 2.346,-1.831 C 2.205,-0.682 1.149,0.141 0,0" />
      </g>
      <g
         style="fill:#deaa87;fill-opacity:1;stroke-width:2.24862456"
         transform="matrix(1.25,0,0,-1.25,339.84309,475.86113)"
         id="g714">
        <path
           inkscape:connector-curvature="0"
           id="path716"
           style="fill:#deaa87;fill-opacity:1;fill-rule:evenodd;stroke:none;stroke-width:2.24862456"
           d="M 0,0 -0.302,2.811 16.53,4.785 16.834,1.973 C 18.191,-10.448 1.553,-14.37 0,0" />
      </g>
      <g
         style="fill:#deaa87;fill-opacity:1;stroke-width:2.24862456"
         transform="matrix(1.25,0,0,-1.25,339.46509,472.34738)"
         id="g718">
        <path
           inkscape:connector-curvature="0"
           id="path720"
           style="fill:#deaa87;fill-opacity:1;fill-rule:evenodd;stroke:none;stroke-width:2.24862456"
           d="m 0,0 -3.262,26.849 c -0.574,4.723 2.944,9.022 7.676,9.532 4.733,0.512 9.022,-2.943 9.534,-7.675 L 16.833,1.974 Z" />
      </g>
      <path
         inkscape:connector-curvature="0"
         id="path722"
         style="fill:#ff6600;fill-opacity:1;fill-rule:evenodd;stroke:none;stroke-width:2.24862456"
         d="m 276.62672,380.90563 h 58.13625 v 91.6625 h -58.13625 z" />
      <g
         style="fill:#deaa87;stroke-width:2.24862456"
         transform="matrix(1.25,0,0,-1.25,305.69522,337.69525)"
         id="g724">
        <path
           inkscape:connector-curvature="0"
           id="path726"
           style="fill:#deaa87;fill-opacity:1;fill-rule:evenodd;stroke:none;stroke-width:2.24862456"
           d="m 0,0 v 0 c 5.776,0 10.502,-4.727 10.502,-10.504 v -24.065 c 0,-5.776 -4.726,-10.502 -10.502,-10.502 -5.776,0 -10.504,4.726 -10.504,10.502 v 24.065 C -10.504,-4.727 -5.776,0 0,0" />
      </g>
      <g
         style="fill:#d38d5f;stroke-width:2.24862456"
         transform="matrix(1.25,0,0,-1.25,318.82247,371.11613)"
         id="g728">
        <path
           inkscape:connector-curvature="0"
           id="path730"
           style="fill:#d38d5f;fill-opacity:1;fill-rule:evenodd;stroke:none;stroke-width:2.24862456"
           d="M 0,0 V 0 C 0,-9.021 -21.005,-9.021 -21.005,0 -21.005,9.021 0,9.021 0,0" />
      </g>
      <g
         style="fill:#deaa87;stroke-width:2.24862456"
         transform="matrix(1.25,0,0,-1.25,305.69522,267.713)"
         id="g732">
        <path
           inkscape:connector-curvature="0"
           id="path734"
           style="fill:#deaa87;fill-opacity:1;fill-rule:evenodd;stroke:none;stroke-width:2.24862456"
           d="M 0,0 C -59.183,0 -44.924,-85.9 0,-85.9 44.922,-85.9 59.182,0 0,0" />
      </g>
      <g
         style="fill:#deaa87;stroke-width:2.24862456"
         transform="matrix(1.25,0,0,-1.25,254.29797,314.99151)"
         id="g736">
        <path
           inkscape:connector-curvature="0"
           id="path738"
           style="fill:#deaa87;fill-opacity:1;fill-rule:evenodd;stroke:none;stroke-width:2.24862456"
           d="M 0,0 C 2.99,0.763 6.621,-3.349 8.111,-9.185 9.6,-15.02 8.387,-20.369 5.397,-21.133 c -2.989,-0.763 -6.619,3.349 -8.11,9.184 C -4.203,-6.113 -2.988,-0.763 0,0" />
      </g>
      <g
         style="fill:#deaa87;stroke-width:2.24862456"
         transform="matrix(1.25,0,0,-1.25,357.1306,314.99151)"
         id="g740">
        <path
           inkscape:connector-curvature="0"
           id="path742"
           style="fill:#deaa87;fill-opacity:1;fill-rule:evenodd;stroke:none;stroke-width:2.24862456"
           d="m 0,0 c -2.99,0.763 -6.621,-3.349 -8.109,-9.185 -1.491,-5.835 -0.276,-11.184 2.712,-11.948 2.99,-0.763 6.621,3.349 8.11,9.184 C 4.203,-6.113 2.988,-0.763 0,0" />
      </g>
      <g
         style="fill:#2c5aa0;stroke-width:2.24862456"
         transform="matrix(1.25,0,0,-1.25,321.04135,331.75675)"
         id="g744">
        <path
           inkscape:connector-curvature="0"
           id="path746"
           style="fill:#2c5aa0;fill-opacity:1;fill-rule:evenodd;stroke:none;stroke-width:2.24862456"
           d="M 0,0 C 1.571,0 2.851,2.346 2.851,5.223 2.851,8.1 1.571,10.446 0,10.446 -1.569,10.446 -2.849,8.1 -2.849,5.223 -2.849,2.346 -1.569,0 0,0" />
      </g>
      <g
         style="fill:#2c5aa0;stroke-width:2.24862456"
         transform="matrix(1.25,0,0,-1.25,290.34697,331.75675)"
         id="g748">
        <path
           inkscape:connector-curvature="0"
           id="path750"
           style="fill:#2c5aa0;fill-opacity:1;fill-rule:evenodd;stroke:none;stroke-width:2.24862456"
           d="M 0,0 C 1.569,0 2.85,2.346 2.85,5.223 2.85,8.1 1.569,10.446 0,10.446 -1.569,10.446 -2.85,8.1 -2.85,5.223 -2.85,2.346 -1.569,0 0,0" />
      </g>
      <g
         transform="matrix(1.25,0,0,-1.25,312.90197,339.14125)"
         id="g752"
         style="stroke-width:2.24862456">
        <path
           inkscape:connector-curvature="0"
           id="path754"
           style="fill:#e0ba9b;fill-opacity:1;fill-rule:evenodd;stroke:none;stroke-width:2.24862456"
           d="M 0,0 C -2.213,-5.642 -9.319,-5.543 -11.531,0 -8.292,-3.082 -3.416,-3.225 0,0" />
      </g>
      <g
         style="fill:#1a1a1a;stroke-width:2.24862456"
         transform="matrix(1.25,0,0,-1.25,264.81047,329.02575)"
         id="g756">
        <path
           inkscape:connector-curvature="0"
           id="path758"
           style="fill:#1a1a1a;fill-opacity:1;fill-rule:evenodd;stroke:none;stroke-width:2.24862456"
           d="m 0,0 c 0.649,-6.284 -0.879,-4.505 -3.135,0.423 -2.256,4.928 -3.903,9.844 -3.507,14.711 3.806,46.989 73.672,47.565 78.669,0 C 72.537,10.277 70.777,5.351 68.52,0.423 66.264,-4.505 64.736,-6.283 65.385,0 66.173,7.63 64.999,18.61 60.962,25.073 53.819,36.508 44.498,29.872 31.861,29.872 19.227,29.872 13.302,35.029 5.051,24.474 0.05,18.076 -0.841,8.147 0,0" />
      </g>
      <g
         style="fill:#502d16;stroke-width:2.24862456"
         transform="matrix(1.25,0,0,-1.25,324.22859,349.58788)"
         id="g764">
        <path
           inkscape:connector-curvature="0"
           id="path766"
           style="fill:#502d16;fill-opacity:1;fill-rule:evenodd;stroke:none;stroke-width:2.24862456"
           d="M 0,0 C -5.112,-8.995 -23.439,-9.242 -29.655,0 -20.9,-3.459 -8.299,-3.221 0,0" />
      </g>
      <g
         style="fill:#1a1a1a;stroke-width:2.24862456"
         id="g12182">
        <g
           style="fill:#1a1a1a;stroke-width:2.24862456"
           id="g760"
           transform="matrix(1.25,0,0,-1.25,256.59947,309.07313)">
          <path
             d="M 0,0 C -4.702,49.447 83.143,48.26 78.552,0 68.375,29.494 10.176,29.494 0,0"
             style="fill:#1a1a1a;fill-opacity:1;fill-rule:evenodd;stroke:none;stroke-width:2.24862456"
             id="path762"
             inkscape:connector-curvature="0" />
        </g>
        <g
           style="fill:#1a1a1a;stroke-width:2.24862456"
           id="g768"
           transform="matrix(1.25,0,0,-1.25,328.26372,315.00488)">
          <path
             d="M 0,0 C 14.857,23.076 4.853,29.406 -11.805,36.23 9.575,39.08 35.011,18.099 0,0"
             style="fill:#1a1a1a;fill-opacity:1;fill-rule:evenodd;stroke:none;stroke-width:2.24862456"
             id="path770"
             inkscape:connector-curvature="0" />
        </g>
        <g
           style="fill:#1a1a1a;stroke-width:2.24862456"
           id="g772"
           transform="matrix(1.25,0,0,-1.25,305.58572,313.18988)">
          <path
             d="M 0,0 C 22.789,17.7 15.847,25.339 3.312,34.735 26.418,33.057 43.55,9.264 0,0"
             style="fill:#1a1a1a;fill-opacity:1;fill-rule:evenodd;stroke:none;stroke-width:2.24862456"
             id="path774"
             inkscape:connector-curvature="0" />
        </g>
        <g
           style="fill:#1a1a1a;stroke-width:2.24862456"
           id="g776"
           transform="matrix(1.25,0,0,-1.25,285.25622,306.72351)">
          <path
             d="M 0,0 C 19.821,11.754 23.24,20.155 12.495,33.32 36.831,25.943 45.471,0.842 0,0"
             style="fill:#1a1a1a;fill-opacity:1;fill-rule:evenodd;stroke:none;stroke-width:2.24862456"
             id="path778"
             inkscape:connector-curvature="0" />
        </g>
        <g
           style="fill:#1a1a1a;stroke-width:2.24862456"
           id="g780"
           transform="matrix(1.25,0,0,-1.25,263.8711,304.35925)">
          <path
             d="M 0,0 C 10.5,11.753 16.117,16.848 16.802,28.949 42.401,22.469 60.017,10.329 0,0"
             style="fill:#1a1a1a;fill-opacity:1;fill-rule:evenodd;stroke:none;stroke-width:2.24862456"
             id="path782"
             inkscape:connector-curvature="0" />
        </g>
      </g>
      <g
         style="fill:#668000;stroke-width:2.24862456"
         transform="matrix(1.25,0,0,-1.25,323.04772,394.05025)"
         id="g784">
        <path
           inkscape:connector-curvature="0"
           id="path786"
           style="fill:#668000;fill-opacity:1;fill-rule:evenodd;stroke:none;stroke-width:2.24862456"
           d="M 0,0 6.3,-21.835 23.008,-17.301 16.63,4.8 C 13.621,15.23 -2.856,9.892 0,0" />
      </g>
      <g
         style="fill:#668000;stroke-width:2.24862456"
         transform="matrix(1.25,0,0,-1.25,289.02072,394.05025)"
         id="g788">
        <path
           inkscape:connector-curvature="0"
           id="path790"
           style="fill:#668000;fill-opacity:1;fill-rule:evenodd;stroke:none;stroke-width:2.24862456"
           d="M 0,0 -6.302,-21.835 -23.009,-17.301 -16.63,4.8 C -13.621,15.23 2.854,9.892 0,0" />
      </g>
      <g
         style="fill:#ff6600;fill-opacity:1;stroke-width:2.24862456"
         transform="matrix(1.25,0,0,-1.25,260.25885,415.677)"
         id="g792">
        <path
           inkscape:connector-curvature="0"
           id="path794"
           style="fill:#ff6600;fill-opacity:1;fill-rule:evenodd;stroke:none;stroke-width:2.24862456"
           d="M 0,0 0.896,3.107 13.095,-0.164 V -3.553 Z" />
      </g>
      <g
         transform="matrix(1.25,0,0,-1.25,269.03334,580.10526)"
         id="g796"
         style="stroke-width:2.24862456">
        <path
           inkscape:connector-curvature="0"
           id="path798"
           style="fill:#f5b158;fill-opacity:1;fill-rule:evenodd;stroke:none;stroke-width:2.24862456"
           d="m 0,0 c -0.242,-0.469 -0.442,-0.943 -0.592,-1.428 -2.23,-7.2 5.38,-7.055 10.042,-5.933 4.879,1.174 7.143,4.289 9.821,5.062 3.526,1.016 5.208,2.607 5.601,5.287 C 21.131,0.079 15.473,-2.306 9.473,-4.278 6.921,-1.451 3.233,-0.045 0,0" />
      </g>
      <g
         transform="matrix(1.25,0,0,-1.25,272.26322,576.31288)"
         id="g800"
         style="stroke-width:2.24862456">
        <path
           inkscape:connector-curvature="0"
           id="path802"
           style="fill:#f5b158;fill-opacity:1;fill-rule:nonzero;stroke:none;stroke-width:2.24862456"
           d="M 0,0 C -0.245,-0.179 -0.589,-0.126 -0.768,0.118 -0.947,0.362 -0.893,0.706 -0.65,0.885 -0.22,1.2 0.449,1.479 1.26,1.69 H 1.247 C 1.088,1.676 0.938,1.73 0.828,1.83 0.771,1.866 0.719,1.914 0.678,1.971 0.499,2.214 0.551,2.558 0.796,2.737 1.329,3.128 2.317,3.54 3.511,3.857 3.423,3.852 3.335,3.846 3.246,3.838 2.945,3.811 2.679,4.033 2.652,4.335 2.625,4.635 2.847,4.902 3.147,4.929 4.008,5.008 4.761,4.922 5.425,4.719 V 3.137 C 4.609,3.014 3.838,2.835 3.18,2.629 3.65,2.504 4.078,2.322 4.468,2.098 4.785,2.102 5.105,2.094 5.425,2.074 v -2.24 C 5.196,0.112 4.946,0.377 4.667,0.616 4.509,0.752 4.341,0.879 4.162,0.997 2.357,0.939 0.719,0.529 0,0 M 5.425,4.719 C 5.747,4.621 6.05,4.496 6.331,4.348 L 6.413,4.355 C 8.213,4.498 10.072,4.326 11.434,3.574 11.699,3.429 11.797,3.095 11.651,2.83 11.506,2.564 11.171,2.467 10.906,2.612 10.053,3.084 8.929,3.283 7.748,3.302 8.496,2.568 9.027,1.714 9.446,0.997 9.645,0.832 9.706,0.545 9.577,0.31 9.432,0.045 9.097,-0.052 8.832,0.094 7.997,0.554 6.975,0.819 5.917,0.933 6.624,0.184 7.132,-0.658 7.53,-1.344 7.682,-1.606 7.592,-1.942 7.331,-2.093 7.068,-2.245 6.733,-2.155 6.581,-1.894 c -0.306,0.526 -0.68,1.15 -1.156,1.728 v 2.24 C 6.189,2.027 6.952,1.914 7.671,1.72 7.379,2.111 7.043,2.49 6.653,2.816 6.477,2.963 6.291,3.099 6.091,3.222 5.865,3.198 5.644,3.17 5.425,3.137 Z" />
      </g>
      <g
         transform="matrix(1.25,0,0,-1.25,341.98584,580.02038)"
         id="g804"
         style="stroke-width:2.24862456">
        <path
           inkscape:connector-curvature="0"
           id="path806"
           style="fill:#f5b158;fill-opacity:1;fill-rule:evenodd;stroke:none;stroke-width:2.24862456"
           d="m 0,0 c 0.242,-0.468 0.442,-0.942 0.592,-1.428 2.23,-7.199 -5.448,-7.054 -10.11,-5.932 -4.879,1.174 -7.075,4.289 -9.754,5.062 -3.525,1.016 -5.207,2.607 -5.598,5.287 3.739,-2.909 9.397,-5.294 15.397,-7.266 C -6.921,-1.45 -3.232,-0.045 0,0" />
      </g>
      <g
         transform="matrix(1.25,0,0,-1.25,331.97435,570.32751)"
         id="g808"
         style="stroke-width:2.24862456">
        <path
           inkscape:connector-curvature="0"
           id="path810"
           style="fill:#f5b158;fill-opacity:1;fill-rule:nonzero;stroke:none;stroke-width:2.24862456"
           d="m 0,0 c -0.322,-0.098 -0.623,-0.225 -0.905,-0.371 l -0.083,0.007 c -1.8,0.143 -3.659,-0.03 -5.021,-0.781 -0.265,-0.146 -0.361,-0.48 -0.216,-0.746 0.145,-0.264 0.479,-0.362 0.744,-0.216 0.856,0.471 1.977,0.67 3.158,0.689 -0.746,-0.734 -1.279,-1.587 -1.698,-2.305 -0.198,-0.164 -0.257,-0.452 -0.13,-0.686 0.146,-0.266 0.479,-0.362 0.746,-0.217 0.834,0.46 1.855,0.724 2.913,0.841 -0.705,-0.75 -1.213,-1.593 -1.612,-2.278 -0.152,-0.262 -0.063,-0.598 0.2,-0.75 0.261,-0.151 0.598,-0.062 0.748,0.2 0.306,0.525 0.68,1.15 1.156,1.728 v 2.239 c -0.762,-0.046 -1.526,-0.159 -2.246,-0.353 0.294,0.389 0.628,0.769 1.02,1.096 0.174,0.147 0.362,0.283 0.562,0.405 C -0.44,-1.522 -0.218,-1.55 0,-1.583 Z m 5.427,-4.719 c 0.244,-0.179 0.587,-0.126 0.766,0.118 0.179,0.244 0.125,0.587 -0.118,0.766 -0.43,0.314 -1.099,0.594 -1.908,0.806 L 4.18,-3.03 c 0.159,-0.015 0.31,0.041 0.419,0.141 0.055,0.036 0.107,0.082 0.15,0.14 0.179,0.244 0.125,0.587 -0.118,0.766 -0.535,0.391 -1.523,0.804 -2.715,1.12 C 2.002,-0.867 2.09,-0.872 2.179,-0.881 2.48,-0.908 2.747,-0.686 2.773,-0.386 2.8,-0.084 2.579,0.182 2.278,0.209 1.417,0.289 0.664,0.202 0,0 V -1.583 C 0.816,-1.705 1.587,-1.885 2.246,-2.091 1.775,-2.215 1.349,-2.397 0.959,-2.621 0.641,-2.619 0.32,-2.626 0,-2.646 v -2.239 c 0.229,0.276 0.481,0.543 0.76,0.782 0.158,0.135 0.326,0.264 0.503,0.38 1.808,-0.057 3.443,-0.469 4.164,-0.996" />
      </g>
      <g
         style="fill:#ff6600;stroke-width:2.24862456"
         transform="matrix(1.4112591,0,0,-1.7038727,292.47919,379.98624)"
         id="g812">
        <path
           sodipodi:nodetypes="casccccc"
           inkscape:connector-curvature="0"
           id="path814"
           style="fill:#ff6600;fill-opacity:1;fill-rule:evenodd;stroke:none;stroke-width:2.24862456"
           d="m -9.6165393,-0.41921308 c 0,0 4.4378462,-0.22009806 6.1978256,-1.20167802 4.06181884,-2.2653671 6.0856485,-9.9462219 8.481777,-9.9347149 3.731462,0.01792 13.6807907,6.5559958 19.1996847,9.7391725 3.781621,2.18115593 4.207723,1.39722042 4.207723,1.39722042 l 1.491527,-26.91022892 -41.194597,3.291098 z" />
      </g>
      <g
         style="fill:#ff6600;fill-opacity:1;stroke-width:2.24862456"
         transform="matrix(1.25,0,0,-1.25,351.80735,415.677)"
         id="g828">
        <path
           inkscape:connector-curvature="0"
           id="path830"
           style="fill:#ff6600;fill-opacity:1;fill-rule:evenodd;stroke:none;stroke-width:2.24862456"
           d="M 0,0 -0.897,3.107 -13.635,-0.311 V -3.7 Z" />
      </g>
    </g>
  </g>
</svg>
