<?xml version="1.0" encoding="UTF-8" standalone="no"?>
<!-- Created with Inkscape (http://www.inkscape.org/) -->

<svg
   xmlns:dc="http://purl.org/dc/elements/1.1/"
   xmlns:cc="http://creativecommons.org/ns#"
   xmlns:rdf="http://www.w3.org/1999/02/22-rdf-syntax-ns#"
   xmlns:svg="http://www.w3.org/2000/svg"
   xmlns="http://www.w3.org/2000/svg"
   xmlns:sodipodi="http://sodipodi.sourceforge.net/DTD/sodipodi-0.dtd"
   xmlns:inkscape="http://www.inkscape.org/namespaces/inkscape"
   width="23.820629mm"
   height="69.991112mm"
   viewBox="0 0 84.4038 248"
   id="svg11472"
   version="1.1"
   inkscape:version="0.91 r13725"
   sodipodi:docname="ricardo.svg"
   inkscape:export-filename="/home/piccolina/Escritorio/fundacion/megamente-web/Megamente/img/quien-soy/ejercicio 6/ricardo.png"
   inkscape:export-xdpi="90"
   inkscape:export-ydpi="90">
  <defs
     id="defs11474" />
  <sodipodi:namedview
     id="base"
     pagecolor="#ffffff"
     bordercolor="#666666"
     borderopacity="1.0"
     inkscape:pageopacity="0.0"
     inkscape:pageshadow="2"
     inkscape:zoom="0.9899495"
     inkscape:cx="-67.974072"
     inkscape:cy="202.76578"
     inkscape:document-units="px"
     inkscape:current-layer="layer1"
     showgrid="false"
     fit-margin-top="0"
     fit-margin-left="0"
     fit-margin-right="0"
     fit-margin-bottom="0"
     inkscape:window-width="1366"
     inkscape:window-height="710"
     inkscape:window-x="0"
     inkscape:window-y="25"
     inkscape:window-maximized="1" />
  <metadata
     id="metadata11477">
    <rdf:RDF>
      <cc:Work
         rdf:about="">
        <dc:format>image/svg+xml</dc:format>
        <dc:type
           rdf:resource="http://purl.org/dc/dcmitype/StillImage" />
        <dc:title></dc:title>
      </cc:Work>
    </rdf:RDF>
  </metadata>
  <g
     inkscape:label="Capa 1"
     inkscape:groupmode="layer"
     id="layer1"
     transform="translate(-250.11102,-342.02455)">
    <g
       id="g4273"
       transform="matrix(0.75898245,0,0,0.75898245,60.281145,142.20627)">
      <g
         transform="matrix(1.25,0,0,-1.25,305.69522,264.58838)"
         id="g674">
        <path
           inkscape:connector-curvature="0"
           id="path676"
           style="fill:#aa7764;fill-opacity:1;fill-rule:evenodd;stroke:none"
           d="M 0,0 C -59.267,0 -44.986,-78.557 0,-78.557 44.987,-78.557 59.266,0 0,0" />
      </g>
      <g
         transform="matrix(1.25,0,0,-1.25,282.04872,564.05013)"
         id="g678">
        <path
           inkscape:connector-curvature="0"
           id="path680"
           style="fill:#e8972d;fill-opacity:1;fill-rule:evenodd;stroke:none"
           d="m 0,0 c -4.135,-6.159 -9.645,-9.702 -11.021,-14.145 -2.222,-7.175 5.778,-7.183 10.484,-5.832 4.409,1.266 6.832,4.226 9.38,4.961 C 15.415,-13.12 15.584,-9.231 12.925,0 10.266,9.231 3.328,5.762 0,0" />
      </g>
      <g
         transform="matrix(1.25,0,0,-1.25,328.97497,564.05013)"
         id="g682">
        <path
           inkscape:connector-curvature="0"
           id="path684"
           style="fill:#e8972d;fill-opacity:1;fill-rule:evenodd;stroke:none"
           d="m 0,0 c 4.135,-6.159 9.643,-9.702 11.019,-14.145 2.265,-7.311 -6.168,-7.089 -10.747,-5.735 -4.337,1.283 -6.589,4.135 -9.115,4.864 -6.572,1.896 -6.741,5.785 -4.083,15.016 2.659,9.231 9.598,5.762 12.926,0" />
      </g>
      <g
         transform="matrix(1.25,0,0,-1.25,276.62484,464.61613)"
         id="g686">
        <path
           inkscape:connector-curvature="0"
           id="path688"
           style="fill:#869ab5;fill-opacity:1;fill-rule:evenodd;stroke:none"
           d="m 0,0 46.511,0 0,-84.694 -19.318,0 0,61.505 c 0,5.277 -7.873,5.309 -7.873,0 l 0,-61.505 -19.32,0 L 0,0 Z" />
      </g>
      <g
         style="fill:#deaa87;fill-opacity:1"
         transform="matrix(1.25,0,0,-1.25,290.23297,394.35213)"
         id="g690">
        <path
           inkscape:connector-curvature="0"
           id="path692"
           style="fill:#deaa87;fill-opacity:1;fill-rule:evenodd;stroke:none"
           d="m 0,0 -11.314,-35.615 c -1.441,-4.536 -6.333,-7.069 -10.869,-5.627 -4.538,1.44 -7.07,6.331 -5.629,10.868 L -16.498,5.24 C -13.211,15.586 3.117,9.812 0,0" />
      </g>
      <g
         style="fill:#deaa87;fill-opacity:1"
         transform="matrix(1.25,0,0,-1.25,269.48747,472.92888)"
         id="g694">
        <path
           inkscape:connector-curvature="0"
           id="path696"
           style="fill:#deaa87;fill-opacity:1;fill-rule:evenodd;stroke:none"
           d="M 0,0 0,0 C 1.149,-0.141 1.972,-1.197 1.831,-2.346 L 1.206,-7.413 c -0.143,-1.148 -1.199,-1.972 -2.346,-1.83 -1.149,0.141 -1.974,1.197 -1.83,2.345 l 0.624,5.067 C -2.204,-0.682 -1.149,0.141 0,0" />
      </g>
      <g
         style="fill:#deaa87;fill-opacity:1"
         transform="matrix(1.25,0,0,-1.25,271.77559,475.86113)"
         id="g698">
        <path
           inkscape:connector-curvature="0"
           id="path700"
           style="fill:#deaa87;fill-opacity:1;fill-rule:evenodd;stroke:none"
           d="M 0,0 0.304,2.811 -16.53,4.785 -16.833,1.974 C -18.191,-10.448 -1.551,-14.37 0,0" />
      </g>
      <g
         style="fill:#deaa87;fill-opacity:1"
         transform="matrix(1.25,0,0,-1.25,272.15584,472.34738)"
         id="g702">
        <path
           inkscape:connector-curvature="0"
           id="path704"
           style="fill:#deaa87;fill-opacity:1;fill-rule:evenodd;stroke:none"
           d="m 0,0 3.262,26.849 c 0.573,4.723 -2.943,9.022 -7.676,9.532 -4.733,0.512 -9.024,-2.943 -9.534,-7.674 L -16.834,1.974 0,0 Z" />
      </g>
      <g
         style="fill:#deaa87;fill-opacity:1"
         transform="matrix(1.25,0,0,-1.25,321.38809,394.35213)"
         id="g706">
        <path
           inkscape:connector-curvature="0"
           id="path708"
           style="fill:#deaa87;fill-opacity:1;fill-rule:evenodd;stroke:none"
           d="m 0,0 11.312,-35.615 c 1.443,-4.536 6.333,-7.069 10.871,-5.627 4.536,1.44 7.068,6.331 5.627,10.868 L 16.496,5.24 C 13.209,15.586 -3.117,9.812 0,0" />
      </g>
      <g
         style="fill:#deaa87;fill-opacity:1"
         transform="matrix(1.25,0,0,-1.25,342.13122,472.92888)"
         id="g710">
        <path
           inkscape:connector-curvature="0"
           id="path712"
           style="fill:#deaa87;fill-opacity:1;fill-rule:evenodd;stroke:none"
           d="m 0,0 0,0 c -1.149,-0.141 -1.972,-1.197 -1.831,-2.346 l 0.627,-5.067 c 0.141,-1.148 1.197,-1.972 2.346,-1.83 1.148,0.141 1.972,1.197 1.83,2.345 L 2.346,-1.831 C 2.205,-0.682 1.149,0.141 0,0" />
      </g>
      <g
         style="fill:#deaa87;fill-opacity:1"
         transform="matrix(1.25,0,0,-1.25,339.84309,475.86113)"
         id="g714">
        <path
           inkscape:connector-curvature="0"
           id="path716"
           style="fill:#deaa87;fill-opacity:1;fill-rule:evenodd;stroke:none"
           d="M 0,0 -0.302,2.811 16.53,4.785 16.834,1.973 C 18.191,-10.448 1.553,-14.37 0,0" />
      </g>
      <g
         style="fill:#deaa87;fill-opacity:1"
         transform="matrix(1.25,0,0,-1.25,339.46509,472.34738)"
         id="g718">
        <path
           inkscape:connector-curvature="0"
           id="path720"
           style="fill:#deaa87;fill-opacity:1;fill-rule:evenodd;stroke:none"
           d="m 0,0 -3.262,26.849 c -0.574,4.723 2.944,9.022 7.676,9.532 4.733,0.512 9.022,-2.943 9.534,-7.675 L 16.833,1.974 0,0 Z" />
      </g>
      <path
         inkscape:connector-curvature="0"
         id="path722"
         style="fill:#ff6600;fill-opacity:1;fill-rule:evenodd;stroke:none"
         d="m 276.62672,380.90563 58.13625,0 0,91.6625 -58.13625,0 0,-91.6625 z" />
      <g
         style="fill:#deaa87"
         transform="matrix(1.25,0,0,-1.25,305.69522,337.69525)"
         id="g724">
        <path
           inkscape:connector-curvature="0"
           id="path726"
           style="fill:#deaa87;fill-opacity:1;fill-rule:evenodd;stroke:none"
           d="m 0,0 0,0 c 5.776,0 10.502,-4.727 10.502,-10.504 l 0,-24.065 c 0,-5.776 -4.726,-10.502 -10.502,-10.502 -5.776,0 -10.504,4.726 -10.504,10.502 l 0,24.065 C -10.504,-4.727 -5.776,0 0,0" />
      </g>
      <g
         style="fill:#d38d5f"
         transform="matrix(1.25,0,0,-1.25,318.82247,371.11613)"
         id="g728">
        <path
           inkscape:connector-curvature="0"
           id="path730"
           style="fill:#d38d5f;fill-opacity:1;fill-rule:evenodd;stroke:none"
           d="M 0,0 0,0 C 0,-9.021 -21.005,-9.021 -21.005,0 -21.005,9.021 0,9.021 0,0" />
      </g>
      <g
         style="fill:#deaa87"
         transform="matrix(1.25,0,0,-1.25,305.69522,267.713)"
         id="g732">
        <path
           inkscape:connector-curvature="0"
           id="path734"
           style="fill:#deaa87;fill-opacity:1;fill-rule:evenodd;stroke:none"
           d="M 0,0 C -59.183,0 -44.924,-85.9 0,-85.9 44.922,-85.9 59.182,0 0,0" />
      </g>
      <g
         style="fill:#deaa87"
         transform="matrix(1.25,0,0,-1.25,254.29797,314.99151)"
         id="g736">
        <path
           inkscape:connector-curvature="0"
           id="path738"
           style="fill:#deaa87;fill-opacity:1;fill-rule:evenodd;stroke:none"
           d="M 0,0 C 2.99,0.763 6.621,-3.349 8.111,-9.185 9.6,-15.02 8.387,-20.369 5.397,-21.133 c -2.989,-0.763 -6.619,3.349 -8.11,9.184 C -4.203,-6.113 -2.988,-0.763 0,0" />
      </g>
      <g
         style="fill:#deaa87"
         transform="matrix(1.25,0,0,-1.25,357.1306,314.99151)"
         id="g740">
        <path
           inkscape:connector-curvature="0"
           id="path742"
           style="fill:#deaa87;fill-opacity:1;fill-rule:evenodd;stroke:none"
           d="m 0,0 c -2.99,0.763 -6.621,-3.349 -8.109,-9.185 -1.491,-5.835 -0.276,-11.184 2.712,-11.948 2.99,-0.763 6.621,3.349 8.11,9.184 C 4.203,-6.113 2.988,-0.763 0,0" />
      </g>
      <g
         style="fill:#2c5aa0"
         transform="matrix(1.25,0,0,-1.25,321.04135,331.75675)"
         id="g744">
        <path
           inkscape:connector-curvature="0"
           id="path746"
           style="fill:#2c5aa0;fill-opacity:1;fill-rule:evenodd;stroke:none"
           d="M 0,0 C 1.571,0 2.851,2.346 2.851,5.223 2.851,8.1 1.571,10.446 0,10.446 -1.569,10.446 -2.849,8.1 -2.849,5.223 -2.849,2.346 -1.569,0 0,0" />
      </g>
      <g
         style="fill:#2c5aa0"
         transform="matrix(1.25,0,0,-1.25,290.34697,331.75675)"
         id="g748">
        <path
           inkscape:connector-curvature="0"
           id="path750"
           style="fill:#2c5aa0;fill-opacity:1;fill-rule:evenodd;stroke:none"
           d="M 0,0 C 1.569,0 2.85,2.346 2.85,5.223 2.85,8.1 1.569,10.446 0,10.446 -1.569,10.446 -2.85,8.1 -2.85,5.223 -2.85,2.346 -1.569,0 0,0" />
      </g>
      <g
         transform="matrix(1.25,0,0,-1.25,312.90197,339.14125)"
         id="g752">
        <path
           inkscape:connector-curvature="0"
           id="path754"
           style="fill:#e0ba9b;fill-opacity:1;fill-rule:evenodd;stroke:none"
           d="M 0,0 C -2.213,-5.642 -9.319,-5.543 -11.531,0 -8.292,-3.082 -3.416,-3.225 0,0" />
      </g>
      <g
         style="fill:#1a1a1a"
         transform="matrix(1.25,0,0,-1.25,264.81047,329.02575)"
         id="g756">
        <path
           inkscape:connector-curvature="0"
           id="path758"
           style="fill:#1a1a1a;fill-opacity:1;fill-rule:evenodd;stroke:none"
           d="m 0,0 c 0.649,-6.284 -0.879,-4.505 -3.135,0.423 -2.256,4.928 -3.903,9.844 -3.507,14.711 3.806,46.989 73.672,47.565 78.669,0 C 72.537,10.277 70.777,5.351 68.52,0.423 66.264,-4.505 64.736,-6.283 65.385,0 66.173,7.63 64.999,18.61 60.962,25.073 53.819,36.508 44.498,29.872 31.861,29.872 19.227,29.872 13.302,35.029 5.051,24.474 0.05,18.076 -0.841,8.147 0,0" />
      </g>
      <g
         style="fill:#502d16"
         transform="matrix(1.25,0,0,-1.25,324.22859,349.58788)"
         id="g764">
        <path
           inkscape:connector-curvature="0"
           id="path766"
           style="fill:#502d16;fill-opacity:1;fill-rule:evenodd;stroke:none"
           d="M 0,0 C -5.112,-8.995 -23.439,-9.242 -29.655,0 -20.9,-3.459 -8.299,-3.221 0,0" />
      </g>
      <g
         style="fill:#1a1a1a"
         id="g12182">
        <g
           style="fill:#1a1a1a"
           id="g760"
           transform="matrix(1.25,0,0,-1.25,256.59947,309.07313)">
          <path
             d="M 0,0 C -4.702,49.447 83.143,48.26 78.552,0 68.375,29.494 10.176,29.494 0,0"
             style="fill:#1a1a1a;fill-opacity:1;fill-rule:evenodd;stroke:none"
             id="path762"
             inkscape:connector-curvature="0" />
        </g>
        <g
           style="fill:#1a1a1a"
           id="g768"
           transform="matrix(1.25,0,0,-1.25,328.26372,315.00488)">
          <path
             d="M 0,0 C 14.857,23.076 4.853,29.406 -11.805,36.23 9.575,39.08 35.011,18.099 0,0"
             style="fill:#1a1a1a;fill-opacity:1;fill-rule:evenodd;stroke:none"
             id="path770"
             inkscape:connector-curvature="0" />
        </g>
        <g
           style="fill:#1a1a1a"
           id="g772"
           transform="matrix(1.25,0,0,-1.25,305.58572,313.18988)">
          <path
             d="M 0,0 C 22.789,17.7 15.847,25.339 3.312,34.735 26.418,33.057 43.55,9.264 0,0"
             style="fill:#1a1a1a;fill-opacity:1;fill-rule:evenodd;stroke:none"
             id="path774"
             inkscape:connector-curvature="0" />
        </g>
        <g
           style="fill:#1a1a1a"
           id="g776"
           transform="matrix(1.25,0,0,-1.25,285.25622,306.72351)">
          <path
             d="M 0,0 C 19.821,11.754 23.24,20.155 12.495,33.32 36.831,25.943 45.471,0.842 0,0"
             style="fill:#1a1a1a;fill-opacity:1;fill-rule:evenodd;stroke:none"
             id="path778"
             inkscape:connector-curvature="0" />
        </g>
        <g
           style="fill:#1a1a1a"
           id="g780"
           transform="matrix(1.25,0,0,-1.25,263.8711,304.35925)">
          <path
             d="M 0,0 C 10.5,11.753 16.117,16.848 16.802,28.949 42.401,22.469 60.017,10.329 0,0"
             style="fill:#1a1a1a;fill-opacity:1;fill-rule:evenodd;stroke:none"
             id="path782"
             inkscape:connector-curvature="0" />
        </g>
      </g>
      <g
         style="fill:#668000"
         transform="matrix(1.25,0,0,-1.25,323.04772,394.05025)"
         id="g784">
        <path
           inkscape:connector-curvature="0"
           id="path786"
           style="fill:#668000;fill-opacity:1;fill-rule:evenodd;stroke:none"
           d="M 0,0 6.3,-21.835 23.008,-17.301 16.63,4.8 C 13.621,15.23 -2.856,9.892 0,0" />
      </g>
      <g
         style="fill:#668000"
         transform="matrix(1.25,0,0,-1.25,289.02072,394.05025)"
         id="g788">
        <path
           inkscape:connector-curvature="0"
           id="path790"
           style="fill:#668000;fill-opacity:1;fill-rule:evenodd;stroke:none"
           d="M 0,0 -6.302,-21.835 -23.009,-17.301 -16.63,4.8 C -13.621,15.23 2.854,9.892 0,0" />
      </g>
      <g
         style="fill:#ff6600;fill-opacity:1"
         transform="matrix(1.25,0,0,-1.25,260.25885,415.677)"
         id="g792">
        <path
           inkscape:connector-curvature="0"
           id="path794"
           style="fill:#ff6600;fill-opacity:1;fill-rule:evenodd;stroke:none"
           d="m 0,0 0.896,3.107 12.199,-3.271 0,-3.389 L 0,0 Z" />
      </g>
      <g
         transform="matrix(1.25,0,0,-1.25,269.03334,580.10526)"
         id="g796">
        <path
           inkscape:connector-curvature="0"
           id="path798"
           style="fill:#f5b158;fill-opacity:1;fill-rule:evenodd;stroke:none"
           d="m 0,0 c -0.242,-0.469 -0.442,-0.943 -0.592,-1.428 -2.23,-7.2 5.38,-7.055 10.042,-5.933 4.879,1.174 7.143,4.289 9.821,5.062 3.526,1.016 5.208,2.607 5.601,5.287 C 21.131,0.079 15.473,-2.306 9.473,-4.278 6.921,-1.451 3.233,-0.045 0,0" />
      </g>
      <g
         transform="matrix(1.25,0,0,-1.25,272.26322,576.31288)"
         id="g800">
        <path
           inkscape:connector-curvature="0"
           id="path802"
           style="fill:#f5b158;fill-opacity:1;fill-rule:nonzero;stroke:none"
           d="M 0,0 C -0.245,-0.179 -0.589,-0.126 -0.768,0.118 -0.947,0.362 -0.893,0.706 -0.65,0.885 -0.22,1.2 0.449,1.479 1.26,1.69 l -0.013,0 C 1.088,1.676 0.938,1.73 0.828,1.83 0.771,1.866 0.719,1.914 0.678,1.971 0.499,2.214 0.551,2.558 0.796,2.737 1.329,3.128 2.317,3.54 3.511,3.857 3.423,3.852 3.335,3.846 3.246,3.838 2.945,3.811 2.679,4.033 2.652,4.335 2.625,4.635 2.847,4.902 3.147,4.929 4.008,5.008 4.761,4.922 5.425,4.719 l 0,-1.582 C 4.609,3.014 3.838,2.835 3.18,2.629 3.65,2.504 4.078,2.322 4.468,2.098 4.785,2.102 5.105,2.094 5.425,2.074 l 0,-2.24 C 5.196,0.112 4.946,0.377 4.667,0.616 4.509,0.752 4.341,0.879 4.162,0.997 2.357,0.939 0.719,0.529 0,0 M 5.425,4.719 C 5.747,4.621 6.05,4.496 6.331,4.348 L 6.413,4.355 C 8.213,4.498 10.072,4.326 11.434,3.574 11.699,3.429 11.797,3.095 11.651,2.83 11.506,2.564 11.171,2.467 10.906,2.612 10.053,3.084 8.929,3.283 7.748,3.302 8.496,2.568 9.027,1.714 9.446,0.997 9.645,0.832 9.706,0.545 9.577,0.31 9.432,0.045 9.097,-0.052 8.832,0.094 7.997,0.554 6.975,0.819 5.917,0.933 6.624,0.184 7.132,-0.658 7.53,-1.344 7.682,-1.606 7.592,-1.942 7.331,-2.093 7.068,-2.245 6.733,-2.155 6.581,-1.894 c -0.306,0.526 -0.68,1.15 -1.156,1.728 l 0,2.24 C 6.189,2.027 6.952,1.914 7.671,1.72 7.379,2.111 7.043,2.49 6.653,2.816 6.477,2.963 6.291,3.099 6.091,3.222 5.865,3.198 5.644,3.17 5.425,3.137 l 0,1.582 z" />
      </g>
      <g
         transform="matrix(1.25,0,0,-1.25,341.98584,580.02038)"
         id="g804">
        <path
           inkscape:connector-curvature="0"
           id="path806"
           style="fill:#f5b158;fill-opacity:1;fill-rule:evenodd;stroke:none"
           d="m 0,0 c 0.242,-0.468 0.442,-0.942 0.592,-1.428 2.23,-7.199 -5.448,-7.054 -10.11,-5.932 -4.879,1.174 -7.075,4.289 -9.754,5.062 -3.525,1.016 -5.207,2.607 -5.598,5.287 3.739,-2.909 9.397,-5.294 15.397,-7.266 C -6.921,-1.45 -3.232,-0.045 0,0" />
      </g>
      <g
         transform="matrix(1.25,0,0,-1.25,331.97435,570.32751)"
         id="g808">
        <path
           inkscape:connector-curvature="0"
           id="path810"
           style="fill:#f5b158;fill-opacity:1;fill-rule:nonzero;stroke:none"
           d="m 0,0 c -0.322,-0.098 -0.623,-0.225 -0.905,-0.371 l -0.083,0.007 c -1.8,0.143 -3.659,-0.03 -5.021,-0.781 -0.265,-0.146 -0.361,-0.48 -0.216,-0.746 0.145,-0.264 0.479,-0.362 0.744,-0.216 0.856,0.471 1.977,0.67 3.158,0.689 -0.746,-0.734 -1.279,-1.587 -1.698,-2.305 -0.198,-0.164 -0.257,-0.452 -0.13,-0.686 0.146,-0.266 0.479,-0.362 0.746,-0.217 0.834,0.46 1.855,0.724 2.913,0.841 -0.705,-0.75 -1.213,-1.593 -1.612,-2.278 -0.152,-0.262 -0.063,-0.598 0.2,-0.75 0.261,-0.151 0.598,-0.062 0.748,0.2 0.306,0.525 0.68,1.15 1.156,1.728 l 0,2.239 c -0.762,-0.046 -1.526,-0.159 -2.246,-0.353 0.294,0.389 0.628,0.769 1.02,1.096 0.174,0.147 0.362,0.283 0.562,0.405 C -0.44,-1.522 -0.218,-1.55 0,-1.583 L 0,0 Z m 5.427,-4.719 c 0.244,-0.179 0.587,-0.126 0.766,0.118 0.179,0.244 0.125,0.587 -0.118,0.766 -0.43,0.314 -1.099,0.594 -1.908,0.806 L 4.18,-3.03 c 0.159,-0.015 0.31,0.041 0.419,0.141 0.055,0.036 0.107,0.082 0.15,0.14 0.179,0.244 0.125,0.587 -0.118,0.766 -0.535,0.391 -1.523,0.804 -2.715,1.12 C 2.002,-0.867 2.09,-0.872 2.179,-0.881 2.48,-0.908 2.747,-0.686 2.773,-0.386 2.8,-0.084 2.579,0.182 2.278,0.209 1.417,0.289 0.664,0.202 0,0 L 0,-1.583 C 0.816,-1.705 1.587,-1.885 2.246,-2.091 1.775,-2.215 1.349,-2.397 0.959,-2.621 0.641,-2.619 0.32,-2.626 0,-2.646 l 0,-2.239 c 0.229,0.276 0.481,0.543 0.76,0.782 0.158,0.135 0.326,0.264 0.503,0.38 1.808,-0.057 3.443,-0.469 4.164,-0.996" />
      </g>
      <g
         style="fill:#ff6600"
         transform="matrix(1.4112591,0,0,-1.7038727,292.47919,379.98624)"
         id="g812">
        <path
           sodipodi:nodetypes="casccccc"
           inkscape:connector-curvature="0"
           id="path814"
           style="fill:#ff6600;fill-opacity:1;fill-rule:evenodd;stroke:none"
           d="m -9.6165393,-0.41921308 c 0,0 4.4378462,-0.22009806 6.1978256,-1.20167802 4.06181884,-2.2653671 6.0856485,-9.9462219 8.481777,-9.9347149 3.731462,0.01792 13.6807907,6.5559958 19.1996847,9.7391725 3.781621,2.18115593 4.207723,1.39722042 4.207723,1.39722042 l 1.491527,-26.91022892 -41.194597,3.291098 z" />
      </g>
      <g
         style="fill:#ff6600;fill-opacity:1"
         transform="matrix(1.25,0,0,-1.25,351.80735,415.677)"
         id="g828">
        <path
           inkscape:connector-curvature="0"
           id="path830"
           style="fill:#ff6600;fill-opacity:1;fill-rule:evenodd;stroke:none"
           d="m 0,0 -0.897,3.107 -12.738,-3.418 0,-3.389 L 0,0 Z" />
      </g>
      <g
         inkscape:label="Capa 1"
         id="layer1-6"
         transform="matrix(0.58511295,0,0,0.58511295,828.78094,96.467181)">
        <g
           id="g4144"
           transform="matrix(0.14025501,0,0,0.14025501,-815.31878,536.67523)"
           inkscape:export-xdpi="90"
           inkscape:export-ydpi="90">
          <rect
             y="95.429611"
             x="-302.61206"
             height="75.714287"
             width="117.14286"
             id="rect4167"
             style="opacity:1;fill:#0000ff;fill-opacity:1;stroke:none;stroke-width:5;stroke-linejoin:round;stroke-miterlimit:4;stroke-dasharray:none;stroke-dashoffset:0;stroke-opacity:1" />
          <ellipse
             ry="64.649765"
             rx="65.659912"
             cy="380.61075"
             cx="-556.59399"
             id="path4165"
             style="color:#000000;clip-rule:nonzero;display:inline;overflow:visible;visibility:visible;opacity:1;isolation:auto;mix-blend-mode:normal;color-interpolation:sRGB;color-interpolation-filters:linearRGB;solid-color:#000000;solid-opacity:1;fill:#465e60;fill-opacity:1;fill-rule:nonzero;stroke:#71716f;stroke-width:0.44999954;stroke-linecap:round;stroke-linejoin:round;stroke-miterlimit:4;stroke-dasharray:none;stroke-dashoffset:0;stroke-opacity:1;color-rendering:auto;image-rendering:auto;shape-rendering:auto;text-rendering:auto;enable-background:accumulate" />
          <rect
             y="138.28676"
             x="-945.46918"
             height="395.71429"
             width="781.42859"
             id="rect4147"
             style="opacity:1;fill:#d9d8dd;fill-opacity:1;stroke:none;stroke-width:10;stroke-linejoin:round;stroke-miterlimit:4;stroke-dasharray:none;stroke-dashoffset:0;stroke-opacity:1" />
          <rect
             y="206.85817"
             x="-948.32629"
             height="248.57143"
             width="784.28571"
             id="rect4149"
             style="opacity:1;fill:#333333;fill-opacity:1;stroke:none;stroke-width:10;stroke-linejoin:round;stroke-miterlimit:4;stroke-dasharray:none;stroke-dashoffset:0;stroke-opacity:1" />
          <path
             sodipodi:nodetypes="ccccc"
             inkscape:connector-curvature="0"
             id="path4151"
             d="m -774.04061,138.28675 62.2654,-103.867285 314.87746,-0.41842 64.28571,104.285705 z"
             style="fill:#d9d8dd;fill-opacity:1;fill-rule:evenodd;stroke:none;stroke-width:1px;stroke-linecap:butt;stroke-linejoin:miter;stroke-opacity:1" />
          <rect
             y="80.595459"
             x="-701.5509"
             height="46.972092"
             width="292.94424"
             id="rect4153"
             style="opacity:1;fill:#7fb0d0;fill-opacity:1;stroke:#000000;stroke-width:5;stroke-linejoin:round;stroke-miterlimit:4;stroke-dasharray:none;stroke-dashoffset:0;stroke-opacity:1" />
          <rect
             y="117.97108"
             x="-937.92664"
             height="20.960665"
             width="57.073627"
             id="rect4155"
             style="opacity:1;fill:#ff0000;fill-opacity:1;stroke:none;stroke-width:5;stroke-linejoin:round;stroke-miterlimit:4;stroke-dasharray:none;stroke-dashoffset:0;stroke-opacity:1" />
          <rect
             y="99.283279"
             x="-834.89105"
             height="45.961941"
             width="55.558392"
             id="rect4157"
             style="opacity:1;fill:#d9d8dd;fill-opacity:1;stroke:none;stroke-width:5;stroke-linejoin:round;stroke-miterlimit:4;stroke-dasharray:none;stroke-dashoffset:0;stroke-opacity:1" />
          <ellipse
             ry="240.72534"
             rx="239.29678"
             cy="383.28677"
             cx="-556.18341"
             id="path4159"
             style="color:#000000;clip-rule:nonzero;display:inline;overflow:visible;visibility:visible;opacity:1;isolation:auto;mix-blend-mode:normal;color-interpolation:sRGB;color-interpolation-filters:linearRGB;solid-color:#000000;solid-opacity:1;fill:#dadadc;fill-opacity:1;fill-rule:nonzero;stroke:#71716f;stroke-width:0.42788956;stroke-linecap:round;stroke-linejoin:round;stroke-miterlimit:4;stroke-dasharray:none;stroke-dashoffset:0;stroke-opacity:1;color-rendering:auto;image-rendering:auto;shape-rendering:auto;text-rendering:auto;enable-background:accumulate" />
          <ellipse
             ry="229.27737"
             rx="228.77231"
             cy="382.63104"
             cx="-556.08893"
             id="path4161"
             style="color:#000000;clip-rule:nonzero;display:inline;overflow:visible;visibility:visible;opacity:1;isolation:auto;mix-blend-mode:normal;color-interpolation:sRGB;color-interpolation-filters:linearRGB;solid-color:#000000;solid-opacity:1;fill:#333333;fill-opacity:1;fill-rule:nonzero;stroke:#71716f;stroke-width:0.50448215;stroke-linecap:round;stroke-linejoin:round;stroke-miterlimit:4;stroke-dasharray:none;stroke-dashoffset:0;stroke-opacity:1;color-rendering:auto;image-rendering:auto;shape-rendering:auto;text-rendering:auto;enable-background:accumulate" />
          <circle
             r="147.98849"
             cy="384.14633"
             cx="-556.08899"
             id="path4163"
             style="color:#000000;clip-rule:nonzero;display:inline;overflow:visible;visibility:visible;opacity:1;isolation:auto;mix-blend-mode:normal;color-interpolation:sRGB;color-interpolation-filters:linearRGB;solid-color:#000000;solid-opacity:1;fill:#6fbec5;fill-opacity:1;fill-rule:nonzero;stroke:#71716f;stroke-width:0.44771677;stroke-linecap:round;stroke-linejoin:round;stroke-miterlimit:4;stroke-dasharray:none;stroke-dashoffset:0;stroke-opacity:1;color-rendering:auto;image-rendering:auto;shape-rendering:auto;text-rendering:auto;enable-background:accumulate" />
        </g>
      </g>
      <g
         inkscape:label="Capa 1"
         id="layer1-5"
         transform="matrix(0.8163359,0,0,0.8163359,540.09832,-104.91061)">
        <g
           id="g4147"
           transform="matrix(0.29951557,0,0,0.29951557,-244.88701,590.77977)">
          <g
             id="g4393">
            <rect
               style="opacity:1;fill:#fff5da;fill-opacity:1;stroke:none;stroke-width:2.96985054;stroke-linejoin:round;stroke-miterlimit:4;stroke-dasharray:none;stroke-dashoffset:0;stroke-opacity:1"
               id="rect4147-3"
               width="367.2597"
               height="129.40251"
               x="-349.59665"
               y="713.98492"
               ry="22.752092" />
            <circle
               style="color:#000000;clip-rule:nonzero;display:inline;overflow:visible;visibility:visible;opacity:1;isolation:auto;mix-blend-mode:normal;color-interpolation:sRGB;color-interpolation-filters:linearRGB;solid-color:#000000;solid-opacity:1;fill:#ef4a24;fill-opacity:1;fill-rule:nonzero;stroke:none;stroke-width:0.44999954;stroke-linecap:round;stroke-linejoin:round;stroke-miterlimit:4;stroke-dasharray:none;stroke-dashoffset:0;stroke-opacity:1;color-rendering:auto;image-rendering:auto;shape-rendering:auto;text-rendering:auto;enable-background:accumulate"
               id="path4149"
               cx="-296.21835"
               cy="778.34943"
               r="24" />
            <rect
               style="opacity:1;fill:#567371;fill-opacity:1;stroke:none;stroke-width:3;stroke-linejoin:round;stroke-miterlimit:4;stroke-dasharray:none;stroke-dashoffset:0;stroke-opacity:1"
               id="rect4151"
               width="221.87642"
               height="15.38688"
               x="-246.12007"
               y="800.59961"
               ry="0.048993785" />
          </g>
          <path
             sodipodi:nodetypes="caac"
             inkscape:connector-curvature="0"
             id="path4408"
             d="m -188.46269,490.42899 c -73.09749,28.51304 -14.94968,84.21523 3.1545,119.83901 16.32151,32.11599 85.953254,29.96042 85.595348,65.98402 -0.213022,21.44089 -51.715728,38.25305 -51.715728,38.25305"
             style="fill:none;fill-rule:evenodd;stroke:#000000;stroke-width:7;stroke-linecap:butt;stroke-linejoin:miter;stroke-miterlimit:4;stroke-dasharray:none;stroke-opacity:1" />
          <g
             transform="translate(-387.59401,-540.65842)"
             id="g4398">
            <path
               inkscape:connector-curvature="0"
               style="color:#000000;clip-rule:nonzero;display:inline;overflow:visible;visibility:visible;opacity:1;isolation:auto;mix-blend-mode:normal;color-interpolation:sRGB;color-interpolation-filters:linearRGB;solid-color:#000000;solid-opacity:1;fill:#fff5da;fill-opacity:1;fill-rule:nonzero;stroke:none;stroke-width:0.45713121;stroke-linecap:round;stroke-linejoin:round;stroke-miterlimit:4;stroke-dasharray:none;stroke-dashoffset:0;stroke-opacity:1;color-rendering:auto;image-rendering:auto;shape-rendering:auto;text-rendering:auto;enable-background:accumulate"
               d="m 125.30273,919.02148 c -10e-4,0 -8.9e-4,0.002 -0.002,0.002 a 69.771431,69.771431 0 0 0 -69.73828,69.76953 69.771431,69.771431 0 0 0 69.77148,69.77149 69.771431,69.771431 0 0 0 52.06836,-23.4317 l 60.06055,0 a 69.771431,69.771431 0 0 0 52.04688,23.4317 69.771431,69.771431 0 0 0 69.77148,-69.77149 69.771431,69.771431 0 0 0 -69.77148,-69.77149 69.771431,69.771431 0 0 0 -0.14063,0.006 c -0.003,-4.6e-4 -0.001,-0.006 -0.004,-0.006 l -164.03125,0 -0.0312,0 z"
               id="path4153" />
            <ellipse
               style="color:#000000;clip-rule:nonzero;display:inline;overflow:visible;visibility:visible;opacity:1;isolation:auto;mix-blend-mode:normal;color-interpolation:sRGB;color-interpolation-filters:linearRGB;solid-color:#000000;solid-opacity:1;fill:#48ba6c;fill-opacity:1;fill-rule:nonzero;stroke:none;stroke-width:0.43577057;stroke-linecap:round;stroke-linejoin:round;stroke-miterlimit:4;stroke-dasharray:none;stroke-dashoffset:0;stroke-opacity:1;color-rendering:auto;image-rendering:auto;shape-rendering:auto;text-rendering:auto;enable-background:accumulate"
               id="path4318-3"
               cx="321.24881"
               cy="985.69214"
               rx="9.782114"
               ry="9.782115" />
            <rect
               style="opacity:1;fill:#3d201f;fill-opacity:1;stroke:none;stroke-width:3;stroke-linejoin:round;stroke-miterlimit:4;stroke-dasharray:none;stroke-dashoffset:0;stroke-opacity:1"
               id="rect4347"
               width="25.253813"
               height="10.354064"
               x="170.96832"
               y="1002.3597"
               ry="4.8422308" />
            <rect
               style="opacity:1;fill:#3d201f;fill-opacity:1;stroke:none;stroke-width:3;stroke-linejoin:round;stroke-miterlimit:4;stroke-dasharray:none;stroke-dashoffset:0;stroke-opacity:1"
               id="rect4347-5"
               width="24.496199"
               height="10.354064"
               x="219.47595"
               y="1002.3597"
               ry="4.8422308" />
            <path
               inkscape:connector-curvature="0"
               style="opacity:1;fill:#3c2223;fill-opacity:1;stroke:none;stroke-width:3;stroke-linejoin:round;stroke-miterlimit:4;stroke-dasharray:none;stroke-dashoffset:0;stroke-opacity:1"
               d="m 111.875,954.125 0,18.6875 -18.6875,0 0,18.6875 18.6875,0 0,18.6875 18.6875,0 0,-18.6875 18.6875,0 0,-18.6875 -18.6875,0 0,-18.6875 -18.6875,0 z"
               id="rect4364" />
            <ellipse
               style="color:#000000;clip-rule:nonzero;display:inline;overflow:visible;visibility:visible;opacity:1;isolation:auto;mix-blend-mode:normal;color-interpolation:sRGB;color-interpolation-filters:linearRGB;solid-color:#000000;solid-opacity:1;fill:#2e92bb;fill-opacity:1;fill-rule:nonzero;stroke:none;stroke-width:0.43577057;stroke-linecap:round;stroke-linejoin:round;stroke-miterlimit:4;stroke-dasharray:none;stroke-dashoffset:0;stroke-opacity:1;color-rendering:auto;image-rendering:auto;shape-rendering:auto;text-rendering:auto;enable-background:accumulate"
               id="path4318-5"
               cx="300.19385"
               cy="1005.9155"
               rx="9.782114"
               ry="9.782115" />
            <ellipse
               style="color:#000000;clip-rule:nonzero;display:inline;overflow:visible;visibility:visible;opacity:1;isolation:auto;mix-blend-mode:normal;color-interpolation:sRGB;color-interpolation-filters:linearRGB;solid-color:#000000;solid-opacity:1;fill:#f25a59;fill-opacity:1;fill-rule:nonzero;stroke:none;stroke-width:0.43577057;stroke-linecap:round;stroke-linejoin:round;stroke-miterlimit:4;stroke-dasharray:none;stroke-dashoffset:0;stroke-opacity:1;color-rendering:auto;image-rendering:auto;shape-rendering:auto;text-rendering:auto;enable-background:accumulate"
               id="path4318-7"
               cx="279.42447"
               cy="985.69214"
               rx="9.782114"
               ry="9.782115" />
            <ellipse
               style="color:#000000;clip-rule:nonzero;display:inline;overflow:visible;visibility:visible;opacity:1;isolation:auto;mix-blend-mode:normal;color-interpolation:sRGB;color-interpolation-filters:linearRGB;solid-color:#000000;solid-opacity:1;fill:#6654ab;fill-opacity:1;fill-rule:nonzero;stroke:none;stroke-width:0.43577057;stroke-linecap:round;stroke-linejoin:round;stroke-miterlimit:4;stroke-dasharray:none;stroke-dashoffset:0;stroke-opacity:1;color-rendering:auto;image-rendering:auto;shape-rendering:auto;text-rendering:auto;enable-background:accumulate"
               id="path4318"
               cx="300.19385"
               cy="964.80548"
               rx="9.782114"
               ry="9.782115" />
          </g>
        </g>
      </g>
    </g>
  </g>
</svg>
