<?xml version="1.0" encoding="UTF-8" standalone="no"?>
<!-- Created with Inkscape (http://www.inkscape.org/) -->

<svg
   xmlns:dc="http://purl.org/dc/elements/1.1/"
   xmlns:cc="http://creativecommons.org/ns#"
   xmlns:rdf="http://www.w3.org/1999/02/22-rdf-syntax-ns#"
   xmlns:svg="http://www.w3.org/2000/svg"
   xmlns="http://www.w3.org/2000/svg"
   xmlns:sodipodi="http://sodipodi.sourceforge.net/DTD/sodipodi-0.dtd"
   xmlns:inkscape="http://www.inkscape.org/namespaces/inkscape"
   width="42.379467mm"
   height="37.392323mm"
   viewBox="0 0 150.16347 132.49248"
   id="svg16254"
   version="1.1"
   inkscape:version="0.91 r13725"
   sodipodi:docname="coco.svg">
  <defs
     id="defs16256">
    <linearGradient
       x1="0"
       y1="0"
       x2="1"
       y2="0"
       gradientUnits="userSpaceOnUse"
       gradientTransform="matrix(-77.377271,-61.008965,61.008969,-77.377266,707.32382,650.00044)"
       spreadMethod="pad"
       id="linearGradient16482">
      <stop
         style="stop-opacity:1;stop-color:#787878"
         offset="0"
         id="stop16474" />
      <stop
         style="stop-opacity:1;stop-color:#787878"
         offset="0.0860269"
         id="stop16476" />
      <stop
         style="stop-opacity:1;stop-color:#ffffff"
         offset="0.64809487"
         id="stop16478" />
      <stop
         style="stop-opacity:1;stop-color:#ffffff"
         offset="1"
         id="stop16480" />
    </linearGradient>
    <radialGradient
       fx="0"
       fy="0"
       cx="0"
       cy="0"
       r="1"
       gradientUnits="userSpaceOnUse"
       gradientTransform="matrix(-76.677696,6.0524405,-6.0524409,-76.677691,683.11128,644.11577)"
       spreadMethod="pad"
       id="radialGradient16402">
      <stop
         style="stop-opacity:1;stop-color:#1d1d1b"
         offset="0"
         id="stop16396" />
      <stop
         style="stop-opacity:1;stop-color:#1d1d1b"
         offset="0.04783668"
         id="stop16398" />
      <stop
         style="stop-opacity:1;stop-color:#242422"
         offset="1"
         id="stop16400" />
    </radialGradient>
    <linearGradient
       x1="0"
       y1="0"
       x2="1"
       y2="0"
       gradientUnits="userSpaceOnUse"
       gradientTransform="matrix(0,-137.37586,137.37587,0,638.78968,678.61137)"
       spreadMethod="pad"
       id="linearGradient16340">
      <stop
         style="stop-opacity:1;stop-color:#ffffff"
         offset="0"
         id="stop16332" />
      <stop
         style="stop-opacity:1;stop-color:#ffffff"
         offset="0.285029"
         id="stop16334" />
      <stop
         style="stop-opacity:1;stop-color:#ffffff"
         offset="0.70831559"
         id="stop16336" />
      <stop
         style="stop-opacity:1;stop-color:#ffffff"
         offset="1"
         id="stop16338" />
    </linearGradient>
  </defs>
  <sodipodi:namedview
     id="base"
     pagecolor="#ffffff"
     bordercolor="#666666"
     borderopacity="1.0"
     inkscape:pageopacity="0.0"
     inkscape:pageshadow="2"
     inkscape:zoom="1.4"
     inkscape:cx="-109.07781"
     inkscape:cy="8.1101912"
     inkscape:document-units="px"
     inkscape:current-layer="layer1"
     showgrid="false"
     fit-margin-top="0"
     fit-margin-left="0"
     fit-margin-right="0"
     fit-margin-bottom="0"
     inkscape:window-width="1366"
     inkscape:window-height="710"
     inkscape:window-x="0"
     inkscape:window-y="25"
     inkscape:window-maximized="1" />
  <metadata
     id="metadata16259">
    <rdf:RDF>
      <cc:Work
         rdf:about="">
        <dc:format>image/svg+xml</dc:format>
        <dc:type
           rdf:resource="http://purl.org/dc/dcmitype/StillImage" />
        <dc:title></dc:title>
      </cc:Work>
    </rdf:RDF>
  </metadata>
  <g
     inkscape:label="Capa 1"
     inkscape:groupmode="layer"
     id="layer1"
     transform="translate(-579.13941,-551.75032)">
    <g
       id="g17025">
      <path
         d="m 698.43942,617.03297 c 0,34.428 -26.70667,59.884 -59.64934,59.884 -32.944,0 -59.65067,-25.456 -59.65067,-59.884 0,-34.42799 26.70667,-65.28266 59.65067,-65.28266 32.94267,0 59.64934,30.85467 59.64934,65.28266"
         style="fill:#935503;fill-opacity:1;fill-rule:nonzero;stroke:none"
         id="path16216"
         inkscape:connector-curvature="0" />
      <path
         inkscape:connector-curvature="0"
         id="path16226"
         style="fill:#c79452;fill-opacity:1;fill-rule:nonzero;stroke:none"
         d="m 618.62168,567.53898 c 0,0 -49.4,43.90666 4.24933,99.87466 0,0 -71.17733,-42.94133 -4.24933,-99.87466" />
      <path
         inkscape:connector-curvature="0"
         id="path16242"
         style="fill:#c79452;fill-opacity:1;fill-rule:nonzero;stroke:none"
         d="m 657.92968,568.00711 c 0,0 49.4,44.78 -4.24933,101.86266 0,0 71.17733,-43.796 4.24933,-101.86266" />
      <path
         inkscape:connector-curvature="0"
         id="path16258"
         style="fill:#c79452;fill-opacity:1;fill-rule:nonzero;stroke:none"
         d="m 644.64941,569.02924 c 0,0 26.55867,41.72667 3.18667,94.38266 0,0 8.49867,-56.62933 -3.18667,-94.38266" />
      <path
         inkscape:connector-curvature="0"
         id="path16274"
         style="fill:#c79452;fill-opacity:1;fill-rule:nonzero;stroke:none"
         d="m 625.52701,571.01631 c 0,0 -20.184,32.78533 3.71867,87.92399 0,0 -11.68667,-58.11866 -3.71867,-87.92399" />
      <path
         d="m 636.63341,559.11031 c 0,1.36667 -2.072,2.47467 -4.628,2.47467 -2.556,0 -4.628,-1.108 -4.628,-2.47467 0,-1.36667 2.072,-2.47467 4.628,-2.47467 2.556,0 4.628,1.108 4.628,2.47467"
         style="fill:#6e3f03;fill-opacity:1;fill-rule:nonzero;stroke:none"
         id="path16284"
         inkscape:connector-curvature="0" />
      <path
         d="m 650.19888,557.87004 c 0,1.092 -1.656,1.97867 -3.69867,1.97867 -2.04266,0 -3.69866,-0.88667 -3.69866,-1.97867 0,-1.092 1.656,-1.97866 3.69866,-1.97866 2.04267,0 3.69867,0.88666 3.69867,1.97866"
         style="fill:#6e3f03;fill-opacity:1;fill-rule:nonzero;stroke:none"
         id="path16288"
         inkscape:connector-curvature="0" />
      <path
         d="m 644.15461,563.62951 c 0,1.20267 -1.82266,2.17733 -4.07066,2.17733 -2.248,0 -4.07067,-0.97466 -4.07067,-2.17733 0,-1.20267 1.82267,-2.17733 4.07067,-2.17733 2.248,0 4.07066,0.97466 4.07066,2.17733"
         style="fill:#6e3f03;fill-opacity:1;fill-rule:nonzero;stroke:none"
         id="path16292"
         inkscape:connector-curvature="0" />
      <path
         d="m 726.16435,613.11844 c 9.75067,28.89733 -3.97733,59.624 -30.664,68.628 -26.68667,9.00533 -56.22534,-7.12134 -65.976,-36.01867 -9.75201,-28.89733 75.724,-66.74399 89.05733,-47.66533 3.14267,4.49733 5.72267,9.544 7.58267,15.056"
         style="fill:#935503;fill-opacity:1;fill-rule:nonzero;stroke:none"
         id="path16424"
         inkscape:connector-curvature="0" />
      <path
         inkscape:connector-curvature="0"
         id="path16434"
         style="fill:#c79452;fill-opacity:1;fill-rule:nonzero;stroke:none"
         d="m 683.15688,664.5451 c 7.16,10.756 13.03734,14.34934 16.81734,15.432 1.86533,-0.84666 3.65466,-1.80533 5.36666,-2.86666 -14.10133,-1.01334 -22.184,-12.56534 -22.184,-12.56534" />
      <path
         inkscape:connector-curvature="0"
         id="path16438"
         style="fill:#c79452;fill-opacity:1;fill-rule:nonzero;stroke:none"
         d="m 691.91275,682.80097 c -20.948,1.12 -38.15067,-13.38533 -38.15067,-13.38533 9.28933,9.64133 19.71733,13.44933 28.07067,14.8 3.36,-0.10667 6.73467,-0.57067 10.08,-1.41467" />
      <path
         inkscape:connector-curvature="0"
         id="path16442"
         style="fill:#c79452;fill-opacity:1;fill-rule:nonzero;stroke:none"
         d="m 716.69755,667.30884 c 1.20933,-1.42267 2.34,-2.91334 3.388,-4.46534 -1.372,-10.35733 -6.98,-18.41733 -6.98,-18.41733 3.45733,10.396 3.91867,17.948 3.592,22.88267" />
      <path
         inkscape:connector-curvature="0"
         id="path16446"
         style="fill:#c79452;fill-opacity:1;fill-rule:nonzero;stroke:none"
         d="m 724.35742,624.66684 c 0,0 3.34666,7.48133 4.05066,17.46267 0.31334,-1.74667 0.54534,-3.51734 0.69467,-5.308 -0.864,-3.90134 -2.34933,-8.00534 -4.74533,-12.15467" />
      <path
         d="m 719.99542,600.14444 c 9.65066,18.01867 -2.532,43.34133 -27.212,56.56 -24.68001,13.21866 -52.51067,9.328 -62.16134,-8.692 -9.65067,-18.01867 2.532,-43.34133 27.212,-56.56 22.97867,-12.308 48.68934,-9.78266 59.91467,5.16933 0.83067,1.10667 1.58133,2.28134 2.24667,3.52267"
         style="fill:#ad7832;fill-opacity:1;fill-rule:nonzero;stroke:none"
         id="path16456"
         inkscape:connector-curvature="0" />
      <path
         d="m 716.11195,602.22457 c 8.812,16.45334 -2.312,39.57467 -24.84667,51.64533 -22.53467,12.06934 -47.94667,8.516 -56.75867,-7.93733 -8.812,-16.45333 2.312,-39.57466 24.84667,-51.64533 22.53467,-12.06933 47.94667,-8.516 56.75867,7.93733"
         style="fill:#ffffff;fill-opacity:1;fill-rule:nonzero;stroke:none"
         id="path16460"
         inkscape:connector-curvature="0" />
      <path
         d="m 640.98901,630.10964 c 0,0 0,4.24133 -0.17733,5.12533 -0.176,0.884 1.23733,5.65467 1.23733,6.53867 0,0.884 2.47467,4.772 3.00534,5.12533 0.52933,0.35334 4.41733,4.24134 4.948,4.24134 0.52933,0 4.948,-0.53067 5.30133,0 0.35333,0.53066 3.35733,1.59066 3.888,1.23733 0.53067,-0.35334 3.71067,-1.59067 3.71067,-1.59067 0,0 7.42266,1.06 9.36666,0.70667 1.944,-0.35333 7.42267,-2.65067 8.30667,-3.35733 0.884,-0.70667 3.71067,-1.06134 5.30134,-1.59067 1.59066,-0.53067 7.24666,-3.35733 7.6,-4.772 0.35333,-1.41333 4.24133,-4.24133 5.30133,-5.30133 1.06,-1.06 4.24133,-4.772 4.06533,-5.656 -0.17733,-0.88267 -0.17733,-1.76667 0.52934,-2.65067 0.708,-0.884 6.892,-6.36133 6.716,-8.65867 -0.17734,-2.29733 -1.41334,-2.652 -1.23734,-4.24266 0.17734,-1.58934 2.12134,-4.59467 1.944,-6.008 -0.176,-1.41334 -4.948,-6.36267 -5.65466,-7.24534 -0.708,-0.884 -4.772,-4.06533 -5.832,-3.888 -1.06,0.176 -2.47467,0.176 -3.18134,-0.35333 -0.70666,-0.53067 -1.768,-0.884 -3.18133,-0.884 -1.41333,0 -9.36667,0.884 -12.37067,0.35333 -3.004,-0.53066 -9.544,0.70667 -11.13333,1.944 -1.59067,1.23734 -8.30667,5.65467 -10.25067,7.24534 -1.944,1.59066 -5.832,3.888 -7.06933,5.12533 -1.23734,1.23733 -2.65067,2.47467 -3.71067,4.24133 -1.06133,1.768 -4.06533,6.00934 -4.948,7.06934 -0.884,1.06 -1.41467,4.064 -1.94533,4.772 -0.52934,0.70666 -0.52934,2.47333 -0.52934,2.47333"
         style="fill:url(#linearGradient16482);stroke:none"
         id="path16484"
         inkscape:connector-curvature="0" />
    </g>
  </g>
</svg>
