<?xml version="1.0" encoding="UTF-8" standalone="no"?>
<!-- Created with Inkscape (http://www.inkscape.org/) -->

<svg
   xmlns:dc="http://purl.org/dc/elements/1.1/"
   xmlns:cc="http://creativecommons.org/ns#"
   xmlns:rdf="http://www.w3.org/1999/02/22-rdf-syntax-ns#"
   xmlns:svg="http://www.w3.org/2000/svg"
   xmlns="http://www.w3.org/2000/svg"
   xmlns:xlink="http://www.w3.org/1999/xlink"
   xmlns:sodipodi="http://sodipodi.sourceforge.net/DTD/sodipodi-0.dtd"
   xmlns:inkscape="http://www.inkscape.org/namespaces/inkscape"
   width="45.209461mm"
   height="34.756786mm"
   viewBox="0 0 160.191 123.15397"
   id="svg15993"
   version="1.1"
   inkscape:version="0.91 r13725"
   sodipodi:docname="manzana.svg">
  <defs
     id="defs15995">
    <linearGradient
       x1="0"
       y1="0"
       x2="1"
       y2="0"
       gradientUnits="userSpaceOnUse"
       gradientTransform="matrix(0,89.476593,89.476593,0,158.64258,1602.1499)"
       spreadMethod="pad"
       id="linearGradient2218">
      <stop
         style="stop-opacity:1;stop-color:#ffffff"
         offset="0"
         id="stop2210" />
      <stop
         style="stop-opacity:1;stop-color:#ffffff"
         offset="0.2609"
         id="stop2212" />
      <stop
         style="stop-opacity:1;stop-color:#ffffff"
         offset="0.69847176"
         id="stop2214" />
      <stop
         style="stop-opacity:1;stop-color:#ffffff"
         offset="1"
         id="stop2216" />
    </linearGradient>
    <radialGradient
       fx="0"
       fy="0"
       cx="0"
       cy="0"
       r="1"
       gradientUnits="userSpaceOnUse"
       gradientTransform="matrix(88.648651,0,0,-88.648651,332.29947,1673.294)"
       spreadMethod="pad"
       id="radialGradient1416">
      <stop
         style="stop-opacity:1;stop-color:#ff151f"
         offset="0"
         id="stop1412" />
      <stop
         style="stop-opacity:1;stop-color:#c9191f"
         offset="1"
         id="stop1414" />
    </radialGradient>
    <linearGradient
       x1="0"
       y1="0"
       x2="1"
       y2="0"
       gradientUnits="userSpaceOnUse"
       gradientTransform="matrix(8.7653627,8.7653627,8.7653627,-8.7653627,346.83835,1686.1775)"
       spreadMethod="pad"
       id="linearGradient1436">
      <stop
         style="stop-opacity:1;stop-color:#ff151f"
         offset="0"
         id="stop1432" />
      <stop
         style="stop-opacity:1;stop-color:#c9191f"
         offset="1"
         id="stop1434" />
    </linearGradient>
    <linearGradient
       x1="0"
       y1="0"
       x2="1"
       y2="0"
       gradientUnits="userSpaceOnUse"
       gradientTransform="matrix(6.4780192,-6.4780192,-6.4780192,-6.4780192,347.98221,1693.7993)"
       spreadMethod="pad"
       id="linearGradient1456">
      <stop
         style="stop-opacity:1;stop-color:#ffd440"
         offset="0"
         id="stop1452" />
      <stop
         style="stop-opacity:1;stop-color:#ff9200"
         offset="1"
         id="stop1454" />
    </linearGradient>
    <linearGradient
       x1="0"
       y1="0"
       x2="1"
       y2="0"
       gradientUnits="userSpaceOnUse"
       gradientTransform="matrix(8.7653627,8.7653627,8.7653627,-8.7653627,346.70344,1661.1291)"
       spreadMethod="pad"
       id="linearGradient1476">
      <stop
         style="stop-opacity:1;stop-color:#ff151f"
         offset="0"
         id="stop1472" />
      <stop
         style="stop-opacity:1;stop-color:#c9191f"
         offset="1"
         id="stop1474" />
    </linearGradient>
    <linearGradient
       x1="0"
       y1="0"
       x2="1"
       y2="0"
       gradientUnits="userSpaceOnUse"
       gradientTransform="matrix(6.4780078,-6.4780078,-6.4780078,-6.4780078,347.8473,1668.7509)"
       spreadMethod="pad"
       id="linearGradient1496">
      <stop
         style="stop-opacity:1;stop-color:#ffd440"
         offset="0"
         id="stop1492" />
      <stop
         style="stop-opacity:1;stop-color:#ff9200"
         offset="1"
         id="stop1494" />
    </linearGradient>
    <linearGradient
       x1="0"
       y1="0"
       x2="1"
       y2="0"
       gradientUnits="userSpaceOnUse"
       gradientTransform="matrix(8.7653332,8.7653332,8.7653332,-8.7653332,347.10746,1635.4074)"
       spreadMethod="pad"
       id="linearGradient1516">
      <stop
         style="stop-opacity:1;stop-color:#ff151f"
         offset="0"
         id="stop1512" />
      <stop
         style="stop-opacity:1;stop-color:#c9191f"
         offset="1"
         id="stop1514" />
    </linearGradient>
    <linearGradient
       x1="0"
       y1="0"
       x2="1"
       y2="0"
       gradientUnits="userSpaceOnUse"
       gradientTransform="matrix(6.4779353,-6.4779353,-6.4779353,-6.4779353,348.25135,1643.0294)"
       spreadMethod="pad"
       id="linearGradient1536">
      <stop
         style="stop-opacity:1;stop-color:#ffd440"
         offset="0"
         id="stop1532" />
      <stop
         style="stop-opacity:1;stop-color:#ff9200"
         offset="1"
         id="stop1534" />
    </linearGradient>
    <linearGradient
       x1="0"
       y1="0"
       x2="1"
       y2="0"
       gradientUnits="userSpaceOnUse"
       gradientTransform="matrix(8.7654619,8.7654619,8.7654619,-8.7654619,346.83817,1610.2234)"
       spreadMethod="pad"
       id="linearGradient1556">
      <stop
         style="stop-opacity:1;stop-color:#ff151f"
         offset="0"
         id="stop1552" />
      <stop
         style="stop-opacity:1;stop-color:#c9191f"
         offset="1"
         id="stop1554" />
    </linearGradient>
    <linearGradient
       x1="0"
       y1="0"
       x2="1"
       y2="0"
       gradientUnits="userSpaceOnUse"
       gradientTransform="matrix(6.4778938,-6.4778938,-6.4778938,-6.4778938,347.98212,1617.8454)"
       spreadMethod="pad"
       id="linearGradient1576">
      <stop
         style="stop-opacity:1;stop-color:#ffd440"
         offset="0"
         id="stop1572" />
      <stop
         style="stop-opacity:1;stop-color:#ff9200"
         offset="1"
         id="stop1574" />
    </linearGradient>
    <linearGradient
       x1="0"
       y1="0"
       x2="1"
       y2="0"
       gradientUnits="userSpaceOnUse"
       gradientTransform="matrix(6.8593855,10.325015,10.325015,-6.8593855,366.24106,1678.7987)"
       spreadMethod="pad"
       id="linearGradient1596">
      <stop
         style="stop-opacity:1;stop-color:#ff151f"
         offset="0"
         id="stop1592" />
      <stop
         style="stop-opacity:1;stop-color:#c9191f"
         offset="1"
         id="stop1594" />
    </linearGradient>
    <linearGradient
       x1="0"
       y1="0"
       x2="1"
       y2="0"
       gradientUnits="userSpaceOnUse"
       gradientTransform="matrix(7.6309819,-5.0696149,-5.0696149,-7.6309819,365.85547,1686.4961)"
       spreadMethod="pad"
       id="linearGradient1616">
      <stop
         style="stop-opacity:1;stop-color:#ffd440"
         offset="0"
         id="stop1612" />
      <stop
         style="stop-opacity:1;stop-color:#ff9200"
         offset="1"
         id="stop1614" />
    </linearGradient>
    <linearGradient
       x1="0"
       y1="0"
       x2="1"
       y2="0"
       gradientUnits="userSpaceOnUse"
       gradientTransform="matrix(9.7560396,7.6470518,7.6470518,-9.7560396,368.69752,1657.5807)"
       spreadMethod="pad"
       id="linearGradient1636">
      <stop
         style="stop-opacity:1;stop-color:#ff151f"
         offset="0"
         id="stop1632" />
      <stop
         style="stop-opacity:1;stop-color:#c9191f"
         offset="1"
         id="stop1634" />
    </linearGradient>
    <linearGradient
       x1="0"
       y1="0"
       x2="1"
       y2="0"
       gradientUnits="userSpaceOnUse"
       gradientTransform="matrix(5.6515303,-7.2101712,-7.2101712,-5.6515303,370.74994,1665.0094)"
       spreadMethod="pad"
       id="linearGradient1656">
      <stop
         style="stop-opacity:1;stop-color:#ffd440"
         offset="0"
         id="stop1652" />
      <stop
         style="stop-opacity:1;stop-color:#ff9200"
         offset="1"
         id="stop1654" />
    </linearGradient>
    <linearGradient
       x1="0"
       y1="0"
       x2="1"
       y2="0"
       gradientUnits="userSpaceOnUse"
       gradientTransform="matrix(10.185341,7.0663595,7.0663595,-10.185341,362.96164,1629.9275)"
       spreadMethod="pad"
       id="linearGradient1676">
      <stop
         style="stop-opacity:1;stop-color:#ff151f"
         offset="0"
         id="stop1672" />
      <stop
         style="stop-opacity:1;stop-color:#c9191f"
         offset="1"
         id="stop1674" />
    </linearGradient>
    <linearGradient
       x1="0"
       y1="0"
       x2="1"
       y2="0"
       gradientUnits="userSpaceOnUse"
       gradientTransform="matrix(5.2219481,-7.526835,-7.526835,-5.2219481,365.44358,1637.2244)"
       spreadMethod="pad"
       id="linearGradient1696">
      <stop
         style="stop-opacity:1;stop-color:#ffd440"
         offset="0"
         id="stop1692" />
      <stop
         style="stop-opacity:1;stop-color:#ff9200"
         offset="1"
         id="stop1694" />
    </linearGradient>
    <linearGradient
       x1="0"
       y1="0"
       x2="1"
       y2="0"
       gradientUnits="userSpaceOnUse"
       gradientTransform="matrix(8.7653828,8.7653828,8.7653828,-8.7653828,328.25367,1677.6934)"
       spreadMethod="pad"
       id="linearGradient1716">
      <stop
         style="stop-opacity:1;stop-color:#ff151f"
         offset="0"
         id="stop1712" />
      <stop
         style="stop-opacity:1;stop-color:#c9191f"
         offset="1"
         id="stop1714" />
    </linearGradient>
    <linearGradient
       x1="0"
       y1="0"
       x2="1"
       y2="0"
       gradientUnits="userSpaceOnUse"
       gradientTransform="matrix(6.4779491,-6.4779491,-6.4779491,-6.4779491,329.39765,1685.3152)"
       spreadMethod="pad"
       id="linearGradient1736">
      <stop
         style="stop-opacity:1;stop-color:#ffd440"
         offset="0"
         id="stop1732" />
      <stop
         style="stop-opacity:1;stop-color:#ff9200"
         offset="1"
         id="stop1734" />
    </linearGradient>
    <linearGradient
       x1="0"
       y1="0"
       x2="1"
       y2="0"
       gradientUnits="userSpaceOnUse"
       gradientTransform="matrix(8.7653828,8.7653828,8.7653828,-8.7653828,328.11872,1652.645)"
       spreadMethod="pad"
       id="linearGradient1756">
      <stop
         style="stop-opacity:1;stop-color:#ff151f"
         offset="0"
         id="stop1752" />
      <stop
         style="stop-opacity:1;stop-color:#c9191f"
         offset="1"
         id="stop1754" />
    </linearGradient>
    <linearGradient
       x1="0"
       y1="0"
       x2="1"
       y2="0"
       gradientUnits="userSpaceOnUse"
       gradientTransform="matrix(6.4779606,-6.4779606,-6.4779606,-6.4779606,329.26273,1660.2668)"
       spreadMethod="pad"
       id="linearGradient1776">
      <stop
         style="stop-opacity:1;stop-color:#ffd440"
         offset="0"
         id="stop1772" />
      <stop
         style="stop-opacity:1;stop-color:#ff9200"
         offset="1"
         id="stop1774" />
    </linearGradient>
    <linearGradient
       x1="0"
       y1="0"
       x2="1"
       y2="0"
       gradientUnits="userSpaceOnUse"
       gradientTransform="matrix(8.7653532,8.7653532,8.7653532,-8.7653532,328.52274,1626.9233)"
       spreadMethod="pad"
       id="linearGradient1796">
      <stop
         style="stop-opacity:1;stop-color:#ff151f"
         offset="0"
         id="stop1792" />
      <stop
         style="stop-opacity:1;stop-color:#c9191f"
         offset="1"
         id="stop1794" />
    </linearGradient>
    <linearGradient
       x1="0"
       y1="0"
       x2="1"
       y2="0"
       gradientUnits="userSpaceOnUse"
       gradientTransform="matrix(6.4778881,-6.4778881,-6.4778881,-6.4778881,329.66675,1634.5452)"
       spreadMethod="pad"
       id="linearGradient1816">
      <stop
         style="stop-opacity:1;stop-color:#ffd440"
         offset="0"
         id="stop1812" />
      <stop
         style="stop-opacity:1;stop-color:#ff9200"
         offset="1"
         id="stop1814" />
    </linearGradient>
    <linearGradient
       x1="0"
       y1="0"
       x2="1"
       y2="0"
       gradientUnits="userSpaceOnUse"
       gradientTransform="matrix(8.7653627,8.7653627,8.7653627,-8.7653627,308.72706,1685.3695)"
       spreadMethod="pad"
       id="linearGradient1836">
      <stop
         style="stop-opacity:1;stop-color:#ff151f"
         offset="0"
         id="stop1832" />
      <stop
         style="stop-opacity:1;stop-color:#c9191f"
         offset="1"
         id="stop1834" />
    </linearGradient>
    <linearGradient
       x1="0"
       y1="0"
       x2="1"
       y2="0"
       gradientUnits="userSpaceOnUse"
       gradientTransform="matrix(6.4780192,-6.4780192,-6.4780192,-6.4780192,309.87092,1692.9913)"
       spreadMethod="pad"
       id="linearGradient1856">
      <stop
         style="stop-opacity:1;stop-color:#ffd440"
         offset="0"
         id="stop1852" />
      <stop
         style="stop-opacity:1;stop-color:#ff9200"
         offset="1"
         id="stop1854" />
    </linearGradient>
    <linearGradient
       x1="0"
       y1="0"
       x2="1"
       y2="0"
       gradientUnits="userSpaceOnUse"
       gradientTransform="matrix(8.7653627,8.7653627,8.7653627,-8.7653627,308.59214,1660.3211)"
       spreadMethod="pad"
       id="linearGradient1876">
      <stop
         style="stop-opacity:1;stop-color:#ff151f"
         offset="0"
         id="stop1872" />
      <stop
         style="stop-opacity:1;stop-color:#c9191f"
         offset="1"
         id="stop1874" />
    </linearGradient>
    <linearGradient
       x1="0"
       y1="0"
       x2="1"
       y2="0"
       gradientUnits="userSpaceOnUse"
       gradientTransform="matrix(6.4780078,-6.4780078,-6.4780078,-6.4780078,309.736,1667.9429)"
       spreadMethod="pad"
       id="linearGradient1896">
      <stop
         style="stop-opacity:1;stop-color:#ffd440"
         offset="0"
         id="stop1892" />
      <stop
         style="stop-opacity:1;stop-color:#ff9200"
         offset="1"
         id="stop1894" />
    </linearGradient>
    <linearGradient
       x1="0"
       y1="0"
       x2="1"
       y2="0"
       gradientUnits="userSpaceOnUse"
       gradientTransform="matrix(8.7653332,8.7653332,8.7653332,-8.7653332,308.99616,1634.5994)"
       spreadMethod="pad"
       id="linearGradient1916">
      <stop
         style="stop-opacity:1;stop-color:#ff151f"
         offset="0"
         id="stop1912" />
      <stop
         style="stop-opacity:1;stop-color:#c9191f"
         offset="1"
         id="stop1914" />
    </linearGradient>
    <linearGradient
       x1="0"
       y1="0"
       x2="1"
       y2="0"
       gradientUnits="userSpaceOnUse"
       gradientTransform="matrix(6.4779353,-6.4779353,-6.4779353,-6.4779353,310.14005,1642.2214)"
       spreadMethod="pad"
       id="linearGradient1936">
      <stop
         style="stop-opacity:1;stop-color:#ffd440"
         offset="0"
         id="stop1932" />
      <stop
         style="stop-opacity:1;stop-color:#ff9200"
         offset="1"
         id="stop1934" />
    </linearGradient>
    <linearGradient
       x1="0"
       y1="0"
       x2="1"
       y2="0"
       gradientUnits="userSpaceOnUse"
       gradientTransform="matrix(8.7654619,8.7654619,8.7654619,-8.7654619,308.72687,1609.4154)"
       spreadMethod="pad"
       id="linearGradient1956">
      <stop
         style="stop-opacity:1;stop-color:#ff151f"
         offset="0"
         id="stop1952" />
      <stop
         style="stop-opacity:1;stop-color:#c9191f"
         offset="1"
         id="stop1954" />
    </linearGradient>
    <linearGradient
       x1="0"
       y1="0"
       x2="1"
       y2="0"
       gradientUnits="userSpaceOnUse"
       gradientTransform="matrix(6.4778938,-6.4778938,-6.4778938,-6.4778938,309.87082,1617.0374)"
       spreadMethod="pad"
       id="linearGradient1976">
      <stop
         style="stop-opacity:1;stop-color:#ffd440"
         offset="0"
         id="stop1972" />
      <stop
         style="stop-opacity:1;stop-color:#ff9200"
         offset="1"
         id="stop1974" />
    </linearGradient>
    <linearGradient
       x1="0"
       y1="0"
       x2="1"
       y2="0"
       gradientUnits="userSpaceOnUse"
       gradientTransform="matrix(9.4479322,8.0244751,8.0244751,-9.4479322,288.99329,1678.1984)"
       spreadMethod="pad"
       id="linearGradient1996">
      <stop
         style="stop-opacity:1;stop-color:#ff151f"
         offset="0"
         id="stop1992" />
      <stop
         style="stop-opacity:1;stop-color:#c9191f"
         offset="1"
         id="stop1994" />
    </linearGradient>
    <linearGradient
       x1="0"
       y1="0"
       x2="1"
       y2="0"
       gradientUnits="userSpaceOnUse"
       gradientTransform="matrix(5.9308405,-6.9829082,-6.9829082,-5.9308405,291.02152,1685.1633)"
       spreadMethod="pad"
       id="linearGradient2016">
      <stop
         style="stop-opacity:1;stop-color:#ffd440"
         offset="0"
         id="stop2012" />
      <stop
         style="stop-opacity:1;stop-color:#ff9200"
         offset="1"
         id="stop2014" />
    </linearGradient>
    <linearGradient
       x1="0"
       y1="0"
       x2="1"
       y2="0"
       gradientUnits="userSpaceOnUse"
       gradientTransform="matrix(8.0055895,9.46418,9.46418,-8.0055895,289.31009,1652.4304)"
       spreadMethod="pad"
       id="linearGradient2036">
      <stop
         style="stop-opacity:1;stop-color:#ff151f"
         offset="0"
         id="stop2032" />
      <stop
         style="stop-opacity:1;stop-color:#c9191f"
         offset="1"
         id="stop2034" />
    </linearGradient>
    <linearGradient
       x1="0"
       y1="0"
       x2="1"
       y2="0"
       gradientUnits="userSpaceOnUse"
       gradientTransform="matrix(6.9945641,-5.916584,-5.916584,-6.9945641,289.8158,1660.1208)"
       spreadMethod="pad"
       id="linearGradient2056">
      <stop
         style="stop-opacity:1;stop-color:#ffd440"
         offset="0"
         id="stop2052" />
      <stop
         style="stop-opacity:1;stop-color:#ff9200"
         offset="1"
         id="stop2054" />
    </linearGradient>
    <linearGradient
       x1="0"
       y1="0"
       x2="1"
       y2="0"
       gradientUnits="userSpaceOnUse"
       gradientTransform="matrix(6.1850486,10.743191,10.743191,-6.1850486,293.58713,1627.0115)"
       spreadMethod="pad"
       id="linearGradient2076">
      <stop
         style="stop-opacity:1;stop-color:#ff151f"
         offset="0"
         id="stop2072" />
      <stop
         style="stop-opacity:1;stop-color:#c9191f"
         offset="1"
         id="stop2074" />
    </linearGradient>
    <linearGradient
       x1="0"
       y1="0"
       x2="1"
       y2="0"
       gradientUnits="userSpaceOnUse"
       gradientTransform="matrix(7.9397388,-4.5710506,-4.5710506,-7.9397388,292.70991,1634.6691)"
       spreadMethod="pad"
       id="linearGradient2096">
      <stop
         style="stop-opacity:1;stop-color:#ffd440"
         offset="0"
         id="stop2092" />
      <stop
         style="stop-opacity:1;stop-color:#ff9200"
         offset="1"
         id="stop2094" />
    </linearGradient>
    <clipPath
       clipPathUnits="userSpaceOnUse"
       id="clipPath1206">
      <path
         d="m 631.591,1203.37 116.653,0 0,-92.56 -116.653,0 z"
         id="path1204"
         inkscape:connector-curvature="0" />
    </clipPath>
    <clipPath
       clipPathUnits="userSpaceOnUse"
       id="clipPath1210">
      <path
         d="m 747.295,1159.076 -0.395,0 c -0.29,1.444 -1.027,2.476 -1.899,2.476 -0.058,0 -0.113,-0.023 -0.17,-0.032 -2.737,23.478 -26.978,41.845 -56.487,41.845 -31.344,0 -56.753,-20.719 -56.753,-46.278 0,-25.559 25.409,-46.278 56.753,-46.278 29.578,0 53.86,18.454 56.502,42.012 0.052,-0.01 0.102,-0.029 0.155,-0.029 0.872,0 1.609,1.032 1.899,2.476 l 0.395,0 c 0.524,0 0.949,0.852 0.949,1.904 0,1.052 -0.425,1.904 -0.949,1.904"
         id="path1208"
         inkscape:connector-curvature="0" />
    </clipPath>
    <mask
       maskUnits="userSpaceOnUse"
       x="0"
       y="0"
       width="1"
       height="1"
       id="mask1224">
      <g
         id="g1234">
        <g
           clip-path="url(#clipPath1214)"
           id="g1232">
          <g
             id="g1230">
            <g
               id="g1228">
              <path
                 d="m -32768,32767 65535,0 0,-65535 -65535,0 z"
                 style="fill:url(#radialGradient1222);stroke:none"
                 id="path1226"
                 inkscape:connector-curvature="0" />
            </g>
          </g>
        </g>
      </g>
    </mask>
    <clipPath
       clipPathUnits="userSpaceOnUse"
       id="clipPath1214">
      <path
         d="m -32768,32767 65535,0 0,-65535 -65535,0 z"
         id="path1212"
         inkscape:connector-curvature="0" />
    </clipPath>
    <radialGradient
       fx="0"
       fy="0"
       cx="0"
       cy="0"
       r="1"
       gradientUnits="userSpaceOnUse"
       gradientTransform="matrix(46.116836,0,0,-34.673912,692.84668,1137.3414)"
       spreadMethod="pad"
       id="radialGradient1222">
      <stop
         style="stop-opacity:1;stop-color:#ffffff"
         offset="0"
         id="stop1216" />
      <stop
         style="stop-opacity:1;stop-color:#ffffff"
         offset="0.03624676"
         id="stop1218" />
      <stop
         style="stop-opacity:0;stop-color:#ffffff"
         offset="1"
         id="stop1220" />
    </radialGradient>
    <radialGradient
       fx="0"
       fy="0"
       cx="0"
       cy="0"
       r="1"
       gradientUnits="userSpaceOnUse"
       gradientTransform="matrix(46.116836,0,0,-34.673912,692.84668,1137.3414)"
       spreadMethod="pad"
       id="radialGradient1242">
      <stop
         style="stop-opacity:1;stop-color:#1d1d1b"
         offset="0"
         id="stop1236" />
      <stop
         style="stop-opacity:1;stop-color:#1d1d1b"
         offset="0.03624676"
         id="stop1238" />
      <stop
         style="stop-opacity:1;stop-color:#242422"
         offset="1"
         id="stop1240" />
    </radialGradient>
    <clipPath
       clipPathUnits="userSpaceOnUse"
       id="clipPath1268">
      <path
         d="m 631.591,1203.37 116.653,0 0,-92.56 -116.653,0 z"
         id="path1266"
         inkscape:connector-curvature="0" />
    </clipPath>
    <clipPath
       clipPathUnits="userSpaceOnUse"
       id="clipPath1272">
      <path
         d="m 747.295,1159.076 -0.395,0 c -0.29,1.444 -1.027,2.476 -1.899,2.476 -0.058,0 -0.113,-0.023 -0.17,-0.032 -2.737,23.478 -26.978,41.845 -56.487,41.845 -31.344,0 -56.753,-20.719 -56.753,-46.278 0,-25.559 25.409,-46.278 56.753,-46.278 29.578,0 53.86,18.454 56.502,42.012 0.052,-0.01 0.102,-0.029 0.155,-0.029 0.872,0 1.609,1.032 1.899,2.476 l 0.395,0 c 0.524,0 0.949,0.852 0.949,1.904 0,1.052 -0.425,1.904 -0.949,1.904"
         id="path1270"
         inkscape:connector-curvature="0" />
    </clipPath>
    <mask
       maskUnits="userSpaceOnUse"
       x="0"
       y="0"
       width="1"
       height="1"
       id="mask1290">
      <g
         id="g1300">
        <g
           clip-path="url(#clipPath1276)"
           id="g1298">
          <g
             id="g1296">
            <g
               id="g1294">
              <path
                 d="m -32768,32767 65535,0 0,-65535 -65535,0 z"
                 style="fill:url(#linearGradient1288);stroke:none"
                 id="path1292"
                 inkscape:connector-curvature="0" />
            </g>
          </g>
        </g>
      </g>
    </mask>
    <clipPath
       clipPathUnits="userSpaceOnUse"
       id="clipPath1276">
      <path
         d="m -32768,32767 65535,0 0,-65535 -65535,0 z"
         id="path1274"
         inkscape:connector-curvature="0" />
    </clipPath>
    <linearGradient
       x1="0"
       y1="0"
       x2="1"
       y2="0"
       gradientUnits="userSpaceOnUse"
       gradientTransform="matrix(0,101.90416,101.90416,0,689.91779,1110.8092)"
       spreadMethod="pad"
       id="linearGradient1288">
      <stop
         style="stop-opacity:0;stop-color:#ffffff"
         offset="0"
         id="stop1278" />
      <stop
         style="stop-opacity:0;stop-color:#ffffff"
         offset="0.400239"
         id="stop1280" />
      <stop
         style="stop-opacity:0;stop-color:#ffffff"
         offset="0.64887027"
         id="stop1282" />
      <stop
         style="stop-opacity:1;stop-color:#ffffff"
         offset="0.924934"
         id="stop1284" />
      <stop
         style="stop-opacity:1;stop-color:#ffffff"
         offset="1"
         id="stop1286" />
    </linearGradient>
    <clipPath
       clipPathUnits="userSpaceOnUse"
       id="clipPath1154">
      <path
         d="m 434.196,1165.46 21.631,0 0,-45.27 -21.631,0 z"
         id="path1152"
         inkscape:connector-curvature="0" />
    </clipPath>
    <clipPath
       clipPathUnits="userSpaceOnUse"
       id="clipPath1080">
      <path
         d="m 407.85,1173.88 74.906,0 0,-59.7 -74.906,0 z"
         id="path1078"
         inkscape:connector-curvature="0" />
    </clipPath>
    <clipPath
       clipPathUnits="userSpaceOnUse"
       id="clipPath1084">
      <path
         d="m 467.53,1173.316 c -11.394,2.441 -22.227,-3.811 -22.227,-3.811 0,0 -10.834,6.252 -22.227,3.811 -11.394,-2.442 -20.936,-13.336 -11.185,-37.426 6.927,-17.114 15.507,-23.082 23.917,-21.454 8.41,1.627 9.495,1.356 9.495,1.356 0,0 1.085,0.271 9.494,-1.356 8.41,-1.628 16.991,4.34 23.918,21.454 9.75,24.09 0.208,34.984 -11.185,37.426"
         id="path1082"
         inkscape:connector-curvature="0" />
    </clipPath>
    <mask
       maskUnits="userSpaceOnUse"
       x="0"
       y="0"
       width="1"
       height="1"
       id="mask1100">
      <g
         id="g1110">
        <g
           clip-path="url(#clipPath1088)"
           id="g1108">
          <g
             id="g1106">
            <g
               id="g1104">
              <path
                 d="m -32768,32767 65535,0 0,-65535 -65535,0 z"
                 style="fill:url(#linearGradient1098);stroke:none"
                 id="path1102"
                 inkscape:connector-curvature="0" />
            </g>
          </g>
        </g>
      </g>
    </mask>
    <clipPath
       clipPathUnits="userSpaceOnUse"
       id="clipPath1088">
      <path
         d="m -32768,32767 65535,0 0,-65535 -65535,0 z"
         id="path1086"
         inkscape:connector-curvature="0" />
    </clipPath>
    <linearGradient
       x1="0"
       y1="0"
       x2="1"
       y2="0"
       gradientUnits="userSpaceOnUse"
       gradientTransform="matrix(0,59.791969,59.791969,0,445.3027,1130.2799)"
       spreadMethod="pad"
       id="linearGradient1098">
      <stop
         style="stop-opacity:0;stop-color:#ffffff"
         offset="0"
         id="stop1090" />
      <stop
         style="stop-opacity:0;stop-color:#ffffff"
         offset="0.121678"
         id="stop1092" />
      <stop
         style="stop-opacity:0;stop-color:#ffffff"
         offset="0.34486828"
         id="stop1094" />
      <stop
         style="stop-opacity:1;stop-color:#ffffff"
         offset="1"
         id="stop1096" />
    </linearGradient>
    <clipPath
       clipPathUnits="userSpaceOnUse"
       id="clipPath1002">
      <path
         d="m 445.021,1186.41 82.972,0 0,-66.13 -82.972,0 z"
         id="path1000"
         inkscape:connector-curvature="0" />
    </clipPath>
    <clipPath
       clipPathUnits="userSpaceOnUse"
       id="clipPath1006">
      <path
         d="m 511.128,1185.788 c -12.621,2.704 -24.621,-4.221 -24.621,-4.221 0,0 -12,6.925 -24.621,4.221 -12.62,-2.705 -23.19,-14.772 -12.389,-41.456 7.673,-18.957 17.178,-25.567 26.493,-23.764 9.315,1.802 10.517,1.502 10.517,1.502 0,0 1.202,0.3 10.517,-1.502 9.315,-1.803 18.82,4.807 26.493,23.764 10.801,26.684 0.231,38.751 -12.389,41.456"
         id="path1004"
         inkscape:connector-curvature="0" />
    </clipPath>
    <mask
       maskUnits="userSpaceOnUse"
       x="0"
       y="0"
       width="1"
       height="1"
       id="mask1022">
      <g
         id="g1032">
        <g
           clip-path="url(#clipPath1010)"
           id="g1030">
          <g
             id="g1028">
            <g
               id="g1026">
              <path
                 d="m -32768,32767 65535,0 0,-65535 -65535,0 z"
                 style="fill:url(#radialGradient1020);stroke:none"
                 id="path1024"
                 inkscape:connector-curvature="0" />
            </g>
          </g>
        </g>
      </g>
    </mask>
    <clipPath
       clipPathUnits="userSpaceOnUse"
       id="clipPath1010">
      <path
         d="m -32768,32767 65535,0 0,-65535 -65535,0 z"
         id="path1008"
         inkscape:connector-curvature="0" />
    </clipPath>
    <radialGradient
       fx="0"
       fy="0"
       cx="0"
       cy="0"
       r="1"
       gradientUnits="userSpaceOnUse"
       gradientTransform="matrix(49.313023,0,0,-49.313023,458.35458,1144.8077)"
       spreadMethod="pad"
       id="radialGradient1020">
      <stop
         style="stop-opacity:1;stop-color:#ffffff"
         offset="0"
         id="stop1012" />
      <stop
         style="stop-opacity:0;stop-color:#ffffff"
         offset="0.80117893"
         id="stop1014" />
      <stop
         style="stop-opacity:0;stop-color:#ffffff"
         offset="0.819574"
         id="stop1016" />
      <stop
         style="stop-opacity:0;stop-color:#ffffff"
         offset="1"
         id="stop1018" />
    </radialGradient>
    <radialGradient
       fx="0"
       fy="0"
       cx="0"
       cy="0"
       r="1"
       gradientUnits="userSpaceOnUse"
       gradientTransform="matrix(49.313023,0,0,-49.313023,458.35458,1144.8077)"
       spreadMethod="pad"
       id="radialGradient1042">
      <stop
         style="stop-opacity:1;stop-color:#1d1d1b"
         offset="0"
         id="stop1034" />
      <stop
         style="stop-opacity:1;stop-color:#242422"
         offset="0.80117893"
         id="stop1036" />
      <stop
         style="stop-opacity:1;stop-color:#242422"
         offset="0.819574"
         id="stop1038" />
      <stop
         style="stop-opacity:1;stop-color:#242422"
         offset="1"
         id="stop1040" />
    </radialGradient>
    <clipPath
       clipPathUnits="userSpaceOnUse"
       id="clipPath940">
      <path
         d="m 445.021,1186.41 82.972,0 0,-66.13 -82.972,0 z"
         id="path938"
         inkscape:connector-curvature="0" />
    </clipPath>
    <clipPath
       clipPathUnits="userSpaceOnUse"
       id="clipPath944">
      <path
         d="m 511.128,1185.788 c -12.621,2.704 -24.621,-4.221 -24.621,-4.221 0,0 -12,6.925 -24.621,4.221 -12.62,-2.705 -23.19,-14.772 -12.389,-41.456 7.673,-18.957 17.178,-25.567 26.493,-23.764 9.315,1.802 10.517,1.502 10.517,1.502 0,0 1.202,0.3 10.517,-1.502 9.315,-1.803 18.82,4.807 26.493,23.764 10.801,26.684 0.231,38.751 -12.389,41.456"
         id="path942"
         inkscape:connector-curvature="0" />
    </clipPath>
    <mask
       maskUnits="userSpaceOnUse"
       x="0"
       y="0"
       width="1"
       height="1"
       id="mask958">
      <g
         id="g968">
        <g
           clip-path="url(#clipPath948)"
           id="g966">
          <g
             id="g964">
            <g
               id="g962">
              <path
                 d="m -32768,32767 65535,0 0,-65535 -65535,0 z"
                 style="fill:url(#linearGradient956);stroke:none"
                 id="path960"
                 inkscape:connector-curvature="0" />
            </g>
          </g>
        </g>
      </g>
    </mask>
    <clipPath
       clipPathUnits="userSpaceOnUse"
       id="clipPath948">
      <path
         d="m -32768,32767 65535,0 0,-65535 -65535,0 z"
         id="path946"
         inkscape:connector-curvature="0" />
    </clipPath>
    <linearGradient
       x1="0"
       y1="0"
       x2="1"
       y2="0"
       gradientUnits="userSpaceOnUse"
       gradientTransform="matrix(0,59.862774,59.862774,0,486.50693,1138.1176)"
       spreadMethod="pad"
       id="linearGradient956">
      <stop
         style="stop-opacity:0;stop-color:#ffffff"
         offset="0"
         id="stop950" />
      <stop
         style="stop-opacity:0;stop-color:#ffffff"
         offset="0.09298698"
         id="stop952" />
      <stop
         style="stop-opacity:1;stop-color:#ffffff"
         offset="1"
         id="stop954" />
    </linearGradient>
    <linearGradient
       inkscape:collect="always"
       xlink:href="#linearGradient956"
       id="linearGradient18152"
       gradientUnits="userSpaceOnUse"
       gradientTransform="matrix(0,59.862774,59.862774,0,486.50693,1138.1176)"
       spreadMethod="pad"
       x1="0"
       y1="0"
       x2="1"
       y2="0" />
    <linearGradient
       inkscape:collect="always"
       xlink:href="#linearGradient1098"
       id="linearGradient18154"
       gradientUnits="userSpaceOnUse"
       gradientTransform="matrix(0,59.791969,59.791969,0,445.3027,1130.2799)"
       spreadMethod="pad"
       x1="0"
       y1="0"
       x2="1"
       y2="0" />
  </defs>
  <sodipodi:namedview
     id="base"
     pagecolor="#ffffff"
     bordercolor="#666666"
     borderopacity="1.0"
     inkscape:pageopacity="0.0"
     inkscape:pageshadow="2"
     inkscape:zoom="0.35"
     inkscape:cx="-146.62414"
     inkscape:cy="-513.74812"
     inkscape:document-units="px"
     inkscape:current-layer="layer1"
     showgrid="false"
     fit-margin-top="0"
     fit-margin-left="0"
     fit-margin-right="0"
     fit-margin-bottom="0"
     inkscape:window-width="1366"
     inkscape:window-height="710"
     inkscape:window-x="0"
     inkscape:window-y="25"
     inkscape:window-maximized="1" />
  <metadata
     id="metadata15998">
    <rdf:RDF>
      <cc:Work
         rdf:about="">
        <dc:format>image/svg+xml</dc:format>
        <dc:type
           rdf:resource="http://purl.org/dc/dcmitype/StillImage" />
        <dc:title></dc:title>
      </cc:Work>
    </rdf:RDF>
  </metadata>
  <g
     inkscape:label="Capa 1"
     inkscape:groupmode="layer"
     id="layer1"
     transform="translate(52.661578,104.53986)">
    <g
       id="g18156">
      <g
         transform="matrix(1.3333333,0,0,-1.3333333,50.095431,-68.817275)"
         id="g926">
        <path
           inkscape:connector-curvature="0"
           id="path928"
           style="fill:#754a22;fill-opacity:1;fill-rule:nonzero;stroke:none"
           d="m 0,0 c 0,0 1.271,6.671 -2.383,17.472 0,0 3.812,1.906 6.036,0 0,0 0.477,-9.848 -1.271,-17.472 z" />
      </g>
      <g
         transform="matrix(1.3333333,0,0,-1.3333333,85.042091,-76.864975)"
         id="g930">
        <path
           inkscape:connector-curvature="0"
           id="path932"
           style="fill:#ff1c23;fill-opacity:1;fill-rule:nonzero;stroke:none"
           d="m 0,0 c -12.621,2.705 -24.621,-4.221 -24.621,-4.221 0,0 -12,6.926 -24.62,4.221 -12.621,-2.704 -23.19,-14.772 -12.389,-41.456 7.672,-18.956 17.177,-25.567 26.492,-23.764 9.315,1.803 10.517,1.502 10.517,1.502 0,0 1.202,0.301 10.517,-1.502 9.316,-1.803 18.82,4.808 26.493,23.764 C 23.19,-14.772 12.621,-2.704 0,0" />
      </g>
      <g
         transform="matrix(1.3333333,0,0,-1.3333333,-596.46122,1504.185)"
         id="g934">
        <g
           id="g936" />
        <g
           id="g994">
          <g
             style="opacity:0.39999402"
             id="g992"
             clip-path="url(#clipPath940)">
            <g
               id="g990">
              <g
                 id="g988"
                 clip-path="url(#clipPath944)">
                <g
                   id="g986">
                  <g
                     id="g978" />
                  <g
                     id="g984"
                     mask="url(#mask958)">
                    <g
                       id="g982">
                      <path
                         inkscape:connector-curvature="0"
                         id="path980"
                         style="fill:url(#linearGradient18152);stroke:none"
                         d="m 511.128,1185.788 c -12.621,2.704 -24.621,-4.221 -24.621,-4.221 0,0 -12,6.925 -24.621,4.221 -12.62,-2.705 -23.19,-14.772 -12.389,-41.456 7.673,-18.957 17.178,-25.567 26.493,-23.764 9.315,1.802 10.517,1.502 10.517,1.502 0,0 1.202,0.3 10.517,-1.502 9.315,-1.803 18.82,4.807 26.493,23.764 10.801,26.684 0.231,38.751 -12.389,41.456" />
                    </g>
                  </g>
                </g>
              </g>
            </g>
          </g>
        </g>
      </g>
      <g
         transform="matrix(1.3333333,0,0,-1.3333333,-596.46122,1504.185)"
         id="g996">
        <g
           id="g998" />
        <g
           id="g1060">
          <g
             style="opacity:0.39999402"
             id="g1058"
             clip-path="url(#clipPath1002)">
            <g
               id="g1056">
              <g
                 id="g1054"
                 clip-path="url(#clipPath1006)">
                <g
                   id="g1052">
                  <g
                     id="g1044" />
                  <g
                     id="g1050"
                     mask="url(#mask1022)">
                    <g
                       id="g1048">
                      <path
                         inkscape:connector-curvature="0"
                         id="path1046"
                         style="fill:url(#radialGradient1042);stroke:none"
                         d="m 511.128,1185.788 c -12.621,2.704 -24.621,-4.221 -24.621,-4.221 0,0 -12,6.925 -24.621,4.221 -12.62,-2.705 -23.19,-14.772 -12.389,-41.456 7.673,-18.957 17.178,-25.567 26.493,-23.764 9.315,1.802 10.517,1.502 10.517,1.502 0,0 1.202,0.3 10.517,-1.502 9.315,-1.803 18.82,4.807 26.493,23.764 10.801,26.684 0.231,38.751 -12.389,41.456" />
                    </g>
                  </g>
                </g>
              </g>
            </g>
          </g>
        </g>
      </g>
      <g
         transform="matrix(1.3333333,0,0,-1.3333333,54.999561,-84.460675)"
         id="g1062">
        <path
           inkscape:connector-curvature="0"
           id="path1064"
           style="fill:#7bd917;fill-opacity:1;fill-rule:nonzero;stroke:none"
           d="M 0,0 C 0,0 6.138,23.939 30.384,11.452 30.384,11.452 24.093,-6.906 0,0" />
      </g>
      <g
         transform="matrix(1.3333333,0,0,-1.3333333,-4.6374995,-52.970675)"
         id="g1066">
        <path
           inkscape:connector-curvature="0"
           id="path1068"
           style="fill:#754a22;fill-opacity:1;fill-rule:nonzero;stroke:none"
           d="m 0,0 c 0,0 1.147,6.023 -2.151,15.773 0,0 3.441,1.721 5.449,0 0,0 0.43,-8.89 -1.147,-15.773 z" />
      </g>
      <g
         transform="matrix(1.3333333,0,0,-1.3333333,26.911961,-60.235875)"
         id="g1070">
        <path
           inkscape:connector-curvature="0"
           id="path1072"
           style="fill:#ff363c;fill-opacity:1;fill-rule:nonzero;stroke:none"
           d="m 0,0 c -11.394,2.442 -22.227,-3.811 -22.227,-3.811 0,0 -10.834,6.253 -22.227,3.811 -11.394,-2.441 -20.936,-13.336 -11.185,-37.426 6.927,-17.114 15.507,-23.082 23.917,-21.454 8.41,1.628 9.495,1.357 9.495,1.357 0,0 1.085,0.271 9.494,-1.357 8.41,-1.628 16.991,4.34 23.918,21.454 C 20.935,-13.336 11.394,-2.441 0,0" />
      </g>
      <g
         transform="matrix(1.3333333,0,0,-1.3333333,-596.46122,1504.185)"
         id="g1074">
        <g
           id="g1076" />
        <g
           id="g1138">
          <g
             style="opacity:0.39999402"
             id="g1136"
             clip-path="url(#clipPath1080)">
            <g
               id="g1134">
              <g
                 id="g1132"
                 clip-path="url(#clipPath1084)">
                <g
                   id="g1130">
                  <g
                     id="g1122" />
                  <g
                     id="g1128"
                     mask="url(#mask1100)">
                    <g
                       id="g1126">
                      <path
                         inkscape:connector-curvature="0"
                         id="path1124"
                         style="fill:url(#linearGradient18154);stroke:none"
                         d="m 467.53,1173.316 c -11.394,2.441 -22.227,-3.811 -22.227,-3.811 0,0 -10.834,6.252 -22.227,3.811 -11.394,-2.442 -20.936,-13.336 -11.185,-37.426 6.927,-17.114 15.507,-23.082 23.917,-21.454 8.41,1.627 9.495,1.356 9.495,1.356 0,0 1.085,0.271 9.494,-1.356 8.41,-1.628 16.991,4.34 23.918,21.454 9.75,24.09 0.208,34.984 -11.185,37.426" />
                    </g>
                  </g>
                </g>
              </g>
            </g>
          </g>
        </g>
      </g>
      <g
         transform="matrix(1.3333333,0,0,-1.3333333,24.652231,-57.258675)"
         id="g1140">
        <path
           inkscape:connector-curvature="0"
           id="path1142"
           style="fill:#fffced;fill-opacity:1;fill-rule:nonzero;stroke:none"
           d="m 0,0 c -10.525,2.255 -20.532,-3.52 -20.532,-3.52 0,0 -10.008,5.775 -20.533,3.52 -10.525,-2.255 -19.339,-12.319 -10.332,-34.572 6.399,-15.809 14.325,-21.322 22.094,-19.819 7.768,1.504 8.771,1.253 8.771,1.253 0,0 1.002,0.251 8.77,-1.253 7.769,-1.503 15.695,4.01 22.094,19.819 C 19.339,-12.319 10.525,-2.255 0,0" />
      </g>
      <g
         transform="matrix(1.3333333,0,0,-1.3333333,-0.09363946,-67.762475)"
         id="g1144">
        <path
           inkscape:connector-curvature="0"
           id="path1146"
           style="fill:#7bd917;fill-opacity:1;fill-rule:nonzero;stroke:none"
           d="M 0,0 C 0,0 5.542,21.612 27.431,10.339 27.431,10.339 21.75,-6.234 0,0" />
      </g>
      <g
         transform="matrix(1.3333333,0,0,-1.3333333,-596.46122,1504.185)"
         id="g1148">
        <g
           id="g1150" />
        <g
           id="g1162">
          <g
             style="opacity:0.39999402"
             id="g1160"
             clip-path="url(#clipPath1154)">
            <g
               id="g1158"
               transform="translate(455.6926,1140.244)">
              <path
                 inkscape:connector-curvature="0"
                 id="path1156"
                 style="fill:#ffdea8;fill-opacity:1;fill-rule:nonzero;stroke:none"
                 d="m 0,0 c -1.714,10.376 -10.39,25.213 -10.39,25.213 0,0 -9.264,-14.837 -10.978,-25.213 -1.524,-9.226 10.978,-15.328 10.978,-20.051 C -10.39,-15.328 1.524,-9.226 0,0" />
            </g>
          </g>
        </g>
      </g>
      <g
         transform="matrix(1.3333333,0,0,-1.3333333,5.5841005,-17.956775)"
         id="g1164">
        <path
           inkscape:connector-curvature="0"
           id="path1166"
           style="fill:#ffdea8;fill-opacity:1;fill-rule:nonzero;stroke:none"
           d="m 0,0 c -1,5.212 -6.231,11.637 -6.231,11.637 0,0 -5.232,-6.425 -6.232,-11.637 -0.889,-4.634 6.232,-8.725 6.232,-11.097 0,2.372 7.12,6.463 6.231,11.097" />
      </g>
      <g
         transform="matrix(1.3333333,0,0,-1.3333333,-5.3173695,-15.710675)"
         id="g1168">
        <path
           inkscape:connector-curvature="0"
           id="path1170"
           style="fill:#543b17;fill-opacity:1;fill-rule:nonzero;stroke:none"
           d="m 0,0 c 0,0 -3.338,1.094 -4.5,0.708 -2.177,-0.725 -1.636,-2.749 -1.636,-2.749 0,0 0.78,-1.946 2.956,-1.221 C -2.017,-2.876 0,0 0,0" />
      </g>
      <g
         transform="matrix(1.3333333,0,0,-1.3333333,0.97236054,-15.710675)"
         id="g1172">
        <path
           inkscape:connector-curvature="0"
           id="path1174"
           style="fill:#543b17;fill-opacity:1;fill-rule:nonzero;stroke:none"
           d="m 0,0 c 0,0 3.338,1.094 4.5,0.708 2.177,-0.725 1.636,-2.749 1.636,-2.749 0,0 -0.78,-1.946 -2.956,-1.221 C 2.017,-2.876 0,0 0,0" />
      </g>
    </g>
  </g>
</svg>
