<?xml version="1.0" encoding="UTF-8" standalone="no"?>
<!-- Created with Inkscape (http://www.inkscape.org/) -->

<svg
   xmlns:dc="http://purl.org/dc/elements/1.1/"
   xmlns:cc="http://creativecommons.org/ns#"
   xmlns:rdf="http://www.w3.org/1999/02/22-rdf-syntax-ns#"
   xmlns:svg="http://www.w3.org/2000/svg"
   xmlns="http://www.w3.org/2000/svg"
   xmlns:sodipodi="http://sodipodi.sourceforge.net/DTD/sodipodi-0.dtd"
   xmlns:inkscape="http://www.inkscape.org/namespaces/inkscape"
   width="33.90313mm"
   height="43.497555mm"
   viewBox="0 0 120.1292 154.12519"
   id="svg16254"
   version="1.1"
   inkscape:version="0.91 r13725"
   sodipodi:docname="pera.svg">
  <defs
     id="defs16256" />
  <sodipodi:namedview
     id="base"
     pagecolor="#ffffff"
     bordercolor="#666666"
     borderopacity="1.0"
     inkscape:pageopacity="0.0"
     inkscape:pageshadow="2"
     inkscape:zoom="0.35"
     inkscape:cx="-367.79254"
     inkscape:cy="-245.79454"
     inkscape:document-units="px"
     inkscape:current-layer="layer1"
     showgrid="false"
     fit-margin-top="0"
     fit-margin-left="0"
     fit-margin-right="0"
     fit-margin-bottom="0"
     inkscape:window-width="1366"
     inkscape:window-height="710"
     inkscape:window-x="0"
     inkscape:window-y="25"
     inkscape:window-maximized="1" />
  <metadata
     id="metadata16259">
    <rdf:RDF>
      <cc:Work
         rdf:about="">
        <dc:format>image/svg+xml</dc:format>
        <dc:type
           rdf:resource="http://purl.org/dc/dcmitype/StillImage" />
        <dc:title></dc:title>
      </cc:Work>
    </rdf:RDF>
  </metadata>
  <g
     inkscape:label="Capa 1"
     inkscape:groupmode="layer"
     id="layer1"
     transform="translate(-168.50683,-132.44246)">
    <g
       id="g16866">
      <path
         d="m 244.40947,132.44246 c 0,0 -37.24534,14.20933 -24.912,40.876 z"
         style="fill:#03a200;fill-opacity:1;fill-rule:nonzero;stroke:none"
         id="path3274"
         inkscape:connector-curvature="0" />
      <path
         d="m 219.49773,173.31886 24.912,-40.876 c 0,0 0.39867,52.332 -24.912,40.876"
         style="fill:#37d230;fill-opacity:1;fill-rule:nonzero;stroke:none"
         id="path3278"
         inkscape:connector-curvature="0" />
      <path
         d="m 216.99427,173.56766 c 0,0 -26.66667,-1.66667 -34.33333,24.66667 0,0 -4,9 -7,11 0,0 -14.66667,23 -2,49.33333 0,0 11,26.33333 43.33333,28 z"
         style="fill:#abe050;fill-opacity:1;fill-rule:nonzero;stroke:none"
         id="path3282"
         inkscape:connector-curvature="0" />
      <path
         d="m 216.99427,173.56766 c 0,0 27.3,-1.66667 35.148,24.66667 0,0 4.096,9 7.16666,11 0,0 15.01467,23 2.048,49.33333 0,0 -11.26133,26.33333 -44.36266,28 z"
         style="fill:#afea54;fill-opacity:1;fill-rule:nonzero;stroke:none"
         id="path3286"
         inkscape:connector-curvature="0" />
      <path
         d="m 220.3276,173.54673 c 0,0 -1.33333,-24.66667 -28,-32 0,0 -5.33333,2.66666 0,5 0,0 11.33333,5.33333 16,11 0,0 7.33333,11 6.33333,16 z"
         style="fill:#594a43;fill-opacity:1;fill-rule:nonzero;stroke:none"
         id="path3290"
         inkscape:connector-curvature="0" />
      <path
         d="m 280.96426,217.16859 c 0,0 9.22267,12.66667 7.444,29.11067 0,0 -0.888,13.112 -10.77733,24.77866 0,0 -10.33333,13.77734 -30.77733,15.22134 0,0 -23,4.22266 -40.112,-19.66667 z"
         style="fill:#a7d64a;fill-opacity:1;fill-rule:nonzero;stroke:none"
         id="path3294"
         inkscape:connector-curvature="0" />
      <path
         d="m 210.73653,263.80739 67.16666,-44.5 c 0,0 7.584,10.084 6.584,22.83333 0,0 1.74934,10.16667 -6.5,21.66667 0,0 -6.58399,14 -27.41732,17.75067 0,0 -10.25067,2.5 -21.916,-2.5 0,0 -12.25067,-4.5 -17.91734,-15.25067"
         style="fill:#f1f1f1;fill-opacity:1;fill-rule:nonzero;stroke:none"
         id="path3298"
         inkscape:connector-curvature="0" />
      <path
         d="m 223.86213,255.19646 37,-24.444 c 0,0 4.38934,4.77733 3.61067,14.11066 0,0 0.056,6.77734 -5.83333,13.056 0,0 -5.888,7.5 -15.66667,7.33334 0,0 -10.55467,1.72133 -19.11067,-10.056"
         style="fill:#f9ecd9;fill-opacity:1;fill-rule:nonzero;stroke:none"
         id="path3302"
         inkscape:connector-curvature="0" />
      <path
         d="m 226.47027,260.54086 c 0,0.86933 -0.67734,1.57466 -1.512,1.57466 -0.836,0 -1.51334,-0.70533 -1.51334,-1.57466 0,-0.86934 0.67734,-1.57467 1.51334,-1.57467 0.83466,0 1.512,0.70533 1.512,1.57467"
         style="fill:#c59669;fill-opacity:1;fill-rule:nonzero;stroke:none"
         id="path3306"
         inkscape:connector-curvature="0" />
      <path
         d="m 230.762,264.33246 c 0,0.86933 -0.67733,1.57466 -1.512,1.57466 -0.836,0 -1.51333,-0.70533 -1.51333,-1.57466 0,-0.86934 0.67733,-1.57467 1.51333,-1.57467 0.83467,0 1.512,0.70533 1.512,1.57467"
         style="fill:#c59669;fill-opacity:1;fill-rule:nonzero;stroke:none"
         id="path3310"
         inkscape:connector-curvature="0" />
      <path
         d="m 236.13693,266.41579 c 0,0.86933 -0.67733,1.57467 -1.512,1.57467 -0.836,0 -1.51333,-0.70534 -1.51333,-1.57467 0,-0.86933 0.67733,-1.57467 1.51333,-1.57467 0.83467,0 1.512,0.70534 1.512,1.57467"
         style="fill:#c59669;fill-opacity:1;fill-rule:nonzero;stroke:none"
         id="path3314"
         inkscape:connector-curvature="0" />
      <path
         d="m 241.4952,267.79086 c 0,0.86933 -0.67733,1.57466 -1.512,1.57466 -0.836,0 -1.51333,-0.70533 -1.51333,-1.57466 0,-0.86934 0.67733,-1.57467 1.51333,-1.57467 0.83467,0 1.512,0.70533 1.512,1.57467"
         style="fill:#c59669;fill-opacity:1;fill-rule:nonzero;stroke:none"
         id="path3318"
         inkscape:connector-curvature="0" />
      <path
         d="m 247.09533,267.99086 c 0,0.86933 -0.67733,1.57466 -1.512,1.57466 -0.836,0 -1.51333,-0.70533 -1.51333,-1.57466 0,-0.86934 0.67733,-1.57467 1.51333,-1.57467 0.83467,0 1.512,0.70533 1.512,1.57467"
         style="fill:#c59669;fill-opacity:1;fill-rule:nonzero;stroke:none"
         id="path3322"
         inkscape:connector-curvature="0" />
      <path
         d="m 254.09533,267.08246 c 0,0.86933 -0.67733,1.57466 -1.512,1.57466 -0.836,0 -1.51333,-0.70533 -1.51333,-1.57466 0,-0.86934 0.67733,-1.57467 1.51333,-1.57467 0.83467,0 1.512,0.70533 1.512,1.57467"
         style="fill:#c59669;fill-opacity:1;fill-rule:nonzero;stroke:none"
         id="path3326"
         inkscape:connector-curvature="0" />
      <path
         d="m 259.09533,263.93206 c 0,0.86933 -0.67733,1.57466 -1.512,1.57466 -0.836,0 -1.51333,-0.70533 -1.51333,-1.57466 0,-0.86934 0.67733,-1.57467 1.51333,-1.57467 0.83467,0 1.512,0.70533 1.512,1.57467"
         style="fill:#c59669;fill-opacity:1;fill-rule:nonzero;stroke:none"
         id="path3330"
         inkscape:connector-curvature="0" />
      <path
         d="m 263.34533,261.37419 c 0,0.86933 -0.67733,1.57467 -1.512,1.57467 -0.836,0 -1.51333,-0.70534 -1.51333,-1.57467 0,-0.86933 0.67733,-1.57467 1.51333,-1.57467 0.83467,0 1.512,0.70534 1.512,1.57467"
         style="fill:#c59669;fill-opacity:1;fill-rule:nonzero;stroke:none"
         id="path3334"
         inkscape:connector-curvature="0" />
      <path
         d="m 266.97027,255.29086 c 0,0.86933 -0.67734,1.57466 -1.512,1.57466 -0.836,0 -1.51334,-0.70533 -1.51334,-1.57466 0,-0.86934 0.67734,-1.57467 1.51334,-1.57467 0.83466,0 1.512,0.70533 1.512,1.57467"
         style="fill:#c59669;fill-opacity:1;fill-rule:nonzero;stroke:none"
         id="path3338"
         inkscape:connector-curvature="0" />
      <path
         d="m 268.67866,250.04086 c 0,0.86933 -0.67733,1.57466 -1.51199,1.57466 -0.836,0 -1.51334,-0.70533 -1.51334,-1.57466 0,-0.86934 0.67734,-1.57467 1.51334,-1.57467 0.83466,0 1.51199,0.70533 1.51199,1.57467"
         style="fill:#c59669;fill-opacity:1;fill-rule:nonzero;stroke:none"
         id="path3342"
         inkscape:connector-curvature="0" />
      <path
         d="m 269.512,244.62419 c 0,0.86933 -0.67734,1.57467 -1.512,1.57467 -0.836,0 -1.51333,-0.70534 -1.51333,-1.57467 0,-0.86933 0.67733,-1.57467 1.51333,-1.57467 0.83466,0 1.512,0.70534 1.512,1.57467"
         style="fill:#c59669;fill-opacity:1;fill-rule:nonzero;stroke:none"
         id="path3346"
         inkscape:connector-curvature="0" />
      <path
         d="m 269.8036,238.79086 c 0,0.86933 -0.67734,1.57466 -1.512,1.57466 -0.836,0 -1.51333,-0.70533 -1.51333,-1.57466 0,-0.86934 0.67733,-1.57467 1.51333,-1.57467 0.83466,0 1.512,0.70533 1.512,1.57467"
         style="fill:#c59669;fill-opacity:1;fill-rule:nonzero;stroke:none"
         id="path3350"
         inkscape:connector-curvature="0" />
      <path
         d="m 267.9996,233.49912 c 0,0.86934 -0.67733,1.57467 -1.512,1.57467 -0.836,0 -1.51333,-0.70533 -1.51333,-1.57467 0,-0.86933 0.67733,-1.57466 1.51333,-1.57466 0.83467,0 1.512,0.70533 1.512,1.57466"
         style="fill:#c59669;fill-opacity:1;fill-rule:nonzero;stroke:none"
         id="path3354"
         inkscape:connector-curvature="0" />
      <path
         inkscape:connector-curvature="0"
         id="path3364"
         style="fill:#00a651;fill-opacity:1;fill-rule:nonzero;stroke:none"
         d="m 199.1032,257.67886 c 0,0.76666 -0.572,1.38933 -1.27733,1.38933 -0.70667,0 -1.27867,-0.62267 -1.27867,-1.38933 0,-0.76667 0.572,-1.38934 1.27867,-1.38934 0.70533,0 1.27733,0.62267 1.27733,1.38934" />
      <path
         inkscape:connector-curvature="0"
         id="path3380"
         style="fill:#00a651;fill-opacity:1;fill-rule:nonzero;stroke:none"
         d="m 183.06147,260.45672 c 0,0.76667 -0.572,1.38934 -1.27733,1.38934 -0.70667,0 -1.27867,-0.62267 -1.27867,-1.38934 0,-0.76666 0.572,-1.38933 1.27867,-1.38933 0.70533,0 1.27733,0.62267 1.27733,1.38933" />
      <path
         inkscape:connector-curvature="0"
         id="path3396"
         style="fill:#00a651;fill-opacity:1;fill-rule:nonzero;stroke:none"
         d="m 194.72813,262.80379 c 0,0.76667 -0.572,1.38933 -1.27733,1.38933 -0.70667,0 -1.27867,-0.62266 -1.27867,-1.38933 0,-0.76667 0.572,-1.38933 1.27867,-1.38933 0.70533,0 1.27733,0.62266 1.27733,1.38933" />
      <path
         inkscape:connector-curvature="0"
         id="path3412"
         style="fill:#00a651;fill-opacity:1;fill-rule:nonzero;stroke:none"
         d="m 202.01987,267.13712 c 0,0.76667 -0.572,1.38934 -1.27734,1.38934 -0.70666,0 -1.27866,-0.62267 -1.27866,-1.38934 0,-0.76666 0.572,-1.38933 1.27866,-1.38933 0.70534,0 1.27734,0.62267 1.27734,1.38933" />
      <path
         inkscape:connector-curvature="0"
         id="path3428"
         style="fill:#00a651;fill-opacity:1;fill-rule:nonzero;stroke:none"
         d="m 197.28373,272.63712 c 0,0.76667 -0.572,1.38934 -1.27733,1.38934 -0.70667,0 -1.27867,-0.62267 -1.27867,-1.38934 0,-0.76666 0.572,-1.38933 1.27867,-1.38933 0.70533,0 1.27733,0.62267 1.27733,1.38933" />
      <path
         inkscape:connector-curvature="0"
         id="path3444"
         style="fill:#00a651;fill-opacity:1;fill-rule:nonzero;stroke:none"
         d="m 208.01987,275.41499 c 0,0.76667 -0.572,1.38933 -1.27734,1.38933 -0.70666,0 -1.27866,-0.62266 -1.27866,-1.38933 0,-0.76667 0.572,-1.38933 1.27866,-1.38933 0.70534,0 1.27734,0.62266 1.27734,1.38933" />
      <path
         inkscape:connector-curvature="0"
         id="path3460"
         style="fill:#00a651;fill-opacity:1;fill-rule:nonzero;stroke:none"
         d="m 202.24213,275.87339 c 0,0.384 -0.28666,0.69467 -0.63866,0.69467 -0.35334,0 -0.63867,-0.31067 -0.63867,-0.69467 0,-0.384 0.28533,-0.69467 0.63867,-0.69467 0.352,0 0.63866,0.31067 0.63866,0.69467" />
      <path
         inkscape:connector-curvature="0"
         id="path3476"
         style="fill:#00a651;fill-opacity:1;fill-rule:nonzero;stroke:none"
         d="m 194.72813,267.83166 c 0,0.384 -0.28533,0.69466 -0.63866,0.69466 -0.35334,0 -0.63867,-0.31066 -0.63867,-0.69466 0,-0.384 0.28533,-0.69467 0.63867,-0.69467 0.35333,0 0.63866,0.31067 0.63866,0.69467" />
      <path
         inkscape:connector-curvature="0"
         id="path3492"
         style="fill:#00a651;fill-opacity:1;fill-rule:nonzero;stroke:none"
         d="m 189.36707,268.17886 c 0,0.192 -0.14267,0.34666 -0.32,0.34666 -0.176,0 -0.31867,-0.15466 -0.31867,-0.34666 0,-0.192 0.14267,-0.34667 0.31867,-0.34667 0.17733,0 0.32,0.15467 0.32,0.34667" />
    </g>
  </g>
</svg>
