<?xml version="1.0" encoding="UTF-8" standalone="no"?>
<!-- Created with Inkscape (http://www.inkscape.org/) -->

<svg
   xmlns:dc="http://purl.org/dc/elements/1.1/"
   xmlns:cc="http://creativecommons.org/ns#"
   xmlns:rdf="http://www.w3.org/1999/02/22-rdf-syntax-ns#"
   xmlns:svg="http://www.w3.org/2000/svg"
   xmlns="http://www.w3.org/2000/svg"
   xmlns:sodipodi="http://sodipodi.sourceforge.net/DTD/sodipodi-0.dtd"
   xmlns:inkscape="http://www.inkscape.org/namespaces/inkscape"
   id="svg2"
   version="1.1"
   inkscape:version="0.91 r13725"
   xml:space="preserve"
   width="1200"
   height="845"
   viewBox="0 0 1200 845"
   sodipodi:docname="background-qsoy.svg"
   inkscape:export-filename="/home/piccolina/Escritorio/fundacion/megamente-web/Megamente/img/quien-soy.png"
   inkscape:export-xdpi="90"
   inkscape:export-ydpi="90"><metadata
     id="metadata8"><rdf:RDF><cc:Work
         rdf:about=""><dc:format>image/svg+xml</dc:format><dc:type
           rdf:resource="http://purl.org/dc/dcmitype/StillImage" /><dc:title></dc:title></cc:Work></rdf:RDF></metadata><defs
     id="defs6"><clipPath
       clipPathUnits="userSpaceOnUse"
       id="clipPath20"><path
         d="M 0,900 1200,900 1200,0 0,0 0,900 Z"
         id="path22"
         inkscape:connector-curvature="0" /></clipPath><clipPath
       clipPathUnits="userSpaceOnUse"
       id="clipPath1640"><path
         d="M 0,900 1200,900 1200,0 0,0 0,900 Z"
         id="path1642"
         inkscape:connector-curvature="0" /></clipPath></defs><sodipodi:namedview
     pagecolor="#ffffff"
     bordercolor="#666666"
     borderopacity="1"
     objecttolerance="10"
     gridtolerance="10"
     guidetolerance="10"
     inkscape:pageopacity="0"
     inkscape:pageshadow="2"
     inkscape:window-width="1366"
     inkscape:window-height="710"
     id="namedview4"
     showgrid="false"
     inkscape:zoom="0.29667058"
     inkscape:cx="-180.30304"
     inkscape:cy="426.46621"
     inkscape:window-x="0"
     inkscape:window-y="25"
     inkscape:window-maximized="1"
     inkscape:current-layer="g10"
     fit-margin-top="0"
     fit-margin-left="0"
     fit-margin-right="0"
     fit-margin-bottom="0" /><g
     id="g10"
     inkscape:groupmode="layer"
     inkscape:label="Mega Mente"
     transform="matrix(1.25,0,0,-1.25,11.099496,862.84099)"><g
       id="g4455"
       transform="matrix(0.8,0,0,0.75111112,-1.7759193,3.5523387)"><path
         inkscape:connector-curvature="0"
         id="path12"
         style="fill:#d2ecf9;fill-opacity:1;fill-rule:nonzero;stroke:none"
         d="m -8.8795965,14.27279 1199.9999965,0 0,899.99999 -1199.9999965,0 0,-899.99999 z" /><path
         inkscape:connector-curvature="0"
         id="path14"
         style="fill:#bdbdb0;fill-opacity:1;fill-rule:nonzero;stroke:none"
         d="m -8.8795882,14.27279 1199.9999882,0 0,270.672 -1199.9999882,0 0,-270.672 z" /><g
         transform="translate(-194.94518,-151.9265)"
         id="g7780"><g
           id="g24"
           transform="translate(643.18086,844.92199)"><path
             d="M 0,0 C 19.951,0 36.225,16.273 36.225,36.225 36.225,56.176 19.951,72.449 0,72.449 -19.951,72.449 -36.224,56.176 -36.224,36.225 -36.224,16.273 -19.951,0 0,0"
             style="fill:#423e35;fill-opacity:1;fill-rule:evenodd;stroke:none"
             id="path26"
             inkscape:connector-curvature="0" /></g><g
           id="g28"
           transform="translate(643.18086,849.75369)"><path
             d="M 0,0 C 17.29,0 31.393,14.103 31.393,31.393 31.393,48.684 17.29,62.786 0,62.786 -17.291,62.786 -31.392,48.684 -31.392,31.393 -31.392,14.103 -17.291,0 0,0"
             style="fill:#facdb9;fill-opacity:1;fill-rule:evenodd;stroke:none"
             id="path30"
             inkscape:connector-curvature="0" /></g><g
           id="g32"
           transform="translate(643.18086,902.60659)"><path
             d="m 0,0 0.001,0 c 0.93,0 1.69,-0.761 1.69,-1.692 l 0,-18.077 c 0,-0.931 -0.76,-1.691 -1.69,-1.691 l -0.001,0 c -0.93,0 -1.69,0.76 -1.69,1.691 l 0,18.077 C -1.69,-0.761 -0.93,0 0,0"
             style="fill:#423e35;fill-opacity:1;fill-rule:evenodd;stroke:none"
             id="path34"
             inkscape:connector-curvature="0" /></g><g
           id="g36"
           transform="translate(629.66706,893.20599)"><path
             d="m 0,0 0,0 c 0.62,0.693 1.694,0.754 2.388,0.136 l 10.99,-9.808 c 0.695,-0.62 0.756,-1.694 0.136,-2.387 -0.619,-0.695 -1.694,-0.755 -2.388,-0.136 L 0.136,-2.387 C -0.558,-1.769 -0.619,-0.695 0,0"
             style="fill:#423e35;fill-opacity:1;fill-rule:evenodd;stroke:none"
             id="path38"
             inkscape:connector-curvature="0" /></g><g
           id="g40"
           transform="translate(643.18086,904.35399)"><path
             d="M 0,0 C 1.03,0 1.87,0.84 1.87,1.87 1.87,2.899 1.03,3.739 0,3.739 -1.029,3.739 -1.869,2.899 -1.869,1.87 -1.869,0.84 -1.029,0 0,0"
             style="fill:#423e35;fill-opacity:1;fill-rule:evenodd;stroke:none"
             id="path42"
             inkscape:connector-curvature="0" /></g><g
           id="g44"
           transform="translate(671.10426,880.42129)"><path
             d="m 0,0 c 0,-1.032 -0.836,-1.87 -1.869,-1.87 -1.032,0 -1.868,0.838 -1.868,1.87 0,1.031 0.836,1.869 1.868,1.869 C -0.836,1.869 0,1.031 0,0"
             style="fill:#423e35;fill-opacity:1;fill-rule:evenodd;stroke:none"
             id="path46"
             inkscape:connector-curvature="0" /></g><g
           id="g48"
           transform="translate(643.43296,852.49659)"><path
             d="m 0,0 c -1.031,0 -1.869,0.837 -1.869,1.87 0,1.032 0.838,1.869 1.869,1.869 1.033,0 1.87,-0.837 1.87,-1.869 C 1.87,0.837 1.033,0 0,0"
             style="fill:#423e35;fill-opacity:1;fill-rule:evenodd;stroke:none"
             id="path50"
             inkscape:connector-curvature="0" /></g><g
           id="g52"
           transform="translate(615.50956,880.16909)"><path
             d="M 0,0 C 0,1.031 0.837,1.869 1.87,1.869 2.902,1.869 3.739,1.031 3.739,0 3.739,-1.033 2.902,-1.87 1.87,-1.87 0.837,-1.87 0,-1.033 0,0"
             style="fill:#423e35;fill-opacity:1;fill-rule:evenodd;stroke:none"
             id="path54"
             inkscape:connector-curvature="0" /></g><g
           id="g56"
           transform="translate(643.18086,876.77549)"><path
             d="M 0,0 C 2.408,0 4.371,1.964 4.371,4.371 4.371,6.779 2.408,8.743 0,8.743 -2.408,8.743 -4.371,6.779 -4.371,4.371 -4.371,1.964 -2.408,0 0,0"
             style="fill:#423e35;fill-opacity:1;fill-rule:evenodd;stroke:none"
             id="path58"
             inkscape:connector-curvature="0" /></g><g
           id="g60"
           transform="translate(889.65526,732.04939)"><path
             d="m 0,0 0,31.066 c 0,4.55 3.722,8.271 8.271,8.271 l 35.461,0 c 4.548,0 8.269,-3.721 8.269,-8.271 L 52.001,0 0,0 Z"
             style="fill:#423e35;fill-opacity:1;fill-rule:evenodd;stroke:none"
             id="path62"
             inkscape:connector-curvature="0" /></g><g
           id="g64"
           transform="translate(889.65526,761.41689)"><path
             d="m 0,0 0,1.701 c 0,4.547 3.721,8.268 8.269,8.268 l 35.463,0 c 4.548,0 8.269,-3.721 8.269,-8.268 L 52.001,0 0,0 Z"
             style="fill:#938b7e;fill-opacity:1;fill-rule:evenodd;stroke:none"
             id="path66"
             inkscape:connector-curvature="0" /></g><path
           d="m 784.05996,750.20459 80.383,0 0,-18.157 -80.383,0 0,18.157 z"
           style="fill:#e69d2a;fill-opacity:1;fill-rule:evenodd;stroke:none"
           id="path68"
           inkscape:connector-curvature="0" /><path
           d="m 784.05996,750.20459 87.574,0 0,8.287 -87.574,0 0,-8.287 z"
           style="fill:#ffffff;fill-opacity:1;fill-rule:evenodd;stroke:none"
           id="path70"
           inkscape:connector-curvature="0" /><path
           d="m 784.05996,776.64759 71.102,0 0,-18.156 -71.102,0 0,18.156 z"
           style="fill:#e05e26;fill-opacity:1;fill-rule:evenodd;stroke:none"
           id="path72"
           inkscape:connector-curvature="0" /><path
           d="m 784.05996,785.72459 79.746,0 0,-9.077 -79.746,0 0,9.077 z"
           style="fill:#938b7e;fill-opacity:1;fill-rule:evenodd;stroke:none"
           id="path74"
           inkscape:connector-curvature="0" /><path
           d="m 784.05996,785.72459 71.102,0 0,9.077 -71.102,0 0,-9.077 z"
           style="fill:#facdb9;fill-opacity:1;fill-rule:evenodd;stroke:none"
           id="path76"
           inkscape:connector-curvature="0" /><g
           id="g78"
           transform="translate(957.23536,822.98519)"><path
             d="m 0,0 0,0 c 0,-4.88 -3.992,-8.872 -8.872,-8.872 l -164.303,0 c -4.881,0 -8.873,3.992 -8.873,8.872 0,4.881 3.992,8.872 8.873,8.872 l 164.303,0 C -3.992,8.872 0,4.881 0,0"
             style="fill:#c49a6c;fill-opacity:1;fill-rule:evenodd;stroke:none"
             id="path80"
             inkscape:connector-curvature="0" /></g><g
           id="g82"
           transform="translate(957.23536,723.17689)"><path
             d="M 0,0 0,-0.001 C 0,-4.88 -3.992,-8.874 -8.872,-8.874 l -164.303,0 c -4.881,0 -8.873,3.994 -8.873,8.873 l 0,0.001 c 0,4.879 3.992,8.871 8.873,8.871 l 164.303,0 C -3.992,8.871 0,4.879 0,0"
             style="fill:#c49a6c;fill-opacity:1;fill-rule:evenodd;stroke:none"
             id="path84"
             inkscape:connector-curvature="0" /></g><g
           id="g86"
           transform="translate(928.36506,850.17359)"><path
             d="m 0,0 c 5.425,8.122 8.737,18.957 8.737,30.858 0,4.823 -0.545,9.471 -1.552,13.835 l -27.401,0 c -1.007,-4.364 -1.552,-9.012 -1.552,-13.835 0,-12.003 3.37,-22.924 8.879,-31.069 2.505,-3.701 1.15,-4.139 0.284,-5.91 -1.725,-3.526 -2.543,-7.75 -2.712,-12.195 l 17.603,0 c -0.171,4.5 -1.053,8.752 -2.77,12.327 C -1.213,-4.473 -2.563,-3.836 0,0"
             style="fill:#54a2ac;fill-opacity:1;fill-rule:evenodd;stroke:none"
             id="path88"
             inkscape:connector-curvature="0" /></g><g
           id="g90"
           transform="translate(816.21216,835.70329)"><path
             d="m 0,0 c 4.093,0 7.432,3.338 7.432,7.432 0,4.093 -3.339,7.432 -7.432,7.432 -4.094,0 -7.433,-3.339 -7.433,-7.432 C -7.433,3.338 -4.094,0 0,0"
             style="fill:#e05e26;fill-opacity:1;fill-rule:evenodd;stroke:none"
             id="path92"
             inkscape:connector-curvature="0" /></g><g
           id="g94"
           transform="translate(828.73166,834.00709)"><path
             d="M 0,0 C 6.537,0 11.87,5.333 11.87,11.87 11.87,18.408 6.537,23.74 0,23.74 -6.537,23.74 -11.87,18.408 -11.87,11.87 -11.87,5.333 -6.537,0 0,0"
             style="fill:#e69d2a;fill-opacity:1;fill-rule:evenodd;stroke:none"
             id="path96"
             inkscape:connector-curvature="0" /></g><g
           id="g98"
           transform="translate(840.31136,835.70329)"><path
             d="m 0,0 c 4.093,0 7.432,3.338 7.432,7.432 0,4.093 -3.339,7.432 -7.432,7.432 -4.093,0 -7.432,-3.339 -7.432,-7.432 C -7.432,3.338 -4.093,0 0,0"
             style="fill:#938b7e;fill-opacity:1;fill-rule:evenodd;stroke:none"
             id="path100"
             inkscape:connector-curvature="0" /></g><g
           id="g102"
           transform="translate(799.32016,841.42709)"><path
             d="m 0,0 c 2.101,-4.113 7.502,-7.556 14.694,-9.569 l 29.436,0 C 51.322,-7.556 56.724,-4.113 58.824,0 L 0,0 Z"
             style="fill:#423e35;fill-opacity:1;fill-rule:evenodd;stroke:none"
             id="path104"
             inkscape:connector-curvature="0" /></g><path
           d="m 881.22296,831.85759 15.241,0 0,67.478 -15.241,0 0,-67.478 z"
           style="fill:#e69d2a;fill-opacity:1;fill-rule:evenodd;stroke:none"
           id="path106"
           inkscape:connector-curvature="0" /><path
           d="m 865.98196,831.85759 15.241,0 0,67.478 -15.241,0 0,-67.478 z"
           style="fill:#938b7e;fill-opacity:1;fill-rule:evenodd;stroke:none"
           id="path108"
           inkscape:connector-curvature="0" /><path
           d="m 896.46496,831.85759 10.132,0 0,85.513 -10.132,0 0,-85.513 z"
           style="fill:#e05e26;fill-opacity:1;fill-rule:evenodd;stroke:none"
           id="path110"
           inkscape:connector-curvature="0" /><g
           id="g112"
           transform="translate(679.40506,623.35759)"><path
             d="m 0,0 c 0,-4.88 -3.99,-8.87 -8.87,-8.87 l -164.31,0 c -4.87,0 -8.87,3.99 -8.87,8.87 l 0,90.94 -155.43,0 c -4.88,0 -8.87,3.99 -8.87,8.87 l 0,99.82 c 0,4.88 3.99,8.87 8.87,8.87 2.44,0 4.66,-1 6.26,-2.61 1.61,-1.6 2.61,-3.82 2.61,-6.26 l 0,-90.95 155.44,0 c 2.89,0 5.47,-1.4 7.1,-3.56 0.34,-0.46 0.64,-0.95 0.89,-1.47 0.12,-0.26 0.24,-0.52 0.34,-0.79 0.35,-0.95 0.54,-1.97 0.54,-3.04 l 0,-90.94 155.43,0 C -3.99,8.88 0,4.88 0,0"
             style="fill:#c49a6c;fill-opacity:1;fill-rule:evenodd;stroke:none"
             id="path114"
             inkscape:connector-curvature="0" /></g><g
           id="g116"
           transform="translate(513.33506,728.47759)"><path
             d="m 0,0 c -1.63,2.16 -4.21,3.56 -7.1,3.56 l -0.46,0 c 0.15,0.01 0.3,0.01 0.45,0.01 l 0.01,0 C -4.21,3.57 -1.62,2.16 0,0"
             style="fill:#21a58d;fill-opacity:1;fill-rule:evenodd;stroke:none"
             id="path118"
             inkscape:connector-curvature="0" /></g><path
           d="m 472.54196,748.40259 5.105,0 0,52.519 -5.105,0 0,-52.519 z"
           style="fill:#e05e26;fill-opacity:1;fill-rule:evenodd;stroke:none"
           id="path120"
           inkscape:connector-curvature="0" /><g
           id="g122"
           transform="translate(495.22886,758.76669)"><path
             d="m 0,0 c -1.439,-11.486 -5.136,-21.101 -10.06,-26.726 l -20.15,0 c -4.923,5.625 -8.621,15.24 -10.059,26.726 L 0,0 Z"
             style="fill:#423e35;fill-opacity:1;fill-rule:evenodd;stroke:none"
             id="path124"
             inkscape:connector-curvature="0" /></g><g
           id="g126"
           transform="translate(493.79796,750.77209)"><path
             d="m 0,0 c -0.388,-1.642 -0.828,-3.224 -1.311,-4.74 l -34.787,0 c -0.483,1.516 -0.922,3.098 -1.309,4.74 L 0,0 Z"
             style="fill:#938b7e;fill-opacity:1;fill-rule:evenodd;stroke:none"
             id="path128"
             inkscape:connector-curvature="0" /></g><g
           id="g130"
           transform="translate(463.07326,784.61679)"><path
             d="m 0,0 c 5.876,0 10.669,4.791 10.669,10.667 0,5.875 -4.793,10.668 -10.669,10.668 -5.876,0 -10.667,-4.793 -10.667,-10.668 C -10.667,4.791 -5.876,0 0,0"
             style="fill:#21a58d;fill-opacity:1;fill-rule:evenodd;stroke:none"
             id="path132"
             inkscape:connector-curvature="0" /></g><g
           id="g134"
           transform="translate(475.17756,776.68649)"><path
             d="m 0,0 c 6.518,0 11.836,5.317 11.836,11.837 0,6.518 -5.318,11.835 -11.836,11.835 -6.52,0 -11.837,-5.317 -11.837,-11.835 C -11.837,5.317 -6.52,0 0,0"
             style="fill:#21a58d;fill-opacity:1;fill-rule:evenodd;stroke:none"
             id="path136"
             inkscape:connector-curvature="0" /></g><g
           id="g138"
           transform="translate(484.07736,790.79269)"><path
             d="m 0,0 c 5.876,0 10.669,4.791 10.669,10.667 0,5.877 -4.793,10.668 -10.669,10.668 -5.876,0 -10.667,-4.791 -10.667,-10.668 C -10.667,4.791 -5.876,0 0,0"
             style="fill:#21a58d;fill-opacity:1;fill-rule:evenodd;stroke:none"
             id="path140"
             inkscape:connector-curvature="0" /></g><g
           id="g142"
           transform="translate(474.61606,802.33089)"><path
             d="m 0,0 c 5.876,0 10.669,4.792 10.669,10.667 0,5.876 -4.793,10.669 -10.669,10.669 -5.876,0 -10.667,-4.793 -10.667,-10.669 C -10.667,4.792 -5.876,0 0,0"
             style="fill:#21a58d;fill-opacity:1;fill-rule:evenodd;stroke:none"
             id="path144"
             inkscape:connector-curvature="0" /></g><g
           id="g146"
           transform="translate(462.10026,795.28419)"><path
             d="m 0,0 c 6.411,0 11.642,5.229 11.642,11.642 0,6.412 -5.231,11.641 -11.642,11.641 -6.413,0 -11.643,-5.229 -11.643,-11.641 C -11.643,5.229 -6.413,0 0,0"
             style="fill:#21a58d;fill-opacity:1;fill-rule:evenodd;stroke:none"
             id="path148"
             inkscape:connector-curvature="0" /></g><g
           id="g150"
           transform="translate(472.31446,789.95049)"><path
             d="m 0,0 c 5.875,0 10.667,4.791 10.667,10.667 0,5.877 -4.792,10.669 -10.667,10.669 -5.875,0 -10.667,-4.792 -10.667,-10.669 C -10.667,4.791 -5.875,0 0,0"
             style="fill:#21a58d;fill-opacity:1;fill-rule:evenodd;stroke:none"
             id="path152"
             inkscape:connector-curvature="0" /></g><g
           id="g154"
           transform="translate(478.70566,802.59009)"><path
             d="m 0,0 c 2.714,0 5.06,-1.581 6.164,-3.872 -1.222,1.14 -2.862,1.838 -4.664,1.838 -3.777,0 -6.838,-3.062 -6.838,-6.837 0,-1.063 0.242,-2.069 0.674,-2.965 -1.337,1.248 -2.173,3.025 -2.173,4.999 C -6.837,-3.061 -3.775,0 0,0"
             style="fill:#44c7af;fill-opacity:1;fill-rule:evenodd;stroke:none"
             id="path156"
             inkscape:connector-curvature="0" /></g><g
           id="g158"
           transform="translate(474.63146,818.07379)"><path
             d="m 0,0 c 2.715,0 5.059,-1.581 6.163,-3.873 -1.221,1.141 -2.861,1.839 -4.664,1.839 -3.776,0 -6.837,-3.062 -6.837,-6.838 0,-1.063 0.242,-2.068 0.674,-2.965 -1.337,1.248 -2.173,3.026 -2.173,5 C -6.837,-3.061 -3.777,0 0,0"
             style="fill:#44c7af;fill-opacity:1;fill-rule:evenodd;stroke:none"
             id="path160"
             inkscape:connector-curvature="0" /></g><g
           id="g162"
           transform="translate(463.40026,804.79419)"><path
             d="m 0,0 c 2.713,0 5.059,-1.581 6.163,-3.873 -1.222,1.141 -2.862,1.839 -4.664,1.839 -3.777,0 -6.839,-3.062 -6.839,-6.838 0,-1.061 0.243,-2.068 0.675,-2.965 -1.337,1.249 -2.173,3.027 -2.173,5 C -6.838,-3.06 -3.777,0 0,0"
             style="fill:#44c7af;fill-opacity:1;fill-rule:evenodd;stroke:none"
             id="path164"
             inkscape:connector-curvature="0" /></g><path
           d="m 350.79896,749.16759 75.828,0 0,-17.126 -75.828,0 0,17.126 z"
           style="fill:#ba3902;fill-opacity:1;fill-rule:evenodd;stroke:none"
           id="path166"
           inkscape:connector-curvature="0" /><path
           d="m 350.79896,749.16759 53.991,0 0,7.817 -53.991,0 0,-7.817 z"
           style="fill:#54a2ac;fill-opacity:1;fill-rule:evenodd;stroke:none"
           id="path168"
           inkscape:connector-curvature="0" /><path
           d="m 350.79896,774.11159 67.073,0 0,-17.126 -67.073,0 0,17.126 z"
           style="fill:#e69d2a;fill-opacity:1;fill-rule:evenodd;stroke:none"
           id="path170"
           inkscape:connector-curvature="0" /><path
           d="m 350.79896,782.67459 67.073,0 0,-8.563 -67.073,0 0,8.563 z"
           style="fill:#938b7e;fill-opacity:1;fill-rule:evenodd;stroke:none"
           id="path172"
           inkscape:connector-curvature="0" /><path
           d="m 350.79896,782.67459 67.073,0 0,8.563 -67.073,0 0,-8.563 z"
           style="fill:#423e35;fill-opacity:1;fill-rule:evenodd;stroke:none"
           id="path174"
           inkscape:connector-curvature="0" /><path
           d="m 596.55296,660.06359 67.841,0 0,-27.831 -67.841,0 0,27.831 z"
           style="fill:#ba3902;fill-opacity:1;fill-rule:evenodd;stroke:none"
           id="path176"
           inkscape:connector-curvature="0" /><path
           d="m 593.27596,660.06359 74.395,0 0,6.232 -74.395,0 0,-6.232 z"
           style="fill:#e05e26;fill-opacity:1;fill-rule:evenodd;stroke:none"
           id="path178"
           inkscape:connector-curvature="0" /><path
           d="m 595.62696,686.25959 48.666,0 0,-19.964 -48.666,0 0,19.964 z"
           style="fill:#54a2ac;fill-opacity:1;fill-rule:evenodd;stroke:none"
           id="path180"
           inkscape:connector-curvature="0" /><path
           d="m 593.27596,686.25959 53.368,0 0,4.471 -53.368,0 0,-4.471 z"
           style="fill:#aceef7;fill-opacity:1;fill-rule:evenodd;stroke:none"
           id="path182"
           inkscape:connector-curvature="0" /><path
           d="m 515.10296,632.23159 18.173,0 0,80.461 -18.173,0 0,-80.461 z"
           style="fill:#54a2ac;fill-opacity:1;fill-rule:evenodd;stroke:none"
           id="path184"
           inkscape:connector-curvature="0" /><path
           d="m 533.27596,632.23259 8.296,0 0,57.29 -8.296,0 0,-57.29 z"
           style="fill:#ba3902;fill-opacity:1;fill-rule:evenodd;stroke:none"
           id="path186"
           inkscape:connector-curvature="0" /><path
           d="m 541.57096,632.23159 18.173,0 0,71.171 -18.173,0 0,-71.171 z"
           style="fill:#facdb9;fill-opacity:1;fill-rule:evenodd;stroke:none"
           id="path188"
           inkscape:connector-curvature="0" /><path
           d="m 559.74396,632.23159 9.087,0 0,83.522 -9.087,0 0,-83.522 z"
           style="fill:#938b7e;fill-opacity:1;fill-rule:evenodd;stroke:none"
           id="path190"
           inkscape:connector-curvature="0" /><g
           id="g192"
           transform="translate(578.56026,632.23279)"><path
             d="M 0,0 9.001,1.242 -0.729,71.744 -9.73,70.501 0,0 Z"
             style="fill:#e69d2a;fill-opacity:1;fill-rule:evenodd;stroke:none"
             id="path194"
             inkscape:connector-curvature="0" /></g><path
           d="m 386.35896,435.78859 -35.56,0 0,8.459 35.56,0 0,-8.459 z"
           style="fill:#ba3902;fill-opacity:1;fill-rule:evenodd;stroke:none"
           id="path196"
           inkscape:connector-curvature="0" /><g
           id="g198"
           transform="translate(390.19276,415.59809)"><path
             d="M 0,0 C 21.698,0 39.394,12.87 39.394,28.65 39.394,44.43 21.698,57.299 0,57.299 -21.698,57.299 -39.394,44.43 -39.394,28.65 -39.394,12.87 -21.698,0 0,0"
             style="fill:#ba3902;fill-opacity:1;fill-rule:evenodd;stroke:none"
             id="path200"
             inkscape:connector-curvature="0" /></g><path
           d="m 682.97896,435.78859 -332.18,0 0,-37.574 332.18,0 0,37.574 z"
           style="fill:#e05e26;fill-opacity:1;fill-rule:evenodd;stroke:none"
           id="path202"
           inkscape:connector-curvature="0" /><g
           id="g204"
           transform="translate(691.85496,398.21759)"><path
             d="m 0,0 0,-17.75 -341.06,0 0,-56.56 c 0,-4.88 -3.99,-8.88 -8.87,-8.88 -4.88,0 -8.87,4 -8.87,8.88 l 0,199.63 c 0,4.88 3.99,8.87 8.87,8.87 2.44,0 4.66,-1 6.26,-2.6 1.61,-1.61 2.61,-3.83 2.61,-6.27 L -341.06,0 0,0 Z"
             style="fill:#c49a6c;fill-opacity:1;fill-rule:evenodd;stroke:none"
             id="path206"
             inkscape:connector-curvature="0" /></g><path
           d="m 682.97896,435.78859 -256.273,0 0,-86.599 256.273,0 0,86.599 z"
           style="fill:#ba3902;fill-opacity:1;fill-rule:evenodd;stroke:none"
           id="path208"
           inkscape:connector-curvature="0" /><g
           id="g212"
           transform="translate(1071.9243,477.27709)"><path
             d="m 0,0 0,-0.001 c 0,-4.88 -3.993,-8.873 -8.872,-8.873 l -371.201,0 c -4.88,0 -8.872,3.993 -8.872,8.873 l 0,0.001 c 0,4.879 3.992,8.871 8.872,8.871 l 371.201,0 C -3.993,8.871 0,4.879 0,0"
             style="fill:#c49a6c;fill-opacity:1;fill-rule:evenodd;stroke:none"
             id="path214"
             inkscape:connector-curvature="0" /></g><g
           id="g216"
           transform="translate(691.85146,315.03209)"><path
             d="m 0,0 0,0 c -4.88,0 -8.872,3.992 -8.872,8.871 l 0,153.374 c 0,4.879 3.992,8.871 8.872,8.871 4.88,0 8.872,-3.992 8.872,-8.871 l 0,-153.374 C 8.872,3.992 4.88,0 0,0"
             style="fill:#c49a6c;fill-opacity:1;fill-rule:evenodd;stroke:none"
             id="path218"
             inkscape:connector-curvature="0" /></g><path
           d="m 700.72396,399.79959 128.181,0 0,68.604 -128.181,0 0,-68.604 z"
           style="fill:#e69d2a;fill-opacity:1;fill-rule:evenodd;stroke:none"
           id="path220"
           inkscape:connector-curvature="0" /><g
           id="g222"
           transform="translate(833.34086,395.74779)"><path
             d="m 0,0 0,-0.001 c 0,-2.228 -1.823,-4.052 -4.053,-4.052 l -142.257,0 c -2.228,0 -4.052,1.824 -4.052,4.052 l 0,0.001 c 0,2.228 1.824,4.051 4.052,4.051 l 142.257,0 C -1.823,4.051 0,2.228 0,0"
             style="fill:#c49a6c;fill-opacity:1;fill-rule:evenodd;stroke:none"
             id="path224"
             inkscape:connector-curvature="0" /></g><path
           d="m 700.72396,323.08959 128.181,0 0,68.605 -128.181,0 0,-68.605 z"
           style="fill:#e69d2a;fill-opacity:1;fill-rule:evenodd;stroke:none"
           id="path226"
           inkscape:connector-curvature="0" /><g
           id="g228"
           transform="translate(837.76466,319.06209)"><path
             d="M 0,0 0,-0.001 C 0,-2.217 -1.813,-4.03 -4.029,-4.03 l -142.31,0 c -2.216,0 -4.029,1.813 -4.029,4.029 l 0,0.001 c 0,2.215 1.813,4.028 4.029,4.028 l 142.31,0 C -1.813,4.028 0,2.215 0,0"
             style="fill:#c49a6c;fill-opacity:1;fill-rule:evenodd;stroke:none"
             id="path230"
             inkscape:connector-curvature="0" /></g><g
           id="g232"
           transform="translate(833.34086,315.03209)"><path
             d="m 0,0 0,0 c -2.44,0 -4.436,1.996 -4.436,4.436 l 0,162.245 c 0,2.439 1.996,4.435 4.436,4.435 2.441,0 4.437,-1.996 4.437,-4.435 l 0,-162.245 C 4.437,1.996 2.441,0 0,0"
             style="fill:#c49a6c;fill-opacity:1;fill-rule:evenodd;stroke:none"
             id="path234"
             inkscape:connector-curvature="0" /></g><g
           id="g236"
           transform="translate(795.84556,454.05819)"><path
             d="m 0,0 0,-0.001 c 0,-2.228 -1.823,-4.052 -4.053,-4.052 l -53.957,0 c -2.228,0 -4.052,1.824 -4.052,4.052 l 0,0.001 c 0,2.228 1.824,4.051 4.052,4.051 l 53.957,0 C -1.823,4.051 0,2.228 0,0"
             style="fill:#ffffff;fill-opacity:1;fill-rule:evenodd;stroke:none"
             id="path238"
             inkscape:connector-curvature="0" /></g><g
           id="g240"
           transform="translate(795.84676,377.37129)"><path
             d="m 0,0 0,0 c 0,-2.216 -1.813,-4.03 -4.029,-4.03 l -54.007,0 c -2.216,0 -4.028,1.814 -4.028,4.03 0,2.216 1.812,4.029 4.028,4.029 l 54.007,0 C -1.813,4.029 0,2.216 0,0"
             style="fill:#ffffff;fill-opacity:1;fill-rule:evenodd;stroke:none"
             id="path242"
             inkscape:connector-curvature="0" /></g><g
           id="g244"
           transform="translate(932.32136,510.82679)"><path
             d="m 0,0 29.063,0 13.622,-24.677 -56.307,0 L 0,0 Z"
             style="fill:#423e35;fill-opacity:1;fill-rule:evenodd;stroke:none"
             id="path246"
             inkscape:connector-curvature="0" /></g><g
           id="g248"
           transform="translate(878.37046,593.11969)"><path
             d="m 0,0 136.965,0 c 3.854,0 7.007,-3.153 7.007,-7.007 l 0,-74.535 c 0,-3.854 -3.153,-7.008 -7.007,-7.008 L 0,-88.55 c -3.854,0 -7.007,3.154 -7.007,7.008 l 0,74.535 C -7.007,-3.153 -3.854,0 0,0"
             style="fill:#423e35;fill-opacity:1;fill-rule:evenodd;stroke:none"
             id="path250"
             inkscape:connector-curvature="0" /></g><path
           d="m 876.01396,517.08359 141.67704,0 0,71.949 -141.67704,0 0,-71.949 z"
           style="fill:#aceef7;fill-opacity:1;fill-rule:evenodd;stroke:none"
           id="path252"
           inkscape:connector-curvature="0" /><g
           id="g254"
           transform="translate(1013.8328,509.85379)"><path
             d="M 0,0 C 0.501,0 0.91,0.409 0.91,0.91 0.91,1.412 0.501,1.82 0,1.82 -0.501,1.82 -0.91,1.412 -0.91,0.91 -0.91,0.409 -0.501,0 0,0"
             style="fill:#808281;fill-opacity:1;fill-rule:evenodd;stroke:none"
             id="path256"
             inkscape:connector-curvature="0" /></g><g
           id="g258"
           transform="translate(1010.2798,509.85379)"><path
             d="M 0,0 C 0.502,0 0.91,0.409 0.91,0.91 0.91,1.412 0.502,1.82 0,1.82 -0.501,1.82 -0.91,1.412 -0.91,0.91 -0.91,0.409 -0.501,0 0,0"
             style="fill:#808281;fill-opacity:1;fill-rule:evenodd;stroke:none"
             id="path260"
             inkscape:connector-curvature="0" /></g><g
           id="g262"
           transform="translate(1006.7267,509.85379)"><path
             d="M 0,0 C 0.501,0 0.91,0.409 0.91,0.91 0.91,1.412 0.501,1.82 0,1.82 -0.501,1.82 -0.91,1.412 -0.91,0.91 -0.91,0.409 -0.501,0 0,0"
             style="fill:#808281;fill-opacity:1;fill-rule:evenodd;stroke:none"
             id="path264"
             inkscape:connector-curvature="0" /></g><g
           id="g266"
           transform="translate(863.26866,493.60769)"><path
             d="m 0,0 167.168,0 c 2.051,0 3.729,-1.678 3.729,-3.729 0,-2.052 -1.678,-3.729 -3.729,-3.729 L 0,-7.458 c -2.051,0 -3.729,1.677 -3.729,3.729 C -3.729,-1.678 -2.051,0 0,0"
             style="fill:#423e35;fill-opacity:1;fill-rule:evenodd;stroke:none"
             id="path268"
             inkscape:connector-curvature="0" /></g><g
           id="g270"
           transform="translate(1034.166,489.87869)"><path
             d="m 0,0 c 0,-2.052 -1.678,-3.729 -3.729,-3.729 l -167.168,0 c -2.051,0 -3.729,1.677 -3.729,3.729 L 0,0 Z"
             style="fill:#423e35;fill-opacity:1;fill-rule:evenodd;stroke:none"
             id="path272"
             inkscape:connector-curvature="0" /></g><g
           id="g274"
           transform="translate(992.80956,589.03269)"><path
             d="m 0,0 -73.263,-71.949 -18.13,0 L -18.128,0 0,0 Z"
             style="fill:#bef3fa;fill-opacity:1;fill-rule:evenodd;stroke:none"
             id="path276"
             inkscape:connector-curvature="0" /></g><g
           id="g278"
           transform="translate(1015.472,589.03269)"><path
             d="m 0,0 -73.289,-71.949 -10.339,0 L -10.358,0 0,0 Z"
             style="fill:#bef3fa;fill-opacity:1;fill-rule:evenodd;stroke:none"
             id="path280"
             inkscape:connector-curvature="0" /></g><g
           id="g282"
           transform="translate(962.38226,589.03269)"><path
             d="m 0,0 -73.269,-71.949 -10.359,0 L -10.34,0 0,0 Z"
             style="fill:#bef3fa;fill-opacity:1;fill-rule:evenodd;stroke:none"
             id="path284"
             inkscape:connector-curvature="0" /></g><g
           id="g286"
           transform="translate(1046.8044,486.14949)"><path
             d="m 0,0 c 3.185,0 5.783,2.598 5.783,5.782 0,3.186 -2.598,5.784 -5.783,5.784 -3.185,0 -5.783,-2.598 -5.783,-5.784 C -5.783,2.598 -3.185,0 0,0"
             style="fill:#423e35;fill-opacity:1;fill-rule:evenodd;stroke:none"
             id="path288"
             inkscape:connector-curvature="0" /></g><g
           id="g290"
           transform="translate(1052.5878,491.93169)"><path
             d="m 0,0 0,-3.231 c 0,-1.403 -1.149,-2.552 -2.553,-2.552 l -6.461,0 c -1.404,0 -2.553,1.149 -2.553,2.552 L -11.567,0 0,0 Z"
             style="fill:#423e35;fill-opacity:1;fill-rule:evenodd;stroke:none"
             id="path292"
             inkscape:connector-curvature="0" /></g><g
           id="g294"
           transform="translate(905.39346,645.27199)"><path
             d="M 0,0 0,-0.001 C 0.72,-1.796 -0.158,-3.854 -1.953,-4.574 L -116.524,-50.56 c -1.795,-0.719 -3.853,0.16 -4.573,1.955 -0.721,1.795 0.159,3.853 1.954,4.572 L -4.573,1.953 C -2.779,2.674 -0.721,1.795 0,0"
             style="fill:#e05e26;fill-opacity:1;fill-rule:evenodd;stroke:none"
             id="path296"
             inkscape:connector-curvature="0" /></g><g
           id="g298"
           transform="translate(762.81206,494.42239)"><path
             d="M 0,0 0,0 C -1.934,0 -3.115,2.271 -2.718,4.163 L 17.32,99.526 c 0.399,1.893 2.231,2.718 4.165,2.718 1.934,0 3.115,-2.272 2.718,-4.164 L 4.164,2.717 C 3.767,0.826 1.934,0 0,0"
             style="fill:#e05e26;fill-opacity:1;fill-rule:evenodd;stroke:none"
             id="path300"
             inkscape:connector-curvature="0" /></g><g
           id="g302"
           transform="translate(758.41566,491.16559)"><path
             d="m 0,0 7.757,-1.606 6.429,31.061 0,14.885 -9.386,-45.346 -1.848,0.383 11.234,54.274 0,14.885 L 0,0 Z m 14.186,29.455 14.189,68.562 -7.756,1.605 -6.433,-31.086 0,-14.885 9.385,45.347 1.849,-0.383 -11.234,-54.275 0,-14.885 z"
             style="fill:#e05e26;fill-opacity:1;fill-rule:evenodd;stroke:none"
             id="path304"
             inkscape:connector-curvature="0" /></g><g
           id="g306"
           transform="translate(904.24926,619.16139)"><path
             d="m 0,0 c 4.285,0 7.778,3.495 7.778,7.778 0,4.285 -3.493,7.778 -7.778,7.778 -4.285,0 -7.778,-3.493 -7.778,-7.778 C -7.778,3.495 -4.285,0 0,0"
             style="fill:#e69d2a;fill-opacity:1;fill-rule:evenodd;stroke:none"
             id="path308"
             inkscape:connector-curvature="0" /></g><g
           id="g310"
           transform="translate(880.73276,663.41429)"><path
             d="M 0,0 C 1.361,0 2.472,1.111 2.472,2.473 2.472,3.835 1.361,4.946 0,4.946 -1.362,4.946 -2.473,3.835 -2.473,2.473 -2.473,1.111 -1.362,0 0,0"
             style="fill:#e05e26;fill-opacity:1;fill-rule:evenodd;stroke:none"
             id="path312"
             inkscape:connector-curvature="0" /></g><g
           id="g314"
           transform="translate(880.73276,665.88609)"><path
             d="M 0,0 C 2.484,1.5 5.111,2.613 7.829,3.364 L 18.16,-9.3 C 28.48,-8.915 39.665,-15.159 46.595,-26.161 39.088,-29.946 31.341,-34.223 23.516,-38.947 15.693,-43.671 8.3,-48.536 1.455,-53.416 -5.054,-42.159 -5.37,-29.354 -0.226,-20.4 L -6.621,-5.361 C -4.691,-3.304 -2.482,-1.499 0,0"
             style="fill:#ba3902;fill-opacity:1;fill-rule:evenodd;stroke:none"
             id="path316"
             inkscape:connector-curvature="0" /></g><g
           id="g318"
           transform="translate(778.34086,602.50129)"><path
             d="m 0,0 c 3.222,3.289 8.501,3.344 11.792,0.12 3.289,-3.222 3.342,-8.5 0.12,-11.79 C 8.689,-14.959 3.41,-15.013 0.12,-11.79 -3.169,-8.568 -3.222,-3.289 0,0"
             style="fill:#ba3902;fill-opacity:1;fill-rule:evenodd;stroke:none"
             id="path320"
             inkscape:connector-curvature="0" /></g><g
           id="g322"
           transform="translate(764.50236,505.99509)"><path
             d="m 0,0 c 10.961,0 19.847,-8.885 19.847,-19.847 l -39.693,0 C -19.846,-8.885 -10.96,0 0,0"
             style="fill:#ba3902;fill-opacity:1;fill-rule:evenodd;stroke:none"
             id="path324"
             inkscape:connector-curvature="0" /></g><g
           id="g326"
           transform="translate(707.62296,487.68749)"><path
             d="m 0,0 c 7.562,0 13.729,6.168 13.729,13.729 0,7.562 -6.167,13.729 -13.729,13.729 -7.562,0 -13.729,-6.167 -13.729,-13.729 C -13.729,6.168 -7.562,0 0,0"
             style="fill:#423e35;fill-opacity:1;fill-rule:evenodd;stroke:none"
             id="path328"
             inkscape:connector-curvature="0" /></g><g
           id="g330"
           transform="translate(707.62296,490.24729)"><path
             d="m 0,0 c 6.151,0 11.169,5.017 11.169,11.169 0,6.152 -5.018,11.17 -11.169,11.17 -6.152,0 -11.169,-5.018 -11.169,-11.17 C -11.169,5.017 -6.152,0 0,0"
             style="fill:#facdb9;fill-opacity:1;fill-rule:evenodd;stroke:none"
             id="path332"
             inkscape:connector-curvature="0" /></g><g
           id="g334"
           transform="translate(715.37496,518.52169)"><path
             d="M 0,0 C 3.503,0 6.342,-2.838 6.342,-6.341 6.342,-7.516 6.022,-8.617 5.465,-9.56 3.314,-5.8 -0.396,-3.046 -4.784,-2.178 -3.621,-0.843 -1.909,0 0,0 m -15.505,0 c 1.91,0 3.622,-0.843 4.784,-2.178 -4.387,-0.868 -8.097,-3.622 -10.249,-7.382 -0.556,0.943 -0.876,2.044 -0.876,3.219 0,3.503 2.839,6.341 6.341,6.341"
             style="fill:#ba3902;fill-opacity:1;fill-rule:evenodd;stroke:none"
             id="path336"
             inkscape:connector-curvature="0" /></g><g
           id="g338"
           transform="translate(701.13186,487.64949)"><path
             d="m 0,0 c -0.39,-0.884 -1.274,-1.501 -2.303,-1.501 -1.388,0 -2.514,1.126 -2.514,2.516 0,0.701 0.287,1.337 0.751,1.792 C -2.878,1.664 -1.507,0.712 0,0"
             style="fill:#ba3902;fill-opacity:1;fill-rule:evenodd;stroke:none"
             id="path340"
             inkscape:connector-curvature="0" /></g><g
           id="g342"
           transform="translate(718.17976,490.45669)"><path
             d="m 0,0 c 0.464,-0.457 0.751,-1.091 0.751,-1.793 0,-1.389 -1.126,-2.515 -2.515,-2.515 -1.028,0 -1.911,0.617 -2.302,1.501 C -2.559,-2.095 -1.187,-1.143 0,0"
             style="fill:#ba3902;fill-opacity:1;fill-rule:evenodd;stroke:none"
             id="path344"
             inkscape:connector-curvature="0" /></g><g
           id="g346"
           transform="translate(707.62296,509.54929)"><path
             d="m 0,0 0,0 c 0.352,0 0.641,-0.288 0.641,-0.641 l 0,-6.852 c 0,-0.352 -0.289,-0.64 -0.641,-0.64 -0.353,0 -0.641,0.288 -0.641,0.64 l 0,6.852 C -0.641,-0.288 -0.353,0 0,0"
             style="fill:#ba3902;fill-opacity:1;fill-rule:evenodd;stroke:none"
             id="path348"
             inkscape:connector-curvature="0" /></g><g
           id="g350"
           transform="translate(702.50106,505.98679)"><path
             d="M 0,0 0,0 C 0.234,0.263 0.642,0.285 0.905,0.051 L 5.071,-3.666 C 5.334,-3.9 5.356,-4.307 5.122,-4.57 4.888,-4.834 4.48,-4.857 4.217,-4.622 L 0.051,-0.905 C -0.212,-0.67 -0.234,-0.263 0,0"
             style="fill:#ba3902;fill-opacity:1;fill-rule:evenodd;stroke:none"
             id="path352"
             inkscape:connector-curvature="0" /></g><g
           id="g354"
           transform="translate(707.62296,510.21179)"><path
             d="M 0,0 C 0.39,0 0.708,0.319 0.708,0.709 0.708,1.099 0.39,1.417 0,1.417 -0.39,1.417 -0.709,1.099 -0.709,0.709 -0.709,0.319 -0.39,0 0,0"
             style="fill:#ba3902;fill-opacity:1;fill-rule:evenodd;stroke:none"
             id="path356"
             inkscape:connector-curvature="0" /></g><g
           id="g358"
           transform="translate(718.20596,501.14079)"><path
             d="m 0,0 c 0,-0.391 -0.318,-0.708 -0.709,-0.708 -0.39,0 -0.708,0.317 -0.708,0.708 0,0.391 0.318,0.709 0.708,0.709 C -0.318,0.709 0,0.391 0,0"
             style="fill:#ba3902;fill-opacity:1;fill-rule:evenodd;stroke:none"
             id="path360"
             inkscape:connector-curvature="0" /></g><g
           id="g362"
           transform="translate(707.71826,490.55779)"><path
             d="M 0,0 C -0.391,0 -0.708,0.318 -0.708,0.709 -0.708,1.1 -0.391,1.417 0,1.417 0.391,1.417 0.709,1.1 0.709,0.709 0.709,0.318 0.391,0 0,0"
             style="fill:#ba3902;fill-opacity:1;fill-rule:evenodd;stroke:none"
             id="path364"
             inkscape:connector-curvature="0" /></g><g
           id="g366"
           transform="translate(697.13526,501.04559)"><path
             d="M 0,0 C 0,0.391 0.318,0.708 0.709,0.708 1.099,0.708 1.417,0.391 1.417,0 1.417,-0.391 1.099,-0.709 0.709,-0.709 0.318,-0.709 0,-0.391 0,0"
             style="fill:#ba3902;fill-opacity:1;fill-rule:evenodd;stroke:none"
             id="path368"
             inkscape:connector-curvature="0" /></g><g
           id="g370"
           transform="translate(707.62296,523.30699)"><path
             d="m 0,0 c 5.143,0 9.515,-2.402 11.115,-5.749 0.684,-0.428 1.281,-0.985 1.757,-1.634 C 12.085,-2.63 6.623,1.05 0,1.05 c -6.623,0 -12.086,-3.68 -12.871,-8.433 0.475,0.649 1.072,1.206 1.756,1.634 C -9.515,-2.402 -5.143,0 0,0"
             style="fill:#ba3902;fill-opacity:1;fill-rule:evenodd;stroke:none"
             id="path372"
             inkscape:connector-curvature="0" /></g><g
           id="g374"
           transform="translate(707.62296,499.75979)"><path
             d="M 0,0 C 0.912,0 1.657,0.745 1.657,1.657 1.657,2.569 0.912,3.313 0,3.313 -0.912,3.313 -1.657,2.569 -1.657,1.657 -1.657,0.745 -0.912,0 0,0"
             style="fill:#ba3902;fill-opacity:1;fill-rule:evenodd;stroke:none"
             id="path376"
             inkscape:connector-curvature="0" /></g><g
           id="g378"
           transform="translate(833.29336,517.70099)"><path
             d="m 0,0 21.296,0 -2.445,-31.553 -16.405,0 L 0,0 Z"
             style="fill:#e69d2a;fill-opacity:1;fill-rule:evenodd;stroke:none"
             id="path380"
             inkscape:connector-curvature="0" /></g><path
           d="m 832.44396,517.69959 22.994,0 0,2.317 -22.994,0 0,-2.317 z"
           style="fill:#21a58d;fill-opacity:1;fill-rule:evenodd;stroke:none"
           id="path382"
           inkscape:connector-curvature="0" /><g
           id="g384"
           transform="translate(833.38606,520.01679)"><path
             d="M 0,0 21.111,0 19.754,4.341 1.356,4.341 0,0 Z"
             style="fill:#e69d2a;fill-opacity:1;fill-rule:evenodd;stroke:none"
             id="path386"
             inkscape:connector-curvature="0" /></g><g
           id="g388"
           transform="translate(854.13216,511.79869)"><path
             d="m 0,0 -1.274,-16.438 -17.834,0 L -20.381,0 0,0 Z"
             style="fill:#21a58d;fill-opacity:1;fill-rule:evenodd;stroke:none"
             id="path390"
             inkscape:connector-curvature="0" /></g><g
           id="g392"
           transform="translate(843.94056,496.51479)"><path
             d="m 0,0 c 3.892,0 7.066,3.175 7.066,7.066 0,3.89 -3.174,7.064 -7.066,7.064 -3.89,0 -7.063,-3.174 -7.063,-7.064 C -7.063,3.175 -3.89,0 0,0"
             style="fill:#ffffff;fill-opacity:1;fill-rule:evenodd;stroke:none"
             id="path394"
             inkscape:connector-curvature="0" /></g><g
           id="g396"
           transform="translate(843.94056,500.34739)"><path
             d="M 0,0 C 1.781,0 3.233,1.452 3.233,3.233 3.233,5.013 1.781,6.465 0,6.465 -1.78,6.465 -3.232,5.013 -3.232,3.233 -3.232,1.452 -1.78,0 0,0"
             style="fill:#21a58d;fill-opacity:1;fill-rule:evenodd;stroke:none"
             id="path398"
             inkscape:connector-curvature="0" /></g><g
           id="g400"
           transform="translate(945.18456,437.39319)"><path
             d="M 0,0 C 30.97,0 56.227,20.348 56.227,45.295 56.227,70.242 30.97,90.589 0,90.589 -30.969,90.589 -56.226,70.242 -56.226,45.295 -56.226,20.348 -30.969,0 0,0"
             style="fill:#ba3902;fill-opacity:1;fill-rule:evenodd;stroke:none"
             id="path402"
             inkscape:connector-curvature="0" /></g><g
           id="g404"
           transform="translate(945.18576,473.32679)"><path
             d="m 0,0 c 4.691,0 8.518,3.827 8.518,8.519 0,4.692 -3.827,8.518 -8.518,8.518 -4.693,0 -8.519,-3.826 -8.519,-8.518 C -8.519,3.827 -4.693,0 0,0"
             style="fill:#423e35;fill-opacity:1;fill-rule:evenodd;stroke:none"
             id="path406"
             inkscape:connector-curvature="0" /></g><g
           id="g408"
           transform="translate(900.54386,407.00869)"><path
             d="m 0,0 89.282,0 c 5.007,0 9.103,-4.095 9.103,-9.101 0,-5.006 -4.096,-9.102 -9.103,-9.102 l -89.282,0 c -5.007,0 -9.102,4.096 -9.102,9.102 C -9.102,-4.095 -5.007,0 0,0"
             style="fill:#ba3902;fill-opacity:1;fill-rule:evenodd;stroke:none"
             id="path410"
             inkscape:connector-curvature="0" /></g><g
           id="g412"
           transform="translate(945.18576,321.31259)"><path
             d="m 0,0 -0.001,0 c -2.44,0 -4.436,1.996 -4.436,4.437 l 0,147.275 c 0,2.44 1.996,4.436 4.436,4.436 l 0.001,0 c 2.44,0 4.436,-1.996 4.436,-4.436 l 0,-147.275 C 4.436,1.996 2.44,0 0,0"
             style="fill:#423e35;fill-opacity:1;fill-rule:evenodd;stroke:none"
             id="path414"
             inkscape:connector-curvature="0" /></g><g
           id="g418"
           transform="translate(887.62126,321.03899)"><path
             d="m 0,0 c 1.827,9.639 7.996,18.204 17.026,24.64 10.438,7.441 24.777,12.042 40.537,12.042 15.762,0 30.101,-4.601 40.538,-12.042 7.673,-5.468 13.277,-12.471 15.911,-20.365 -2.509,-1.601 -5.28,-3.347 -7.733,-4.844 -1.653,6.94 -6.412,13.212 -13.247,18.083 C 84.019,23.939 71.484,27.912 57.563,27.912 43.644,27.912 31.109,23.939 22.096,17.514 14.683,12.23 9.713,5.3 8.497,-2.343 6.278,-1.719 3.281,-0.895 0,0"
             style="fill:#423e35;fill-opacity:1;fill-rule:nonzero;stroke:none"
             id="path420"
             inkscape:connector-curvature="0" /></g><path
           d="m 1074.773,332.77659 146.558,0 0,481.336 -146.558,0 0,-481.336 z"
           style="fill:#8b5e3c;fill-opacity:1;fill-rule:evenodd;stroke:none"
           id="path446"
           inkscape:connector-curvature="0" /><g
           id="g448"
           transform="translate(1239.076,323.90459)"><path
             d="m 0,0 0,-0.001 c 0,-4.88 -3.993,-8.871 -8.873,-8.871 l -164.302,0 c -4.881,0 -8.873,3.991 -8.873,8.871 l 0,0.001 c 0,4.88 3.992,8.872 8.873,8.872 l 164.302,0 C -3.993,8.872 0,4.88 0,0"
             style="fill:#c49a6c;fill-opacity:1;fill-rule:evenodd;stroke:none"
             id="path450"
             inkscape:connector-curvature="0" /></g><g
           id="g452"
           transform="translate(1065.9006,831.85769)"><path
             d="m 0,0 0,0 c 4.879,0 8.872,-3.992 8.872,-8.872 l 0,-499.081 c 0,-4.881 -3.993,-8.873 -8.872,-8.873 -4.88,0 -8.872,3.992 -8.872,8.873 l 0,499.081 C -8.872,-3.992 -4.88,0 0,0"
             style="fill:#c49a6c;fill-opacity:1;fill-rule:evenodd;stroke:none"
             id="path454"
             inkscape:connector-curvature="0" /></g><g
           id="g456"
           transform="translate(1230.2022,831.85769)"><path
             d="M 0,0 0.001,0 C 4.88,0 8.874,-3.992 8.874,-8.872 l 0,-499.081 c 0,-4.881 -3.994,-8.873 -8.873,-8.873 l -0.001,0 c -4.879,0 -8.871,3.992 -8.871,8.873 l 0,499.081 C -8.871,-3.992 -4.879,0 0,0"
             style="fill:#c49a6c;fill-opacity:1;fill-rule:evenodd;stroke:none"
             id="path458"
             inkscape:connector-curvature="0" /></g><g
           id="g460"
           transform="translate(1239.076,822.98519)"><path
             d="m 0,0 0,0 c 0,-4.88 -3.993,-8.872 -8.873,-8.872 l -164.302,0 c -4.881,0 -8.873,3.992 -8.873,8.872 0,4.881 3.992,8.872 8.873,8.872 l 164.302,0 C -3.993,8.872 0,4.881 0,0"
             style="fill:#c49a6c;fill-opacity:1;fill-rule:evenodd;stroke:none"
             id="path462"
             inkscape:connector-curvature="0" /></g><g
           id="g464"
           transform="translate(1239.076,718.73299)"><path
             d="m 0,0 0,-0.001 c 0,-2.44 -1.996,-4.436 -4.437,-4.436 l -173.175,0 c -2.44,0 -4.436,1.996 -4.436,4.436 l 0,0.001 c 0,2.44 1.996,4.436 4.436,4.436 l 173.175,0 C -1.996,4.436 0,2.44 0,0"
             style="fill:#c49a6c;fill-opacity:1;fill-rule:evenodd;stroke:none"
             id="path466"
             inkscape:connector-curvature="0" /></g><g
           id="g468"
           transform="translate(1239.076,618.91629)"><path
             d="m 0,0 0,0 c 0,-2.44 -1.996,-4.436 -4.437,-4.436 l -173.175,0 c -2.44,0 -4.436,1.996 -4.436,4.436 0,2.441 1.996,4.437 4.436,4.437 l 173.175,0 C -1.996,4.437 0,2.441 0,0"
             style="fill:#c49a6c;fill-opacity:1;fill-rule:evenodd;stroke:none"
             id="path470"
             inkscape:connector-curvature="0" /></g><g
           id="g472"
           transform="translate(1239.076,519.09979)"><path
             d="m 0,0 0,0 c 0,-2.44 -1.996,-4.436 -4.437,-4.436 l -173.175,0 c -2.44,0 -4.436,1.996 -4.436,4.436 0,2.441 1.996,4.437 4.436,4.437 l 173.175,0 C -1.996,4.437 0,2.441 0,0"
             style="fill:#c49a6c;fill-opacity:1;fill-rule:evenodd;stroke:none"
             id="path474"
             inkscape:connector-curvature="0" /></g><g
           id="g476"
           transform="translate(1239.076,419.28429)"><path
             d="m 0,0 0,0 c 0,-2.441 -1.996,-4.437 -4.437,-4.437 l -173.175,0 c -2.44,0 -4.436,1.996 -4.436,4.437 0,2.44 1.996,4.436 4.436,4.436 l 173.175,0 C -1.996,4.436 0,2.44 0,0"
             style="fill:#c49a6c;fill-opacity:1;fill-rule:evenodd;stroke:none"
             id="path478"
             inkscape:connector-curvature="0" /></g><path
           d="m 1115.904,483.90159 34.259,0 0,-60.181 -34.259,0 0,60.181 z"
           style="fill:#ba3902;fill-opacity:1;fill-rule:evenodd;stroke:none"
           id="path480"
           inkscape:connector-curvature="0" /><path
           d="m 1111.323,483.90159 4.581,0 0,-60.181 -4.581,0 0,60.181 z"
           style="fill:#e05e26;fill-opacity:1;fill-rule:evenodd;stroke:none"
           id="path482"
           inkscape:connector-curvature="0" /><path
           d="m 1120.496,469.70459 25.073,0 0,-4.248 -25.073,0 0,4.248 z"
           style="fill:#e69d2a;fill-opacity:1;fill-rule:evenodd;stroke:none"
           id="path484"
           inkscape:connector-curvature="0" /><path
           d="m 1125.924,462.50559 14.218,0 0,-1.906 -14.218,0 0,1.906 z"
           style="fill:#e69d2a;fill-opacity:1;fill-rule:evenodd;stroke:none"
           id="path486"
           inkscape:connector-curvature="0" /><path
           d="m 1074.773,423.71959 14.564,0 0,64.485 -14.564,0 0,-64.485 z"
           style="fill:#facdb9;fill-opacity:1;fill-rule:evenodd;stroke:none"
           id="path488"
           inkscape:connector-curvature="0" /><path
           d="m 1089.337,423.71959 14.565,0 0,57.039 -14.565,0 0,-57.039 z"
           style="fill:#423e35;fill-opacity:1;fill-rule:evenodd;stroke:none"
           id="path490"
           inkscape:connector-curvature="0" /><path
           d="m 1103.903,423.71959 7.42,0 0,39.342 -7.42,0 0,-39.342 z"
           style="fill:#54a2ac;fill-opacity:1;fill-rule:evenodd;stroke:none"
           id="path492"
           inkscape:connector-curvature="0" /><g
           id="g494"
           transform="translate(1183.8547,544.33499)"><path
             d="m 0,0 10.413,0 c 0.321,0 0.584,0.263 0.584,0.584 l 0,7.357 c 0,0.321 -0.263,0.583 -0.584,0.583 L 0,8.524 c -0.321,0 -0.583,-0.262 -0.583,-0.583 l 0,-7.357 C -0.583,0.263 -0.321,0 0,0"
             style="fill:#c6232f;fill-opacity:1;fill-rule:evenodd;stroke:none"
             id="path496"
             inkscape:connector-curvature="0" /></g><g
           id="g498"
           transform="translate(1184.5196,547.52519)"><path
             d="m 0,0 9.083,0 c 0.168,0 0.303,0.136 0.303,0.302 l 0,3.816 c 0,0.167 -0.135,0.303 -0.303,0.303 L 0,4.421 c -0.167,0 -0.303,-0.136 -0.303,-0.303 l 0,-3.816 C -0.303,0.136 -0.167,0 0,0"
             style="fill:#52a9b5;fill-opacity:1;fill-rule:evenodd;stroke:none"
             id="path500"
             inkscape:connector-curvature="0" /></g><g
           id="g502"
           transform="translate(1171.9562,542.75289)"><path
             d="m 0,0 34.21,0 c 0.758,0 1.377,-0.62 1.377,-1.377 l 0,-17.356 c 0,-0.758 -0.619,-1.378 -1.377,-1.378 l -34.21,0 c -0.758,0 -1.378,0.62 -1.378,1.378 l 0,17.356 C -1.378,-0.62 -0.758,0 0,0"
             style="fill:#e69d2a;fill-opacity:1;fill-rule:evenodd;stroke:none"
             id="path504"
             inkscape:connector-curvature="0" /></g><g
           id="g506"
           transform="translate(1172.3963,541.85839)"><path
             d="m 0,0 33.33,0 c 0.469,0 0.854,-0.384 0.854,-0.855 l 0,-16.613 c 0,-0.47 -0.385,-0.854 -0.854,-0.854 l -33.33,0 c -0.47,0 -0.854,0.384 -0.854,0.854 l 0,16.613 C -0.854,-0.384 -0.47,0 0,0"
             style="fill:#c6232f;fill-opacity:1;fill-rule:evenodd;stroke:none"
             id="path508"
             inkscape:connector-curvature="0" /></g><g
           id="g510"
           transform="translate(1178.3105,537.74279)"><path
             d="M 0,0 C 0.879,0 1.595,0.717 1.595,1.595 1.595,2.474 0.879,3.19 0,3.19 -0.878,3.19 -1.595,2.474 -1.595,1.595 -1.595,0.717 -0.878,0 0,0"
             style="fill:#c6232f;fill-opacity:1;fill-rule:evenodd;stroke:none"
             id="path512"
             inkscape:connector-curvature="0" /></g><g
           id="g514"
           transform="translate(1184.5553,549.02149)"><path
             d="M 0,0 8.906,2.592 C 8.97,2.543 9.012,2.468 9.012,2.385 l 0,-0.663 L 0,-0.9 0,0 Z"
             style="fill:#aceef7;fill-opacity:1;fill-rule:evenodd;stroke:none"
             id="path516"
             inkscape:connector-curvature="0" /></g><g
           id="g518"
           transform="translate(1178.4985,540.70109)"><path
             d="m 0,0 -0.188,-1.363 -0.807,1.114 c 0.227,0.164 0.506,0.262 0.807,0.262 C -0.124,0.013 -0.062,0.008 0,0"
             style="fill:#e69d2a;fill-opacity:1;fill-rule:evenodd;stroke:none"
             id="path520"
             inkscape:connector-curvature="0" /></g><g
           id="g522"
           transform="translate(1179.6736,539.14989)"><path
             d="m 0,0 -1.363,0.188 1.114,0.806 C -0.084,0.767 0.013,0.489 0.013,0.188 0.013,0.124 0.008,0.061 0,0"
             style="fill:#e69d2a;fill-opacity:1;fill-rule:evenodd;stroke:none"
             id="path524"
             inkscape:connector-curvature="0" /></g><g
           id="g526"
           transform="translate(1178.1226,537.97469)"><path
             d="M 0,0 0.188,1.363 0.994,0.249 C 0.768,0.083 0.489,-0.013 0.188,-0.013 0.124,-0.013 0.062,-0.008 0,0"
             style="fill:#e69d2a;fill-opacity:1;fill-rule:evenodd;stroke:none"
             id="path528"
             inkscape:connector-curvature="0" /></g><g
           id="g530"
           transform="translate(1176.9473,539.52579)"><path
             d="M 0,0 1.363,-0.188 0.249,-0.994 c -0.164,0.226 -0.261,0.504 -0.261,0.806 0,0.063 0.004,0.126 0.012,0.188"
             style="fill:#e69d2a;fill-opacity:1;fill-rule:evenodd;stroke:none"
             id="path532"
             inkscape:connector-curvature="0" /></g><g
           id="g534"
           transform="translate(1182.3833,522.64209)"><path
             d="m 0,0 c -0.619,0 -1.124,0.483 -1.124,1.074 l 0,17.899 c 0,0.429 0.064,0.951 0.259,1.315 l 1.754,3.282 c 0.22,0.411 0.563,0.542 1.048,0.542 l 9.482,0 c 0.484,0 0.828,-0.131 1.048,-0.542 l 1.753,-3.282 c 0.196,-0.364 0.26,-0.886 0.26,-1.315 l 0,-17.899 C 14.48,0.484 13.974,0 13.356,0 L 0,0 Z"
             style="fill:#e69d2a;fill-opacity:1;fill-rule:evenodd;stroke:none"
             id="path536"
             inkscape:connector-curvature="0" /></g><g
           id="g538"
           transform="translate(1182.6331,542.75289)"><path
             d="m 0,0 1.362,2.668 c 0.193,0.377 0.494,0.496 0.917,0.496 l 8.298,0 c 0.423,0 0.724,-0.119 0.917,-0.496 L 12.856,0 0,0 Z"
             style="fill:#c6232f;fill-opacity:1;fill-rule:evenodd;stroke:none"
             id="path540"
             inkscape:connector-curvature="0" /></g><g
           id="g542"
           transform="translate(1179.1098,536.92669)"><path
             d="M 0,0 C 0.763,-0.442 1.023,-1.418 0.582,-2.18 0.14,-2.943 -0.836,-3.202 -1.599,-2.761 -2.361,-2.32 -2.622,-1.343 -2.179,-0.582 -1.738,0.181 -0.763,0.441 0,0"
             style="fill:#c6232f;fill-opacity:1;fill-rule:evenodd;stroke:none"
             id="path544"
             inkscape:connector-curvature="0" /></g><g
           id="g546"
           transform="translate(1179.1562,536.63169)"><path
             d="M 0,0 -0.846,-1.086 -0.985,0.283 C -0.707,0.312 -0.416,0.256 -0.156,0.105 -0.101,0.073 -0.049,0.038 0,0"
             style="fill:#e69d2a;fill-opacity:1;fill-rule:evenodd;stroke:none"
             id="path548"
             inkscape:connector-curvature="0" /></g><g
           id="g550"
           transform="translate(1179.3953,534.69999)"><path
             d="M 0,0 -1.085,0.846 0.284,0.985 C 0.313,0.707 0.257,0.418 0.106,0.156 0.074,0.101 0.039,0.049 0,0"
             style="fill:#e69d2a;fill-opacity:1;fill-rule:evenodd;stroke:none"
             id="path552"
             inkscape:connector-curvature="0" /></g><g
           id="g554"
           transform="translate(1177.4647,534.46089)"><path
             d="M 0,0 0.846,1.085 0.985,-0.283 C 0.707,-0.313 0.416,-0.257 0.156,-0.106 0.101,-0.074 0.049,-0.038 0,0"
             style="fill:#e69d2a;fill-opacity:1;fill-rule:evenodd;stroke:none"
             id="path556"
             inkscape:connector-curvature="0" /></g><g
           id="g558"
           transform="translate(1177.2256,536.39269)"><path
             d="m 0,0 1.085,-0.847 -1.369,-0.138 c -0.029,0.277 0.027,0.567 0.178,0.828 C -0.074,-0.102 -0.038,-0.05 0,0"
             style="fill:#e69d2a;fill-opacity:1;fill-rule:evenodd;stroke:none"
             id="path560"
             inkscape:connector-curvature="0" /></g><path
           d="m 1173.575,542.75259 3.238,0 0,0.671 -3.238,0 0,-0.671 z"
           style="fill:#c6232f;fill-opacity:1;fill-rule:evenodd;stroke:none"
           id="path562"
           inkscape:connector-curvature="0" /><path
           d="m 1173.257,543.42359 3.873,0 0,1.984 -3.873,0 0,-1.984 z"
           style="fill:#e69d2a;fill-opacity:1;fill-rule:evenodd;stroke:none"
           id="path564"
           inkscape:connector-curvature="0" /><path
           d="m 1201.309,542.75259 3.238,0 0,0.671 -3.238,0 0,-0.671 z"
           style="fill:#c6232f;fill-opacity:1;fill-rule:evenodd;stroke:none"
           id="path566"
           inkscape:connector-curvature="0" /><path
           d="m 1200.992,543.42359 3.873,0 0,1.984 -3.873,0 0,-1.984 z"
           style="fill:#e69d2a;fill-opacity:1;fill-rule:evenodd;stroke:none"
           id="path568"
           inkscape:connector-curvature="0" /><g
           id="g570"
           transform="translate(1198.294,538.88349)"><path
             d="M 0,0 6.965,0 C 7.029,0 7.08,0.052 7.08,0.115 l 0,1.452 c 0,0.064 -0.051,0.115 -0.115,0.115 L 0,1.682 c -0.063,0 -0.114,-0.051 -0.114,-0.115 l 0,-1.452 C -0.114,0.052 -0.063,0 0,0"
             style="fill:#e69d2a;fill-opacity:1;fill-rule:evenodd;stroke:none"
             id="path572"
             inkscape:connector-curvature="0" /></g><g
           id="g574"
           transform="translate(1198.8448,539.21769)"><path
             d="m 0,0 5.863,0 c 0.019,0 0.035,0.015 0.035,0.034 l 0,0.438 c 0,0.019 -0.016,0.035 -0.035,0.035 L 0,0.507 c -0.019,0 -0.035,-0.016 -0.035,-0.035 l 0,-0.438 C -0.035,0.015 -0.019,0 0,0"
             style="fill:#c6232f;fill-opacity:1;fill-rule:evenodd;stroke:none"
             id="path576"
             inkscape:connector-curvature="0" /></g><g
           id="g578"
           transform="translate(1189.0611,524.17419)"><path
             d="m 0,0 c 3.422,0 6.214,2.792 6.214,6.214 0,3.422 -2.792,6.214 -6.214,6.214 -3.422,0 -6.214,-2.792 -6.214,-6.214 C -6.214,2.792 -3.422,0 0,0"
             style="fill:#52a9b5;fill-opacity:1;fill-rule:evenodd;stroke:none"
             id="path580"
             inkscape:connector-curvature="0" /></g><g
           id="g582"
           transform="translate(1189.0611,525.52069)"><path
             d="M 0,0 C 2.681,0 4.867,2.186 4.867,4.867 4.867,7.548 2.681,9.735 0,9.735 -2.681,9.735 -4.867,7.548 -4.867,4.867 -4.867,2.186 -2.681,0 0,0"
             style="fill:#52a9b5;fill-opacity:1;fill-rule:evenodd;stroke:none"
             id="path584"
             inkscape:connector-curvature="0" /></g><g
           id="g586"
           transform="translate(1189.0611,528.64549)"><path
             d="M 0,0 C 0.96,0 1.744,0.783 1.744,1.743 1.744,2.703 0.96,3.486 0,3.486 -0.96,3.486 -1.744,2.703 -1.744,1.743 -1.744,0.783 -0.96,0 0,0"
             style="fill:#aceef7;fill-opacity:1;fill-rule:evenodd;stroke:none"
             id="path588"
             inkscape:connector-curvature="0" /></g><g
           id="g590"
           transform="translate(1186.5525,533.56159)"><path
             d="M 0,0 C 0.384,0.316 0.994,0.626 1.599,0.759 2.205,0.893 2.412,0.052 1.794,-0.084 1.32,-0.189 0.886,-0.385 0.536,-0.679 0.018,-1.115 -0.517,-0.425 0,0"
             style="fill:#aceef7;fill-opacity:1;fill-rule:evenodd;stroke:none"
             id="path592"
             inkscape:connector-curvature="0" /></g><g
           id="g594"
           transform="translate(1185.2595,529.02969)"><path
             d="M 0,0 C -0.39,1.101 -0.278,2.266 0.219,3.228 0.54,3.808 1.283,3.381 0.983,2.83 0.588,2.071 0.498,1.155 0.816,0.291 1.057,-0.365 0.215,-0.607 0,0"
             style="fill:#aceef7;fill-opacity:1;fill-rule:evenodd;stroke:none"
             id="path596"
             inkscape:connector-curvature="0" /></g><g
           id="g598"
           transform="translate(1147.5192,723.16869)"><path
             d="m 0,0 5.447,0 -4.946,4.061 4.991,4.098 0,4.471 -4.991,4.098 4.991,4.098 0,4.471 -4.991,4.098 4.991,4.098 0,4.472 -4.991,4.098 4.946,4.06 -5.446,0 -1.112,-0.914 0,-6.293 3.88,-3.187 -3.88,-3.187 0,-6.293 3.88,-3.187 -3.88,-3.187 0,-6.295 3.88,-3.186 -3.88,-3.187 0,-6.293 L 0,0 Z m 9.349,28.463 0,-4.471 -1.134,-0.931 1.134,-0.931 0,-4.471 -3.857,3.167 0,4.471 3.857,3.166 z m 0,12.668 -3.857,-3.166 0,-4.472 0,10e-4 3.857,-3.168 0,4.473 -1.133,0.93 1.133,0.93 0,4.472 z m 0,4.992 -3.811,0 3.811,-3.13 0,3.13 z M 9.349,3.129 5.538,0 l 3.811,0 0,3.129 z m -3.857,5.03 0,0 3.857,-3.167 0,4.47 -1.134,0.932 1.134,0.931 0,4.471 -3.857,-3.166 0,-4.471 z m 7.715,10.804 0,-4.471 -3.858,-3.167 0,4.471 1.135,0.932 -1.135,0.931 0,4.471 3.858,-3.167 z m 0,12.668 0,-4.471 -3.858,-3.168 0,4.471 1.135,0.932 -1.135,0.931 0,4.473 3.858,-3.168 z m 0,12.667 -2.223,1.825 -1.635,0 0,-3.13 1.135,-0.931 -1.135,-0.931 0,-4.472 3.858,3.168 0,4.471 z M 9.349,4.992 10.484,4.061 9.349,3.129 9.349,0 l 1.635,0 2.223,1.825 0,4.471 -3.858,3.166 0,-4.47 z m 7.715,17.138 0,-4.471 -1.134,-0.931 1.134,-0.932 0,-4.471 -3.857,3.167 0,4.471 3.857,3.167 z m 0,12.667 0,-4.471 -1.134,-0.931 1.134,-0.93 0,-4.472 -3.857,3.167 0,4.471 3.857,3.166 z m 0,6.334 -1.134,0.931 1.134,0.931 0,3.13 -1.634,0 -2.223,-1.825 0,-4.471 3.857,-3.167 0,4.471 z M 13.207,1.825 15.429,0 l 1.635,0 0,3.129 -1.134,0.932 1.134,0.931 0,4.47 -3.857,-3.166 0,-4.471 z m 7.714,23.472 0,-4.471 -3.857,-3.167 0,4.471 1.134,0.932 -1.134,0.931 0,4.472 3.857,-3.168 z m -3.857,17.696 3.812,3.13 -3.812,0 0,-3.13 z m 3.857,-5.029 -3.857,3.167 0,-4.471 1.134,-0.931 -1.134,-0.932 0,-4.471 3.857,3.168 0,4.47 z m -3.857,-32.972 3.857,3.167 0,4.471 -3.857,3.166 0,-4.471 1.134,-0.931 -1.134,-0.932 0,-4.47 z m 0,-4.992 3.81,0 -3.81,3.129 0,-3.129 z m 7.714,28.463 0,-4.471 -1.133,-0.93 1.133,-0.932 0,-4.471 -3.857,3.167 0,4.471 3.857,3.166 z m 0,12.668 -3.857,-3.167 0,-4.47 3.857,-3.168 0,4.471 -1.134,0.932 1.134,0.93 0,4.472 z m 0,4.992 -3.812,0 3.812,-3.13 0,3.13 z m 0,-42.994 L 20.967,0 l 3.811,0 0,3.129 z m -3.857,5.03 3.857,-3.167 0,4.47 -1.134,0.932 1.134,0.931 0,4.471 -3.857,-3.166 0,-4.471 z m 7.715,10.805 0,-4.472 -3.858,-3.167 0,4.471 1.134,0.932 -1.134,0.931 0,4.471 3.858,-3.166 z m 0,12.667 0,-4.471 -3.858,-3.168 0,4.471 1.134,0.932 -1.134,0.931 0,4.471 3.858,-3.166 z m 0,12.667 -2.223,1.825 -1.635,0 0,-3.13 1.134,-0.931 -1.134,-0.931 0,-4.472 3.858,3.168 0,4.471 z M 24.778,4.992 25.912,4.061 24.778,3.129 l 0,-3.129 1.635,0 2.223,1.825 0,4.471 -3.858,3.166 0,-4.47 z m 7.714,17.138 0,-4.471 -1.133,-0.931 1.133,-0.932 0,-4.471 -3.856,3.167 0,4.472 3.856,3.166 z m 0,12.667 0,-4.471 -1.133,-0.931 1.133,-0.932 0,-4.47 -3.856,3.167 0,4.471 3.856,3.166 z m 0,6.334 -1.133,0.931 1.133,0.931 0,3.13 -1.634,0 -2.222,-1.825 0,-4.471 3.856,-3.167 0,4.471 z m -3.856,-39.306 0,0 2.222,-1.825 1.634,0 0,3.129 -1.133,0.932 1.133,0.931 0,4.47 -3.856,-3.166 0,-4.471 z m 7.714,23.472 0,-4.471 -3.858,-3.167 0,4.471 1.135,0.932 -1.135,0.931 0,4.47 3.858,-3.166 z m -3.858,17.696 3.813,3.13 -3.813,0 0,-3.13 z m 3.858,-5.028 -3.858,3.166 0,-4.471 1.135,-0.931 -1.135,-0.932 0,-4.471 3.858,3.167 0,4.472 z m -3.858,-32.973 3.858,3.167 0,4.471 -3.858,3.166 0,-4.471 1.135,-0.931 -1.135,-0.932 0,-4.47 z m 0,-4.992 3.811,0 -3.811,3.129 0,-3.129 z m 7.715,28.463 0,-4.47 -1.134,-0.931 1.134,-0.932 0,-4.471 -3.857,3.167 0,4.471 3.857,3.166 z m 0,12.668 -3.857,-3.167 0,0.001 0,-4.472 0,10e-4 3.857,-3.168 0,4.471 -1.134,0.932 1.134,0.93 0,4.472 z m 0,4.992 -3.812,0 3.812,-3.13 0,3.13 z m 0,-42.994 L 36.396,0 l 3.811,0 0,3.129 z m -3.857,5.03 0,0 3.857,-3.167 0,4.47 -1.134,0.932 1.134,0.931 0,4.471 -3.857,-3.166 0,-4.471 z m 7.714,10.805 0,-4.472 -3.857,-3.167 0,4.471 1.134,0.932 -1.134,0.931 0,4.471 3.857,-3.166 z m 0,12.667 0,-4.471 -3.857,-3.167 0,4.47 1.134,0.932 -1.134,0.931 0,4.471 3.857,-3.166 z m 0,12.667 -2.222,1.825 -1.635,0 0,-3.13 1.134,-0.931 -1.134,-0.931 0,-4.472 3.857,3.168 0,4.471 z M 40.207,4.992 41.341,4.061 40.207,3.129 l 0,-3.129 1.635,0 2.222,1.825 0,4.471 -3.857,3.166 0,-4.47 z m 7.714,17.138 0,-4.471 -1.133,-0.931 1.133,-0.932 0,-4.471 -3.856,3.167 -10e-4,0 0,4.472 3.857,3.166 z m 0,12.667 0,-4.471 -1.133,-0.931 1.133,-0.932 0,-4.47 -3.856,3.167 -10e-4,0 0,4.471 10e-4,0 3.856,3.166 z m 0,6.334 -1.133,0.931 1.133,0.931 0,3.13 -1.634,0 -2.222,-1.825 -10e-4,0 0,-4.471 3.857,-3.168 0,4.472 z m -3.857,-39.306 10e-4,0 2.222,-1.825 1.634,0 0,3.129 -1.133,0.932 1.133,0.931 0,4.47 -3.857,-3.166 0,-4.471 z m 7.715,23.472 0,-4.471 -3.858,-3.167 0,4.471 1.135,0.932 -1.135,0.931 0,4.47 3.858,-3.166 z m -3.858,17.696 3.812,3.13 -3.812,0 0,-3.13 z m 3.858,-5.028 -3.858,3.166 0,-4.472 1.135,-0.93 -1.135,-0.932 0,-4.471 3.858,3.167 0,4.472 z m -3.858,-32.973 3.858,3.167 0,4.471 -3.858,3.166 0,-4.471 1.135,-0.931 -1.135,-0.932 0,-4.47 z m 0,-4.992 3.811,0 -3.811,3.129 0,-3.129 z m 7.715,28.463 0,-4.47 -1.135,-0.931 1.135,-0.932 0,-4.471 -3.857,3.167 0,4.471 3.857,3.166 z m 0,12.668 -3.857,-3.167 0,0.001 0,-4.472 3.857,-3.167 0,4.471 -1.135,0.932 1.135,0.93 0,4.472 z m 0,4.992 -3.812,0 3.812,-3.13 0,3.13 z m 0,-42.994 L 51.824,0 l 3.812,0 0,3.129 z m -3.857,5.03 0,0 3.857,-3.167 0,4.47 -1.135,0.932 1.135,0.931 0,4.471 -3.857,-3.166 0,-4.471 z m 7.714,10.805 0,-4.472 -3.857,-3.167 0,4.471 1.134,0.932 -1.134,0.931 0,4.471 3.857,-3.166 z m 0,12.667 0,-4.471 -3.857,-3.167 0,4.47 1.134,0.932 -1.134,0.931 0,4.471 3.857,-3.166 z m 0,12.667 -2.224,1.825 -1.633,0 0,-3.13 1.134,-0.931 -1.134,-0.931 0,-4.472 3.857,3.168 0,4.471 z M 55.636,4.992 56.77,4.061 55.636,3.129 l 0,-3.129 1.635,0 2.222,1.825 0,4.471 -3.857,3.166 0,-4.47 z m 7.714,17.138 0,-4.471 -1.133,-0.931 1.133,-0.932 0,-4.471 -3.856,3.167 -10e-4,0 0,4.472 3.857,3.166 z m 0,12.667 0,-4.471 -1.133,-0.931 1.133,-0.932 0,-4.471 -3.857,3.168 0,4.471 10e-4,0 3.856,3.166 z m 0,6.334 -1.133,0.931 1.133,0.931 0,3.13 -1.634,0 -2.222,-1.825 -10e-4,0 0,-4.471 3.857,-3.168 0,4.472 z m -3.857,-39.306 10e-4,0 2.222,-1.825 1.634,0 0,3.129 -1.133,0.932 1.133,0.931 0,4.47 -3.857,-3.166 0,-4.471 z m 7.715,23.472 0,-4.471 -3.858,-3.167 0,4.471 1.135,0.931 -1.135,0.931 0,4.471 3.858,-3.166 z m -3.858,17.696 3.811,3.13 -3.811,0 0,-3.13 z m 3.858,-5.028 -3.858,3.166 0,-4.472 1.135,-0.93 -1.135,-0.932 0,-4.471 3.858,3.167 0,4.472 z M 63.35,4.992 l 3.858,3.167 0,4.471 -3.858,3.166 0,-4.471 1.135,-0.931 -1.135,-0.932 0,-4.47 z M 63.35,0 67.161,0 63.35,3.129 63.35,0 Z m 3.858,8.159 0,0 L 72.199,4.061 67.253,0 72.7,0 l 1.112,0.914 0,6.293 -3.882,3.187 3.882,3.186 0,6.295 -3.882,3.187 3.882,3.185 0,6.295 -3.882,3.187 3.882,3.187 0,6.293 -1.114,0.914 -5.445,0 4.946,-4.061 -4.991,-4.098 0,0.001 0,-4.472 4.991,-4.098 -4.991,-4.098 0,-4.471 4.991,-4.098 -4.991,-4.098 0,-4.471 z"
             style="fill:#e69d2a;fill-opacity:1;fill-rule:evenodd;stroke:none"
             id="path600"
             inkscape:connector-curvature="0" /></g><path
           d="m 1146.408,765.92459 74.923,0 0,3.366 -74.923,0 0,-3.366 z"
           style="fill:#e69d2a;fill-opacity:1;fill-rule:evenodd;stroke:none"
           id="path602"
           inkscape:connector-curvature="0" /><path
           d="m 1146.408,723.16859 3.366,0 0,46.123 -3.366,0 0,-46.123 z"
           style="fill:#e69d2a;fill-opacity:1;fill-rule:evenodd;stroke:none"
           id="path604"
           inkscape:connector-curvature="0" /><path
           d="m 1217.963,723.16859 3.368,0 0,46.123 -3.368,0 0,-46.123 z"
           style="fill:#e69d2a;fill-opacity:1;fill-rule:evenodd;stroke:none"
           id="path606"
           inkscape:connector-curvature="0" /><path
           d="m 1146.408,723.16859 74.923,0 0,3.366 -74.923,0 0,-3.366 z"
           style="fill:#e69d2a;fill-opacity:1;fill-rule:evenodd;stroke:none"
           id="path608"
           inkscape:connector-curvature="0" /><path
           d="m 1155.708,656.21359 62.6,0 0,-32.86 -62.6,0 0,32.86 z"
           style="fill:#ba3902;fill-opacity:1;fill-rule:evenodd;stroke:none"
           id="path610"
           inkscape:connector-curvature="0" /><path
           d="m 1152.684,656.21359 68.647,0 0,7.359 -68.647,0 0,-7.359 z"
           style="fill:#facdb9;fill-opacity:1;fill-rule:evenodd;stroke:none"
           id="path612"
           inkscape:connector-curvature="0" /><path
           d="m 1169.221,682.24559 35.572,0 0,-18.673 -35.572,0 0,18.673 z"
           style="fill:#40919c;fill-opacity:1;fill-rule:evenodd;stroke:none"
           id="path614"
           inkscape:connector-curvature="0" /><path
           d="m 1167.503,682.24559 39.008,0 0,4.182 -39.008,0 0,-4.182 z"
           style="fill:#52a9b5;fill-opacity:1;fill-rule:evenodd;stroke:none"
           id="path616"
           inkscape:connector-curvature="0" /><g
           id="g618"
           transform="translate(1129.955,761.08499)"><path
             d="m 0,0 c 1.505,-8.265 -1.588,-16.444 -7.598,-21.704 l -20.33,-5.214 c -7.8,1.716 -14.448,7.397 -17.108,15.366 L 0,0 Z"
             style="fill:#ffffff;fill-opacity:1;fill-rule:evenodd;stroke:none"
             id="path620"
             inkscape:connector-curvature="0" /></g><g
           id="g622"
           transform="translate(1130.8733,742.30399)"><path
             d="m 0,0 c -0.597,-8.38 -5.625,-15.534 -12.754,-19.135 l -20.987,0 C -40.87,-15.534 -45.898,-8.38 -46.494,0 L 0,0 Z"
             style="fill:#423e35;fill-opacity:1;fill-rule:evenodd;stroke:none"
             id="path624"
             inkscape:connector-curvature="0" /></g><path
           d="m 1080.154,551.16459 67.348,0 0,-27.628 -67.348,0 0,27.628 z"
           style="fill:#ba3902;fill-opacity:1;fill-rule:evenodd;stroke:none"
           id="path626"
           inkscape:connector-curvature="0" /><path
           d="m 1076.901,551.16459 73.855,0 0,6.188 -73.855,0 0,-6.188 z"
           style="fill:#e05e26;fill-opacity:1;fill-rule:evenodd;stroke:none"
           id="path628"
           inkscape:connector-curvature="0" /><path
           d="m 1080.154,584.98159 67.348,0 0,-27.628 -67.348,0 0,27.628 z"
           style="fill:#423e35;fill-opacity:1;fill-rule:evenodd;stroke:none"
           id="path630"
           inkscape:connector-curvature="0" /><path
           d="m 1076.901,584.98159 73.855,0 0,6.187 -73.855,0 0,-6.187 z"
           style="fill:#666259;fill-opacity:1;fill-rule:evenodd;stroke:none"
           id="path632"
           inkscape:connector-curvature="0" /><path
           d="m 1074.772,373.81259 75.454,0 0,-41.035 -75.454,0 0,41.035 z"
           style="fill:#ba3902;fill-opacity:1;fill-rule:evenodd;stroke:none"
           id="path646"
           inkscape:connector-curvature="0" /><g
           id="g648"
           transform="translate(1095.4798,361.22149)"><path
             d="m 0,0 0,0 c 0,1.502 1.229,2.732 2.731,2.732 l 28.578,0 c 1.502,0 2.731,-1.23 2.731,-2.732 0,-1.502 -1.229,-2.731 -2.731,-2.731 l -28.578,0 C 1.229,-2.731 0,-1.502 0,0"
             style="fill:#a7f2ce;fill-opacity:1;fill-rule:evenodd;stroke:none"
             id="path650"
             inkscape:connector-curvature="0" /></g><path
           d="m 1074.772,414.84759 75.454,0 0,-41.035 -75.454,0 0,41.035 z"
           style="fill:#e69d2a;fill-opacity:1;fill-rule:evenodd;stroke:none"
           id="path652"
           inkscape:connector-curvature="0" /><g
           id="g654"
           transform="translate(1095.4798,402.25789)"><path
             d="m 0,0 0,0 c 0,1.502 1.229,2.731 2.731,2.731 l 28.578,0 c 1.502,0 2.731,-1.229 2.731,-2.731 0,-1.502 -1.229,-2.731 -2.731,-2.731 l -28.578,0 C 1.229,-2.731 0,-1.502 0,0"
             style="fill:#a7f2ce;fill-opacity:1;fill-rule:evenodd;stroke:none"
             id="path656"
             inkscape:connector-curvature="0" /></g><path
           d="m 1074.773,623.35159 13.871,0 0,61.41 -13.871,0 0,-61.41 z"
           style="fill:#e69d2a;fill-opacity:1;fill-rule:evenodd;stroke:none"
           id="path658"
           inkscape:connector-curvature="0" /><path
           d="m 1088.644,623.35159 6.332,0 0,43.726 -6.332,0 0,-43.726 z"
           style="fill:#ffffff;fill-opacity:1;fill-rule:evenodd;stroke:none"
           id="path660"
           inkscape:connector-curvature="0" /><path
           d="m 1094.974,623.35359 13.871,0 0,54.32 -13.871,0 0,-54.32 z"
           style="fill:#ba3902;fill-opacity:1;fill-rule:evenodd;stroke:none"
           id="path662"
           inkscape:connector-curvature="0" /><path
           d="m 1108.845,623.35359 6.935,0 0,54.32 -6.935,0 0,-54.32 z"
           style="fill:#21a58d;fill-opacity:1;fill-rule:evenodd;stroke:none"
           id="path664"
           inkscape:connector-curvature="0" /><g
           id="g666"
           transform="translate(1123.2058,623.35319)"><path
             d="M 0,0 6.869,0.948 -0.557,54.757 -7.426,53.809 0,0 Z"
             style="fill:#ffffff;fill-opacity:1;fill-rule:evenodd;stroke:none"
             id="path668"
             inkscape:connector-curvature="0" /></g><path
           d="m 1177.154,449.34859 8.029,0 0,8.029 -8.029,0 0,-8.029 z"
           style="fill:#54a2ac;fill-opacity:1;fill-rule:evenodd;stroke:none"
           id="path670"
           inkscape:connector-curvature="0" /><path
           d="m 1185.183,449.34859 8.029,0 0,8.029 -8.029,0 0,-8.029 z"
           style="fill:#ba3902;fill-opacity:1;fill-rule:evenodd;stroke:none"
           id="path672"
           inkscape:connector-curvature="0" /><path
           d="m 1193.212,449.34859 8.03,0 0,8.029 -8.03,0 0,-8.029 z"
           style="fill:#e69d2a;fill-opacity:1;fill-rule:evenodd;stroke:none"
           id="path674"
           inkscape:connector-curvature="0" /><path
           d="m 1177.154,441.31859 8.029,0 0,8.03 -8.029,0 0,-8.03 z"
           style="fill:#ba3902;fill-opacity:1;fill-rule:evenodd;stroke:none"
           id="path676"
           inkscape:connector-curvature="0" /><path
           d="m 1185.183,441.31859 8.029,0 0,8.03 -8.029,0 0,-8.03 z"
           style="fill:#e69d2a;fill-opacity:1;fill-rule:evenodd;stroke:none"
           id="path678"
           inkscape:connector-curvature="0" /><path
           d="m 1193.212,441.31859 8.03,0 0,8.03 -8.03,0 0,-8.03 z"
           style="fill:#54a2ac;fill-opacity:1;fill-rule:evenodd;stroke:none"
           id="path680"
           inkscape:connector-curvature="0" /><path
           d="m 1177.154,433.28959 8.029,0 0,8.029 -8.029,0 0,-8.029 z"
           style="fill:#e69d2a;fill-opacity:1;fill-rule:evenodd;stroke:none"
           id="path682"
           inkscape:connector-curvature="0" /><path
           d="m 1185.183,433.28959 8.029,0 0,8.029 -8.029,0 0,-8.029 z"
           style="fill:#54a2ac;fill-opacity:1;fill-rule:evenodd;stroke:none"
           id="path684"
           inkscape:connector-curvature="0" /><path
           d="m 1193.212,433.28959 8.03,0 0,8.029 -8.03,0 0,-8.029 z"
           style="fill:#ba3902;fill-opacity:1;fill-rule:evenodd;stroke:none"
           id="path686"
           inkscape:connector-curvature="0" /><g
           id="g688"
           transform="translate(1159.7853,433.28949)"><path
             d="m 0,0 c 2.102,-4.113 7.503,-7.556 14.695,-9.57 l 29.435,0 C 51.322,-7.556 56.723,-4.113 58.825,0 L 0,0 Z"
             style="fill:#423e35;fill-opacity:1;fill-rule:evenodd;stroke:none"
             id="path690"
             inkscape:connector-curvature="0" /></g></g></g><g
       id="g1624"
       transform="translate(313.81406,560.28579)" /></g></svg>