<?xml version="1.0" encoding="UTF-8" standalone="no"?>
<!-- Created with Inkscape (http://www.inkscape.org/) -->

<svg
   xmlns:dc="http://purl.org/dc/elements/1.1/"
   xmlns:cc="http://creativecommons.org/ns#"
   xmlns:rdf="http://www.w3.org/1999/02/22-rdf-syntax-ns#"
   xmlns:svg="http://www.w3.org/2000/svg"
   xmlns="http://www.w3.org/2000/svg"
   xmlns:sodipodi="http://sodipodi.sourceforge.net/DTD/sodipodi-0.dtd"
   xmlns:inkscape="http://www.inkscape.org/namespaces/inkscape"
   width="90mm"
   height="50mm"
   viewBox="0 0 318.89764 177.16535"
   id="svg4405"
   version="1.1"
   inkscape:version="0.91 r13725"
   sodipodi:docname="tarjeta.svg">
  <defs
     id="defs4407" />
  <sodipodi:namedview
     id="base"
     pagecolor="#ffffff"
     bordercolor="#666666"
     borderopacity="1.0"
     inkscape:pageopacity="0.0"
     inkscape:pageshadow="2"
     inkscape:zoom="1.4"
     inkscape:cx="217.08525"
     inkscape:cy="83.474957"
     inkscape:document-units="px"
     inkscape:current-layer="layer1"
     showgrid="false"
     inkscape:window-width="1366"
     inkscape:window-height="710"
     inkscape:window-x="0"
     inkscape:window-y="25"
     inkscape:window-maximized="1"
     fit-margin-top="0"
     fit-margin-left="0"
     fit-margin-right="0"
     fit-margin-bottom="0" />
  <metadata
     id="metadata4410">
    <rdf:RDF>
      <cc:Work
         rdf:about="">
        <dc:format>image/svg+xml</dc:format>
        <dc:type
           rdf:resource="http://purl.org/dc/dcmitype/StillImage" />
        <dc:title></dc:title>
      </cc:Work>
    </rdf:RDF>
  </metadata>
  <g
     inkscape:label="Capa 1"
     inkscape:groupmode="layer"
     id="layer1"
     transform="translate(794.63446,-406.62543)">
    <flowRoot
       xml:space="preserve"
       id="flowRoot5677"
       style="font-style:normal;font-weight:normal;font-size:1.25px;line-height:125%;font-family:sans-serif;letter-spacing:0px;word-spacing:0px;fill:#000000;fill-opacity:1;stroke:none;stroke-width:1px;stroke-linecap:butt;stroke-linejoin:miter;stroke-opacity:1"><flowRegion
         id="flowRegion5679"><rect
           id="rect5681"
           width="127.85714"
           height="58.57143"
           x="-1440"
           y="1109.505" /></flowRegion><flowPara
         id="flowPara5683"></flowPara></flowRoot>    <g
       id="g5882">
      <rect
         y="408.07584"
         x="-795.34943"
         height="178.57275"
         width="320.71564"
         id="rect5880"
         style="opacity:0.95999995;fill:#ffffff;fill-opacity:1;stroke:#ffffff;stroke-width:0.29867429;stroke-linecap:round;stroke-linejoin:round;stroke-miterlimit:4;stroke-dasharray:none;stroke-dashoffset:0;stroke-opacity:1" />
      <rect
         y="406.62543"
         x="-794.63446"
         height="177.16536"
         width="318.89764"
         id="rect4955"
         style="opacity:0.95999995;fill:#ffffff;fill-opacity:1;stroke:none;stroke-width:0.30000001;stroke-linecap:round;stroke-linejoin:round;stroke-miterlimit:4;stroke-dasharray:none;stroke-dashoffset:0;stroke-opacity:1" />
      <g
         style="fill:#550000;fill-opacity:1"
         transform="matrix(0.04176175,0,0,0.04176175,-666.45166,517.1083)"
         id="g5002">
        <g
           style="fill:#550000;fill-opacity:1"
           id="g4958">
          <g
             style="fill:#550000;fill-opacity:1"
             id="g4960">
            <path
               style="fill:#550000;fill-opacity:1"
               inkscape:connector-curvature="0"
               d="m 505.806,78.032 -447.166,0 c -32.058,0 -58.14,26.082 -58.14,58.14 l 0,292.102 c 0,32.057 26.082,58.139 58.14,58.139 l 447.166,0 c 32.059,0 58.14,-26.082 58.14,-58.139 l 0,-292.102 c -10e-4,-32.058 -26.083,-58.14 -58.14,-58.14 z m -19.166,42.84 -191.106,151.602 c -7.838,6.218 -18.786,6.218 -26.624,0 L 77.806,120.872 l 408.834,0 z m 34.465,307.402 c 0,8.449 -6.85,15.299 -15.3,15.299 l -447.165,0 c -8.45,0 -15.3,-6.85 -15.3,-15.299 l 0,-280.06 198.947,157.822 c 11.312,8.975 25.496,13.916 39.937,13.916 14.441,0 28.624,-4.941 39.937,-13.916 l 198.945,-157.822 0,280.06 z"
               id="path4962" />
            <path
               style="fill:#550000;fill-opacity:1"
               inkscape:connector-curvature="0"
               d="m 505.806,486.913 -447.166,0 C 26.306,486.913 0,460.607 0,428.274 L 0,136.172 c 0,-32.334 26.306,-58.64 58.64,-58.64 l 447.166,0 c 32.334,0 58.64,26.306 58.64,58.64 l 0,292.102 c -10e-4,32.333 -26.306,58.639 -58.64,58.639 z M 58.64,78.532 C 26.857,78.532 1,104.39 1,136.172 l 0,292.102 c 0,31.782 25.857,57.639 57.64,57.639 l 447.166,0 c 31.782,0 57.64,-25.856 57.64,-57.639 l 0,-292.102 c 0,-31.783 -25.857,-57.64 -57.64,-57.64 l -447.166,0 z m 447.166,365.541 -447.166,0 c -8.712,0 -15.8,-7.087 -15.8,-15.799 l 0,-281.095 199.757,158.465 c 11.224,8.904 25.296,13.808 39.626,13.808 14.329,0 28.402,-4.903 39.626,-13.808 l 199.756,-158.465 0,281.095 c 0,8.712 -7.087,15.799 -15.799,15.799 z M 43.84,149.249 l 0,279.026 c 0,8.16 6.639,14.799 14.8,14.799 l 447.166,0 c 8.16,0 14.8,-6.639 14.8,-14.799 l 0,-279.026 -198.135,157.179 c -11.4,9.044 -25.694,14.024 -40.248,14.024 -14.554,0 -28.848,-4.98 -40.247,-14.024 L 43.84,149.249 Z m 238.382,128.388 c -4.906,0 -9.744,-1.695 -13.623,-4.772 L 76.371,120.372 l 411.703,0 -192.229,152.493 c -3.879,3.077 -8.717,4.772 -13.623,4.772 z M 79.24,121.372 269.22,272.082 c 3.703,2.938 8.32,4.555 13.001,4.555 4.681,0 9.298,-1.618 13.001,-4.555 l 189.981,-150.71 -405.963,0 z"
               id="path4964" />
          </g>
        </g>
        <g
           style="fill:#550000;fill-opacity:1"
           id="g4966" />
        <g
           style="fill:#550000;fill-opacity:1"
           id="g4968" />
        <g
           style="fill:#550000;fill-opacity:1"
           id="g4970" />
        <g
           style="fill:#550000;fill-opacity:1"
           id="g4972" />
        <g
           style="fill:#550000;fill-opacity:1"
           id="g4974" />
        <g
           style="fill:#550000;fill-opacity:1"
           id="g4976" />
        <g
           style="fill:#550000;fill-opacity:1"
           id="g4978" />
        <g
           style="fill:#550000;fill-opacity:1"
           id="g4980" />
        <g
           style="fill:#550000;fill-opacity:1"
           id="g4982" />
        <g
           style="fill:#550000;fill-opacity:1"
           id="g4984" />
        <g
           style="fill:#550000;fill-opacity:1"
           id="g4986" />
        <g
           style="fill:#550000;fill-opacity:1"
           id="g4988" />
        <g
           style="fill:#550000;fill-opacity:1"
           id="g4990" />
        <g
           style="fill:#550000;fill-opacity:1"
           id="g4992" />
        <g
           style="fill:#550000;fill-opacity:1"
           id="g4994" />
      </g>
      <path
         style="fill:#550000;fill-opacity:1"
         inkscape:connector-curvature="0"
         d="m -650.55615,498.14412 0.32475,-23.37136 c 0.0141,-1.00574 -0.79101,-1.83282 -1.79549,-1.84487 l -12.25171,-0.17169 c -1.00635,-0.015 -1.83252,0.78936 -1.84659,1.7951 l -0.32631,23.371 c -0.0133,1.00665 0.78786,1.83227 1.7938,1.84475 l 12.25249,0.17258 c 1.00561,0.0139 1.83499,-0.78976 1.84906,-1.79551 z m -13.38673,-3.88168 0.25244,-17.99041 c 0.003,-0.27872 0.22967,-0.49946 0.5088,-0.4945 l 9.97103,0.13891 c 0.27845,0.004 0.49939,0.22957 0.49469,0.50722 l -0.25084,17.99061 c -0.003,0.27778 -0.23027,0.49842 -0.50804,0.4954 l -9.97318,-0.14014 c -0.27727,-0.002 -0.49862,-0.23013 -0.4949,-0.50709 z m 6.55987,3.34844 c -0.009,0.63527 -0.52957,1.14056 -1.16214,1.13126 -0.6358,-0.01 -1.14155,-0.52887 -1.13248,-1.16405 0.01,-0.63424 0.53086,-1.13872 1.16469,-1.1316 0.63254,0.009 1.13951,0.53015 1.12993,1.16439 z"
         id="path5026-3" />
      <rect
         y="431.11838"
         x="-682.8631"
         height="108.08632"
         width="2.5253813"
         id="rect5138"
         style="opacity:0.95999995;fill:#550000;fill-opacity:1;stroke:none;stroke-width:0.30000001;stroke-linecap:round;stroke-linejoin:round;stroke-miterlimit:4;stroke-dasharray:none;stroke-dashoffset:0;stroke-opacity:1" />
      <g
         transform="matrix(0.37278578,0,0,0.37278578,-292.07629,91.484046)"
         id="g5808">
        <path
           inkscape:connector-curvature="0"
           style="color:#000000;clip-rule:nonzero;display:inline;overflow:visible;visibility:visible;opacity:1;isolation:auto;mix-blend-mode:normal;color-interpolation:sRGB;color-interpolation-filters:linearRGB;solid-color:#000000;solid-opacity:1;fill:#000000;fill-opacity:1;fill-rule:nonzero;stroke:none;stroke-width:0.50036657;stroke-linecap:round;stroke-linejoin:round;stroke-miterlimit:4;stroke-dasharray:none;stroke-dashoffset:0;stroke-opacity:1;color-rendering:auto;image-rendering:auto;shape-rendering:auto;text-rendering:auto;enable-background:accumulate"
           d="m -1185.2461,1069.1478 a 23.088325,23.16054 83.618287 0 0 -20.4501,25.5183 23.088325,23.16054 83.618287 0 0 25.5827,20.3715 23.088325,23.16054 83.618287 0 0 20.4518,-25.5203 23.088325,23.16054 83.618287 0 0 -25.5844,-20.3695 z m 0.6604,5.9043 a 17.146581,17.200212 83.618287 0 1 19.0005,15.1277 17.146581,17.200212 83.618287 0 1 -15.1887,18.9535 17.146581,17.200212 83.618287 0 1 -18.9991,-15.1297 17.146581,17.200212 83.618287 0 1 15.1873,-18.9515 z"
           id="path4174" />
        <ellipse
           style="color:#000000;clip-rule:nonzero;display:inline;overflow:visible;visibility:visible;opacity:1;isolation:auto;mix-blend-mode:normal;color-interpolation:sRGB;color-interpolation-filters:linearRGB;solid-color:#000000;solid-opacity:1;fill:#000000;fill-opacity:1;fill-rule:nonzero;stroke:none;stroke-width:0.45677707;stroke-linecap:round;stroke-linejoin:round;stroke-miterlimit:4;stroke-dasharray:none;stroke-dashoffset:0;stroke-opacity:1;color-rendering:auto;image-rendering:auto;shape-rendering:auto;text-rendering:auto;enable-background:accumulate"
           id="path4192"
           cx="-1296.7383"
           cy="953.86859"
           rx="14.22355"
           ry="14.512408"
           transform="matrix(0.99380345,-0.11115175,0.11115175,0.99380345,0,0)" />
        <path
           style="fill:#550000"
           inkscape:connector-curvature="0"
           d="m -1202.2961,1049.1798 -0.3522,0 c 0,0 -48.4426,-56.26873 -90.716,-16.8466 -42.2734,39.4228 -5.2835,129.1034 90.716,168.5261 l 0.3522,-0.8092 c 95.9989,-39.4222 132.9889,-128.2999 90.7161,-167.722 -42.2734,-39.41703 -90.7161,16.8517 -90.7161,16.8517 z"
           id="path5145" />
        <g
           id="g5600"
           transform="matrix(1.3071821,-0.06595808,0.08711222,1.0009026,268.88233,-60.421911)">
          <g
             id="g5664"
             transform="matrix(0.85106787,-0.72554794,0.42751422,0.81053223,-664.95944,-649.76168)">
            <path
               style="fill:#550000;fill-opacity:1;fill-rule:evenodd;stroke:none;stroke-width:1px;stroke-linecap:butt;stroke-linejoin:miter;stroke-opacity:1"
               d="m -1189.8872,1082.8705 102.1074,-123.32416 13.7562,10.59649 -22.8384,29.59842 -75.4063,97.72635 z"
               id="path4198"
               inkscape:connector-curvature="0"
               sodipodi:nodetypes="cccccc" />
            <path
               style="fill:#550000;fill-opacity:1;fill-rule:evenodd;stroke:none;stroke-width:1px;stroke-linecap:butt;stroke-linejoin:miter;stroke-opacity:1"
               d="m -1066.8037,926.33234 c -4.5711,7.15062 -21.3367,30.4403 -21.3367,30.4403 l 0.1016,2.96903 13.1123,10.66011 3.1734,-0.14989 c 0,0 14.425,-16.64068 24.7076,-28.04354 0,0 -2.6726,-1.62305 -3.7005,-2.77157 -1.8902,-2.112 -2.0903,-5.56869 -4.3133,-7.32702 -2.2718,-1.79698 -5.7968,-1.11277 -8.303,-2.56518 -1.3577,-0.78686 -2.1831,-1.48525 -3.4414,-3.21224 z m -1.591,8.85528 c 0.6079,-0.0542 1.2485,0.0694 1.7114,0.35062 0.8932,0.54265 1.7317,2.07361 1.1268,2.92591 -6.1826,8.71203 -9.8556,14.71458 -15.0017,21.15138 -0.7221,0.90326 -2.493,0.87602 -3.4603,0.24238 -0.972,-0.63666 -1.8346,-2.33437 -1.1671,-3.28542 4.4107,-6.28396 10.0731,-14.06293 15.273,-20.67307 0.3349,-0.42568 0.91,-0.65762 1.5179,-0.7118 z m 10.4492,8.26686 c 0.7373,-0.11046 1.5786,0.0735 2.1214,0.47802 0.838,0.62452 1.5288,2.22629 0.8462,3.01769 -6.9773,8.0896 -11.1995,13.72005 -16.9301,19.64241 -0.8042,0.83106 -2.5652,0.63637 -3.4685,-0.0858 -0.9075,-0.72555 -1.6061,-2.49726 -0.8518,-3.38105 4.9841,-5.83962 11.3542,-13.04998 17.1548,-19.13982 0.2802,-0.29414 0.6856,-0.46519 1.128,-0.53149 z"
               id="path4357-2"
               inkscape:connector-curvature="0" />
          </g>
        </g>
        <g
           id="g5608"
           transform="matrix(0.1057165,-0.07488018,0.07488018,0.1057165,-1312.2021,1106.2993)"
           inkscape:transform-center-x="-7.4195457"
           inkscape:transform-center-y="-16.877404"
           style="fill:#ffffff">
          <title
             id="title5610">Layer 1</title>
          <path
             id="clef"
             d="m 293.31457,783.42987 c -46.65136,-2.71149 -94.28179,-31.97259 -122.76818,-65.55676 -33.02683,-38.9386 -46.64322,-91.87927 -43.15537,-135.35492 10.24622,-127.74341 149.16419,-203.24573 200.58811,-259.04501 34.42102,-37.34989 41.63696,-55.55738 49.32531,-74.76676 14.88471,-37.18319 17.28247,-80.74878 -12.22717,-84.00128 -28.17419,-3.10541 -51.35361,41.20221 -61.70606,71.48322 -9.30969,27.23605 -15.49762,54.56201 -9.89648,95.60894 2.51703,18.44123 71.80029,533.20838 72.96893,541.18763 11.66822,79.74029 -33.9339,112.73614 -80.48559,118.6054 -100.52533,12.67337 -132.7807,-89.48315 -87.72614,-128.28119 34.68573,-29.87237 85.14862,-4.22662 82.42243,44.88459 -2.41404,43.49865 -45.06598,44.78003 -55.96439,43.78625 16.73001,30.00476 142.85532,45.68054 123.48898,-89.88025 -2.72131,-19.04931 -66.74334,-502.79504 -68.31237,-513.61981 -11.745,-81.03809 -13.53467,-145.18274 28.68743,-220.03778 15.58747,-27.63324 40.2215,-45.472961 52.31464,-43.13739 2.65759,0.513184 5.30536,1.489014 7.40723,3.657837 32.38781,33.371703 42.32348,107.375213 38.77514,149.886623 -3.63336,43.52802 -5.65838,88.58911 -48.93963,141.13752 -16.74958,20.33554 -67.86136,65.13351 -97.1666,90.87075 -41.17605,36.16169 -71.0419,67.7453 -87.20144,105.84705 -18.1601,42.82196 -21.23447,96.72693 19.78308,144.55676 23.59454,27.02356 62.74231,46.19861 95.68905,46.6073 91.60953,1.13752 118.36179,-44.02002 119.21659,-95.1596 1.40722,-84.20716 -100.25238,-116.04413 -142.04792,-58.14466 -24.23358,33.5727 -13.58209,68.909 2.69354,85.72071 5.58649,5.76953 11.82673,10.16449 17.73029,12.6145 2.13944,0.88745 7.17184,3.22796 5.74335,6.65375 -1.18823,2.8504 -3.49604,3.01062 -5.5979,2.75891 -26.35675,-3.16101 -55.54108,-28.35401 -62.71777,-71.68756 -10.4571,-63.15906 45.27841,-138.08112 124.83734,-125.82782 52.08587,8.02179 100.44531,52.83929 96.20398,136.29474 -3.6366,71.52563 -62.9336,127.51293 -151.96241,122.33831 z"
             transform="matrix(0.99999988,-4.8401469e-4,4.8401469e-4,0.99999988,-0.26079522,0.13858716)"
             inkscape:connector-curvature="0"
             style="fill:#ffffff" />
        </g>
        <path
           style="fill:#800000;fill-opacity:1;fill-rule:evenodd;stroke:#ffffff;stroke-width:1px;stroke-linecap:butt;stroke-linejoin:miter;stroke-opacity:1"
           d="m -1245.8151,1120.4865 52.7958,-190.58357"
           id="path5622"
           inkscape:connector-curvature="0"
           sodipodi:nodetypes="cc" />
        <path
           style="fill:#ffffff;fill-opacity:1;fill-rule:evenodd;stroke:#ffffff;stroke-width:1px;stroke-linecap:butt;stroke-linejoin:miter;stroke-opacity:1"
           d="m -1235.7324,1128.9963 49.5816,-211.29786"
           id="path5622-5"
           inkscape:connector-curvature="0"
           sodipodi:nodetypes="cc" />
        <path
           style="fill:#ffffff;fill-opacity:1;fill-rule:evenodd;stroke:#ffffff;stroke-width:1px;stroke-linecap:butt;stroke-linejoin:miter;stroke-opacity:1"
           d="m -1226.4854,1135.0435 43.5102,-202.72643"
           id="path5622-3"
           inkscape:connector-curvature="0"
           sodipodi:nodetypes="cc" />
        <path
           style="fill:#ffffff;fill-opacity:1;fill-rule:evenodd;stroke:#ffffff;stroke-width:1px;stroke-linecap:butt;stroke-linejoin:miter;stroke-opacity:1"
           d="m -1217.3336,1140.8106 44.5816,-211.29786"
           id="path5622-56"
           inkscape:connector-curvature="0"
           sodipodi:nodetypes="cc" />
        <path
           style="fill:#ffffff;fill-opacity:1;fill-rule:evenodd;stroke:#ffffff;stroke-width:1px;stroke-linecap:butt;stroke-linejoin:miter;stroke-opacity:1"
           d="m -1207.9161,1147.3603 30.2959,-135.5836"
           id="path5622-2"
           inkscape:connector-curvature="0"
           sodipodi:nodetypes="cc" />
        <text
           xml:space="preserve"
           style="font-style:normal;font-weight:normal;font-size:1.25px;line-height:125%;font-family:sans-serif;letter-spacing:0px;word-spacing:0px;fill:#550000;fill-opacity:1;stroke:none;stroke-width:1px;stroke-linecap:butt;stroke-linejoin:miter;stroke-opacity:1"
           x="-1279.3658"
           y="1219.5312"
           id="text5673"
           sodipodi:linespacing="125%"><tspan
             sodipodi:role="line"
             id="tspan5675"
             x="-1279.3658"
             y="1219.5312"
             style="font-style:normal;font-variant:normal;font-weight:normal;font-stretch:normal;font-size:25px;font-family:Davis;-inkscape-font-specification:Davis;fill:#550000;fill-opacity:1">Al son del amor</tspan></text>
        <g
           id="g5724"
           transform="matrix(0.03027458,-0.09293048,0.09293048,0.03027458,-1236.1904,1117.1882)"
           style="fill:#ffffff;fill-opacity:1">
          <path
             id="path5686"
             d="M 327.106,86.816 C 311.278,73.898 291.576,68.385 272.523,63.054 237.388,53.223 212.003,46.12 212.003,-0.001 l -30,0 0,273.579 c -14.274,-10.374 -32.573,-16.616 -52.5,-16.616 -45.49,0 -82.5,32.523 -82.5,72.5 0,39.977 37.01,72.5 82.5,72.5 45.49,0 82.5,-32.523 82.5,-72.5 l 0,-189.588 c 15.442,11.721 34.235,16.979 52.436,22.071 35.135,9.831 60.52,16.934 60.52,63.055 l 30,0 0,-70 c 0,-30.585 -9.11,-52.889 -27.853,-68.184 z m -2.147,68.31 C 309.517,143.405 290.724,138.147 272.523,133.055 237.388,123.224 212.003,116.121 212.003,70 l 0,-0.126 c 15.442,11.721 34.235,16.979 52.436,22.071 35.135,9.831 60.52,16.934 60.52,63.055 l 0,0.126 z"
             inkscape:connector-curvature="0"
             style="fill:#ffffff;fill-opacity:1" />
          <g
             id="g5688"
             style="fill:#ffffff;fill-opacity:1" />
          <g
             id="g5690"
             style="fill:#ffffff;fill-opacity:1" />
          <g
             id="g5692"
             style="fill:#ffffff;fill-opacity:1" />
          <g
             id="g5694"
             style="fill:#ffffff;fill-opacity:1" />
          <g
             id="g5696"
             style="fill:#ffffff;fill-opacity:1" />
          <g
             id="g5698"
             style="fill:#ffffff;fill-opacity:1" />
          <g
             id="g5700"
             style="fill:#ffffff;fill-opacity:1" />
          <g
             id="g5702"
             style="fill:#ffffff;fill-opacity:1" />
          <g
             id="g5704"
             style="fill:#ffffff;fill-opacity:1" />
          <g
             id="g5706"
             style="fill:#ffffff;fill-opacity:1" />
          <g
             id="g5708"
             style="fill:#ffffff;fill-opacity:1" />
          <g
             id="g5710"
             style="fill:#ffffff;fill-opacity:1" />
          <g
             id="g5712"
             style="fill:#ffffff;fill-opacity:1" />
          <g
             id="g5714"
             style="fill:#ffffff;fill-opacity:1" />
          <g
             id="g5716"
             style="fill:#ffffff;fill-opacity:1" />
        </g>
        <g
           id="g5787"
           transform="matrix(0.04598079,-0.08572632,0.08572632,0.04598079,-1233.9193,1069.2711)"
           style="fill:#ffffff;fill-opacity:1">
          <g
             id="g5743"
             style="fill:#ffffff;fill-opacity:1">
            <g
               id="g5745"
               style="fill:#ffffff;fill-opacity:1">
              <g
                 id="g5747"
                 style="fill:#ffffff;fill-opacity:1">
                <path
                   id="path5749"
                   d="m 104.61,31.03 0,214.609 c -8.882,-1.806 -18.64,-1.545 -28.158,0.8 -28.474,7.136 -47.042,31.231 -41.495,53.265 2.72,17.269 22.681,30.263 46.466,30.263 5.211,0 10.41,-0.631 15.403,-1.904 22.257,-5.515 39.036,-21.751 41.979,-39.836 l 0.446,0 0.631,-184.286 121.438,-22.203 0,133.774 c -9.034,-1.882 -19.015,-1.637 -28.702,0.767 -28.718,7.19 -47.456,31.514 -41.794,54.238 4.509,18.063 23.073,30.209 46.167,30.209 l 0,0 c 5.385,0 10.84,-0.691 16.241,-2.012 26.374,-6.668 42.756,-24.916 42.756,-47.657 L 295.988,0 104.61,31.03 Z"
                   style="fill:#ffffff;fill-opacity:1"
                   inkscape:connector-curvature="0" />
              </g>
            </g>
          </g>
          <g
             id="g5751"
             style="fill:#ffffff;fill-opacity:1" />
          <g
             id="g5753"
             style="fill:#ffffff;fill-opacity:1" />
          <g
             id="g5755"
             style="fill:#ffffff;fill-opacity:1" />
          <g
             id="g5757"
             style="fill:#ffffff;fill-opacity:1" />
          <g
             id="g5759"
             style="fill:#ffffff;fill-opacity:1" />
          <g
             id="g5761"
             style="fill:#ffffff;fill-opacity:1" />
          <g
             id="g5763"
             style="fill:#ffffff;fill-opacity:1" />
          <g
             id="g5765"
             style="fill:#ffffff;fill-opacity:1" />
          <g
             id="g5767"
             style="fill:#ffffff;fill-opacity:1" />
          <g
             id="g5769"
             style="fill:#ffffff;fill-opacity:1" />
          <g
             id="g5771"
             style="fill:#ffffff;fill-opacity:1" />
          <g
             id="g5773"
             style="fill:#ffffff;fill-opacity:1" />
          <g
             id="g5775"
             style="fill:#ffffff;fill-opacity:1" />
          <g
             id="g5777"
             style="fill:#ffffff;fill-opacity:1" />
          <g
             id="g5779"
             style="fill:#ffffff;fill-opacity:1" />
        </g>
      </g>
      <text
         sodipodi:linespacing="125%"
         id="text5864"
         y="444.12857"
         x="-666.70068"
         style="font-style:normal;font-weight:normal;font-size:1.25px;line-height:125%;font-family:sans-serif;letter-spacing:0px;word-spacing:0px;fill:#000000;fill-opacity:1;stroke:none;stroke-width:1px;stroke-linecap:butt;stroke-linejoin:miter;stroke-opacity:1"
         xml:space="preserve"><tspan
           style="font-style:normal;font-variant:normal;font-weight:normal;font-stretch:normal;font-size:15px;font-family:Carlito;-inkscape-font-specification:Carlito"
           y="444.12857"
           x="-666.70068"
           id="tspan5866"
           sodipodi:role="line">Jonathan M. Telleria Espinoza </tspan></text>
      <text
         sodipodi:linespacing="125%"
         id="text5868"
         y="455.7413"
         x="-630.6424"
         style="font-style:normal;font-weight:normal;font-size:1.00704706px;line-height:125%;font-family:sans-serif;letter-spacing:0px;word-spacing:0px;fill:#550000;fill-opacity:1;stroke:none;stroke-width:1px;stroke-linecap:butt;stroke-linejoin:miter;stroke-opacity:1"
         xml:space="preserve"><tspan
           style="font-style:normal;font-variant:normal;font-weight:normal;font-stretch:normal;font-size:12.08456516px;font-family:carlito;-inkscape-font-specification:carlito;fill:#550000;fill-opacity:1"
           y="455.7413"
           x="-630.6424"
           id="tspan5870"
           sodipodi:role="line">Director del programa  </tspan></text>
      <text
         sodipodi:linespacing="125%"
         id="text5872"
         y="489.56512"
         x="-637.91138"
         style="font-style:normal;font-weight:normal;font-size:1.25px;line-height:125%;font-family:sans-serif;letter-spacing:0px;word-spacing:0px;fill:#000000;fill-opacity:1;stroke:none;stroke-width:1px;stroke-linecap:butt;stroke-linejoin:miter;stroke-opacity:1"
         xml:space="preserve"><tspan
           style="font-style:normal;font-variant:normal;font-weight:normal;font-stretch:normal;font-size:10px;font-family:carlito;-inkscape-font-specification:carlito"
           y="489.56512"
           x="-637.91138"
           id="tspan5874"
           sodipodi:role="line">+505 7715-0857</tspan></text>
      <text
         sodipodi:linespacing="125%"
         id="text5876"
         y="531.50671"
         x="-636.90118"
         style="font-style:normal;font-weight:normal;font-size:1.25px;line-height:125%;font-family:sans-serif;letter-spacing:0px;word-spacing:0px;fill:#000000;fill-opacity:1;stroke:none;stroke-width:1px;stroke-linecap:butt;stroke-linejoin:miter;stroke-opacity:1"
         xml:space="preserve"><tspan
           style="font-style:normal;font-variant:normal;font-weight:normal;font-stretch:normal;font-size:10px;font-family:carlito;-inkscape-font-specification:carlito"
           y="531.50671"
           x="-636.90118"
           id="tspan5878"
           sodipodi:role="line">Jonathantelleria1195@gmail.com </tspan></text>
    </g>
  </g>
</svg>
