<?xml version="1.0" encoding="UTF-8" standalone="no"?>
<!-- Created with Inkscape (http://www.inkscape.org/) -->

<svg
   xmlns:dc="http://purl.org/dc/elements/1.1/"
   xmlns:cc="http://creativecommons.org/ns#"
   xmlns:rdf="http://www.w3.org/1999/02/22-rdf-syntax-ns#"
   xmlns:svg="http://www.w3.org/2000/svg"
   xmlns="http://www.w3.org/2000/svg"
   xmlns:sodipodi="http://sodipodi.sourceforge.net/DTD/sodipodi-0.dtd"
   xmlns:inkscape="http://www.inkscape.org/namespaces/inkscape"
   width="38.717125mm"
   height="46.696537mm"
   viewBox="0 0 137.18666 165.46017"
   id="svg15993"
   version="1.1"
   inkscape:version="0.91 r13725"
   sodipodi:docname="fresa.svg">
  <defs
     id="defs15995">
    <linearGradient
       x1="0"
       y1="0"
       x2="1"
       y2="0"
       gradientUnits="userSpaceOnUse"
       gradientTransform="matrix(0,89.476593,89.476593,0,158.64258,1602.1499)"
       spreadMethod="pad"
       id="linearGradient2218">
      <stop
         style="stop-opacity:1;stop-color:#ffffff"
         offset="0"
         id="stop2210" />
      <stop
         style="stop-opacity:1;stop-color:#ffffff"
         offset="0.2609"
         id="stop2212" />
      <stop
         style="stop-opacity:1;stop-color:#ffffff"
         offset="0.69847176"
         id="stop2214" />
      <stop
         style="stop-opacity:1;stop-color:#ffffff"
         offset="1"
         id="stop2216" />
    </linearGradient>
    <radialGradient
       fx="0"
       fy="0"
       cx="0"
       cy="0"
       r="1"
       gradientUnits="userSpaceOnUse"
       gradientTransform="matrix(88.648651,0,0,-88.648651,332.29947,1673.294)"
       spreadMethod="pad"
       id="radialGradient1416">
      <stop
         style="stop-opacity:1;stop-color:#ff151f"
         offset="0"
         id="stop1412" />
      <stop
         style="stop-opacity:1;stop-color:#c9191f"
         offset="1"
         id="stop1414" />
    </radialGradient>
    <linearGradient
       x1="0"
       y1="0"
       x2="1"
       y2="0"
       gradientUnits="userSpaceOnUse"
       gradientTransform="matrix(8.7653627,8.7653627,8.7653627,-8.7653627,346.83835,1686.1775)"
       spreadMethod="pad"
       id="linearGradient1436">
      <stop
         style="stop-opacity:1;stop-color:#ff151f"
         offset="0"
         id="stop1432" />
      <stop
         style="stop-opacity:1;stop-color:#c9191f"
         offset="1"
         id="stop1434" />
    </linearGradient>
    <linearGradient
       x1="0"
       y1="0"
       x2="1"
       y2="0"
       gradientUnits="userSpaceOnUse"
       gradientTransform="matrix(6.4780192,-6.4780192,-6.4780192,-6.4780192,347.98221,1693.7993)"
       spreadMethod="pad"
       id="linearGradient1456">
      <stop
         style="stop-opacity:1;stop-color:#ffd440"
         offset="0"
         id="stop1452" />
      <stop
         style="stop-opacity:1;stop-color:#ff9200"
         offset="1"
         id="stop1454" />
    </linearGradient>
    <linearGradient
       x1="0"
       y1="0"
       x2="1"
       y2="0"
       gradientUnits="userSpaceOnUse"
       gradientTransform="matrix(8.7653627,8.7653627,8.7653627,-8.7653627,346.70344,1661.1291)"
       spreadMethod="pad"
       id="linearGradient1476">
      <stop
         style="stop-opacity:1;stop-color:#ff151f"
         offset="0"
         id="stop1472" />
      <stop
         style="stop-opacity:1;stop-color:#c9191f"
         offset="1"
         id="stop1474" />
    </linearGradient>
    <linearGradient
       x1="0"
       y1="0"
       x2="1"
       y2="0"
       gradientUnits="userSpaceOnUse"
       gradientTransform="matrix(6.4780078,-6.4780078,-6.4780078,-6.4780078,347.8473,1668.7509)"
       spreadMethod="pad"
       id="linearGradient1496">
      <stop
         style="stop-opacity:1;stop-color:#ffd440"
         offset="0"
         id="stop1492" />
      <stop
         style="stop-opacity:1;stop-color:#ff9200"
         offset="1"
         id="stop1494" />
    </linearGradient>
    <linearGradient
       x1="0"
       y1="0"
       x2="1"
       y2="0"
       gradientUnits="userSpaceOnUse"
       gradientTransform="matrix(8.7653332,8.7653332,8.7653332,-8.7653332,347.10746,1635.4074)"
       spreadMethod="pad"
       id="linearGradient1516">
      <stop
         style="stop-opacity:1;stop-color:#ff151f"
         offset="0"
         id="stop1512" />
      <stop
         style="stop-opacity:1;stop-color:#c9191f"
         offset="1"
         id="stop1514" />
    </linearGradient>
    <linearGradient
       x1="0"
       y1="0"
       x2="1"
       y2="0"
       gradientUnits="userSpaceOnUse"
       gradientTransform="matrix(6.4779353,-6.4779353,-6.4779353,-6.4779353,348.25135,1643.0294)"
       spreadMethod="pad"
       id="linearGradient1536">
      <stop
         style="stop-opacity:1;stop-color:#ffd440"
         offset="0"
         id="stop1532" />
      <stop
         style="stop-opacity:1;stop-color:#ff9200"
         offset="1"
         id="stop1534" />
    </linearGradient>
    <linearGradient
       x1="0"
       y1="0"
       x2="1"
       y2="0"
       gradientUnits="userSpaceOnUse"
       gradientTransform="matrix(8.7654619,8.7654619,8.7654619,-8.7654619,346.83817,1610.2234)"
       spreadMethod="pad"
       id="linearGradient1556">
      <stop
         style="stop-opacity:1;stop-color:#ff151f"
         offset="0"
         id="stop1552" />
      <stop
         style="stop-opacity:1;stop-color:#c9191f"
         offset="1"
         id="stop1554" />
    </linearGradient>
    <linearGradient
       x1="0"
       y1="0"
       x2="1"
       y2="0"
       gradientUnits="userSpaceOnUse"
       gradientTransform="matrix(6.4778938,-6.4778938,-6.4778938,-6.4778938,347.98212,1617.8454)"
       spreadMethod="pad"
       id="linearGradient1576">
      <stop
         style="stop-opacity:1;stop-color:#ffd440"
         offset="0"
         id="stop1572" />
      <stop
         style="stop-opacity:1;stop-color:#ff9200"
         offset="1"
         id="stop1574" />
    </linearGradient>
    <linearGradient
       x1="0"
       y1="0"
       x2="1"
       y2="0"
       gradientUnits="userSpaceOnUse"
       gradientTransform="matrix(6.8593855,10.325015,10.325015,-6.8593855,366.24106,1678.7987)"
       spreadMethod="pad"
       id="linearGradient1596">
      <stop
         style="stop-opacity:1;stop-color:#ff151f"
         offset="0"
         id="stop1592" />
      <stop
         style="stop-opacity:1;stop-color:#c9191f"
         offset="1"
         id="stop1594" />
    </linearGradient>
    <linearGradient
       x1="0"
       y1="0"
       x2="1"
       y2="0"
       gradientUnits="userSpaceOnUse"
       gradientTransform="matrix(7.6309819,-5.0696149,-5.0696149,-7.6309819,365.85547,1686.4961)"
       spreadMethod="pad"
       id="linearGradient1616">
      <stop
         style="stop-opacity:1;stop-color:#ffd440"
         offset="0"
         id="stop1612" />
      <stop
         style="stop-opacity:1;stop-color:#ff9200"
         offset="1"
         id="stop1614" />
    </linearGradient>
    <linearGradient
       x1="0"
       y1="0"
       x2="1"
       y2="0"
       gradientUnits="userSpaceOnUse"
       gradientTransform="matrix(9.7560396,7.6470518,7.6470518,-9.7560396,368.69752,1657.5807)"
       spreadMethod="pad"
       id="linearGradient1636">
      <stop
         style="stop-opacity:1;stop-color:#ff151f"
         offset="0"
         id="stop1632" />
      <stop
         style="stop-opacity:1;stop-color:#c9191f"
         offset="1"
         id="stop1634" />
    </linearGradient>
    <linearGradient
       x1="0"
       y1="0"
       x2="1"
       y2="0"
       gradientUnits="userSpaceOnUse"
       gradientTransform="matrix(5.6515303,-7.2101712,-7.2101712,-5.6515303,370.74994,1665.0094)"
       spreadMethod="pad"
       id="linearGradient1656">
      <stop
         style="stop-opacity:1;stop-color:#ffd440"
         offset="0"
         id="stop1652" />
      <stop
         style="stop-opacity:1;stop-color:#ff9200"
         offset="1"
         id="stop1654" />
    </linearGradient>
    <linearGradient
       x1="0"
       y1="0"
       x2="1"
       y2="0"
       gradientUnits="userSpaceOnUse"
       gradientTransform="matrix(10.185341,7.0663595,7.0663595,-10.185341,362.96164,1629.9275)"
       spreadMethod="pad"
       id="linearGradient1676">
      <stop
         style="stop-opacity:1;stop-color:#ff151f"
         offset="0"
         id="stop1672" />
      <stop
         style="stop-opacity:1;stop-color:#c9191f"
         offset="1"
         id="stop1674" />
    </linearGradient>
    <linearGradient
       x1="0"
       y1="0"
       x2="1"
       y2="0"
       gradientUnits="userSpaceOnUse"
       gradientTransform="matrix(5.2219481,-7.526835,-7.526835,-5.2219481,365.44358,1637.2244)"
       spreadMethod="pad"
       id="linearGradient1696">
      <stop
         style="stop-opacity:1;stop-color:#ffd440"
         offset="0"
         id="stop1692" />
      <stop
         style="stop-opacity:1;stop-color:#ff9200"
         offset="1"
         id="stop1694" />
    </linearGradient>
    <linearGradient
       x1="0"
       y1="0"
       x2="1"
       y2="0"
       gradientUnits="userSpaceOnUse"
       gradientTransform="matrix(8.7653828,8.7653828,8.7653828,-8.7653828,328.25367,1677.6934)"
       spreadMethod="pad"
       id="linearGradient1716">
      <stop
         style="stop-opacity:1;stop-color:#ff151f"
         offset="0"
         id="stop1712" />
      <stop
         style="stop-opacity:1;stop-color:#c9191f"
         offset="1"
         id="stop1714" />
    </linearGradient>
    <linearGradient
       x1="0"
       y1="0"
       x2="1"
       y2="0"
       gradientUnits="userSpaceOnUse"
       gradientTransform="matrix(6.4779491,-6.4779491,-6.4779491,-6.4779491,329.39765,1685.3152)"
       spreadMethod="pad"
       id="linearGradient1736">
      <stop
         style="stop-opacity:1;stop-color:#ffd440"
         offset="0"
         id="stop1732" />
      <stop
         style="stop-opacity:1;stop-color:#ff9200"
         offset="1"
         id="stop1734" />
    </linearGradient>
    <linearGradient
       x1="0"
       y1="0"
       x2="1"
       y2="0"
       gradientUnits="userSpaceOnUse"
       gradientTransform="matrix(8.7653828,8.7653828,8.7653828,-8.7653828,328.11872,1652.645)"
       spreadMethod="pad"
       id="linearGradient1756">
      <stop
         style="stop-opacity:1;stop-color:#ff151f"
         offset="0"
         id="stop1752" />
      <stop
         style="stop-opacity:1;stop-color:#c9191f"
         offset="1"
         id="stop1754" />
    </linearGradient>
    <linearGradient
       x1="0"
       y1="0"
       x2="1"
       y2="0"
       gradientUnits="userSpaceOnUse"
       gradientTransform="matrix(6.4779606,-6.4779606,-6.4779606,-6.4779606,329.26273,1660.2668)"
       spreadMethod="pad"
       id="linearGradient1776">
      <stop
         style="stop-opacity:1;stop-color:#ffd440"
         offset="0"
         id="stop1772" />
      <stop
         style="stop-opacity:1;stop-color:#ff9200"
         offset="1"
         id="stop1774" />
    </linearGradient>
    <linearGradient
       x1="0"
       y1="0"
       x2="1"
       y2="0"
       gradientUnits="userSpaceOnUse"
       gradientTransform="matrix(8.7653532,8.7653532,8.7653532,-8.7653532,328.52274,1626.9233)"
       spreadMethod="pad"
       id="linearGradient1796">
      <stop
         style="stop-opacity:1;stop-color:#ff151f"
         offset="0"
         id="stop1792" />
      <stop
         style="stop-opacity:1;stop-color:#c9191f"
         offset="1"
         id="stop1794" />
    </linearGradient>
    <linearGradient
       x1="0"
       y1="0"
       x2="1"
       y2="0"
       gradientUnits="userSpaceOnUse"
       gradientTransform="matrix(6.4778881,-6.4778881,-6.4778881,-6.4778881,329.66675,1634.5452)"
       spreadMethod="pad"
       id="linearGradient1816">
      <stop
         style="stop-opacity:1;stop-color:#ffd440"
         offset="0"
         id="stop1812" />
      <stop
         style="stop-opacity:1;stop-color:#ff9200"
         offset="1"
         id="stop1814" />
    </linearGradient>
    <linearGradient
       x1="0"
       y1="0"
       x2="1"
       y2="0"
       gradientUnits="userSpaceOnUse"
       gradientTransform="matrix(8.7653627,8.7653627,8.7653627,-8.7653627,308.72706,1685.3695)"
       spreadMethod="pad"
       id="linearGradient1836">
      <stop
         style="stop-opacity:1;stop-color:#ff151f"
         offset="0"
         id="stop1832" />
      <stop
         style="stop-opacity:1;stop-color:#c9191f"
         offset="1"
         id="stop1834" />
    </linearGradient>
    <linearGradient
       x1="0"
       y1="0"
       x2="1"
       y2="0"
       gradientUnits="userSpaceOnUse"
       gradientTransform="matrix(6.4780192,-6.4780192,-6.4780192,-6.4780192,309.87092,1692.9913)"
       spreadMethod="pad"
       id="linearGradient1856">
      <stop
         style="stop-opacity:1;stop-color:#ffd440"
         offset="0"
         id="stop1852" />
      <stop
         style="stop-opacity:1;stop-color:#ff9200"
         offset="1"
         id="stop1854" />
    </linearGradient>
    <linearGradient
       x1="0"
       y1="0"
       x2="1"
       y2="0"
       gradientUnits="userSpaceOnUse"
       gradientTransform="matrix(8.7653627,8.7653627,8.7653627,-8.7653627,308.59214,1660.3211)"
       spreadMethod="pad"
       id="linearGradient1876">
      <stop
         style="stop-opacity:1;stop-color:#ff151f"
         offset="0"
         id="stop1872" />
      <stop
         style="stop-opacity:1;stop-color:#c9191f"
         offset="1"
         id="stop1874" />
    </linearGradient>
    <linearGradient
       x1="0"
       y1="0"
       x2="1"
       y2="0"
       gradientUnits="userSpaceOnUse"
       gradientTransform="matrix(6.4780078,-6.4780078,-6.4780078,-6.4780078,309.736,1667.9429)"
       spreadMethod="pad"
       id="linearGradient1896">
      <stop
         style="stop-opacity:1;stop-color:#ffd440"
         offset="0"
         id="stop1892" />
      <stop
         style="stop-opacity:1;stop-color:#ff9200"
         offset="1"
         id="stop1894" />
    </linearGradient>
    <linearGradient
       x1="0"
       y1="0"
       x2="1"
       y2="0"
       gradientUnits="userSpaceOnUse"
       gradientTransform="matrix(8.7653332,8.7653332,8.7653332,-8.7653332,308.99616,1634.5994)"
       spreadMethod="pad"
       id="linearGradient1916">
      <stop
         style="stop-opacity:1;stop-color:#ff151f"
         offset="0"
         id="stop1912" />
      <stop
         style="stop-opacity:1;stop-color:#c9191f"
         offset="1"
         id="stop1914" />
    </linearGradient>
    <linearGradient
       x1="0"
       y1="0"
       x2="1"
       y2="0"
       gradientUnits="userSpaceOnUse"
       gradientTransform="matrix(6.4779353,-6.4779353,-6.4779353,-6.4779353,310.14005,1642.2214)"
       spreadMethod="pad"
       id="linearGradient1936">
      <stop
         style="stop-opacity:1;stop-color:#ffd440"
         offset="0"
         id="stop1932" />
      <stop
         style="stop-opacity:1;stop-color:#ff9200"
         offset="1"
         id="stop1934" />
    </linearGradient>
    <linearGradient
       x1="0"
       y1="0"
       x2="1"
       y2="0"
       gradientUnits="userSpaceOnUse"
       gradientTransform="matrix(8.7654619,8.7654619,8.7654619,-8.7654619,308.72687,1609.4154)"
       spreadMethod="pad"
       id="linearGradient1956">
      <stop
         style="stop-opacity:1;stop-color:#ff151f"
         offset="0"
         id="stop1952" />
      <stop
         style="stop-opacity:1;stop-color:#c9191f"
         offset="1"
         id="stop1954" />
    </linearGradient>
    <linearGradient
       x1="0"
       y1="0"
       x2="1"
       y2="0"
       gradientUnits="userSpaceOnUse"
       gradientTransform="matrix(6.4778938,-6.4778938,-6.4778938,-6.4778938,309.87082,1617.0374)"
       spreadMethod="pad"
       id="linearGradient1976">
      <stop
         style="stop-opacity:1;stop-color:#ffd440"
         offset="0"
         id="stop1972" />
      <stop
         style="stop-opacity:1;stop-color:#ff9200"
         offset="1"
         id="stop1974" />
    </linearGradient>
    <linearGradient
       x1="0"
       y1="0"
       x2="1"
       y2="0"
       gradientUnits="userSpaceOnUse"
       gradientTransform="matrix(9.4479322,8.0244751,8.0244751,-9.4479322,288.99329,1678.1984)"
       spreadMethod="pad"
       id="linearGradient1996">
      <stop
         style="stop-opacity:1;stop-color:#ff151f"
         offset="0"
         id="stop1992" />
      <stop
         style="stop-opacity:1;stop-color:#c9191f"
         offset="1"
         id="stop1994" />
    </linearGradient>
    <linearGradient
       x1="0"
       y1="0"
       x2="1"
       y2="0"
       gradientUnits="userSpaceOnUse"
       gradientTransform="matrix(5.9308405,-6.9829082,-6.9829082,-5.9308405,291.02152,1685.1633)"
       spreadMethod="pad"
       id="linearGradient2016">
      <stop
         style="stop-opacity:1;stop-color:#ffd440"
         offset="0"
         id="stop2012" />
      <stop
         style="stop-opacity:1;stop-color:#ff9200"
         offset="1"
         id="stop2014" />
    </linearGradient>
    <linearGradient
       x1="0"
       y1="0"
       x2="1"
       y2="0"
       gradientUnits="userSpaceOnUse"
       gradientTransform="matrix(8.0055895,9.46418,9.46418,-8.0055895,289.31009,1652.4304)"
       spreadMethod="pad"
       id="linearGradient2036">
      <stop
         style="stop-opacity:1;stop-color:#ff151f"
         offset="0"
         id="stop2032" />
      <stop
         style="stop-opacity:1;stop-color:#c9191f"
         offset="1"
         id="stop2034" />
    </linearGradient>
    <linearGradient
       x1="0"
       y1="0"
       x2="1"
       y2="0"
       gradientUnits="userSpaceOnUse"
       gradientTransform="matrix(6.9945641,-5.916584,-5.916584,-6.9945641,289.8158,1660.1208)"
       spreadMethod="pad"
       id="linearGradient2056">
      <stop
         style="stop-opacity:1;stop-color:#ffd440"
         offset="0"
         id="stop2052" />
      <stop
         style="stop-opacity:1;stop-color:#ff9200"
         offset="1"
         id="stop2054" />
    </linearGradient>
    <linearGradient
       x1="0"
       y1="0"
       x2="1"
       y2="0"
       gradientUnits="userSpaceOnUse"
       gradientTransform="matrix(6.1850486,10.743191,10.743191,-6.1850486,293.58713,1627.0115)"
       spreadMethod="pad"
       id="linearGradient2076">
      <stop
         style="stop-opacity:1;stop-color:#ff151f"
         offset="0"
         id="stop2072" />
      <stop
         style="stop-opacity:1;stop-color:#c9191f"
         offset="1"
         id="stop2074" />
    </linearGradient>
    <linearGradient
       x1="0"
       y1="0"
       x2="1"
       y2="0"
       gradientUnits="userSpaceOnUse"
       gradientTransform="matrix(7.9397388,-4.5710506,-4.5710506,-7.9397388,292.70991,1634.6691)"
       spreadMethod="pad"
       id="linearGradient2096">
      <stop
         style="stop-opacity:1;stop-color:#ffd440"
         offset="0"
         id="stop2092" />
      <stop
         style="stop-opacity:1;stop-color:#ff9200"
         offset="1"
         id="stop2094" />
    </linearGradient>
  </defs>
  <sodipodi:namedview
     id="base"
     pagecolor="#ffffff"
     bordercolor="#666666"
     borderopacity="1.0"
     inkscape:pageopacity="0.0"
     inkscape:pageshadow="2"
     inkscape:zoom="0.35"
     inkscape:cx="-509.62086"
     inkscape:cy="-214.75202"
     inkscape:document-units="px"
     inkscape:current-layer="layer1"
     showgrid="false"
     fit-margin-top="0"
     fit-margin-left="0"
     fit-margin-right="0"
     fit-margin-bottom="0"
     inkscape:window-width="1366"
     inkscape:window-height="710"
     inkscape:window-x="0"
     inkscape:window-y="25"
     inkscape:window-maximized="1" />
  <metadata
     id="metadata15998">
    <rdf:RDF>
      <cc:Work
         rdf:about="">
        <dc:format>image/svg+xml</dc:format>
        <dc:type
           rdf:resource="http://purl.org/dc/dcmitype/StillImage" />
        <dc:title></dc:title>
      </cc:Work>
    </rdf:RDF>
  </metadata>
  <g
     inkscape:label="Capa 1"
     inkscape:groupmode="layer"
     id="layer1"
     transform="translate(-310.33515,-152.15002)">
    <g
       transform="matrix(1.3333333,0,0,-1.3333333,-64.912237,2435.7024)"
       id="g16730">
      <path
         inkscape:connector-curvature="0"
         id="path1418"
         style="fill:url(#radialGradient1416);stroke:none"
         d="m 281.43555,1667.4812 c 0,-28.413 21.144,-78.912 49.556,-78.912 l 0,0 c 28.412,0 53.334,50.499 53.334,78.912 l 0,0 c 0,28.411 -23.033,36.332 -51.445,36.332 l 0,0 c -28.412,0 -51.445,-7.921 -51.445,-36.332" />
      <path
         inkscape:connector-curvature="0"
         id="path1438"
         style="fill:url(#linearGradient1436);stroke:none"
         d="m 347.06755,1690.5602 c 0,-4.46 1.708,-7.574 4.153,-7.574 l 0,0 c 2.446,0 4.154,3.114 4.154,7.574 l 0,0 c 0,4.46 -1.708,7.573 -4.154,7.573 l 0,0 c -2.445,0 -4.153,-3.113 -4.153,-7.573" />
      <path
         inkscape:connector-curvature="0"
         id="path1458"
         style="fill:url(#linearGradient1456);stroke:none"
         d="m 348.68355,1690.5602 c 0,-3.291 1.135,-5.959 2.537,-5.959 l 0,0 c 1.402,0 2.538,2.668 2.538,5.959 l 0,0 c 0,3.291 -1.136,5.958 -2.538,5.958 l 0,0 c -1.402,0 -2.537,-2.667 -2.537,-5.958" />
      <path
         inkscape:connector-curvature="0"
         id="path1478"
         style="fill:url(#linearGradient1476);stroke:none"
         d="m 346.93255,1665.5132 c 0,-4.461 1.708,-7.576 4.154,-7.576 l 0,0 c 2.445,0 4.153,3.115 4.153,7.576 l 0,0 c 0,4.459 -1.708,7.572 -4.153,7.572 l 0,0 c -2.446,0 -4.154,-3.113 -4.154,-7.572" />
      <path
         inkscape:connector-curvature="0"
         id="path1498"
         style="fill:url(#linearGradient1496);stroke:none"
         d="m 348.54855,1665.5112 c 0,-3.29 1.135,-5.958 2.538,-5.958 l 0,0 c 1.402,0 2.537,2.668 2.537,5.958 l 0,0 c 0,3.292 -1.135,5.96 -2.537,5.96 l 0,0 c -1.403,0 -2.538,-2.668 -2.538,-5.96" />
      <path
         inkscape:connector-curvature="0"
         id="path1518"
         style="fill:url(#linearGradient1516);stroke:none"
         d="m 347.33555,1639.7912 c 0,-4.461 1.709,-7.576 4.155,-7.576 l 0,0 c 2.445,0 4.153,3.115 4.153,7.576 l 0,0 c 0,4.459 -1.708,7.573 -4.153,7.573 l 0,0 c -2.446,0 -4.155,-3.114 -4.155,-7.573" />
      <path
         inkscape:connector-curvature="0"
         id="path1538"
         style="fill:url(#linearGradient1536);stroke:none"
         d="m 348.95255,1639.7912 c 0,-3.292 1.136,-5.959 2.538,-5.959 l 0,0 c 1.402,0 2.538,2.667 2.538,5.959 l 0,0 c 0,3.29 -1.136,5.958 -2.538,5.958 l 0,0 c -1.402,0 -2.538,-2.668 -2.538,-5.958" />
      <path
         inkscape:connector-curvature="0"
         id="path1558"
         style="fill:url(#linearGradient1556);stroke:none"
         d="m 347.06755,1614.6062 c 0,-4.459 1.708,-7.574 4.153,-7.574 l 0,0 c 2.446,0 4.154,3.115 4.154,7.574 l 0,0 c 0,4.461 -1.708,7.574 -4.154,7.574 l 0,0 c -2.445,0 -4.153,-3.113 -4.153,-7.574" />
      <path
         inkscape:connector-curvature="0"
         id="path1578"
         style="fill:url(#linearGradient1576);stroke:none"
         d="m 348.68355,1614.6062 c 0,-3.29 1.135,-5.958 2.537,-5.958 l 0,0 c 1.402,0 2.538,2.668 2.538,5.958 l 0,0 c 0,3.29 -1.136,5.958 -2.538,5.958 l 0,0 c -1.402,0 -2.537,-2.668 -2.537,-5.958" />
      <path
         inkscape:connector-curvature="0"
         id="path1598"
         style="fill:url(#linearGradient1596);stroke:none"
         d="m 368.17355,1691.3852 c -2.397,-0.483 -3.456,-3.873 -2.574,-8.245 l 0,0 c 0.881,-4.373 3.172,-7.087 5.569,-6.603 l 0,0 c 2.398,0.483 3.455,3.873 2.574,8.246 l 0,0 c -0.814,4.034 -2.827,6.658 -5.017,6.657 l 0,0 c -0.183,0 -0.367,-0.018 -0.552,-0.055" />
      <path
         inkscape:connector-curvature="0"
         id="path1618"
         style="fill:url(#linearGradient1616);stroke:none"
         d="m 368.49255,1689.8032 c -1.373,-0.279 -1.961,-3.118 -1.31,-6.343 l 0,0 c 0.651,-3.227 2.293,-5.618 3.666,-5.339 l 0,0 c 1.375,0.277 1.961,3.116 1.31,6.341 l 0,0 c -0.617,3.056 -2.122,5.363 -3.446,5.362 l 0,0 c -0.074,0 -0.147,-0.01 -0.22,-0.021" />
      <path
         inkscape:connector-curvature="0"
         id="path1638"
         style="fill:url(#linearGradient1636);stroke:none"
         d="m 369.45255,1661.9052 c -0.537,-4.429 0.784,-7.726 3.212,-8.019 l 0,0 c 2.428,-0.296 4.498,2.59 5.034,7.019 l 0,0 c 0.536,4.426 -0.784,7.724 -3.211,8.018 l 0,0 c -0.114,0.013 -0.227,0.02 -0.339,0.02 l 0,0 c -2.28,0 -4.185,-2.82 -4.696,-7.038" />
      <path
         inkscape:connector-curvature="0"
         id="path1658"
         style="fill:url(#linearGradient1656);stroke:none"
         d="m 371.05655,1661.7092 c -0.396,-3.266 0.411,-6.052 1.803,-6.22 l 0,0 c 1.39,-0.168 2.84,2.343 3.236,5.61 l 0,0 c 0.395,3.266 -0.412,6.052 -1.802,6.22 l 0,0 c -0.044,0 -0.089,0.01 -0.133,0.01 l 0,0 c -1.35,0 -2.72,-2.454 -3.104,-5.618" />
      <path
         inkscape:connector-curvature="0"
         id="path1678"
         style="fill:url(#linearGradient1676);stroke:none"
         d="m 363.96655,1634.2002 c -0.793,-4.389 0.333,-7.758 2.739,-8.193 l 0,0 c 2.408,-0.436 4.643,2.326 5.436,6.716 l 0,0 c 0.794,4.388 -0.333,7.755 -2.739,8.191 l 0,0 c -0.167,0.03 -0.332,0.045 -0.497,0.045 l 0,0 c -2.213,0 -4.2,-2.674 -4.939,-6.759" />
      <path
         inkscape:connector-curvature="0"
         id="path1698"
         style="fill:url(#linearGradient1696);stroke:none"
         d="m 365.55655,1633.9132 c -0.584,-3.239 0.059,-6.066 1.439,-6.316 l 0,0 c 1.377,-0.248 2.97,2.174 3.556,5.412 l 0,0 c 0.586,3.238 -0.057,6.065 -1.437,6.315 l 0,0 c -0.065,0.012 -0.131,0.018 -0.197,0.018 l 0,0 c -1.331,0 -2.803,-2.346 -3.361,-5.429" />
      <path
         inkscape:connector-curvature="0"
         id="path1718"
         style="fill:url(#linearGradient1716);stroke:none"
         d="m 328.48255,1682.0762 c 0,-4.459 1.708,-7.574 4.154,-7.574 l 0,0 c 2.445,0 4.153,3.115 4.153,7.574 l 0,0 c 0,4.459 -1.708,7.574 -4.153,7.574 l 0,0 c -2.446,0 -4.154,-3.115 -4.154,-7.574" />
      <path
         inkscape:connector-curvature="0"
         id="path1738"
         style="fill:url(#linearGradient1736);stroke:none"
         d="m 330.09855,1682.0762 c 0,-3.29 1.137,-5.958 2.538,-5.958 l 0,0 c 1.402,0 2.537,2.668 2.537,5.958 l 0,0 c 0,3.29 -1.135,5.958 -2.537,5.958 l 0,0 c -1.401,0 -2.538,-2.668 -2.538,-5.958" />
      <path
         inkscape:connector-curvature="0"
         id="path1758"
         style="fill:url(#linearGradient1756);stroke:none"
         d="m 328.34855,1657.0282 c 0,-4.46 1.708,-7.574 4.153,-7.574 l 0,0 c 2.445,0 4.153,3.114 4.153,7.574 l 0,0 c 0,4.459 -1.708,7.573 -4.153,7.573 l 0,0 c -2.445,0 -4.153,-3.114 -4.153,-7.573" />
      <path
         inkscape:connector-curvature="0"
         id="path1778"
         style="fill:url(#linearGradient1776);stroke:none"
         d="m 329.96355,1657.0282 c 0,-3.291 1.136,-5.959 2.538,-5.959 l 0,0 c 1.402,0 2.538,2.668 2.538,5.959 l 0,0 c 0,3.29 -1.136,5.958 -2.538,5.958 l 0,0 c -1.402,0 -2.538,-2.668 -2.538,-5.958" />
      <path
         inkscape:connector-curvature="0"
         id="path1798"
         style="fill:url(#linearGradient1796);stroke:none"
         d="m 328.75255,1631.3072 c 0,-4.461 1.708,-7.575 4.153,-7.575 l 0,0 c 2.446,0 4.154,3.114 4.154,7.575 l 0,0 c 0,4.459 -1.708,7.572 -4.154,7.572 l 0,0 c -2.445,0 -4.153,-3.113 -4.153,-7.572" />
      <path
         inkscape:connector-curvature="0"
         id="path1818"
         style="fill:url(#linearGradient1816);stroke:none"
         d="m 330.36855,1631.3072 c 0,-3.292 1.135,-5.96 2.537,-5.96 l 0,0 c 1.401,0 2.538,2.668 2.538,5.96 l 0,0 c 0,3.29 -1.137,5.958 -2.538,5.958 l 0,0 c -1.402,0 -2.537,-2.668 -2.537,-5.958" />
      <path
         inkscape:connector-curvature="0"
         id="path1838"
         style="fill:url(#linearGradient1836);stroke:none"
         d="m 308.95655,1689.7522 c 0,-4.46 1.708,-7.575 4.153,-7.575 l 0,0 c 2.446,0 4.154,3.115 4.154,7.575 l 0,0 c 0,4.46 -1.708,7.574 -4.154,7.574 l 0,0 c -2.445,0 -4.153,-3.114 -4.153,-7.574" />
      <path
         inkscape:connector-curvature="0"
         id="path1858"
         style="fill:url(#linearGradient1856);stroke:none"
         d="m 310.57255,1689.7522 c 0,-3.291 1.135,-5.959 2.537,-5.959 l 0,0 c 1.403,0 2.538,2.668 2.538,5.959 l 0,0 c 0,3.291 -1.135,5.959 -2.538,5.959 l 0,0 c -1.402,0 -2.537,-2.668 -2.537,-5.959" />
      <path
         inkscape:connector-curvature="0"
         id="path1878"
         style="fill:url(#linearGradient1876);stroke:none"
         d="m 308.82055,1664.7042 c 0,-4.46 1.709,-7.575 4.155,-7.575 l 0,0 c 2.445,0 4.153,3.115 4.153,7.575 l 0,0 c 0,4.459 -1.708,7.574 -4.153,7.574 l 0,0 c -2.446,0 -4.155,-3.115 -4.155,-7.574" />
      <path
         inkscape:connector-curvature="0"
         id="path1898"
         style="fill:url(#linearGradient1896);stroke:none"
         d="m 310.43755,1664.7042 c 0,-3.292 1.136,-5.959 2.538,-5.959 l 0,0 c 1.4,0 2.537,2.667 2.537,5.959 l 0,0 c 0,3.29 -1.137,5.958 -2.537,5.958 l 0,0 c -1.402,0 -2.538,-2.668 -2.538,-5.958" />
      <path
         inkscape:connector-curvature="0"
         id="path1918"
         style="fill:url(#linearGradient1916);stroke:none"
         d="m 309.22455,1638.9822 c 0,-4.459 1.708,-7.574 4.153,-7.574 l 0,0 c 2.447,0 4.155,3.115 4.155,7.574 l 0,0 c 0,4.459 -1.708,7.574 -4.155,7.574 l 0,0 c -2.445,0 -4.153,-3.115 -4.153,-7.574" />
      <path
         inkscape:connector-curvature="0"
         id="path1938"
         style="fill:url(#linearGradient1936);stroke:none"
         d="m 310.84155,1638.9822 c 0,-3.29 1.136,-5.958 2.538,-5.958 l 0,0 c 1.401,0 2.538,2.668 2.538,5.958 l 0,0 c 0,3.29 -1.137,5.958 -2.538,5.958 l 0,0 c -1.402,0 -2.538,-2.668 -2.538,-5.958" />
      <path
         inkscape:connector-curvature="0"
         id="path1958"
         style="fill:url(#linearGradient1956);stroke:none"
         d="m 308.95655,1613.7992 c 0,-4.461 1.708,-7.575 4.153,-7.575 l 0,0 c 2.446,0 4.154,3.114 4.154,7.575 l 0,0 c 0,4.459 -1.708,7.572 -4.154,7.572 l 0,0 c -2.445,0 -4.153,-3.113 -4.153,-7.572" />
      <path
         inkscape:connector-curvature="0"
         id="path1978"
         style="fill:url(#linearGradient1976);stroke:none"
         d="m 310.57255,1613.7992 c 0,-3.292 1.135,-5.96 2.537,-5.96 l 0,0 c 1.403,0 2.538,2.668 2.538,5.96 l 0,0 c 0,3.29 -1.135,5.958 -2.538,5.958 l 0,0 c -1.402,0 -2.537,-2.668 -2.537,-5.958" />
      <path
         inkscape:connector-curvature="0"
         id="path1998"
         style="fill:url(#linearGradient1996);stroke:none"
         d="m 289.57755,1682.5482 c -0.362,-4.445 1.088,-7.689 3.525,-7.887 l 0,0 c 2.437,-0.198 4.392,2.768 4.754,7.212 l 0,0 c 0.362,4.446 -1.087,7.687 -3.525,7.886 l 0,0 c -0.077,0.01 -0.153,0.01 -0.23,0.01 l 0,0 c -2.33,0 -4.174,-2.917 -4.524,-7.22" />
      <path
         inkscape:connector-curvature="0"
         id="path2018"
         style="fill:url(#linearGradient2016);stroke:none"
         d="m 291.45755,1681.8772 c -0.268,-3.279 0.648,-6.03 2.046,-6.144 l 0,0 c 1.397,-0.113 2.747,2.453 3.013,5.733 l 0,0 c 0.266,3.279 -0.65,6.03 -2.046,6.144 l 0,0 c -0.029,0 -0.059,0 -0.089,0 l 0,0 c -1.365,0 -2.663,-2.527 -2.924,-5.737" />
      <path
         inkscape:connector-curvature="0"
         id="path2038"
         style="fill:url(#linearGradient2036);stroke:none"
         d="m 292.68255,1664.7102 c -2.438,-0.204 -3.881,-3.449 -3.51,-7.893 l 0,0 c 0.371,-4.444 2.334,-7.406 4.77,-7.203 l 0,0 c 2.438,0.203 3.881,3.449 3.51,7.893 l 0,0 c -0.359,4.301 -2.208,7.213 -4.535,7.213 l 0,0 c -0.078,0 -0.156,0 -0.235,-0.01" />
      <path
         inkscape:connector-curvature="0"
         id="path2058"
         style="fill:url(#linearGradient2056);stroke:none"
         d="m 292.81755,1663.1012 c -1.398,-0.118 -2.308,-2.871 -2.034,-6.149 l 0,0 c 0.275,-3.28 1.628,-5.843 3.026,-5.727 l 0,0 c 1.396,0.117 2.306,2.87 2.032,6.149 l 0,0 c -0.267,3.206 -1.569,5.731 -2.932,5.731 l 0,0 c -0.031,0 -0.061,0 -0.092,0" />
      <path
         inkscape:connector-curvature="0"
         id="path2078"
         style="fill:url(#linearGradient2076);stroke:none"
         d="m 294.71055,1639.6972 c -2.361,-0.636 -3.201,-4.087 -2.041,-8.393 l 0,0 c 1.159,-4.308 3.618,-6.871 5.979,-6.234 l 0,0 c 2.362,0.636 3.201,4.087 2.042,8.393 l 0,0 c -1.041,3.868 -3.131,6.33 -5.258,6.33 l 0,0 c -0.241,0 -0.482,-0.032 -0.722,-0.096" />
      <path
         inkscape:connector-curvature="0"
         id="path2098"
         style="fill:url(#linearGradient2096);stroke:none"
         d="m 295.13155,1638.1372 c -1.354,-0.365 -1.758,-3.236 -0.903,-6.414 l 0,0 c 0.856,-3.176 2.647,-5.457 4,-5.093 l 0,0 c 1.354,0.365 1.757,3.235 0.901,6.414 l 0,0 c -0.795,2.953 -2.399,5.131 -3.707,5.131 l 0,0 c -0.099,0 -0.196,-0.012 -0.291,-0.038" />
      <path
         d="m 335.42445,1686.3123 c 0.244,0.068 0.612,3.537 -1.364,6.269 -1.67,2.895 -4.292,5.15 -4.597,6.028 -0.59,1.877 2.024,3.99 4.567,7.862 1.339,1.724 3.621,2.591 5.859,1.929 2.253,-0.619 4.258,-2.537 4.962,-4.857 0.831,-2.387 -0.156,-7.942 -2.774,-11.974 -1.261,-2.039 -2.927,-3.684 -4.322,-4.458 -1.375,-0.819 -2.388,-0.747 -2.331,-0.799"
         style="fill:#69c52b;fill-opacity:1;fill-rule:nonzero;stroke:none"
         id="path2110"
         inkscape:connector-curvature="0" />
      <path
         d="m 344.13905,1703.8336 c 0.788,-2.129 0.095,-6.927 -1.972,-10.701 -1.943,-4.007 -5.587,-6.232 -6.589,-6.101 -0.084,-0.466 -0.139,-0.728 -0.137,-0.726 -0.056,0.052 0.955,-0.019 2.331,0.798 1.393,0.772 3.06,2.411 4.324,4.444 2.619,4.019 3.625,9.563 2.799,11.95 -0.858,2.766 -3.449,4.899 -6.163,5.076 2.43,-0.405 4.594,-2.317 5.407,-4.74"
         style="fill:#b4d854;fill-opacity:1;fill-rule:nonzero;stroke:none"
         id="path2114"
         inkscape:connector-curvature="0" />
      <path
         d="m 334.72135,1701.2241 c 0.129,2.174 1.235,4.754 2.788,7.333 -1.422,-0.207 -2.543,-1.002 -3.478,-2.086 -2.543,-3.871 -5.157,-5.985 -4.567,-7.862 0.305,-0.878 2.927,-3.133 4.597,-6.028 1.976,-2.732 1.607,-6.202 1.363,-6.27 0,0 0.066,0.01 0.19,0.032 0.821,0.783 1.58,4.065 0.904,7.262 -0.512,3.247 -1.823,6.213 -1.797,7.619"
         style="fill:#46ab37;fill-opacity:1;fill-rule:nonzero;stroke:none"
         id="path2118"
         inkscape:connector-curvature="0" />
      <path
         d="m 335.47385,1686.3953 c 0.221,0.01 1.109,3.3 -0.309,6.415 -1.099,3.204 -3.243,5.972 -3.394,7.116 -0.175,2.005 1.492,4.398 3.348,7.603 -0.398,-0.306 -0.765,-0.638 -1.109,-1.037 -2.526,-3.894 -5.143,-5.99 -4.552,-7.867 0.303,-0.874 2.935,-3.128 4.605,-6.021 1.978,-2.733 1.63,-6.208 1.383,-6.271 z"
         style="fill:#2d9337;fill-opacity:1;fill-rule:nonzero;stroke:none"
         id="path2122"
         inkscape:connector-curvature="0" />
      <path
         d="m 366.17155,1708.3954 c 0.014,-0.015 -0.983,-0.789 -2.211,-2.206 -1.362,-1.339 -2.256,-3.65 -5.386,-5.818 -3.332,-2.126 -7.664,-1.813 -10.202,-1.633 -2.731,0.196 -4.995,0.528 -6.274,0.888 -5.1,1.549 -8.454,4.442 -8.205,7.415 0.245,2.99 5.738,4.605 11.166,2.943 2.71,-0.516 8.316,-4.551 11.51,-4.614 1.934,0.028 4.578,1.67 6.46,2.222 1.912,0.653 3.15,0.781 3.142,0.803"
         style="fill:#69c52b;fill-opacity:1;fill-rule:nonzero;stroke:none"
         id="path2126"
         inkscape:connector-curvature="0" />
      <path
         d="m 344.40805,1709.7689 c 2.38,-0.507 7.503,-3.804 10.894,-4.753 1.711,-0.53 3.94,0.428 5.902,1.309 1.942,0.856 3.523,1.26 4.222,1.395 0.499,0.453 0.729,0.679 0.728,0.679 0.008,-0.022 -1.226,-0.149 -3.133,-0.798 -1.877,-0.55 -4.514,-2.179 -6.442,-2.212 -3.167,0.055 -8.74,4.075 -11.453,4.594 -3.166,0.927 -6.467,0.854 -8.6,-0.074 2.094,0.692 5.037,0.684 7.882,-0.14"
         style="fill:#b4d854;fill-opacity:1;fill-rule:nonzero;stroke:none"
         id="path2130"
         inkscape:connector-curvature="0" />
      <path
         d="m 341.65385,1703.7882 c -3.387,1.525 -5.598,3.645 -6.071,5.644 -0.975,-0.629 -1.559,-1.444 -1.688,-2.391 -0.249,-2.972 3.104,-5.866 8.205,-7.415 1.279,-0.36 3.542,-0.692 6.274,-0.887 2.538,-0.18 6.871,-0.493 10.202,1.633 3.129,2.168 4.023,4.479 5.385,5.818 1.228,1.417 2.226,2.191 2.212,2.206 0,0 -0.094,-0.018 -0.267,-0.051 -0.659,-0.403 -2.08,-1.353 -3.66,-2.86 -1.527,-1.404 -3.559,-3.785 -6.817,-4.247 -3.136,-0.456 -6.02,0.386 -8.356,0.892 -2.378,0.579 -4.313,1.169 -5.419,1.658"
         style="fill:#46ab37;fill-opacity:1;fill-rule:nonzero;stroke:none"
         id="path2134"
         inkscape:connector-curvature="0" />
      <path
         d="m 366.05035,1708.3163 c 0.011,-0.012 -1.076,-0.735 -2.461,-2.126 -1.48,-1.285 -2.717,-3.745 -6.11,-5.445 -3.496,-1.535 -7.298,-0.781 -9.847,-0.46 -2.738,0.417 -4.946,0.896 -6.211,1.346 -4.175,1.545 -6.926,3.939 -7.224,6.388 -0.166,-0.31 -0.303,-0.623 -0.35,-0.971 -0.245,-2.973 3.11,-5.862 8.207,-7.41 1.28,-0.359 3.54,-0.69 6.27,-0.887 2.529,-0.176 6.851,-0.504 10.191,1.598 3.158,2.151 4.047,4.477 5.407,5.816 1.226,1.42 2.221,2.195 2.208,2.209 z"
         style="fill:#2d9337;fill-opacity:1;fill-rule:nonzero;stroke:none"
         id="path2138"
         inkscape:connector-curvature="0" />
      <path
         d="m 301.53275,1698.9695 c 0.003,-0.034 1.316,0.296 3.248,-0.018 1.945,-0.239 4.37,-1.182 7.413,-2.003 1.526,-0.395 3.27,-0.735 5.231,-0.669 2.435,0.225 3.829,0.68 5.572,1.381 3.285,1.435 5.256,3.012 6.29,3.818 1.97,2.005 7.274,5.231 6.133,8.249 -0.512,1.4 -1.889,2.362 -4.016,2.787 -1.99,0.468 -5.994,-0.078 -9.082,-2.817 -1.236,-1.016 -2.628,-2.843 -4.019,-4.253 -0.591,-0.686 -1.843,-1.563 -2.306,-1.94 -0.941,-0.519 -2.221,-0.897 -3.595,-1.173 -2.757,-0.544 -5.787,-0.907 -7.819,-1.709 -2.065,-0.732 -3.041,-1.696 -3.05,-1.653"
         style="fill:#69c52b;fill-opacity:1;fill-rule:nonzero;stroke:none"
         id="path2142"
         inkscape:connector-curvature="0" />
      <path
         d="m 323.06465,1709.8169 c -2.501,-1.962 -4.691,-6.327 -8.747,-7.531 -2.322,-0.7 -5.142,-0.965 -7.337,-1.502 -2.234,-0.486 -3.783,-1.303 -4.397,-1.707 -0.698,-0.063 -1.042,-0.095 -1.041,-0.092 0.009,-0.042 0.983,0.92 3.042,1.65 2.025,0.801 5.044,1.168 7.793,1.712 1.37,0.277 2.649,0.649 3.589,1.166 0.451,0.366 1.705,1.25 2.294,1.925 1.385,1.404 2.762,3.206 3.994,4.226 3.734,3.296 8.308,3.356 10.181,2.567 -1.961,0.51 -5.698,0.489 -9.371,-2.414"
         style="fill:#b4d854;fill-opacity:1;fill-rule:nonzero;stroke:none"
         id="path2146"
         inkscape:connector-curvature="0" />
      <path
         d="m 327.96295,1705.3531 c 2.607,2.346 5.39,4.365 5.426,6.502 0.989,-0.514 1.724,-1.22 2.03,-2.128 1.14,-3.017 -4.162,-6.243 -6.133,-8.249 -1.035,-0.806 -3.005,-2.383 -6.291,-3.818 -1.743,-0.7 -3.137,-1.156 -5.572,-1.381 -1.961,-0.066 -3.704,0.275 -5.231,0.67 -3.042,0.821 -5.467,1.764 -7.412,2.002 -1.932,0.314 -3.246,-0.016 -3.248,0.018 0,0 0.081,0.059 0.233,0.168 0.777,0.269 2.587,0.574 4.879,0.346 2.301,-0.17 5.06,-0.88 8.176,-0.945 6.906,-0.118 11.676,5.711 13.143,6.815"
         style="fill:#46ab37;fill-opacity:1;fill-rule:nonzero;stroke:none"
         id="path2150"
         inkscape:connector-curvature="0" />
      <path
         d="m 301.68175,1699.0088 c -0.001,-0.022 1.344,0.382 3.397,0.179 2.067,-0.138 4.702,-0.968 7.928,-1.541 1.677,-0.234 3.299,-0.492 5.506,-0.034 1.773,0.371 3.485,1.093 4.935,1.89 2.817,1.612 4.843,3.389 5.451,3.903 2.484,2.149 6.436,4.653 6.04,7.234 0.22,-0.28 0.417,-0.564 0.529,-0.897 1.162,-3.009 -4.191,-6.264 -6.147,-8.235 -1.036,-0.803 -2.989,-2.373 -6.27,-3.815 -1.735,-0.71 -3.14,-1.162 -5.562,-1.4 -1.962,-0.072 -3.715,0.259 -5.243,0.653 -3.048,0.819 -5.473,1.767 -7.418,2.01 -1.935,0.328 -3.246,0 -3.249,0.031 z"
         style="fill:#2d9337;fill-opacity:1;fill-rule:nonzero;stroke:none"
         id="path2154"
         inkscape:connector-curvature="0" />
    </g>
  </g>
</svg>
