<?xml version="1.0" encoding="UTF-8" standalone="no"?>
<!-- Created with Inkscape (http://www.inkscape.org/) -->

<svg
   xmlns:dc="http://purl.org/dc/elements/1.1/"
   xmlns:cc="http://creativecommons.org/ns#"
   xmlns:rdf="http://www.w3.org/1999/02/22-rdf-syntax-ns#"
   xmlns:svg="http://www.w3.org/2000/svg"
   xmlns="http://www.w3.org/2000/svg"
   xmlns:sodipodi="http://sodipodi.sourceforge.net/DTD/sodipodi-0.dtd"
   xmlns:inkscape="http://www.inkscape.org/namespaces/inkscape"
   width="105.17272mm"
   height="34.359009mm"
   viewBox="0 0 372.65925 121.74452"
   id="svg4272"
   version="1.1"
   inkscape:version="0.91 r13725"
   sodipodi:docname="lentes.svg">
  <defs
     id="defs4274" />
  <sodipodi:namedview
     id="base"
     pagecolor="#ffffff"
     bordercolor="#666666"
     borderopacity="1.0"
     inkscape:pageopacity="0.0"
     inkscape:pageshadow="2"
     inkscape:zoom="0.35"
     inkscape:cx="-405.81323"
     inkscape:cy="-269.00791"
     inkscape:document-units="px"
     inkscape:current-layer="layer1"
     showgrid="false"
     fit-margin-top="0"
     fit-margin-left="0"
     fit-margin-right="0"
     fit-margin-bottom="0"
     inkscape:window-width="1366"
     inkscape:window-height="710"
     inkscape:window-x="0"
     inkscape:window-y="25"
     inkscape:window-maximized="1" />
  <metadata
     id="metadata4277">
    <rdf:RDF>
      <cc:Work
         rdf:about="">
        <dc:format>image/svg+xml</dc:format>
        <dc:type
           rdf:resource="http://purl.org/dc/dcmitype/StillImage" />
        <dc:title></dc:title>
      </cc:Work>
    </rdf:RDF>
  </metadata>
  <g
     inkscape:label="Capa 1"
     inkscape:groupmode="layer"
     id="layer1"
     transform="translate(-206.52752,-141.60977)">
    <g
       id="g4269"
       transform="matrix(7.482802,0,0,7.482802,-3686.506,-3715.5845)">
      <path
         id="path4224"
         transform="translate(344.8855,216.4756)"
         d="m 186.07227,299 c -3.47567,-0.007 -10.35743,1.20508 -10.35743,1.20508 0,0 -0.61665,2.09209 -0.17968,2.99023 0.20587,0.42315 1.16211,0.80469 1.16211,0.80469 0,0 0.76776,6.05734 2.67773,8.21289 1.58947,1.79383 4.12428,2.90927 6.51758,3.03711 3.02254,0.16145 6.18701,-0.70269 8.59375,-2.93555 2.68131,-2.48758 3.26953,-8.26545 5.64844,-8.49414 2.18471,-0.21002 3.9022,6.92386 6.2539,8.71485 3.05683,2.328 5.56515,2.74327 8.52149,2.53515 2.35139,-0.16553 4.89775,-1.15376 6.42968,-2.94531 1.78806,-2.09109 2.23243,-7.94727 2.23243,-7.94727 0,0 1.68906,-0.36018 1.60546,-0.98242 l -0.40039,-2.99023 c 0,0 -7.56913,-1.24658 -11.38476,-1.20508 -4.45541,0.0485 -8.80217,1.67931 -13.25781,1.69531 -4.72145,0.017 -9.34103,-1.68531 -14.0625,-1.69531 z m -0.50977,2.00977 c 3.84908,-0.0496 8.34623,0.84814 10.5293,2.5039 0.0935,1.97261 -1.28205,5.58373 -3.27149,7.40821 -1.75686,1.61115 -4.39176,2.50702 -6.76758,2.3125 -2.09474,-0.17154 -4.41811,-1.21451 -5.55468,-2.98243 -1.46117,-2.27282 -1.18714,-5.92832 -0.52539,-8.08984 1.20393,-0.75167 3.28039,-1.12256 5.58984,-1.15234 z m 29.52539,0 c 2.30945,0.0298 4.38591,0.40067 5.58984,1.15234 0.66175,2.16152 0.93774,5.81702 -0.52343,8.08984 -1.13657,1.76792 -3.45995,2.81089 -5.55469,2.98243 -2.37582,0.19453 -5.01072,-0.70135 -6.76758,-2.3125 -1.98944,-1.82447 -3.36497,-5.4356 -3.27148,-7.40821 2.18307,-1.65576 6.67826,-2.55354 10.52734,-2.5039 z"
         style="fill:#154f77;fill-opacity:1;fill-rule:evenodd;stroke:none;stroke-width:0.5;stroke-linecap:butt;stroke-linejoin:miter;stroke-miterlimit:4;stroke-dasharray:none;stroke-opacity:1"
         inkscape:connector-curvature="0" />
    </g>
  </g>
</svg>
