<?xml version="1.0" encoding="UTF-8" standalone="no"?>
<!-- Created with Inkscape (http://www.inkscape.org/) -->

<svg
   xmlns:dc="http://purl.org/dc/elements/1.1/"
   xmlns:cc="http://creativecommons.org/ns#"
   xmlns:rdf="http://www.w3.org/1999/02/22-rdf-syntax-ns#"
   xmlns:svg="http://www.w3.org/2000/svg"
   xmlns="http://www.w3.org/2000/svg"
   xmlns:sodipodi="http://sodipodi.sourceforge.net/DTD/sodipodi-0.dtd"
   xmlns:inkscape="http://www.inkscape.org/namespaces/inkscape"
   width="210mm"
   height="297mm"
   viewBox="0 0 744.09448819 1052.3622047"
   id="svg26100"
   version="1.1"
   inkscape:version="0.91 r13725"
   sodipodi:docname="papaya.svg">
  <defs
     id="defs26102" />
  <sodipodi:namedview
     id="base"
     pagecolor="#ffffff"
     bordercolor="#666666"
     borderopacity="1.0"
     inkscape:pageopacity="0.0"
     inkscape:pageshadow="2"
     inkscape:zoom="2.8"
     inkscape:cx="514.17212"
     inkscape:cy="935.10981"
     inkscape:document-units="px"
     inkscape:current-layer="layer1"
     showgrid="false"
     inkscape:window-width="1366"
     inkscape:window-height="710"
     inkscape:window-x="0"
     inkscape:window-y="25"
     inkscape:window-maximized="1" />
  <metadata
     id="metadata26105">
    <rdf:RDF>
      <cc:Work
         rdf:about="">
        <dc:format>image/svg+xml</dc:format>
        <dc:type
           rdf:resource="http://purl.org/dc/dcmitype/StillImage" />
        <dc:title></dc:title>
      </cc:Work>
    </rdf:RDF>
  </metadata>
  <g
     inkscape:label="Capa 1"
     inkscape:groupmode="layer"
     id="layer1">
    <path
       inkscape:connector-curvature="0"
       id="path54164"
       style="fill:#ff7f2a;fill-opacity:1;fill-rule:nonzero;stroke:none"
       d="m 406.25316,130.82537 c 0,-0.50667 0,-0.76 -0.013,-1.26667 -0.1253,-15.228 12.3134,-33.469331 29.4654,-29.41333 18.3,4.51333 36.3693,10.67733 55.4093,10.93733 25.8867,0.35334 51.0533,-9.49466 75.7027,-16.149331 19.492,-5.156 46.7186,14.740001 49.2026,34.597331 0.028,0.51867 0.02,0.75867 0.028,1.288 0.1334,23.91867 -9.8013,46.888 -36.5853,46.94133 -28.26,0.17867 -56.6133,1.04667 -84.8693,0.56934 -20.2747,-0.34267 -38.7414,-6.33334 -58.2907,-10.948 -16.1627,-3.90667 -29.88,-19.76667 -30.052,-36.556" />
    <path
       inkscape:connector-curvature="0"
       id="path54168"
       style="fill:#ff6600;fill-opacity:1;fill-rule:nonzero;stroke:none"
       d="m 616.03496,129.80737 c 0,0 -0.128,-0.172 -0.4013,-0.51467 -0.268,-0.34666 -0.6973,-0.85466 -1.3307,-1.52666 -1.2693,-1.344 -3.4333,-3.34667 -6.7413,-5.844 -3.3133,-2.47734 -7.7813,-5.47734 -13.0413,-8.11467 -2.6187,-1.30267 -5.4574,-2.528 -8.3627,-3.268 -0.7453,-0.16933 -1.5253,-0.39067 -2.248,-0.47067 -0.7347,-0.108 -1.4733,-0.23733 -2.2387,-0.26266 -0.38,-0.0253 -0.7626,-0.0493 -1.1466,-0.0733 -0.384,-0.016 -0.7694,10e-4 -1.156,10e-4 -0.388,0.0133 -0.776,0.0133 -1.168,0.02 -0.3894,0.0307 -0.7814,0.0613 -1.176,0.092 -7.116,1.16 -13.8387,3.00133 -20.7814,4.944 -7.9373,2.028 -16.0413,3.332 -24.1586,4.38933 -7.8107,1.01867 -15.636,1.916 -23.452,2.89333 -3.7867,0.47734 -7.66,1.05467 -11.32,1.372 -3.6494,0.316 -7.0654,0.48934 -10.4587,0.45867 -6.0987,-0.29333 -12.0573,-0.74533 -18.0693,-1.864 -5.3774,-1.02667 -10.5374,-1.87867 -15.1827,-3.212 -2.3173,-0.66933 -4.5107,-1.47867 -6.5867,-2.456 -2.0786,-0.96133 -4.0946,-1.97867 -6.1386,-2.84933 -4.084,-1.75334 -8.3174,-2.84667 -12.3414,-2.30934 -3.996,0.572 -7.6266,2.23067 -10.5893,4.25734 -2.9747,2.01866 -5.332,4.37333 -7.0747,6.55866 -1.7373,2.19467 -2.9093,4.17334 -3.6213,5.58134 -0.3667,0.69866 -0.572,1.27733 -0.7507,1.648 -0.1666,0.37733 -0.2546,0.57333 -0.2546,0.57333 0,0 0.077,-0.2 0.2253,-0.58533 0.16,-0.37867 0.34,-0.97067 0.6733,-1.69067 0.6547,-1.444 1.7187,-3.52533 3.4227,-5.81733 1.6973,-2.29067 4.0187,-4.792 7.0067,-6.996 1.4826,-1.12267 3.1586,-2.10667 4.9666,-2.97867 1.8174,-0.85067 3.7974,-1.47467 5.892,-1.85333 0.532,-0.0667 1.0694,-0.13067 1.6094,-0.192 0.5386,-0.0507 1.06,-0.0267 1.596,-0.04 1.1133,-0.0133 2.1906,0.13066 3.2933,0.30666 2.1947,0.37067 4.376,1.06 6.5213,1.884 2.144,0.82667 4.2534,1.78934 6.4014,2.68 1.0693,0.436 2.1653,0.86534 3.2786,1.248 1.12,0.37734 2.2707,0.72134 3.4547,1.03467 5.1707,1.284 10.4373,2.112 15.6827,3.02133 6.1293,1.084 12.2066,1.516 18.416,1.78534 3.4,0.0427 6.7213,-0.13067 10.2906,-0.448 3.56,-0.316 7.3334,-0.89334 11.1214,-1.39334 7.616,-1.004 15.2506,-1.85066 22.868,-2.85466 3.8786,-0.51334 7.8,-1.09734 11.684,-1.752 1.944,-0.33334 3.8546,-0.67734 5.7946,-1.07334 1.9094,-0.36533 3.7787,-0.81866 5.6347,-1.28666 3.7067,-0.95867 7.2747,-2.03067 10.7067,-2.88934 3.4306,-0.86533 6.744,-1.51733 9.9826,-1.71733 0.4054,-0.0227 0.808,-0.0453 1.208,-0.0667 0.4054,0 0.8067,0 1.2067,0.0133 0.4,0.0133 0.796,0 1.1947,0.028 0.3986,0.0347 0.796,0.0693 1.1906,0.10533 0.7827,0.0467 1.584,0.204 2.372,0.34533 0.8027,0.11467 1.528,0.36 2.2747,0.556 3.064,0.90267 5.892,2.25467 8.5427,3.68 5.2933,2.876 9.744,6.05467 13.036,8.66267 3.292,2.616 5.3746,4.74933 6.6,6.144 0.608,0.704 1.0133,1.23067 1.2653,1.58933 0.2573,0.35467 0.3773,0.53334 0.3773,0.53334" />
    <path
       inkscape:connector-curvature="0"
       id="path54172"
       style="fill:#ff6600;fill-opacity:1;fill-rule:nonzero;stroke:none"
       d="m 616.03496,129.80737 c 0,0 -0.7533,-0.22133 -2.316,-0.61733 -1.5626,-0.392 -3.968,-0.90134 -7.348,-1.39867 -3.3813,-0.50133 -7.744,-0.892 -13.096,-1.19067 -2.6706,-0.14666 -5.6133,-0.324 -8.7306,-0.47866 -3.112,-0.136 -6.4427,-0.21867 -9.9414,-0.14134 -7.7066,0.176 -15.3826,1.088 -22.9813,2.344 -8.7187,1.412 -17.4307,2.864 -26.1493,4.272 -8.8054,1.384 -17.6094,2.69067 -26.4534,3.79334 -7.6293,0.784 -15.1373,1.35866 -22.804,1.52 -6.1906,-0.0453 -11.2573,-0.80934 -15.568,-2.02667 -4.316,-1.188 -8.0093,-2.67067 -11.4746,-4.08267 -3.4614,-1.41866 -6.6654,-2.82666 -9.8067,-4.00133 -1.572,-0.58 -3.124,-1.10667 -4.6653,-1.55867 -0.7654,-0.236 -1.5467,-0.43333 -2.292,-0.63066 -0.7707,-0.164 -1.54,-0.336 -2.288,-0.41067 -1.5067,-0.19333 -3.0107,-0.20667 -4.4667,-0.10933 -1.4587,0.0787 -2.8773,0.28666 -4.244,0.54266 -2.7347,0.52534 -5.2733,1.26134 -7.504,1.928 -2.228,0.67867 -4.1587,1.24534 -5.5187,1.65067 -1.364,0.38933 -2.1426,0.62 -2.1426,0.62 0,0 0.7653,-0.27067 2.1053,-0.73733 1.3333,-0.488 3.2227,-1.17867 5.4293,-1.95734 2.208,-0.776 4.728,-1.65066 7.4867,-2.33866 2.7573,-0.67867 5.7827,-1.16934 8.9573,-0.912 0.804,0.044 1.5854,0.18 2.38,0.30666 0.808,0.16934 1.596,0.32534 2.4,0.52534 1.6067,0.38266 3.2227,0.86933 4.8694,1.39066 3.288,1.06534 6.676,2.344 10.284,3.712 3.6133,1.35867 7.4986,2.71067 11.892,3.896 5.092,1.35734 10.3786,1.94267 15.644,1.93067 7.5506,-0.14 14.9333,-0.70267 22.4466,-1.48667 8.6494,-1.08933 17.264,-2.344 25.8774,-3.68933 8.5413,-1.37067 17.08,-2.75467 25.6333,-4.04933 4.1053,-0.628 8.0907,-1.15067 11.9293,-1.48534 3.8387,-0.33466 7.5307,-0.48933 11.044,-0.48533 3.5147,0.0133 6.8427,0.15467 9.972,0.404 3.12,0.264 6,0.54133 8.6747,0.784 5.3373,0.48933 9.7373,1.044 13.1307,1.67867 3.3973,0.61333 5.792,1.28666 7.3453,1.75066 1.5493,0.47734 2.2893,0.73867 2.2893,0.73867" />
    <path
       inkscape:connector-curvature="0"
       id="path54176"
       style="fill:#ff6600;fill-opacity:1;fill-rule:nonzero;stroke:none"
       d="m 616.03496,129.80737 c 0,0 -0.1053,0.18267 -0.3226,0.54533 -0.2134,0.36667 -0.5427,0.91334 -0.996,1.68134 -0.9107,1.52666 -2.2987,3.98 -4.3427,7.356 -2.0547,3.35866 -4.692,7.716 -8.2787,12.16 -1.8093,2.19466 -3.8626,4.39999 -6.3573,6.25599 -0.64,0.41734 -1.292,0.83867 -1.9533,1.26267 -0.7187,0.34933 -1.4467,0.72667 -2.1974,1.05467 -0.764,0.268 -1.5253,0.59066 -2.3293,0.816 -0.8107,0.19866 -1.616,0.47866 -2.4693,0.612 -3.3814,0.688 -7.0774,0.88533 -10.9787,0.91066 -3.904,0.028 -8.028,-0.15333 -12.248,-0.136 -1.0613,-0.0133 -2.108,0.0347 -3.1773,0.0507 -1.0494,0.0587 -2.1227,0.08 -3.1734,0.17333 -2.1693,0.14934 -4.3093,0.34934 -6.46,0.57334 -4.312,0.46666 -8.652,1.04 -12.952,1.656 -8.444,1.212 -16.88,2.504 -25.3973,3.08666 -4.1853,0.27734 -8.3147,0.30667 -12.124,0.42134 -3.8213,0.11466 -7.3187,0.18 -10.7467,0.23866 -6.2773,-0.0787 -12.4,-0.29866 -18.6026,-1.368 -5.4254,-0.98266 -10.6774,-2.63866 -15.916,-4.32 -2.4054,-0.73733 -4.652,-1.31866 -6.8187,-1.748 -2.1813,-0.44533 -4.3227,-0.78266 -6.516,-1.22533 -2.188,-0.43333 -4.4253,-0.96667 -6.672,-1.72267 -0.5627,-0.19733 -1.1213,-0.38666 -1.6827,-0.61333 -0.168,-0.064 -0.252,-0.0973 -0.42,-0.16133 -0.08,-0.032 -0.1146,-0.0413 -0.2333,-0.092 -0.083,-0.0373 -0.124,-0.056 -0.2053,-0.0933 -0.2747,-0.12533 -0.5467,-0.24933 -0.8187,-0.372 -0.272,-0.12266 -0.544,-0.244 -0.8133,-0.364 -0.2747,-0.13466 -0.556,-0.29333 -0.8307,-0.43866 -0.5493,-0.30667 -1.108,-0.55734 -1.6333,-0.896 -0.5294,-0.32533 -1.0534,-0.644 -1.5734,-0.956 -0.5133,-0.336 -1.016,-0.692 -1.5146,-1.02667 -0.504,-0.324 -0.9867,-0.68933 -1.4627,-1.05066 -0.4747,-0.364 -0.952,-0.69734 -1.4053,-1.072 -0.9027,-0.75734 -1.7947,-1.452 -2.612,-2.22134 -0.412,-0.376 -0.828,-0.72933 -1.2187,-1.10266 -0.388,-0.38134 -0.7693,-0.75467 -1.1453,-1.12 -2.9827,-2.952 -5.2734,-5.81467 -6.94,-8.312 -1.6747,-2.5 -2.6974,-4.644 -3.36,-6.11067 -0.3174,-0.74133 -0.5094,-1.332 -0.6667,-1.71867 -0.148,-0.38933 -0.2253,-0.58933 -0.2253,-0.58933 0,0 0.088,0.196 0.2546,0.57867 0.176,0.37733 0.3947,0.956 0.7454,1.67733 0.72,1.43467 1.8533,3.48933 3.564,5.90667 1.7146,2.41066 4.044,5.156 7.02,7.95466 0.3733,0.34534 0.7533,0.69867 1.1386,1.06 0.3894,0.35334 0.8,0.68534 1.208,1.04 0.8094,0.724 1.688,1.372 2.5734,2.07867 1.8,1.324 3.72,2.70267 5.7586,3.82133 0.508,0.316 1.012,0.524 1.524,0.80134 0.2574,0.128 0.5107,0.268 0.772,0.392 0.2667,0.11199 0.5334,0.22533 0.8027,0.33999 0.268,0.11334 0.5373,0.22934 0.808,0.34667 0.081,0.0347 0.1213,0.052 0.2027,0.0867 0.069,0.0253 0.104,0.0373 0.1733,0.0627 0.1587,0.0573 0.2387,0.0853 0.3973,0.14267 0.5307,0.20133 1.06,0.36667 1.5907,0.54 2.124,0.66133 4.244,1.14 6.3253,1.50533 2.0867,0.38 4.1307,0.65734 6.2414,1.048 2.1066,0.36667 4.3186,0.948 6.6773,1.65467 5.08,1.61067 10.18,3.172 15.4307,4.128 6.088,1.04667 12.096,1.23733 18.2573,1.29733 3.4227,-0.0453 6.9773,-0.12266 10.8453,-0.252 3.8814,-0.128 8.0707,-0.17733 12.1907,-0.47333 8.5947,-0.64667 17.116,-1.91733 25.6427,-3.136 4.4026,-0.62 8.8573,-1.23067 13.3293,-1.66267 2.2467,-0.21466 4.4893,-0.40266 6.6787,-0.53466 1.1146,-0.088 2.24,-0.10134 3.3466,-0.152 1.1107,-0.0133 2.212,-0.04 3.3027,-0.0227 4.36,0.0293 8.528,0.23467 12.42,0.28533 3.8907,0.0507 7.5187,-0.0693 10.8053,-0.65733 0.8347,-0.108 1.6067,-0.36 2.396,-0.52933 0.7787,-0.19734 1.5094,-0.488 2.2507,-0.72267 0.7093,-0.28933 1.384,-0.616 2.0653,-0.91467 0.6627,-0.38933 1.3147,-0.77466 1.956,-1.15733 2.464,-1.676 4.5614,-3.73066 6.42,-5.79466 3.692,-4.18267 6.4654,-8.34667 8.6227,-11.56534 2.1333,-3.248 3.6587,-5.57066 4.6293,-7.04666 0.4867,-0.736 0.844,-1.26667 1.0747,-1.62134 0.2347,-0.352 0.3493,-0.52933 0.3493,-0.52933" />
    <path
       inkscape:connector-curvature="0"
       id="path54180"
       style="fill:#ff6600;fill-opacity:1;fill-rule:nonzero;stroke:none"
       d="m 616.03496,129.80737 c 0,0 -0.7146,0.29333 -2.1746,0.928 -1.4667,0.61867 -3.6934,1.59067 -6.856,2.804 -3.1534,1.23467 -7.2614,2.688 -12.2547,4.46667 -2.5027,0.88933 -5.1773,1.90933 -8.0747,3.03866 -2.9106,1.11734 -6.0546,2.204 -9.4386,3.22134 -3.3827,1.02133 -7.0227,1.908 -10.8787,2.65733 -3.86,0.73333 -7.9427,1.308 -12.1893,1.77733 -8.8374,0.97734 -17.68,1.876 -26.536,2.696 -8.8827,0.78534 -17.7667,1.52534 -26.66,2.17334 -7.5347,0.49466 -15.064,0.93866 -22.6067,1.27466 -6.1947,0.12667 -11.2573,-0.13066 -15.6187,-0.55333 -4.3813,-0.432 -8.2973,-1.35733 -11.968,-2.46267 -3.668,-1.09866 -7.1413,-2.456 -10.524,-3.84533 -1.6933,-0.696 -3.3613,-1.4 -5.0133,-2.112 -0.832,-0.36267 -1.6373,-0.70933 -2.4747,-1.08133 -0.4093,-0.192 -0.816,-0.37867 -1.22,-0.56267 -0.4106,-0.2 -0.828,-0.42133 -1.2373,-0.624 -3.2733,-1.688 -6.3587,-3.69467 -9.1293,-5.50533 -2.772,-1.812 -5.2734,-3.41734 -7.4614,-4.66267 -2.188,-1.24533 -4.0586,-2.14667 -5.38,-2.74533 -1.332,-0.57334 -2.0946,-0.85867 -2.0946,-0.85867 0,0 0.7773,0.24533 2.136,0.74533 1.352,0.51734 3.2693,1.30134 5.4786,2.46267 2.2147,1.14667 4.7347,2.63467 7.4827,4.30133 1.3733,0.83467 2.808,1.69867 4.2907,2.552 1.4813,0.872 3.02,1.70134 4.568,2.468 0.3853,0.18 0.7706,0.376 1.1613,0.556 0.3933,0.16667 0.788,0.33734 1.184,0.51067 0.7667,0.31867 1.5693,0.64 2.356,0.96 1.5827,0.63867 3.1813,1.29733 4.792,1.92933 3.224,1.26934 6.5,2.488 10.0093,3.528 3.5107,1.044 7.2174,1.83734 11.512,2.27067 4.2867,0.404 9.3387,0.64 15.536,0.49467 7.6374,-0.328 15.2547,-0.78934 22.8827,-1.312 9.0187,-0.67867 18.032,-1.40134 27.0413,-2.184 8.968,-0.81334 17.9334,-1.64934 26.8934,-2.54667 7.7653,-0.748 15.5146,-1.94133 23.056,-3.96533 3.3973,-0.908 6.5693,-1.92 9.516,-2.90534 2.948,-1.00533 5.7346,-1.932 8.2786,-2.71466 5.096,-1.57067 9.2374,-2.836 12.4307,-3.92534 3.192,-1.08666 5.4733,-1.892 6.9653,-2.43866 1.4907,-0.55334 2.22,-0.81067 2.22,-0.81067" />
    <path
       inkscape:connector-curvature="0"
       id="path54184"
       style="fill:#ff6600;fill-opacity:1;fill-rule:nonzero;stroke:none"
       d="m 611.16776,121.69644 c -1.7453,-2.82667 -5.8106,-6.76134 -8.9333,-8.91067 -4.0893,-2.816 -8.4013,-6.08667 -12.3667,-7.82933 -7.444,-3.27067 -15.032,-6.078671 -23.452,-5.581341 -1.4266,0.0853 -3.06,0.864001 -4.436,0.720001 3.204,-0.916001 6.36,-1.600001 9.6187,-2.184001 2.0747,-0.37066 3.1427,0.22934 5.0987,0.56934 1.38,0.24 2.8266,0.0613 4.2373,0.30533 6.2973,1.08667 11.72,3.697331 16.8,6.966671 5.6707,3.64933 9.848,9.98266 13.4333,15.944" />
    <path
       inkscape:connector-curvature="0"
       id="path54188"
       style="fill:#668000;fill-opacity:1;fill-rule:nonzero;stroke:none"
       d="m 579.75606,167.47363 c -1.636,0.392 -2.42,2.5 -1.628,4.06134 0.692,1.364 2.4267,2.11866 3.7933,1.68133 1.3654,-0.43867 2.1307,-2.06133 1.5854,-3.548 -0.5467,-1.48533 -2.32,-2.53733 -3.7507,-2.19467" />
    <path
       inkscape:connector-curvature="0"
       id="path54192"
       style="fill:#668000;fill-opacity:1;fill-rule:nonzero;stroke:none"
       d="m 585.75176,149.20017 c 0.3507,0.83467 1.2187,1.42533 2.0134,1.36533 0.796,-0.06 1.4546,-0.772 1.548,-1.65066 0.1333,-1.24934 -0.9934,-2.55334 -2.1427,-2.45334 -1.148,0.1 -1.9173,1.55067 -1.4187,2.73867" />
    <path
       inkscape:connector-curvature="0"
       id="path54196"
       style="fill:#ff9955;fill-opacity:1;fill-rule:nonzero;stroke:none"
       d="m 558.80716,169.42843 c -1.0227,-0.56933 -2.34,-0.42266 -2.8987,0.304 -0.5573,0.72667 -0.3173,1.92 0.5027,2.648 0.9733,0.86534 2.6573,0.92 3.3773,0.096 0.72,-0.824 0.232,-2.372 -0.9813,-3.048" />
    <path
       inkscape:connector-curvature="0"
       id="path54200"
       style="fill:#ff9955;fill-opacity:1;fill-rule:nonzero;stroke:none"
       d="m 540.17166,141.9299 c 0.7107,-1.65866 -1.576,-3.26533 -3.9,-2.7 -2.1907,0.532 -3.148,2.71467 -1.5253,3.812 1.6226,1.09734 4.756,0.452 5.4253,-1.112" />
    <path
       inkscape:connector-curvature="0"
       id="path54204"
       style="fill:#ff9955;fill-opacity:1;fill-rule:nonzero;stroke:none"
       d="m 494.50296,131.93804 c 1.14,-1.42267 0.085,-2.42 -1.7746,-1.65467 -1.8907,0.776 -3.5267,2.93467 -2.5627,3.488 0.8653,0.49733 3.2973,-0.53467 4.3373,-1.83333" />
    <path
       inkscape:connector-curvature="0"
       id="path54208"
       style="fill:#ff9955;fill-opacity:1;fill-rule:nonzero;stroke:none"
       d="m 455.56446,145.07137 c 0.6573,0.0227 0.7533,-1.344 0.4387,-2.356 -0.3294,-1.06267 -1.4374,-1.19067 -1.796,-0.208 -0.3587,0.98133 0.6666,2.54 1.3573,2.564" />
    <path
       inkscape:connector-curvature="0"
       id="path54212"
       style="fill:#ff9955;fill-opacity:1;fill-rule:nonzero;stroke:none"
       d="m 463.23406,156.2843 c -0.9187,-0.49333 -1.3213,-0.0973 -0.8107,0.796 0.5107,0.892 1.8374,2.072 2.6507,2.34267 0.8133,0.27066 0.8907,-0.43467 0.1493,-1.39734 -0.52,-0.676 -1.344,-1.396 -1.9893,-1.74133" />
    <path
       inkscape:connector-curvature="0"
       id="path54216"
       style="fill:#668000;fill-opacity:1;fill-rule:nonzero;stroke:none"
       d="m 480.86766,169.82803 c -0.184,0.344 0.065,1.02934 0.5693,1.628 0.5027,0.59734 1.2387,1.06134 1.788,1.09467 0.8374,0.0493 0.968,-0.99067 0.1387,-1.89467 -0.8293,-0.90266 -2.216,-1.352 -2.496,-0.828" />
    <path
       inkscape:connector-curvature="0"
       id="path54220"
       style="fill:#668000;fill-opacity:1;fill-rule:nonzero;stroke:none"
       d="m 445.19056,139.65017 c 0.3734,-0.34667 0.5934,-1.42933 0.4547,-2.276 -0.14,-0.84533 -0.6773,-1.30267 -1.1453,-0.96 -0.468,0.34267 -0.7147,1.42667 -0.4947,2.27467 0.2213,0.84933 0.8267,1.29466 1.1853,0.96133" />
    <path
       inkscape:connector-curvature="0"
       id="path54224"
       style="fill:#ff9955;fill-opacity:1;fill-rule:nonzero;stroke:none"
       d="m 468.51256,126.93244 c 0.172,-0.66134 -0.2013,-1.07867 -0.8746,-1 -0.672,0.0787 -1.592,0.64933 -2.2014,1.36666 -0.9493,1.12 -0.868,2.35067 0.156,2.224 1.024,-0.128 2.6507,-1.55866 2.92,-2.59066" />
    <path
       inkscape:connector-curvature="0"
       id="path54228"
       style="fill:#ff9955;fill-opacity:1;fill-rule:nonzero;stroke:none"
       d="m 467.84236,116.21124 c 1.0493,-0.88134 1.624,-2.44667 1.0853,-3.33467 -0.5387,-0.888 -2.0347,-0.65333 -2.6413,0.50933 -0.3867,0.73734 -0.3667,1.59867 -0.036,2.108 0.3306,0.508 0.9346,0.70534 1.592,0.71734" />
    <path
       inkscape:connector-curvature="0"
       id="path54232"
       style="fill:#ff9955;fill-opacity:1;fill-rule:nonzero;stroke:none"
       d="m 522.19536,114.53284 c 1.1947,-0.392 2.4547,-1.86267 2.368,-2.788 -0.088,-0.924 -1.4093,-1.04134 -2.5106,-0.24667 -0.828,0.59867 -1.4574,1.59867 -1.448,2.3 0.013,0.70133 0.6933,1.02933 1.5906,0.73467" />
    <path
       inkscape:connector-curvature="0"
       id="path54236"
       style="fill:#ff9955;fill-opacity:1;fill-rule:nonzero;stroke:none"
       d="m 537.11286,125.72324 c 0.3533,-1.316 -1.596,-1.872 -3.0227,-0.85334 -1.2386,0.884 -1.4706,2.45067 -0.344,2.76267 1.128,0.312 3.0614,-0.76933 3.3667,-1.90933" />
    <path
       inkscape:connector-curvature="0"
       id="path54240"
       style="fill:#ff9955;fill-opacity:1;fill-rule:nonzero;stroke:none"
       d="m 560.61756,137.94897 c 0.6213,-0.90267 0.7933,-1.92667 0.3133,-2.69467 -1.7253,0.15334 -3.4587,0.30934 -5.196,0.468 -0.216,0.692 -0.4667,1.38934 -0.6627,2.11867 1.4707,0.79467 3.756,0.864 5.5454,0.108" />
    <path
       inkscape:connector-curvature="0"
       id="path54244"
       style="fill:#ff9955;fill-opacity:1;fill-rule:nonzero;stroke:none"
       d="m 437.92356,122.3351 c 0.8546,-0.22 1.7213,-1.83733 1.5426,-2.97866 -0.2093,-1.32934 -1.808,-1.28934 -2.472,0.0613 -0.6626,1.34933 -0.067,3.17333 0.9294,2.91733" />
    <path
       inkscape:connector-curvature="0"
       id="path54248"
       style="fill:#668000;fill-opacity:1;fill-rule:nonzero;stroke:none"
       d="m 434.89856,131.44364 c -0.3666,1.11066 -0.073,2.69733 0.5,3.59066 0.5734,0.892 1.2974,1.116 1.8587,0.732 0.34,-0.712 0.508,-1.91466 0.4187,-3.01866 -0.091,-1.10267 -0.4747,-2.05867 -1.036,-2.392 -0.6067,-0.35867 -1.404,0.0667 -1.7414,1.088" />
    <path
       inkscape:connector-curvature="0"
       id="path54252"
       style="fill:#ff9955;fill-opacity:1;fill-rule:nonzero;stroke:none"
       d="m 438.33886,152.5655 c 0.456,-0.04 0.5573,-0.73066 0.2427,-1.556 -0.3147,-0.82533 -0.9854,-1.692 -1.52,-1.94666 -0.6707,-0.32134 -1.0134,0.43866 -0.656,1.47733 0.3573,1.03867 1.36,2.07467 1.9333,2.02533" />
    <path
       inkscape:connector-curvature="0"
       id="path54256"
       style="fill:#ff9955;fill-opacity:1;fill-rule:nonzero;stroke:none"
       d="m 447.71896,166.8451 c 0.56,0.13867 0.8094,-0.54667 0.684,-1.26933 -0.1266,-0.72267 -0.504,-1.49467 -0.7746,-2.24267 -0.2374,-0.084 -0.4747,-0.168 -0.7107,-0.252 -0.244,0.46933 -0.516,0.984 -0.4493,1.756 0.067,0.772 0.632,1.85467 1.2506,2.008" />
    <path
       inkscape:connector-curvature="0"
       id="path54260"
       style="fill:#668000;fill-opacity:1;fill-rule:nonzero;stroke:none"
       d="m 584.99256,131.04764 c -0.037,-0.62667 -0.8746,-1.14134 -1.7346,-1.09734 -0.86,0.044 -1.636,0.60267 -1.8134,1.22934 -0.092,0.32666 -0.027,0.68 0.2707,0.90666 0.244,0.18534 0.616,0.264 0.984,0.272 0.676,0.0147 1.38,-0.2 1.8493,-0.57333 0.468,-0.372 0.4747,-0.24533 0.444,-0.73733" />
    <path
       inkscape:connector-curvature="0"
       id="path54264"
       style="fill:#668000;fill-opacity:1;fill-rule:nonzero;stroke:none"
       d="m 581.02286,115.9731 c -0.5747,-0.404 -1.4547,-0.48533 -1.828,0.0147 -0.256,0.34133 -0.184,0.86 0.112,1.22 0.296,0.36 0.7787,0.56933 1.252,0.62267 0.3333,0.0387 0.688,0 0.916,-0.2 0.2373,-0.20534 0.2933,-0.556 0.1867,-0.868 -0.1054,-0.31334 -0.352,-0.588 -0.6387,-0.78934" />
    <path
       inkscape:connector-curvature="0"
       id="path54268"
       style="fill:#668000;fill-opacity:1;fill-rule:nonzero;stroke:none"
       d="m 556.47276,101.68084 c -0.496,0.17733 -0.8427,0.692 -1.136,1.16133 -0.3427,0.54933 -0.7107,1.22533 -0.4707,1.7 0.232,0.45867 0.904,0.452 1.4827,0.40133 0.7746,-0.068 1.7426,-0.25733 2.1293,-1.00133 0.3947,-0.76133 -0.1307,-1.484 -0.6773,-1.90933 -0.3627,-0.28134 -0.8187,-0.53334 -1.328,-0.352" />
    <path
       inkscape:connector-curvature="0"
       id="path54272"
       style="fill:#668000;fill-opacity:1;fill-rule:nonzero;stroke:none"
       d="m 600.73966,158.7863 c -0.5627,-0.0827 -1.152,-0.0413 -1.6267,0.28667 -0.4746,0.328 -0.8066,0.98933 -0.712,1.68133 0.089,0.64933 0.532,1.208 1.0307,1.47733 0.4973,0.26934 1.0427,0.29067 1.5507,0.212 0.4226,-0.0653 0.8413,-0.20133 1.168,-0.512 0.3253,-0.31066 0.5466,-0.82133 0.4946,-1.36666 -0.1,-1.04134 -1.072,-1.656 -1.9053,-1.77867" />
    <path
       inkscape:connector-curvature="0"
       id="path54276"
       style="fill:#ff6600;fill-opacity:1;fill-rule:nonzero;stroke:none"
       d="m 409.92616,140.1403 c 2.8934,7.744 8.4107,14.34267 14.9747,19.256 5.6867,4.25733 12.6173,7.44267 19.844,7.44 -13.8027,-4.51867 -26.6053,-14.82666 -34.8187,-26.696" />
  </g>
</svg>
